%FSTAX24Y24*%
%MOIN*%
%SFA1B1*%

%IPPOS*%
%AMD135*
4,1,8,0.037400,-0.017300,0.037400,0.017300,0.020200,0.034500,-0.020200,0.034500,-0.037400,0.017300,-0.037400,-0.017300,-0.020200,-0.034500,0.020200,-0.034500,0.037400,-0.017300,0.0*
1,1,0.034400,0.020200,-0.017300*
1,1,0.034400,0.020200,0.017300*
1,1,0.034400,-0.020200,0.017300*
1,1,0.034400,-0.020200,-0.017300*
%
%ADD86C,0.025000*%
%ADD100C,0.022000*%
%ADD119C,0.052000*%
G04~CAMADD=135~8~0.0~0.0~690.0~749.0~172.0~0.0~15~0.0~0.0~0.0~0.0~0~0.0~0.0~0.0~0.0~0~0.0~0.0~0.0~270.0~748.0~689.0*
%ADD135D135*%
%ADD136R,0.074900X0.069000*%
%ADD138R,0.037500X0.041400*%
%ADD139R,0.041400X0.037500*%
%ADD140R,0.061100X0.049300*%
%ADD156R,0.049300X0.061100*%
%ADD182C,0.202900*%
%ADD183C,0.206000*%
%ADD184C,0.053200*%
%ADD185C,0.068000*%
%ADD186R,0.065100X0.065100*%
%ADD187C,0.065100*%
%ADD188C,0.076900*%
%ADD189C,0.100000*%
%ADD190R,0.065100X0.065100*%
%ADD191C,0.242200*%
%ADD192C,0.100500*%
%ADD193C,0.024000*%
%ADD194C,0.030000*%
%ADD195C,0.028000*%
%LNdsau-motherboard-reva-1*%
%LPD*%
G54D86*
X10275Y01D02*
D01*
X102889Y010004*
X103028Y010019*
X103165Y010043*
X103301Y010077*
X103434Y01012*
X103563Y010172*
X103688Y010234*
X103809Y010303*
X103925Y010381*
X104035Y010467*
X104139Y010561*
X104236Y010661*
X104326Y010768*
X104408Y010881*
X104482Y011*
X104547Y011123*
X104604Y01125*
X104652Y011381*
X10469Y011516*
X104719Y011652*
X104739Y01179*
X104748Y01193*
X10475Y012*
Y072D02*
D01*
X104745Y072139*
X10473Y072278*
X104706Y072415*
X104672Y072551*
X104629Y072684*
X104577Y072813*
X104515Y072938*
X104446Y073059*
X104368Y073175*
X104282Y073285*
X104188Y073389*
X104088Y073486*
X103981Y073576*
X103868Y073658*
X10375Y073732*
X103626Y073797*
X103499Y073854*
X103368Y073902*
X103233Y07394*
X103097Y073969*
X102959Y073989*
X102819Y073998*
X10275Y074*
X012D02*
D01*
X01186Y073995*
X011721Y07398*
X011584Y073956*
X011448Y073922*
X011315Y073879*
X011186Y073827*
X011061Y073765*
X01094Y073696*
X010824Y073618*
X010714Y073532*
X01061Y073438*
X010513Y073338*
X010423Y073231*
X010341Y073118*
X010267Y073*
X010202Y072876*
X010145Y072749*
X010097Y072618*
X010059Y072483*
X01003Y072347*
X01001Y072209*
X010001Y072069*
X01Y072*
Y012D02*
D01*
X010004Y01186*
X010019Y011721*
X010043Y011584*
X010077Y011448*
X01012Y011315*
X010172Y011186*
X010234Y011061*
X010303Y01094*
X010381Y010824*
X010467Y010714*
X010561Y01061*
X010661Y010513*
X010768Y010423*
X010881Y010341*
X011Y010267*
X011123Y010202*
X01125Y010145*
X011381Y010097*
X011516Y010059*
X011652Y01003*
X01179Y01001*
X01193Y010001*
X012Y01*
Y074D02*
D01*
X01186Y073995*
X011721Y07398*
X011584Y073956*
X011448Y073922*
X011315Y073879*
X011186Y073827*
X011061Y073765*
X01094Y073696*
X010824Y073618*
X010714Y073532*
X01061Y073438*
X010513Y073338*
X010423Y073231*
X010341Y073118*
X010267Y073*
X010202Y072876*
X010145Y072749*
X010097Y072618*
X010059Y072483*
X01003Y072347*
X01001Y072209*
X010001Y072069*
X01Y072*
X10475Y057D02*
Y072D01*
Y012D02*
Y027D01*
X01Y071D02*
Y072D01*
X10475Y027D02*
Y057D01*
X068Y01D02*
X10275D01*
X012D02*
X068D01*
X012Y074D02*
X10275D01*
X01Y012D02*
Y071D01*
Y072*
G54D100*
X0428Y04933D03*
X04372D03*
X04637D03*
X04777Y04932D03*
X051856D03*
X052856Y049306D03*
X05375Y04925D03*
X0544Y0467D03*
Y0457D03*
Y0443D03*
Y04275D03*
Y0412D03*
Y0387D03*
Y0365D03*
Y03445D03*
Y0325D03*
Y0311D03*
X054Y03045D03*
X05285D03*
X0521D03*
Y02995D03*
X05305D03*
X054D03*
X0549Y0305D03*
Y0325D03*
Y03445D03*
Y03655D03*
Y0387D03*
Y0412D03*
Y04275D03*
Y0443D03*
Y04565D03*
Y0467D03*
Y0489D03*
X05403Y04977D03*
X05185D03*
X05286D03*
X04775Y0498D03*
X0464D03*
X045D03*
X04375D03*
X04285D03*
X0571Y0305D03*
X05595Y03105D03*
X05568Y03208D03*
X05525Y03225D03*
X0539Y05023D03*
X0529D03*
X05187D03*
X05087D03*
X04988D03*
X0489D03*
X04275Y05055D03*
X0458Y04805D03*
X04505D03*
X04445D03*
X04375D03*
X04305D03*
X0477Y0483D03*
X0481Y04605D03*
Y04515D03*
Y04445D03*
Y04375D03*
Y0427D03*
Y04185D03*
Y0414D03*
X0465Y03875D03*
Y03805D03*
Y0373D03*
Y0364D03*
Y0353D03*
Y0346D03*
Y03355D03*
Y0325D03*
X04625Y03135D03*
X04535Y03045D03*
X0443D03*
X04435Y02995D03*
X04535D03*
X04585Y03025D03*
X0466Y031D03*
X047Y0316D03*
Y0329D03*
Y0339D03*
Y0353D03*
Y0364D03*
Y0373D03*
Y03805D03*
Y03875D03*
X04857Y04128D03*
Y04183D03*
Y04272D03*
Y04372D03*
Y04443D03*
Y04517D03*
Y04608D03*
Y04827D03*
X04645Y04855D03*
X0455D03*
X04475D03*
X0441D03*
X0435D03*
X04285D03*
X04145Y0482D03*
X0408Y0467D03*
Y0457D03*
Y0447D03*
Y04365D03*
Y04255D03*
Y04145D03*
X04085Y0387D03*
Y03735D03*
Y0362D03*
Y0353D03*
Y03425D03*
Y0329D03*
X0407Y0316D03*
X04Y0309D03*
X03925Y03045D03*
X038D03*
X03715D03*
X0372Y02995D03*
X038D03*
X03925D03*
X0399D03*
X04045Y0305D03*
X0411Y03115D03*
X0414Y03175D03*
Y0329D03*
Y03425D03*
Y0362D03*
Y0353D03*
Y03735D03*
Y0387D03*
Y04145D03*
Y04255D03*
Y04365D03*
Y0447D03*
Y0457D03*
Y0467D03*
X042Y0482D03*
X03895Y0479D03*
X0387Y04825D03*
X038428Y046617D03*
X0384Y0455D03*
Y04435D03*
Y04325D03*
X0382Y0426D03*
X03745Y04185D03*
X0329Y03935D03*
X03265Y03795D03*
Y03685D03*
Y0356D03*
Y03435D03*
Y0332D03*
Y03225D03*
Y03155D03*
X0322Y03105D03*
X0311Y03045D03*
X03025D03*
X0294D03*
Y02995D03*
X03025D03*
X0311D03*
X03255Y03065D03*
X03315Y03125D03*
Y03225D03*
Y03325D03*
Y03435D03*
Y0356D03*
Y03685D03*
Y03795D03*
X03345Y0391D03*
X03785Y04145D03*
X0386Y0422D03*
X03895Y04325D03*
Y04435D03*
Y0455D03*
Y04665D03*
X02185Y02995D03*
X0226D03*
X02185Y03045D03*
X0226D03*
X0233Y02995D03*
Y03045D03*
X0243D03*
X024Y03085D03*
X024397Y031247D03*
X0247Y03085D03*
X0251Y03205D03*
X0246D03*
Y0348D03*
Y04455D03*
Y0427D03*
Y03345D03*
Y0327D03*
Y0358D03*
Y03405D03*
X0251Y03345D03*
Y0327D03*
X0246Y03685D03*
X0251Y0341D03*
X0246Y03875D03*
Y0378D03*
Y04145D03*
Y0402D03*
X0251Y0436D03*
Y0427D03*
X0246Y04365D03*
X0251Y0447D03*
Y03685D03*
Y0378D03*
Y03875D03*
Y0358D03*
Y0348D03*
Y04145D03*
X026264Y045859D03*
X03015Y04665D03*
X0361D03*
X0319D03*
X0348D03*
X03325D03*
X0375Y0479D03*
X03805D03*
X0375Y0499D03*
Y0488D03*
X03805D03*
X0375Y05115D03*
X03805Y0499D03*
Y05115D03*
X10225Y04675D03*
Y04625D03*
Y04575D03*
Y04725D03*
X10175Y04775D03*
X10025D03*
X09975D03*
X10075D03*
X10125D03*
X09825D03*
X09875D03*
X09925D03*
X09625D03*
X09675D03*
X09775D03*
X09725D03*
X09475D03*
X09575D03*
X09525D03*
X09325D03*
X09375D03*
X09425D03*
X09285Y047D03*
Y0475D03*
Y0465D03*
Y046D03*
Y0445D03*
Y044D03*
Y045D03*
Y0455D03*
Y0425D03*
Y043D03*
Y0435D03*
Y0405D03*
Y041D03*
Y042D03*
Y0415D03*
Y039D03*
Y04D03*
Y0395D03*
Y0375D03*
Y038D03*
Y0385D03*
X09425Y0371D03*
X09375D03*
X09325D03*
X09525D03*
X09475D03*
X10125D03*
X10075D03*
X10025D03*
X10175D03*
X10225Y0385D03*
Y038D03*
Y0375D03*
Y0405D03*
Y04D03*
Y039D03*
Y0395D03*
Y0425D03*
Y042D03*
Y041D03*
Y0415D03*
Y0435D03*
Y043D03*
Y044D03*
Y0445D03*
Y04505D03*
X0254Y03375D03*
X03345Y036D03*
X03395Y0365D03*
X03905D03*
X0417D03*
X04615Y03225D03*
X04575Y03325D03*
X0488Y0487D03*
X04265Y0483D03*
X0539Y0485D03*
X05335D03*
X054Y03225D03*
Y03325D03*
X0571Y03097D03*
X0565Y03135D03*
X05615Y0321D03*
Y03365D03*
Y03495D03*
Y0363D03*
X0564Y0367D03*
X05615Y0376D03*
Y03865D03*
Y041D03*
Y0414D03*
Y04235D03*
Y04345D03*
Y0448D03*
Y04575D03*
Y0467D03*
Y04845D03*
Y0493D03*
X0559Y05D03*
X055Y0507D03*
X0539D03*
X0529D03*
X0519D03*
X0509D03*
X0499D03*
X0489D03*
X04775D03*
X04645D03*
X045D03*
X0438D03*
X04315Y05095D03*
X04015Y05405D03*
Y0546D03*
Y0535D03*
Y0515D03*
Y0506D03*
Y04965D03*
Y0486D03*
X0427Y0478D03*
X0434D03*
X0441D03*
X04475D03*
X04545D03*
X0461D03*
X04675D03*
X04735D03*
X048D03*
X0489D03*
X05D03*
X05125D03*
X0526D03*
X05365D03*
X05715D03*
X05825D03*
X0598Y0476D03*
X0605Y0469D03*
X061104Y046296D03*
X0614Y046D03*
X04175Y0484D03*
X059014Y045486D03*
Y04665D03*
X058609Y047264D03*
X0572D03*
X05365D03*
X0526D03*
X05125D03*
X05D03*
X0489D03*
X0402D03*
X03985D03*
X03675D03*
X03635D03*
X03565D03*
X0351D03*
X03455D03*
X03405D03*
X03355D03*
X033D03*
X0325D03*
X0319D03*
X0314D03*
X03075D03*
X03015D03*
X0815Y02775D03*
X04875Y02375D03*
X05625D03*
Y02725D03*
X04875Y0265D03*
X06175Y05525D03*
X061Y02375D03*
X0864Y06375D03*
X0849Y0634D03*
X0899Y0627D03*
X0898Y06375D03*
X098Y047146D03*
X015Y06325D03*
X0215Y06225D03*
X02205D03*
X02175D03*
X02294Y06266D03*
X02259D03*
X02071D03*
X02101D03*
X02115Y06225D03*
X0209D03*
X02022Y06292D03*
Y06262D03*
X0165Y0603D03*
X01575Y0634D03*
X09916Y04041D03*
X0987Y0413D03*
X09916Y04204D03*
X0987Y0421D03*
X099134Y042784D03*
X099315Y046335D03*
X096704Y046254D03*
X0972Y04205D03*
X060886Y070636D03*
X060688Y070438D03*
X06049Y07024D03*
X060292Y070042D03*
X060094Y069844D03*
X059896Y069646D03*
X059698Y069448D03*
X0595Y06925D03*
X038007Y057134D03*
Y054866D03*
X0415Y05735D03*
X041493Y056882D03*
Y056378D03*
Y055874D03*
X044257Y057134D03*
Y054866D03*
X04775Y05735D03*
X047743Y056882D03*
Y056378D03*
Y055874D03*
X045724Y057724D03*
X046276D03*
X0459Y05595D03*
X0396D03*
X039382Y057732D03*
X039933Y057733D03*
X066721Y051421D03*
X062271D03*
X062274Y050476D03*
X066726D03*
X06675Y04955D03*
X066728Y048272D03*
X066723Y047327D03*
X052633Y05765D03*
X052082Y056D03*
Y05765D03*
X053993Y055874D03*
Y056378D03*
Y056882D03*
X054Y05735D03*
X050507Y054866D03*
Y057134D03*
X05975Y05525D03*
X033Y05535D03*
Y0533D03*
X0593Y05195D03*
Y05345D03*
X0905Y05775D03*
X095Y06D03*
X09375Y0705D03*
X094Y05375D03*
X0925D03*
X085121Y058665D03*
X08465Y059D03*
X08125Y02855D03*
X08145Y02875D03*
X07675Y03175D03*
X0765Y02725D03*
X093Y05435D03*
Y05615D03*
X0934D03*
X07475Y0264D03*
X07645Y02695D03*
X07475Y0275D03*
X07625Y02735D03*
X07825Y02625D03*
X07665Y0258D03*
X0755Y02465D03*
X0788Y0265D03*
X0812Y02765D03*
X08145Y02725D03*
X0781Y0266D03*
X0812Y02735D03*
X0585Y0527D03*
X066366Y055516D03*
Y056461D03*
Y057406D03*
Y05835D03*
Y059295D03*
Y054571D03*
Y053626D03*
X06265Y05455D03*
X062634Y056461D03*
Y055516D03*
Y057406D03*
Y05835D03*
Y059295D03*
Y059925D03*
X062654Y052696D03*
Y052396D03*
X066116Y052681D03*
Y052366D03*
X083871D03*
Y052681D03*
X080139Y052366D03*
Y052681D03*
X026Y072D03*
X02175Y07325D03*
X02875Y072D03*
X032Y07225D03*
X03475D03*
X0375Y072D03*
X04075Y073D03*
X04575Y06925D03*
Y06775D03*
X04475Y06525D03*
X09025Y07175D03*
Y0725D03*
Y07325D03*
X086345Y06895D03*
X088095D03*
X08975Y069D03*
X08525Y0675D03*
X087D03*
X08875D03*
X084Y058D03*
X08Y05775D03*
X082Y05875D03*
X0839Y05695D03*
X079Y0565D03*
X076077Y058177D03*
X075879Y057979D03*
X076275Y058375D03*
X06668Y0525D03*
X09105Y05865D03*
X09055Y059D03*
X094026Y0569D03*
X04725Y06825D03*
X04575D03*
X0475Y06525D03*
X0465Y0657D03*
X0415Y06835D03*
X04025Y06685D03*
X0395Y06675D03*
X03925Y069D03*
X038874Y069577D03*
X04255Y065224D03*
X04045D03*
X02375Y0484D03*
X023D03*
X022258Y048442D03*
X02375Y04665D03*
X023D03*
X02225D03*
X02275Y05025D03*
X03125Y05075D03*
Y0495D03*
Y05D03*
X03275Y04925D03*
X03125Y04875D03*
X0325Y0485D03*
Y048D03*
X03125Y04775D03*
X02975D03*
Y04875D03*
X029Y04925D03*
X0275Y05325D03*
X02625Y05225D03*
X0265Y05375D03*
Y05475D03*
X0245D03*
X02475Y05375D03*
X02425Y05425D03*
X02325Y05375D03*
X02825Y0475D03*
Y048D03*
X02425Y04775D03*
Y047D03*
Y0474D03*
X0312Y0555D03*
X02675D03*
X02295Y072D03*
X03125Y069D03*
X034D03*
X037D03*
X03065Y0696D03*
X0334Y06955D03*
X03615D03*
X02565Y0686D03*
X02815Y06865D03*
X02495Y06775D03*
X02735Y0675D03*
X09175Y04225D03*
X03545Y0662D03*
X0327Y06595D03*
X02995Y0665D03*
X03815Y06548D03*
X01825Y06575D03*
Y06725D03*
X05905Y06024D03*
X05625Y06025D03*
X05915Y06845D03*
X0533D03*
X0626Y0473D03*
X091Y07275D03*
X08475D03*
X05675Y06885D03*
X0523D03*
X091Y07325D03*
X08425Y07275D03*
X049Y071D03*
Y07D03*
X07025Y02875D03*
X062272Y048272D03*
X0627Y0489D03*
Y0486D03*
Y04985D03*
Y05015D03*
Y04955D03*
Y04925D03*
X06265Y051736D03*
Y0512D03*
Y0509D03*
Y052016D03*
Y05425D03*
Y05395D03*
Y0533D03*
Y053D03*
Y0536D03*
X06675Y0492D03*
X06125Y0415D03*
Y04122D03*
Y04094D03*
Y04066D03*
Y04025D03*
Y03997D03*
Y03969D03*
Y03941D03*
Y039D03*
Y03872D03*
Y03844D03*
Y03816D03*
X03775Y0525D03*
X04225Y05D03*
X0425Y05125D03*
X04875D03*
X0485Y05D03*
X0445Y05175D03*
X044Y0525D03*
X055Y05125D03*
X05475Y05D03*
X05075Y05175D03*
X05025Y0525D03*
X03225Y036D03*
X032Y0365D03*
X024Y03375D03*
X04725Y03325D03*
X04775Y03225D03*
X05525Y03325D03*
X079Y0455D03*
X076Y029814D03*
X07597Y03125D03*
X08035Y05045D03*
X08415Y0505D03*
X092474Y0569D03*
X07665Y0309D03*
X08008Y02782D03*
X080648Y027198D03*
X076898D03*
X07945Y0267D03*
X076673Y058373D03*
X072006Y056244D03*
X07295Y057189D03*
X0739Y058139D03*
X074361Y0586D03*
X072781Y02853D03*
X0738Y0588D03*
X0734Y0584D03*
X07265Y05765D03*
X0716Y0566D03*
X0713Y0552D03*
Y05385D03*
Y05265D03*
Y0512D03*
Y0504D03*
Y0496D03*
Y0488D03*
Y04775D03*
Y047D03*
Y0461D03*
Y04465D03*
Y0435D03*
Y0424D03*
Y04155D03*
Y04015D03*
Y03845D03*
Y0393D03*
Y03775D03*
Y0368D03*
Y036D03*
Y0353D03*
Y0344D03*
Y03335D03*
Y03255D03*
Y0317D03*
Y03055D03*
Y0296D03*
X071528Y029072D03*
X07215Y02845D03*
X072955Y030595D03*
X07185Y0461D03*
Y047D03*
Y04775D03*
Y0488D03*
Y0496D03*
Y0504D03*
Y0512D03*
Y05265D03*
Y05385D03*
Y0552D03*
X0799Y059295D03*
X07885Y0593D03*
X07655D03*
X0774D03*
X0781D03*
X07945D03*
X07185Y04465D03*
Y04345D03*
Y0424D03*
Y04155D03*
Y04015D03*
Y04085D03*
X0713D03*
X07185Y03925D03*
Y03845D03*
Y03775D03*
Y0368D03*
Y03605D03*
Y0353D03*
Y0344D03*
Y03335D03*
Y0326D03*
Y0317D03*
X080225Y058825D03*
X0284Y04695D03*
X02895Y04665D03*
X02745D03*
X04645Y05015D03*
X045D03*
X0438D03*
G54D119*
X09475Y02625D03*
X094D03*
X09625D03*
X09775D03*
X0985Y0255D03*
X09475D03*
X0955Y02475D03*
X097D03*
X0985D03*
Y024D03*
Y02325D03*
Y0225D03*
Y02175D03*
X09775D03*
Y0225D03*
Y024D03*
X097Y02175D03*
X09625D03*
Y0225D03*
Y024D03*
X0955D03*
Y02325D03*
Y0225D03*
Y02175D03*
X09475D03*
Y0225D03*
X094D03*
Y02175D03*
X097Y024D03*
Y0225D03*
X09625Y02325D03*
X097D03*
X09775D03*
X09625Y02475D03*
X09775D03*
Y0255D03*
X09625D03*
X09925D03*
Y02625D03*
Y02475D03*
Y024D03*
Y02325D03*
Y0225D03*
Y02175D03*
X09325Y02625D03*
X07125Y0275D03*
G54D135*
X060788Y0527D03*
G54D136*
X059312Y0527D03*
G54D138*
X039382Y05715D03*
X039933D03*
Y0564D03*
X039382D03*
X046276D03*
X045724D03*
Y057D03*
X046276D03*
X052633Y0565D03*
X052082D03*
Y05715D03*
X052633D03*
X059533Y0504D03*
X058982D03*
X075676Y029729D03*
X075125D03*
X075776Y0275D03*
X075224D03*
X081875Y02775D03*
X082426D03*
X081875Y02725D03*
X082426D03*
X081874Y0315D03*
X082426D03*
X085676Y028D03*
X085125D03*
X078776Y032D03*
X078224D03*
X081875Y0305D03*
X082426D03*
G54D139*
X06065Y049526D03*
Y048974D03*
X0614Y049526D03*
Y048974D03*
X0674D03*
Y049526D03*
X06815Y048974D03*
Y049526D03*
X06793Y051974D03*
Y052526D03*
X06718Y051974D03*
Y052526D03*
X06868Y051974D03*
Y052526D03*
X06715Y053224D03*
Y053776D03*
X0679Y053224D03*
Y053776D03*
X08515Y049474D03*
Y050026D03*
Y048526D03*
Y047974D03*
X0859Y048526D03*
Y047974D03*
X07865Y048776D03*
Y048224D03*
X0794Y048776D03*
Y048224D03*
Y052026D03*
Y051474D03*
Y052724D03*
Y053276D03*
X07865Y052724D03*
Y053276D03*
Y052026D03*
Y051474D03*
X023008Y047224D03*
Y047776D03*
X022258Y047224D03*
Y047776D03*
G54D140*
X058992Y049105D03*
Y049695D03*
X0859Y049455D03*
Y050045D03*
X023758Y047795D03*
Y047205D03*
G54D156*
X072955Y02975D03*
X073545D03*
X075105Y030479D03*
X075696D03*
X075305Y0264D03*
X075895D03*
X085105Y02725D03*
X085696D03*
G54D182*
X01765Y07D03*
X0195Y071181D03*
Y068819D03*
G54D183*
X083003Y035314D03*
X063502D03*
X083003Y072314D03*
X063502D03*
G54D184*
X0645Y062484D03*
X082005D03*
G54D185*
X0645Y045083D03*
X082005D03*
G54D186*
X0588Y0282D03*
X0513D03*
X0438D03*
X0363D03*
X0288D03*
X0213D03*
X0816Y02175D03*
X09725Y0625D03*
X04825Y06925D03*
X09175Y06175D03*
Y06375D03*
Y06275D03*
X05815Y06765D03*
X0575Y055D03*
G54D187*
X0578Y0282D03*
X0588Y0292D03*
X0578D03*
X0588Y0302D03*
X0578D03*
X0588Y0312D03*
X0578D03*
X0588Y0322D03*
X0578D03*
X0588Y0332D03*
X0578D03*
X0588Y0342D03*
X0578D03*
X0588Y0352D03*
X0578D03*
X0588Y0362D03*
X0578D03*
X0588Y0372D03*
X0578D03*
X0503Y0282D03*
X0513Y0292D03*
X0503D03*
X0513Y0302D03*
X0503D03*
X0513Y0312D03*
X0503D03*
X0513Y0322D03*
X0503D03*
X0513Y0332D03*
X0503D03*
X0513Y0342D03*
X0503D03*
X0513Y0352D03*
X0503D03*
X0513Y0362D03*
X0503D03*
X0513Y0372D03*
X0503D03*
X0428Y0282D03*
X0438Y0292D03*
X0428D03*
X0438Y0302D03*
X0428D03*
X0438Y0312D03*
X0428D03*
X0438Y0322D03*
X0428D03*
X0438Y0332D03*
X0428D03*
X0438Y0342D03*
X0428D03*
X0438Y0352D03*
X0428D03*
X0438Y0362D03*
X0428D03*
X0438Y0372D03*
X0428D03*
X0353Y0282D03*
X0363Y0292D03*
X0353D03*
X0363Y0302D03*
X0353D03*
X0363Y0312D03*
X0353D03*
X0363Y0322D03*
X0353D03*
X0363Y0332D03*
X0353D03*
X0363Y0342D03*
X0353D03*
X0363Y0352D03*
X0353D03*
X0363Y0362D03*
X0353D03*
X0363Y0372D03*
X0353D03*
X0278Y0282D03*
X0288Y0292D03*
X0278D03*
X0288Y0302D03*
X0278D03*
X0288Y0312D03*
X0278D03*
X0288Y0322D03*
X0278D03*
X0288Y0332D03*
X0278D03*
X0288Y0342D03*
X0278D03*
X0288Y0352D03*
X0278D03*
X0288Y0362D03*
X0278D03*
X0288Y0372D03*
X0278D03*
X0203Y0282D03*
X0213Y0292D03*
X0203D03*
X0213Y0302D03*
X0203D03*
X0213Y0312D03*
X0203D03*
X0213Y0322D03*
X0203D03*
X0213Y0332D03*
X0203D03*
X0213Y0342D03*
X0203D03*
X0213Y0352D03*
X0203D03*
X0213Y0362D03*
X0203D03*
X0213Y0372D03*
X0203D03*
X0816Y02075D03*
Y01975D03*
X07735Y014D03*
X07835D03*
X029Y0545D03*
X03D03*
X029Y05225D03*
X03D03*
X0435Y06925D03*
X04825Y06825D03*
Y06725D03*
X0474Y07325D03*
X0484Y07225D03*
Y07325D03*
X0494Y07225D03*
Y07325D03*
X0504Y07225D03*
Y07325D03*
X0514Y07225D03*
Y07325D03*
X0524Y07225D03*
Y07325D03*
X0534Y07225D03*
Y07325D03*
X0544Y07225D03*
Y07325D03*
X0554Y07225D03*
Y07325D03*
X0564Y07225D03*
Y07325D03*
X0574Y07225D03*
Y07325D03*
X0584Y07225D03*
Y07325D03*
X0594Y07225D03*
Y07325D03*
X08725Y06625D03*
X08825D03*
X08925D03*
X09025D03*
X09125D03*
G54D188*
X09247Y073386D03*
X09503D03*
Y071614D03*
X09247D03*
X04147Y073386D03*
X04403D03*
Y071614D03*
X04147D03*
G54D189*
X01425Y06675D03*
X01625D03*
X0275Y06475D03*
X0255D03*
X09775Y0495D03*
X09575D03*
X09525Y01675D03*
X09725D03*
G54D190*
X07635Y014D03*
X0355Y0545D03*
X04625Y06125D03*
X01625Y05375D03*
X048Y011D03*
X098Y033D03*
X017Y011D03*
X065Y02D03*
X028Y0545D03*
Y05225D03*
X0425Y06925D03*
X0474Y07225D03*
X0925Y02D03*
X08625Y06625D03*
G54D191*
X1025Y072D03*
Y012D03*
X012D03*
Y072D03*
G54D192*
X0905Y01175D03*
X0895Y01075D03*
X0915Y01275D03*
Y01075D03*
X0895Y01275D03*
X0665D03*
X0685Y01075D03*
Y01275D03*
X0665Y01075D03*
X0675Y01175D03*
X02225Y04275D03*
X02025Y04475D03*
Y04275D03*
X02225Y04475D03*
X02125Y04375D03*
X02875D03*
X02975Y04475D03*
X02775Y04275D03*
Y04475D03*
X02975Y04275D03*
X03725D03*
X03525Y04475D03*
Y04275D03*
X03725Y04475D03*
X03625Y04375D03*
X04375D03*
X04475Y04475D03*
X04275Y04275D03*
Y04475D03*
X04475Y04275D03*
X05225D03*
X05025Y04475D03*
Y04275D03*
X05225Y04475D03*
X05125Y04375D03*
X05875D03*
X05975Y04475D03*
X05775Y04275D03*
Y04475D03*
X05975Y04275D03*
X0365Y049D03*
X0345Y051D03*
Y049D03*
X0365Y051D03*
X0355Y05D03*
X0826Y01575D03*
X0836Y01675D03*
X0816Y01475D03*
Y01675D03*
X0836Y01475D03*
G54D193*
X0189Y0634D03*
X01925D03*
X0196D03*
X0189Y06375D03*
X01925D03*
X0196D03*
X0189Y0641D03*
X01925D03*
X0196D03*
X024504Y0593D03*
X024204Y06255D03*
Y0622D03*
X024504Y06255D03*
Y0622D03*
X025004Y06165D03*
Y0613D03*
Y0602D03*
X025354Y06165D03*
Y0613D03*
X025304Y0602D03*
X025004Y05985D03*
X025304D03*
X024154Y0593D03*
X024504Y05895D03*
X024154D03*
X09565Y03885D03*
Y0385D03*
X096Y03885D03*
X09655Y0377D03*
Y038D03*
X0969Y0377D03*
X098Y03765D03*
X09835D03*
X0969Y038D03*
X098D03*
X09835D03*
X0989Y0385D03*
X09925D03*
X0989Y0388D03*
X09925D03*
X019704Y0598D03*
X019004D03*
X019354D03*
X01925Y0615D03*
X024304Y05675D03*
X024654D03*
X025004D03*
X023954D03*
X019704Y05945D03*
X019354D03*
X019004D03*
X019704Y0591D03*
X019354D03*
X019004D03*
X020954Y0598D03*
X020604D03*
X020254D03*
X020954Y05945D03*
X020604D03*
X020254D03*
X020954Y0591D03*
X020604D03*
X020254D03*
X021304Y06435D03*
X021604D03*
X021954D03*
X022304D03*
X1008Y0407D03*
Y04105D03*
Y0414D03*
Y0417D03*
X09555Y04275D03*
Y0424D03*
Y04205D03*
X0959Y04275D03*
Y0424D03*
Y04205D03*
X09625Y04275D03*
Y0424D03*
Y04205D03*
X09555Y044D03*
Y04365D03*
Y0433D03*
X0959Y044D03*
Y04365D03*
Y0433D03*
X09345Y03905D03*
Y038D03*
Y03835D03*
Y0387D03*
X096Y0385D03*
X09795Y043754D03*
X09995Y04405D03*
Y0437D03*
X0996D03*
Y04405D03*
X1003D03*
Y0437D03*
Y04335D03*
X09995D03*
X0996D03*
X09625Y04365D03*
Y044D03*
Y0433D03*
G54D194*
X058Y0504D03*
Y0497D03*
X060033Y0504D03*
X08125Y0307D03*
X078383Y0315D03*
X07875Y03275D03*
X07825Y0326D03*
X06065Y049976D03*
Y048524D03*
X058992Y04855D03*
X061425Y05D03*
X06815Y050024D03*
X0674D03*
Y048524D03*
X06815D03*
X06923Y052526D03*
X06868Y0515D03*
X06793D03*
X06718D03*
X0667Y05325D03*
X06845Y0532D03*
X06715Y0543D03*
X0679D03*
X0806Y02005D03*
X0685Y01685D03*
X07625Y01825D03*
Y019D03*
X0743Y0162D03*
X0737Y0167D03*
X07585Y0162D03*
X0764Y0167D03*
X07625Y01775D03*
X0754D03*
X07585D03*
X07785Y01825D03*
X07655Y01735D03*
X0785Y013D03*
X07785Y019D03*
X09055Y01775D03*
X083Y0245D03*
X08165Y0258D03*
X0776Y02145D03*
Y02005D03*
X07805Y0205D03*
Y021D03*
X0799Y02135D03*
X0786Y0218D03*
X07825Y02155D03*
X07935Y0149D03*
X0814Y01875D03*
X0826Y018D03*
X0841Y01805D03*
X08335Y018D03*
X08325Y0203D03*
X0826Y02085D03*
X09225Y02245D03*
X09145Y0237D03*
Y0243D03*
X0899D03*
X09145Y02315D03*
X0905Y02375D03*
Y02225D03*
X0811Y03115D03*
X083Y02725D03*
X0829Y0277D03*
X0845Y0273D03*
X0862Y028D03*
X08625Y02725D03*
X0744Y029729D03*
X0743Y01775D03*
X08015Y02095D03*
X0806Y0216D03*
X09065Y02605D03*
X07985Y05145D03*
X08025D03*
X0802Y05365D03*
X0794Y0537D03*
X07985Y05455D03*
X0797Y05555D03*
X08415Y0555D03*
Y05645D03*
X0797D03*
Y0574D03*
Y05835D03*
X08415D03*
X084144Y057406D03*
X08415Y0593D03*
Y05455D03*
Y05365D03*
Y05145D03*
X084269Y049531D03*
X083895Y04795D03*
Y04675D03*
X0802Y0467D03*
X08015Y04825D03*
X0794Y0478D03*
X07865D03*
Y04915D03*
X0794D03*
X0803Y0492D03*
X080056Y04955D03*
X0842Y04895D03*
X08515D03*
X0866Y04945D03*
X08665Y05005D03*
X08515Y05055D03*
X0865Y048D03*
X08515Y0474D03*
X0865Y0485D03*
X07865Y0537D03*
X07425Y030229D03*
X08295Y0307D03*
X08185Y03095D03*
X08295Y0315D03*
X08135D03*
X08465Y028D03*
X08425D03*
X0205Y0665D03*
X01975Y06575D03*
Y06725D03*
X0175Y0665D03*
X09375Y05475D03*
X0614Y048524D03*
G54D195*
X078091Y029809D03*
X079509D03*
X0788Y0291D03*
X078091Y028391D03*
X079509D03*
X0791Y02075D03*
M02*