%FSTAX23Y23*%
%MOIN*%
%SFA1B1*%

%IPPOS*%
%AMD16*
4,1,8,0.034400,-0.015700,0.034400,0.015700,0.018700,0.031500,-0.018700,0.031500,-0.034400,0.015700,-0.034400,-0.015700,-0.018700,-0.031500,0.018700,-0.031500,0.034400,-0.015700,0.0*
1,1,0.031500,0.018700,-0.015700*
1,1,0.031500,0.018700,0.015700*
1,1,0.031500,-0.018700,0.015700*
1,1,0.031500,-0.018700,-0.015700*
%
G04~CAMADD=16~8~0.0~0.0~629.9~689.0~157.5~0.0~15~0.0~0.0~0.0~0.0~0~0.0~0.0~0.0~0.0~0~0.0~0.0~0.0~270.0~689.0~629.0*
%ADD16D16*%
%ADD17R,0.068900X0.062990*%
%ADD19R,0.031500X0.035430*%
%ADD20R,0.035430X0.031500*%
%ADD21R,0.055120X0.043310*%
%ADD40R,0.043310X0.055120*%
%ADD64C,0.008000*%
%ADD67C,0.010000*%
%ADD69C,0.020000*%
%ADD70C,0.022000*%
%ADD83C,0.068000*%
%ADD84C,0.094490*%
%ADD85R,0.059060X0.059060*%
%ADD86C,0.059060*%
%ADD87C,0.070870*%
%ADD88C,0.200000*%
%ADD89C,0.047240*%
%ADD90C,0.060000*%
%ADD91C,0.094000*%
%ADD92R,0.059060X0.059060*%
%ADD93C,0.236220*%
%ADD94C,0.196850*%
%ADD95C,0.020000*%
%ADD96C,0.022000*%
%ADD97C,0.028000*%
%ADD98C,0.025980*%
%ADD99C,0.050000*%
%LNdsau-motherboard-reva-1*%
%LPD*%
G36*
X06599Y05142D02*
Y05119D01*
X06595Y05117*
X06373Y05338*
X06369Y05341*
X06365Y05342*
X06279*
X06277Y05347*
X06281Y05352*
X06283Y0536*
X06281Y05367*
X06277Y05372*
X06272Y05376*
X06277Y05382*
X06278Y05382*
X06359*
X06599Y05142*
G37*
G36*
X03862Y0418D02*
X03841Y04159D01*
X03837Y04161*
Y0465*
X03862*
Y0418*
G37*
G36*
X03937Y04005D02*
X03828Y03896D01*
X0362*
X03618Y039*
X03883Y04166*
X03886Y0417*
X03887Y04175*
Y0465*
X03937*
Y04005*
G37*
G36*
X101Y07D02*
X1045D01*
Y01825*
X0925*
X08825Y0225*
Y02662*
X09125*
X09129Y02663*
X09133Y02666*
X09149Y02681*
X0915Y02681*
X09157Y02683*
X09162Y02687*
X09166Y02692*
X09168Y027*
X09166Y02707*
X09162Y02712*
X09157Y02716*
X0915Y02718*
X09142Y02716*
X09137Y02712*
X09133Y02707*
X09131Y027*
X09131Y02699*
X09119Y02687*
X08825*
Y03237*
X09361*
X09362Y03237*
X09367Y03233*
X09375Y03231*
X09382Y03233*
X09387Y03237*
X09391Y03242*
X09393Y0325*
X09391Y03257*
X09387Y03262*
X09382Y03266*
X09375Y03268*
X09367Y03266*
X09362Y03262*
X09361Y03262*
X08825*
Y04212*
X09161*
X09162Y04212*
X09167Y04208*
X09175Y04206*
X09182Y04208*
X09187Y04212*
X09191Y04217*
X09193Y04225*
X09191Y04232*
X09187Y04237*
X09182Y04241*
X09175Y04243*
X09167Y04241*
X09162Y04237*
X09161Y04237*
X08825*
Y05075*
X08524*
X08523Y05075*
X08515Y05077*
X08506Y05075*
X08505Y05075*
X0664*
Y05162*
X06639Y05166*
X06636Y0517*
X06373Y05433*
X06369Y05436*
X06365Y05437*
X06279*
X06277Y05442*
X06281Y05447*
X06283Y05455*
X06281Y05462*
X06277Y05467*
X06272Y05471*
X06265Y05473*
X06257Y05471*
X06252Y05467*
X06248Y05462*
X06246Y05455*
X06248Y05447*
X06252Y05442*
Y05437*
X06248Y05432*
X06246Y05425*
X06248Y05417*
X06252Y05412*
Y05407*
X06248Y05402*
X06246Y05395*
X06248Y05387*
X06252Y05382*
X06255Y0538*
Y05375*
X06252Y05372*
X06248Y05367*
X06246Y0536*
X06248Y05352*
X06252Y05347*
Y05342*
X06248Y05337*
X06246Y0533*
X06248Y05322*
X06252Y05317*
Y05312*
X06248Y05307*
X06246Y053*
X06248Y05292*
X06252Y05287*
X06257Y05283*
X06265Y05281*
X06272Y05283*
X06277Y05287*
X06278Y05287*
X06359*
X06567Y05079*
Y05075*
X06412*
X06282Y05204*
X06281Y05208*
X06277Y05214*
X06272Y05218*
X06265Y05219*
X06257Y05218*
X06252Y05214*
X06248Y05208*
X06246Y05201*
X06248Y05194*
X06252Y05188*
Y05186*
X06248Y0518*
X06246Y05173*
X06248Y05166*
X06252Y0516*
X06252Y0516*
Y05151*
X06253Y05146*
X06256Y05142*
X06257Y05141*
X06257Y05136*
X06252Y05132*
X06248Y05127*
X06246Y0512*
X06248Y05112*
X06252Y05107*
Y05102*
X06248Y05097*
X06246Y0509*
X06248Y05082*
X0625Y05079*
X06248Y05075*
X06187*
Y05511*
X06187Y05512*
X06191Y05517*
X06193Y05525*
X06191Y05532*
X06187Y05537*
X06182Y05541*
X06175Y05543*
X06167Y05541*
X06162Y05537*
X06158Y05532*
X06156Y05525*
X06158Y05517*
X06162Y05512*
X06162Y05511*
Y05075*
X057*
Y05875*
X0335*
Y04653*
X02832*
X02832Y04658*
X02837Y04662*
X02841Y04667*
X02843Y04675*
X02841Y04682*
X02837Y04687*
X02832Y04691*
X02825Y04693*
X02817Y04691*
X02812Y04687*
X02808Y04682*
X02806Y04675*
X02808Y04667*
X02812Y04662*
X02817Y04658*
X02817Y04653*
X02618*
X02613Y04652*
X02609Y04649*
X02419Y04459*
X02416Y04455*
X02415Y0445*
Y03625*
Y03391*
X02411Y03389*
X02407Y03391*
X024Y03393*
X02392Y03391*
X02387Y03387*
X02386Y03387*
X02325*
X0232Y03386*
X02316Y03383*
X02264Y03332*
X02165*
X02162Y03338*
X02156Y03346*
X02148Y03352*
X02139Y03356*
X0213Y03357*
X0212Y03356*
X02111Y03352*
X02103Y03346*
X02097Y03338*
X02093Y03329*
X02092Y0332*
X02093Y0331*
X02097Y03301*
X02103Y03293*
X02111Y03287*
X0212Y03283*
X0213Y03282*
X02139Y03283*
X02148Y03287*
X02156Y03293*
X02162Y03301*
X02165Y03307*
X0227*
X02274Y03308*
X02278Y03311*
X0233Y03362*
X02386*
X02387Y03362*
X02392Y03358*
X024Y03356*
X02407Y03358*
X02411Y0336*
X02415Y03358*
Y03308*
X02339Y03232*
X02165*
X02162Y03238*
X02156Y03246*
X02148Y03252*
X02139Y03256*
X0213Y03257*
X0212Y03256*
X02111Y03252*
X02103Y03246*
X02097Y03238*
X02093Y03229*
X02092Y0322*
X02093Y0321*
X02097Y03201*
X02103Y03193*
X02111Y03187*
X0212Y03183*
X0213Y03182*
X02139Y03183*
X02148Y03187*
X02156Y03193*
X02162Y03201*
X02165Y03207*
X02345*
X02349Y03208*
X02353Y03211*
X02433Y0329*
X02437Y03288*
Y03105*
X02364Y03032*
X02165*
X02162Y03038*
X02156Y03046*
X02148Y03052*
X02139Y03056*
X0213Y03057*
X0212Y03056*
X02111Y03052*
X02103Y03046*
X02097Y03038*
X02093Y03029*
X02092Y0302*
X02093Y0301*
X02097Y03001*
X02103Y02993*
X02111Y02987*
X0212Y02983*
X0213Y02982*
X02139Y02983*
X02148Y02987*
X02156Y02993*
X02162Y03001*
X02165Y03007*
X0237*
X02374Y03008*
X02378Y03011*
X02458Y03091*
X02461Y03095*
X02462Y031*
Y03356*
X02466Y03358*
X02467Y03358*
X02475Y03356*
X02482Y03358*
X02487Y03362*
X02491Y03367*
X02493Y03375*
X02491Y03382*
X02487Y03387*
X02487Y03388*
Y037*
Y04444*
X0263Y04587*
X0365*
X03654Y04588*
X03658Y04591*
X03717Y0465*
X03812*
Y04155*
X03585Y03928*
X03393*
X03388Y03927*
X03384Y03924*
X03266Y03806*
X03263Y03802*
X03262Y03797*
Y0313*
X03164Y03032*
X02915*
X02912Y03038*
X02906Y03046*
X02898Y03052*
X02889Y03056*
X0288Y03057*
X0287Y03056*
X02861Y03052*
X02853Y03046*
X02847Y03038*
X02843Y03029*
X02842Y0302*
X02843Y0301*
X02847Y03001*
X02853Y02993*
X02861Y02987*
X0287Y02983*
X0288Y02982*
X02889Y02983*
X02898Y02987*
X02906Y02993*
X02912Y03001*
X02915Y03007*
X0317*
X03174Y03008*
X03178Y03011*
X03283Y03116*
X03286Y0312*
X03287Y03125*
Y03581*
X03291Y03583*
X03292Y03583*
X033Y03581*
X03307Y03583*
X03312Y03587*
X03316Y03592*
X03318Y036*
X03316Y03607*
X03312Y03612*
X03312Y03613*
Y03631*
X03316Y03633*
X03317Y03633*
X03325Y03631*
X03332Y03633*
X03337Y03637*
X03341Y03642*
X03343Y0365*
X03341Y03657*
X03337Y03662*
X03337Y03663*
Y03794*
X03414Y03871*
X03834*
X03838Y03872*
X03842Y03875*
X03958Y03991*
X03961Y03995*
X03962Y04*
Y0465*
X04037*
Y036*
Y0328*
X03989Y03232*
X03665*
X03662Y03238*
X03656Y03246*
X03648Y03252*
X03639Y03256*
X0363Y03257*
X0362Y03256*
X03611Y03252*
X03603Y03246*
X03597Y03238*
X03593Y03229*
X03592Y0322*
X03593Y0321*
X03597Y03201*
X03603Y03193*
X03611Y03187*
X0362Y03183*
X0363Y03182*
X03639Y03183*
X03648Y03187*
X03656Y03193*
X03662Y03201*
X03665Y03207*
X03995*
X03999Y03208*
X04003Y03211*
X04058Y03265*
X04061Y03264*
X04062Y03263*
Y0313*
X03964Y03032*
X03665*
X03662Y03038*
X03656Y03046*
X03648Y03052*
X03639Y03056*
X0363Y03057*
X0362Y03056*
X03611Y03052*
X03603Y03046*
X03597Y03038*
X03593Y03029*
X03592Y0302*
X03593Y0301*
X03597Y03001*
X03603Y02993*
X03611Y02987*
X0362Y02983*
X0363Y02982*
X03639Y02983*
X03648Y02987*
X03656Y02993*
X03662Y03001*
X03665Y03007*
X0397*
X03974Y03008*
X03978Y03011*
X04083Y03116*
X04086Y0312*
X04087Y03125*
Y03631*
X04091Y03633*
X04092Y03633*
X041Y03631*
X04107Y03633*
X04112Y03637*
X04116Y03642*
X04118Y0365*
X04116Y03657*
X04112Y03662*
X04112Y03663*
Y0465*
X04812*
Y04052*
X047Y0394*
X04666Y03906*
X04663Y03902*
X04662Y03897*
Y03775*
Y03343*
X04658Y03341*
X04657Y03341*
X0465Y03343*
X04642Y03341*
X04637Y03337*
X04633Y03332*
X04415*
X04412Y03338*
X04406Y03346*
X04398Y03352*
X04389Y03356*
X0438Y03357*
X0437Y03356*
X04361Y03352*
X04353Y03346*
X04347Y03338*
X04343Y03329*
X04342Y0332*
X04343Y0331*
X04347Y03301*
X04353Y03293*
X04361Y03287*
X0437Y03283*
X0438Y03282*
X04389Y03283*
X04398Y03287*
X04406Y03293*
X04412Y03301*
X04415Y03307*
X04644*
X0465Y03306*
X04657Y03308*
X04658Y03308*
X04662Y03306*
Y03243*
X04658Y03241*
X04657Y03241*
X0465Y03243*
X04642Y03241*
X04637Y03237*
X04636Y03237*
X04413*
X04412Y03238*
X04406Y03246*
X04398Y03252*
X04389Y03256*
X0438Y03257*
X0437Y03256*
X04361Y03252*
X04353Y03246*
X04347Y03238*
X04343Y03229*
X04342Y0322*
X04343Y0321*
X04347Y03201*
X04353Y03193*
X04361Y03187*
X0437Y03183*
X0438Y03182*
X04389Y03183*
X04398Y03187*
X04406Y03193*
X04412Y03201*
X04416Y0321*
X04416Y03212*
X04636*
X04637Y03212*
X04642Y03208*
X0465Y03206*
X04657Y03208*
X04658Y03208*
X04662Y03206*
Y03155*
X04539Y03032*
X04415*
X04412Y03038*
X04406Y03046*
X04398Y03052*
X04389Y03056*
X0438Y03057*
X0437Y03056*
X04361Y03052*
X04353Y03046*
X04347Y03038*
X04343Y03029*
X04342Y0302*
X04343Y0301*
X04347Y03001*
X04353Y02993*
X04361Y02987*
X0437Y02983*
X0438Y02982*
X04389Y02983*
X04398Y02987*
X04406Y02993*
X04412Y03001*
X04415Y03007*
X04545*
X04549Y03008*
X04553Y03011*
X04683Y03141*
X04686Y03145*
X04687Y0315*
Y03775*
Y03892*
X04708Y03913*
X04712Y03911*
Y03338*
X04712Y03337*
X04708Y03332*
X04706Y03325*
X04708Y03317*
X04712Y03312*
X04717Y03308*
X04725Y03306*
X04732Y03308*
X04737Y03312*
X04741Y03317*
X04743Y03325*
X04741Y03332*
X04737Y03337*
X04737Y03338*
Y03919*
X04758Y0394*
X04762Y03938*
Y03625*
Y03575*
Y03238*
X04762Y03237*
X04758Y03232*
X04756Y03225*
X04758Y03217*
X04762Y03212*
X04767Y03208*
X04775Y03206*
X04782Y03208*
X04787Y03212*
X04791Y03217*
X04793Y03225*
X04791Y03232*
X04787Y03237*
X04787Y03238*
Y03625*
Y03944*
X04955Y04112*
X05425*
X05429Y04113*
X05433Y04116*
X05458Y04141*
X05461Y04145*
X05462Y0415*
Y0465*
X05487*
Y03775*
Y03105*
X05414Y03032*
X05165*
X05162Y03038*
X05156Y03046*
X05148Y03052*
X05139Y03056*
X0513Y03057*
X0512Y03056*
X05111Y03052*
X05103Y03046*
X05097Y03038*
X05093Y03029*
X05092Y0302*
X05093Y0301*
X05097Y03001*
X05103Y02993*
X05111Y02987*
X0512Y02983*
X0513Y02982*
X05139Y02983*
X05148Y02987*
X05156Y02993*
X05162Y03001*
X05165Y03007*
X0542*
X05424Y03008*
X05428Y03011*
X05508Y03091*
X05511Y03095*
X05512Y031*
Y03306*
X05516Y03308*
X05517Y03308*
X05525Y03306*
X05532Y03308*
X05533Y03308*
X05537Y03306*
Y03238*
X05537Y03237*
X05533Y03232*
X05531Y03225*
X05533Y03217*
X05537Y03212*
X05542Y03208*
X0555Y03206*
X05557Y03208*
X05558Y03208*
X05562Y03206*
Y03175*
X05563Y0317*
X05566Y03166*
X05666Y03066*
X05668Y03064*
X0567Y03063*
X05675Y03062*
X05779*
X05779Y03057*
X0577Y03056*
X05761Y03052*
X05753Y03046*
X05747Y03038*
X05743Y03029*
X05742Y0302*
X05743Y0301*
X05747Y03001*
X05753Y02993*
X05761Y02987*
X0577Y02983*
X0578Y02982*
X05789Y02983*
X05798Y02987*
X05806Y02993*
X05812Y03001*
X05816Y0301*
X05817Y0302*
X05816Y03029*
X05812Y03038*
X05806Y03046*
X05798Y03052*
X05789Y03056*
X0578Y03057*
X0578Y03062*
X0578Y03062*
X05819*
X05846Y03036*
X05843Y03029*
X05842Y0302*
X05843Y0301*
X05847Y03001*
X05853Y02993*
X05861Y02987*
X0587Y02983*
X0588Y02982*
X05889Y02983*
X05898Y02987*
X05906Y02993*
X05912Y03001*
X05916Y0301*
X05917Y0302*
X05916Y03029*
X05912Y03038*
X05906Y03046*
X05898Y03052*
X05889Y03056*
X0588Y03057*
X0587Y03056*
X05863Y03053*
X05833Y03083*
X05829Y03086*
X05825Y03087*
X05806*
X05805Y03091*
X05806Y03093*
X05812Y03101*
X05816Y0311*
X05817Y0312*
X05816Y03129*
X05812Y03138*
X05806Y03146*
X05798Y03152*
X05789Y03156*
X0578Y03157*
X0577Y03156*
X05761Y03152*
X05753Y03146*
X05747Y03138*
X05743Y03129*
X05742Y0312*
X05743Y0311*
X05747Y03101*
X05753Y03093*
X05754Y03091*
X05753Y03087*
X0568*
X05587Y0318*
Y03656*
X05591Y03658*
X05592Y03658*
X056Y03656*
X05607Y03658*
X05608Y03658*
X05612Y03656*
Y0335*
X05613Y03345*
X05616Y03341*
X05704Y03252*
X05708Y0325*
X05713Y03249*
X05749*
X05751Y03244*
X05747Y03238*
X05743Y03229*
X05742Y0322*
X05743Y0321*
X05747Y03201*
X05753Y03193*
X05761Y03187*
X0577Y03183*
X0578Y03182*
X05789Y03183*
X05798Y03187*
X05806Y03193*
X05812Y03201*
X05816Y0321*
X05817Y03217*
X05822Y03219*
X0583Y03211*
X05834Y03208*
X05838Y03207*
X05844*
X05847Y03201*
X05853Y03193*
X05861Y03187*
X0587Y03183*
X0588Y03182*
X05889Y03183*
X05898Y03187*
X05906Y03193*
X05912Y03201*
X05916Y0321*
X05917Y0322*
X05916Y03229*
X05912Y03238*
X05906Y03246*
X05898Y03252*
X05889Y03256*
X0588Y03257*
X0587Y03256*
X05861Y03252*
X05853Y03246*
X05847Y03238*
X05845Y03235*
X05841Y03234*
X05805Y0327*
X05801Y03272*
X05797Y03273*
X05718*
X05637Y03355*
Y0465*
X06*
Y04528*
X05995Y04526*
X05989Y04528*
X05975Y0453*
X0596Y04528*
X05947Y04523*
X05935Y04514*
X05926Y04502*
X05921Y04489*
X05919Y04475*
X05921Y0446*
X05926Y04447*
X05935Y04435*
X05947Y04426*
X0596Y04421*
X05975Y04419*
X05989Y04421*
X05995Y04423*
X06Y04421*
Y04328*
X05995Y04326*
X05989Y04328*
X05975Y0433*
X0596Y04328*
X05947Y04323*
X05935Y04314*
X05926Y04302*
X05921Y04289*
X05919Y04275*
X05921Y0426*
X05926Y04247*
X05935Y04235*
X05947Y04226*
X0596Y04221*
X05975Y04219*
X05989Y04221*
X05995Y04223*
X06Y04221*
Y0105*
X01375*
Y05875*
Y07375*
X04115*
X04116Y0737*
X04116Y07369*
X04109Y0736*
X04104Y07349*
X04103Y07338*
X04104Y07327*
X04109Y07316*
X04116Y07307*
X04125Y073*
X04135Y07296*
X04147Y07294*
X04158Y07296*
X04168Y073*
X04178Y07307*
X04184Y07316*
X04189Y07327*
X0419Y07338*
X04189Y07349*
X04184Y0736*
X04178Y07369*
X04177Y0737*
X04178Y07375*
X04371*
X04372Y0737*
X04371Y07369*
X04365Y0736*
X0436Y07349*
X04359Y07338*
X0436Y07327*
X04365Y07316*
X04371Y07307*
X04381Y073*
X04391Y07296*
X04402Y07294*
X04414Y07296*
X04424Y073*
X04433Y07307*
X0444Y07316*
X04445Y07327*
X04446Y07338*
X04445Y07349*
X0444Y0736*
X04433Y07369*
X04433Y0737*
X04434Y07375*
X09215*
X09216Y0737*
X09216Y07369*
X09209Y0736*
X09204Y07349*
X09203Y07338*
X09204Y07327*
X09209Y07316*
X09216Y07307*
X09225Y073*
X09235Y07296*
X09247Y07294*
X09258Y07296*
X09268Y073*
X09278Y07307*
X09284Y07316*
X09289Y07327*
X0929Y07338*
X09289Y07349*
X09284Y0736*
X09278Y07369*
X09277Y0737*
X09278Y07375*
X09471*
X09472Y0737*
X09471Y07369*
X09465Y0736*
X0946Y07349*
X09459Y07338*
X0946Y07327*
X09465Y07316*
X09471Y07307*
X09481Y073*
X09491Y07296*
X09502Y07294*
X09514Y07296*
X09524Y073*
X09533Y07307*
X0954Y07316*
X09545Y07327*
X09546Y07338*
X09545Y07349*
X0954Y0736*
X09533Y07369*
X09533Y0737*
X09534Y07375*
X101*
Y07*
G37*
G36*
X05437Y04155D02*
X05419Y04137D01*
X0495*
X04945Y04136*
X04941Y04133*
X04866Y04059*
X04862Y04061*
Y0465*
X05437*
Y04155*
G37*
%LNdsau-motherboard-reva-2*%
%LPC*%
G36*
X0513Y03457D02*
X0512Y03456D01*
X05111Y03452*
X05103Y03446*
X05097Y03438*
X05093Y03429*
X05092Y0342*
X05093Y0341*
X05097Y03401*
X05103Y03393*
X05111Y03387*
X0512Y03383*
X0513Y03382*
X05139Y03383*
X05148Y03387*
X05156Y03393*
X05162Y03401*
X05166Y0341*
X05167Y0342*
X05166Y03429*
X05162Y03438*
X05156Y03446*
X05148Y03452*
X05139Y03456*
X0513Y03457*
G37*
G36*
X0578D02*
X0577Y03456D01*
X05761Y03452*
X05753Y03446*
X05747Y03438*
X05743Y03429*
X05742Y0342*
X05743Y0341*
X05747Y03401*
X05753Y03393*
X05761Y03387*
X0577Y03383*
X0578Y03382*
X05789Y03383*
X05798Y03387*
X05806Y03393*
X05812Y03401*
X05816Y0341*
X05817Y0342*
X05816Y03429*
X05812Y03438*
X05806Y03446*
X05798Y03452*
X05789Y03456*
X0578Y03457*
G37*
G36*
X0363D02*
X0362Y03456D01*
X03611Y03452*
X03603Y03446*
X03597Y03438*
X03593Y03429*
X03592Y0342*
X03593Y0341*
X03597Y03401*
X03603Y03393*
X03611Y03387*
X0362Y03383*
X0363Y03382*
X03639Y03383*
X03648Y03387*
X03656Y03393*
X03662Y03401*
X03666Y0341*
X03667Y0342*
X03666Y03429*
X03662Y03438*
X03656Y03446*
X03648Y03452*
X03639Y03456*
X0363Y03457*
G37*
G36*
X0353D02*
X0352Y03456D01*
X03511Y03452*
X03503Y03446*
X03497Y03438*
X03493Y03429*
X03492Y0342*
X03493Y0341*
X03497Y03401*
X03503Y03393*
X03511Y03387*
X0352Y03383*
X0353Y03382*
X03539Y03383*
X03548Y03387*
X03556Y03393*
X03562Y03401*
X03566Y0341*
X03567Y0342*
X03566Y03429*
X03562Y03438*
X03556Y03446*
X03548Y03452*
X03539Y03456*
X0353Y03457*
G37*
G36*
X0288D02*
X0287Y03456D01*
X02861Y03452*
X02853Y03446*
X02847Y03438*
X02843Y03429*
X02842Y0342*
X02843Y0341*
X02847Y03401*
X02853Y03393*
X02861Y03387*
X0287Y03383*
X0288Y03382*
X02889Y03383*
X02898Y03387*
X02906Y03393*
X02912Y03401*
X02916Y0341*
X02917Y0342*
X02916Y03429*
X02912Y03438*
X02906Y03446*
X02898Y03452*
X02889Y03456*
X0288Y03457*
G37*
G36*
X0503D02*
X0502Y03456D01*
X05011Y03452*
X05003Y03446*
X04997Y03438*
X04993Y03429*
X04992Y0342*
X04993Y0341*
X04997Y03401*
X05003Y03393*
X05011Y03387*
X0502Y03383*
X0503Y03382*
X05039Y03383*
X05048Y03387*
X05056Y03393*
X05062Y03401*
X05066Y0341*
X05067Y0342*
X05066Y03429*
X05062Y03438*
X05056Y03446*
X05048Y03452*
X05039Y03456*
X0503Y03457*
G37*
G36*
X0438D02*
X0437Y03456D01*
X04361Y03452*
X04353Y03446*
X04347Y03438*
X04343Y03429*
X04342Y0342*
X04343Y0341*
X04347Y03401*
X04353Y03393*
X04361Y03387*
X0437Y03383*
X0438Y03382*
X04389Y03383*
X04398Y03387*
X04406Y03393*
X04412Y03401*
X04416Y0341*
X04417Y0342*
X04416Y03429*
X04412Y03438*
X04406Y03446*
X04398Y03452*
X04389Y03456*
X0438Y03457*
G37*
G36*
X0428D02*
X0427Y03456D01*
X04261Y03452*
X04253Y03446*
X04247Y03438*
X04243Y03429*
X04242Y0342*
X04243Y0341*
X04247Y03401*
X04253Y03393*
X04261Y03387*
X0427Y03383*
X0428Y03382*
X04289Y03383*
X04298Y03387*
X04306Y03393*
X04312Y03401*
X04316Y0341*
X04317Y0342*
X04316Y03429*
X04312Y03438*
X04306Y03446*
X04298Y03452*
X04289Y03456*
X0428Y03457*
G37*
G36*
X0203Y03657D02*
X0202Y03656D01*
X02011Y03652*
X02003Y03646*
X01997Y03638*
X01993Y03629*
X01992Y0362*
X01993Y0361*
X01997Y03601*
X02003Y03593*
X02011Y03587*
X0202Y03583*
X0203Y03582*
X02039Y03583*
X02048Y03587*
X02056Y03593*
X02062Y03601*
X02066Y0361*
X02067Y0362*
X02066Y03629*
X02062Y03638*
X02056Y03646*
X02048Y03652*
X02039Y03656*
X0203Y03657*
G37*
G36*
X0578Y03557D02*
X0577Y03556D01*
X05761Y03552*
X05753Y03546*
X05747Y03538*
X05743Y03529*
X05742Y0352*
X05743Y0351*
X05747Y03501*
X05753Y03493*
X05761Y03487*
X0577Y03483*
X0578Y03482*
X05789Y03483*
X05798Y03487*
X05806Y03493*
X05812Y03501*
X05816Y0351*
X05817Y0352*
X05816Y03529*
X05812Y03538*
X05806Y03546*
X05798Y03552*
X05789Y03556*
X0578Y03557*
G37*
G36*
X0278Y03657D02*
X0277Y03656D01*
X02761Y03652*
X02753Y03646*
X02747Y03638*
X02743Y03629*
X02742Y0362*
X02743Y0361*
X02747Y03601*
X02753Y03593*
X02761Y03587*
X0277Y03583*
X0278Y03582*
X02789Y03583*
X02798Y03587*
X02806Y03593*
X02812Y03601*
X02816Y0361*
X02817Y0362*
X02816Y03629*
X02812Y03638*
X02806Y03646*
X02798Y03652*
X02789Y03656*
X0278Y03657*
G37*
G36*
X0428D02*
X0427Y03656D01*
X04261Y03652*
X04253Y03646*
X04247Y03638*
X04243Y03629*
X04242Y0362*
X04243Y0361*
X04247Y03601*
X04253Y03593*
X04261Y03587*
X0427Y03583*
X0428Y03582*
X04289Y03583*
X04298Y03587*
X04306Y03593*
X04312Y03601*
X04316Y0361*
X04317Y0362*
X04316Y03629*
X04312Y03638*
X04306Y03646*
X04298Y03652*
X04289Y03656*
X0428Y03657*
G37*
G36*
X0353D02*
X0352Y03656D01*
X03511Y03652*
X03503Y03646*
X03497Y03638*
X03493Y03629*
X03492Y0362*
X03493Y0361*
X03497Y03601*
X03503Y03593*
X03511Y03587*
X0352Y03583*
X0353Y03582*
X03539Y03583*
X03548Y03587*
X03556Y03593*
X03562Y03601*
X03566Y0361*
X03567Y0362*
X03566Y03629*
X03562Y03638*
X03556Y03646*
X03548Y03652*
X03539Y03656*
X0353Y03657*
G37*
G36*
X0503Y03557D02*
X0502Y03556D01*
X05011Y03552*
X05003Y03546*
X04997Y03538*
X04993Y03529*
X04992Y0352*
X04993Y0351*
X04997Y03501*
X05003Y03493*
X05011Y03487*
X0502Y03483*
X0503Y03482*
X05039Y03483*
X05048Y03487*
X05056Y03493*
X05062Y03501*
X05066Y0351*
X05067Y0352*
X05066Y03529*
X05062Y03538*
X05056Y03546*
X05048Y03552*
X05039Y03556*
X0503Y03557*
G37*
G36*
X0203D02*
X0202Y03556D01*
X02011Y03552*
X02003Y03546*
X01997Y03538*
X01993Y03529*
X01992Y0352*
X01993Y0351*
X01997Y03501*
X02003Y03493*
X02011Y03487*
X0202Y03483*
X0203Y03482*
X02039Y03483*
X02048Y03487*
X02056Y03493*
X02062Y03501*
X02066Y0351*
X02067Y0352*
X02066Y03529*
X02062Y03538*
X02056Y03546*
X02048Y03552*
X02039Y03556*
X0203Y03557*
G37*
G36*
X0588Y03457D02*
X0587Y03456D01*
X05861Y03452*
X05853Y03446*
X05847Y03438*
X05843Y03429*
X05842Y0342*
X05843Y0341*
X05847Y03401*
X05853Y03393*
X05861Y03387*
X0587Y03383*
X0588Y03382*
X05889Y03383*
X05898Y03387*
X05906Y03393*
X05912Y03401*
X05916Y0341*
X05917Y0342*
X05916Y03429*
X05912Y03438*
X05906Y03446*
X05898Y03452*
X05889Y03456*
X0588Y03457*
G37*
G36*
X0278Y03557D02*
X0277Y03556D01*
X02761Y03552*
X02753Y03546*
X02747Y03538*
X02743Y03529*
X02742Y0352*
X02743Y0351*
X02747Y03501*
X02753Y03493*
X02761Y03487*
X0277Y03483*
X0278Y03482*
X02789Y03483*
X02798Y03487*
X02806Y03493*
X02812Y03501*
X02816Y0351*
X02817Y0352*
X02816Y03529*
X02812Y03538*
X02806Y03546*
X02798Y03552*
X02789Y03556*
X0278Y03557*
G37*
G36*
X0428D02*
X0427Y03556D01*
X04261Y03552*
X04253Y03546*
X04247Y03538*
X04243Y03529*
X04242Y0352*
X04243Y0351*
X04247Y03501*
X04253Y03493*
X04261Y03487*
X0427Y03483*
X0428Y03482*
X04289Y03483*
X04298Y03487*
X04306Y03493*
X04312Y03501*
X04316Y0351*
X04317Y0352*
X04316Y03529*
X04312Y03538*
X04306Y03546*
X04298Y03552*
X04289Y03556*
X0428Y03557*
G37*
G36*
X0353D02*
X0352Y03556D01*
X03511Y03552*
X03503Y03546*
X03497Y03538*
X03493Y03529*
X03492Y0352*
X03493Y0351*
X03497Y03501*
X03503Y03493*
X03511Y03487*
X0352Y03483*
X0353Y03482*
X03539Y03483*
X03548Y03487*
X03556Y03493*
X03562Y03501*
X03566Y0351*
X03567Y0352*
X03566Y03529*
X03562Y03538*
X03556Y03546*
X03548Y03552*
X03539Y03556*
X0353Y03557*
G37*
G36*
X0278Y03457D02*
X0277Y03456D01*
X02761Y03452*
X02753Y03446*
X02747Y03438*
X02743Y03429*
X02742Y0342*
X02743Y0341*
X02747Y03401*
X02753Y03393*
X02761Y03387*
X0277Y03383*
X0278Y03382*
X02789Y03383*
X02798Y03387*
X02806Y03393*
X02812Y03401*
X02816Y0341*
X02817Y0342*
X02816Y03429*
X02812Y03438*
X02806Y03446*
X02798Y03452*
X02789Y03456*
X0278Y03457*
G37*
G36*
X0428Y03257D02*
X0427Y03256D01*
X04261Y03252*
X04253Y03246*
X04247Y03238*
X04243Y03229*
X04242Y0322*
X04243Y0321*
X04247Y03201*
X04253Y03193*
X04261Y03187*
X0427Y03183*
X0428Y03182*
X04289Y03183*
X04298Y03187*
X04306Y03193*
X04312Y03201*
X04316Y0321*
X04317Y0322*
X04316Y03229*
X04312Y03238*
X04306Y03246*
X04298Y03252*
X04289Y03256*
X0428Y03257*
G37*
G36*
X0353D02*
X0352Y03256D01*
X03511Y03252*
X03503Y03246*
X03497Y03238*
X03493Y03229*
X03492Y0322*
X03493Y0321*
X03497Y03201*
X03503Y03193*
X03511Y03187*
X0352Y03183*
X0353Y03182*
X03539Y03183*
X03548Y03187*
X03556Y03193*
X03562Y03201*
X03566Y0321*
X03567Y0322*
X03566Y03229*
X03562Y03238*
X03556Y03246*
X03548Y03252*
X03539Y03256*
X0353Y03257*
G37*
G36*
X0503D02*
X0502Y03256D01*
X05011Y03252*
X05003Y03246*
X04997Y03238*
X04993Y03229*
X04992Y0322*
X04993Y0321*
X04997Y03201*
X05003Y03193*
X05011Y03187*
X0502Y03183*
X0503Y03182*
X05039Y03183*
X05048Y03187*
X05056Y03193*
X05062Y03201*
X05066Y0321*
X05067Y0322*
X05066Y03229*
X05062Y03238*
X05056Y03246*
X05048Y03252*
X05039Y03256*
X0503Y03257*
G37*
G36*
X09837Y03337D02*
X09762D01*
Y03262*
X09837*
Y03337*
G37*
G36*
X0513Y03257D02*
X0512Y03256D01*
X05111Y03252*
X05103Y03246*
X05097Y03238*
X05093Y03229*
X05092Y0322*
X05093Y0321*
X05097Y03201*
X05103Y03193*
X05111Y03187*
X0512Y03183*
X0513Y03182*
X05139Y03183*
X05148Y03187*
X05156Y03193*
X05162Y03201*
X05166Y0321*
X05166Y03212*
X05436*
X05437Y03212*
X05442Y03208*
X0545Y03206*
X05457Y03208*
X05462Y03212*
X05466Y03217*
X05468Y03225*
X05466Y03232*
X05462Y03237*
X05457Y03241*
X0545Y03243*
X05442Y03241*
X05437Y03237*
X05436Y03237*
X05163*
X05162Y03238*
X05156Y03246*
X05148Y03252*
X05139Y03256*
X0513Y03257*
G37*
G36*
X0278D02*
X0277Y03256D01*
X02761Y03252*
X02753Y03246*
X02747Y03238*
X02743Y03229*
X02742Y0322*
X02743Y0321*
X02747Y03201*
X02753Y03193*
X02761Y03187*
X0277Y03183*
X0278Y03182*
X02789Y03183*
X02798Y03187*
X02806Y03193*
X02812Y03201*
X02816Y0321*
X02817Y0322*
X02816Y03229*
X02812Y03238*
X02806Y03246*
X02798Y03252*
X02789Y03256*
X0278Y03257*
G37*
G36*
X0503Y03157D02*
X0502Y03156D01*
X05011Y03152*
X05003Y03146*
X04997Y03138*
X04993Y03129*
X04992Y0312*
X04993Y0311*
X04997Y03101*
X05003Y03093*
X05011Y03087*
X0502Y03083*
X0503Y03082*
X05039Y03083*
X05048Y03087*
X05056Y03093*
X05062Y03101*
X05066Y0311*
X05067Y0312*
X05066Y03129*
X05062Y03138*
X05056Y03146*
X05048Y03152*
X05039Y03156*
X0503Y03157*
G37*
G36*
X0438D02*
X0437Y03156D01*
X04361Y03152*
X04353Y03146*
X04347Y03138*
X04343Y03129*
X04342Y0312*
X04343Y0311*
X04347Y03101*
X04353Y03093*
X04361Y03087*
X0437Y03083*
X0438Y03082*
X04389Y03083*
X04398Y03087*
X04406Y03093*
X04412Y03101*
X04416Y0311*
X04417Y0312*
X04416Y03129*
X04412Y03138*
X04406Y03146*
X04398Y03152*
X04389Y03156*
X0438Y03157*
G37*
G36*
X0513D02*
X0512Y03156D01*
X05111Y03152*
X05103Y03146*
X05097Y03138*
X05093Y03129*
X05092Y0312*
X05093Y0311*
X05097Y03101*
X05103Y03093*
X05111Y03087*
X0512Y03083*
X0513Y03082*
X05139Y03083*
X05148Y03087*
X05156Y03093*
X05162Y03101*
X05166Y0311*
X05167Y0312*
X05166Y03129*
X05162Y03138*
X05156Y03146*
X05148Y03152*
X05139Y03156*
X0513Y03157*
G37*
G36*
X0203Y03257D02*
X0202Y03256D01*
X02011Y03252*
X02003Y03246*
X01997Y03238*
X01993Y03229*
X01992Y0322*
X01993Y0321*
X01997Y03201*
X02003Y03193*
X02011Y03187*
X0202Y03183*
X0203Y03182*
X02039Y03183*
X02048Y03187*
X02056Y03193*
X02062Y03201*
X02066Y0321*
X02067Y0322*
X02066Y03229*
X02062Y03238*
X02056Y03246*
X02048Y03252*
X02039Y03256*
X0203Y03257*
G37*
G36*
X0588Y03157D02*
X0587Y03156D01*
X05861Y03152*
X05853Y03146*
X05847Y03138*
X05843Y03129*
X05842Y0312*
X05843Y0311*
X05847Y03101*
X05853Y03093*
X05861Y03087*
X0587Y03083*
X0588Y03082*
X05889Y03083*
X05898Y03087*
X05906Y03093*
X05912Y03101*
X05916Y0311*
X05917Y0312*
X05916Y03129*
X05912Y03138*
X05906Y03146*
X05898Y03152*
X05889Y03156*
X0588Y03157*
G37*
G36*
X0203Y03357D02*
X0202Y03356D01*
X02011Y03352*
X02003Y03346*
X01997Y03338*
X01993Y03329*
X01992Y0332*
X01993Y0331*
X01997Y03301*
X02003Y03293*
X02011Y03287*
X0202Y03283*
X0203Y03282*
X02039Y03283*
X02048Y03287*
X02056Y03293*
X02062Y03301*
X02066Y0331*
X02067Y0332*
X02066Y03329*
X02062Y03338*
X02056Y03346*
X02048Y03352*
X02039Y03356*
X0203Y03357*
G37*
G36*
X032Y03668D02*
X03192Y03666D01*
X03187Y03662*
X03183Y03657*
X03181Y0365*
X03183Y03642*
X03187Y03637*
X03187Y03636*
Y03355*
X03164Y03332*
X02915*
X02912Y03338*
X02906Y03346*
X02898Y03352*
X02889Y03356*
X0288Y03357*
X0287Y03356*
X02861Y03352*
X02853Y03346*
X02847Y03338*
X02843Y03329*
X02842Y0332*
X02843Y0331*
X02847Y03301*
X02853Y03293*
X02861Y03287*
X0287Y03283*
X0288Y03282*
X02889Y03283*
X02898Y03287*
X02906Y03293*
X02912Y03301*
X02915Y03307*
X0317*
X03174Y03308*
X03178Y03311*
X03208Y0334*
X03211Y03339*
X03212Y03338*
Y0328*
X03164Y03232*
X02915*
X02912Y03238*
X02906Y03246*
X02898Y03252*
X02889Y03256*
X0288Y03257*
X0287Y03256*
X02861Y03252*
X02853Y03246*
X02847Y03238*
X02843Y03229*
X02842Y0322*
X02843Y0321*
X02847Y03201*
X02853Y03193*
X02861Y03187*
X0287Y03183*
X0288Y03182*
X02889Y03183*
X02898Y03187*
X02906Y03193*
X02912Y03201*
X02915Y03207*
X0317*
X03174Y03208*
X03178Y03211*
X03233Y03266*
X03236Y0327*
X03237Y03275*
Y03586*
X03237Y03587*
X03241Y03592*
X03243Y036*
X03241Y03607*
X03237Y03612*
X03232Y03616*
X03225Y03618*
X03217Y03616*
X03216Y03616*
X03212Y03618*
Y03636*
X03212Y03637*
X03216Y03642*
X03218Y0365*
X03216Y03657*
X03212Y03662*
X03207Y03666*
X032Y03668*
G37*
G36*
X0513Y03357D02*
X0512Y03356D01*
X05111Y03352*
X05103Y03346*
X05097Y03338*
X05093Y03329*
X05092Y0332*
X05093Y0331*
X05097Y03301*
X05103Y03293*
X05111Y03287*
X0512Y03283*
X0513Y03282*
X05139Y03283*
X05148Y03287*
X05156Y03293*
X05162Y03301*
X05165Y03307*
X05444*
X0545Y03306*
X05457Y03308*
X05462Y03312*
X05466Y03317*
X05468Y03325*
X05466Y03332*
X05462Y03337*
X05457Y03341*
X0545Y03343*
X05442Y03341*
X05437Y03337*
X05433Y03332*
X05165*
X05162Y03338*
X05156Y03346*
X05148Y03352*
X05139Y03356*
X0513Y03357*
G37*
G36*
X04Y03668D02*
X03992Y03666D01*
X03987Y03662*
X03983Y03657*
X03981Y0365*
X03983Y03642*
X03987Y03637*
X03987Y03636*
Y0338*
X03939Y03332*
X03665*
X03662Y03338*
X03656Y03346*
X03648Y03352*
X03639Y03356*
X0363Y03357*
X0362Y03356*
X03611Y03352*
X03603Y03346*
X03597Y03338*
X03593Y03329*
X03592Y0332*
X03593Y0331*
X03597Y03301*
X03603Y03293*
X03611Y03287*
X0362Y03283*
X0363Y03282*
X03639Y03283*
X03648Y03287*
X03656Y03293*
X03662Y03301*
X03665Y03307*
X03945*
X03949Y03308*
X03953Y03311*
X04008Y03366*
X04011Y0337*
X04012Y03375*
Y03636*
X04012Y03637*
X04016Y03642*
X04018Y0365*
X04016Y03657*
X04012Y03662*
X04007Y03666*
X04Y03668*
G37*
G36*
X0213Y03457D02*
X0212Y03456D01*
X02111Y03452*
X02103Y03446*
X02097Y03438*
X02093Y03429*
X02092Y0342*
X02093Y0341*
X02097Y03401*
X02103Y03393*
X02111Y03387*
X0212Y03383*
X0213Y03382*
X02139Y03383*
X02148Y03387*
X02156Y03393*
X02162Y03401*
X02166Y0341*
X02167Y0342*
X02166Y03429*
X02162Y03438*
X02156Y03446*
X02148Y03452*
X02139Y03456*
X0213Y03457*
G37*
G36*
X0203D02*
X0202Y03456D01*
X02011Y03452*
X02003Y03446*
X01997Y03438*
X01993Y03429*
X01992Y0342*
X01993Y0341*
X01997Y03401*
X02003Y03393*
X02011Y03387*
X0202Y03383*
X0203Y03382*
X02039Y03383*
X02048Y03387*
X02056Y03393*
X02062Y03401*
X02066Y0341*
X02067Y0342*
X02066Y03429*
X02062Y03438*
X02056Y03446*
X02048Y03452*
X02039Y03456*
X0203Y03457*
G37*
G36*
X0588Y03357D02*
X0587Y03356D01*
X05861Y03352*
X05853Y03346*
X05847Y03338*
X05843Y03329*
X05842Y0332*
X05843Y0331*
X05847Y03301*
X05853Y03293*
X05861Y03287*
X0587Y03283*
X0588Y03282*
X05889Y03283*
X05898Y03287*
X05906Y03293*
X05912Y03301*
X05916Y0331*
X05917Y0332*
X05916Y03329*
X05912Y03338*
X05906Y03346*
X05898Y03352*
X05889Y03356*
X0588Y03357*
G37*
G36*
X0353D02*
X0352Y03356D01*
X03511Y03352*
X03503Y03346*
X03497Y03338*
X03493Y03329*
X03492Y0332*
X03493Y0331*
X03497Y03301*
X03503Y03293*
X03511Y03287*
X0352Y03283*
X0353Y03282*
X03539Y03283*
X03548Y03287*
X03556Y03293*
X03562Y03301*
X03566Y0331*
X03567Y0332*
X03566Y03329*
X03562Y03338*
X03556Y03346*
X03548Y03352*
X03539Y03356*
X0353Y03357*
G37*
G36*
X0278D02*
X0277Y03356D01*
X02761Y03352*
X02753Y03346*
X02747Y03338*
X02743Y03329*
X02742Y0332*
X02743Y0331*
X02747Y03301*
X02753Y03293*
X02761Y03287*
X0277Y03283*
X0278Y03282*
X02789Y03283*
X02798Y03287*
X02806Y03293*
X02812Y03301*
X02816Y0331*
X02817Y0332*
X02816Y03329*
X02812Y03338*
X02806Y03346*
X02798Y03352*
X02789Y03356*
X0278Y03357*
G37*
G36*
X0428D02*
X0427Y03356D01*
X04261Y03352*
X04253Y03346*
X04247Y03338*
X04243Y03329*
X04242Y0332*
X04243Y0331*
X04247Y03301*
X04253Y03293*
X04261Y03287*
X0427Y03283*
X0428Y03282*
X04289Y03283*
X04298Y03287*
X04306Y03293*
X04312Y03301*
X04316Y0331*
X04317Y0332*
X04316Y03329*
X04312Y03338*
X04306Y03346*
X04298Y03352*
X04289Y03356*
X0428Y03357*
G37*
G36*
X0578D02*
X0577Y03356D01*
X05761Y03352*
X05753Y03346*
X05747Y03338*
X05743Y03329*
X05742Y0332*
X05743Y0331*
X05747Y03301*
X05753Y03293*
X05761Y03287*
X0577Y03283*
X0578Y03282*
X05789Y03283*
X05798Y03287*
X05806Y03293*
X05812Y03301*
X05816Y0331*
X05817Y0332*
X05816Y03329*
X05812Y03338*
X05806Y03346*
X05798Y03352*
X05789Y03356*
X0578Y03357*
G37*
G36*
X0503D02*
X0502Y03356D01*
X05011Y03352*
X05003Y03346*
X04997Y03338*
X04993Y03329*
X04992Y0332*
X04993Y0331*
X04997Y03301*
X05003Y03293*
X05011Y03287*
X0502Y03283*
X0503Y03282*
X05039Y03283*
X05048Y03287*
X05056Y03293*
X05062Y03301*
X05066Y0331*
X05067Y0332*
X05066Y03329*
X05062Y03338*
X05056Y03346*
X05048Y03352*
X05039Y03356*
X0503Y03357*
G37*
G36*
Y03657D02*
X0502Y03656D01*
X05011Y03652*
X05003Y03646*
X04997Y03638*
X04993Y03629*
X04992Y0362*
X04993Y0361*
X04997Y03601*
X05003Y03593*
X05011Y03587*
X0502Y03583*
X0503Y03582*
X05039Y03583*
X05048Y03587*
X05056Y03593*
X05062Y03601*
X05066Y0361*
X05067Y0362*
X05066Y03629*
X05062Y03638*
X05056Y03646*
X05048Y03652*
X05039Y03656*
X0503Y03657*
G37*
G36*
X04375Y04417D02*
X04364Y04415D01*
X04353Y04411*
X04345Y04404*
X04338Y04396*
X04334Y04385*
X04332Y04375*
X04334Y04364*
X04338Y04353*
X04345Y04345*
X04353Y04338*
X04364Y04334*
X04375Y04332*
X04385Y04334*
X04396Y04338*
X04404Y04345*
X04411Y04353*
X04415Y04364*
X04417Y04375*
X04415Y04385*
X04411Y04396*
X04404Y04404*
X04396Y04411*
X04385Y04415*
X04375Y04417*
G37*
G36*
X03625D02*
X03614Y04415D01*
X03603Y04411*
X03595Y04404*
X03588Y04396*
X03584Y04385*
X03582Y04375*
X03584Y04364*
X03588Y04353*
X03595Y04345*
X03603Y04338*
X03614Y04334*
X03625Y04332*
X03635Y04334*
X03646Y04338*
X03654Y04345*
X03661Y04353*
X03665Y04364*
X03667Y04375*
X03665Y04385*
X03661Y04396*
X03654Y04404*
X03646Y04411*
X03635Y04415*
X03625Y04417*
G37*
G36*
X05125D02*
X05114Y04415D01*
X05103Y04411*
X05095Y04404*
X05088Y04396*
X05084Y04385*
X05082Y04375*
X05084Y04364*
X05088Y04353*
X05095Y04345*
X05103Y04338*
X05114Y04334*
X05125Y04332*
X05135Y04334*
X05146Y04338*
X05154Y04345*
X05161Y04353*
X05165Y04364*
X05167Y04375*
X05165Y04385*
X05161Y04396*
X05154Y04404*
X05146Y04411*
X05135Y04415*
X05125Y04417*
G37*
G36*
X09795Y04394D02*
X09787Y04393D01*
X09781Y04389*
X09777Y04382*
X09775Y04375*
X09777Y04367*
X09781Y04361*
X09787Y04357*
X09795Y04355*
X09802Y04357*
X09808Y04361*
X09812Y04367*
X09814Y04375*
X09812Y04382*
X09808Y04389*
X09802Y04393*
X09795Y04394*
G37*
G36*
X05875Y04417D02*
X05864Y04415D01*
X05853Y04411*
X05845Y04404*
X05838Y04396*
X05834Y04385*
X05832Y04375*
X05834Y04364*
X05838Y04353*
X05845Y04345*
X05853Y04338*
X05864Y04334*
X05875Y04332*
X05885Y04334*
X05896Y04338*
X05904Y04345*
X05911Y04353*
X05915Y04364*
X05917Y04375*
X05915Y04385*
X05911Y04396*
X05904Y04404*
X05896Y04411*
X05885Y04415*
X05875Y04417*
G37*
G36*
X02875D02*
X02864Y04415D01*
X02853Y04411*
X02845Y04404*
X02838Y04396*
X02834Y04385*
X02832Y04375*
X02834Y04364*
X02838Y04353*
X02845Y04345*
X02853Y04338*
X02864Y04334*
X02875Y04332*
X02885Y04334*
X02896Y04338*
X02904Y04345*
X02911Y04353*
X02915Y04364*
X02917Y04375*
X02915Y04385*
X02911Y04396*
X02904Y04404*
X02896Y04411*
X02885Y04415*
X02875Y04417*
G37*
G36*
X05225Y0433D02*
X0521Y04328D01*
X05197Y04323*
X05185Y04314*
X05176Y04302*
X05171Y04289*
X05169Y04275*
X05171Y0426*
X05176Y04247*
X05185Y04235*
X05197Y04226*
X0521Y04221*
X05225Y04219*
X05239Y04221*
X05252Y04226*
X05264Y04235*
X05273Y04247*
X05278Y0426*
X0528Y04275*
X05278Y04289*
X05273Y04302*
X05264Y04314*
X05252Y04323*
X05239Y04328*
X05225Y0433*
G37*
G36*
X05025D02*
X0501Y04328D01*
X04997Y04323*
X04985Y04314*
X04976Y04302*
X04971Y04289*
X04969Y04275*
X04971Y0426*
X04976Y04247*
X04985Y04235*
X04997Y04226*
X0501Y04221*
X05025Y04219*
X05039Y04221*
X05052Y04226*
X05064Y04235*
X05073Y04247*
X05078Y0426*
X0508Y04275*
X05078Y04289*
X05073Y04302*
X05064Y04314*
X05052Y04323*
X05039Y04328*
X05025Y0433*
G37*
G36*
X05775D02*
X0576Y04328D01*
X05747Y04323*
X05735Y04314*
X05726Y04302*
X05721Y04289*
X05719Y04275*
X05721Y0426*
X05726Y04247*
X05735Y04235*
X05747Y04226*
X0576Y04221*
X05775Y04219*
X05789Y04221*
X05802Y04226*
X05814Y04235*
X05823Y04247*
X05828Y0426*
X0583Y04275*
X05828Y04289*
X05823Y04302*
X05814Y04314*
X05802Y04323*
X05789Y04328*
X05775Y0433*
G37*
G36*
X02125Y04417D02*
X02114Y04415D01*
X02103Y04411*
X02095Y04404*
X02088Y04396*
X02084Y04385*
X02082Y04375*
X02084Y04364*
X02088Y04353*
X02095Y04345*
X02103Y04338*
X02114Y04334*
X02125Y04332*
X02135Y04334*
X02146Y04338*
X02154Y04345*
X02161Y04353*
X02165Y04364*
X02167Y04375*
X02165Y04385*
X02161Y04396*
X02154Y04404*
X02146Y04411*
X02135Y04415*
X02125Y04417*
G37*
G36*
X09625Y04294D02*
X09617Y04292D01*
X09611Y04288*
X0961Y04286*
X09605*
X09603Y04288*
X09597Y04292*
X0959Y04294*
X09582Y04292*
X09576Y04288*
X09575Y04286*
X0957*
X09568Y04288*
X09562Y04292*
X09555Y04294*
X09547Y04292*
X09541Y04288*
X09537Y04282*
X09535Y04275*
X09537Y04267*
X09541Y04261*
X09543Y0426*
Y04255*
X09541Y04253*
X09537Y04247*
X09535Y0424*
X09537Y04232*
X09541Y04226*
X09543Y04225*
Y0422*
X09541Y04218*
X09537Y04212*
X09535Y04205*
X09537Y04197*
X09541Y04191*
X09547Y04187*
X09555Y04185*
X09562Y04187*
X09568Y04191*
X0957Y04193*
X09575*
X09576Y04191*
X09582Y04187*
X0959Y04185*
X09597Y04187*
X09603Y04191*
X09605Y04193*
X0961*
X09611Y04191*
X09617Y04187*
X09625Y04185*
X09632Y04187*
X09638Y04191*
X09642Y04197*
X09644Y04205*
X09642Y04212*
X09638Y04218*
X09636Y0422*
Y04225*
X09638Y04226*
X09642Y04232*
X09644Y0424*
X09642Y04247*
X09638Y04253*
X09636Y04255*
Y0426*
X09638Y04261*
X09642Y04267*
X09644Y04275*
X09642Y04282*
X09638Y04288*
X09632Y04292*
X09625Y04294*
G37*
G36*
X03725Y0453D02*
X0371Y04528D01*
X03697Y04523*
X03685Y04514*
X03676Y04502*
X03671Y04489*
X03669Y04475*
X03671Y0446*
X03676Y04447*
X03685Y04435*
X03697Y04426*
X0371Y04421*
X03725Y04419*
X03739Y04421*
X03752Y04426*
X03764Y04435*
X03773Y04447*
X03778Y0446*
X0378Y04475*
X03778Y04489*
X03773Y04502*
X03764Y04514*
X03752Y04523*
X03739Y04528*
X03725Y0453*
G37*
G36*
X03525D02*
X0351Y04528D01*
X03497Y04523*
X03485Y04514*
X03476Y04502*
X03471Y04489*
X03469Y04475*
X03471Y0446*
X03476Y04447*
X03485Y04435*
X03497Y04426*
X0351Y04421*
X03525Y04419*
X03539Y04421*
X03552Y04426*
X03564Y04435*
X03573Y04447*
X03578Y0446*
X0358Y04475*
X03578Y04489*
X03573Y04502*
X03564Y04514*
X03552Y04523*
X03539Y04528*
X03525Y0453*
G37*
G36*
X04275D02*
X0426Y04528D01*
X04247Y04523*
X04235Y04514*
X04226Y04502*
X04221Y04489*
X04219Y04475*
X04221Y0446*
X04226Y04447*
X04235Y04435*
X04247Y04426*
X0426Y04421*
X04275Y04419*
X04289Y04421*
X04302Y04426*
X04314Y04435*
X04323Y04447*
X04328Y0446*
X0433Y04475*
X04328Y04489*
X04323Y04502*
X04314Y04514*
X04302Y04523*
X04289Y04528*
X04275Y0453*
G37*
G36*
X05025D02*
X0501Y04528D01*
X04997Y04523*
X04985Y04514*
X04976Y04502*
X04971Y04489*
X04969Y04475*
X04971Y0446*
X04976Y04447*
X04985Y04435*
X04997Y04426*
X0501Y04421*
X05025Y04419*
X05039Y04421*
X05052Y04426*
X05064Y04435*
X05073Y04447*
X05078Y0446*
X0508Y04475*
X05078Y04489*
X05073Y04502*
X05064Y04514*
X05052Y04523*
X05039Y04528*
X05025Y0453*
G37*
G36*
X04475D02*
X0446Y04528D01*
X04447Y04523*
X04435Y04514*
X04426Y04502*
X04421Y04489*
X04419Y04475*
X04421Y0446*
X04426Y04447*
X04435Y04435*
X04447Y04426*
X0446Y04421*
X04475Y04419*
X04489Y04421*
X04502Y04426*
X04514Y04435*
X04523Y04447*
X04528Y0446*
X0453Y04475*
X04528Y04489*
X04523Y04502*
X04514Y04514*
X04502Y04523*
X04489Y04528*
X04475Y0453*
G37*
G36*
X02975D02*
X0296Y04528D01*
X02947Y04523*
X02935Y04514*
X02926Y04502*
X02921Y04489*
X02919Y04475*
X02921Y0446*
X02926Y04447*
X02935Y04435*
X02947Y04426*
X0296Y04421*
X02975Y04419*
X02989Y04421*
X03002Y04426*
X03014Y04435*
X03023Y04447*
X03028Y0446*
X0303Y04475*
X03028Y04489*
X03023Y04502*
X03014Y04514*
X03002Y04523*
X02989Y04528*
X02975Y0453*
G37*
G36*
X1003Y04424D02*
X10022Y04422D01*
X10016Y04418*
X10015Y04416*
X1001*
X10008Y04418*
X10002Y04422*
X09995Y04424*
X09987Y04422*
X09981Y04418*
X0998Y04416*
X09975*
X09973Y04418*
X09967Y04422*
X0996Y04424*
X09952Y04422*
X09946Y04418*
X09942Y04412*
X0994Y04405*
X09942Y04397*
X09946Y04391*
X09948Y0439*
Y04385*
X09946Y04383*
X09942Y04377*
X0994Y0437*
X09942Y04362*
X09946Y04356*
X09948Y04355*
Y0435*
X09946Y04348*
X09942Y04342*
X0994Y04335*
X09942Y04327*
X09946Y04321*
X09952Y04317*
X0996Y04315*
X09967Y04317*
X09973Y04321*
X09975Y04323*
X0998*
X09981Y04321*
X09987Y04317*
X09995Y04315*
X10002Y04317*
X10008Y04321*
X1001Y04323*
X10015*
X10016Y04321*
X10022Y04317*
X1003Y04315*
X10037Y04317*
X10043Y04321*
X10047Y04327*
X10049Y04335*
X10047Y04342*
X10043Y04348*
X10041Y0435*
Y04355*
X10043Y04356*
X10047Y04362*
X10049Y0437*
X10047Y04377*
X10043Y04383*
X10041Y04385*
Y0439*
X10043Y04391*
X10047Y04397*
X10049Y04405*
X10047Y04412*
X10043Y04418*
X10037Y04422*
X1003Y04424*
G37*
G36*
X09625Y04419D02*
X09617Y04417D01*
X09611Y04413*
X0961Y04411*
X09605*
X09603Y04413*
X09597Y04417*
X0959Y04419*
X09582Y04417*
X09576Y04413*
X09575Y04411*
X0957*
X09568Y04413*
X09562Y04417*
X09555Y04419*
X09547Y04417*
X09541Y04413*
X09537Y04407*
X09535Y044*
X09537Y04392*
X09541Y04386*
X09543Y04385*
Y0438*
X09541Y04378*
X09537Y04372*
X09535Y04365*
X09537Y04357*
X09541Y04351*
X09543Y0435*
Y04345*
X09541Y04343*
X09537Y04337*
X09535Y0433*
X09537Y04322*
X09541Y04316*
X09547Y04312*
X09555Y0431*
X09562Y04312*
X09568Y04316*
X0957Y04318*
X09575*
X09576Y04316*
X09582Y04312*
X0959Y0431*
X09597Y04312*
X09603Y04316*
X09605Y04318*
X0961*
X09611Y04316*
X09617Y04312*
X09625Y0431*
X09632Y04312*
X09638Y04316*
X09642Y04322*
X09644Y0433*
X09642Y04337*
X09638Y04343*
X09636Y04345*
Y0435*
X09638Y04351*
X09642Y04357*
X09644Y04365*
X09642Y04372*
X09638Y04378*
X09636Y0438*
Y04385*
X09638Y04386*
X09642Y04392*
X09644Y044*
X09642Y04407*
X09638Y04413*
X09632Y04417*
X09625Y04419*
G37*
G36*
X02025Y0453D02*
X0201Y04528D01*
X01997Y04523*
X01985Y04514*
X01976Y04502*
X01971Y04489*
X01969Y04475*
X01971Y0446*
X01976Y04447*
X01985Y04435*
X01997Y04426*
X0201Y04421*
X02025Y04419*
X02039Y04421*
X02052Y04426*
X02064Y04435*
X02073Y04447*
X02078Y0446*
X0208Y04475*
X02078Y04489*
X02073Y04502*
X02064Y04514*
X02052Y04523*
X02039Y04528*
X02025Y0453*
G37*
G36*
X02775D02*
X0276Y04528D01*
X02747Y04523*
X02735Y04514*
X02726Y04502*
X02721Y04489*
X02719Y04475*
X02721Y0446*
X02726Y04447*
X02735Y04435*
X02747Y04426*
X0276Y04421*
X02775Y04419*
X02789Y04421*
X02802Y04426*
X02814Y04435*
X02823Y04447*
X02828Y0446*
X0283Y04475*
X02828Y04489*
X02823Y04502*
X02814Y04514*
X02802Y04523*
X02789Y04528*
X02775Y0453*
G37*
G36*
X02225D02*
X0221Y04528D01*
X02197Y04523*
X02185Y04514*
X02176Y04502*
X02171Y04489*
X02169Y04475*
X02171Y0446*
X02176Y04447*
X02185Y04435*
X02197Y04426*
X0221Y04421*
X02225Y04419*
X02239Y04421*
X02252Y04426*
X02264Y04435*
X02273Y04447*
X02278Y0446*
X0228Y04475*
X02278Y04489*
X02273Y04502*
X02264Y04514*
X02252Y04523*
X02239Y04528*
X02225Y0453*
G37*
G36*
X09345Y03924D02*
X09337Y03922D01*
X09331Y03918*
X09327Y03912*
X09325Y03905*
X09327Y03897*
X09331Y03891*
X09333Y0389*
Y03885*
X09331Y03883*
X09327Y03877*
X09325Y0387*
X09327Y03862*
X09331Y03856*
X09333Y03855*
Y0385*
X09331Y03848*
X09327Y03842*
X09325Y03835*
X09327Y03827*
X09331Y03821*
X09333Y0382*
Y03815*
X09331Y03813*
X09327Y03807*
X09325Y038*
X09327Y03792*
X09331Y03786*
X09337Y03782*
X09345Y0378*
X09352Y03782*
X09358Y03786*
X09362Y03792*
X09364Y038*
X09362Y03807*
X09358Y03813*
X09356Y03815*
Y0382*
X09358Y03821*
X09362Y03827*
X09364Y03835*
X09362Y03842*
X09358Y03848*
X09356Y0385*
Y03855*
X09358Y03856*
X09362Y03862*
X09364Y0387*
X09362Y03877*
X09358Y03883*
X09356Y03885*
Y0389*
X09358Y03891*
X09362Y03897*
X09364Y03905*
X09362Y03912*
X09358Y03918*
X09352Y03922*
X09345Y03924*
G37*
G36*
X0578Y03757D02*
X0577Y03756D01*
X05761Y03752*
X05753Y03746*
X05747Y03738*
X05743Y03729*
X05742Y0372*
X05743Y0371*
X05747Y03701*
X05753Y03693*
X05761Y03687*
X0577Y03683*
X0578Y03682*
X05789Y03683*
X05798Y03687*
X05806Y03693*
X05812Y03701*
X05816Y0371*
X05817Y0372*
X05816Y03729*
X05812Y03738*
X05806Y03746*
X05798Y03752*
X05789Y03756*
X0578Y03757*
G37*
G36*
X0969Y03819D02*
X09682Y03817D01*
X09676Y03813*
X09675Y03811*
X0967*
X09668Y03813*
X09662Y03817*
X09655Y03819*
X09647Y03817*
X09641Y03813*
X09637Y03807*
X09635Y038*
X09637Y03792*
X09641Y03786*
Y03783*
X09637Y03777*
X09635Y0377*
X09637Y03762*
X09641Y03756*
X09647Y03752*
X09655Y0375*
X09662Y03752*
X09668Y03756*
X0967Y03758*
X09675*
X09676Y03756*
X09682Y03752*
X0969Y0375*
X09697Y03752*
X09703Y03756*
X09707Y03762*
X09709Y0377*
X09707Y03777*
X09703Y03783*
Y03786*
X09707Y03792*
X09709Y038*
X09707Y03807*
X09703Y03813*
X09697Y03817*
X0969Y03819*
G37*
G36*
X09925Y03899D02*
X09917Y03897D01*
X09911Y03893*
X0991Y03891*
X09905*
X09903Y03893*
X09897Y03897*
X0989Y03899*
X09882Y03897*
X09876Y03893*
X09872Y03887*
X0987Y0388*
X09872Y03872*
X09876Y03866*
Y03863*
X09872Y03857*
X0987Y0385*
X09872Y03842*
X09876Y03836*
X09882Y03832*
X0989Y0383*
X09897Y03832*
X09903Y03836*
X09905Y03838*
X0991*
X09911Y03836*
X09917Y03832*
X09925Y0383*
X09932Y03832*
X09938Y03836*
X09942Y03842*
X09944Y0385*
X09942Y03857*
X09938Y03863*
Y03866*
X09942Y03872*
X09944Y0388*
X09942Y03887*
X09938Y03893*
X09932Y03897*
X09925Y03899*
G37*
G36*
X09835Y03819D02*
X09827Y03817D01*
X09821Y03813*
X0982Y03811*
X09815*
X09813Y03813*
X09807Y03817*
X098Y03819*
X09792Y03817*
X09786Y03813*
X09782Y03807*
X0978Y038*
X09782Y03792*
X09786Y03786*
X09788Y03785*
Y0378*
X09786Y03778*
X09782Y03772*
X0978Y03765*
X09782Y03757*
X09786Y03751*
X09792Y03747*
X098Y03745*
X09807Y03747*
X09813Y03751*
X09815Y03753*
X0982*
X09821Y03751*
X09827Y03747*
X09835Y03745*
X09842Y03747*
X09848Y03751*
X09852Y03757*
X09854Y03765*
X09852Y03772*
X09848Y03778*
X09846Y0378*
Y03785*
X09848Y03786*
X09852Y03792*
X09854Y038*
X09852Y03807*
X09848Y03813*
X09842Y03817*
X09835Y03819*
G37*
G36*
X0503Y03757D02*
X0502Y03756D01*
X05011Y03752*
X05003Y03746*
X04997Y03738*
X04993Y03729*
X04992Y0372*
X04993Y0371*
X04997Y03701*
X05003Y03693*
X05011Y03687*
X0502Y03683*
X0503Y03682*
X05039Y03683*
X05048Y03687*
X05056Y03693*
X05062Y03701*
X05066Y0371*
X05067Y0372*
X05066Y03729*
X05062Y03738*
X05056Y03746*
X05048Y03752*
X05039Y03756*
X0503Y03757*
G37*
G36*
X0203D02*
X0202Y03756D01*
X02011Y03752*
X02003Y03746*
X01997Y03738*
X01993Y03729*
X01992Y0372*
X01993Y0371*
X01997Y03701*
X02003Y03693*
X02011Y03687*
X0202Y03683*
X0203Y03682*
X02039Y03683*
X02048Y03687*
X02056Y03693*
X02062Y03701*
X02066Y0371*
X02067Y0372*
X02066Y03729*
X02062Y03738*
X02056Y03746*
X02048Y03752*
X02039Y03756*
X0203Y03757*
G37*
G36*
X0578Y03657D02*
X0577Y03656D01*
X05761Y03652*
X05753Y03646*
X05747Y03638*
X05743Y03629*
X05742Y0362*
X05743Y0361*
X05747Y03601*
X05753Y03593*
X05761Y03587*
X0577Y03583*
X0578Y03582*
X05789Y03583*
X05798Y03587*
X05806Y03593*
X05812Y03601*
X05816Y0361*
X05817Y0362*
X05816Y03629*
X05812Y03638*
X05806Y03646*
X05798Y03652*
X05789Y03656*
X0578Y03657*
G37*
G36*
X0278Y03757D02*
X0277Y03756D01*
X02761Y03752*
X02753Y03746*
X02747Y03738*
X02743Y03729*
X02742Y0372*
X02743Y0371*
X02747Y03701*
X02753Y03693*
X02761Y03687*
X0277Y03683*
X0278Y03682*
X02789Y03683*
X02798Y03687*
X02806Y03693*
X02812Y03701*
X02816Y0371*
X02817Y0372*
X02816Y03729*
X02812Y03738*
X02806Y03746*
X02798Y03752*
X02789Y03756*
X0278Y03757*
G37*
G36*
X0428D02*
X0427Y03756D01*
X04261Y03752*
X04253Y03746*
X04247Y03738*
X04243Y03729*
X04242Y0372*
X04243Y0371*
X04247Y03701*
X04253Y03693*
X04261Y03687*
X0427Y03683*
X0428Y03682*
X04289Y03683*
X04298Y03687*
X04306Y03693*
X04312Y03701*
X04316Y0371*
X04317Y0372*
X04316Y03729*
X04312Y03738*
X04306Y03746*
X04298Y03752*
X04289Y03756*
X0428Y03757*
G37*
G36*
X0353D02*
X0352Y03756D01*
X03511Y03752*
X03503Y03746*
X03497Y03738*
X03493Y03729*
X03492Y0372*
X03493Y0371*
X03497Y03701*
X03503Y03693*
X03511Y03687*
X0352Y03683*
X0353Y03682*
X03539Y03683*
X03548Y03687*
X03556Y03693*
X03562Y03701*
X03566Y0371*
X03567Y0372*
X03566Y03729*
X03562Y03738*
X03556Y03746*
X03548Y03752*
X03539Y03756*
X0353Y03757*
G37*
G36*
X03525Y0433D02*
X0351Y04328D01*
X03497Y04323*
X03485Y04314*
X03476Y04302*
X03471Y04289*
X03469Y04275*
X03471Y0426*
X03476Y04247*
X03485Y04235*
X03497Y04226*
X0351Y04221*
X03525Y04219*
X03539Y04221*
X03552Y04226*
X03564Y04235*
X03573Y04247*
X03578Y0426*
X0358Y04275*
X03578Y04289*
X03573Y04302*
X03564Y04314*
X03552Y04323*
X03539Y04328*
X03525Y0433*
G37*
G36*
X02975D02*
X0296Y04328D01*
X02947Y04323*
X02935Y04314*
X02926Y04302*
X02921Y04289*
X02919Y04275*
X02921Y0426*
X02926Y04247*
X02935Y04235*
X02947Y04226*
X0296Y04221*
X02975Y04219*
X02989Y04221*
X03002Y04226*
X03014Y04235*
X03023Y04247*
X03028Y0426*
X0303Y04275*
X03028Y04289*
X03023Y04302*
X03014Y04314*
X03002Y04323*
X02989Y04328*
X02975Y0433*
G37*
G36*
X03725D02*
X0371Y04328D01*
X03697Y04323*
X03685Y04314*
X03676Y04302*
X03671Y04289*
X03669Y04275*
X03671Y0426*
X03676Y04247*
X03685Y04235*
X03697Y04226*
X0371Y04221*
X03725Y04219*
X03739Y04221*
X03752Y04226*
X03764Y04235*
X03773Y04247*
X03778Y0426*
X0378Y04275*
X03778Y04289*
X03773Y04302*
X03764Y04314*
X03752Y04323*
X03739Y04328*
X03725Y0433*
G37*
G36*
X04475D02*
X0446Y04328D01*
X04447Y04323*
X04435Y04314*
X04426Y04302*
X04421Y04289*
X04419Y04275*
X04421Y0426*
X04426Y04247*
X04435Y04235*
X04447Y04226*
X0446Y04221*
X04475Y04219*
X04489Y04221*
X04502Y04226*
X04514Y04235*
X04523Y04247*
X04528Y0426*
X0453Y04275*
X04528Y04289*
X04523Y04302*
X04514Y04314*
X04502Y04323*
X04489Y04328*
X04475Y0433*
G37*
G36*
X04275D02*
X0426Y04328D01*
X04247Y04323*
X04235Y04314*
X04226Y04302*
X04221Y04289*
X04219Y04275*
X04221Y0426*
X04226Y04247*
X04235Y04235*
X04247Y04226*
X0426Y04221*
X04275Y04219*
X04289Y04221*
X04302Y04226*
X04314Y04235*
X04323Y04247*
X04328Y0426*
X0433Y04275*
X04328Y04289*
X04323Y04302*
X04314Y04314*
X04302Y04323*
X04289Y04328*
X04275Y0433*
G37*
G36*
X02775D02*
X0276Y04328D01*
X02747Y04323*
X02735Y04314*
X02726Y04302*
X02721Y04289*
X02719Y04275*
X02721Y0426*
X02726Y04247*
X02735Y04235*
X02747Y04226*
X0276Y04221*
X02775Y04219*
X02789Y04221*
X02802Y04226*
X02814Y04235*
X02823Y04247*
X02828Y0426*
X0283Y04275*
X02828Y04289*
X02823Y04302*
X02814Y04314*
X02802Y04323*
X02789Y04328*
X02775Y0433*
G37*
G36*
X1008Y04189D02*
X10072Y04187D01*
X10066Y04183*
X10062Y04177*
X1006Y0417*
X10062Y04162*
X10066Y04156*
Y04153*
X10062Y04147*
X1006Y0414*
X10062Y04132*
X10066Y04126*
X10068Y04125*
Y0412*
X10066Y04118*
X10062Y04112*
X1006Y04105*
X10062Y04097*
X10066Y04091*
X10068Y0409*
Y04085*
X10066Y04083*
X10062Y04077*
X1006Y0407*
X10062Y04062*
X10066Y04056*
X10072Y04052*
X1008Y0405*
X10087Y04052*
X10093Y04056*
X10097Y04062*
X10099Y0407*
X10097Y04077*
X10093Y04083*
X10091Y04085*
Y0409*
X10093Y04091*
X10097Y04097*
X10099Y04105*
X10097Y04112*
X10093Y04118*
X10091Y0412*
Y04125*
X10093Y04126*
X10097Y04132*
X10099Y0414*
X10097Y04147*
X10093Y04153*
Y04156*
X10097Y04162*
X10099Y0417*
X10097Y04177*
X10093Y04183*
X10087Y04187*
X1008Y04189*
G37*
G36*
X096Y03904D02*
X09592Y03902D01*
X09586Y03898*
X09585Y03896*
X0958*
X09578Y03898*
X09572Y03902*
X09565Y03904*
X09557Y03902*
X09551Y03898*
X09547Y03892*
X09545Y03885*
X09547Y03877*
X09551Y03871*
X09553Y0387*
Y03865*
X09551Y03863*
X09547Y03857*
X09545Y0385*
X09547Y03842*
X09551Y03836*
X09557Y03832*
X09565Y0383*
X09572Y03832*
X09578Y03836*
X0958Y03838*
X09585*
X09586Y03836*
X09592Y03832*
X096Y0383*
X09607Y03832*
X09613Y03836*
X09617Y03842*
X09619Y0385*
X09617Y03857*
X09613Y03863*
X09611Y03865*
Y0387*
X09613Y03871*
X09617Y03877*
X09619Y03885*
X09617Y03892*
X09613Y03898*
X09607Y03902*
X096Y03904*
G37*
G36*
X0972Y04223D02*
X09712Y04221D01*
X09707Y04217*
X09703Y04212*
X09701Y04205*
X09703Y04197*
X09707Y04192*
X09712Y04188*
X0972Y04186*
X09727Y04188*
X09732Y04192*
X09736Y04197*
X09738Y04205*
X09736Y04212*
X09732Y04217*
X09727Y04221*
X0972Y04223*
G37*
G36*
X02225Y0433D02*
X0221Y04328D01*
X02197Y04323*
X02185Y04314*
X02176Y04302*
X02171Y04289*
X02169Y04275*
X02171Y0426*
X02176Y04247*
X02185Y04235*
X02197Y04226*
X0221Y04221*
X02225Y04219*
X02239Y04221*
X02252Y04226*
X02264Y04235*
X02273Y04247*
X02278Y0426*
X0228Y04275*
X02278Y04289*
X02273Y04302*
X02264Y04314*
X02252Y04323*
X02239Y04328*
X02225Y0433*
G37*
G36*
X02025D02*
X0201Y04328D01*
X01997Y04323*
X01985Y04314*
X01976Y04302*
X01971Y04289*
X01969Y04275*
X01971Y0426*
X01976Y04247*
X01985Y04235*
X01997Y04226*
X0201Y04221*
X02025Y04219*
X02039Y04221*
X02052Y04226*
X02064Y04235*
X02073Y04247*
X02078Y0426*
X0208Y04275*
X02078Y04289*
X02073Y04302*
X02064Y04314*
X02052Y04323*
X02039Y04328*
X02025Y0433*
G37*
G36*
X04875Y02668D02*
X04867Y02666D01*
X04862Y02662*
X04858Y02657*
X04856Y0265*
X04858Y02642*
X04862Y02637*
X04862Y02636*
Y02388*
X04862Y02387*
X04858Y02382*
X04856Y02375*
X04858Y02367*
X04862Y02362*
X04867Y02358*
X04875Y02356*
X04882Y02358*
X04887Y02362*
X04891Y02367*
X04893Y02375*
X04891Y02382*
X04887Y02387*
X04887Y02388*
Y02636*
X04887Y02637*
X04891Y02642*
X04893Y0265*
X04891Y02657*
X04887Y02662*
X04882Y02666*
X04875Y02668*
G37*
G36*
X0905Y02397D02*
X09041Y02395D01*
X09034Y0239*
X09029Y02383*
X09027Y02375*
X09029Y02366*
X09034Y02359*
X09041Y02354*
X0905Y02352*
X09058Y02354*
X09065Y02359*
X0907Y02366*
X09072Y02375*
X0907Y02383*
X09065Y0239*
X09058Y02395*
X0905Y02397*
G37*
G36*
X05625Y02743D02*
X05617Y02741D01*
X05612Y02737*
X05608Y02732*
X05606Y02725*
X05608Y02717*
X05612Y02712*
X05612Y02711*
Y02388*
X05612Y02387*
X05608Y02382*
X05606Y02375*
X05608Y02367*
X05612Y02362*
X05617Y02358*
X05625Y02356*
X05632Y02358*
X05637Y02362*
X05641Y02367*
X05643Y02375*
X05641Y02382*
X05637Y02387*
X05637Y02388*
Y02711*
X05637Y02712*
X05641Y02717*
X05643Y02725*
X05641Y02732*
X05637Y02737*
X05632Y02741*
X05625Y02743*
G37*
G36*
X09625Y02433D02*
X09616Y02432D01*
X09608Y02428*
X09601Y02423*
X09596Y02416*
X09592Y02408*
X09591Y024*
X09592Y02391*
X09596Y02383*
X09601Y02376*
X09608Y02371*
X09616Y02367*
X09625Y02366*
X09633Y02367*
X09641Y02371*
X09648Y02376*
X09653Y02383*
X09657Y02391*
X09658Y024*
X09657Y02408*
X09653Y02416*
X09648Y02423*
X09641Y02428*
X09633Y02432*
X09625Y02433*
G37*
G36*
X0955D02*
X09541Y02432D01*
X09533Y02428*
X09526Y02423*
X09521Y02416*
X09517Y02408*
X09516Y024*
X09517Y02391*
X09521Y02383*
X09526Y02376*
X09533Y02371*
X09541Y02367*
X0955Y02366*
X09558Y02367*
X09566Y02371*
X09573Y02376*
X09578Y02383*
X09582Y02391*
X09583Y024*
X09582Y02408*
X09578Y02416*
X09573Y02423*
X09566Y02428*
X09558Y02432*
X0955Y02433*
G37*
G36*
X09145Y02392D02*
X09136Y0239D01*
X09129Y02385*
X09124Y02378*
X09122Y0237*
X09124Y02361*
X09129Y02354*
X09136Y02349*
X09145Y02347*
X09153Y02349*
X0916Y02354*
X09165Y02361*
X09167Y0237*
X09165Y02378*
X0916Y02385*
X09153Y0239*
X09145Y02392*
G37*
G36*
X09775Y02358D02*
X09766Y02357D01*
X09758Y02353*
X09751Y02348*
X09746Y02341*
X09742Y02333*
X09741Y02325*
X09742Y02316*
X09746Y02308*
X09751Y02301*
X09758Y02296*
X09766Y02292*
X09775Y02291*
X09783Y02292*
X09791Y02296*
X09798Y02301*
X09803Y02308*
X09807Y02316*
X09808Y02325*
X09807Y02333*
X09803Y02341*
X09798Y02348*
X09791Y02353*
X09783Y02357*
X09775Y02358*
G37*
G36*
X097D02*
X09691Y02357D01*
X09683Y02353*
X09676Y02348*
X09671Y02341*
X09667Y02333*
X09666Y02325*
X09667Y02316*
X09671Y02308*
X09676Y02301*
X09683Y02296*
X09691Y02292*
X097Y02291*
X09708Y02292*
X09716Y02296*
X09723Y02301*
X09728Y02308*
X09732Y02316*
X09733Y02325*
X09732Y02333*
X09728Y02341*
X09723Y02348*
X09716Y02353*
X09708Y02357*
X097Y02358*
G37*
G36*
X0985D02*
X09841Y02357D01*
X09833Y02353*
X09826Y02348*
X09821Y02341*
X09817Y02333*
X09816Y02325*
X09817Y02316*
X09821Y02308*
X09826Y02301*
X09833Y02296*
X09841Y02292*
X0985Y02291*
X09858Y02292*
X09866Y02296*
X09873Y02301*
X09878Y02308*
X09882Y02316*
X09883Y02325*
X09882Y02333*
X09878Y02341*
X09873Y02348*
X09866Y02353*
X09858Y02357*
X0985Y02358*
G37*
G36*
X09145Y02337D02*
X09136Y02335D01*
X09129Y0233*
X09124Y02323*
X09122Y02315*
X09124Y02306*
X09129Y02299*
X09136Y02294*
X09145Y02292*
X09153Y02294*
X0916Y02299*
X09165Y02306*
X09167Y02315*
X09165Y02323*
X0916Y0233*
X09153Y02335*
X09145Y02337*
G37*
G36*
X09925Y02358D02*
X09916Y02357D01*
X09908Y02353*
X09901Y02348*
X09896Y02341*
X09892Y02333*
X09891Y02325*
X09892Y02316*
X09896Y02308*
X09901Y02301*
X09908Y02296*
X09916Y02292*
X09925Y02291*
X09933Y02292*
X09941Y02296*
X09948Y02301*
X09953Y02308*
X09957Y02316*
X09958Y02325*
X09957Y02333*
X09953Y02341*
X09948Y02348*
X09941Y02353*
X09933Y02357*
X09925Y02358*
G37*
G36*
X097Y02433D02*
X09691Y02432D01*
X09683Y02428*
X09676Y02423*
X09671Y02416*
X09667Y02408*
X09666Y024*
X09667Y02391*
X09671Y02383*
X09676Y02376*
X09683Y02371*
X09691Y02367*
X097Y02366*
X09708Y02367*
X09716Y02371*
X09723Y02376*
X09728Y02383*
X09732Y02391*
X09733Y024*
X09732Y02408*
X09728Y02416*
X09723Y02423*
X09716Y02428*
X09708Y02432*
X097Y02433*
G37*
G36*
X0985Y02508D02*
X09841Y02507D01*
X09833Y02503*
X09826Y02498*
X09821Y02491*
X09817Y02483*
X09816Y02475*
X09817Y02466*
X09821Y02458*
X09826Y02451*
X09833Y02446*
X09841Y02442*
X0985Y02441*
X09858Y02442*
X09866Y02446*
X09873Y02451*
X09878Y02458*
X09882Y02466*
X09883Y02475*
X09882Y02483*
X09878Y02491*
X09873Y02498*
X09866Y02503*
X09858Y02507*
X0985Y02508*
G37*
G36*
X09775D02*
X09766Y02507D01*
X09758Y02503*
X09751Y02498*
X09746Y02491*
X09742Y02483*
X09741Y02475*
X09742Y02466*
X09746Y02458*
X09751Y02451*
X09758Y02446*
X09766Y02442*
X09775Y02441*
X09783Y02442*
X09791Y02446*
X09798Y02451*
X09803Y02458*
X09807Y02466*
X09808Y02475*
X09807Y02483*
X09803Y02491*
X09798Y02498*
X09791Y02503*
X09783Y02507*
X09775Y02508*
G37*
G36*
X09925D02*
X09916Y02507D01*
X09908Y02503*
X09901Y02498*
X09896Y02491*
X09892Y02483*
X09891Y02475*
X09892Y02466*
X09896Y02458*
X09901Y02451*
X09908Y02446*
X09916Y02442*
X09925Y02441*
X09933Y02442*
X09941Y02446*
X09948Y02451*
X09953Y02458*
X09957Y02466*
X09958Y02475*
X09957Y02483*
X09953Y02491*
X09948Y02498*
X09941Y02503*
X09933Y02507*
X09925Y02508*
G37*
G36*
X09625Y02583D02*
X09616Y02582D01*
X09608Y02578*
X09601Y02573*
X09596Y02566*
X09592Y02558*
X09591Y0255*
X09592Y02541*
X09596Y02533*
X09601Y02526*
X09608Y02521*
X09616Y02517*
X09625Y02516*
X09633Y02517*
X09641Y02521*
X09648Y02526*
X09653Y02533*
X09657Y02541*
X09658Y0255*
X09657Y02558*
X09653Y02566*
X09648Y02573*
X09641Y02578*
X09633Y02582*
X09625Y02583*
G37*
G36*
X09475D02*
X09466Y02582D01*
X09458Y02578*
X09451Y02573*
X09446Y02566*
X09442Y02558*
X09441Y0255*
X09442Y02541*
X09446Y02533*
X09451Y02526*
X09458Y02521*
X09466Y02517*
X09475Y02516*
X09483Y02517*
X09491Y02521*
X09498Y02526*
X09503Y02533*
X09507Y02541*
X09508Y0255*
X09507Y02558*
X09503Y02566*
X09498Y02573*
X09491Y02578*
X09483Y02582*
X09475Y02583*
G37*
G36*
X097Y02508D02*
X09691Y02507D01*
X09683Y02503*
X09676Y02498*
X09671Y02491*
X09667Y02483*
X09666Y02475*
X09667Y02466*
X09671Y02458*
X09676Y02451*
X09683Y02446*
X09691Y02442*
X097Y02441*
X09708Y02442*
X09716Y02446*
X09723Y02451*
X09728Y02458*
X09732Y02466*
X09733Y02475*
X09732Y02483*
X09728Y02491*
X09723Y02498*
X09716Y02503*
X09708Y02507*
X097Y02508*
G37*
G36*
X0985Y02433D02*
X09841Y02432D01*
X09833Y02428*
X09826Y02423*
X09821Y02416*
X09817Y02408*
X09816Y024*
X09817Y02391*
X09821Y02383*
X09826Y02376*
X09833Y02371*
X09841Y02367*
X0985Y02366*
X09858Y02367*
X09866Y02371*
X09873Y02376*
X09878Y02383*
X09882Y02391*
X09883Y024*
X09882Y02408*
X09878Y02416*
X09873Y02423*
X09866Y02428*
X09858Y02432*
X0985Y02433*
G37*
G36*
X09775D02*
X09766Y02432D01*
X09758Y02428*
X09751Y02423*
X09746Y02416*
X09742Y02408*
X09741Y024*
X09742Y02391*
X09746Y02383*
X09751Y02376*
X09758Y02371*
X09766Y02367*
X09775Y02366*
X09783Y02367*
X09791Y02371*
X09798Y02376*
X09803Y02383*
X09807Y02391*
X09808Y024*
X09807Y02408*
X09803Y02416*
X09798Y02423*
X09791Y02428*
X09783Y02432*
X09775Y02433*
G37*
G36*
X09925D02*
X09916Y02432D01*
X09908Y02428*
X09901Y02423*
X09896Y02416*
X09892Y02408*
X09891Y024*
X09892Y02391*
X09896Y02383*
X09901Y02376*
X09908Y02371*
X09916Y02367*
X09925Y02366*
X09933Y02367*
X09941Y02371*
X09948Y02376*
X09953Y02383*
X09957Y02391*
X09958Y024*
X09957Y02408*
X09953Y02416*
X09948Y02423*
X09941Y02428*
X09933Y02432*
X09925Y02433*
G37*
G36*
X09625Y02508D02*
X09616Y02507D01*
X09608Y02503*
X09601Y02498*
X09596Y02491*
X09592Y02483*
X09591Y02475*
X09592Y02466*
X09596Y02458*
X09601Y02451*
X09608Y02446*
X09616Y02442*
X09625Y02441*
X09633Y02442*
X09641Y02446*
X09648Y02451*
X09653Y02458*
X09657Y02466*
X09658Y02475*
X09657Y02483*
X09653Y02491*
X09648Y02498*
X09641Y02503*
X09633Y02507*
X09625Y02508*
G37*
G36*
X0955D02*
X09541Y02507D01*
X09533Y02503*
X09526Y02498*
X09521Y02491*
X09517Y02483*
X09516Y02475*
X09517Y02466*
X09521Y02458*
X09526Y02451*
X09533Y02446*
X09541Y02442*
X0955Y02441*
X09558Y02442*
X09566Y02446*
X09573Y02451*
X09578Y02458*
X09582Y02466*
X09583Y02475*
X09582Y02483*
X09578Y02491*
X09573Y02498*
X09566Y02503*
X09558Y02507*
X0955Y02508*
G37*
G36*
X097Y02208D02*
X09691Y02207D01*
X09683Y02203*
X09676Y02198*
X09671Y02191*
X09667Y02183*
X09666Y02175*
X09667Y02166*
X09671Y02158*
X09676Y02151*
X09683Y02146*
X09691Y02142*
X097Y02141*
X09708Y02142*
X09716Y02146*
X09723Y02151*
X09728Y02158*
X09732Y02166*
X09733Y02175*
X09732Y02183*
X09728Y02191*
X09723Y02198*
X09716Y02203*
X09708Y02207*
X097Y02208*
G37*
G36*
X09625D02*
X09616Y02207D01*
X09608Y02203*
X09601Y02198*
X09596Y02191*
X09592Y02183*
X09591Y02175*
X09592Y02166*
X09596Y02158*
X09601Y02151*
X09608Y02146*
X09616Y02142*
X09625Y02141*
X09633Y02142*
X09641Y02146*
X09648Y02151*
X09653Y02158*
X09657Y02166*
X09658Y02175*
X09657Y02183*
X09653Y02191*
X09648Y02198*
X09641Y02203*
X09633Y02207*
X09625Y02208*
G37*
G36*
X09775D02*
X09766Y02207D01*
X09758Y02203*
X09751Y02198*
X09746Y02191*
X09742Y02183*
X09741Y02175*
X09742Y02166*
X09746Y02158*
X09751Y02151*
X09758Y02146*
X09766Y02142*
X09775Y02141*
X09783Y02142*
X09791Y02146*
X09798Y02151*
X09803Y02158*
X09807Y02166*
X09808Y02175*
X09807Y02183*
X09803Y02191*
X09798Y02198*
X09791Y02203*
X09783Y02207*
X09775Y02208*
G37*
G36*
X09925D02*
X09916Y02207D01*
X09908Y02203*
X09901Y02198*
X09896Y02191*
X09892Y02183*
X09891Y02175*
X09892Y02166*
X09896Y02158*
X09901Y02151*
X09908Y02146*
X09916Y02142*
X09925Y02141*
X09933Y02142*
X09941Y02146*
X09948Y02151*
X09953Y02158*
X09957Y02166*
X09958Y02175*
X09957Y02183*
X09953Y02191*
X09948Y02198*
X09941Y02203*
X09933Y02207*
X09925Y02208*
G37*
G36*
X0985D02*
X09841Y02207D01*
X09833Y02203*
X09826Y02198*
X09821Y02191*
X09817Y02183*
X09816Y02175*
X09817Y02166*
X09821Y02158*
X09826Y02151*
X09833Y02146*
X09841Y02142*
X0985Y02141*
X09858Y02142*
X09866Y02146*
X09873Y02151*
X09878Y02158*
X09882Y02166*
X09883Y02175*
X09882Y02183*
X09878Y02191*
X09873Y02198*
X09866Y02203*
X09858Y02207*
X0985Y02208*
G37*
G36*
X0955D02*
X09541Y02207D01*
X09533Y02203*
X09526Y02198*
X09521Y02191*
X09517Y02183*
X09516Y02175*
X09517Y02166*
X09521Y02158*
X09526Y02151*
X09533Y02146*
X09541Y02142*
X0955Y02141*
X09558Y02142*
X09566Y02146*
X09573Y02151*
X09578Y02158*
X09582Y02166*
X09583Y02175*
X09582Y02183*
X09578Y02191*
X09573Y02198*
X09566Y02203*
X09558Y02207*
X0955Y02208*
G37*
G36*
X04837Y01137D02*
X04762D01*
Y01062*
X04837*
Y01137*
G37*
G36*
X01737D02*
X01662D01*
Y01062*
X01737*
Y01137*
G37*
G36*
X09287Y02037D02*
X09212D01*
Y01962*
X09287*
Y02037*
G37*
G36*
X09475Y02208D02*
X09466Y02207D01*
X09458Y02203*
X09451Y02198*
X09446Y02191*
X09442Y02183*
X09441Y02175*
X09442Y02166*
X09446Y02158*
X09451Y02151*
X09458Y02146*
X09466Y02142*
X09475Y02141*
X09483Y02142*
X09491Y02146*
X09498Y02151*
X09503Y02158*
X09507Y02166*
X09508Y02175*
X09507Y02183*
X09503Y02191*
X09498Y02198*
X09491Y02203*
X09483Y02207*
X09475Y02208*
G37*
G36*
X094D02*
X09391Y02207D01*
X09383Y02203*
X09376Y02198*
X09371Y02191*
X09367Y02183*
X09366Y02175*
X09367Y02166*
X09371Y02158*
X09376Y02151*
X09383Y02146*
X09391Y02142*
X094Y02141*
X09408Y02142*
X09416Y02146*
X09423Y02151*
X09428Y02158*
X09432Y02166*
X09433Y02175*
X09432Y02183*
X09428Y02191*
X09423Y02198*
X09416Y02203*
X09408Y02207*
X094Y02208*
G37*
G36*
X0905Y02247D02*
X09041Y02245D01*
X09034Y0224*
X09029Y02233*
X09027Y02225*
X09029Y02216*
X09034Y02209*
X09041Y02204*
X0905Y02202*
X09058Y02204*
X09065Y02209*
X0907Y02216*
X09072Y02225*
X0907Y02233*
X09065Y0224*
X09058Y02245*
X0905Y02247*
G37*
G36*
X09925Y02283D02*
X09916Y02282D01*
X09908Y02278*
X09901Y02273*
X09896Y02266*
X09892Y02258*
X09891Y0225*
X09892Y02241*
X09896Y02233*
X09901Y02226*
X09908Y02221*
X09916Y02217*
X09925Y02216*
X09933Y02217*
X09941Y02221*
X09948Y02226*
X09953Y02233*
X09957Y02241*
X09958Y0225*
X09957Y02258*
X09953Y02266*
X09948Y02273*
X09941Y02278*
X09933Y02282*
X09925Y02283*
G37*
G36*
X0985D02*
X09841Y02282D01*
X09833Y02278*
X09826Y02273*
X09821Y02266*
X09817Y02258*
X09816Y0225*
X09817Y02241*
X09821Y02233*
X09826Y02226*
X09833Y02221*
X09841Y02217*
X0985Y02216*
X09858Y02217*
X09866Y02221*
X09873Y02226*
X09878Y02233*
X09882Y02241*
X09883Y0225*
X09882Y02258*
X09878Y02266*
X09873Y02273*
X09866Y02278*
X09858Y02282*
X0985Y02283*
G37*
G36*
X09225Y02267D02*
X09216Y02265D01*
X09209Y0226*
X09204Y02253*
X09202Y02245*
X09204Y02236*
X09209Y02229*
X09216Y02224*
X09225Y02222*
X09233Y02224*
X0924Y02229*
X09245Y02236*
X09247Y02245*
X09245Y02253*
X0924Y0226*
X09233Y02265*
X09225Y02267*
G37*
G36*
X09625Y02358D02*
X09616Y02357D01*
X09608Y02353*
X09601Y02348*
X09596Y02341*
X09592Y02333*
X09591Y02325*
X09592Y02316*
X09596Y02308*
X09601Y02301*
X09608Y02296*
X09616Y02292*
X09625Y02291*
X09633Y02292*
X09641Y02296*
X09648Y02301*
X09653Y02308*
X09657Y02316*
X09658Y02325*
X09657Y02333*
X09653Y02341*
X09648Y02348*
X09641Y02353*
X09633Y02357*
X09625Y02358*
G37*
G36*
X0955D02*
X09541Y02357D01*
X09533Y02353*
X09526Y02348*
X09521Y02341*
X09517Y02333*
X09516Y02325*
X09517Y02316*
X09521Y02308*
X09526Y02301*
X09533Y02296*
X09541Y02292*
X0955Y02291*
X09558Y02292*
X09566Y02296*
X09573Y02301*
X09578Y02308*
X09582Y02316*
X09583Y02325*
X09582Y02333*
X09578Y02341*
X09573Y02348*
X09566Y02353*
X09558Y02357*
X0955Y02358*
G37*
G36*
X09775Y02283D02*
X09766Y02282D01*
X09758Y02278*
X09751Y02273*
X09746Y02266*
X09742Y02258*
X09741Y0225*
X09742Y02241*
X09746Y02233*
X09751Y02226*
X09758Y02221*
X09766Y02217*
X09775Y02216*
X09783Y02217*
X09791Y02221*
X09798Y02226*
X09803Y02233*
X09807Y02241*
X09808Y0225*
X09807Y02258*
X09803Y02266*
X09798Y02273*
X09791Y02278*
X09783Y02282*
X09775Y02283*
G37*
G36*
X09475D02*
X09466Y02282D01*
X09458Y02278*
X09451Y02273*
X09446Y02266*
X09442Y02258*
X09441Y0225*
X09442Y02241*
X09446Y02233*
X09451Y02226*
X09458Y02221*
X09466Y02217*
X09475Y02216*
X09483Y02217*
X09491Y02221*
X09498Y02226*
X09503Y02233*
X09507Y02241*
X09508Y0225*
X09507Y02258*
X09503Y02266*
X09498Y02273*
X09491Y02278*
X09483Y02282*
X09475Y02283*
G37*
G36*
X094D02*
X09391Y02282D01*
X09383Y02278*
X09376Y02273*
X09371Y02266*
X09367Y02258*
X09366Y0225*
X09367Y02241*
X09371Y02233*
X09376Y02226*
X09383Y02221*
X09391Y02217*
X094Y02216*
X09408Y02217*
X09416Y02221*
X09423Y02226*
X09428Y02233*
X09432Y02241*
X09433Y0225*
X09432Y02258*
X09428Y02266*
X09423Y02273*
X09416Y02278*
X09408Y02282*
X094Y02283*
G37*
G36*
X0955D02*
X09541Y02282D01*
X09533Y02278*
X09526Y02273*
X09521Y02266*
X09517Y02258*
X09516Y0225*
X09517Y02241*
X09521Y02233*
X09526Y02226*
X09533Y02221*
X09541Y02217*
X0955Y02216*
X09558Y02217*
X09566Y02221*
X09573Y02226*
X09578Y02233*
X09582Y02241*
X09583Y0225*
X09582Y02258*
X09578Y02266*
X09573Y02273*
X09566Y02278*
X09558Y02282*
X0955Y02283*
G37*
G36*
X097D02*
X09691Y02282D01*
X09683Y02278*
X09676Y02273*
X09671Y02266*
X09667Y02258*
X09666Y0225*
X09667Y02241*
X09671Y02233*
X09676Y02226*
X09683Y02221*
X09691Y02217*
X097Y02216*
X09708Y02217*
X09716Y02221*
X09723Y02226*
X09728Y02233*
X09732Y02241*
X09733Y0225*
X09732Y02258*
X09728Y02266*
X09723Y02273*
X09716Y02278*
X09708Y02282*
X097Y02283*
G37*
G36*
X09625D02*
X09616Y02282D01*
X09608Y02278*
X09601Y02273*
X09596Y02266*
X09592Y02258*
X09591Y0225*
X09592Y02241*
X09596Y02233*
X09601Y02226*
X09608Y02221*
X09616Y02217*
X09625Y02216*
X09633Y02217*
X09641Y02221*
X09648Y02226*
X09653Y02233*
X09657Y02241*
X09658Y0225*
X09657Y02258*
X09653Y02266*
X09648Y02273*
X09641Y02278*
X09633Y02282*
X09625Y02283*
G37*
G36*
X0503Y02957D02*
X0502Y02956D01*
X05011Y02952*
X05003Y02946*
X04997Y02938*
X04993Y02929*
X04992Y0292*
X04993Y0291*
X04997Y02901*
X05003Y02893*
X05011Y02887*
X0502Y02883*
X0503Y02882*
X05039Y02883*
X05048Y02887*
X05056Y02893*
X05062Y02901*
X05066Y0291*
X05067Y0292*
X05066Y02929*
X05062Y02938*
X05056Y02946*
X05048Y02952*
X05039Y02956*
X0503Y02957*
G37*
G36*
X0438D02*
X0437Y02956D01*
X04361Y02952*
X04353Y02946*
X04347Y02938*
X04343Y02929*
X04342Y0292*
X04343Y0291*
X04347Y02901*
X04353Y02893*
X04361Y02887*
X0437Y02883*
X0438Y02882*
X04389Y02883*
X04398Y02887*
X04406Y02893*
X04412Y02901*
X04416Y0291*
X04417Y0292*
X04416Y02929*
X04412Y02938*
X04406Y02946*
X04398Y02952*
X04389Y02956*
X0438Y02957*
G37*
G36*
X0513D02*
X0512Y02956D01*
X05111Y02952*
X05103Y02946*
X05097Y02938*
X05093Y02929*
X05092Y0292*
X05093Y0291*
X05097Y02901*
X05103Y02893*
X05111Y02887*
X0512Y02883*
X0513Y02882*
X05139Y02883*
X05148Y02887*
X05156Y02893*
X05162Y02901*
X05166Y0291*
X05167Y0292*
X05166Y02929*
X05162Y02938*
X05156Y02946*
X05148Y02952*
X05139Y02956*
X0513Y02957*
G37*
G36*
X0588D02*
X0587Y02956D01*
X05861Y02952*
X05853Y02946*
X05847Y02938*
X05843Y02929*
X05842Y0292*
X05843Y0291*
X05847Y02901*
X05853Y02893*
X05861Y02887*
X0587Y02883*
X0588Y02882*
X05889Y02883*
X05898Y02887*
X05906Y02893*
X05912Y02901*
X05916Y0291*
X05917Y0292*
X05916Y02929*
X05912Y02938*
X05906Y02946*
X05898Y02952*
X05889Y02956*
X0588Y02957*
G37*
G36*
X0578D02*
X0577Y02956D01*
X05761Y02952*
X05753Y02946*
X05747Y02938*
X05743Y02929*
X05742Y0292*
X05743Y0291*
X05747Y02901*
X05753Y02893*
X05761Y02887*
X0577Y02883*
X0578Y02882*
X05789Y02883*
X05798Y02887*
X05806Y02893*
X05812Y02901*
X05816Y0291*
X05817Y0292*
X05816Y02929*
X05812Y02938*
X05806Y02946*
X05798Y02952*
X05789Y02956*
X0578Y02957*
G37*
G36*
X0428D02*
X0427Y02956D01*
X04261Y02952*
X04253Y02946*
X04247Y02938*
X04243Y02929*
X04242Y0292*
X04243Y0291*
X04247Y02901*
X04253Y02893*
X04261Y02887*
X0427Y02883*
X0428Y02882*
X04289Y02883*
X04298Y02887*
X04306Y02893*
X04312Y02901*
X04316Y0291*
X04317Y0292*
X04316Y02929*
X04312Y02938*
X04306Y02946*
X04298Y02952*
X04289Y02956*
X0428Y02957*
G37*
G36*
X0278D02*
X0277Y02956D01*
X02761Y02952*
X02753Y02946*
X02747Y02938*
X02743Y02929*
X02742Y0292*
X02743Y0291*
X02747Y02901*
X02753Y02893*
X02761Y02887*
X0277Y02883*
X0278Y02882*
X02789Y02883*
X02798Y02887*
X02806Y02893*
X02812Y02901*
X02816Y0291*
X02817Y0292*
X02816Y02929*
X02812Y02938*
X02806Y02946*
X02798Y02952*
X02789Y02956*
X0278Y02957*
G37*
G36*
X0213D02*
X0212Y02956D01*
X02111Y02952*
X02103Y02946*
X02097Y02938*
X02093Y02929*
X02092Y0292*
X02093Y0291*
X02097Y02901*
X02103Y02893*
X02111Y02887*
X0212Y02883*
X0213Y02882*
X02139Y02883*
X02148Y02887*
X02156Y02893*
X02162Y02901*
X02166Y0291*
X02167Y0292*
X02166Y02929*
X02162Y02938*
X02156Y02946*
X02148Y02952*
X02139Y02956*
X0213Y02957*
G37*
G36*
X0288D02*
X0287Y02956D01*
X02861Y02952*
X02853Y02946*
X02847Y02938*
X02843Y02929*
X02842Y0292*
X02843Y0291*
X02847Y02901*
X02853Y02893*
X02861Y02887*
X0287Y02883*
X0288Y02882*
X02889Y02883*
X02898Y02887*
X02906Y02893*
X02912Y02901*
X02916Y0291*
X02917Y0292*
X02916Y02929*
X02912Y02938*
X02906Y02946*
X02898Y02952*
X02889Y02956*
X0288Y02957*
G37*
G36*
X0363D02*
X0362Y02956D01*
X03611Y02952*
X03603Y02946*
X03597Y02938*
X03593Y02929*
X03592Y0292*
X03593Y0291*
X03597Y02901*
X03603Y02893*
X03611Y02887*
X0362Y02883*
X0363Y02882*
X03639Y02883*
X03648Y02887*
X03656Y02893*
X03662Y02901*
X03666Y0291*
X03667Y0292*
X03666Y02929*
X03662Y02938*
X03656Y02946*
X03648Y02952*
X03639Y02956*
X0363Y02957*
G37*
G36*
X0353D02*
X0352Y02956D01*
X03511Y02952*
X03503Y02946*
X03497Y02938*
X03493Y02929*
X03492Y0292*
X03493Y0291*
X03497Y02901*
X03503Y02893*
X03511Y02887*
X0352Y02883*
X0353Y02882*
X03539Y02883*
X03548Y02887*
X03556Y02893*
X03562Y02901*
X03566Y0291*
X03567Y0292*
X03566Y02929*
X03562Y02938*
X03556Y02946*
X03548Y02952*
X03539Y02956*
X0353Y02957*
G37*
G36*
X0203Y03057D02*
X0202Y03056D01*
X02011Y03052*
X02003Y03046*
X01997Y03038*
X01993Y03029*
X01992Y0302*
X01993Y0301*
X01997Y03001*
X02003Y02993*
X02011Y02987*
X0202Y02983*
X0203Y02982*
X02039Y02983*
X02048Y02987*
X02056Y02993*
X02062Y03001*
X02066Y0301*
X02067Y0302*
X02066Y03029*
X02062Y03038*
X02056Y03046*
X02048Y03052*
X02039Y03056*
X0203Y03057*
G37*
G36*
X0288Y03157D02*
X0287Y03156D01*
X02861Y03152*
X02853Y03146*
X02847Y03138*
X02843Y03129*
X02842Y0312*
X02843Y0311*
X02847Y03101*
X02853Y03093*
X02861Y03087*
X0287Y03083*
X0288Y03082*
X02889Y03083*
X02898Y03087*
X02906Y03093*
X02912Y03101*
X02916Y0311*
X02917Y0312*
X02916Y03129*
X02912Y03138*
X02906Y03146*
X02898Y03152*
X02889Y03156*
X0288Y03157*
G37*
G36*
X0278D02*
X0277Y03156D01*
X02761Y03152*
X02753Y03146*
X02747Y03138*
X02743Y03129*
X02742Y0312*
X02743Y0311*
X02747Y03101*
X02753Y03093*
X02761Y03087*
X0277Y03083*
X0278Y03082*
X02789Y03083*
X02798Y03087*
X02806Y03093*
X02812Y03101*
X02816Y0311*
X02817Y0312*
X02816Y03129*
X02812Y03138*
X02806Y03146*
X02798Y03152*
X02789Y03156*
X0278Y03157*
G37*
G36*
X0353D02*
X0352Y03156D01*
X03511Y03152*
X03503Y03146*
X03497Y03138*
X03493Y03129*
X03492Y0312*
X03493Y0311*
X03497Y03101*
X03503Y03093*
X03511Y03087*
X0352Y03083*
X0353Y03082*
X03539Y03083*
X03548Y03087*
X03556Y03093*
X03562Y03101*
X03566Y0311*
X03567Y0312*
X03566Y03129*
X03562Y03138*
X03556Y03146*
X03548Y03152*
X03539Y03156*
X0353Y03157*
G37*
G36*
X0428D02*
X0427Y03156D01*
X04261Y03152*
X04253Y03146*
X04247Y03138*
X04243Y03129*
X04242Y0312*
X04243Y0311*
X04247Y03101*
X04253Y03093*
X04261Y03087*
X0427Y03083*
X0428Y03082*
X04289Y03083*
X04298Y03087*
X04306Y03093*
X04312Y03101*
X04316Y0311*
X04317Y0312*
X04316Y03129*
X04312Y03138*
X04306Y03146*
X04298Y03152*
X04289Y03156*
X0428Y03157*
G37*
G36*
X0363D02*
X0362Y03156D01*
X03611Y03152*
X03603Y03146*
X03597Y03138*
X03593Y03129*
X03592Y0312*
X03593Y0311*
X03597Y03101*
X03603Y03093*
X03611Y03087*
X0362Y03083*
X0363Y03082*
X03639Y03083*
X03648Y03087*
X03656Y03093*
X03662Y03101*
X03666Y0311*
X03667Y0312*
X03666Y03129*
X03662Y03138*
X03656Y03146*
X03648Y03152*
X03639Y03156*
X0363Y03157*
G37*
G36*
X0213D02*
X0212Y03156D01*
X02111Y03152*
X02103Y03146*
X02097Y03138*
X02093Y03129*
X02092Y0312*
X02093Y0311*
X02097Y03101*
X02103Y03093*
X02111Y03087*
X0212Y03083*
X0213Y03082*
X02139Y03083*
X02148Y03087*
X02156Y03093*
X02162Y03101*
X02166Y0311*
X02167Y0312*
X02166Y03129*
X02162Y03138*
X02156Y03146*
X02148Y03152*
X02139Y03156*
X0213Y03157*
G37*
G36*
X0353Y03057D02*
X0352Y03056D01*
X03511Y03052*
X03503Y03046*
X03497Y03038*
X03493Y03029*
X03492Y0302*
X03493Y0301*
X03497Y03001*
X03503Y02993*
X03511Y02987*
X0352Y02983*
X0353Y02982*
X03539Y02983*
X03548Y02987*
X03556Y02993*
X03562Y03001*
X03566Y0301*
X03567Y0302*
X03566Y03029*
X03562Y03038*
X03556Y03046*
X03548Y03052*
X03539Y03056*
X0353Y03057*
G37*
G36*
X0278D02*
X0277Y03056D01*
X02761Y03052*
X02753Y03046*
X02747Y03038*
X02743Y03029*
X02742Y0302*
X02743Y0301*
X02747Y03001*
X02753Y02993*
X02761Y02987*
X0277Y02983*
X0278Y02982*
X02789Y02983*
X02798Y02987*
X02806Y02993*
X02812Y03001*
X02816Y0301*
X02817Y0302*
X02816Y03029*
X02812Y03038*
X02806Y03046*
X02798Y03052*
X02789Y03056*
X0278Y03057*
G37*
G36*
X0428D02*
X0427Y03056D01*
X04261Y03052*
X04253Y03046*
X04247Y03038*
X04243Y03029*
X04242Y0302*
X04243Y0301*
X04247Y03001*
X04253Y02993*
X04261Y02987*
X0427Y02983*
X0428Y02982*
X04289Y02983*
X04298Y02987*
X04306Y02993*
X04312Y03001*
X04316Y0301*
X04317Y0302*
X04316Y03029*
X04312Y03038*
X04306Y03046*
X04298Y03052*
X04289Y03056*
X0428Y03057*
G37*
G36*
X0203Y03157D02*
X0202Y03156D01*
X02011Y03152*
X02003Y03146*
X01997Y03138*
X01993Y03129*
X01992Y0312*
X01993Y0311*
X01997Y03101*
X02003Y03093*
X02011Y03087*
X0202Y03083*
X0203Y03082*
X02039Y03083*
X02048Y03087*
X02056Y03093*
X02062Y03101*
X02066Y0311*
X02067Y0312*
X02066Y03129*
X02062Y03138*
X02056Y03146*
X02048Y03152*
X02039Y03156*
X0203Y03157*
G37*
G36*
X0503Y03057D02*
X0502Y03056D01*
X05011Y03052*
X05003Y03046*
X04997Y03038*
X04993Y03029*
X04992Y0302*
X04993Y0301*
X04997Y03001*
X05003Y02993*
X05011Y02987*
X0502Y02983*
X0503Y02982*
X05039Y02983*
X05048Y02987*
X05056Y02993*
X05062Y03001*
X05066Y0301*
X05067Y0302*
X05066Y03029*
X05062Y03038*
X05056Y03046*
X05048Y03052*
X05039Y03056*
X0503Y03057*
G37*
G36*
X09625Y02658D02*
X09616Y02657D01*
X09608Y02653*
X09601Y02648*
X09596Y02641*
X09592Y02633*
X09591Y02625*
X09592Y02616*
X09596Y02608*
X09601Y02601*
X09608Y02596*
X09616Y02592*
X09625Y02591*
X09633Y02592*
X09641Y02596*
X09648Y02601*
X09653Y02608*
X09657Y02616*
X09658Y02625*
X09657Y02633*
X09653Y02641*
X09648Y02648*
X09641Y02653*
X09633Y02657*
X09625Y02658*
G37*
G36*
X09475D02*
X09466Y02657D01*
X09458Y02653*
X09451Y02648*
X09446Y02641*
X09442Y02633*
X09441Y02625*
X09442Y02616*
X09446Y02608*
X09451Y02601*
X09458Y02596*
X09466Y02592*
X09475Y02591*
X09483Y02592*
X09491Y02596*
X09498Y02601*
X09503Y02608*
X09507Y02616*
X09508Y02625*
X09507Y02633*
X09503Y02641*
X09498Y02648*
X09491Y02653*
X09483Y02657*
X09475Y02658*
G37*
G36*
X09775D02*
X09766Y02657D01*
X09758Y02653*
X09751Y02648*
X09746Y02641*
X09742Y02633*
X09741Y02625*
X09742Y02616*
X09746Y02608*
X09751Y02601*
X09758Y02596*
X09766Y02592*
X09775Y02591*
X09783Y02592*
X09791Y02596*
X09798Y02601*
X09803Y02608*
X09807Y02616*
X09808Y02625*
X09807Y02633*
X09803Y02641*
X09798Y02648*
X09791Y02653*
X09783Y02657*
X09775Y02658*
G37*
G36*
X0203Y02857D02*
X0202Y02856D01*
X02011Y02852*
X02003Y02846*
X01997Y02838*
X01993Y02829*
X01992Y0282*
X01993Y0281*
X01997Y02801*
X02003Y02793*
X02011Y02787*
X0202Y02783*
X0203Y02782*
X02039Y02783*
X02048Y02787*
X02056Y02793*
X02062Y02801*
X02066Y0281*
X02067Y0282*
X02066Y02829*
X02062Y02838*
X02056Y02846*
X02048Y02852*
X02039Y02856*
X0203Y02857*
G37*
G36*
X09925Y02658D02*
X09916Y02657D01*
X09908Y02653*
X09901Y02648*
X09896Y02641*
X09892Y02633*
X09891Y02625*
X09892Y02616*
X09896Y02608*
X09901Y02601*
X09908Y02596*
X09916Y02592*
X09925Y02591*
X09933Y02592*
X09941Y02596*
X09948Y02601*
X09953Y02608*
X09957Y02616*
X09958Y02625*
X09957Y02633*
X09953Y02641*
X09948Y02648*
X09941Y02653*
X09933Y02657*
X09925Y02658*
G37*
G36*
X094D02*
X09391Y02657D01*
X09383Y02653*
X09376Y02648*
X09371Y02641*
X09367Y02633*
X09366Y02625*
X09367Y02616*
X09371Y02608*
X09376Y02601*
X09383Y02596*
X09391Y02592*
X094Y02591*
X09408Y02592*
X09416Y02596*
X09423Y02601*
X09428Y02608*
X09432Y02616*
X09433Y02625*
X09432Y02633*
X09428Y02641*
X09423Y02648*
X09416Y02653*
X09408Y02657*
X094Y02658*
G37*
G36*
X0985Y02583D02*
X09841Y02582D01*
X09833Y02578*
X09826Y02573*
X09821Y02566*
X09817Y02558*
X09816Y0255*
X09817Y02541*
X09821Y02533*
X09826Y02526*
X09833Y02521*
X09841Y02517*
X0985Y02516*
X09858Y02517*
X09866Y02521*
X09873Y02526*
X09878Y02533*
X09882Y02541*
X09883Y0255*
X09882Y02558*
X09878Y02566*
X09873Y02573*
X09866Y02578*
X09858Y02582*
X0985Y02583*
G37*
G36*
X09775D02*
X09766Y02582D01*
X09758Y02578*
X09751Y02573*
X09746Y02566*
X09742Y02558*
X09741Y0255*
X09742Y02541*
X09746Y02533*
X09751Y02526*
X09758Y02521*
X09766Y02517*
X09775Y02516*
X09783Y02517*
X09791Y02521*
X09798Y02526*
X09803Y02533*
X09807Y02541*
X09808Y0255*
X09807Y02558*
X09803Y02566*
X09798Y02573*
X09791Y02578*
X09783Y02582*
X09775Y02583*
G37*
G36*
X09925D02*
X09916Y02582D01*
X09908Y02578*
X09901Y02573*
X09896Y02566*
X09892Y02558*
X09891Y0255*
X09892Y02541*
X09896Y02533*
X09901Y02526*
X09908Y02521*
X09916Y02517*
X09925Y02516*
X09933Y02517*
X09941Y02521*
X09948Y02526*
X09953Y02533*
X09957Y02541*
X09958Y0255*
X09957Y02558*
X09953Y02566*
X09948Y02573*
X09941Y02578*
X09933Y02582*
X09925Y02583*
G37*
G36*
X09325Y02658D02*
X09316Y02657D01*
X09308Y02653*
X09301Y02648*
X09296Y02641*
X09292Y02633*
X09291Y02625*
X09292Y02616*
X09296Y02608*
X09301Y02601*
X09308Y02596*
X09316Y02592*
X09325Y02591*
X09333Y02592*
X09341Y02596*
X09348Y02601*
X09353Y02608*
X09357Y02616*
X09358Y02625*
X09357Y02633*
X09353Y02641*
X09348Y02648*
X09341Y02653*
X09333Y02657*
X09325Y02658*
G37*
G36*
X09065Y02627D02*
X09056Y02625D01*
X09049Y0262*
X09044Y02613*
X09042Y02605*
X09044Y02596*
X09049Y02589*
X09056Y02584*
X09065Y02582*
X09073Y02584*
X0908Y02589*
X09085Y02596*
X09087Y02605*
X09085Y02613*
X0908Y0262*
X09073Y02625*
X09065Y02627*
G37*
G36*
X0278Y02857D02*
X0277Y02856D01*
X02761Y02852*
X02753Y02846*
X02747Y02838*
X02743Y02829*
X02742Y0282*
X02743Y0281*
X02747Y02801*
X02753Y02793*
X02761Y02787*
X0277Y02783*
X0278Y02782*
X02789Y02783*
X02798Y02787*
X02806Y02793*
X02812Y02801*
X02816Y0281*
X02817Y0282*
X02816Y02829*
X02812Y02838*
X02806Y02846*
X02798Y02852*
X02789Y02856*
X0278Y02857*
G37*
G36*
X04417Y02857D02*
X04342D01*
Y02782*
X04417*
Y02857*
G37*
G36*
X03667D02*
X03592D01*
Y02782*
X03667*
Y02857*
G37*
G36*
X05167D02*
X05092D01*
Y02782*
X05167*
Y02857*
G37*
G36*
X0203Y02957D02*
X0202Y02956D01*
X02011Y02952*
X02003Y02946*
X01997Y02938*
X01993Y02929*
X01992Y0292*
X01993Y0291*
X01997Y02901*
X02003Y02893*
X02011Y02887*
X0202Y02883*
X0203Y02882*
X02039Y02883*
X02048Y02887*
X02056Y02893*
X02062Y02901*
X02066Y0291*
X02067Y0292*
X02066Y02929*
X02062Y02938*
X02056Y02946*
X02048Y02952*
X02039Y02956*
X0203Y02957*
G37*
G36*
X05917Y02857D02*
X05842D01*
Y02782*
X05917*
Y02857*
G37*
G36*
X02917D02*
X02842D01*
Y02782*
X02917*
Y02857*
G37*
G36*
X0428Y02857D02*
X0427Y02856D01*
X04261Y02852*
X04253Y02846*
X04247Y02838*
X04243Y02829*
X04242Y0282*
X04243Y0281*
X04247Y02801*
X04253Y02793*
X04261Y02787*
X0427Y02783*
X0428Y02782*
X04289Y02783*
X04298Y02787*
X04306Y02793*
X04312Y02801*
X04316Y0281*
X04317Y0282*
X04316Y02829*
X04312Y02838*
X04306Y02846*
X04298Y02852*
X04289Y02856*
X0428Y02857*
G37*
G36*
X0353D02*
X0352Y02856D01*
X03511Y02852*
X03503Y02846*
X03497Y02838*
X03493Y02829*
X03492Y0282*
X03493Y0281*
X03497Y02801*
X03503Y02793*
X03511Y02787*
X0352Y02783*
X0353Y02782*
X03539Y02783*
X03548Y02787*
X03556Y02793*
X03562Y02801*
X03566Y0281*
X03567Y0282*
X03566Y02829*
X03562Y02838*
X03556Y02846*
X03548Y02852*
X03539Y02856*
X0353Y02857*
G37*
G36*
X0503D02*
X0502Y02856D01*
X05011Y02852*
X05003Y02846*
X04997Y02838*
X04993Y02829*
X04992Y0282*
X04993Y0281*
X04997Y02801*
X05003Y02793*
X05011Y02787*
X0502Y02783*
X0503Y02782*
X05039Y02783*
X05048Y02787*
X05056Y02793*
X05062Y02801*
X05066Y0281*
X05067Y0282*
X05066Y02829*
X05062Y02838*
X05056Y02846*
X05048Y02852*
X05039Y02856*
X0503Y02857*
G37*
G36*
X02167Y02857D02*
X02092D01*
Y02782*
X02167*
Y02857*
G37*
G36*
X0578Y02857D02*
X0577Y02856D01*
X05761Y02852*
X05753Y02846*
X05747Y02838*
X05743Y02829*
X05742Y0282*
X05743Y0281*
X05747Y02801*
X05753Y02793*
X05761Y02787*
X0577Y02783*
X0578Y02782*
X05789Y02783*
X05798Y02787*
X05806Y02793*
X05812Y02801*
X05816Y0281*
X05817Y0282*
X05816Y02829*
X05812Y02838*
X05806Y02846*
X05798Y02852*
X05789Y02856*
X0578Y02857*
G37*
G36*
X015Y06343D02*
X01492Y06341D01*
X01487Y06337*
X01483Y06332*
X01481Y06325*
X01483Y06317*
X01487Y06312*
X01492Y06308*
X015Y06306*
X01507Y06308*
X01512Y06312*
X01516Y06317*
X01518Y06325*
X01516Y06332*
X01512Y06337*
X01507Y06341*
X015Y06343*
G37*
G36*
X0245Y06274D02*
X02442Y06272D01*
X02436Y06268*
X02434*
X02427Y06272*
X0242Y06274*
X02412Y06272*
X02406Y06268*
X02402Y06262*
X024Y06255*
X02402Y06247*
X02406Y06241*
X02408Y0624*
Y06235*
X02406Y06233*
X02402Y06227*
X024Y0622*
X02402Y06212*
X02406Y06206*
X02412Y06202*
X0242Y062*
X02427Y06202*
X02434Y06206*
X02436*
X02442Y06202*
X0245Y062*
X02457Y06202*
X02464Y06206*
X02468Y06212*
X02469Y0622*
X02468Y06227*
X02464Y06233*
X02462Y06235*
Y0624*
X02464Y06241*
X02468Y06247*
X02469Y06255*
X02468Y06262*
X02464Y06268*
X02457Y06272*
X0245Y06274*
G37*
G36*
X01575Y06358D02*
X01567Y06356D01*
X01562Y06352*
X01558Y06347*
X01556Y0634*
X01558Y06332*
X01562Y06327*
X01567Y06323*
X01575Y06321*
X01582Y06323*
X01587Y06327*
X01591Y06332*
X01593Y0634*
X01591Y06347*
X01587Y06352*
X01582Y06356*
X01575Y06358*
G37*
G36*
X0898Y06393D02*
X08972Y06391D01*
X08967Y06387*
X08966Y06387*
X08653*
X08652Y06387*
X08647Y06391*
X0864Y06393*
X08632Y06391*
X08627Y06387*
X08623Y06382*
X08621Y06375*
X08623Y06367*
X08627Y06362*
X08632Y06358*
X0864Y06356*
X08647Y06358*
X08652Y06362*
X08653Y06362*
X08966*
X08967Y06362*
X08972Y06358*
X0898Y06356*
X08987Y06358*
X08992Y06362*
X08996Y06367*
X08998Y06375*
X08996Y06382*
X08992Y06387*
X08987Y06391*
X0898Y06393*
G37*
G36*
X09212Y06412D02*
X09137D01*
Y06337*
X09212*
Y06412*
G37*
G36*
X0645Y0628D02*
X06441Y06279D01*
X06434Y06276*
X06427Y0627*
X06422Y06264*
X06419Y06256*
X06418Y06248*
X06419Y0624*
X06422Y06232*
X06427Y06225*
X06434Y0622*
X06441Y06217*
X0645Y06216*
X06458Y06217*
X06465Y0622*
X06472Y06225*
X06477Y06232*
X0648Y0624*
X06481Y06248*
X0648Y06256*
X06477Y06264*
X06472Y0627*
X06465Y06276*
X06458Y06279*
X0645Y0628*
G37*
G36*
X09762Y06287D02*
X09687D01*
Y06212*
X09762*
Y06287*
G37*
G36*
X082Y0628D02*
X08192Y06279D01*
X08184Y06276*
X08177Y0627*
X08172Y06264*
X08169Y06256*
X08168Y06248*
X08169Y0624*
X08172Y06232*
X08177Y06225*
X08184Y0622*
X08192Y06217*
X082Y06216*
X08208Y06217*
X08216Y0622*
X08223Y06225*
X08228Y06232*
X08231Y0624*
X08232Y06248*
X08231Y06256*
X08228Y06264*
X08223Y0627*
X08216Y06276*
X08208Y06279*
X082Y0628*
G37*
G36*
X0849Y06358D02*
X08482Y06356D01*
X08477Y06352*
X08473Y06347*
X08471Y0634*
X08473Y06332*
X08477Y06327*
X08482Y06323*
X08485Y06322*
X08546Y06261*
X0855Y06258*
X08555Y06257*
X08976*
X08977Y06257*
X08982Y06253*
X0899Y06251*
X08997Y06253*
X09002Y06257*
X09006Y06262*
X09008Y0627*
X09006Y06277*
X09002Y06282*
X08997Y06286*
X0899Y06288*
X08982Y06286*
X08977Y06282*
X08976Y06282*
X0856*
X08507Y06334*
X08508Y0634*
X08506Y06347*
X08502Y06352*
X08497Y06356*
X0849Y06358*
G37*
G36*
X09212Y06312D02*
X09137D01*
Y06237*
X09212*
Y06312*
G37*
G36*
X0255Y0653D02*
X02535Y06528D01*
X02522Y06523*
X0251Y06514*
X02501Y06502*
X02496Y06489*
X02494Y06475*
X02496Y0646*
X02501Y06447*
X0251Y06435*
X02522Y06426*
X02535Y06421*
X0255Y06419*
X02564Y06421*
X02577Y06426*
X02589Y06435*
X02598Y06447*
X02603Y0646*
X02605Y06475*
X02603Y06489*
X02598Y06502*
X02589Y06514*
X02577Y06523*
X02564Y06528*
X0255Y0653*
G37*
G36*
X09025Y06662D02*
X09015Y06661D01*
X09006Y06657*
X08998Y06651*
X08992Y06643*
X08988Y06634*
X08987Y06625*
X08988Y06615*
X08992Y06606*
X08998Y06598*
X09006Y06592*
X09015Y06588*
X09025Y06587*
X09034Y06588*
X09043Y06592*
X09051Y06598*
X09057Y06606*
X09061Y06615*
X09062Y06625*
X09061Y06634*
X09057Y06643*
X09051Y06651*
X09043Y06657*
X09034Y06661*
X09025Y06662*
G37*
G36*
X08925D02*
X08915Y06661D01*
X08906Y06657*
X08898Y06651*
X08892Y06643*
X08888Y06634*
X08887Y06625*
X08888Y06615*
X08892Y06606*
X08898Y06598*
X08906Y06592*
X08915Y06588*
X08925Y06587*
X08934Y06588*
X08943Y06592*
X08951Y06598*
X08957Y06606*
X08961Y06615*
X08962Y06625*
X08961Y06634*
X08957Y06643*
X08951Y06651*
X08943Y06657*
X08934Y06661*
X08925Y06662*
G37*
G36*
X09125D02*
X09115Y06661D01*
X09106Y06657*
X09098Y06651*
X09092Y06643*
X09088Y06634*
X09087Y06625*
X09088Y06615*
X09092Y06606*
X09098Y06598*
X09106Y06592*
X09115Y06588*
X09125Y06587*
X09134Y06588*
X09143Y06592*
X09151Y06598*
X09157Y06606*
X09161Y06615*
X09162Y06625*
X09161Y06634*
X09157Y06643*
X09151Y06651*
X09143Y06657*
X09134Y06661*
X09125Y06662*
G37*
G36*
X04025Y06703D02*
X04017Y06701D01*
X04012Y06697*
X04008Y06692*
X04006Y06685*
X04008Y06677*
X04012Y06672*
X04017Y06668*
X04022Y06667*
X04021Y06662*
X03968*
X03966Y06666*
X03966Y06667*
X03968Y06675*
X03966Y06682*
X03962Y06687*
X03957Y06691*
X0395Y06693*
X03942Y06691*
X03937Y06687*
X03933Y06682*
X03931Y06675*
X03933Y06667*
X03933Y06666*
X03931Y06662*
X03008*
X03007Y06662*
X03002Y06666*
X02995Y06668*
X02987Y06666*
X02982Y06662*
X02978Y06657*
X02976Y0665*
X02978Y06642*
X02982Y06637*
X02987Y06633*
X02995Y06631*
X03002Y06633*
X03007Y06637*
X03008Y06637*
X0353*
X03532Y06632*
X03528Y06627*
X03526Y0662*
X03528Y06612*
X03529Y0661*
X03527Y06606*
X03413*
X03413Y06606*
X03409Y06607*
X03283*
X03282Y06607*
X03277Y06611*
X0327Y06613*
X03262Y06611*
X03257Y06607*
X03253Y06602*
X03251Y06595*
X03253Y06587*
X03257Y06582*
X03262Y06578*
X0327Y06576*
X03277Y06578*
X03282Y06582*
X03283Y06582*
X03405*
X03405Y06582*
X0341Y06581*
X0463*
X04633Y06577*
X04633Y06577*
X04631Y0657*
X04632Y06564*
X04629Y0656*
X03828*
X03827Y0656*
X03822Y06564*
X03815Y06566*
X03807Y06564*
X03802Y0656*
X03798Y06555*
X03796Y06548*
X03798Y0654*
X03802Y06535*
X03807Y06531*
X03815Y06529*
X03822Y06531*
X03827Y06535*
X03828Y06535*
X04026*
X04029Y06531*
X04028Y06529*
X04026Y06522*
X04028Y06515*
X04032Y06509*
X04037Y06505*
X04045Y06504*
X04052Y06505*
X04057Y06509*
X04061Y06515*
X04063Y06522*
X04061Y06529*
X04057Y06535*
X04058Y06535*
X04236*
X04239Y06531*
X04238Y06529*
X04236Y06522*
X04238Y06515*
X04242Y06509*
X04247Y06505*
X04255Y06504*
X04262Y06505*
X04267Y06509*
X04271Y06515*
X04273Y06522*
X04271Y06529*
X04267Y06535*
X04268Y06535*
X04729*
X04733Y06531*
X04731Y06525*
X04733Y06517*
X04737Y06512*
X04742Y06508*
X0475Y06506*
X04757Y06508*
X04762Y06512*
X04766Y06517*
X04768Y06525*
X04766Y06532*
X04766Y06533*
X04767Y06536*
X04771Y06539*
X04785Y06552*
X06815*
X07569Y05798*
X07569Y05797*
X0757Y0579*
X07574Y05784*
X0758Y0578*
X07587Y05779*
X07594Y0578*
X076Y05784*
X07604Y0579*
X07606Y05797*
X07607Y05799*
X07614Y058*
X0762Y05804*
X07624Y0581*
X07626Y05817*
X07627Y05819*
X07634Y0582*
X0764Y05824*
X07644Y0583*
X07645Y05837*
X07647Y05838*
X07654Y0584*
X0766Y05844*
X07664Y0585*
X07665Y05857*
X07664Y05864*
X0766Y0587*
X07654Y05874*
X07647Y05875*
X07646Y05875*
X06863Y06658*
X06859Y06661*
X06854Y06662*
X04028*
X04027Y06667*
X04032Y06668*
X04037Y06672*
X04041Y06677*
X04043Y06685*
X04041Y06692*
X04037Y06697*
X04032Y06701*
X04025Y06703*
G37*
G36*
X0175Y06672D02*
X01741Y0667D01*
X01734Y06665*
X01729Y06658*
X01727Y0665*
X01729Y06641*
X01734Y06634*
X01741Y06629*
X0175Y06627*
X01758Y06629*
X01765Y06634*
X0177Y06641*
X01772Y0665*
X0177Y06658*
X01765Y06665*
X01758Y0667*
X0175Y06672*
G37*
G36*
X0196Y06429D02*
X01952Y06427D01*
X01946Y06423*
X01945Y06421*
X0194*
X01938Y06423*
X01932Y06427*
X01925Y06429*
X01917Y06427*
X01911Y06423*
X0191Y06421*
X01905*
X01903Y06423*
X01897Y06427*
X0189Y06429*
X01882Y06427*
X01876Y06423*
X01872Y06417*
X0187Y0641*
X01872Y06402*
X01876Y06396*
X01878Y06395*
Y0639*
X01876Y06388*
X01872Y06382*
X0187Y06375*
X01872Y06367*
X01876Y06361*
X01878Y0636*
Y06355*
X01876Y06353*
X01872Y06347*
X0187Y0634*
X01872Y06332*
X01876Y06326*
X01882Y06322*
X0189Y0632*
X01897Y06322*
X01903Y06326*
X01905Y06328*
X0191*
X01911Y06326*
X01917Y06322*
X01925Y0632*
X01932Y06322*
X01938Y06326*
X0194Y06328*
X01945*
X01946Y06326*
X01952Y06322*
X0196Y0632*
X01967Y06322*
X01973Y06326*
X01977Y06332*
X01979Y0634*
X01977Y06347*
X01973Y06353*
X01971Y06355*
Y0636*
X01973Y06361*
X01977Y06367*
X01979Y06375*
X01977Y06382*
X01973Y06388*
X01971Y0639*
Y06395*
X01973Y06396*
X01977Y06402*
X01979Y0641*
X01977Y06417*
X01973Y06423*
X01967Y06427*
X0196Y06429*
G37*
G36*
X0275Y0653D02*
X02735Y06528D01*
X02722Y06523*
X0271Y06514*
X02701Y06502*
X02696Y06489*
X02694Y06475*
X02696Y0646*
X02701Y06447*
X0271Y06435*
X02722Y06426*
X02735Y06421*
X0275Y06419*
X02764Y06421*
X02777Y06426*
X02789Y06435*
X02798Y06447*
X02803Y0646*
X02805Y06475*
X02803Y06489*
X02798Y06502*
X02789Y06514*
X02777Y06523*
X02764Y06528*
X0275Y0653*
G37*
G36*
X0223Y06454D02*
X02222Y06452D01*
X02216Y06448*
X02215Y06446*
X0221*
X02209Y06448*
X02202Y06452*
X02195Y06454*
X02187Y06452*
X02181Y06448*
X0218Y06446*
X02175*
X02174Y06448*
X02167Y06452*
X0216Y06454*
X02152Y06452*
X02146Y06448*
X02144*
X02137Y06452*
X0213Y06454*
X02122Y06452*
X02116Y06448*
X02112Y06442*
X0211Y06435*
X02112Y06427*
X02116Y06421*
X02122Y06417*
X0213Y06415*
X02137Y06417*
X02144Y06421*
X02146*
X02152Y06417*
X0216Y06415*
X02167Y06417*
X02174Y06421*
X02175Y06423*
X0218*
X02181Y06421*
X02187Y06417*
X02195Y06415*
X02202Y06417*
X02209Y06421*
X0221Y06423*
X02215*
X02216Y06421*
X02222Y06417*
X0223Y06415*
X02237Y06417*
X02244Y06421*
X02248Y06427*
X02249Y06435*
X02248Y06442*
X02244Y06448*
X02237Y06452*
X0223Y06454*
G37*
G36*
X01825Y06593D02*
X01817Y06591D01*
X01812Y06587*
X01808Y06582*
X01806Y06575*
X01808Y06567*
X01812Y06562*
X01817Y06558*
X01825Y06556*
X01832Y06558*
X01837Y06562*
X01841Y06567*
X01843Y06575*
X01841Y06582*
X01837Y06587*
X01832Y06591*
X01825Y06593*
G37*
G36*
X015Y06605D02*
X01485Y06603D01*
X01472Y06598*
X0146Y06589*
X01451Y06577*
X01446Y06564*
X01444Y0655*
X01446Y06535*
X01451Y06522*
X0146Y0651*
X01472Y06501*
X01485Y06496*
X015Y06494*
X01514Y06496*
X01527Y06501*
X01539Y0651*
X01548Y06522*
X01553Y06535*
X01555Y0655*
X01553Y06564*
X01548Y06577*
X01539Y06589*
X01527Y06598*
X01514Y06603*
X015Y06605*
G37*
G36*
X02535Y06184D02*
X02527Y06182D01*
X02521Y06178*
X0252Y06176*
X02515*
X02514Y06178*
X02507Y06182*
X025Y06184*
X02492Y06182*
X02486Y06178*
X02482Y06172*
X0248Y06165*
X02482Y06157*
X02486Y06151*
X02488Y0615*
Y06145*
X02486Y06143*
X02482Y06137*
X0248Y0613*
X02482Y06122*
X02486Y06116*
X02492Y06112*
X025Y0611*
X02507Y06112*
X02514Y06116*
X02515Y06118*
X0252*
X02521Y06116*
X02527Y06112*
X02535Y0611*
X02542Y06112*
X02549Y06116*
X02553Y06122*
X02554Y0613*
X02553Y06137*
X02549Y06143*
X02547Y06145*
Y0615*
X02549Y06151*
X02553Y06157*
X02554Y06165*
X02553Y06172*
X02549Y06178*
X02542Y06182*
X02535Y06184*
G37*
G36*
X0797Y05952D02*
X07961Y0595D01*
X07954Y05945*
X07949Y05938*
X07947Y0593*
X07949Y05921*
X07954Y05914*
X07961Y05909*
X0797Y05907*
X07978Y05909*
X07985Y05914*
X0799Y05921*
X07992Y0593*
X0799Y05938*
X07985Y05945*
X07978Y0595*
X0797Y05952*
G37*
G36*
X06636Y05853D02*
X06629Y05851D01*
X06623Y05848*
X06619Y05842*
X06618Y05835*
X06619Y05828*
X06623Y05822*
X06629Y05818*
X06636Y05816*
X06643Y05818*
X06649Y05822*
X06653Y05828*
X06654Y05835*
X06653Y05842*
X06649Y05848*
X06643Y05851*
X06636Y05853*
G37*
G36*
X08415Y05952D02*
X08406Y0595D01*
X08399Y05945*
X08394Y05938*
X08392Y0593*
X08394Y05921*
X08399Y05914*
X08406Y05909*
X08415Y05907*
X08423Y05909*
X0843Y05914*
X08435Y05921*
X08437Y0593*
X08435Y05938*
X0843Y05945*
X08423Y0595*
X08415Y05952*
G37*
G36*
X06636Y05947D02*
X06629Y05946D01*
X06623Y05942*
X06619Y05936*
X06618Y05929*
X06619Y05922*
X06623Y05916*
X06629Y05912*
X06636Y05911*
X06643Y05912*
X06649Y05916*
X06653Y05922*
X06654Y05929*
X06653Y05936*
X06649Y05942*
X06643Y05946*
X06636Y05947*
G37*
G36*
X06263D02*
X06256Y05946D01*
X0625Y05942*
X06246Y05936*
X06245Y05929*
X06246Y05922*
X0625Y05916*
X06256Y05912*
X06263Y05911*
X0627Y05912*
X06276Y05916*
X0628Y05922*
X06281Y05929*
X0628Y05936*
X06276Y05942*
X0627Y05946*
X06263Y05947*
G37*
G36*
Y05758D02*
X06256Y05757D01*
X0625Y05753*
X06246Y05747*
X06245Y0574*
X06246Y05733*
X0625Y05727*
X06256Y05723*
X06263Y05722*
X0627Y05723*
X06276Y05727*
X0628Y05733*
X06281Y0574*
X0628Y05747*
X06276Y05753*
X0627Y05757*
X06263Y05758*
G37*
G36*
X08414Y05762D02*
X08405Y05761D01*
X08398Y05756*
X08393Y05749*
X08392Y0574*
X08393Y05731*
X08398Y05724*
X08405Y05719*
X08414Y05718*
X08423Y05719*
X0843Y05724*
X08435Y05731*
X08436Y0574*
X08435Y05749*
X0843Y05756*
X08423Y05761*
X08414Y05762*
G37*
G36*
X06636Y05758D02*
X06629Y05757D01*
X06623Y05753*
X06619Y05747*
X06618Y0574*
X06619Y05733*
X06623Y05727*
X06629Y05723*
X06636Y05722*
X06643Y05723*
X06649Y05727*
X06653Y05733*
X06654Y0574*
X06653Y05747*
X06649Y05753*
X06643Y05757*
X06636Y05758*
G37*
G36*
X06263Y05853D02*
X06256Y05851D01*
X0625Y05848*
X06246Y05842*
X06245Y05835*
X06246Y05828*
X0625Y05822*
X06256Y05818*
X06263Y05816*
X0627Y05818*
X06276Y05822*
X0628Y05828*
X06281Y05835*
X0628Y05842*
X06276Y05848*
X0627Y05851*
X06263Y05853*
G37*
G36*
X0797Y05857D02*
X07961Y05855D01*
X07954Y0585*
X07949Y05843*
X07947Y05835*
X07949Y05826*
X07954Y05819*
X07961Y05814*
X0797Y05812*
X07978Y05814*
X07985Y05819*
X0799Y05826*
X07992Y05835*
X0799Y05843*
X07985Y0585*
X07978Y05855*
X0797Y05857*
G37*
G36*
X09055Y05918D02*
X09047Y05916D01*
X09042Y05912*
X09041Y05912*
X08478*
X08477Y05912*
X08472Y05916*
X08465Y05918*
X08457Y05916*
X08452Y05912*
X08448Y05907*
X08446Y059*
X08448Y05892*
X08452Y05887*
X08457Y05883*
X08465Y05881*
X08472Y05883*
X08477Y05887*
X08478Y05887*
X08502*
X08504Y05882*
X08499Y05879*
X08495Y05873*
X08493Y05866*
X08495Y05859*
X08499Y05853*
X08505Y05849*
X08512Y05848*
X08519Y05849*
X08525Y05853*
X08525Y05854*
X09071*
X09073Y05854*
X09075Y05854*
X0909*
X09092Y05852*
X09097Y05848*
X09105Y05846*
X09112Y05848*
X09117Y05852*
X09121Y05857*
X09123Y05865*
X09121Y05872*
X09117Y05877*
X09112Y05881*
X09105Y05883*
X09097Y05881*
X09093Y05878*
X09075*
X09073Y05878*
X09071Y05878*
X09064*
X09062Y05883*
X09067Y05887*
X09071Y05892*
X09073Y059*
X09071Y05907*
X09067Y05912*
X09062Y05916*
X09055Y05918*
G37*
G36*
X0253Y06039D02*
X02522Y06037D01*
X02516Y06033*
X02514*
X02507Y06037*
X025Y06039*
X02492Y06037*
X02486Y06033*
X02482Y06027*
X0248Y0602*
X02482Y06012*
X02486Y06006*
X02488Y06005*
Y06*
X02486Y05998*
X02482Y05992*
X0248Y05985*
X02482Y05977*
X02486Y05971*
X02492Y05967*
X025Y05965*
X02507Y05967*
X02514Y05971*
X02516*
X02522Y05967*
X0253Y05965*
X02537Y05967*
X02544Y05971*
X02548Y05977*
X02549Y05985*
X02548Y05992*
X02544Y05998*
X02542Y06*
Y06005*
X02544Y06006*
X02548Y06012*
X02549Y0602*
X02548Y06027*
X02544Y06033*
X02537Y06037*
X0253Y06039*
G37*
G36*
X0165Y06048D02*
X01642Y06046D01*
X01637Y06042*
X01633Y06037*
X01631Y0603*
X01633Y06022*
X01637Y06017*
X01642Y06013*
X0165Y06011*
X01657Y06013*
X01662Y06017*
X01666Y06022*
X01668Y0603*
X01666Y06037*
X01662Y06042*
X01657Y06046*
X0165Y06048*
G37*
G36*
X04662Y06162D02*
X04587D01*
Y06087*
X04662*
Y06162*
G37*
G36*
X09212Y06212D02*
X09137D01*
Y06137*
X09212*
Y06212*
G37*
G36*
X01925Y06169D02*
X01917Y06167D01*
X01911Y06163*
X01907Y06157*
X01905Y0615*
X01907Y06142*
X01911Y06136*
X01917Y06132*
X01925Y0613*
X01932Y06132*
X01938Y06136*
X01942Y06142*
X01944Y0615*
X01942Y06157*
X01938Y06163*
X01932Y06167*
X01925Y06169*
G37*
G36*
X095Y06018D02*
X09492Y06016D01*
X09487Y06012*
X09483Y06007*
X09481Y06*
X09481Y05999*
X09269Y05787*
X09063*
X09062Y05787*
X09057Y05791*
X0905Y05793*
X09042Y05791*
X09037Y05787*
X09033Y05782*
X09031Y05775*
X09033Y05767*
X09037Y05762*
X09042Y05758*
X0905Y05756*
X09057Y05758*
X09062Y05762*
X09063Y05762*
X09275*
X09279Y05763*
X09283Y05766*
X09499Y05981*
X095Y05981*
X09507Y05983*
X09512Y05987*
X09516Y05992*
X09518Y06*
X09516Y06007*
X09512Y06012*
X09507Y06016*
X095Y06018*
G37*
G36*
X0245Y05949D02*
X02442Y05947D01*
X02436Y05943*
X02435Y05941*
X0243*
X02429Y05943*
X02422Y05947*
X02415Y05949*
X02407Y05947*
X02401Y05943*
X02397Y05937*
X02395Y0593*
X02397Y05922*
X02401Y05916*
X02403Y05915*
Y0591*
X02401Y05908*
X02397Y05902*
X02396Y05896*
X02395Y05895*
X02397Y05887*
X02401Y05881*
X02407Y05877*
X02415Y05875*
X02422Y05877*
X02429Y05881*
X0243Y05883*
X02435*
X02436Y05881*
X02442Y05877*
X0245Y05875*
X02457Y05877*
X02464Y05881*
X02468Y05887*
X02469Y05895*
X02469Y05896*
X02468Y05902*
X02464Y05908*
X02462Y0591*
Y05915*
X02464Y05916*
X02468Y05922*
X02469Y0593*
X02468Y05937*
X02464Y05943*
X02457Y05947*
X0245Y05949*
G37*
G36*
X0197Y05999D02*
X01962Y05997D01*
X01956Y05993*
X01955Y05991*
X0195*
X01949Y05993*
X01942Y05997*
X01935Y05999*
X01927Y05997*
X01921Y05993*
X0192Y05991*
X01915*
X01914Y05993*
X01907Y05997*
X019Y05999*
X01892Y05997*
X01886Y05993*
X01882Y05987*
X0188Y0598*
X01882Y05972*
X01886Y05966*
X01888Y05965*
Y0596*
X01886Y05958*
X01882Y05952*
X0188Y05945*
X01882Y05937*
X01886Y05931*
X01888Y0593*
Y05925*
X01886Y05923*
X01882Y05917*
X0188Y0591*
X01882Y05902*
X01886Y05896*
X01892Y05892*
X019Y0589*
X01907Y05892*
X01914Y05896*
X01915Y05898*
X0192*
X01921Y05896*
X01927Y05892*
X01935Y0589*
X01942Y05892*
X01949Y05896*
X0195Y05898*
X01955*
X01956Y05896*
X01962Y05892*
X0197Y0589*
X01977Y05892*
X01984Y05896*
X01986Y059*
X01988Y05902*
X01989Y0591*
X01988Y05917*
X01984Y05923*
X01982Y05925*
Y0593*
X01984Y05931*
X01988Y05937*
X01989Y05945*
X01988Y05952*
X01984Y05958*
X01982Y0596*
Y05965*
X01984Y05966*
X01988Y05972*
X01989Y0598*
X01988Y05987*
X01984Y05993*
X01977Y05997*
X0197Y05999*
G37*
G36*
X05625Y06043D02*
X05617Y06041D01*
X05612Y06037*
X05608Y06032*
X05606Y06025*
X05608Y06017*
X05612Y06012*
X05617Y06008*
X05625Y06006*
X05632Y06008*
X05637Y06011*
X05891*
X05892Y06011*
X05897Y06007*
X05905Y06005*
X05912Y06007*
X05917Y06011*
X05921Y06016*
X05923Y06024*
X05921Y06031*
X05917Y06036*
X05912Y0604*
X05905Y06042*
X05897Y0604*
X05892Y06036*
X05891Y06036*
X05639*
X05637Y06037*
X05632Y06041*
X05625Y06043*
G37*
G36*
X02095Y05999D02*
X02087Y05997D01*
X02081Y05993*
X0208Y05991*
X02075*
X02074Y05993*
X02067Y05997*
X0206Y05999*
X02052Y05997*
X02046Y05993*
X02045Y05991*
X0204*
X02039Y05993*
X02032Y05997*
X02025Y05999*
X02017Y05997*
X02011Y05993*
X02007Y05987*
X02005Y0598*
X02007Y05972*
X02011Y05966*
X02013Y05965*
Y0596*
X02011Y05958*
X02007Y05952*
X02005Y05945*
X02007Y05937*
X02011Y05931*
X02013Y0593*
Y05925*
X02011Y05923*
X02007Y05917*
X02005Y0591*
X02007Y05902*
X02011Y05896*
X02017Y05892*
X02025Y0589*
X02032Y05892*
X02039Y05896*
X0204Y05898*
X02045*
X02046Y05896*
X02052Y05892*
X0206Y0589*
X02067Y05892*
X02074Y05896*
X02075Y05898*
X0208*
X02081Y05896*
X02087Y05892*
X02095Y0589*
X02102Y05892*
X02109Y05896*
X02111Y059*
X02113Y05902*
X02114Y0591*
X02113Y05917*
X02109Y05923*
X02107Y05925*
Y0593*
X02109Y05931*
X02113Y05937*
X02114Y05945*
X02113Y05952*
X02109Y05958*
X02107Y0596*
Y05965*
X02109Y05966*
X02113Y05972*
X02114Y0598*
X02113Y05987*
X02109Y05993*
X02102Y05997*
X02095Y05999*
G37*
G36*
X08875Y06768D02*
X08867Y06766D01*
X08862Y06762*
X08858Y06757*
X08856Y0675*
X08858Y06742*
X08862Y06737*
X08862Y06736*
Y0673*
X08812Y0668*
X08679*
X08677Y06684*
X08708Y06716*
X0871Y06718*
X08711Y0672*
X08712Y06725*
Y06736*
X08712Y06737*
X08716Y06742*
X08718Y0675*
X08716Y06757*
X08712Y06762*
X08707Y06766*
X087Y06768*
X08692Y06766*
X08687Y06762*
X08683Y06757*
X08681Y0675*
X08683Y06742*
X08687Y06737*
X08687Y06736*
Y0673*
X08653Y06696*
X0852*
X08518Y067*
X08533Y06716*
X08536Y0672*
X08537Y06725*
Y06736*
X08537Y06737*
X08541Y06742*
X08543Y0675*
X08541Y06757*
X08537Y06762*
X08532Y06766*
X08525Y06768*
X08517Y06766*
X08512Y06762*
X08508Y06757*
X08506Y0675*
X08508Y06742*
X08512Y06737*
X08512Y06736*
Y0673*
X08494Y06712*
X08461*
X08457Y06711*
X08455Y0671*
X08453Y06708*
X08409Y06664*
X08406Y0666*
X08405Y06656*
Y06073*
X08219Y05887*
X08213*
X08212Y05887*
X08207Y05891*
X082Y05893*
X08192Y05891*
X08187Y05887*
X08183Y05882*
X08181Y05875*
X08183Y05867*
X08187Y05862*
X08192Y05858*
X082Y05856*
X08206Y05857*
X08208Y05853*
X08142Y05787*
X08013*
X08012Y05787*
X08007Y05791*
X08Y05793*
X07992Y05791*
X07987Y05787*
X07983Y05782*
X07981Y05775*
X07983Y05767*
X07987Y05762*
X07992Y05758*
X08Y05756*
X08007Y05758*
X08012Y05762*
X08013Y05762*
X08147*
X08152Y05763*
X08156Y05766*
X0833Y0594*
X08335Y05938*
Y05852*
X08336Y05847*
X08338Y05843*
X08381Y058*
X08381Y058*
X08383Y05792*
X08387Y05787*
X08392Y05783*
X084Y05781*
X08407Y05783*
X08412Y05787*
X08416Y05792*
X08418Y058*
X08416Y05807*
X08414Y05811*
X08415Y05812*
X08423Y05814*
X0843Y05819*
X08435Y05826*
X08437Y05835*
X08435Y05843*
X0843Y0585*
X08423Y05855*
X08415Y05857*
X08406Y05855*
X08399Y0585*
X08394Y05843*
X08392Y05835*
X08393Y0583*
X08389Y05828*
X08359Y05857*
Y05947*
X08458Y06046*
X08461Y0605*
X08462Y06054*
Y06637*
X0848Y06655*
X08587*
Y06587*
X08662*
Y06655*
X08695*
X08697Y06651*
X08692Y06643*
X08688Y06634*
X08687Y06625*
X08688Y06615*
X08692Y06606*
X08698Y06598*
X08706Y06592*
X08715Y06588*
X08725Y06587*
X08734Y06588*
X08743Y06592*
X08751Y06598*
X08757Y06606*
X08761Y06615*
X08762Y06625*
X08761Y06634*
X08757Y06643*
X08751Y06651*
X08753Y06655*
X08795*
X08797Y06651*
X08792Y06643*
X08788Y06634*
X08787Y06625*
X08788Y06615*
X08792Y06606*
X08798Y06598*
X08806Y06592*
X08815Y06588*
X08825Y06587*
X08834Y06588*
X08843Y06592*
X08851Y06598*
X08857Y06606*
X08861Y06615*
X08862Y06625*
X08861Y06634*
X08857Y06643*
X08851Y06651*
X08843Y06657*
X08834Y06661*
X08833Y06665*
X08883Y06716*
X08886Y0672*
X08887Y06725*
Y06736*
X08887Y06737*
X08891Y06742*
X08893Y0675*
X08891Y06757*
X08887Y06762*
X08882Y06766*
X08875Y06768*
G37*
G36*
X09247Y07205D02*
X09235Y07203D01*
X09225Y07199*
X09216Y07192*
X09209Y07183*
X09204Y07172*
X09203Y07161*
X09204Y0715*
X09209Y07139*
X09216Y0713*
X09225Y07123*
X09235Y07119*
X09247Y07117*
X09258Y07119*
X09268Y07123*
X09278Y0713*
X09284Y07139*
X09289Y0715*
X0929Y07161*
X09289Y07172*
X09284Y07183*
X09278Y07192*
X09268Y07199*
X09258Y07203*
X09247Y07205*
G37*
G36*
X04402D02*
X04391Y07203D01*
X04381Y07199*
X04371Y07192*
X04365Y07183*
X0436Y07172*
X04359Y07161*
X0436Y0715*
X04365Y07139*
X04371Y0713*
X04381Y07123*
X04391Y07119*
X04402Y07117*
X04414Y07119*
X04424Y07123*
X04433Y0713*
X0444Y07139*
X04445Y0715*
X04446Y07161*
X04445Y07172*
X0444Y07183*
X04433Y07192*
X04424Y07199*
X04414Y07203*
X04402Y07205*
G37*
G36*
X09502D02*
X09491Y07203D01*
X09481Y07199*
X09471Y07192*
X09465Y07183*
X0946Y07172*
X09459Y07161*
X0946Y0715*
X09465Y07139*
X09471Y0713*
X09481Y07123*
X09491Y07119*
X09502Y07117*
X09514Y07119*
X09524Y07123*
X09533Y0713*
X0954Y07139*
X09545Y0715*
X09546Y07161*
X09545Y07172*
X0954Y07183*
X09533Y07192*
X09524Y07199*
X09514Y07203*
X09502Y07205*
G37*
G36*
X083Y07339D02*
X08283Y07338D01*
X08266Y07334*
X08251Y07327*
X08236Y07319*
X08223Y07308*
X08212Y07295*
X08203Y0728*
X08197Y07264*
X08193Y07248*
X08191Y07231*
X08193Y07214*
X08197Y07197*
X08203Y07182*
X08212Y07167*
X08223Y07154*
X08236Y07143*
X08251Y07134*
X08266Y07128*
X08283Y07124*
X083Y07123*
X08317Y07124*
X08333Y07128*
X08349Y07134*
X08363Y07143*
X08376Y07154*
X08387Y07167*
X08396Y07182*
X08403Y07197*
X08407Y07214*
X08408Y07231*
X08407Y07248*
X08403Y07264*
X08396Y0728*
X08387Y07295*
X08376Y07308*
X08363Y07319*
X08349Y07327*
X08333Y07334*
X08317Y07338*
X083Y07339*
G37*
G36*
X0635D02*
X06333Y07338D01*
X06316Y07334*
X06301Y07327*
X06286Y07319*
X06273Y07308*
X06262Y07295*
X06253Y0728*
X06247Y07264*
X06243Y07248*
X06241Y07231*
X06243Y07214*
X06247Y07197*
X06253Y07182*
X06262Y07167*
X06273Y07154*
X06286Y07143*
X06301Y07134*
X06316Y07128*
X06333Y07124*
X0635Y07123*
X06367Y07124*
X06383Y07128*
X06399Y07134*
X06413Y07143*
X06426Y07154*
X06437Y07167*
X06446Y07182*
X06453Y07197*
X06457Y07214*
X06458Y07231*
X06457Y07248*
X06453Y07264*
X06446Y0728*
X06437Y07295*
X06426Y07308*
X06413Y07319*
X06399Y07327*
X06383Y07334*
X06367Y07338*
X0635Y07339*
G37*
G36*
X049Y07118D02*
X04892Y07116D01*
X04887Y07112*
X04883Y07107*
X04881Y071*
X04883Y07092*
X04887Y07087*
X04887Y07086*
Y07013*
X04887Y07012*
X04883Y07007*
X04881Y07*
X04883Y06992*
X04887Y06987*
X04892Y06983*
X049Y06981*
X04907Y06983*
X04912Y06987*
X04916Y06992*
X04918Y07*
X04916Y07007*
X04912Y07012*
X04912Y07013*
Y07086*
X04912Y07087*
X04916Y07092*
X04918Y071*
X04916Y07107*
X04912Y07112*
X04907Y07116*
X049Y07118*
G37*
G36*
X03065Y06978D02*
X03057Y06976D01*
X03052Y06972*
X03048Y06967*
X03046Y0696*
X03048Y06952*
X03052Y06947*
X03057Y06943*
X03065Y06941*
X03072Y06943*
X03077Y06947*
X03081Y06952*
X03083Y0696*
X03081Y06967*
X03077Y06972*
X03072Y06976*
X03065Y06978*
G37*
G36*
X0195Y07224D02*
X01933Y07223D01*
X01917Y07219*
X01901Y07213*
X01887Y07204*
X01874Y07193*
X01863Y0718*
X01854Y07166*
X01848Y07151*
X01844Y07134*
X01843Y07118*
X01844Y07101*
X01848Y07085*
X01854Y07069*
X01863Y07055*
X01874Y07042*
X01887Y07031*
X01901Y07022*
X01917Y07016*
X01933Y07012*
X0195Y07011*
X01966Y07012*
X01982Y07016*
X01998Y07022*
X02012Y07031*
X02025Y07042*
X02036Y07055*
X02045Y07069*
X02051Y07085*
X02055Y07101*
X02056Y07118*
X02055Y07134*
X02051Y07151*
X02045Y07166*
X02036Y0718*
X02025Y07193*
X02012Y07204*
X01998Y07213*
X01982Y07219*
X01966Y07223*
X0195Y07224*
G37*
G36*
X04147Y07205D02*
X04135Y07203D01*
X04125Y07199*
X04116Y07192*
X04109Y07183*
X04104Y07172*
X04103Y07161*
X04104Y0715*
X04109Y07139*
X04116Y0713*
X04125Y07123*
X04135Y07119*
X04147Y07117*
X04158Y07119*
X04168Y07123*
X04178Y0713*
X04184Y07139*
X04189Y0715*
X0419Y07161*
X04189Y07172*
X04184Y07183*
X04178Y07192*
X04168Y07199*
X04158Y07203*
X04147Y07205*
G37*
G36*
X09375Y07068D02*
X09367Y07066D01*
X09362Y07062*
X09358Y07057*
X09356Y0705*
X09358Y07042*
X09362Y07037*
X09367Y07033*
X09375Y07031*
X09382Y07033*
X09387Y07037*
X09391Y07042*
X09393Y0705*
X09391Y07057*
X09387Y07062*
X09382Y07066*
X09375Y07068*
G37*
G36*
X02295Y07218D02*
X02287Y07216D01*
X02282Y07212*
X02278Y07207*
X02276Y072*
X02278Y07192*
X02282Y07187*
X02287Y07183*
X02295Y07181*
X02302Y07183*
X02307Y07187*
X02311Y07192*
X02313Y072*
X02311Y07207*
X02307Y07212*
X02302Y07216*
X02295Y07218*
G37*
G36*
X0574Y07362D02*
X0573Y07361D01*
X05721Y07357*
X05713Y07351*
X05707Y07343*
X05703Y07334*
X05702Y07325*
X05703Y07315*
X05707Y07306*
X05713Y07298*
X05721Y07292*
X0573Y07288*
X0574Y07287*
X05749Y07288*
X05758Y07292*
X05766Y07298*
X05772Y07306*
X05776Y07315*
X05777Y07325*
X05776Y07334*
X05772Y07343*
X05766Y07351*
X05758Y07357*
X05749Y07361*
X0574Y07362*
G37*
G36*
X0484D02*
X0483Y07361D01*
X04821Y07357*
X04813Y07351*
X04807Y07343*
X04803Y07334*
X04802Y07325*
X04803Y07315*
X04807Y07306*
X04813Y07298*
X04821Y07292*
X0483Y07288*
X0484Y07287*
X04849Y07288*
X04858Y07292*
X04866Y07298*
X04872Y07306*
X04876Y07315*
X04877Y07325*
X04876Y07334*
X04872Y07343*
X04866Y07351*
X04858Y07357*
X04849Y07361*
X0484Y07362*
G37*
G36*
X0584D02*
X0583Y07361D01*
X05821Y07357*
X05813Y07351*
X05807Y07343*
X05803Y07334*
X05802Y07325*
X05803Y07315*
X05807Y07306*
X05813Y07298*
X05821Y07292*
X0583Y07288*
X0584Y07287*
X05849Y07288*
X05858Y07292*
X05866Y07298*
X05872Y07306*
X05876Y07315*
X05877Y07325*
X05876Y07334*
X05872Y07343*
X05866Y07351*
X05858Y07357*
X05849Y07361*
X0584Y07362*
G37*
G36*
X091Y07343D02*
X09092Y07341D01*
X09087Y07337*
X09083Y07332*
X09081Y07325*
X09081Y07324*
X09066Y07309*
X08465*
X08461Y07308*
X08457Y07305*
X08442Y07291*
X08437Y07287*
X08432Y07291*
X08425Y07293*
X08417Y07291*
X08412Y07287*
X08408Y07282*
X08406Y07275*
X08408Y07267*
X08412Y07262*
X08417Y07258*
X08425Y07256*
X08432Y07258*
X08437Y07262*
X08438Y07262*
X08443*
X08448Y07263*
X08452Y07266*
X08453Y07267*
X08458Y07267*
X08462Y07262*
X08467Y07258*
X08475Y07256*
X08482Y07258*
X08487Y07262*
X08488Y07262*
X09086*
X09087Y07262*
X09092Y07258*
X091Y07256*
X09107Y07258*
X09112Y07262*
X09116Y07267*
X09118Y07275*
X09116Y07282*
X09112Y07287*
X09107Y07291*
X091Y07293*
X09092Y07291*
X09087Y07288*
X09084Y07292*
X09099Y07306*
X091Y07306*
X09107Y07308*
X09112Y07312*
X09116Y07317*
X09118Y07325*
X09116Y07332*
X09112Y07337*
X09107Y07341*
X091Y07343*
G37*
G36*
X0594Y07362D02*
X0593Y07361D01*
X05921Y07357*
X05913Y07351*
X05907Y07343*
X05903Y07334*
X05902Y07325*
X05903Y07315*
X05907Y07306*
X05913Y07298*
X05921Y07292*
X0593Y07288*
X0594Y07287*
X05949Y07288*
X05958Y07292*
X05966Y07298*
X05972Y07306*
X05976Y07315*
X05977Y07325*
X05976Y07334*
X05972Y07343*
X05966Y07351*
X05958Y07357*
X05949Y07361*
X0594Y07362*
G37*
G36*
X0584Y07262D02*
X0583Y07261D01*
X05821Y07257*
X05813Y07251*
X05807Y07243*
X05803Y07234*
X05802Y07225*
X05803Y07215*
X05807Y07206*
X05813Y07198*
X05821Y07192*
X0583Y07188*
X0584Y07187*
X05849Y07188*
X05858Y07192*
X05866Y07198*
X05872Y07206*
X05876Y07215*
X05877Y07225*
X05876Y07234*
X05872Y07243*
X05866Y07251*
X05858Y07257*
X05849Y07261*
X0584Y07262*
G37*
G36*
X0484D02*
X0483Y07261D01*
X04821Y07257*
X04813Y07251*
X04807Y07243*
X04803Y07234*
X04802Y07225*
X04803Y07215*
X04807Y07206*
X04813Y07198*
X04821Y07192*
X0483Y07188*
X0484Y07187*
X04849Y07188*
X04858Y07192*
X04866Y07198*
X04872Y07206*
X04876Y07215*
X04877Y07225*
X04876Y07234*
X04872Y07243*
X04866Y07251*
X04858Y07257*
X04849Y07261*
X0484Y07262*
G37*
G36*
X0594D02*
X0593Y07261D01*
X05921Y07257*
X05913Y07251*
X05907Y07243*
X05903Y07234*
X05902Y07225*
X05903Y07215*
X05907Y07206*
X05913Y07198*
X05921Y07192*
X0593Y07188*
X0594Y07187*
X05949Y07188*
X05958Y07192*
X05966Y07198*
X05972Y07206*
X05976Y07215*
X05977Y07225*
X05976Y07234*
X05972Y07243*
X05966Y07251*
X05958Y07257*
X05949Y07261*
X0594Y07262*
G37*
G36*
X0474Y07362D02*
X0473Y07361D01*
X04721Y07357*
X04713Y07351*
X04707Y07343*
X04703Y07334*
X04702Y07325*
X04703Y07315*
X04707Y07306*
X04713Y07298*
X04721Y07292*
X0473Y07288*
X0474Y07287*
X04749Y07288*
X04758Y07292*
X04766Y07298*
X04772Y07306*
X04776Y07315*
X04777Y07325*
X04776Y07334*
X04772Y07343*
X04766Y07351*
X04758Y07357*
X04749Y07361*
X0474Y07362*
G37*
G36*
X0564D02*
X0563Y07361D01*
X05621Y07357*
X05613Y07351*
X05607Y07343*
X05603Y07334*
X05602Y07325*
X05603Y07315*
X05607Y07306*
X05613Y07298*
X05621Y07292*
X0563Y07288*
X0564Y07287*
X05649Y07288*
X05656Y07291*
X05682Y07264*
Y07227*
X0568Y07225*
X05679Y07225*
X05677Y07225*
X05676Y07234*
X05672Y07243*
X05666Y07251*
X05658Y07257*
X05649Y07261*
X0564Y07262*
X0563Y07261*
X05621Y07257*
X05613Y07251*
X05607Y07243*
X05607Y07243*
X05602Y07244*
Y07275*
X05601Y07279*
X05598Y07283*
X05573Y07308*
X05576Y07315*
X05577Y07325*
X05576Y07334*
X05572Y07343*
X05566Y07351*
X05558Y07357*
X05549Y07361*
X0554Y07362*
X0553Y07361*
X05521Y07357*
X05513Y07351*
X05507Y07343*
X05503Y07334*
X05502Y07325*
X05503Y07315*
X05507Y07306*
X05513Y07298*
X05521Y07292*
X0553Y07288*
X0554Y07287*
X05549Y07288*
X05556Y07291*
X05577Y07269*
Y07244*
X05572Y07243*
X05572Y07243*
X05566Y07251*
X05558Y07257*
X05549Y07261*
X0554Y07262*
X0553Y07261*
X05521Y07257*
X05513Y07251*
X05507Y07243*
X05503Y07234*
X05502Y07225*
X055Y07225*
X05499Y07225*
X05497Y07227*
Y0728*
X05496Y07284*
X05493Y07288*
X05473Y07308*
X05476Y07315*
X05477Y07325*
X05476Y07334*
X05472Y07343*
X05466Y07351*
X05458Y07357*
X05449Y07361*
X0544Y07362*
X0543Y07361*
X05421Y07357*
X05413Y07351*
X05407Y07343*
X05403Y07334*
X05402Y07325*
X05403Y07315*
X05407Y07306*
X05413Y07298*
X05421Y07292*
X0543Y07288*
X0544Y07287*
X05449Y07288*
X05456Y07291*
X05472Y07274*
Y07251*
X05468Y0725*
X05466Y07251*
X05458Y07257*
X05449Y07261*
X0544Y07262*
X0543Y07261*
X05421Y07257*
X05413Y07251*
X05407Y07243*
X05407Y07243*
X05402Y07244*
Y07275*
X05401Y07279*
X05398Y07283*
X05373Y07308*
X05376Y07315*
X05377Y07325*
X05376Y07334*
X05372Y07343*
X05366Y07351*
X05358Y07357*
X05349Y07361*
X0534Y07362*
X0533Y07361*
X05321Y07357*
X05313Y07351*
X05307Y07343*
X05303Y07334*
X05302Y07325*
X05303Y07315*
X05307Y07306*
X05313Y07298*
X05321Y07292*
X0533Y07288*
X0534Y07287*
X05349Y07288*
X05356Y07291*
X05377Y07269*
Y07244*
X05372Y07243*
X05372Y07243*
X05366Y07251*
X05358Y07257*
X05349Y07261*
X0534Y07262*
X0533Y07261*
X05321Y07257*
X05313Y07251*
X05307Y07243*
X05307Y07243*
X05302Y07244*
Y07275*
X05301Y07279*
X05298Y07283*
X05273Y07308*
X05276Y07315*
X05277Y07325*
X05276Y07334*
X05272Y07343*
X05266Y07351*
X05258Y07357*
X05249Y07361*
X0524Y07362*
X0523Y07361*
X05221Y07357*
X05213Y07351*
X05207Y07343*
X05203Y07334*
X05202Y07325*
X05203Y07315*
X05207Y07306*
X05213Y07298*
X05221Y07292*
X0523Y07288*
X0524Y07287*
X05249Y07288*
X05256Y07291*
X05277Y07269*
Y07244*
X05272Y07243*
X05272Y07243*
X05266Y07251*
X05258Y07257*
X05249Y07261*
X0524Y07262*
X0523Y07261*
X05221Y07257*
X05213Y07251*
X05207Y07243*
X05203Y07234*
X05202Y07225*
X052Y07225*
X05199Y07225*
X05197Y07227*
Y07275*
X05196Y07279*
X05193Y07283*
X05172Y07305*
X05172Y07306*
X05176Y07315*
X05177Y07325*
X05176Y07334*
X05172Y07343*
X05166Y07351*
X05158Y07357*
X05149Y07361*
X0514Y07362*
X0513Y07361*
X05121Y07357*
X05113Y07351*
X05107Y07343*
X05103Y07334*
X05102Y07325*
X05103Y07315*
X05107Y07306*
X05113Y07298*
X05121Y07292*
X0513Y07288*
X0514Y07287*
X05149Y07288*
X05152Y07289*
X05172Y07269*
Y07251*
X05168Y0725*
X05166Y07251*
X05158Y07257*
X05149Y07261*
X0514Y07262*
X0513Y07261*
X05121Y07257*
X05113Y07251*
X05107Y07243*
X05107Y07243*
X05102Y07244*
Y07275*
X05101Y07279*
X05098Y07283*
X05073Y07308*
X05076Y07315*
X05077Y07325*
X05076Y07334*
X05072Y07343*
X05066Y07351*
X05058Y07357*
X05049Y07361*
X0504Y07362*
X0503Y07361*
X05021Y07357*
X05013Y07351*
X05007Y07343*
X05003Y07334*
X05002Y07325*
X05003Y07315*
X05007Y07306*
X05013Y07298*
X05021Y07292*
X0503Y07288*
X0504Y07287*
X05049Y07288*
X05056Y07291*
X05077Y07269*
Y07244*
X05072Y07243*
X05072Y07243*
X05066Y07251*
X05058Y07257*
X05049Y07261*
X0504Y07262*
X0503Y07261*
X05021Y07257*
X05013Y07251*
X05007Y07243*
X05007Y07243*
X05002Y07244*
Y07275*
X05001Y07279*
X04998Y07283*
X04973Y07308*
X04976Y07315*
X04977Y07325*
X04976Y07334*
X04972Y07343*
X04966Y07351*
X04958Y07357*
X04949Y07361*
X0494Y07362*
X0493Y07361*
X04921Y07357*
X04913Y07351*
X04907Y07343*
X04903Y07334*
X04902Y07325*
X04903Y07315*
X04907Y07306*
X04913Y07298*
X04921Y07292*
X0493Y07288*
X0494Y07287*
X04949Y07288*
X04956Y07291*
X04977Y07269*
Y07244*
X04972Y07243*
X04972Y07243*
X04966Y07251*
X04958Y07257*
X04949Y07261*
X0494Y07262*
X0493Y07261*
X04921Y07257*
X04913Y07251*
X04907Y07243*
X04903Y07234*
X04902Y07225*
X04903Y07215*
X04907Y07206*
X04913Y07198*
X04921Y07192*
X0493Y07188*
X0494Y07187*
X04949Y07188*
X04958Y07192*
X04966Y07198*
X04972Y07206*
X04972Y07206*
X04977Y07205*
Y0715*
X04978Y07145*
X04981Y07141*
X05206Y06916*
X05208Y06914*
X0521Y06913*
X05215Y06912*
X05936*
X05937Y06912*
X05942Y06908*
X0595Y06906*
X05957Y06908*
X05962Y06912*
X05966Y06917*
X05968Y06925*
X05969Y06926*
X05976Y06927*
X05982Y06931*
X05986Y06937*
X05988Y06944*
X05989Y06946*
X05996Y06947*
X06002Y06951*
X06006Y06957*
X06007Y06964*
X06009Y06966*
X06016Y06967*
X06022Y06971*
X06026Y06977*
X06027Y06984*
X06029Y06985*
X06036Y06987*
X06042Y06991*
X06046Y06997*
X06047Y07004*
X06049Y07005*
X06056Y07007*
X06061Y07011*
X06065Y07016*
X06067Y07023*
X06068Y07025*
X06075Y07026*
X06081Y0703*
X06085Y07036*
X06087Y07043*
X06088Y07045*
X06095Y07046*
X06101Y0705*
X06105Y07056*
X06106Y07063*
X06105Y0707*
X06101Y07076*
X06095Y0708*
X06088Y07081*
X06081Y0708*
X06077Y07078*
X05724*
X05707Y07095*
Y07198*
X05711Y07199*
X05713Y07198*
X05721Y07192*
X0573Y07188*
X0574Y07187*
X05749Y07188*
X05758Y07192*
X05766Y07198*
X05772Y07206*
X05776Y07215*
X05777Y07225*
X05776Y07234*
X05772Y07243*
X05766Y07251*
X05758Y07257*
X05749Y07261*
X0574Y07262*
X0573Y07261*
X05721Y07257*
X05713Y07251*
X05711Y0725*
X05707Y07251*
Y0727*
X05706Y07274*
X05703Y07278*
X05673Y07308*
X05676Y07315*
X05677Y07325*
X05676Y07334*
X05672Y07343*
X05666Y07351*
X05658Y07357*
X05649Y07361*
X0564Y07362*
G37*
G36*
X03887Y06976D02*
X0388Y06974D01*
X03874Y0697*
X0387Y06964*
X03869Y06957*
X0387Y0695*
X03874Y06944*
X0388Y0694*
X03887Y06939*
X03894Y0694*
X039Y06944*
X03904Y0695*
X03905Y06957*
X03904Y06964*
X039Y0697*
X03894Y06974*
X03887Y06976*
G37*
G36*
X02815Y06883D02*
X02807Y06881D01*
X02802Y06877*
X02798Y06872*
X02796Y06865*
X02798Y06857*
X02802Y06852*
X02807Y06848*
X02815Y06846*
X02822Y06848*
X02827Y06852*
X02831Y06857*
X02833Y06865*
X02831Y06872*
X02827Y06877*
X02822Y06881*
X02815Y06883*
G37*
G36*
X02565Y06878D02*
X02557Y06876D01*
X02552Y06872*
X02548Y06867*
X02546Y0686*
X02548Y06852*
X02552Y06847*
X02557Y06843*
X02565Y06841*
X02572Y06843*
X02577Y06847*
X02581Y06852*
X02583Y0686*
X02581Y06867*
X02577Y06872*
X02572Y06876*
X02565Y06878*
G37*
G36*
X05915Y06863D02*
X05907Y06861D01*
X05902Y06857*
X05901Y06857*
X05343*
X05342Y06857*
X05337Y06861*
X0533Y06863*
X05322Y06861*
X05317Y06857*
X05313Y06852*
X05311Y06845*
X05313Y06837*
X05317Y06832*
X05322Y06828*
X0533Y06826*
X05337Y06828*
X05342Y06832*
X05343Y06832*
X05901*
X05902Y06832*
X05907Y06828*
X05915Y06826*
X05922Y06828*
X05927Y06832*
X05931Y06837*
X05933Y06845*
X05931Y06852*
X05927Y06857*
X05922Y06861*
X05915Y06863*
G37*
G36*
X08809Y06913D02*
X08802Y06911D01*
X08796Y06907*
X08792Y06902*
X08791Y06895*
X08792Y06887*
X08796Y06882*
X08802Y06878*
X08809Y06876*
X08816Y06878*
X08822Y06882*
X08826Y06887*
X08827Y06895*
X08826Y06902*
X08822Y06907*
X08816Y06911*
X08809Y06913*
G37*
G36*
X08634D02*
X08627Y06911D01*
X08621Y06907*
X08617Y06902*
X08616Y06895*
X08617Y06887*
X08621Y06882*
X08627Y06878*
X08634Y06876*
X08641Y06878*
X08647Y06882*
X08651Y06887*
X08652Y06895*
X08651Y06902*
X08647Y06907*
X08641Y06911*
X08634Y06913*
G37*
G36*
X01825Y06743D02*
X01817Y06741D01*
X01812Y06737*
X01808Y06732*
X01806Y06725*
X01808Y06717*
X01812Y06712*
X01817Y06708*
X01825Y06706*
X01832Y06708*
X01837Y06712*
X01841Y06717*
X01843Y06725*
X01841Y06732*
X01837Y06737*
X01832Y06741*
X01825Y06743*
G37*
G36*
X04825Y06762D02*
X04815Y06761D01*
X04806Y06757*
X04798Y06751*
X04792Y06743*
X04788Y06734*
X04787Y06725*
X04788Y06715*
X04792Y06706*
X04798Y06698*
X04806Y06692*
X04815Y06688*
X04825Y06687*
X04834Y06688*
X04843Y06692*
X04851Y06698*
X04857Y06706*
X04861Y06715*
X04862Y06725*
X04861Y06734*
X04857Y06743*
X04851Y06751*
X04843Y06757*
X04834Y06761*
X04825Y06762*
G37*
G36*
X05852Y06802D02*
X05777D01*
Y06727*
X05852*
Y06802*
G37*
G36*
X0415Y06853D02*
X04142Y06851D01*
X04137Y06847*
X04133Y06842*
X04131Y06835*
X04133Y06827*
X04137Y06822*
X04142Y06818*
X0415Y06816*
X04157Y06818*
X04162Y06822*
X04166Y06827*
X04168Y06835*
X04166Y06842*
X04162Y06847*
X04157Y06851*
X0415Y06853*
G37*
G36*
X04287Y06962D02*
X04212D01*
Y06887*
X04237*
Y0681*
X04214Y06787*
X02508*
X02507Y06787*
X02502Y06791*
X02495Y06793*
X02487Y06791*
X02482Y06787*
X02478Y06782*
X02476Y06775*
X02478Y06767*
X02482Y06762*
X02487Y06758*
X02495Y06756*
X02502Y06758*
X02507Y06762*
X02508Y06762*
X02716*
X02718Y06758*
X02718Y06757*
X02716Y0675*
X02718Y06742*
X02722Y06737*
X02727Y06733*
X02735Y06731*
X02742Y06733*
X02747Y06737*
X02748Y06737*
X047*
X04704Y06738*
X04708Y06741*
X0478Y06812*
X04789*
X04792Y06806*
X04798Y06798*
X04806Y06792*
X04815Y06788*
X04825Y06787*
X04834Y06788*
X04843Y06792*
X04851Y06798*
X04857Y06806*
X04861Y06815*
X04862Y06825*
X04861Y06834*
X04857Y06843*
X04851Y06851*
X04843Y06857*
X04834Y06861*
X04825Y06862*
X04815Y06861*
X04806Y06857*
X04798Y06851*
X04792Y06843*
X04789Y06837*
X04775*
X0477Y06836*
X04766Y06833*
X04742Y06809*
X04741Y0681*
X04738Y06812*
X04741Y06817*
X04743Y06825*
X04741Y06832*
X04737Y06837*
X04732Y06841*
X04725Y06843*
X04717Y06841*
X04712Y06837*
X04708Y06832*
X04706Y06825*
X04708Y06817*
X04712Y06812*
X04717Y06808*
X04725Y06806*
X04732Y06808*
X04736Y0681*
X04737Y0681*
X0474Y06807*
X04694Y06762*
X04231*
X0423Y06763*
X04229Y06766*
X04258Y06796*
X04261Y068*
X04262Y06805*
Y06887*
X04287*
Y06962*
G37*
G36*
X03125Y06918D02*
X03117Y06916D01*
X03112Y06912*
X03108Y06907*
X03106Y069*
X03108Y06892*
X03112Y06887*
X03117Y06883*
X03125Y06881*
X03132Y06883*
X03137Y06887*
X03141Y06892*
X03143Y069*
X03141Y06907*
X03137Y06912*
X03132Y06916*
X03125Y06918*
G37*
G36*
X01764Y07106D02*
X01748Y07105D01*
X01731Y07101*
X01716Y07095*
X01702Y07086*
X01689Y07075*
X01678Y07062*
X01669Y07048*
X01663Y07032*
X01659Y07016*
X01658Y07*
X01659Y06983*
X01663Y06967*
X01669Y06951*
X01678Y06937*
X01689Y06924*
X01702Y06913*
X01716Y06904*
X01731Y06898*
X01748Y06894*
X01764Y06893*
X01781Y06894*
X01797Y06898*
X01813Y06904*
X01827Y06913*
X0184Y06924*
X01851Y06937*
X0186Y06951*
X01866Y06967*
X0187Y06983*
X01871Y07*
X0187Y07016*
X01866Y07032*
X0186Y07048*
X01851Y07062*
X0184Y07075*
X01827Y07086*
X01813Y07095*
X01797Y07101*
X01781Y07105*
X01764Y07106*
G37*
G36*
X04862Y06962D02*
X04787D01*
Y06887*
X04862*
Y06962*
G37*
G36*
X05675Y06903D02*
X05667Y06901D01*
X05662Y06897*
X05661Y06897*
X05243*
X05242Y06897*
X05237Y06901*
X0523Y06903*
X05222Y06901*
X05217Y06897*
X05213Y06892*
X05211Y06885*
X05213Y06877*
X05217Y06872*
X05222Y06868*
X0523Y06866*
X05237Y06868*
X05242Y06872*
X05243Y06872*
X05661*
X05662Y06872*
X05667Y06868*
X05675Y06866*
X05682Y06868*
X05687Y06872*
X05691Y06877*
X05693Y06885*
X05691Y06892*
X05687Y06897*
X05682Y06901*
X05675Y06903*
G37*
G36*
X03615Y06973D02*
X03607Y06971D01*
X03602Y06967*
X03598Y06962*
X03596Y06955*
X03598Y06947*
X03602Y06942*
X03607Y06938*
X03615Y06936*
X03622Y06938*
X03627Y06942*
X03631Y06947*
X03633Y06955*
X03631Y06962*
X03627Y06967*
X03622Y06971*
X03615Y06973*
G37*
G36*
X0334D02*
X03332Y06971D01*
X03327Y06967*
X03323Y06962*
X03321Y06955*
X03323Y06947*
X03327Y06942*
X03332Y06938*
X0334Y06936*
X03347Y06938*
X03352Y06942*
X03356Y06947*
X03358Y06955*
X03356Y06962*
X03352Y06967*
X03347Y06971*
X0334Y06973*
G37*
G36*
X037Y06918D02*
X03692Y06916D01*
X03687Y06912*
X03683Y06907*
X03681Y069*
X03683Y06892*
X03687Y06887*
X03692Y06883*
X037Y06881*
X03707Y06883*
X03712Y06887*
X03716Y06892*
X03718Y069*
X03716Y06907*
X03712Y06912*
X03707Y06916*
X037Y06918*
G37*
G36*
X034D02*
X03392Y06916D01*
X03387Y06912*
X03383Y06907*
X03381Y069*
X03383Y06892*
X03387Y06887*
X03392Y06883*
X034Y06881*
X03407Y06883*
X03412Y06887*
X03416Y06892*
X03418Y069*
X03416Y06907*
X03412Y06912*
X03407Y06916*
X034Y06918*
G37*
G36*
X03925D02*
X03917Y06916D01*
X03912Y06912*
X03908Y06907*
X03906Y069*
X03908Y06892*
X03912Y06887*
X03917Y06883*
X03925Y06881*
X03932Y06883*
X03937Y06887*
X03941Y06892*
X03943Y069*
X03941Y06907*
X03937Y06912*
X03932Y06916*
X03925Y06918*
G37*
G36*
X0435Y06962D02*
X0434Y06961D01*
X04331Y06957*
X04323Y06951*
X04317Y06943*
X04313Y06934*
X04312Y06925*
X04313Y06915*
X04317Y06906*
X04323Y06898*
X04331Y06892*
X0434Y06888*
X0435Y06887*
X04359Y06888*
X04368Y06892*
X04376Y06898*
X04382Y06906*
X04386Y06915*
X04387Y06925*
X04386Y06934*
X04382Y06943*
X04376Y06951*
X04368Y06957*
X04359Y06961*
X0435Y06962*
G37*
G36*
X08975Y06918D02*
X08967Y06916D01*
X08962Y06912*
X08958Y06907*
X08956Y069*
X08958Y06892*
X08962Y06887*
X08967Y06883*
X08975Y06881*
X08982Y06883*
X08987Y06887*
X08991Y06892*
X08993Y069*
X08991Y06907*
X08987Y06912*
X08982Y06916*
X08975Y06918*
G37*
G36*
X06718Y05209D02*
X06713Y05208D01*
X06709Y05206*
X06706Y05202*
X06705Y05197*
Y0515*
X06706Y05145*
X06709Y05141*
X06713Y05138*
X06718Y05137*
X06722Y05138*
X06726Y05141*
X06729Y05145*
X0673Y0515*
Y05197*
X06729Y05202*
X06726Y05206*
X06722Y05208*
X06718Y05209*
G37*
G36*
X06672Y0516D02*
X06665Y05159D01*
X06659Y05155*
X06655Y05149*
X06653Y05142*
X06655Y05135*
X06659Y05129*
X06665Y05125*
X06672Y05123*
X06679Y05125*
X06685Y05129*
X06689Y05135*
X0669Y05142*
X06689Y05149*
X06685Y05155*
X06679Y05159*
X06672Y0516*
G37*
G36*
X06793Y05209D02*
X06788Y05208D01*
X06784Y05206*
X06781Y05202*
X0678Y05197*
Y0515*
X06781Y05145*
X06784Y05141*
X06788Y05138*
X06793Y05137*
X06797Y05138*
X06801Y05141*
X06804Y05145*
X06805Y0515*
Y05197*
X06804Y05202*
X06801Y05206*
X06797Y05208*
X06793Y05209*
G37*
G36*
X07965Y05171D02*
X07914D01*
Y05159*
X0789*
Y05171*
X07839*
Y05123*
X0789*
Y05135*
X07914*
Y05123*
X07965*
Y05126*
X0797Y05128*
X07976Y05124*
X07985Y05122*
X07993Y05124*
X08Y05129*
X08002Y05131*
X08007*
X08009Y05129*
X08016Y05124*
X08025Y05122*
X08033Y05124*
X0804Y05129*
X08045Y05136*
X08047Y05145*
X08045Y05153*
X0804Y0516*
X08033Y05165*
X08025Y05167*
X08016Y05165*
X08009Y0516*
X08007Y05158*
X08002*
X08Y0516*
X07993Y05165*
X07985Y05167*
X07976Y05165*
X0797Y05161*
X07965Y05163*
Y05171*
G37*
G36*
X06868Y05209D02*
X06863Y05208D01*
X06859Y05206*
X06856Y05202*
X06855Y05197*
Y0515*
X06856Y05145*
X06859Y05141*
X06863Y05138*
X06868Y05137*
X06872Y05138*
X06876Y05141*
X06879Y05145*
X0688Y0515*
Y05197*
X06879Y05202*
X06876Y05206*
X06872Y05208*
X06868Y05209*
G37*
G36*
X06227Y0516D02*
X0622Y05159D01*
X06214Y05155*
X0621Y05149*
X06208Y05142*
X0621Y05135*
X06214Y05129*
X0622Y05125*
X06227Y05123*
X06234Y05125*
X0624Y05129*
X06244Y05135*
X06245Y05142*
X06244Y05149*
X0624Y05155*
X06234Y05159*
X06227Y0516*
G37*
G36*
X03125Y05018D02*
X03117Y05016D01*
X03112Y05012*
X03108Y05007*
X03106Y05*
X03108Y04992*
X03112Y04987*
X03117Y04983*
X03125Y04981*
X03132Y04983*
X03137Y04987*
X03141Y04992*
X03143Y05*
X03141Y05007*
X03137Y05012*
X03132Y05016*
X03125Y05018*
G37*
G36*
Y04968D02*
X03117Y04966D01*
X03112Y04962*
X03108Y04957*
X03106Y0495*
X03108Y04942*
X03112Y04937*
X03117Y04933*
X03125Y04931*
X03132Y04933*
X03137Y04937*
X03141Y04942*
X03143Y0495*
X03141Y04957*
X03137Y04962*
X03132Y04966*
X03125Y04968*
G37*
G36*
X02275Y05043D02*
X02267Y05041D01*
X02262Y05037*
X02258Y05032*
X02256Y05025*
X02258Y05017*
X02262Y05012*
X02267Y05008*
X02275Y05006*
X02282Y05008*
X02287Y05012*
X02291Y05017*
X02293Y05025*
X02291Y05032*
X02287Y05037*
X02282Y05041*
X02275Y05043*
G37*
G36*
X08415Y05167D02*
X08406Y05165D01*
X08399Y0516*
X08394Y05153*
X08392Y05145*
X08394Y05136*
X08399Y05129*
X08406Y05124*
X08415Y05122*
X08423Y05124*
X0843Y05129*
X08435Y05136*
X08437Y05145*
X08435Y05153*
X0843Y0516*
X08423Y05165*
X08415Y05167*
G37*
G36*
X03125Y05093D02*
X03117Y05091D01*
X03112Y05087*
X03108Y05082*
X03106Y05075*
X03108Y05067*
X03112Y05062*
X03117Y05058*
X03125Y05056*
X03132Y05058*
X03137Y05062*
X03141Y05067*
X03143Y05075*
X03141Y05082*
X03137Y05087*
X03132Y05091*
X03125Y05093*
G37*
G36*
X07865Y05392D02*
X07856Y0539D01*
X07849Y05385*
X07844Y05378*
X07842Y0537*
X07844Y05361*
X07848Y05355*
X07845Y05351*
X07839*
Y05303*
X0789*
Y05351*
X07884*
X07881Y05355*
X07885Y05361*
X07887Y0537*
X07885Y05378*
X0788Y05385*
X07873Y0539*
X07865Y05392*
G37*
G36*
X06893Y05276D02*
X06842D01*
Y05264*
X06818*
Y05276*
X06767*
Y05228*
X06818*
Y0524*
X06842*
Y05228*
X06893*
Y0524*
X06904*
X06907Y05236*
X06914Y05231*
X06923Y0523*
X06931Y05231*
X06938Y05236*
X06943Y05243*
X06945Y05252*
X06943Y05261*
X06938Y05268*
X06931Y05273*
X06923Y05274*
X06914Y05273*
X06907Y05268*
X06904Y05264*
X06893*
Y05276*
G37*
G36*
X0794Y05392D02*
X07931Y0539D01*
X07924Y05385*
X07919Y05378*
X07917Y0537*
X07919Y05361*
X07923Y05355*
X0792Y05351*
X07914*
Y05303*
X07965*
Y05351*
X07959*
X07956Y05355*
X0796Y05361*
X07962Y0537*
X0796Y05378*
X07955Y05385*
X07948Y0539*
X0794Y05392*
G37*
G36*
X06842Y05334D02*
X0679D01*
X06785Y05333*
X06781Y05331*
X06778Y05327*
X06777Y05322*
X06778Y05317*
X06781Y05313*
X06785Y05311*
X0679Y0531*
X06838*
X0684Y05308*
X06845Y05307*
X06849Y05308*
X06853Y05311*
X06856Y05315*
X06857Y0532*
X06856Y05324*
X06853Y05328*
X06851Y05331*
X06847Y05333*
X06842Y05334*
G37*
G36*
X0275Y05343D02*
X02742Y05341D01*
X02737Y05337*
X02733Y05332*
X02731Y05325*
X02733Y05317*
X02737Y05312*
X02742Y05308*
X0275Y05306*
X02757Y05308*
X02762Y05312*
X02766Y05317*
X02768Y05325*
X02766Y05332*
X02762Y05337*
X02757Y05341*
X0275Y05343*
G37*
G36*
X06743Y05276D02*
X06692D01*
Y05264*
X06678*
X06675Y05266*
X06668Y05268*
X0666Y05266*
X06655Y05262*
X06651Y05257*
X06649Y0525*
X06651Y05242*
X06655Y05237*
X0666Y05233*
X06668Y05231*
X06675Y05233*
X0668Y05237*
X06683Y0524*
X06692*
Y05228*
X06743*
Y05276*
G37*
G36*
X03Y05262D02*
X0299Y05261D01*
X02981Y05257*
X02973Y05251*
X02967Y05243*
X02963Y05234*
X02962Y05225*
X02963Y05215*
X02967Y05206*
X02973Y05198*
X02981Y05192*
X0299Y05188*
X03Y05187*
X03009Y05188*
X03018Y05192*
X03026Y05198*
X03032Y05206*
X03036Y05215*
X03037Y05225*
X03036Y05234*
X03032Y05243*
X03026Y05251*
X03018Y05257*
X03009Y05261*
X03Y05262*
G37*
G36*
X0593Y05363D02*
X05924Y05362D01*
X05922Y05361*
X05917Y05357*
X05913Y05352*
X05912Y0535*
X05911Y05345*
Y05309*
X05888*
Y05288*
X0585*
X05842Y05286*
X05837Y05282*
X05833Y05277*
X05831Y0527*
X05833Y05262*
X05837Y05257*
X05842Y05253*
X0585Y05251*
X05888*
Y0523*
X05912*
Y052*
X05912Y052*
X05911Y05195*
X05912Y05189*
X05913Y05187*
X05917Y05182*
X05922Y05178*
X05924Y05177*
X0593Y05176*
X05935Y05177*
X05937Y05178*
X05942Y05182*
X05944Y05183*
X05948Y05189*
X05948Y0519*
X05949Y05196*
Y0523*
X05973*
Y05309*
X05949*
Y05343*
X05948Y05349*
X05948Y0535*
X05944Y05356*
X05942Y05357*
X05937Y05361*
X05935Y05362*
X0593Y05363*
G37*
G36*
X02837Y05262D02*
X02762D01*
Y05187*
X02837*
Y05262*
G37*
G36*
X0794Y05284D02*
X07935Y05283D01*
X07931Y05281*
X07928Y05277*
X07927Y05272*
X07928Y05267*
X07931Y05263*
X07933Y05261*
X07937Y05258*
X07942Y05257*
X07947Y05258*
X07951Y05261*
X07953Y05265*
X07954Y0527*
X07953Y05274*
X07951Y05278*
X07948Y05281*
X07944Y05283*
X0794Y05284*
G37*
G36*
X02625Y05243D02*
X02617Y05241D01*
X02612Y05237*
X02608Y05232*
X02606Y05225*
X02608Y05217*
X02612Y05212*
X02617Y05208*
X02625Y05206*
X02632Y05208*
X02637Y05212*
X02641Y05217*
X02643Y05225*
X02641Y05232*
X02637Y05237*
X02632Y05241*
X02625Y05243*
G37*
G36*
X02825Y04768D02*
X02817Y04766D01*
X02812Y04762*
X02808Y04757*
X02806Y0475*
X02808Y04742*
X02812Y04737*
X02817Y04733*
X02825Y04731*
X02832Y04733*
X02837Y04737*
X02841Y04742*
X02843Y0475*
X02841Y04757*
X02837Y04762*
X02832Y04766*
X02825Y04768*
G37*
G36*
X098Y04733D02*
X09792Y04731D01*
X09787Y04727*
X09783Y04721*
X09781Y04714*
X09783Y04707*
X09787Y04701*
X09792Y04697*
X098Y04696*
X09807Y04697*
X09812Y04701*
X09816Y04707*
X09818Y04714*
X09816Y04721*
X09812Y04727*
X09807Y04731*
X098Y04733*
G37*
G36*
X02225Y04862D02*
X02218Y04861D01*
X02212Y04857*
X02208Y04851*
X02207Y04844*
X02208Y04837*
X02212Y04831*
X02213Y0483*
Y04801*
X022*
Y04753*
X02251*
Y04801*
X02238*
Y0483*
X02238Y04831*
X02242Y04837*
X02244Y04844*
X02242Y04851*
X02238Y04857*
X02232Y04861*
X02225Y04862*
G37*
G36*
X02975Y04793D02*
X02967Y04791D01*
X02962Y04787*
X02958Y04782*
X02956Y04775*
X02958Y04767*
X02962Y04762*
X02967Y04758*
X02975Y04756*
X02982Y04758*
X02987Y04762*
X02991Y04767*
X02993Y04775*
X02991Y04782*
X02987Y04787*
X02982Y04791*
X02975Y04793*
G37*
G36*
X023Y04858D02*
X02293Y04856D01*
X02287Y04852*
X02283Y04847*
X02281Y0484*
X02283Y04832*
X02287Y04827*
X02288Y04825*
Y04801*
X02275*
Y04753*
X02326*
Y04801*
X02313*
Y04827*
X02316Y04832*
X02318Y0484*
X02316Y04847*
X02313Y04852*
X02307Y04856*
X023Y04858*
G37*
G36*
X02326Y04746D02*
X02275D01*
Y04698*
X02288*
Y04679*
X02287Y04677*
X02283Y04672*
X02281Y04665*
X02283Y04657*
X02287Y04652*
X02293Y04648*
X023Y04646*
X02307Y04648*
X02313Y04652*
X02316Y04657*
X02318Y04665*
X02316Y04672*
X02313Y04677*
Y04698*
X02326*
Y04746*
G37*
G36*
X05775Y0453D02*
X0576Y04528D01*
X05747Y04523*
X05735Y04514*
X05726Y04502*
X05721Y04489*
X05719Y04475*
X05721Y0446*
X05726Y04447*
X05735Y04435*
X05747Y04426*
X0576Y04421*
X05775Y04419*
X05789Y04421*
X05802Y04426*
X05814Y04435*
X05823Y04447*
X05828Y0446*
X0583Y04475*
X05828Y04489*
X05823Y04502*
X05814Y04514*
X05802Y04523*
X05789Y04528*
X05775Y0453*
G37*
G36*
X05225D02*
X0521Y04528D01*
X05197Y04523*
X05185Y04514*
X05176Y04502*
X05171Y04489*
X05169Y04475*
X05171Y0446*
X05176Y04447*
X05185Y04435*
X05197Y04426*
X0521Y04421*
X05225Y04419*
X05239Y04421*
X05252Y04426*
X05264Y04435*
X05273Y04447*
X05278Y0446*
X0528Y04475*
X05278Y04489*
X05273Y04502*
X05264Y04514*
X05252Y04523*
X05239Y04528*
X05225Y0453*
G37*
G36*
X0967Y04643D02*
X09663Y04642D01*
X09657Y04638*
X09653Y04632*
X09652Y04625*
X09653Y04618*
X09657Y04612*
X09663Y04608*
X0967Y04607*
X09677Y04608*
X09683Y04612*
X09687Y04618*
X09688Y04625*
X09687Y04632*
X09683Y04638*
X09677Y04642*
X0967Y04643*
G37*
G36*
X02251Y04746D02*
X022D01*
Y04698*
X02213*
Y04679*
X02212Y04677*
X02208Y04672*
X02206Y04665*
X02208Y04657*
X02212Y04652*
X02218Y04648*
X02225Y04646*
X02232Y04648*
X02238Y04652*
X02241Y04657*
X02243Y04665*
X02241Y04672*
X02238Y04677*
Y04698*
X02251*
Y04746*
G37*
G36*
X09931Y04651D02*
X09924Y0465D01*
X09918Y04646*
X09914Y0464*
X09913Y04633*
X09914Y04626*
X09918Y0462*
X09924Y04616*
X09931Y04615*
X09938Y04616*
X09944Y0462*
X09948Y04626*
X09949Y04633*
X09948Y0464*
X09944Y04646*
X09938Y0465*
X09931Y04651*
G37*
G36*
X09575Y05005D02*
X0956Y05003D01*
X09547Y04998*
X09535Y04989*
X09526Y04977*
X09521Y04964*
X09519Y0495*
X09521Y04935*
X09526Y04922*
X09535Y0491*
X09547Y04901*
X0956Y04896*
X09575Y04894*
X09589Y04896*
X09602Y04901*
X09614Y0491*
X09623Y04922*
X09628Y04935*
X0963Y0495*
X09628Y04964*
X09623Y04977*
X09614Y04989*
X09602Y04998*
X09589Y05003*
X09575Y05005*
G37*
G36*
X03125Y04893D02*
X03117Y04891D01*
X03112Y04887*
X03108Y04882*
X03106Y04875*
X03108Y04867*
X03112Y04862*
X03117Y04858*
X03125Y04856*
X03132Y04858*
X03137Y04862*
X03141Y04867*
X03143Y04875*
X03141Y04882*
X03137Y04887*
X03132Y04891*
X03125Y04893*
G37*
G36*
X09775Y05005D02*
X0976Y05003D01*
X09747Y04998*
X09735Y04989*
X09726Y04977*
X09721Y04964*
X09719Y0495*
X09721Y04935*
X09726Y04922*
X09735Y0491*
X09747Y04901*
X0976Y04896*
X09775Y04894*
X09789Y04896*
X09802Y04901*
X09814Y0491*
X09823Y04922*
X09828Y04935*
X0983Y0495*
X09828Y04964*
X09823Y04977*
X09814Y04989*
X09802Y04998*
X09789Y05003*
X09775Y05005*
G37*
G36*
X03275Y04943D02*
X03267Y04941D01*
X03262Y04937*
X03258Y04932*
X03256Y04925*
X03258Y04917*
X03262Y04912*
X03267Y04908*
X03275Y04906*
X03282Y04908*
X03287Y04912*
X03291Y04917*
X03293Y04925*
X03291Y04932*
X03287Y04937*
X03282Y04941*
X03275Y04943*
G37*
G36*
X029Y05262D02*
X0289Y05261D01*
X02881Y05257*
X02873Y05251*
X02867Y05243*
X02863Y05234*
X02862Y05225*
X02863Y05215*
X02867Y05206*
X02873Y05198*
X02881Y05192*
X02887Y05189*
Y04938*
X02887Y04937*
X02883Y04932*
X02881Y04925*
X02883Y04917*
X02887Y04912*
X02892Y04908*
X029Y04906*
X02907Y04908*
X02912Y04912*
X02916Y04917*
X02918Y04925*
X02916Y04932*
X02912Y04937*
X02912Y04938*
Y05189*
X02918Y05192*
X02926Y05198*
X02932Y05206*
X02936Y05215*
X02937Y05225*
X02936Y05234*
X02932Y05243*
X02926Y05251*
X02918Y05257*
X02909Y05261*
X029Y05262*
G37*
G36*
X02975Y04893D02*
X02967Y04891D01*
X02962Y04887*
X02958Y04882*
X02956Y04875*
X02958Y04867*
X02962Y04862*
X02967Y04858*
X02975Y04856*
X02982Y04858*
X02987Y04862*
X02991Y04867*
X02993Y04875*
X02991Y04882*
X02987Y04887*
X02982Y04891*
X02975Y04893*
G37*
G36*
X02375Y04858D02*
X02368Y04856D01*
X02362Y04852*
X02358Y04847*
X02356Y0484*
X02358Y04832*
X02362Y04827*
X02363Y04825*
Y04809*
X0234*
Y04749*
Y0469*
X02363*
Y04679*
X02362Y04677*
X02358Y04672*
X02356Y04665*
X02358Y04657*
X02362Y04652*
X02368Y04648*
X02375Y04646*
X02382Y04648*
X02388Y04652*
X02391Y04657*
X02393Y04665*
X02391Y04672*
X02388Y04677*
Y0469*
X02409*
X02412Y04687*
X02417Y04683*
X02425Y04681*
X02432Y04683*
X02437Y04687*
X02441Y04692*
X02443Y047*
X02441Y04707*
X02437Y04712*
X02432Y04716*
X02425Y04718*
X02417Y04716*
X02415Y04715*
X02411Y04717*
Y04722*
X02415Y04724*
X02417Y04723*
X02425Y04721*
X02432Y04723*
X02437Y04727*
X02441Y04732*
X02443Y0474*
X02441Y04747*
X02437Y04752*
X02432Y04756*
X02437Y04762*
X02441Y04767*
X02443Y04775*
X02441Y04782*
X02437Y04787*
X02432Y04791*
X02425Y04793*
X02417Y04791*
X02415Y0479*
X02411Y04792*
Y04809*
X02388*
Y04827*
X02391Y04832*
X02393Y0484*
X02391Y04847*
X02388Y04852*
X02382Y04856*
X02375Y04858*
G37*
G36*
X03125Y04793D02*
X03117Y04791D01*
X03112Y04787*
X03108Y04782*
X03106Y04775*
X03108Y04767*
X03112Y04762*
X03117Y04758*
X03125Y04756*
X03132Y04758*
X03137Y04762*
X03141Y04767*
X03143Y04775*
X03141Y04782*
X03137Y04787*
X03132Y04791*
X03125Y04793*
G37*
G36*
X02825Y04818D02*
X02817Y04816D01*
X02812Y04812*
X02808Y04807*
X02806Y048*
X02808Y04792*
X02812Y04787*
X02817Y04783*
X02825Y04781*
X02832Y04783*
X02837Y04787*
X02841Y04792*
X02843Y048*
X02841Y04807*
X02837Y04812*
X02832Y04816*
X02825Y04818*
G37*
G36*
X0325Y04868D02*
X03242Y04866D01*
X03237Y04862*
X03233Y04857*
X03231Y0485*
X03233Y04842*
X03237Y04837*
X03242Y04833*
X0325Y04831*
X03257Y04833*
X03262Y04837*
X03266Y04842*
X03268Y0485*
X03266Y04857*
X03262Y04862*
X03257Y04866*
X0325Y04868*
G37*
G36*
Y04818D02*
X03242Y04816D01*
X03237Y04812*
X03233Y04807*
X03231Y048*
X03233Y04792*
X03237Y04787*
X03242Y04783*
X0325Y04781*
X03257Y04783*
X03262Y04787*
X03266Y04792*
X03268Y048*
X03266Y04807*
X03262Y04812*
X03257Y04816*
X0325Y04818*
G37*
G36*
X0667Y05337D02*
X06665Y05336D01*
X06661Y05333*
X06658Y05329*
X06657Y05325*
X06658Y0532*
X06661Y05316*
X06663Y05313*
X06667Y05311*
X06672Y0531*
X06715*
X06719Y05311*
X06723Y05313*
X06726Y05317*
X06727Y05322*
X06726Y05327*
X06723Y05331*
X06719Y05333*
X06715Y05334*
X06677*
X06674Y05336*
X0667Y05337*
G37*
G36*
X05787Y05537D02*
X05712D01*
Y05462*
X05787*
Y05537*
G37*
G36*
X09402Y05708D02*
X09395Y05706D01*
X09389Y05702*
X09385Y05697*
X09384Y0569*
X09385Y05682*
X09389Y05677*
X09395Y05673*
X09402Y05671*
X09409Y05673*
X09415Y05677*
X09419Y05682*
X0942Y0569*
X09419Y05697*
X09415Y05702*
X09409Y05706*
X09402Y05708*
G37*
G36*
X09247D02*
X0924Y05706D01*
X09234Y05702*
X0923Y05697*
X09229Y0569*
X0923Y05682*
X09234Y05677*
X0924Y05673*
X09247Y05671*
X09254Y05673*
X0926Y05677*
X09264Y05682*
X09265Y0569*
X09264Y05697*
X0926Y05702*
X09254Y05706*
X09247Y05708*
G37*
G36*
X06636Y05664D02*
X06629Y05663D01*
X06623Y05659*
X06619Y05653*
X06618Y05646*
X06619Y05639*
X06623Y05633*
X06629Y05629*
X06636Y05627*
X06643Y05629*
X06649Y05633*
X06653Y05639*
X06654Y05646*
X06653Y05653*
X06649Y05659*
X06643Y05663*
X06636Y05664*
G37*
G36*
X05975Y05543D02*
X05967Y05541D01*
X05962Y05537*
X05958Y05532*
X05956Y05525*
X05958Y05517*
X05962Y05512*
X05967Y05508*
X05975Y05506*
X05982Y05508*
X05987Y05512*
X05991Y05517*
X05993Y05525*
X05991Y05532*
X05987Y05537*
X05982Y05541*
X05975Y05543*
G37*
G36*
X025Y05694D02*
X02492Y05692D01*
X02486Y05688*
X02485Y05686*
X0248*
X02479Y05688*
X02472Y05692*
X02465Y05694*
X02457Y05692*
X02451Y05688*
X0245Y05686*
X02445*
X02444Y05688*
X02437Y05692*
X0243Y05694*
X02422Y05692*
X02416Y05688*
X02415Y05686*
X0241*
X02409Y05688*
X02402Y05692*
X02395Y05694*
X02387Y05692*
X02381Y05688*
X02377Y05682*
X02375Y05675*
X02377Y05667*
X02381Y05661*
X02387Y05657*
X02395Y05655*
X02402Y05657*
X02409Y05661*
X0241Y05663*
X02415*
X02416Y05661*
X02422Y05657*
X0243Y05655*
X02437Y05657*
X02444Y05661*
X02445Y05663*
X0245*
X02451Y05661*
X02457Y05657*
X02465Y05655*
X02472Y05657*
X02479Y05661*
X0248Y05663*
X02485*
X02486Y05661*
X02492Y05657*
X025Y05655*
X02507Y05657*
X02514Y05661*
X02518Y05667*
X02519Y05675*
X02518Y05682*
X02514Y05688*
X02507Y05692*
X025Y05694*
G37*
G36*
X09375Y05497D02*
X09366Y05495D01*
X09359Y0549*
X09354Y05483*
X09352Y05475*
X09354Y05466*
X09359Y05459*
X09366Y05454*
X09375Y05452*
X09383Y05454*
X0939Y05459*
X09395Y05466*
X09397Y05475*
X09395Y05483*
X0939Y0549*
X09383Y05495*
X09375Y05497*
G37*
G36*
X0245Y05493D02*
X02442Y05491D01*
X02437Y05487*
X02433Y05482*
X02431Y05475*
X02433Y05467*
X02437Y05462*
X02442Y05458*
X0245Y05456*
X02457Y05458*
X02462Y05462*
X02466Y05467*
X02468Y05475*
X02466Y05482*
X02462Y05487*
X02457Y05491*
X0245Y05493*
G37*
G36*
X0839Y05713D02*
X08382Y05711D01*
X08377Y05707*
X08376Y05707*
X07945*
X0794Y05706*
X07936Y05703*
X079Y05668*
X079Y05668*
X07892Y05666*
X07887Y05662*
X07883Y05657*
X07881Y0565*
X07883Y05642*
X07887Y05637*
X07892Y05633*
X079Y05631*
X07907Y05633*
X07912Y05637*
X07916Y05642*
X07918Y0565*
X07918Y0565*
X0795Y05682*
X08376*
X08377Y05682*
X08382Y05678*
X0839Y05676*
X08397Y05678*
X08402Y05682*
X08406Y05687*
X08408Y05695*
X08406Y05702*
X08402Y05707*
X08397Y05711*
X0839Y05713*
G37*
G36*
X0265Y05493D02*
X02642Y05491D01*
X02637Y05487*
X02633Y05482*
X02631Y05475*
X02633Y05467*
X02637Y05462*
X02642Y05458*
X0265Y05456*
X02657Y05458*
X02662Y05462*
X02666Y05467*
X02668Y05475*
X02666Y05482*
X02662Y05487*
X02657Y05491*
X0265Y05493*
G37*
G36*
X033Y05553D02*
X03292Y05551D01*
X03287Y05547*
X03283Y05542*
X03281Y05535*
X03283Y05527*
X03287Y05522*
X03292Y05518*
X033Y05516*
X03307Y05518*
X03312Y05522*
X03316Y05527*
X03318Y05535*
X03316Y05542*
X03312Y05547*
X03307Y05551*
X033Y05553*
G37*
G36*
X0934Y05633D02*
X09332Y05631D01*
X09327Y05627*
X09323Y05622*
X09322Y05619*
X09317*
X09316Y05622*
X09312Y05627*
X09307Y05631*
X093Y05633*
X09292Y05631*
X09287Y05627*
X09283Y05622*
X09281Y05615*
X09283Y05607*
X09287Y05602*
X09292Y05598*
X093Y05596*
X09307Y05598*
X09312Y05602*
X09316Y05607*
X09317Y0561*
X09322*
X09323Y05607*
X09327Y05602*
X09332Y05598*
X0934Y05596*
X09347Y05598*
X09352Y05602*
X09356Y05607*
X09358Y05615*
X09356Y05622*
X09352Y05627*
X09347Y05631*
X0934Y05633*
G37*
G36*
X06636Y05569D02*
X06629Y05568D01*
X06623Y05564*
X06619Y05558*
X06618Y05551*
X06619Y05544*
X06623Y05538*
X06629Y05534*
X06636Y05533*
X06643Y05534*
X06649Y05538*
X06653Y05544*
X06654Y05551*
X06653Y05558*
X06649Y05564*
X06643Y05568*
X06636Y05569*
G37*
G36*
X0797Y05667D02*
X07961Y05665D01*
X07954Y0566*
X07949Y05653*
X07947Y05645*
X07949Y05636*
X07954Y05629*
X07961Y05624*
X0797Y05622*
X07978Y05624*
X07985Y05629*
X0799Y05636*
X07992Y05645*
X0799Y05653*
X07985Y0566*
X07978Y05665*
X0797Y05667*
G37*
G36*
X08415D02*
X08406Y05665D01*
X08399Y0566*
X08394Y05653*
X08392Y05645*
X08394Y05636*
X08399Y05629*
X08406Y05624*
X08415Y05622*
X08423Y05624*
X0843Y05629*
X08435Y05636*
X08437Y05645*
X08435Y05653*
X0843Y0566*
X08423Y05665*
X08415Y05667*
G37*
G36*
X06263Y05664D02*
X06256Y05663D01*
X0625Y05659*
X06246Y05653*
X06245Y05646*
X06246Y05639*
X0625Y05633*
X06256Y05629*
X06263Y05627*
X0627Y05629*
X06276Y05633*
X0628Y05639*
X06281Y05646*
X0628Y05653*
X06276Y05659*
X0627Y05663*
X06263Y05664*
G37*
G36*
X02675Y05568D02*
X02667Y05566D01*
X02662Y05562*
X02658Y05557*
X02656Y0555*
X02658Y05542*
X02662Y05537*
X02667Y05533*
X02675Y05531*
X02682Y05533*
X02687Y05537*
X02691Y05542*
X02693Y0555*
X02691Y05557*
X02687Y05562*
X02682Y05566*
X02675Y05568*
G37*
G36*
X08415Y05572D02*
X08406Y0557D01*
X08399Y05565*
X08394Y05558*
X08392Y0555*
X08394Y05541*
X08399Y05534*
X08406Y05529*
X08415Y05527*
X08423Y05529*
X0843Y05534*
X08435Y05541*
X08437Y0555*
X08435Y05558*
X0843Y05565*
X08423Y0557*
X08415Y05572*
G37*
G36*
X0312Y05568D02*
X03112Y05566D01*
X03107Y05562*
X03103Y05557*
X03101Y0555*
X03103Y05542*
X03107Y05537*
X03112Y05533*
X0312Y05531*
X03127Y05533*
X03132Y05537*
X03136Y05542*
X03138Y0555*
X03136Y05557*
X03132Y05562*
X03127Y05566*
X0312Y05568*
G37*
G36*
X06263Y05569D02*
X06256Y05568D01*
X0625Y05564*
X06246Y05558*
X06245Y05551*
X06246Y05544*
X0625Y05538*
X06256Y05534*
X06263Y05533*
X0627Y05534*
X06276Y05538*
X0628Y05544*
X06281Y05551*
X0628Y05558*
X06276Y05564*
X0627Y05568*
X06263Y05569*
G37*
G36*
X0797Y05577D02*
X07961Y05575D01*
X07954Y0557*
X07949Y05563*
X07947Y05555*
X07949Y05546*
X07954Y05539*
X07961Y05534*
X0797Y05532*
X07978Y05534*
X07985Y05539*
X0799Y05546*
X07992Y05555*
X0799Y05563*
X07985Y0557*
X07978Y05575*
X0797Y05577*
G37*
G36*
X06715Y05452D02*
X06706Y0545D01*
X06699Y05445*
X06694Y05438*
X06692Y0543*
X06694Y05421*
X06699Y05414*
X06702Y05411*
Y05401*
X06689*
Y05353*
X0674*
Y05401*
X06727*
Y05411*
X0673Y05414*
X06735Y05421*
X06737Y0543*
X06735Y05438*
X0673Y05445*
X06723Y0545*
X06715Y05452*
G37*
G36*
X06636Y0538D02*
X06629Y05379D01*
X06623Y05375*
X06619Y05369*
X06618Y05362*
X06619Y05355*
X06623Y05349*
X06629Y05345*
X06636Y05344*
X06643Y05345*
X06649Y05349*
X06653Y05355*
X06654Y05362*
X06653Y05369*
X06649Y05375*
X06643Y05379*
X06636Y0538*
G37*
G36*
X0679Y05452D02*
X06781Y0545D01*
X06774Y05445*
X06769Y05438*
X06767Y0543*
X06769Y05421*
X06774Y05414*
X06777Y05411*
Y05401*
X06764*
Y05353*
X06815*
Y05401*
X06802*
Y05411*
X06805Y05414*
X0681Y05421*
X06812Y0543*
X0681Y05438*
X06805Y05445*
X06798Y0545*
X0679Y05452*
G37*
G36*
X02475Y05393D02*
X02467Y05391D01*
X02462Y05387*
X02458Y05382*
X02456Y05375*
X02458Y05367*
X02462Y05362*
X02467Y05358*
X02475Y05356*
X02482Y05358*
X02487Y05362*
X02491Y05367*
X02493Y05375*
X02491Y05382*
X02487Y05387*
X02482Y05391*
X02475Y05393*
G37*
G36*
X02325D02*
X02317Y05391D01*
X02312Y05387*
X02308Y05382*
X02306Y05375*
X02308Y05367*
X02312Y05362*
X02317Y05358*
X02325Y05356*
X02332Y05358*
X02337Y05362*
X02341Y05367*
X02343Y05375*
X02341Y05382*
X02337Y05387*
X02332Y05391*
X02325Y05393*
G37*
G36*
X033Y05348D02*
X03292Y05346D01*
X03287Y05342*
X03283Y05337*
X03281Y0533*
X03283Y05322*
X03287Y05317*
X03292Y05313*
X033Y05311*
X03307Y05313*
X03312Y05317*
X03316Y05322*
X03318Y0533*
X03316Y05337*
X03312Y05342*
X03307Y05346*
X033Y05348*
G37*
G36*
X0797Y05762D02*
X07961Y0576D01*
X07954Y05755*
X07949Y05748*
X07947Y0574*
X07949Y05731*
X07954Y05724*
X07961Y05719*
X0797Y05717*
X07978Y05719*
X07985Y05724*
X0799Y05731*
X07992Y0574*
X0799Y05748*
X07985Y05755*
X07978Y0576*
X0797Y05762*
G37*
G36*
X01662Y05412D02*
X01587D01*
Y05337*
X01662*
Y05412*
G37*
G36*
X08415Y05387D02*
X08406Y05385D01*
X08399Y0538*
X08394Y05373*
X08392Y05365*
X08394Y05356*
X08399Y05349*
X08406Y05344*
X08415Y05342*
X08423Y05344*
X0843Y05349*
X08435Y05356*
X08437Y05365*
X08435Y05373*
X0843Y0538*
X08423Y05385*
X08415Y05387*
G37*
G36*
X0802D02*
X08011Y05385D01*
X08004Y0538*
X07999Y05373*
X07997Y05365*
X07999Y05356*
X08004Y05349*
X08011Y05344*
X0802Y05342*
X08028Y05344*
X08035Y05349*
X0804Y05356*
X08042Y05365*
X0804Y05373*
X08035Y0538*
X08028Y05385*
X0802Y05387*
G37*
G36*
X0265Y05393D02*
X02642Y05391D01*
X02637Y05387*
X02633Y05382*
X02631Y05375*
X02633Y05367*
X02637Y05362*
X02642Y05358*
X0265Y05356*
X02657Y05358*
X02662Y05362*
X02666Y05367*
X02668Y05375*
X02666Y05382*
X02662Y05387*
X02657Y05391*
X0265Y05393*
G37*
G36*
X093Y05453D02*
X09292Y05451D01*
X09287Y05447*
X09283Y05442*
X09281Y05435*
X09283Y05427*
X09287Y05422*
X09292Y05418*
X093Y05416*
X09307Y05418*
X09312Y05422*
X09316Y05427*
X09318Y05435*
X09316Y05442*
X09312Y05447*
X09307Y05451*
X093Y05453*
G37*
G36*
X02837Y05487D02*
X02762D01*
Y05412*
X02837*
Y05487*
G37*
G36*
X07985Y05477D02*
X07976Y05475D01*
X07969Y0547*
X07964Y05463*
X07962Y05455*
X07964Y05446*
X07969Y05439*
X07976Y05434*
X07985Y05432*
X07993Y05434*
X08Y05439*
X08005Y05446*
X08007Y05455*
X08005Y05463*
X08Y0547*
X07993Y05475*
X07985Y05477*
G37*
G36*
X06636Y05475D02*
X06629Y05474D01*
X06623Y0547*
X06619Y05464*
X06618Y05457*
X06619Y0545*
X06623Y05444*
X06629Y0544*
X06636Y05438*
X06643Y0544*
X06649Y05444*
X06653Y0545*
X06654Y05457*
X06653Y05464*
X06649Y0547*
X06643Y05474*
X06636Y05475*
G37*
G36*
X08415Y05477D02*
X08406Y05475D01*
X08399Y0547*
X08394Y05463*
X08392Y05455*
X08394Y05446*
X08399Y05439*
X08406Y05434*
X08415Y05432*
X08423Y05434*
X0843Y05439*
X08435Y05446*
X08437Y05455*
X08435Y05463*
X0843Y0547*
X08423Y05475*
X08415Y05477*
G37*
G36*
X03Y05487D02*
X0299Y05486D01*
X02981Y05482*
X02973Y05476*
X02967Y05468*
X02963Y05459*
X02962Y0545*
X02963Y0544*
X02967Y05431*
X02973Y05423*
X02981Y05417*
X0299Y05413*
X03Y05412*
X03009Y05413*
X03018Y05417*
X03026Y05423*
X03032Y05431*
X03036Y0544*
X03037Y0545*
X03036Y05459*
X03032Y05468*
X03026Y05476*
X03018Y05482*
X03009Y05486*
X03Y05487*
G37*
G36*
X094Y05393D02*
X09392Y05391D01*
X09387Y05387*
X09383Y05382*
X09381Y05375*
X09383Y05367*
X09387Y05362*
X09392Y05358*
X094Y05356*
X09407Y05358*
X09412Y05362*
X09416Y05367*
X09418Y05375*
X09416Y05382*
X09412Y05387*
X09407Y05391*
X094Y05393*
G37*
G36*
X0925D02*
X09242Y05391D01*
X09237Y05387*
X09233Y05382*
X09231Y05375*
X09233Y05367*
X09237Y05362*
X09242Y05358*
X0925Y05356*
X09257Y05358*
X09262Y05362*
X09266Y05367*
X09268Y05375*
X09266Y05382*
X09262Y05387*
X09257Y05391*
X0925Y05393*
G37*
G36*
X029Y05487D02*
X0289Y05486D01*
X02881Y05482*
X02873Y05476*
X02867Y05468*
X02863Y05459*
X02862Y0545*
X02863Y0544*
X02867Y05431*
X02873Y05423*
X02881Y05417*
X0289Y05413*
X029Y05412*
X02909Y05413*
X02918Y05417*
X02926Y05423*
X02932Y05431*
X02936Y0544*
X02937Y0545*
X02936Y05459*
X02932Y05468*
X02926Y05476*
X02918Y05482*
X02909Y05486*
X029Y05487*
G37*
G36*
X02425Y05443D02*
X02417Y05441D01*
X02412Y05437*
X02408Y05432*
X02406Y05425*
X02408Y05417*
X02412Y05412*
X02417Y05408*
X02425Y05406*
X02432Y05408*
X02437Y05412*
X02441Y05417*
X02443Y05425*
X02441Y05432*
X02437Y05437*
X02432Y05441*
X02425Y05443*
G37*
%LNdsau-motherboard-reva-3*%
%LPD*%
G36*
X09042Y05887D02*
X09047Y05883D01*
X09045Y05878*
X08525*
X08525Y05879*
X08519Y05882*
X08521Y05887*
X09041*
X09042Y05887*
G37*
G36*
X05107Y07206D02*
X05113Y07198D01*
X05121Y07192*
X0513Y07188*
X0514Y07187*
X05149Y07188*
X05158Y07192*
X05166Y07198*
X05168Y07199*
X05172Y07198*
Y0715*
X05173Y07145*
X05176Y07141*
X05353Y06963*
X05351Y06959*
X05298*
X05102Y07155*
Y07205*
X05107Y07206*
X05107Y07206*
G37*
G36*
X05203Y07215D02*
X05207Y07206D01*
X05213Y07198*
X05221Y07192*
X0523Y07188*
X0524Y07187*
X05249Y07188*
X05258Y07192*
X05266Y07198*
X05272Y07206*
X05272Y07206*
X05277Y07205*
Y0715*
X05278Y07145*
X05281Y07141*
X05439Y06983*
X05437Y06979*
X05373*
X05197Y07155*
Y07222*
X05199Y07224*
X052Y07224*
X05202Y07224*
X05203Y07215*
G37*
G36*
X0685Y06633D02*
X06849Y06631D01*
X06845Y06632*
X03558*
X03557Y06632*
X03552Y06636*
X03552Y06636*
X03552Y06637*
X06847*
X0685Y06633*
G37*
G36*
X05007Y07206D02*
X05013Y07198D01*
X05021Y07192*
X0503Y07188*
X0504Y07187*
X05049Y07188*
X05058Y07192*
X05066Y07198*
X05072Y07206*
X05072Y07206*
X05077Y07205*
Y0715*
X05078Y07145*
X05081Y07141*
X0528Y06941*
X05278Y06937*
X0522*
X05002Y07155*
Y07205*
X05007Y07206*
X05007Y07206*
G37*
G36*
X05503Y07215D02*
X05507Y07206D01*
X05513Y07198*
X05521Y07192*
X0553Y07188*
X0554Y07187*
X05549Y07188*
X05558Y07192*
X05566Y07198*
X05572Y07206*
X05572Y07206*
X05577Y07205*
Y07085*
X05578Y0708*
X05581Y07076*
X05614Y07043*
X05612Y07038*
X05573*
X05497Y07115*
Y07222*
X05499Y07224*
X055Y07224*
X05502Y07224*
X05503Y07215*
G37*
G36*
X05679Y07224D02*
D01*
X0568Y07224*
X05682Y07222*
Y0709*
X05683Y07085*
X05686Y07081*
X05704Y07062*
X05702Y07058*
X05634*
X05602Y0709*
Y07205*
X05607Y07206*
X05607Y07206*
X05613Y07198*
X05621Y07192*
X0563Y07188*
X0564Y07187*
X05649Y07188*
X05658Y07192*
X05666Y07198*
X05672Y07206*
X05676Y07215*
X05677Y07224*
X05679Y07224*
G37*
G36*
X05307Y07206D02*
X05313Y07198D01*
X05321Y07192*
X0533Y07188*
X0534Y07187*
X05349Y07188*
X05358Y07192*
X05366Y07198*
X05372Y07206*
X05372Y07206*
X05377Y07205*
Y0715*
X05378Y07145*
X05381Y07141*
X05519Y07003*
X05517Y06998*
X05458*
X05302Y07155*
Y07205*
X05307Y07206*
X05307Y07206*
G37*
G36*
X05407D02*
X05413Y07198D01*
X05421Y07192*
X0543Y07188*
X0544Y07187*
X05449Y07188*
X05458Y07192*
X05466Y07198*
X05468Y07199*
X05472Y07198*
Y0711*
X05473Y07105*
X05476Y07101*
X05554Y07023*
X05552Y07018*
X05538*
X05402Y07155*
Y07205*
X05407Y07206*
X05407Y07206*
G37*
G54D16*
X06078Y0527D03*
G54D17*
X05931Y0527D03*
G54D19*
X03938Y05715D03*
X03993D03*
Y0564D03*
X03938D03*
X04627Y05639D03*
X04572D03*
Y05699D03*
X04627D03*
X05263Y0565D03*
X05208D03*
Y05715D03*
X05263D03*
X05953Y0504D03*
X05898D03*
X07567Y02972D03*
X07512D03*
X07577Y0275D03*
X07522D03*
X08187Y02775D03*
X08242D03*
X08187Y02725D03*
X08242D03*
X08187Y0315D03*
X08242D03*
X08567Y028D03*
X08512D03*
X07877Y032D03*
X07822D03*
X08187Y0305D03*
X08242D03*
G54D20*
X06065Y04952D03*
Y04897D03*
X0614Y04952D03*
Y04897D03*
X0674D03*
Y04952D03*
X06815Y04897D03*
Y04952D03*
X06793Y05197D03*
Y05252D03*
X06718Y05197D03*
Y05252D03*
X06868Y05197D03*
Y05252D03*
X06715Y05322D03*
Y05377D03*
X0679Y05322D03*
Y05377D03*
X08515Y04947D03*
Y05002D03*
Y04852D03*
Y04797D03*
X0859Y04852D03*
Y04797D03*
X07865Y04877D03*
Y04822D03*
X0794Y04877D03*
Y04822D03*
Y05202D03*
Y05147D03*
Y05272D03*
Y05327D03*
X07865Y05272D03*
Y05327D03*
Y05202D03*
Y05147D03*
X023Y04722D03*
Y04777D03*
X02225Y04722D03*
Y04777D03*
G54D21*
X05899Y0491D03*
Y04969D03*
X0859Y04945D03*
Y05004D03*
X02375Y04779D03*
Y0472D03*
G54D40*
X07295Y02975D03*
X07354D03*
X0751Y03047D03*
X07569D03*
X0753Y0264D03*
X07589D03*
X0851Y02725D03*
X08569D03*
G54D64*
X04775Y04775D02*
Y04825D01*
X04725Y04725D02*
X04775Y04775D01*
X0815Y02775D02*
D01*
X08187*
X04875Y02375D02*
Y0265D01*
X05625Y02375D02*
Y02725D01*
X061Y04225D02*
X06175Y043D01*
X061Y02375D02*
Y04225D01*
X06175Y043D02*
Y05525D01*
X0864Y06375D02*
X0898D01*
X08485Y0634D02*
X08555Y0627D01*
X08485Y0634D02*
X0849D01*
X08555Y0627D02*
X0899D01*
X0478Y06565D02*
X0682D01*
X07587Y05797*
X04572Y05772D02*
X04575Y05775D01*
X04572Y05699D02*
Y05772D01*
X04625Y05775D02*
X04627Y05772D01*
Y05699D02*
Y05772D01*
Y05699D02*
D01*
Y05639D02*
Y05699D01*
X0459Y0559D02*
Y05595D01*
X04585D02*
X0459D01*
X04572Y05607D02*
X04585Y05595D01*
X04572Y05607D02*
Y05639D01*
X03955Y05595D02*
X0396D01*
X03938Y05611D02*
X03955Y05595D01*
X03938Y05611D02*
Y0564D01*
Y05773D02*
X0394Y05775D01*
X03938Y05715D02*
Y05773D01*
X03993Y05715D02*
Y05773D01*
X03995Y05775*
X03993Y05715D02*
D01*
Y0564D02*
Y05715D01*
X05263Y0565D02*
D01*
Y05715*
Y05765D01*
Y05715D02*
D01*
D01*
X05208Y056D02*
Y0565D01*
Y05715D02*
Y05765D01*
X0593Y05268D02*
X05931Y0527D01*
X0593D02*
X05931D01*
X05899Y04855D02*
Y0491D01*
Y04855D02*
D01*
X06065Y04952D02*
Y04997D01*
Y04852D02*
Y04897D01*
X0674Y04952D02*
Y05002D01*
Y04852D02*
Y04897D01*
X06815Y04952D02*
Y05002D01*
Y04852D02*
Y04897D01*
X06793Y05252D02*
X06868D01*
X06793Y0515D02*
Y05197D01*
X0667Y05252D02*
X06718D01*
X06793Y0515D02*
D01*
X06868Y05252D02*
X06923D01*
X06718Y0515D02*
Y05197D01*
X06868Y0515D02*
Y05197D01*
X06668Y0525D02*
X0667Y05252D01*
X06718D02*
D01*
Y0515D02*
D01*
X06868Y05252D02*
D01*
Y0515D02*
D01*
X06715Y0543D02*
D01*
Y05377D02*
Y0543D01*
X06672Y05322D02*
X06715D01*
X0679D02*
X06842D01*
X0667Y05325D02*
X06672Y05322D01*
X0679Y0543D02*
D01*
Y05377D02*
Y0543D01*
X06842Y05322D02*
X06845Y0532D01*
X09275Y05775D02*
X095Y06D01*
X0905Y05775D02*
X09275D01*
X07225Y02975D02*
D01*
X07295*
X07437D02*
X0744Y02972D01*
X07354Y02975D02*
X07437D01*
X07875Y03275D02*
X07877Y03272D01*
Y032D02*
Y03272D01*
X07822Y03257D02*
X07825Y0326D01*
X07822Y032D02*
Y03257D01*
X07825Y02625D02*
X0812D01*
X08165Y0258*
X07665D02*
X0771Y02625D01*
X07825*
X08242Y02725D02*
X083D01*
X08242Y02775D02*
X08285D01*
X0829Y0277*
X08455Y02725D02*
X0851D01*
X0845Y0273D02*
X08455Y02725D01*
X0744Y02972D02*
X07512D01*
X0744D02*
D01*
X08187Y02725D02*
D01*
X07865Y05147D02*
X0794D01*
X07982*
X07985Y05145*
X0794Y05327D02*
X0794Y05327D01*
X0794Y05327D02*
Y0537D01*
X0859Y05004D02*
X08664D01*
X08665Y05005*
X08515Y05002D02*
Y05054D01*
X08515Y05055D02*
X08515Y05054D01*
X0794Y05272D02*
X07942Y0527D01*
X07865Y05327D02*
Y05369D01*
X07865Y0537D02*
X07865Y05369D01*
X0745Y03047D02*
X0751D01*
X07425Y03022D02*
X0745Y03047D01*
X08242Y0305D02*
X08275D01*
X08295Y0307*
X08187Y0305D02*
Y03092D01*
X08185Y03095D02*
X08187Y03092D01*
X08242Y0315D02*
X08295D01*
X08135D02*
X08187D01*
X08135D02*
D01*
X07522Y0275D02*
D01*
X07475Y0264D02*
X0753D01*
X07475D02*
D01*
Y0275D02*
X07522D01*
X07475D02*
D01*
X08145Y02725D02*
X08187D01*
X08145D02*
D01*
X087Y06725D02*
Y0675D01*
X08525Y06725D02*
Y0675D01*
X08875Y06725D02*
Y0675D01*
X085Y067D02*
X08525Y06725D01*
X08659Y06684D02*
X087Y06725D01*
X08818Y06668D02*
X08875Y06725D01*
X08475Y06668D02*
X08818D01*
X0845Y06643D02*
X08475Y06668D01*
X08434Y06649D02*
X08468Y06684D01*
X08418Y06656D02*
X08461Y067D01*
X08225Y05875D02*
X08418Y06068D01*
X08147Y05775D02*
X08434Y06061D01*
X08347Y05952D02*
X0845Y06054D01*
X08461Y067D02*
X085D01*
X08418Y06068D02*
Y06656D01*
X08468Y06684D02*
X08659D01*
X08434Y06061D02*
Y06649D01*
X0845Y06054D02*
Y06643D01*
X08347Y05852D02*
Y05952D01*
Y05852D02*
X084Y058D01*
X08Y05775D02*
X08147D01*
X082Y05875D02*
X08225D01*
X07945Y05695D02*
X0839D01*
X079Y0565D02*
X07945Y05695D01*
X06854Y0665D02*
X07647Y05857D01*
X06831Y06594D02*
X07607Y05817D01*
X07675Y04175D02*
X07725Y04225D01*
X07675Y03175D02*
Y04175D01*
X08512Y05866D02*
X09071D01*
X09075D02*
X09103D01*
X08465Y059D02*
X09055D01*
X029Y04925D02*
Y05225D01*
X0494Y07325D02*
X0499Y07275D01*
X05967Y06947D02*
X05969Y06944D01*
X0504Y07325D02*
X0509Y07275D01*
X0499Y0715D02*
Y07275D01*
Y0715D02*
X05215Y06925D01*
X0595*
X0509Y0715D02*
Y07275D01*
Y0715D02*
X05293Y06947D01*
X05967*
X0514Y0732D02*
Y07325D01*
Y0732D02*
X05185Y07275D01*
Y0715D02*
Y07275D01*
Y0715D02*
X05368Y06966D01*
X05987*
X05989Y06964*
X06007Y06986D02*
X06009Y06984D01*
X0529Y0715D02*
Y07275D01*
X0524Y07325D02*
X0529Y07275D01*
X0534Y07325D02*
X0539Y07275D01*
Y0715D02*
Y07275D01*
Y0715D02*
X05533Y07006D01*
X06027D02*
X06029Y07004D01*
X05533Y07006D02*
X06027D01*
X05453Y06986D02*
X06007D01*
X0529Y0715D02*
X05453Y06986D01*
X0544Y07325D02*
X05485Y0728D01*
Y0711D02*
Y0728D01*
Y0711D02*
X05568Y07026D01*
X06046*
X06049Y07023*
X0554Y07325D02*
X0559Y07275D01*
Y07085D02*
X05629Y07046D01*
X0559Y07085D02*
Y07275D01*
X05629Y07046D02*
X06066D01*
X06068Y07043*
X0564Y07325D02*
X05695Y0727D01*
Y0709D02*
Y0727D01*
Y0709D02*
X05719Y07065D01*
X06086*
X06088Y07063*
X02735Y0675D02*
X047D01*
X04775Y06825*
X04825*
X07725Y04225D02*
X09035D01*
X09125*
X09035D02*
X09175D01*
X04763Y06548D02*
X0478Y06565D01*
X03815Y06548D02*
X04763D01*
X06845Y0662D02*
X07627Y05837D01*
X03545Y0662D02*
X06845D01*
X0341Y06594D02*
X06831D01*
X0327Y06595D02*
X03409D01*
X03155Y0665D02*
X0316D01*
X06854*
X02995D02*
X0316D01*
X02495Y06775D02*
X03955D01*
X0425Y06805D02*
Y06925D01*
X0422Y06775D02*
X0425Y06805D01*
X03955Y06775D02*
X0422D01*
X05625Y06024D02*
X05905D01*
X05625Y06025D02*
X05625Y06024D01*
X0533Y06845D02*
X05915D01*
X02375Y04665D02*
X02375Y04665D01*
X02375Y0484D02*
X02375Y04839D01*
Y04779D02*
Y04839D01*
X023Y04665D02*
X023Y04665D01*
X023Y0484D02*
X023Y04839D01*
X02225Y04665D02*
X02225Y04665D01*
X02225Y04845D02*
X02225Y04844D01*
X02375Y04665D02*
Y0472D01*
X023Y04665D02*
Y04722D01*
X02225Y04665D02*
Y04722D01*
X023Y04777D02*
Y04839D01*
X02225Y04777D02*
Y04844D01*
Y04777D02*
Y04844D01*
X08475Y07275D02*
X091D01*
X08025Y02675D02*
X09125D01*
X08Y027D02*
X08025Y02675D01*
X07125Y0275D02*
X073D01*
X07325Y02775*
Y02845*
X07295Y02875D02*
X07325Y02845D01*
X09125Y02675D02*
X0915Y027D01*
X0523Y06885D02*
X05675D01*
X08Y027D02*
Y0307D01*
X0818Y0325*
X09375*
X08Y0307D02*
Y03075D01*
X09072Y07297D02*
X091Y07325D01*
X08465Y07297D02*
X09072D01*
X08443Y07275D02*
X08465Y07297D01*
X08425Y07275D02*
X08443D01*
X049Y07D02*
Y071D01*
X07025Y02875D02*
X07295D01*
X0614Y04852D02*
Y04897D01*
X0627Y0486D02*
X06325D01*
X0634Y04845*
X0627Y0489D02*
X06317D01*
X0627Y04985D02*
X06271D01*
X06292Y04964*
Y04938D02*
Y04964D01*
X0627Y05015D02*
X06271D01*
X0634Y04225D02*
Y04845D01*
X06317Y0489D02*
X06356Y04851D01*
X06292Y04938D02*
X06372Y04858D01*
X06308Y04944D02*
X06388Y04864D01*
X06308Y04944D02*
Y04978D01*
X06271Y05015D02*
X06308Y04978D01*
X06265Y0509D02*
X06515Y0484D01*
X06265Y0512D02*
X06266D01*
X06531Y04855*
X06265Y05201D02*
X06268D01*
X06563Y04906*
X06458Y04346D02*
X06563Y0445D01*
X0641Y04175D02*
Y04365D01*
X06265Y05151D02*
Y05173D01*
Y05151D02*
X06547Y04869D01*
X06563Y0445D02*
Y04906D01*
X06547Y04456D02*
Y04869D01*
X06442Y04352D02*
X06547Y04456D01*
X06531Y04463D02*
Y04855D01*
X06426Y04359D02*
X06531Y04463D01*
X06515Y0447D02*
Y0484D01*
X0641Y04365D02*
X06515Y0447D01*
X06265Y0533D02*
X06365D01*
X06265Y053D02*
X06365D01*
X06265Y05425D02*
X06365D01*
Y053D02*
X0658Y05085D01*
Y0442D02*
Y05085D01*
X06365Y0533D02*
X06596Y05099D01*
X06365Y05425D02*
X06628Y05162D01*
X06485Y04325D02*
X0658Y0442D01*
X06485Y04125D02*
Y04325D01*
X06501Y04318D02*
X06596Y04413D01*
X06517Y04311D02*
X06612Y04406D01*
X06533Y04305D02*
X06628Y044D01*
X06596Y04413D02*
Y05099D01*
X06612Y04406D02*
Y05148D01*
X06628Y044D02*
Y05162D01*
X06265Y0415D02*
X0634Y04225D01*
X06125Y0415D02*
X06265D01*
X06125Y04122D02*
X06131Y04128D01*
X06265D02*
X06356Y04218D01*
X06131Y04128D02*
X06265D01*
X06125Y04094D02*
X06131Y041D01*
X0626D02*
X06372Y04211D01*
X06131Y041D02*
X0626D01*
X06125Y04066D02*
X06131Y04072D01*
X06254D02*
X06388Y04205D01*
X06131Y04072D02*
X06254D01*
X06356Y04218D02*
Y04851D01*
X06372Y04211D02*
Y04858D01*
X06388Y04205D02*
Y04864D01*
X0626Y04025D02*
X0641Y04175D01*
X06125Y04025D02*
X0626D01*
X06125Y03997D02*
X06131Y04003D01*
X06261D02*
X06426Y04168D01*
X06131Y04003D02*
X06261D01*
X06125Y03969D02*
X06131Y03975D01*
X06256D02*
X06442Y04161D01*
X06131Y03975D02*
X06256D01*
X06125Y03941D02*
X06131Y03947D01*
X0625D02*
X06458Y04155D01*
X06131Y03947D02*
X0625D01*
X06426Y04168D02*
Y04359D01*
X06442Y04161D02*
Y04352D01*
X06458Y04155D02*
Y04346D01*
X0626Y039D02*
X06485Y04125D01*
X06125Y039D02*
X0626D01*
X06125Y03872D02*
X06131Y03878D01*
X0626D02*
X06501Y04118D01*
X06125Y03844D02*
X06131Y0385D01*
X06255D02*
X06517Y04111D01*
X06131Y0385D02*
X06255D01*
X06125Y03816D02*
X06131Y03822D01*
X06249D02*
X06533Y04105D01*
X06131Y03822D02*
X06249D01*
X06131Y03878D02*
X0626D01*
X06501Y04118D02*
Y04318D01*
X06517Y04111D02*
Y04311D01*
X06533Y04105D02*
Y04305D01*
X06365Y05395D02*
X06612Y05148D01*
X06265Y05395D02*
X06365D01*
X0425Y05125D02*
X043Y05075D01*
X05525D02*
X05575Y05025D01*
X043Y05075D02*
X05525D01*
X04875Y05125D02*
X04909Y05091D01*
X05531*
X056Y05022*
X055Y05125D02*
X0555D01*
X05625Y0505*
X04225Y05D02*
X043Y04925D01*
X05175*
X052*
X05175D02*
X05475D01*
X055Y049*
X05475Y05D02*
X0555Y04925D01*
X0485Y05D02*
X049Y0495D01*
X055*
X05525Y04925*
X0545Y0415D02*
Y04875D01*
X05425Y04125D02*
X0545Y0415D01*
X0495Y04125D02*
X05425D01*
X04775Y0395D02*
X0495Y04125D01*
X04825Y04875D02*
X0485Y0485D01*
Y0405D02*
Y0485D01*
X04725Y03925D02*
X0485Y0405D01*
X042Y04875D02*
X04781D01*
X04803Y04853*
X04781Y04875D02*
X04825Y04831D01*
X04709Y03931D02*
X04825Y04047D01*
Y04831*
X04675Y03897D02*
X04825Y04047D01*
X05375Y049D02*
X05425Y0485D01*
X041Y049D02*
X05375D01*
X0405Y0485D02*
X041Y049D01*
X04075Y047D02*
X04175Y048D01*
X0415Y04725D02*
X04725D01*
X041Y04675D02*
X0415Y04725D01*
X041Y0365D02*
Y04675D01*
X0405Y036D02*
Y0485D01*
X05025Y05225D02*
X05075Y05175D01*
X036Y039D02*
X03875Y04175D01*
X034Y039D02*
X036D01*
X033Y038D02*
X034Y039D01*
X033Y036D02*
Y038D01*
X03325D02*
X03409Y03884D01*
X03325Y0365D02*
Y038D01*
X03393Y03916D02*
X03591D01*
X03275Y03797D02*
X03393Y03916D01*
X03834Y03884D02*
X0395Y04D01*
X036Y03884D02*
X03834D01*
X03575D02*
X036D01*
X03409D02*
X036D01*
X03775Y0475D02*
Y0525D01*
X0245Y0445D02*
X02625Y04625D01*
X0365D02*
X03775Y0475D01*
X02625Y04625D02*
X0365D01*
X0385Y0525D02*
X044D01*
X038Y052D02*
X0385Y0525D01*
X038Y0475D02*
Y052D01*
X0365Y046D02*
X038Y0475D01*
X02625Y046D02*
X0365D01*
X02475Y0445D02*
X02625Y046D01*
X04975Y0525D02*
X05025D01*
X0495Y05275D02*
X04975Y0525D01*
X03641Y04641D02*
X03725Y04725D01*
X02618Y04641D02*
X03641D01*
X02428Y0445D02*
X02618Y04641D01*
X0375Y05275D02*
X0495D01*
X03725Y0525D02*
X0375Y05275D01*
X03725Y04725D02*
Y0525D01*
X03875Y05175D02*
X03925Y05225D01*
X03875Y04175D02*
Y05175D01*
X03925Y05225D02*
X05025D01*
X0395Y04D02*
Y0515D01*
X03975Y05175*
X0445*
X055Y03775D02*
Y049D01*
X03825Y0415D02*
Y05175D01*
X03591Y03916D02*
X03825Y0415D01*
X03275Y03125D02*
Y03797D01*
X0317Y0302D02*
X03275Y03125D01*
X0288Y0302D02*
X0317D01*
X03225Y03275D02*
Y036D01*
X0317Y0322D02*
X03225Y03275D01*
X0288Y0322D02*
X0317D01*
X032Y0335D02*
Y0365D01*
X0317Y0332D02*
X032Y0335D01*
X0288Y0332D02*
X0317D01*
X02475Y0365D02*
Y037D01*
Y0445*
X0245Y031D02*
Y0445D01*
X0237Y0302D02*
X0245Y031D01*
X0213Y0302D02*
X0237D01*
X02428Y03625D02*
Y0445D01*
X02345Y0322D02*
X02428Y03303D01*
X0213Y0322D02*
X02345D01*
X02428Y03303D02*
Y03625D01*
X02475Y03375D02*
Y037D01*
X02325Y03375D02*
X024D01*
X0227Y0332D02*
X02325Y03375D01*
X0213Y0332D02*
X0227D01*
X04075Y03125D02*
Y047D01*
X0397Y0302D02*
X04075Y03125D01*
X0363Y0302D02*
X0397D01*
X03995Y0322D02*
X0405Y03275D01*
X0363Y0322D02*
X03995D01*
X0405Y03275D02*
Y036D01*
X04Y03375D02*
Y0365D01*
X03945Y0332D02*
X04Y03375D01*
X0363Y0332D02*
X03945D01*
X04775Y03575D02*
Y03625D01*
Y0395*
X04675Y03775D02*
Y03897D01*
X04545Y0302D02*
X04675Y0315D01*
X0438Y0302D02*
X04545D01*
X04675Y0315D02*
Y03775D01*
X04725Y03325D02*
Y03925D01*
X04775Y03225D02*
Y03625D01*
X04385Y03225D02*
X0465D01*
X0438Y0322D02*
X04385Y03225D01*
X0438Y0332D02*
X04645D01*
X0465Y03325*
X055Y031D02*
Y03775D01*
X0542Y0302D02*
X055Y031D01*
X0513Y0302D02*
X0542D01*
X05525Y03325D02*
Y04925D01*
X0555Y03575D02*
Y03625D01*
Y04925*
Y03225D02*
Y03625D01*
X05135Y03225D02*
X0545D01*
X0513Y0322D02*
X05135Y03225D01*
X0513Y0332D02*
X05445D01*
X0545Y03325*
X05625Y0335D02*
X05713Y03261D01*
X05797*
X05838Y0322*
X0588*
X05625Y0335D02*
Y0505D01*
X056Y03675D02*
Y05022D01*
X05575Y03175D02*
X05675Y03075D01*
X05825*
X0588Y0302*
X05575Y03175D02*
Y05025D01*
X077Y01535D02*
X07835Y014D01*
X077Y01535D02*
Y021D01*
X07341Y02459D02*
X077Y021D01*
X07341Y02459D02*
Y02851D01*
X07301Y02891D02*
X07341Y02851D01*
X07175Y0295D02*
X07234Y02891D01*
X07301*
X07225Y0455D02*
X079D01*
X07175Y0295D02*
Y045D01*
X07225Y0455*
X07567Y02972D02*
X07591D01*
X076Y02981*
X07569Y03047D02*
Y03094D01*
X07597Y03122*
Y03125*
G54D67*
X0794Y0478D02*
Y04822D01*
X0794Y0478D02*
X0794Y0478D01*
X07865D02*
Y04822D01*
X07865Y0478D02*
X07865Y0478D01*
Y04877D02*
Y04914D01*
X07865Y04915D02*
X07865Y04914D01*
X0794Y04877D02*
Y04914D01*
X0794Y04915D02*
X0794Y04914D01*
X08515Y04852D02*
Y04894D01*
X08515Y04895D02*
X08515Y04894D01*
X08515Y04895D02*
Y04947D01*
X08515Y04947*
X0859Y04945D02*
X08659D01*
X0866Y04945*
X0859Y04797D02*
X08647D01*
X0865Y048*
X08515Y0474D02*
Y04797D01*
X08515Y0474D02*
X08515Y0474D01*
X0859Y04852D02*
X08647D01*
X0865Y0485*
X07577Y0275D02*
D01*
X076*
X07589Y0264D02*
X07635D01*
X07645Y0265*
Y02695*
X076Y0275D02*
X0761D01*
X07625Y02735*
G54D69*
X0593Y0527D02*
Y05345D01*
Y05268D02*
Y0527D01*
Y05195D02*
X05931Y05196D01*
Y0527*
X0585D02*
X0593D01*
Y05345D02*
X05931Y05343D01*
Y0527D02*
Y05343D01*
X08567Y028D02*
X0862D01*
X08569Y02725D02*
X08625D01*
X08465Y028D02*
X08512D01*
X08465D02*
D01*
X08425D02*
X08465D01*
G54D70*
X05798Y0504D02*
X058D01*
X05798D02*
D01*
X05898D01*
X058Y04969D02*
X05904D01*
X05953Y0504D02*
X06003D01*
X06142Y04955D02*
Y05D01*
X0614Y04952D02*
X06142Y04955D01*
G54D83*
X0675Y012D03*
X0826Y01575D03*
X0905Y012D03*
X0355Y05D03*
X02125Y04375D03*
X02875D03*
X03625D03*
X04375D03*
X05125D03*
X05875D03*
G54D84*
X0665Y011D03*
X0685Y013D03*
Y011D03*
X0665Y013D03*
X0836Y01475D03*
X0816Y01675D03*
Y01475D03*
X0836Y01675D03*
X0895Y013D03*
X0915Y011D03*
Y013D03*
X0895Y011D03*
X0365Y049D03*
X0345Y051D03*
Y049D03*
X0365Y051D03*
X02225Y04275D03*
X02025Y04475D03*
Y04275D03*
X02225Y04475D03*
X02975Y04275D03*
X02775Y04475D03*
Y04275D03*
X02975Y04475D03*
X03725Y04275D03*
X03525Y04475D03*
Y04275D03*
X03725Y04475D03*
X04475Y04275D03*
X04275Y04475D03*
Y04275D03*
X04475Y04475D03*
X05225Y04275D03*
X05025Y04475D03*
Y04275D03*
X05225Y04475D03*
X05975Y04275D03*
X05775Y04475D03*
Y04275D03*
X05975Y04475D03*
G54D85*
X0588Y0282D03*
X0513D03*
X0438D03*
X0363D03*
X0288D03*
X0213D03*
X0816Y02175D03*
X09725Y0625D03*
X04825Y06925D03*
X09175Y06175D03*
Y06375D03*
Y06275D03*
X05815Y06765D03*
X0575Y055D03*
G54D86*
X0578Y0282D03*
X0588Y0292D03*
X0578D03*
X0588Y0302D03*
X0578D03*
X0588Y0312D03*
X0578D03*
X0588Y0322D03*
X0578D03*
X0588Y0332D03*
X0578D03*
X0588Y0342D03*
X0578D03*
X0588Y0352D03*
X0578D03*
X0588Y0362D03*
X0578D03*
X0588Y0372D03*
X0578D03*
X0503Y0282D03*
X0513Y0292D03*
X0503D03*
X0513Y0302D03*
X0503D03*
X0513Y0312D03*
X0503D03*
X0513Y0322D03*
X0503D03*
X0513Y0332D03*
X0503D03*
X0513Y0342D03*
X0503D03*
X0513Y0352D03*
X0503D03*
X0513Y0362D03*
X0503D03*
X0513Y0372D03*
X0503D03*
X0428Y0282D03*
X0438Y0292D03*
X0428D03*
X0438Y0302D03*
X0428D03*
X0438Y0312D03*
X0428D03*
X0438Y0322D03*
X0428D03*
X0438Y0332D03*
X0428D03*
X0438Y0342D03*
X0428D03*
X0438Y0352D03*
X0428D03*
X0438Y0362D03*
X0428D03*
X0438Y0372D03*
X0428D03*
X0353Y0282D03*
X0363Y0292D03*
X0353D03*
X0363Y0302D03*
X0353D03*
X0363Y0312D03*
X0353D03*
X0363Y0322D03*
X0353D03*
X0363Y0332D03*
X0353D03*
X0363Y0342D03*
X0353D03*
X0363Y0352D03*
X0353D03*
X0363Y0362D03*
X0353D03*
X0363Y0372D03*
X0353D03*
X0278Y0282D03*
X0288Y0292D03*
X0278D03*
X0288Y0302D03*
X0278D03*
X0288Y0312D03*
X0278D03*
X0288Y0322D03*
X0278D03*
X0288Y0332D03*
X0278D03*
X0288Y0342D03*
X0278D03*
X0288Y0352D03*
X0278D03*
X0288Y0362D03*
X0278D03*
X0288Y0372D03*
X0278D03*
X0203Y0282D03*
X0213Y0292D03*
X0203D03*
X0213Y0302D03*
X0203D03*
X0213Y0312D03*
X0203D03*
X0213Y0322D03*
X0203D03*
X0213Y0332D03*
X0203D03*
X0213Y0342D03*
X0203D03*
X0213Y0352D03*
X0203D03*
X0213Y0362D03*
X0203D03*
X0213Y0372D03*
X0203D03*
X0816Y02075D03*
Y01975D03*
X07735Y014D03*
X07835D03*
X029Y0545D03*
X03D03*
X029Y05225D03*
X03D03*
X0435Y06925D03*
X04825Y06825D03*
Y06725D03*
X0474Y07325D03*
X0484Y07225D03*
Y07325D03*
X0494Y07225D03*
Y07325D03*
X0504Y07225D03*
Y07325D03*
X0514Y07225D03*
Y07325D03*
X0524Y07225D03*
Y07325D03*
X0534Y07225D03*
Y07325D03*
X0544Y07225D03*
Y07325D03*
X0554Y07225D03*
Y07325D03*
X0564Y07225D03*
Y07325D03*
X0574Y07225D03*
Y07325D03*
X0584Y07225D03*
Y07325D03*
X0594Y07225D03*
Y07325D03*
X08725Y06625D03*
X08825D03*
X08925D03*
X09025D03*
X09125D03*
G54D87*
X09247Y07338D03*
X09502D03*
Y07161D03*
X09247D03*
X04147Y07338D03*
X04402D03*
Y07161D03*
X04147D03*
G54D88*
X083Y03531D03*
X0635D03*
X083Y07231D03*
X0635D03*
G54D89*
X0645Y06248D03*
X082D03*
G54D90*
X0645Y04508D03*
X082D03*
G54D91*
X015Y0675D03*
Y0655D03*
X0275Y06475D03*
X0255D03*
X09775Y0495D03*
X09575D03*
X09525Y01675D03*
X09725D03*
G54D92*
X07635Y014D03*
X0355Y0545D03*
X04625Y06125D03*
X01625Y05375D03*
X048Y011D03*
X098Y033D03*
X017Y011D03*
X065Y02D03*
X028Y0545D03*
Y05225D03*
X0425Y06925D03*
X0474Y07225D03*
X0925Y02D03*
X08625Y06625D03*
G54D93*
X1025Y072D03*
Y012D03*
X012D03*
Y072D03*
G54D94*
X01764Y07D03*
X0195Y07118D03*
Y06881D03*
G54D95*
X0815Y02775D03*
X04875Y02375D03*
X05625D03*
Y02725D03*
X04875Y0265D03*
X06175Y05525D03*
X061Y02375D03*
X0864Y06375D03*
X0849Y0634D03*
X0899Y0627D03*
X0898Y06375D03*
X098Y04714D03*
X015Y06325D03*
X0215Y06225D03*
X02205D03*
X02175D03*
X02294Y06266D03*
X02259D03*
X02071D03*
X02101D03*
X02115Y06225D03*
X0209D03*
X02022Y06292D03*
Y06262D03*
X0165Y0603D03*
X01575Y0634D03*
X09916Y04041D03*
X0987Y0413D03*
X09916Y04204D03*
X0987Y0421D03*
X09913Y04278D03*
X09931Y04633D03*
X0967Y04625D03*
X0972Y04205D03*
X06088Y07063D03*
X06068Y07043D03*
X06049Y07023D03*
X06029Y07004D03*
X06009Y06984D03*
X05989Y06964D03*
X05969Y06944D03*
X0595Y06925D03*
X038Y05713D03*
Y05486D03*
X0415Y05735D03*
X04149Y05688D03*
Y05637D03*
Y05587D03*
X04425Y05713D03*
Y05486D03*
X04775Y05735D03*
X04774Y05688D03*
Y05637D03*
Y05587D03*
X04572Y05772D03*
X04627D03*
X0459Y05595D03*
X0396D03*
X03938Y05773D03*
X03993Y05773D03*
X06672Y05142D03*
X06227D03*
X06227Y05047D03*
X06672D03*
X06675Y04955D03*
X06672Y04827D03*
X06672Y04732D03*
X05263Y05765D03*
X05208Y056D03*
Y05765D03*
X05399Y05587D03*
Y05637D03*
Y05688D03*
X054Y05735D03*
X0505Y05486D03*
Y05713D03*
X05975Y05525D03*
X033Y05535D03*
Y0533D03*
X0593Y05195D03*
Y05345D03*
X0905Y05775D03*
X095Y06D03*
X09375Y0705D03*
X094Y05375D03*
X0925D03*
X08512Y05866D03*
X08465Y059D03*
X08125Y02855D03*
X08145Y02875D03*
X07675Y03175D03*
X0765Y02725D03*
X07225Y02975D03*
X093Y05435D03*
Y05615D03*
X0934D03*
X07475Y0264D03*
X07645Y02695D03*
X07475Y0275D03*
X07625Y02735D03*
X07685Y02715D03*
X07735Y0269D03*
X07825Y02625D03*
X07665Y0258D03*
X0755Y02465D03*
X0788Y0265D03*
X0794Y02685D03*
X0812Y02765D03*
X08145Y02725D03*
X0811Y02705D03*
X0781Y0266D03*
X0812Y02735D03*
X0808Y02725D03*
X0585Y0527D03*
X06636Y05551D03*
Y05646D03*
Y0574D03*
Y05835D03*
Y05929D03*
Y05457D03*
Y05362D03*
X06265Y05455D03*
X06263Y05646D03*
Y05551D03*
Y0574D03*
Y05835D03*
Y05929D03*
Y05992D03*
X06265Y05269D03*
Y05239D03*
X06611Y05268D03*
Y05236D03*
X08387D03*
Y05268D03*
X08013Y05236D03*
Y05268D03*
X026Y072D03*
X02175Y07325D03*
X02875Y072D03*
X032Y07225D03*
X03475D03*
X0375Y072D03*
X04075Y073D03*
X04575Y06925D03*
Y06775D03*
X04475Y06525D03*
X09025Y07175D03*
Y0725D03*
Y07325D03*
X08634Y06895D03*
X08809D03*
X08975Y069D03*
X08525Y0675D03*
X087D03*
X08875D03*
X084Y058D03*
X08Y05775D03*
X082Y05875D03*
X0839Y05695D03*
X079Y0565D03*
X07607Y05817D03*
X07587Y05797D03*
X07647Y05857D03*
X07627Y05837D03*
X06668Y0525D03*
X09105Y05865D03*
X09055Y059D03*
X09402Y0569D03*
X04725Y06825D03*
X04575D03*
X0475Y06525D03*
X0465Y0657D03*
X0415Y06835D03*
X04025Y06685D03*
X0395Y06675D03*
X03925Y069D03*
X03887Y06957D03*
X04255Y06522D03*
X04045D03*
X02375Y0484D03*
X023D03*
X02225Y04844D03*
X02375Y04665D03*
X023D03*
X02225D03*
X02275Y05025D03*
X03125Y05075D03*
Y0495D03*
Y05D03*
X03275Y04925D03*
X03125Y04875D03*
X0325Y0485D03*
Y048D03*
X03125Y04775D03*
X02975D03*
Y04875D03*
X029Y04925D03*
X0275Y05325D03*
X02625Y05225D03*
X0265Y05375D03*
Y05475D03*
X0245D03*
X02475Y05375D03*
X02425Y05425D03*
X02325Y05375D03*
X02825Y0475D03*
Y048D03*
X02425Y04775D03*
Y047D03*
Y0474D03*
X0312Y0555D03*
X02675D03*
X02295Y072D03*
X03125Y069D03*
X034D03*
X037D03*
X03065Y0696D03*
X0334Y06955D03*
X03615D03*
X02565Y0686D03*
X02815Y06865D03*
X02495Y06775D03*
X02735Y0675D03*
X09175Y04225D03*
X03545Y0662D03*
X0327Y06595D03*
X02995Y0665D03*
X03815Y06548D03*
X01825Y06575D03*
Y06725D03*
X05905Y06024D03*
X05625Y06025D03*
X05915Y06845D03*
X0533D03*
X0626Y0473D03*
X02825Y04675D03*
X091Y07275D03*
X08475D03*
X0915Y027D03*
X05675Y06885D03*
X0523D03*
X09375Y0325D03*
X091Y07325D03*
X08425Y07275D03*
X049Y071D03*
Y07D03*
X07025Y02875D03*
X06227Y04827D03*
X0627Y0489D03*
Y0486D03*
Y04985D03*
Y05015D03*
Y04955D03*
Y04925D03*
X06265Y05173D03*
Y0512D03*
Y0509D03*
Y05201D03*
Y05425D03*
Y05395D03*
Y0533D03*
Y053D03*
Y0536D03*
X06675Y0492D03*
X06125Y0415D03*
Y04122D03*
Y04094D03*
Y04066D03*
Y04025D03*
Y03997D03*
Y03969D03*
Y03941D03*
Y039D03*
Y03872D03*
Y03844D03*
Y03816D03*
X03775Y0525D03*
X03825Y05175D03*
X04225Y05D03*
X0425Y05125D03*
X042Y04875D03*
X04175Y048D03*
X04775Y04825D03*
X04825Y04875D03*
X04875Y05125D03*
X0485Y05D03*
X0445Y05175D03*
X044Y0525D03*
X0545Y04875D03*
X055Y05125D03*
X05475Y05D03*
X05075Y05175D03*
X05025Y0525D03*
X05425Y0485D03*
X056Y03675D03*
X041Y0365D03*
X033Y036D03*
X03325Y0365D03*
X03225Y036D03*
X032Y0365D03*
X02475Y03375D03*
X024D03*
X04Y0365D03*
X04725Y03325D03*
X04775Y03225D03*
X0465D03*
Y03325D03*
X05525D03*
X0555Y03225D03*
X0545D03*
Y03325D03*
X079Y0455D03*
X076Y02981D03*
X07597Y03125D03*
X08035Y05045D03*
X08415Y0505D03*
X09247Y0569D03*
G54D96*
X0189Y0634D03*
X01925D03*
X0196D03*
X0189Y06375D03*
X01925D03*
X0196D03*
X0189Y0641D03*
X01925D03*
X0196D03*
X0245Y0593D03*
X0242Y06255D03*
Y0622D03*
X0245Y06255D03*
Y0622D03*
X025Y06165D03*
Y0613D03*
Y0602D03*
X02535Y06165D03*
Y0613D03*
X0253Y0602D03*
X025Y05985D03*
X0253D03*
X02415Y0593D03*
X0245Y05895D03*
X02415D03*
X09565Y03885D03*
Y0385D03*
X096Y03885D03*
X09655Y0377D03*
Y038D03*
X0969Y0377D03*
X098Y03765D03*
X09835D03*
X0969Y038D03*
X098D03*
X09835D03*
X0989Y0385D03*
X09925D03*
X0989Y0388D03*
X09925D03*
X0197Y0598D03*
X019D03*
X01935D03*
X01925Y0615D03*
X0243Y05675D03*
X02465D03*
X025D03*
X02395D03*
X0197Y05945D03*
X01935D03*
X019D03*
X0197Y0591D03*
X01935D03*
X019D03*
X02095Y0598D03*
X0206D03*
X02025D03*
X02095Y05945D03*
X0206D03*
X02025D03*
X02095Y0591D03*
X0206D03*
X02025D03*
X0213Y06435D03*
X0216D03*
X02195D03*
X0223D03*
X1008Y0407D03*
Y04105D03*
Y0414D03*
Y0417D03*
X09555Y04275D03*
Y0424D03*
Y04205D03*
X0959Y04275D03*
Y0424D03*
Y04205D03*
X09625Y04275D03*
Y0424D03*
Y04205D03*
X09555Y044D03*
Y04365D03*
Y0433D03*
X0959Y044D03*
Y04365D03*
Y0433D03*
X09345Y03905D03*
Y038D03*
Y03835D03*
Y0387D03*
X096Y0385D03*
X09795Y04375D03*
X09995Y04405D03*
Y0437D03*
X0996D03*
Y04405D03*
X1003D03*
Y0437D03*
Y04335D03*
X09995D03*
X0996D03*
X09625Y04365D03*
Y044D03*
Y0433D03*
G54D97*
X058Y0504D03*
Y0497D03*
X06003Y0504D03*
X08125Y0307D03*
X07838Y0315D03*
X07875Y03275D03*
X07825Y0326D03*
X06065Y04997D03*
Y04852D03*
X05899Y04855D03*
X06142Y05D03*
X06815Y05002D03*
X0674D03*
Y04852D03*
X06815D03*
X06923Y05252D03*
X06868Y0515D03*
X06793D03*
X06718D03*
X0667Y05325D03*
X06845Y0532D03*
X06715Y0543D03*
X0679D03*
X0806Y02005D03*
X0685Y01685D03*
X07625Y01825D03*
Y019D03*
X0743Y0162D03*
X0737Y0167D03*
X07585Y0162D03*
X0764Y0167D03*
X07625Y01775D03*
X0754D03*
X07585D03*
X07785Y01825D03*
X07655Y01735D03*
X0785Y013D03*
X07785Y019D03*
X09055Y01775D03*
X083Y0245D03*
X08165Y0258D03*
X0776Y02145D03*
Y02005D03*
X07805Y0205D03*
Y021D03*
X0799Y02135D03*
X0786Y0218D03*
X07825Y02155D03*
X07935Y0149D03*
X0814Y01875D03*
X0826Y018D03*
X0841Y01805D03*
X08335Y018D03*
X08325Y0203D03*
X0826Y02085D03*
X09225Y02245D03*
X09145Y0237D03*
Y0243D03*
X0899D03*
X09145Y02315D03*
X0905Y02375D03*
Y02225D03*
X0811Y03115D03*
X083Y02725D03*
X0829Y0277D03*
X0845Y0273D03*
X0862Y028D03*
X08625Y02725D03*
X0744Y02972D03*
X0743Y01775D03*
X08015Y02095D03*
X0806Y0216D03*
X09065Y02605D03*
X07665Y0309D03*
X07985Y05145D03*
X08025D03*
X0802Y05365D03*
X0794Y0537D03*
X07985Y05455D03*
X0797Y05555D03*
X08415Y0555D03*
Y05645D03*
X0797D03*
Y0574D03*
Y05835D03*
X08415D03*
X08414Y0574D03*
X08415Y0593D03*
X0797D03*
X08415Y05455D03*
Y05365D03*
Y05145D03*
X08426Y04953D03*
X08389Y04795D03*
Y04675D03*
X0802Y0467D03*
X08015Y04825D03*
X0794Y0478D03*
X07865D03*
Y04915D03*
X0794D03*
X0803Y0492D03*
X08005Y04955D03*
X0842Y04895D03*
X08515D03*
X0866Y04945D03*
X08665Y05005D03*
X08515Y05055D03*
X0865Y048D03*
X08515Y0474D03*
X0865Y0485D03*
X07865Y0537D03*
X07425Y03022D03*
X08295Y0307D03*
X08185Y03095D03*
X08295Y0315D03*
X08135D03*
X08465Y028D03*
X08425D03*
X0205Y0665D03*
X01975Y06575D03*
Y06725D03*
X0175Y0665D03*
X09375Y05475D03*
X0614Y04852D03*
G54D98*
X0791Y02075D03*
X07809Y0298D03*
X0795D03*
X0788Y0291D03*
X07809Y02839D03*
X0795D03*
G54D99*
X09475Y02625D03*
X094D03*
X09625D03*
X09775D03*
X0985Y0255D03*
X09475D03*
X0955Y02475D03*
X097D03*
X0985D03*
Y024D03*
Y02325D03*
Y0225D03*
Y02175D03*
X09775D03*
Y0225D03*
Y024D03*
X097Y02175D03*
X09625D03*
Y0225D03*
Y024D03*
X0955D03*
Y02325D03*
Y0225D03*
Y02175D03*
X09475D03*
Y0225D03*
X094D03*
Y02175D03*
X097Y024D03*
Y0225D03*
X09625Y02325D03*
X097D03*
X09775D03*
X09625Y02475D03*
X09775D03*
Y0255D03*
X09625D03*
X09925D03*
Y02625D03*
Y02475D03*
Y024D03*
Y02325D03*
Y0225D03*
Y02175D03*
X09325Y02625D03*
X07125Y0275D03*
M02*