%FSTAX24Y24*%
%MOIN*%
%SFA1B1*%

%IPPOS*%
%AMD103*
1,1,0.197795,0.000000,0.000000*
1,0,0.177795,0.000000,0.000000*
4,0,4,0.055700,0.084000,-0.084000,-0.055700,-0.055700,-0.084000,0.084000,0.055700,0.055700,0.084000,0.0*
4,0,4,-0.055700,0.084000,0.084000,-0.055700,0.055700,-0.084000,-0.084000,0.055700,-0.055700,0.084000,0.0*
%
%AMD109*
1,1,0.095433,0.000000,0.000000*
1,0,0.075433,0.000000,0.000000*
4,0,4,0.030200,0.037300,-0.037300,-0.030200,-0.030200,-0.037300,0.037300,0.030200,0.030200,0.037300,0.0*
4,0,4,-0.030200,0.037300,0.037300,-0.030200,0.030200,-0.037300,-0.037300,0.030200,-0.030200,0.037300,0.0*
%
%AMD110*
1,1,0.099370,0.000000,0.000000*
1,0,0.079370,0.000000,0.000000*
4,0,4,0.031500,0.038600,-0.038600,-0.031500,-0.031500,-0.038600,0.038600,0.031500,0.031500,0.038600,0.0*
4,0,4,-0.031500,0.038600,0.038600,-0.031500,0.031500,-0.038600,-0.038600,0.031500,-0.031500,0.038600,0.0*
%
%AMD113*
1,1,0.122000,0.000000,0.000000*
1,0,0.102000,0.000000,0.000000*
4,0,4,0.039600,0.046700,-0.046700,-0.039600,-0.039600,-0.046700,0.046700,0.039600,0.039600,0.046700,0.0*
4,0,4,-0.039600,0.046700,0.046700,-0.039600,0.039600,-0.046700,-0.046700,0.039600,-0.039600,0.046700,0.0*
%
%AMD114*
1,1,0.190000,0.000000,0.000000*
1,0,0.170000,0.000000,0.000000*
4,0,4,0.063700,0.070700,-0.070700,-0.063600,-0.063700,-0.070700,0.070700,0.063600,0.063700,0.070700,0.0*
4,0,4,-0.063600,0.070700,0.070700,-0.063700,0.063600,-0.070700,-0.070700,0.063700,-0.063600,0.070700,0.0*
%
%AMD116*
1,1,0.130866,0.000000,0.000000*
1,0,0.110866,0.000000,0.000000*
4,0,4,0.042700,0.049800,-0.049800,-0.042700,-0.042700,-0.049800,0.049800,0.042700,0.042700,0.049800,0.0*
4,0,4,-0.042700,0.049800,0.049800,-0.042700,0.042700,-0.049800,-0.049800,0.042700,-0.042700,0.049800,0.0*
%
%ADD81C,0.040000*%
%ADD86C,0.025000*%
G04~CAMADD=103~12~0.0~0.0~0.0~0.0~0.0~0.0~0~1978.0~1778.0~0.0~45.0~4~400.0~0.0~0.0~0.0~0~0.0~0.0~0.0~0.0~1978.0~1978.0*
%ADD103D103*%
%ADD104C,0.161800*%
%ADD105C,0.154000*%
%ADD106C,0.055500*%
%ADD107C,0.071200*%
%ADD108C,0.059400*%
G04~CAMADD=109~12~0.0~0.0~0.0~0.0~0.0~0.0~0~954.3~754.3~0.0~45.0~4~100.0~0.0~0.0~0.0~0~0.0~0.0~0.0~0.0~954.3~954.3*
%ADD109D109*%
G04~CAMADD=110~12~0.0~0.0~0.0~0.0~0.0~0.0~0~993.7~793.7~0.0~45.0~4~100.0~0.0~0.0~0.0~0~0.0~0.0~0.0~0.0~993.7~993.7*
%ADD110D110*%
%ADD111C,0.063400*%
%ADD112C,0.086000*%
G04~CAMADD=113~12~0.0~0.0~0.0~0.0~0.0~0.0~0~1220.0~1020.0~0.0~45.0~4~100.0~0.0~0.0~0.0~0~0.0~0.0~0.0~0.0~1220.0~1220.0*
%ADD113D113*%
G04~CAMADD=114~12~0.0~0.0~0.0~0.0~0.0~0.0~0~1900.0~1700.0~0.0~45.0~4~100.0~0.0~0.0~0.0~0~0.0~0.0~0.0~0.0~1900.0~1900.0*
%ADD114D114*%
%ADD115C,0.094900*%
G04~CAMADD=116~12~0.0~0.0~0.0~0.0~0.0~0.0~0~1308.7~1108.7~0.0~45.0~4~100.0~0.0~0.0~0.0~0~0.0~0.0~0.0~0.0~1308.7~1308.7*
%ADD116D116*%
%ADD117C,0.034000*%
%ADD118C,0.040000*%
%ADD119C,0.052000*%
%LNdsau-motherboard-reva-1*%
%LPD*%
G54D81*
X01Y012D02*
D01*
X010004Y01186*
X010019Y011721*
X010043Y011584*
X010077Y011448*
X01012Y011315*
X010172Y011186*
X010234Y011061*
X010303Y01094*
X010381Y010824*
X010467Y010714*
X010561Y01061*
X010661Y010513*
X010768Y010423*
X010881Y010341*
X011Y010267*
X011123Y010202*
X01125Y010145*
X011381Y010097*
X011516Y010059*
X011652Y01003*
X01179Y01001*
X01193Y010001*
X012Y01*
X10275D02*
D01*
X102889Y010004*
X103028Y010019*
X103165Y010043*
X103301Y010077*
X103434Y01012*
X103563Y010172*
X103688Y010234*
X103809Y010303*
X103925Y010381*
X104035Y010467*
X104139Y010561*
X104236Y010661*
X104326Y010768*
X104408Y010881*
X104482Y011*
X104547Y011123*
X104604Y01125*
X104652Y011381*
X10469Y011516*
X104719Y011652*
X104739Y01179*
X104748Y01193*
X10475Y012*
Y072D02*
D01*
X104745Y072139*
X10473Y072278*
X104706Y072415*
X104672Y072551*
X104629Y072684*
X104577Y072813*
X104515Y072938*
X104446Y073059*
X104368Y073175*
X104282Y073285*
X104188Y073389*
X104088Y073486*
X103981Y073576*
X103868Y073658*
X10375Y073732*
X103626Y073797*
X103499Y073854*
X103368Y073902*
X103233Y07394*
X103097Y073969*
X102959Y073989*
X102819Y073998*
X10275Y074*
X012D02*
D01*
X01186Y073995*
X011721Y07398*
X011584Y073956*
X011448Y073922*
X011315Y073879*
X011186Y073827*
X011061Y073765*
X01094Y073696*
X010824Y073618*
X010714Y073532*
X01061Y073438*
X010513Y073338*
X010423Y073231*
X010341Y073118*
X010267Y073*
X010202Y072876*
X010145Y072749*
X010097Y072618*
X010059Y072483*
X01003Y072347*
X01001Y072209*
X010001Y072069*
X01Y072*
X012Y01D02*
X10275D01*
X10475Y012D02*
Y072D01*
X012Y074D02*
X10275D01*
X01Y012D02*
Y072D01*
G54D86*
X066Y028D02*
X06675D01*
X0625Y0245D02*
X066Y028D01*
X0625Y01D02*
Y0245D01*
X066Y028*
X07195*
X09275Y02825D02*
X10475D01*
X083D02*
X09275D01*
X10275Y01D02*
D01*
X102889Y010004*
X103028Y010019*
X103165Y010043*
X103301Y010077*
X103434Y01012*
X103563Y010172*
X103688Y010234*
X103809Y010303*
X103925Y010381*
X104035Y010467*
X104139Y010561*
X104236Y010661*
X104326Y010768*
X104408Y010881*
X104482Y011*
X104547Y011123*
X104604Y01125*
X104652Y011381*
X10469Y011516*
X104719Y011652*
X104739Y01179*
X104748Y01193*
X10475Y012*
Y072D02*
D01*
X104745Y072139*
X10473Y072278*
X104706Y072415*
X104672Y072551*
X104629Y072684*
X104577Y072813*
X104515Y072938*
X104446Y073059*
X104368Y073175*
X104282Y073285*
X104188Y073389*
X104088Y073486*
X103981Y073576*
X103868Y073658*
X10375Y073732*
X103626Y073797*
X103499Y073854*
X103368Y073902*
X103233Y07394*
X103097Y073969*
X102959Y073989*
X102819Y073998*
X10275Y074*
X012D02*
D01*
X01186Y073995*
X011721Y07398*
X011584Y073956*
X011448Y073922*
X011315Y073879*
X011186Y073827*
X011061Y073765*
X01094Y073696*
X010824Y073618*
X010714Y073532*
X01061Y073438*
X010513Y073338*
X010423Y073231*
X010341Y073118*
X010267Y073*
X010202Y072876*
X010145Y072749*
X010097Y072618*
X010059Y072483*
X01003Y072347*
X01001Y072209*
X010001Y072069*
X01Y072*
Y012D02*
D01*
X010004Y01186*
X010019Y011721*
X010043Y011584*
X010077Y011448*
X01012Y011315*
X010172Y011186*
X010234Y011061*
X010303Y01094*
X010381Y010824*
X010467Y010714*
X010561Y01061*
X010661Y010513*
X010768Y010423*
X010881Y010341*
X011Y010267*
X011123Y010202*
X01125Y010145*
X011381Y010097*
X011516Y010059*
X011652Y01003*
X01179Y01001*
X01193Y010001*
X012Y01*
Y074D02*
D01*
X01186Y073995*
X011721Y07398*
X011584Y073956*
X011448Y073922*
X011315Y073879*
X011186Y073827*
X011061Y073765*
X01094Y073696*
X010824Y073618*
X010714Y073532*
X01061Y073438*
X010513Y073338*
X010423Y073231*
X010341Y073118*
X010267Y073*
X010202Y072876*
X010145Y072749*
X010097Y072618*
X010059Y072483*
X01003Y072347*
X01001Y072209*
X010001Y072069*
X01Y072*
X10475Y057D02*
Y072D01*
Y012D02*
Y027D01*
X01Y071D02*
Y072D01*
X10475Y027D02*
Y057D01*
X068Y01D02*
X10275D01*
X012D02*
X068D01*
X012Y074D02*
X10275D01*
X01Y012D02*
Y071D01*
Y072*
G54D103*
X01765Y07D03*
X0195Y071181D03*
G54D104*
X0195Y068819D03*
G54D105*
X083003Y035314D03*
X063502D03*
X083003Y072314D03*
X063502D03*
G54D106*
X0645Y062484D03*
X082005D03*
G54D107*
X0645Y045083D03*
X082005D03*
G54D108*
X0588Y0282D03*
X0578D03*
X0588Y0292D03*
X0578D03*
X0588Y0302D03*
X0578D03*
X0588Y0312D03*
X0578D03*
X0588Y0322D03*
Y0332D03*
Y0342D03*
Y0352D03*
Y0362D03*
Y0372D03*
X0513Y0282D03*
X0503D03*
X0513Y0292D03*
X0503D03*
X0513Y0302D03*
X0503D03*
X0513Y0312D03*
X0503D03*
X0513Y0322D03*
Y0332D03*
Y0342D03*
Y0352D03*
Y0362D03*
Y0372D03*
X0438Y0282D03*
X0428D03*
X0438Y0292D03*
X0428D03*
X0438Y0302D03*
X0428D03*
X0438Y0312D03*
X0428D03*
X0438Y0322D03*
Y0332D03*
Y0342D03*
Y0352D03*
Y0362D03*
Y0372D03*
X0363Y0282D03*
X0353D03*
X0363Y0292D03*
X0353D03*
X0363Y0302D03*
X0353D03*
X0363Y0312D03*
X0353D03*
X0363Y0322D03*
Y0332D03*
Y0342D03*
Y0352D03*
Y0362D03*
Y0372D03*
X0288Y0282D03*
X0278D03*
X0288Y0292D03*
X0278D03*
X0288Y0302D03*
X0278D03*
X0288Y0312D03*
X0278D03*
X0288Y0322D03*
Y0332D03*
Y0342D03*
Y0352D03*
Y0362D03*
Y0372D03*
X0213Y0282D03*
X0203D03*
X0213Y0292D03*
X0203D03*
X0213Y0302D03*
X0203D03*
X0213Y0312D03*
X0203D03*
X0213Y0322D03*
Y0332D03*
Y0342D03*
Y0352D03*
Y0362D03*
Y0372D03*
X0816Y02175D03*
Y02075D03*
Y01975D03*
X07635Y014D03*
X07735D03*
X07835D03*
X028Y0545D03*
X029D03*
X03D03*
X028Y05225D03*
X029D03*
X03D03*
X0425Y06925D03*
X0435D03*
X04825D03*
Y06825D03*
Y06725D03*
X0474Y07225D03*
Y07325D03*
X0484Y07225D03*
Y07325D03*
X0494Y07225D03*
Y07325D03*
X0504Y07225D03*
Y07325D03*
X0514Y07225D03*
Y07325D03*
X0524Y07225D03*
Y07325D03*
X0534Y07225D03*
Y07325D03*
X0544Y07225D03*
Y07325D03*
X0554Y07225D03*
Y07325D03*
X0564Y07225D03*
Y07325D03*
X0574Y07225D03*
Y07325D03*
X0584D03*
X0594D03*
X09175Y06175D03*
Y06375D03*
Y06275D03*
X05815Y06765D03*
X08625Y06625D03*
X08725D03*
X08825D03*
X08925D03*
X09125D03*
G54D109*
X0578Y0322D03*
Y0332D03*
Y0342D03*
Y0352D03*
Y0362D03*
Y0372D03*
X0503Y0322D03*
Y0332D03*
Y0342D03*
Y0352D03*
Y0362D03*
Y0372D03*
X0428Y0322D03*
Y0332D03*
Y0342D03*
Y0352D03*
Y0362D03*
Y0372D03*
X0353Y0322D03*
Y0332D03*
Y0342D03*
Y0352D03*
Y0362D03*
Y0372D03*
X0278Y0322D03*
Y0332D03*
Y0342D03*
Y0352D03*
Y0362D03*
Y0372D03*
X0203Y0322D03*
Y0332D03*
Y0342D03*
Y0352D03*
Y0362D03*
Y0372D03*
X0355Y0545D03*
X04625Y06125D03*
X09725Y0625D03*
X01625Y05375D03*
X048Y011D03*
X098Y033D03*
X017Y011D03*
X065Y02D03*
X0584Y07225D03*
X0594D03*
X0575Y055D03*
X0925Y02D03*
X09025Y06625D03*
G54D110*
X09247Y073386D03*
X09503D03*
X04147D03*
X04403D03*
G54D111*
X09503Y071614D03*
X09247D03*
X04403D03*
X04147D03*
G54D112*
X01425Y06675D03*
X0275Y06475D03*
X09775Y0495D03*
X09525Y01675D03*
G54D113*
X01625Y06675D03*
X0255Y06475D03*
X09575Y0495D03*
X09725Y01675D03*
G54D114*
X1025Y072D03*
Y012D03*
X012D03*
Y072D03*
G54D115*
X0905Y01175D03*
X0675D03*
X02125Y04375D03*
X02875D03*
X03625D03*
X04375D03*
X05125D03*
X05875D03*
X0355Y05D03*
X0826Y01575D03*
G54D116*
X0895Y01075D03*
X0915Y01275D03*
Y01075D03*
X0895Y01275D03*
X0665D03*
X0685Y01075D03*
Y01275D03*
X0665Y01075D03*
X02225Y04275D03*
X02025Y04475D03*
Y04275D03*
X02225Y04475D03*
X02975D03*
X02775Y04275D03*
Y04475D03*
X02975Y04275D03*
X03725D03*
X03525Y04475D03*
Y04275D03*
X03725Y04475D03*
X04475D03*
X04275Y04275D03*
Y04475D03*
X04475Y04275D03*
X05225D03*
X05025Y04475D03*
Y04275D03*
X05225Y04475D03*
X05975D03*
X05775Y04275D03*
Y04475D03*
X05975Y04275D03*
X0365Y049D03*
X0345Y051D03*
Y049D03*
X0365Y051D03*
X0836Y01675D03*
X0816Y01475D03*
Y01675D03*
X0836Y01475D03*
G54D117*
X05525Y03225D03*
X0477Y0483D03*
X0387Y04825D03*
X0254Y03375D03*
X03345Y036D03*
X03395Y0365D03*
X03905D03*
X0417D03*
X04615Y03225D03*
X04575Y03325D03*
X0488Y0487D03*
X04265Y0483D03*
X0539Y0485D03*
X05335D03*
X054Y03225D03*
Y03325D03*
X0564Y0367D03*
X04175Y0484D03*
X0815Y02775D03*
X04875Y02375D03*
X05625D03*
Y02725D03*
X04875Y0265D03*
X06175Y05525D03*
X061Y02375D03*
X0864Y06375D03*
X0849Y0634D03*
X0899Y0627D03*
X0898Y06375D03*
X098Y047146D03*
X015Y06325D03*
X024504Y0593D03*
X024204Y06255D03*
Y0622D03*
X024504Y06255D03*
Y0622D03*
X025004Y06165D03*
Y0613D03*
Y0602D03*
X025354Y06165D03*
Y0613D03*
X025304Y0602D03*
X025004Y05985D03*
X025304D03*
X024154Y0593D03*
X024504Y05895D03*
X024154D03*
X09565Y03885D03*
Y0385D03*
X096Y03885D03*
X09655Y0377D03*
Y038D03*
X0969Y0377D03*
X098Y03765D03*
X09835D03*
X0969Y038D03*
X098D03*
X09835D03*
X0989Y0385D03*
X09925D03*
X0989Y0388D03*
X09925D03*
X0215Y06225D03*
X02205D03*
X02175D03*
X02294Y06266D03*
X02259D03*
X02071D03*
X02101D03*
X02115Y06225D03*
X0209D03*
X02022Y06292D03*
Y06262D03*
X01575Y0634D03*
X09916Y04041D03*
X0987Y0413D03*
X09916Y04204D03*
X0987Y0421D03*
X099134Y042784D03*
X099315Y046335D03*
X096Y0385D03*
X060886Y070636D03*
X060688Y070438D03*
X06049Y07024D03*
X060292Y070042D03*
X060094Y069844D03*
X059896Y069646D03*
X059698Y069448D03*
X0595Y06925D03*
X0415Y05735D03*
X04775D03*
X046276Y057724D03*
X039933Y057733D03*
X052633Y05765D03*
X054Y05735D03*
X05975Y05525D03*
X033Y0533D03*
X0905Y05775D03*
X095Y06D03*
X09375Y0705D03*
X094Y05375D03*
X085121Y058665D03*
X08465Y059D03*
X08125Y02855D03*
X07675Y03175D03*
X0765Y02725D03*
X0934Y05615D03*
X07645Y02695D03*
X07625Y02735D03*
X07825Y02625D03*
X07665Y0258D03*
X0812Y02765D03*
X08145Y02725D03*
X0812Y02735D03*
X062634Y059925D03*
X062654Y052696D03*
Y052396D03*
X066116Y052681D03*
Y052366D03*
X083871D03*
Y052681D03*
X080139Y052366D03*
Y052681D03*
X026Y072D03*
X02175Y07325D03*
X02875Y072D03*
X032Y07225D03*
X03475D03*
X0375Y072D03*
X04075Y073D03*
X04575Y06925D03*
Y06775D03*
X04475Y06525D03*
X09025Y07175D03*
Y0725D03*
Y07325D03*
X08525Y0675D03*
X087D03*
X08875D03*
X084Y058D03*
X08Y05775D03*
X082Y05875D03*
X0839Y05695D03*
X079Y0565D03*
X076077Y058177D03*
X075879Y057979D03*
X076275Y058375D03*
X09105Y05865D03*
X09055Y059D03*
X094026Y0569D03*
X04575Y06825D03*
X04025Y06685D03*
X02375Y04665D03*
X023D03*
X02225D03*
X03125Y05075D03*
Y0495D03*
Y04875D03*
X0325Y0485D03*
X03125Y04775D03*
X029Y04925D03*
X02625Y05225D03*
X0265Y05375D03*
Y05475D03*
X02325Y05375D03*
X02825Y048D03*
X02425Y0474D03*
X02675Y0555D03*
X02495Y06775D03*
X02735Y0675D03*
X09175Y04225D03*
X03545Y0662D03*
X0327Y06595D03*
X02995Y0665D03*
X03815Y06548D03*
X05905Y06024D03*
X05625Y06025D03*
X05915Y06845D03*
X0533D03*
X091Y07275D03*
X08475D03*
X05675Y06885D03*
X0523D03*
X091Y07325D03*
X08425Y07275D03*
X049Y071D03*
Y07D03*
X07025Y02875D03*
X0627Y0489D03*
Y0486D03*
Y04985D03*
Y05015D03*
Y04955D03*
Y04925D03*
X06265Y051736D03*
Y0512D03*
Y0509D03*
Y052016D03*
Y05425D03*
Y05395D03*
Y0533D03*
Y053D03*
X06675Y0492D03*
X06125Y0415D03*
Y04122D03*
Y04094D03*
Y04066D03*
Y04025D03*
Y03997D03*
Y03969D03*
Y03941D03*
Y039D03*
Y03872D03*
Y03844D03*
Y03816D03*
X03775Y0525D03*
X04225Y05D03*
X0425Y05125D03*
X04875D03*
X0485Y05D03*
X0445Y05175D03*
X044Y0525D03*
X055Y05125D03*
X05475Y05D03*
X05075Y05175D03*
X05025Y0525D03*
X03225Y036D03*
X032Y0365D03*
X024Y03375D03*
X04725Y03325D03*
X04775Y03225D03*
X05525Y03325D03*
X079Y0455D03*
X076Y029814D03*
X07597Y03125D03*
X07665Y0309D03*
X076673Y058373D03*
X0284Y04695D03*
G54D118*
X058Y0504D03*
Y0497D03*
X060033Y0504D03*
X08125Y0307D03*
X078383Y0315D03*
X07875Y03275D03*
X06065Y049976D03*
X061425Y05D03*
X0674Y048524D03*
X06815D03*
X06868Y0515D03*
X06793D03*
X06718D03*
X0667Y05325D03*
X06845Y0532D03*
X0743Y0162D03*
X0737Y0167D03*
X07585Y0162D03*
X0764Y0167D03*
X07625Y01775D03*
X0754D03*
X07585D03*
X07785Y01825D03*
X07655Y01735D03*
X07785Y019D03*
X08165Y0258D03*
X0776Y02145D03*
X07825Y02155D03*
X0826Y018D03*
Y02085D03*
X09145Y0237D03*
Y0243D03*
X0899D03*
X09145Y02315D03*
X0905Y02375D03*
X0862Y028D03*
X08625Y02725D03*
X0744Y029729D03*
X08015Y02095D03*
X0806Y0216D03*
X07865Y04915D03*
X0794D03*
X0803Y0492D03*
X080056Y04955D03*
X0842Y04895D03*
X08515D03*
X08665Y05005D03*
X08515Y05055D03*
X0865Y0485D03*
X08185Y03095D03*
X08135Y0315D03*
X08465Y028D03*
X08425D03*
X0205Y0665D03*
X01975Y06575D03*
Y06725D03*
X09375Y05475D03*
G54D119*
X07125Y0275D03*
M02*