%FSTAX23Y23*%
%MOIN*%
%SFA1B1*%

%IPPOS*%
%AMD13*
4,1,8,0.007900,-0.011800,0.007900,0.011800,0.003900,0.015700,-0.003900,0.015700,-0.007900,0.011800,-0.007900,-0.011800,-0.003900,-0.015700,0.003900,-0.015700,0.007900,-0.011800,0.0*
1,1,0.007880,0.003900,-0.011800*
1,1,0.007880,0.003900,0.011800*
1,1,0.007880,-0.003900,0.011800*
1,1,0.007880,-0.003900,-0.011800*
%
%AMD14*
4,1,8,-0.011800,-0.007900,0.011800,-0.007900,0.015700,-0.003900,0.015700,0.003900,0.011800,0.007900,-0.011800,0.007900,-0.015700,0.003900,-0.015700,-0.003900,-0.011800,-0.007900,0.0*
1,1,0.007880,-0.011800,-0.003900*
1,1,0.007880,0.011800,-0.003900*
1,1,0.007880,0.011800,0.003900*
1,1,0.007880,-0.011800,0.003900*
%
%AMD16*
4,1,8,0.034400,-0.015700,0.034400,0.015700,0.018700,0.031500,-0.018700,0.031500,-0.034400,0.015700,-0.034400,-0.015700,-0.018700,-0.031500,0.018700,-0.031500,0.034400,-0.015700,0.0*
1,1,0.031500,0.018700,-0.015700*
1,1,0.031500,0.018700,0.015700*
1,1,0.031500,-0.018700,0.015700*
1,1,0.031500,-0.018700,-0.015700*
%
%AMD23*
4,1,4,-0.002800,-0.022200,0.022200,0.002800,0.002800,0.022200,-0.022200,-0.002800,-0.002800,-0.022200,0.0*
%
%AMD29*
4,1,8,-0.017700,-0.039400,0.017700,-0.039400,0.035400,-0.021600,0.035400,0.021600,0.017700,0.039400,-0.017700,0.039400,-0.035400,0.021600,-0.035400,-0.021600,-0.017700,-0.039400,0.0*
1,1,0.035440,-0.017700,-0.021600*
1,1,0.035440,0.017700,-0.021600*
1,1,0.035440,0.017700,0.021600*
1,1,0.035440,-0.017700,0.021600*
%
%AMD30*
4,1,4,0.001400,0.023600,-0.023600,-0.001400,-0.001400,-0.023600,0.023600,0.001400,0.001400,0.023600,0.0*
%
%AMD31*
4,1,4,0.022200,-0.002800,-0.002800,0.022200,-0.022200,0.002800,0.002800,-0.022200,0.022200,-0.002800,0.0*
%
%AMD32*
4,1,8,0.014600,-0.028500,0.028500,-0.014600,0.028600,-0.000700,-0.000700,0.028600,-0.014600,0.028500,-0.028500,0.014600,-0.028600,0.000700,0.000700,-0.028600,0.014600,-0.028500,0.0*
1,1,0.019680,0.007700,-0.021600*
1,1,0.019680,0.021600,-0.007700*
1,1,0.019680,-0.007700,0.021600*
1,1,0.019680,-0.021600,0.007700*
%
%AMD33*
4,1,4,0.007700,-0.035400,0.035400,-0.007700,-0.007700,0.035400,-0.035400,0.007700,0.007700,-0.035400,0.0*
%
%AMD34*
4,1,4,0.023600,-0.001400,-0.001400,0.023600,-0.023600,0.001400,0.001400,-0.023600,0.023600,-0.001400,0.0*
%
%AMD35*
4,1,8,-0.028500,-0.014600,-0.014600,-0.028500,-0.000700,-0.028600,0.028600,0.000700,0.028500,0.014600,0.014600,0.028500,0.000700,0.028600,-0.028600,-0.000700,-0.028500,-0.014600,0.0*
1,1,0.019680,-0.021600,-0.007700*
1,1,0.019680,-0.007700,-0.021600*
1,1,0.019680,0.021600,0.007700*
1,1,0.019680,0.007700,0.021600*
%
%AMD36*
4,1,4,-0.035400,-0.007700,-0.007700,-0.035400,0.035400,0.007700,0.007700,0.035400,-0.035400,-0.007700,0.0*
%
%AMD38*
4,1,8,-0.039400,0.017700,-0.039400,-0.017700,-0.021600,-0.035400,0.021600,-0.035400,0.039400,-0.017700,0.039400,0.017700,0.021600,0.035400,-0.021600,0.035400,-0.039400,0.017700,0.0*
1,1,0.035440,-0.021600,0.017700*
1,1,0.035440,-0.021600,-0.017700*
1,1,0.035440,0.021600,-0.017700*
1,1,0.035440,0.021600,0.017700*
%
%AMD51*
4,1,8,0.006900,0.025600,-0.006900,0.025600,-0.013800,0.018700,-0.013800,-0.018700,-0.006900,-0.025600,0.006900,-0.025600,0.013800,-0.018700,0.013800,0.018700,0.006900,0.025600,0.0*
1,1,0.013780,0.006900,0.018700*
1,1,0.013780,-0.006900,0.018700*
1,1,0.013780,-0.006900,-0.018700*
1,1,0.013780,0.006900,-0.018700*
%
%AMD54*
4,1,8,-0.006900,-0.035400,0.006900,-0.035400,0.013800,-0.028500,0.013800,0.028500,0.006900,0.035400,-0.006900,0.035400,-0.013800,0.028500,-0.013800,-0.028500,-0.006900,-0.035400,0.0*
1,1,0.013780,-0.006900,-0.028500*
1,1,0.013780,0.006900,-0.028500*
1,1,0.013780,0.006900,0.028500*
1,1,0.013780,-0.006900,0.028500*
%
%AMD59*
4,1,8,0.006900,0.024600,-0.006900,0.024600,-0.013800,0.017700,-0.013800,-0.017700,-0.006900,-0.024600,0.006900,-0.024600,0.013800,-0.017700,0.013800,0.017700,0.006900,0.024600,0.0*
1,1,0.013780,0.006900,0.017700*
1,1,0.013780,-0.006900,0.017700*
1,1,0.013780,-0.006900,-0.017700*
1,1,0.013780,0.006900,-0.017700*
%
%AMD61*
4,1,8,-0.036400,0.009800,-0.036400,-0.009800,-0.026600,-0.019700,0.026600,-0.019700,0.036400,-0.009800,0.036400,0.009800,0.026600,0.019700,-0.026600,0.019700,-0.036400,0.009800,0.0*
1,1,0.019680,-0.026600,0.009800*
1,1,0.019680,-0.026600,-0.009800*
1,1,0.019680,0.026600,-0.009800*
1,1,0.019680,0.026600,0.009800*
%
%ADD10C,0.015750*%
%ADD11R,0.106000X0.044000*%
%ADD12R,0.044000X0.106000*%
G04~CAMADD=13~8~0.0~0.0~315.0~157.5~39.4~0.0~15~0.0~0.0~0.0~0.0~0~0.0~0.0~0.0~0.0~0~0.0~0.0~0.0~270.0~158.0~315.0*
%ADD13D13*%
G04~CAMADD=14~8~0.0~0.0~315.0~157.5~39.4~0.0~15~0.0~0.0~0.0~0.0~0~0.0~0.0~0.0~0.0~0~0.0~0.0~0.0~180.0~315.0~157.0*
%ADD14D14*%
%ADD15O,0.078740X0.019690*%
G04~CAMADD=16~8~0.0~0.0~629.9~689.0~157.5~0.0~15~0.0~0.0~0.0~0.0~0~0.0~0.0~0.0~0.0~0~0.0~0.0~0.0~270.0~689.0~629.0*
%ADD16D16*%
%ADD17R,0.068900X0.062990*%
%ADD18R,0.035430X0.027560*%
%ADD19R,0.031500X0.035430*%
%ADD20R,0.035430X0.031500*%
%ADD21R,0.055120X0.043310*%
%ADD22R,0.027560X0.035430*%
G04~CAMADD=23~9~0.0~0.0~354.3~275.6~0.0~0.0~0~0.0~0.0~0.0~0.0~0~0.0~0.0~0.0~0.0~0~0.0~0.0~0.0~225.0~444.0~443.0*
%ADD23D23*%
%ADD24O,0.009840X0.031500*%
%ADD25O,0.031500X0.009840*%
%ADD26R,0.070870X0.070870*%
%ADD27R,0.043310X0.066930*%
%ADD28R,0.070870X0.078740*%
G04~CAMADD=29~8~0.0~0.0~708.7~787.4~177.2~0.0~15~0.0~0.0~0.0~0.0~0~0.0~0.0~0.0~0.0~0~0.0~0.0~0.0~180.0~710.0~788.0*
%ADD29D29*%
G04~CAMADD=30~9~0.0~0.0~354.3~315.0~0.0~0.0~0~0.0~0.0~0.0~0.0~0~0.0~0.0~0.0~0.0~0~0.0~0.0~0.0~45.0~472.0~471.0*
%ADD30D30*%
G04~CAMADD=31~9~0.0~0.0~354.3~275.6~0.0~0.0~0~0.0~0.0~0.0~0.0~0~0.0~0.0~0.0~0.0~0~0.0~0.0~0.0~315.0~444.0~443.0*
%ADD31D31*%
G04~CAMADD=32~8~0.0~0.0~393.7~610.2~98.4~0.0~15~0.0~0.0~0.0~0.0~0~0.0~0.0~0.0~0.0~0~0.0~0.0~0.0~225.0~628.0~627.0*
%ADD32D32*%
G04~CAMADD=33~9~0.0~0.0~393.7~610.2~0.0~0.0~0~0.0~0.0~0.0~0.0~0~0.0~0.0~0.0~0.0~0~0.0~0.0~0.0~225.0~708.0~707.0*
%ADD33D33*%
G04~CAMADD=34~9~0.0~0.0~354.3~315.0~0.0~0.0~0~0.0~0.0~0.0~0.0~0~0.0~0.0~0.0~0.0~0~0.0~0.0~0.0~315.0~472.0~471.0*
%ADD34D34*%
G04~CAMADD=35~8~0.0~0.0~393.7~610.2~98.4~0.0~15~0.0~0.0~0.0~0.0~0~0.0~0.0~0.0~0.0~0~0.0~0.0~0.0~135.0~628.0~627.0*
%ADD35D35*%
G04~CAMADD=36~9~0.0~0.0~393.7~610.2~0.0~0.0~0~0.0~0.0~0.0~0.0~0~0.0~0.0~0.0~0.0~0~0.0~0.0~0.0~135.0~708.0~707.0*
%ADD36D36*%
%ADD37O,0.070870X0.009840*%
G04~CAMADD=38~8~0.0~0.0~708.7~787.4~177.2~0.0~15~0.0~0.0~0.0~0.0~0~0.0~0.0~0.0~0.0~0~0.0~0.0~0.0~90.0~788.0~709.0*
%ADD38D38*%
%ADD39R,0.078740X0.070870*%
%ADD40R,0.043310X0.055120*%
%ADD41O,0.094490X0.017720*%
%ADD42O,0.078740X0.013780*%
%ADD43R,0.066930X0.043310*%
%ADD44R,0.078740X0.236220*%
%ADD45R,0.022000X0.024000*%
%ADD46R,0.094000X0.122000*%
%ADD47R,0.078000X0.018140*%
%ADD48R,0.024000X0.022000*%
%ADD49R,0.071000X0.044000*%
%ADD50R,0.236220X0.078740*%
G04~CAMADD=51~8~0.0~0.0~275.6~511.8~68.9~0.0~15~0.0~0.0~0.0~0.0~0~0.0~0.0~0.0~0.0~0~0.0~0.0~0.0~0.0~275.6~511.8*
%ADD51D51*%
%ADD52R,0.027560X0.051180*%
%ADD53R,0.027560X0.070870*%
G04~CAMADD=54~8~0.0~0.0~275.6~708.7~68.9~0.0~15~0.0~0.0~0.0~0.0~0~0.0~0.0~0.0~0.0~0~0.0~0.0~0.0~180.0~276.0~709.0*
%ADD54D54*%
%ADD55R,0.044000X0.071000*%
%ADD56R,0.122000X0.094000*%
%ADD57R,0.018140X0.078000*%
%ADD58R,0.295280X0.295280*%
G04~CAMADD=59~8~0.0~0.0~275.6~492.1~68.9~0.0~15~0.0~0.0~0.0~0.0~0~0.0~0.0~0.0~0.0~0~0.0~0.0~0.0~0.0~275.6~492.1*
%ADD59D59*%
%ADD60R,0.027560X0.049210*%
G04~CAMADD=61~8~0.0~0.0~393.7~728.4~98.4~0.0~15~0.0~0.0~0.0~0.0~0~0.0~0.0~0.0~0.0~0~0.0~0.0~0.0~90.0~728.0~394.0*
%ADD61D61*%
%ADD62R,0.072840X0.039370*%
%ADD63R,0.072840X0.137800*%
%ADD64C,0.008000*%
%ADD65C,0.012350*%
%ADD66C,0.010000*%
%ADD67C,0.010000*%
%ADD68C,0.050000*%
%ADD69C,0.020000*%
%ADD70C,0.022000*%
%ADD71C,0.011000*%
%ADD72C,0.016800*%
%ADD73C,0.015740*%
%ADD74C,0.016830*%
%ADD75C,0.016000*%
%ADD76C,0.016800*%
%ADD77C,0.011680*%
%ADD78C,0.035120*%
%ADD79C,0.040000*%
%ADD80C,0.011230*%
%ADD81R,0.285350X0.055000*%
%ADD82R,0.055000X0.270000*%
%ADD83C,0.068000*%
%ADD84C,0.094490*%
%ADD85R,0.059060X0.059060*%
%ADD86C,0.059060*%
%ADD87C,0.070870*%
%ADD88C,0.200000*%
%ADD89C,0.047240*%
%ADD90C,0.060000*%
%ADD91C,0.094000*%
%ADD92R,0.059060X0.059060*%
%ADD93C,0.236220*%
%ADD94C,0.196850*%
%ADD95C,0.020000*%
%ADD96C,0.022000*%
%ADD97C,0.028000*%
%ADD98C,0.025980*%
%ADD99C,0.050000*%
%LNdsau-motherboard-reva-1*%
%LPD*%
G36*
X09705Y0442D02*
X09885D01*
X09915Y0445*
X10095*
Y0405*
X09995*
Y043*
X09915*
X0988Y04335*
X09735*
Y0423*
X0967*
Y0416*
X0952*
X0945Y0409*
Y03775*
X0933*
Y04455*
X0967*
X09705Y0442*
G37*
G36*
X0994Y0375D02*
X0955D01*
Y039*
X0994*
Y0375*
G37*
G36*
X0995Y02125D02*
X093D01*
Y02675*
X0995*
Y02125*
G37*
G36*
X09795Y0407D02*
X0975D01*
Y0424*
X09795*
Y0407*
G37*
G36*
X0223Y06105D02*
X0206D01*
Y0615*
X0223*
Y06105*
G37*
G36*
X0255Y0588D02*
X024D01*
Y0627*
X0255*
Y0588*
G37*
G36*
X0225Y0635D02*
X02D01*
Y0627*
X01965Y06235*
Y0609*
X0207*
Y06025*
X0214*
Y05875*
X0227Y05745*
X02525*
Y0565*
X01845*
Y05925*
Y06025*
X0188Y0606*
Y0624*
X0185Y0627*
Y0641*
Y0645*
X0225*
Y0635*
G37*
G54D10*
X08689Y07264D02*
D01*
X08689Y07265*
X08689Y07265*
X08689Y07266*
X08689Y07266*
X08689Y07267*
X08688Y07267*
X08688Y07268*
X08688Y07268*
X08688Y07269*
X08687Y07269*
X08687Y0727*
X08686Y0727*
X08686Y0727*
X08686Y07271*
X08685Y07271*
X08685Y07271*
X08684Y07271*
X08684Y07272*
X08683Y07272*
X08683Y07272*
X08682Y07272*
X08681Y07272*
X08681*
X0868Y07272*
X0868Y07272*
X08679Y07272*
X08679Y07272*
X08678Y07271*
X08678Y07271*
X08677Y07271*
X08677Y07271*
X08676Y0727*
X08676Y0727*
X08676Y0727*
X08675Y07269*
X08675Y07269*
X08675Y07268*
X08674Y07268*
X08674Y07267*
X08674Y07267*
X08674Y07266*
X08674Y07266*
X08673Y07265*
X08673Y07265*
X08673Y07264*
X0876Y07335D02*
D01*
X0876Y07334*
X0876Y07334*
X0876Y07333*
X0876Y07333*
X0876Y07332*
X08761Y07332*
X08761Y07331*
X08761Y07331*
X08761Y0733*
X08762Y0733*
X08762Y07329*
X08763Y07329*
X08763Y07329*
X08763Y07328*
X08764Y07328*
X08764Y07328*
X08765Y07328*
X08765Y07327*
X08766Y07327*
X08766Y07327*
X08767Y07327*
X08768Y07327*
X08768*
X08769Y07327*
X08769Y07327*
X0877Y07327*
X0877Y07327*
X08771Y07328*
X08771Y07328*
X08772Y07328*
X08772Y07328*
X08773Y07329*
X08773Y07329*
X08773Y07329*
X08774Y0733*
X08774Y0733*
X08774Y07331*
X08775Y07331*
X08775Y07332*
X08775Y07332*
X08775Y07333*
X08775Y07333*
X08776Y07334*
X08776Y07334*
X08776Y07335*
Y07264D02*
D01*
X08776Y07265*
X08776Y07265*
X08776Y07266*
X08775Y07266*
X08775Y07267*
X08775Y07267*
X08775Y07268*
X08774Y07268*
X08774Y07269*
X08774Y07269*
X08773Y0727*
X08773Y0727*
X08773Y0727*
X08772Y07271*
X08772Y07271*
X08771Y07271*
X08771Y07271*
X0877Y07272*
X0877Y07272*
X08769Y07272*
X08769Y07272*
X08768Y07272*
X08768*
X08767Y07272*
X08766Y07272*
X08766Y07272*
X08765Y07272*
X08765Y07271*
X08764Y07271*
X08764Y07271*
X08763Y07271*
X08763Y0727*
X08763Y0727*
X08762Y0727*
X08762Y07269*
X08761Y07269*
X08761Y07268*
X08761Y07268*
X08761Y07267*
X0876Y07267*
X0876Y07266*
X0876Y07266*
X0876Y07265*
X0876Y07265*
X0876Y07264*
X08673Y07335D02*
D01*
X08673Y07334*
X08673Y07334*
X08673Y07333*
X08674Y07333*
X08674Y07332*
X08674Y07332*
X08674Y07331*
X08675Y07331*
X08675Y0733*
X08675Y0733*
X08676Y07329*
X08676Y07329*
X08676Y07329*
X08677Y07328*
X08677Y07328*
X08678Y07328*
X08678Y07328*
X08679Y07327*
X08679Y07327*
X0868Y07327*
X0868Y07327*
X08681Y07327*
X08681*
X08682Y07327*
X08683Y07327*
X08683Y07327*
X08684Y07327*
X08684Y07328*
X08685Y07328*
X08685Y07328*
X08686Y07328*
X08686Y07329*
X08686Y07329*
X08687Y07329*
X08687Y0733*
X08688Y0733*
X08688Y07331*
X08688Y07331*
X08688Y07332*
X08689Y07332*
X08689Y07333*
X08689Y07333*
X08689Y07334*
X08689Y07334*
X08689Y07335*
X08791Y07307D02*
D01*
X08791Y07307*
X0879Y07307*
X0879Y07307*
X08789Y07307*
X08789Y07307*
X08788Y07307*
X08788Y07306*
X08787Y07306*
X08787Y07306*
X08786Y07306*
X08786Y07305*
X08786Y07305*
X08785Y07304*
X08785Y07304*
X08785Y07303*
X08784Y07303*
X08784Y07302*
X08784Y07302*
X08784Y07301*
X08784Y07301*
X08784Y073*
X08784Y073*
Y07299*
X08784Y07299*
X08784Y07298*
X08784Y07298*
X08784Y07297*
X08784Y07297*
X08784Y07296*
X08785Y07296*
X08785Y07295*
X08785Y07295*
X08786Y07294*
X08786Y07294*
X08786Y07293*
X08787Y07293*
X08787Y07293*
X08788Y07293*
X08788Y07292*
X08789Y07292*
X08789Y07292*
X0879Y07292*
X0879Y07292*
X08791Y07292*
X08791Y07292*
X08658D02*
D01*
X08658Y07292*
X08659Y07292*
X08659Y07292*
X0866Y07292*
X0866Y07292*
X08661Y07292*
X08661Y07293*
X08662Y07293*
X08662Y07293*
X08663Y07293*
X08663Y07294*
X08663Y07294*
X08664Y07295*
X08664Y07295*
X08664Y07296*
X08665Y07296*
X08665Y07297*
X08665Y07297*
X08665Y07298*
X08665Y07298*
X08665Y07299*
X08665Y07299*
Y073*
X08665Y073*
X08665Y07301*
X08665Y07301*
X08665Y07302*
X08665Y07302*
X08665Y07303*
X08664Y07303*
X08664Y07304*
X08664Y07304*
X08663Y07305*
X08663Y07305*
X08663Y07306*
X08662Y07306*
X08662Y07306*
X08661Y07306*
X08661Y07307*
X0866Y07307*
X0866Y07307*
X08659Y07307*
X08659Y07307*
X08658Y07307*
X08658Y07307*
G54D11*
X02175Y06266D03*
Y06384D03*
G54D12*
X09916Y04125D03*
X10034D03*
G54D13*
X08795Y073D03*
X08654D03*
G54D14*
X08768Y07258D03*
X08681D03*
X08768Y07341D03*
X08681D03*
G54D15*
X08287Y0615D03*
Y06118D03*
Y06087D03*
Y06055D03*
Y06024D03*
Y05992D03*
Y05961D03*
Y05929D03*
Y05898D03*
Y05866D03*
Y05835D03*
Y05803D03*
Y05772D03*
Y0574D03*
Y05709D03*
Y05677D03*
Y05646D03*
Y05614D03*
Y05583D03*
Y05551D03*
Y0552D03*
Y05488D03*
Y05457D03*
Y05425D03*
Y05394D03*
Y05362D03*
Y05331D03*
Y05299D03*
Y05268D03*
Y05236D03*
Y05205D03*
Y05173D03*
Y05142D03*
Y0511D03*
Y05079D03*
Y05047D03*
Y05016D03*
Y04984D03*
Y04953D03*
Y04921D03*
Y0489D03*
Y04858D03*
Y04827D03*
Y04795D03*
Y04764D03*
Y04732D03*
Y04701D03*
Y04669D03*
Y04638D03*
Y04606D03*
X08113Y0615D03*
Y06118D03*
Y06087D03*
Y06055D03*
Y06024D03*
Y05992D03*
Y05961D03*
Y05929D03*
Y05898D03*
Y05866D03*
Y05835D03*
Y05803D03*
Y05772D03*
Y0574D03*
Y05709D03*
Y05677D03*
Y05646D03*
Y05614D03*
Y05583D03*
Y05551D03*
Y0552D03*
Y05488D03*
Y05457D03*
Y05425D03*
Y05394D03*
Y05362D03*
Y05331D03*
Y05299D03*
Y05268D03*
Y05236D03*
Y05205D03*
Y05173D03*
Y05142D03*
Y0511D03*
Y05079D03*
Y05047D03*
Y05016D03*
Y04984D03*
Y04953D03*
Y04921D03*
Y0489D03*
Y04858D03*
Y04827D03*
Y04795D03*
Y04764D03*
Y04732D03*
Y04701D03*
Y04669D03*
Y04638D03*
Y04606D03*
X06536Y0615D03*
Y06118D03*
Y06087D03*
Y06055D03*
Y06024D03*
Y05992D03*
Y05961D03*
Y05929D03*
Y05898D03*
Y05866D03*
Y05835D03*
Y05803D03*
Y05772D03*
Y0574D03*
Y05709D03*
Y05677D03*
Y05646D03*
Y05614D03*
Y05583D03*
Y05551D03*
Y0552D03*
Y05488D03*
Y05457D03*
Y05425D03*
Y05394D03*
Y05362D03*
Y05331D03*
Y05299D03*
Y05268D03*
Y05236D03*
Y05205D03*
Y05173D03*
Y05142D03*
Y0511D03*
Y05079D03*
Y05047D03*
Y05016D03*
Y04984D03*
Y04953D03*
Y04921D03*
Y0489D03*
Y04858D03*
Y04827D03*
Y04795D03*
Y04764D03*
Y04732D03*
Y04701D03*
Y04669D03*
Y04638D03*
Y04606D03*
X06363Y0615D03*
Y06118D03*
Y06087D03*
Y06055D03*
Y06024D03*
Y05992D03*
Y05961D03*
Y05929D03*
Y05898D03*
Y05866D03*
Y05835D03*
Y05803D03*
Y05772D03*
Y0574D03*
Y05709D03*
Y05677D03*
Y05646D03*
Y05614D03*
Y05583D03*
Y05551D03*
Y0552D03*
Y05488D03*
Y05457D03*
Y05425D03*
Y05394D03*
Y05362D03*
Y05331D03*
Y05299D03*
Y05268D03*
Y05236D03*
Y05205D03*
Y05173D03*
Y05142D03*
Y0511D03*
Y05079D03*
Y05047D03*
Y05016D03*
Y04984D03*
Y04953D03*
Y04921D03*
Y0489D03*
Y04858D03*
Y04827D03*
Y04795D03*
Y04764D03*
Y04732D03*
Y04701D03*
Y04669D03*
Y04638D03*
Y04606D03*
G54D16*
X01973Y0665D03*
G54D17*
X01826Y0665D03*
X03178Y07315D03*
X03031D03*
X03453D03*
X03306D03*
X03728D03*
X03581D03*
X04003D03*
X03856D03*
X02251Y07325D03*
X02398D03*
X02751D03*
X02898D03*
X02501D03*
X02648D03*
G54D18*
X0826Y0197D03*
Y02029D03*
X08335Y01904D03*
Y01845D03*
X04025Y06779D03*
Y0672D03*
X0395D03*
Y06779D03*
X0826Y01845D03*
Y01904D03*
Y0212D03*
Y02179D03*
G54D19*
X07737Y019D03*
X07682D03*
X07737Y01825D03*
X07682D03*
X02372Y05375D03*
X02427D03*
X02577Y05475D03*
X02522D03*
X03077Y04775D03*
X03022D03*
X04622Y06825D03*
X04677D03*
X09297Y0569D03*
X09352D03*
Y05375D03*
X09297D03*
G54D20*
X07585Y01672D03*
Y01727D03*
X0794Y02522D03*
Y02577D03*
X0788Y02522D03*
Y02577D03*
X0841Y01902D03*
Y01847D03*
X032Y04852D03*
Y04797D03*
X041Y06522D03*
Y06577D03*
X042D03*
Y06522D03*
X0776Y02102D03*
Y02047D03*
X0806Y02102D03*
Y02047D03*
X0905Y02272D03*
Y02327D03*
G54D21*
X0743Y01729D03*
Y0167D03*
X033Y05454D03*
Y05395D03*
G54D22*
X07939Y0245D03*
X0788D03*
X07914Y01925D03*
X07855D03*
X06104Y05525D03*
X06045D03*
X0272Y0555D03*
X02779D03*
X0302D03*
X03079D03*
X02854Y05325D03*
X02795D03*
X04704Y06525D03*
X04645D03*
X04579D03*
X0452D03*
X0462Y06925D03*
X04679D03*
X08895Y07175D03*
X08954D03*
X08895Y0725D03*
X08954D03*
X08895Y07325D03*
X08954D03*
X087Y06895D03*
X08759D03*
X08525D03*
X08584D03*
X08929Y069D03*
X0887D03*
X02345Y072D03*
X02404D03*
X02495D03*
X02554D03*
X02745D03*
X02804D03*
X02995Y069D03*
X03054D03*
X0327D03*
X03329D03*
X03545D03*
X03604D03*
X0382D03*
X03879D03*
X03929Y07225D03*
X0387D03*
X03654D03*
X03595D03*
X03379D03*
X0332D03*
X03104D03*
X03045D03*
X04529Y06925D03*
X0447D03*
X07745Y013D03*
X07804D03*
X09445Y0705D03*
X09504D03*
G54D23*
X07632Y02612D03*
X07591Y02653D03*
X07738Y02506D03*
X07697Y02547D03*
G54D24*
X0788Y02013D03*
X079D03*
X07919D03*
X07939D03*
Y02136D03*
X07919D03*
X079D03*
X0788D03*
X07732Y02732D03*
X07752D03*
X07771D03*
X07791D03*
X07811D03*
X0783D03*
X0785D03*
X0787D03*
X07889D03*
X07909D03*
X07929D03*
X07948D03*
X07968D03*
X07988D03*
X08007D03*
X08027D03*
Y03087D03*
X08007D03*
X07988D03*
X07968D03*
X07948D03*
X07929D03*
X07909D03*
X07889D03*
X0787D03*
X0785D03*
X0783D03*
X07811D03*
X07791D03*
X07771D03*
X07752D03*
X07732D03*
G54D25*
X07971Y02045D03*
Y02065D03*
Y02084D03*
Y02104D03*
X07848D03*
Y02084D03*
Y02065D03*
Y02045D03*
X07702Y03057D03*
Y03037D03*
Y03018D03*
Y02998D03*
Y02978D03*
Y02959D03*
Y02939D03*
Y02919D03*
Y029D03*
Y0288D03*
Y0286D03*
Y02841D03*
Y02821D03*
Y02801D03*
Y02782D03*
Y02762D03*
X08057D03*
Y02782D03*
Y02801D03*
Y02821D03*
Y02841D03*
Y0286D03*
Y0288D03*
Y029D03*
Y02919D03*
Y02939D03*
Y02959D03*
Y02978D03*
Y02998D03*
Y03018D03*
Y03037D03*
Y03057D03*
G54D26*
X0791Y02075D03*
G54D27*
X07981Y01875D03*
X08088D03*
G54D28*
X07735Y01732D03*
X07835D03*
X07935D03*
Y01567D03*
X07835D03*
G54D29*
X07735Y01567D03*
G54D30*
X082Y02546D03*
X08239Y02507D03*
X09017Y01814D03*
X08978Y01853D03*
X08984Y01686D03*
X08945Y01725D03*
G54D31*
X08134Y02547D03*
X08093Y02506D03*
X0824Y02653D03*
X08199Y02612D03*
G54D32*
X08796Y01869D03*
G54D33*
X08838Y01911D03*
X0888Y01953D03*
X08753Y0208D03*
X08669Y01996D03*
G54D34*
X07631Y02546D03*
X07592Y02507D03*
X0688Y01715D03*
X06919Y01754D03*
X06799Y01793D03*
X06838Y01832D03*
G54D35*
X06919Y01913D03*
G54D36*
X06961Y01871D03*
X07003Y01829D03*
X0713Y01956D03*
X07046Y0204D03*
G54D37*
X0512Y05713D03*
Y05688D03*
Y05662D03*
Y05637D03*
Y05612D03*
Y05587D03*
Y05562D03*
Y05537D03*
Y05511D03*
Y05486D03*
X05329Y05713D03*
Y05688D03*
Y05662D03*
Y05637D03*
Y05612D03*
Y05587D03*
Y05562D03*
Y05537D03*
Y05511D03*
Y05486D03*
X04495Y05713D03*
Y05688D03*
Y05662D03*
Y05637D03*
Y05612D03*
Y05587D03*
Y05562D03*
Y05537D03*
Y05511D03*
Y05486D03*
X04704Y05713D03*
Y05688D03*
Y05662D03*
Y05637D03*
Y05612D03*
Y05587D03*
Y05562D03*
Y05537D03*
Y05511D03*
Y05486D03*
X0387Y05713D03*
Y05688D03*
Y05662D03*
Y05637D03*
Y05612D03*
Y05587D03*
Y05562D03*
Y05537D03*
Y05511D03*
Y05486D03*
X04079Y05713D03*
Y05688D03*
Y05662D03*
Y05637D03*
Y05612D03*
Y05587D03*
Y05562D03*
Y05537D03*
Y05511D03*
Y05486D03*
G54D38*
X02363Y05225D03*
G54D39*
X02536Y05025D03*
Y05225D03*
X02363Y05025D03*
G54D40*
X0252Y05375D03*
X02579D03*
X0302Y04875D03*
X03079D03*
G54D41*
X02762Y05063D03*
Y05037D03*
Y05012D03*
Y04986D03*
X03037Y05063D03*
Y05037D03*
Y05012D03*
Y04986D03*
G54D42*
X02728Y04698D03*
Y04723D03*
Y04749D03*
Y04775D03*
Y048D03*
Y04826D03*
Y04851D03*
X025Y04698D03*
Y04723D03*
Y04749D03*
Y04775D03*
Y048D03*
Y04826D03*
Y04851D03*
G54D43*
X032Y05028D03*
Y04921D03*
X09066Y02429D03*
Y02536D03*
G54D44*
X02265Y06075D03*
X02434D03*
G54D45*
X02108Y06175D03*
X02141D03*
X09736Y04625D03*
X09703D03*
X09686Y04575D03*
X09653D03*
X09831Y04665D03*
X09798D03*
X09931D03*
X09898D03*
X09838Y04714D03*
X09871D03*
G54D46*
X01925Y0615D03*
G54D47*
X02022Y06225D03*
Y06175D03*
Y06125D03*
Y06075D03*
X01828D03*
Y06125D03*
Y06175D03*
Y06225D03*
G54D48*
X01575Y06281D03*
Y06248D03*
Y06181D03*
Y06148D03*
X0165Y06116D03*
Y06083D03*
X017Y06066D03*
Y06033D03*
X015Y06266D03*
Y06233D03*
X0982Y04176D03*
Y04143D03*
G54D49*
X0245Y05716D03*
Y05834D03*
G54D50*
X09745Y04035D03*
Y03865D03*
G54D51*
X04187Y06772D03*
X04612Y06627D03*
G54D52*
X0415Y06772D03*
X04112D03*
Y06677D03*
X04187D03*
X0465Y06627D03*
X04687D03*
Y06722D03*
X04612D03*
G54D53*
X02525Y07017D03*
X02562Y06932D03*
X02775Y07017D03*
X02812Y06932D03*
X08925Y07092D03*
X08962Y07007D03*
X08575Y07092D03*
X08612Y07007D03*
X0875Y07092D03*
X08787Y07007D03*
X0385Y07117D03*
X03887Y07032D03*
X03575Y07117D03*
X03612Y07032D03*
X033Y07117D03*
X03337Y07032D03*
X03025Y07117D03*
X03062Y07032D03*
G54D54*
X02487Y06932D03*
X02737D03*
X08887Y07007D03*
X08537D03*
X08712D03*
X03812Y07032D03*
X03537D03*
X03262D03*
X02987D03*
G54D55*
X09386Y0385D03*
X09504D03*
G54D56*
X09795Y04375D03*
G54D57*
X0987Y04278D03*
X0982D03*
X0977D03*
X0972D03*
Y04472D03*
X0977D03*
X0982D03*
X0987D03*
G54D58*
X0788Y0291D03*
G54D59*
X09337Y05572D03*
G54D60*
X093Y05572D03*
X09262D03*
Y05477D03*
X093D03*
X09337D03*
G54D61*
X09225Y02488D03*
G54D62*
X09225Y02429D03*
Y0237D03*
Y02311D03*
G54D63*
X09474Y024D03*
G54D64*
X04675Y04778D02*
X05961D01*
X04775Y04825D02*
X048Y0485D01*
Y055*
X05961Y04778D02*
X05975Y04764D01*
X046Y04762D02*
X05937D01*
X0613Y0457*
X0399Y0481D02*
Y05375D01*
X05625Y02725D02*
Y03075D01*
X0567Y0312*
X0578*
X04875Y0265D02*
Y0309D01*
X04905Y0312*
X0503*
X041Y02375D02*
Y0305D01*
Y02375D02*
X061D01*
X03325D02*
X041D01*
Y0305D02*
X0417Y0312D01*
X0428*
X03325Y02375D02*
Y0305D01*
X0265Y02375D02*
X03325D01*
X03395Y0312D02*
X0353D01*
X03325Y0305D02*
X03395Y0312D01*
X0265Y02375D02*
Y03075D01*
X0215Y02375D02*
X0265D01*
Y03075D02*
X02695Y0312D01*
X0278*
X06175Y05525D02*
X0619D01*
X06104D02*
X06175D01*
X019Y0312D02*
X0203D01*
X01845Y0268D02*
X0215Y02375D01*
X01845Y0268D02*
Y03065D01*
X019Y0312*
X08302Y0627D02*
X08535D01*
X0864Y06375*
X08209Y06176D02*
X08302Y0627D01*
X08209Y06099D02*
Y06176D01*
X08165Y06055D02*
X08209Y06099D01*
X08113Y06055D02*
X08165D01*
X0899Y0627D02*
X0918D01*
X08113Y06087D02*
X08157D01*
X0817Y061*
Y06223*
X08164Y06228D02*
Y06284D01*
X0822Y0634*
X08164Y06228D02*
X0817Y06223D01*
X0822Y0634D02*
X0849D01*
X0824Y06185D02*
X08585D01*
X08825Y06425*
X08225Y0617D02*
X0824Y06185D01*
X08225Y06125D02*
Y0617D01*
Y06125D02*
X08231Y06118D01*
X08287*
X09175Y06275D02*
X0918Y0627D01*
X0898Y06375D02*
X09175D01*
X098Y04714D02*
X09838D01*
X015Y06266D02*
Y06325D01*
X01518Y06215D02*
X01575D01*
X015Y06233D02*
X01518Y06215D01*
X10257Y04472D02*
X1026Y04475D01*
X10125Y04472D02*
X10257D01*
X09813Y07291D02*
X1026Y06845D01*
Y0352D02*
Y06845D01*
X0999Y0325D02*
X1026Y0352D01*
X0245Y05889D02*
X0245Y0589D01*
X09559Y0385D02*
X0956Y0385D01*
X0243Y0675D02*
X02735D01*
X02185Y06505D02*
X0243Y0675D01*
X01865Y06505D02*
X02185D01*
X01828Y06468D02*
X01865Y06505D01*
X01828Y06225D02*
Y06468D01*
X0165Y06116D02*
X01711D01*
X0172Y06125*
X01828*
X01745Y06075D02*
X01828D01*
X0174Y0607D02*
X01745Y06075D01*
X01703Y0607D02*
X0174D01*
X017Y06066D02*
X01703Y0607D01*
X017Y0595D02*
Y06033D01*
X0165Y0603D02*
Y06083D01*
X01575Y05935D02*
Y06148D01*
Y06281D02*
Y0634D01*
Y06215D02*
X01675D01*
X01575Y06181D02*
Y06215D01*
Y06248*
X01675Y06215D02*
X01715Y06175D01*
X01828*
X09375Y0325D02*
X0999D01*
X0987Y04472D02*
X10125D01*
X0987Y04665D02*
Y0469D01*
X09871Y04691*
Y04714*
X0962Y04575D02*
Y04665D01*
X09798*
X09931Y04633D02*
Y04665D01*
X09898Y04665D02*
X09898Y04665D01*
X0987Y04665D02*
X09898D01*
X09831Y04665D02*
X09831Y04665D01*
X0987*
Y04625D02*
Y04665D01*
X0982Y04575D02*
X0987Y04625D01*
X0982Y04472D02*
Y04575D01*
X0967Y04625D02*
X0967Y04625D01*
X09703*
X0962Y04575D02*
X09653D01*
X0972Y04278D02*
Y04325D01*
Y04205D02*
Y04278D01*
Y04325D02*
Y0436D01*
X03575Y07175D02*
X0359Y0719D01*
X03645*
X03654Y07199*
Y07225*
X03575Y07117D02*
Y07175D01*
X0387Y07225D02*
Y07254D01*
X03856Y07268D02*
X0387Y07254D01*
X03856Y07268D02*
Y07315D01*
X03595Y07225D02*
Y07254D01*
X03581Y07268D02*
X03595Y07254D01*
X03581Y07268D02*
Y07315D01*
X06049Y07023D02*
X06127Y06945D01*
X06528*
X06029Y07004D02*
X06104Y06929D01*
X06521*
X06009Y06984D02*
X0608Y06913D01*
X06514*
X05989Y06964D02*
X06057Y06897D01*
X06508*
X05969Y06944D02*
X06033Y06881D01*
X06501*
X0595Y06925D02*
X0601Y06865D01*
X06495*
X05149Y0708D02*
X05679Y0655D01*
X05Y0708D02*
X05149D01*
X0494Y0714D02*
X05Y0708D01*
X0494Y0714D02*
Y07225D01*
X0504Y07217D02*
X05707Y0655D01*
X0504Y07217D02*
Y07225D01*
X0514Y07145D02*
X05735Y0655D01*
X0514Y07145D02*
Y07225D01*
X0564Y06785D02*
Y07225D01*
Y06785D02*
X05875Y0655D01*
X0554Y06857D02*
Y07225D01*
X0544Y06929D02*
X05819Y0655D01*
X0544Y06929D02*
Y07225D01*
X0534Y07001D02*
Y07225D01*
Y07001D02*
X05791Y0655D01*
X0524Y07073D02*
X05763Y0655D01*
X0524Y07073D02*
Y07225D01*
X06536Y05898D02*
X06957D01*
X06996Y05913D02*
Y06386D01*
X07012Y05906D02*
Y06393D01*
X07028Y059D02*
Y06399D01*
X06536Y05772D02*
X06899D01*
X07044Y05893D02*
Y06406D01*
X0706Y05886D02*
Y06413D01*
X07076Y0588D02*
Y06419D01*
X07092Y05873D02*
Y06426D01*
X06528Y06945D02*
X0706Y06413D01*
X06521Y06929D02*
X07044Y06406D01*
X06514Y06913D02*
X07028Y06399D01*
X06508Y06897D02*
X07012Y06393D01*
X06501Y06881D02*
X06996Y06386D01*
X06495Y06865D02*
X0698Y0638D01*
X06899Y05772D02*
X07028Y059D01*
X0698Y0592D02*
Y0638D01*
X0554Y06857D02*
X05847Y0655D01*
Y0592D02*
Y0655D01*
X05819Y05921D02*
Y0655D01*
X05791Y05921D02*
X0594Y05772D01*
X06363*
X038Y05486D02*
X0387D01*
X038Y05713D02*
X0387D01*
X04079D02*
X04128D01*
X0415Y05735*
X04079Y05688D02*
X04149D01*
X04079Y05637D02*
X04149D01*
X04079Y05587D02*
X04149D01*
X04425Y05486D02*
X04495D01*
X04425Y05713D02*
X04495D01*
X04704D02*
X04753D01*
X04775Y05735*
X04704Y05688D02*
X04774D01*
X04704Y05637D02*
X04774D01*
X04704Y05587D02*
X04774D01*
X06672Y05142D02*
X06675Y05145D01*
X06536Y05142D02*
X06672D01*
X06225Y0514D02*
X06227Y05142D01*
X06225Y0505D02*
X06227Y05047D01*
X06536D02*
X06672D01*
X06536Y04921D02*
X06623D01*
X06536Y04827D02*
X06672D01*
X06278Y04732D02*
X06363D01*
X06536D02*
X06672D01*
X06536Y04764D02*
X06537Y04765D01*
X04615Y05652D02*
Y05655D01*
Y05075D02*
Y05473D01*
X04626Y05486D02*
X04628D01*
X04615Y05485D02*
X04616Y05486D01*
X04615Y05485D02*
Y055D01*
X05251Y05486D02*
X05253D01*
X0387Y05688D02*
X03971D01*
X0399Y055D02*
X04003Y05486D01*
X04079*
X03971Y05688D02*
X0399Y0567D01*
X0387Y05587D02*
X03932D01*
X0395Y0557*
X0398D02*
X0399D01*
Y0556D02*
Y0557D01*
X0387Y05537D02*
X0398D01*
X04495Y05688D02*
X04596D01*
X04615Y055D02*
X04628Y05486D01*
X04704*
X04596Y05688D02*
X04615Y0567D01*
X04495Y05587D02*
X04557D01*
X04575Y0557*
X04612Y05637D02*
X04615Y05635D01*
X04495Y05637D02*
X046D01*
X0461D02*
X04612D01*
X04615Y05625D02*
Y05632D01*
X04575Y0557D02*
X04605D01*
X04615*
Y0556D02*
Y0557D01*
X04495Y05537D02*
X04605D01*
X04615*
Y05525D02*
Y05527D01*
X0524Y05525D02*
Y05527D01*
Y05547D02*
Y0555D01*
X0523Y05537D02*
X0524D01*
X0512D02*
X0523D01*
Y0557D02*
X0524D01*
X052D02*
X0523D01*
X05235Y05637D02*
X05237D01*
X0512D02*
X05225D01*
X05237D02*
X0524Y05635D01*
X05182Y05587D02*
X052Y0557D01*
X0512Y05587D02*
X05182D01*
X05221Y05688D02*
X0524Y0567D01*
X05253Y05486D02*
X05329D01*
X0524Y055D02*
X05253Y05486D01*
X0512Y05688D02*
X05221D01*
X05329Y05587D02*
X05399D01*
X05329Y05637D02*
X05399D01*
X05329Y05688D02*
X05399D01*
X05378Y05713D02*
X054Y05735D01*
X05329Y05713D02*
X05378D01*
X0505Y05486D02*
X0512D01*
X0505Y05713D02*
X0512D01*
X0505Y05486D02*
X0512D01*
X06363Y0552D02*
X06363Y0552D01*
X06195Y0552D02*
X06363D01*
X0619Y05525D02*
X06195Y0552D01*
X02955Y05125D02*
Y05335D01*
Y05045D02*
Y05125D01*
X02922Y05012D02*
X02955Y05045D01*
X02762Y05012D02*
X02922D01*
X08525Y06895D02*
X08525Y06895D01*
X08525Y06895D02*
Y0695D01*
X08537Y06962*
Y07007*
X08712Y06962D02*
Y07007D01*
X087Y0695D02*
X08712Y06962D01*
X087Y0695D02*
X087Y06949D01*
Y06895D02*
Y06949D01*
X08759Y06934D02*
X08787Y06962D01*
Y07007*
X08759Y06895D02*
Y06934D01*
X08584D02*
X08612Y06962D01*
X08584Y06895D02*
Y06934D01*
X08612Y06962D02*
Y07007D01*
X09047Y05772D02*
X0905Y05775D01*
X08287Y05772D02*
X09047D01*
X095Y06D02*
X09504Y06004D01*
Y0705*
X09247Y07161D02*
X09502D01*
X09375Y0705D02*
D01*
X09445*
X09502Y07051D02*
X09504Y0705D01*
X09502Y07051D02*
Y07161D01*
X0925Y05625D02*
X09262Y05612D01*
X0894Y05934D02*
X0925Y05625D01*
X08287Y05961D02*
X08913D01*
X0894Y05934*
X08384Y06134D02*
X08784D01*
X08825Y06175*
X09175*
X08337Y06087D02*
X08384Y06134D01*
X08287Y06087D02*
X08337D01*
X08825Y06425D02*
Y06625D01*
X08775Y0615D02*
X08925Y063D01*
X08287Y0615D02*
X08775D01*
X08925Y063D02*
Y06625D01*
X08Y0635D02*
X0835Y067D01*
X08725Y06625D02*
Y06675D01*
X087Y067D02*
X08725Y06675D01*
X0835Y067D02*
X087D01*
X08Y06175D02*
Y0635D01*
Y06175D02*
X08056Y06118D01*
X08113*
X08025Y0635D02*
X083Y06625D01*
X0805Y0615D02*
X08113D01*
X08025Y06175D02*
X0805Y0615D01*
X08025Y06175D02*
Y0635D01*
X083Y06625D02*
X08625D01*
X09352Y05375D02*
X094D01*
X09352D02*
D01*
X0925D02*
X09297D01*
X08287Y05866D02*
X08512D01*
X08287Y05898D02*
X08463D01*
X09682Y05323D02*
Y05688D01*
X0938Y05255D02*
X09613D01*
X09257Y05132D02*
X0938Y05255D01*
X09257Y02976D02*
Y05132D01*
X09666Y0533D02*
Y05681D01*
X09373Y05271D02*
X09606D01*
X09241Y05138D02*
X09373Y05271D01*
X09241Y02983D02*
Y05138D01*
X0965Y05337D02*
Y05675D01*
X09225Y05145D02*
X09366Y05287D01*
X09225Y0299D02*
Y05145D01*
X09613Y05255D02*
X09682Y05323D01*
X09606Y05271D02*
X09666Y0533D01*
X096Y05287D02*
X0965Y05337D01*
X09366Y05287D02*
X096D01*
X09131Y02851D02*
X09257Y02976D01*
X08198Y02851D02*
X09131D01*
X08184Y02883D02*
X09118D01*
X09124Y02867D02*
X09241Y02983D01*
X08192Y02867D02*
X09124D01*
X09118Y02883D02*
X09225Y0299D01*
X08057Y02801D02*
X08148D01*
X08057Y02801D02*
X08057Y02801D01*
X08109Y02817D02*
X08142D01*
X08107Y02841D02*
X08115Y02833D01*
X08104Y02821D02*
X08109Y02817D01*
X08115Y02833D02*
X08134D01*
X08102Y02782D02*
X0812Y02765D01*
X08057Y02782D02*
X08102D01*
X08119Y0286D02*
X08125Y02855D01*
X08057Y02841D02*
X08107D01*
X08057Y02821D02*
X08104D01*
X08057Y0286D02*
X08119D01*
X08139Y0288D02*
X08145Y02875D01*
X08057Y0288D02*
X08139D01*
X07675Y03175D02*
X07732Y03117D01*
Y03087D02*
Y03117D01*
X07449Y05992D02*
X08113D01*
X0744Y05961D02*
X08113D01*
X08111Y059D02*
X08113Y05898D01*
X07402Y059D02*
X08111D01*
X07102Y0293D02*
X0725Y02782D01*
X07702*
X07118Y02936D02*
X07253Y02801D01*
X07702*
X07134Y02943D02*
X07255Y02821D01*
X07702*
X07258Y02841D02*
X07702D01*
X07102Y0293D02*
Y05644D01*
X07118Y02936D02*
Y05638D01*
X07134Y02943D02*
Y05631D01*
X0715Y0295D02*
Y05625D01*
Y0295D02*
X07258Y02841D01*
X0765Y02725D02*
X07687Y02762D01*
X07702*
X07838Y0314D02*
Y0315D01*
Y0314D02*
X0785Y03127D01*
Y03087D02*
Y03127D01*
X0785Y03087D02*
X0785Y03087D01*
X0785Y03087D02*
X0785Y03087D01*
X0775Y013D02*
X07755D01*
X07735Y01365D02*
Y014D01*
Y01365D02*
X07745Y01354D01*
Y013D02*
Y01354D01*
X07735Y014D02*
Y01567D01*
X079Y02136D02*
Y0216D01*
X07902Y02161*
Y024*
X07919Y02136D02*
Y0216D01*
X07918Y02161D02*
X07919Y0216D01*
X0788Y02421D02*
X07902Y024D01*
X0788Y02421D02*
Y0245D01*
X07918Y02398D02*
X07939Y02419D01*
Y0245*
X07918Y02161D02*
Y02398D01*
X07939Y0245D02*
Y02521D01*
X0794Y02522*
X0788Y0245D02*
Y02522D01*
Y0245D02*
X0788Y0245D01*
X0788Y02577D02*
Y026D01*
X07902Y02622*
Y0267*
X0794Y02577D02*
Y026D01*
X07918Y02622D02*
X0794Y026D01*
X07918Y02622D02*
Y02676D01*
X0789Y02682D02*
Y02732D01*
X07889Y02732D02*
X0789Y02732D01*
X07909Y02685D02*
Y02732D01*
Y02685D02*
X07918Y02676D01*
X0789Y02682D02*
X07902Y0267D01*
X07971Y02065D02*
X07999D01*
X08015Y01995D02*
Y0205D01*
X08115Y02005D02*
Y0203D01*
X07999Y02065D02*
X08015Y0205D01*
X08115Y0203D02*
X0816Y02075D01*
X0806Y02005D02*
Y02047D01*
X0685Y01675D02*
Y01685D01*
X07625Y01825D02*
X07682D01*
X07625D02*
D01*
X07682Y019D02*
D01*
X07625D02*
X07682D01*
X0743Y0162D02*
D01*
X0737Y0167D02*
X0737Y0167D01*
X07585Y0162D02*
D01*
X07637Y01672D02*
X0764Y0167D01*
X07585Y01672D02*
X07595D01*
X07583Y0167D02*
X07585Y01672D01*
X07737Y01825D02*
X07785D01*
X07804Y013D02*
X0785D01*
X07737Y019D02*
X07785D01*
X0776Y02102D02*
Y02145D01*
D01*
X07805Y021D02*
X0782Y02085D01*
X07848*
X07848Y02084*
X0782Y02065D02*
X07848D01*
X07805Y0205D02*
X0782Y02065D01*
X07939Y02136D02*
X07988D01*
X0788D02*
Y02159D01*
X0786Y0218D02*
X0788Y02159D01*
X07825Y02155D02*
X07848Y02131D01*
Y02104D02*
Y02131D01*
X07935Y0149D02*
Y01567D01*
X08336Y01902D02*
X0841D01*
X0826Y01904D02*
X08335D01*
X08336Y01902*
X08088Y01875D02*
X0814D01*
X0816Y01904D02*
X0826D01*
X08125Y0194D02*
X0816Y01904D01*
X0826Y018D02*
Y01845D01*
Y018D02*
D01*
X0841Y01805D02*
Y01847D01*
Y01805D02*
D01*
X08335Y018D02*
Y01845D01*
Y018D02*
D01*
X0826Y02029D02*
X08324D01*
X08325Y0203*
X0826Y02085D02*
Y0212D01*
Y02085D02*
D01*
X0785Y0265D02*
Y02732D01*
X07825Y02625D02*
X0785Y0265D01*
X0787Y02674D02*
Y02732D01*
X07811Y02688D02*
Y02732D01*
X07948Y02693D02*
Y02732D01*
X07929D02*
X0793D01*
Y02695D02*
Y02732D01*
Y02735*
X08027Y03087D02*
X08082D01*
X0811Y03115*
X0743Y01729D02*
Y01775D01*
X07971Y02104D02*
X08005D01*
X08015Y02095*
X0806Y02102D02*
D01*
Y0216D01*
X09066Y02536D02*
Y02604D01*
X09065Y02605D02*
X09066Y02604D01*
X08057Y0286D02*
X08089D01*
X07677Y03057D02*
X07702D01*
X07665Y0307D02*
X07677Y03057D01*
X07665Y0307D02*
Y0309D01*
X0783Y02959D02*
Y03087D01*
Y02959D02*
X0788Y0291D01*
X08027Y05142D02*
X08113D01*
X08025Y05145D02*
X08027Y05142D01*
X08022Y05362D02*
X08113D01*
X0802Y05365D02*
X08022Y05362D01*
X07987Y05457D02*
X08113D01*
X07985Y05455D02*
X07987Y05457D01*
X0811Y05555D02*
X08113Y05551D01*
X0797Y05555D02*
X0811D01*
X08287Y05551D02*
X08413D01*
X08415Y0555*
X08287Y05646D02*
X08413D01*
X08415Y05645*
X07971Y05646D02*
X08113D01*
X0797Y05645D02*
X07971Y05646D01*
X0797Y0574D02*
X08113D01*
X0797Y0574D02*
X0797Y0574D01*
X0797Y05835D02*
X08113D01*
X0797Y05835D02*
X0797Y05835D01*
X08287D02*
X08414D01*
X08415Y05835*
X08287Y0574D02*
X08414D01*
X08415Y0574*
X08287Y05929D02*
X08414D01*
X08415Y0593*
X0797Y05929D02*
X08113D01*
X0797Y0593D02*
X0797Y05929D01*
X08287Y05457D02*
X08412D01*
X08415Y05455*
X08287Y05362D02*
X08412D01*
X08415Y05365*
X08287Y05142D02*
X08412D01*
X08415Y05145*
X08057Y03057D02*
X08112D01*
X08125Y0307*
X09297Y05475D02*
X093Y05477D01*
X09337D02*
X09372D01*
X09375Y05475*
X093Y05435D02*
Y05477D01*
X09297Y0569D02*
D01*
X0926D02*
X09297D01*
X093Y05572D02*
Y05615D01*
X09337Y05572D02*
Y05612D01*
X0934Y05615*
X09262Y05572D02*
Y05612D01*
X07702Y02732D02*
X07732D01*
X07685Y02715D02*
X07702Y02732D01*
X07752Y02707D02*
Y02732D01*
X07735Y0269D02*
X07752Y02707D01*
X07697Y02547D02*
D01*
X07632Y02612D02*
X07665Y0258D01*
X0787Y02674D02*
X0788Y02665D01*
Y0265D02*
Y02665D01*
X0793Y02695D02*
X0794Y02685D01*
X07948Y02693*
X07811D02*
Y02732D01*
X08007Y02707D02*
Y02732D01*
Y02707D02*
X08015Y027D01*
X08105*
X0811Y02705*
X07811Y02661D02*
Y02732D01*
X0781Y0266D02*
X07811Y02661D01*
X0811Y02735D02*
X0812D01*
X08057Y02762D02*
X08082D01*
X08097Y02747*
X0811Y02735*
X08057Y02762D02*
X08082D01*
X0811Y02735*
X0812*
X08027Y02732D02*
X08072D01*
X0808Y02725*
X07631Y02546D02*
X07665Y0258D01*
X07697Y02547*
X08165Y0258D02*
X08199Y02612D01*
X08134Y02547D02*
X08165Y0258D01*
X08198Y02548*
X06536Y05362D02*
X06617D01*
X06536Y05457D02*
X06621D01*
X06536Y05551D02*
X06636D01*
X06536Y05646D02*
X06636D01*
X06536Y0574D02*
X06636D01*
X06536Y05835D02*
X06636D01*
X06536Y05929D02*
X06636D01*
X06536Y05457D02*
X06636D01*
X06536Y05362D02*
X06636D01*
X06263Y05457D02*
X06363D01*
X06263Y05646D02*
X06363D01*
X06263Y05551D02*
X06363D01*
X06263Y0574D02*
X06363D01*
X06263Y05835D02*
X06363D01*
X06263Y05929D02*
X06363D01*
X06263Y05992D02*
X06363D01*
X06263Y05268D02*
X06363D01*
X06536D02*
X06611D01*
X06536Y05236D02*
X06611D01*
X08287D02*
X08387D01*
X08287Y05268D02*
X08387D01*
X08038D02*
X08113D01*
X08013Y05236D02*
X08113D01*
X08013Y05268D02*
X08113D01*
X02554Y072D02*
D01*
X026*
X02175Y07325D02*
X02251D01*
X02804Y072D02*
X02875D01*
X03178Y07246D02*
Y07315D01*
Y07246D02*
X032Y07225D01*
X03453Y07246D02*
Y07315D01*
Y07246D02*
X03475Y07225D01*
X03728Y07221D02*
Y07315D01*
Y07221D02*
X0375Y072D01*
X04003Y07315D02*
X0406D01*
X04075Y073*
X04575Y06925D02*
X0462D01*
X04575D02*
D01*
D01*
X04529D02*
X04575D01*
X04612Y06722D02*
Y06762D01*
X046Y06775D02*
X04612Y06762D01*
X04575Y06775D02*
X046D01*
X0452Y06525D02*
D01*
X04475D02*
X0452D01*
X08954Y07175D02*
X09025D01*
X08954Y0725D02*
D01*
X09025*
X08954Y07325D02*
X09025D01*
X08681Y07341D02*
Y07358D01*
X086Y07375D02*
X08665D01*
X08575Y0735D02*
X086Y07375D01*
X08575Y07092D02*
Y0735D01*
X08665Y07375D02*
X08681Y07358D01*
X08625Y073D02*
X08654D01*
X086Y07275D02*
X08625Y073D01*
X086Y072D02*
Y07275D01*
Y072D02*
X08625Y07175D01*
X08725*
X0875Y0715*
Y07092D02*
Y0715D01*
X08681Y07218D02*
Y07258D01*
Y07218D02*
X087Y072D01*
X088*
X08917Y071D02*
X08925Y07092D01*
X089Y071D02*
X08917D01*
X088Y072D02*
X0885Y0715D01*
X089Y071*
X08768Y07231D02*
Y07258D01*
Y07231D02*
X08775Y07225D01*
X08825*
X08875Y07175*
X08895*
X08795Y073D02*
X08825D01*
X08875Y0725*
X08895*
X08875Y07325D02*
X08895D01*
X08825Y07375D02*
X08875Y07325D01*
X08768Y07363D02*
X0878Y07375D01*
X08768Y07341D02*
Y07363D01*
X0878Y07375D02*
X08825D01*
X08759Y06895D02*
X08799D01*
X08584D02*
X08634D01*
X08759D02*
X08809D01*
X08887Y06962D02*
Y07007D01*
X08875Y06904D02*
Y0695D01*
X0887Y069D02*
X08875Y06904D01*
Y0695D02*
X08887Y06962D01*
X08929Y069D02*
Y06929D01*
X08962Y06962*
Y07007*
X08929Y069D02*
D01*
X08975*
X08525Y0675D02*
Y06895D01*
X08525Y0675D02*
X08525Y0675D01*
X087D02*
Y06895D01*
X087Y0675D02*
X087Y0675D01*
X0887Y06754D02*
Y069D01*
Y06754D02*
X08875Y0675D01*
X08215Y05709D02*
X08287D01*
X082Y05725D02*
X08215Y05709D01*
X082Y05725D02*
Y05875D01*
X08Y05775D02*
X0811D01*
X08113Y05772*
X0836Y05805D02*
X08365Y058D01*
X08288Y05805D02*
X0836D01*
X08287Y05803D02*
X08288Y05805D01*
X08365Y058D02*
X084D01*
X08287Y05677D02*
X08372D01*
X0839Y05695*
X0807Y05803D02*
X08113D01*
X08066Y058D02*
X0807Y05803D01*
X07755Y05709D02*
X08113D01*
X07627Y05837D02*
X07755Y05709D01*
X0327Y06595D02*
Y069D01*
X03545D02*
X0355Y06895D01*
X0382Y06899D02*
X0382Y069D01*
X09105Y05865D02*
X0946D01*
X0965Y05675*
X09447Y059D02*
X09666Y05681D01*
X09055Y059D02*
X09447D01*
X08287Y05992D02*
X09377D01*
X09682Y05688*
X09352Y0569D02*
X09402D01*
D01*
X04677Y06825D02*
D01*
X04725*
X04575D02*
X04622D01*
X04575D02*
D01*
X04679Y06925D02*
X04825D01*
X0447D02*
D01*
X0435D02*
X0447D01*
X04187Y06772D02*
Y06812D01*
X0425Y06875D02*
Y06925D01*
X04187Y06812D02*
X0425Y06875D01*
X04822Y06722D02*
X04825Y06725D01*
X04687Y06722D02*
X04822D01*
X04612Y06537D02*
Y06627D01*
X04579Y06525D02*
X046D01*
X04625D02*
X04645D01*
X04625D02*
Y06525D01*
X046Y06525D02*
D01*
X04612Y06537*
X04625Y06525D02*
D01*
X046D02*
X04625D01*
X04612Y06537D02*
X04625Y06525D01*
Y06525D02*
Y06525D01*
X046Y06525D02*
X04605Y0653D01*
X04619*
X047Y06529D02*
X04704Y06525D01*
X04687Y06627D02*
X0469Y06625D01*
X052D02*
X0525Y06575D01*
X0469Y06625D02*
X052D01*
X04675Y06822D02*
X04677Y06825D01*
X04704Y06525D02*
D01*
X0475*
X0465Y0657D02*
Y06627D01*
X04112Y06627D02*
Y06677D01*
X041Y06615D02*
X04112Y06627D01*
X041Y06577D02*
Y06615D01*
Y06577D02*
D01*
X04187Y06627D02*
Y06677D01*
X042Y06577D02*
Y06615D01*
X04187Y06627D02*
X042Y06615D01*
X04082Y06772D02*
X04112D01*
X04025Y0678D02*
X04075D01*
X04025Y06779D02*
X04025Y0678D01*
X04075D02*
X04082Y06772D01*
X0415D02*
Y06835D01*
X04025Y06685D02*
Y0672D01*
Y06685D02*
D01*
X0395Y06779D02*
X04025D01*
X0395Y06675D02*
Y0672D01*
Y06675D02*
D01*
Y0667D02*
Y06675D01*
X03879Y069D02*
X03925D01*
X03887Y06957D02*
Y07032D01*
X03812Y06962D02*
Y07032D01*
X0382Y069D02*
Y06954D01*
X03812Y06962D02*
X0382Y06954D01*
X0385Y07117D02*
Y07165D01*
X0386Y07175*
X03925*
X03935Y07185*
Y07219*
X03929Y07225D02*
X03935Y07219D01*
X04147Y07161D02*
X04402D01*
X042Y06522D02*
X04255D01*
X04045D02*
X041D01*
X02275Y05025D02*
X02363D01*
X02762Y05063D02*
X02868D01*
X029Y05095*
Y05225*
Y0539D02*
X02955Y05335D01*
X029Y0539D02*
Y0545D01*
X03037Y05063D02*
X03113D01*
X03125Y05075*
X03037Y05012D02*
X03112D01*
X03121Y05003*
X03037Y04986D02*
X03088D01*
X03125Y0495*
X03037Y04986D02*
X03088D01*
X03125Y0495*
X03121Y05003D02*
X03125Y05D01*
X032Y04921D02*
X03203Y04925D01*
X03275*
X03079Y04875D02*
D01*
X03125*
X032Y04852D02*
X03247D01*
X0325Y0485*
X032Y04797D02*
X03247D01*
X0325Y048*
X03077Y04775D02*
D01*
X03125*
X03022D02*
D01*
X02975D02*
X03022D01*
X02975Y04875D02*
X0302D01*
X02975D02*
D01*
X025Y04826D02*
X02576D01*
X02675Y04925*
X029*
X02795Y05325D02*
D01*
X0275D02*
X02795D01*
X02854D02*
X02875D01*
X029Y053*
Y05225D02*
Y053D01*
X02363Y05136D02*
Y05225D01*
Y05136D02*
X02375Y05125D01*
X02625*
X02686Y05063D02*
X02762D01*
X02625Y05125D02*
X02686Y05063D01*
X02536Y05225D02*
X02625D01*
X02579Y05375D02*
X0265D01*
X02577Y05475D02*
X0265D01*
X02522D02*
D01*
X0245D02*
X02522D01*
X0252Y05375D02*
D01*
X02475D02*
X0252D01*
X02427D02*
Y05422D01*
X02425Y05425D02*
X02427Y05422D01*
X02372Y05375D02*
D01*
X02325D02*
X02372D01*
X02728Y04749D02*
X02728Y0475D01*
X02825*
X02728Y048D02*
X02824D01*
X02825Y048*
X02728Y04698D02*
X0273Y047D01*
X02425Y04775D02*
X025D01*
X02426Y04698D02*
X025D01*
X02425Y047D02*
X02426Y04698D01*
X02434Y04749D02*
X025D01*
X02425Y0474D02*
X02434Y04749D01*
X028Y0545D02*
Y05485D01*
X02779Y05505D02*
Y0555D01*
Y05505D02*
X028Y05485D01*
X03Y0545D02*
Y0549D01*
X0302Y0551*
Y05549*
X0302Y0555*
X03079D02*
X0312D01*
X02675D02*
X0272D01*
X02675D02*
D01*
X02398Y07256D02*
Y07325D01*
Y07256D02*
X0241Y07245D01*
Y07205D02*
Y07245D01*
X02404Y072D02*
X0241Y07205D01*
X02295Y072D02*
X02345D01*
X02295D02*
D01*
X02501Y07271D02*
Y07325D01*
X02495Y07265D02*
X02501Y07271D01*
X02495Y07265D02*
X02495Y07264D01*
Y072D02*
Y07264D01*
X02648Y07198D02*
Y07325D01*
X02545Y07105D02*
X02555D01*
X02525Y07085D02*
X02545Y07105D01*
X02525Y07017D02*
Y07085D01*
X02555Y07105D02*
X02648Y07198D01*
X02751Y07246D02*
Y07325D01*
X02745Y0724D02*
X02751Y07246D01*
X02745Y072D02*
Y0724D01*
Y072D02*
X02745Y072D01*
X02898Y07163D02*
Y07325D01*
X028Y0711D02*
X02845D01*
X0278Y0709D02*
X028Y0711D01*
X02775Y07017D02*
X0278Y07022D01*
X02845Y0711D02*
X02898Y07163D01*
X0278Y07022D02*
Y0709D01*
X03025Y07117D02*
Y07165D01*
X0304Y0718*
X0309*
X03104Y07194D02*
Y07225D01*
X0309Y0718D02*
X03104Y07194D01*
X03Y07225D02*
X03045D01*
X02975Y0725D02*
Y073D01*
X0299Y07315D02*
X03031D01*
X02975Y0725D02*
X03Y07225D01*
X02975Y073D02*
X0299Y07315D01*
X03255D02*
X03306D01*
X0324Y073D02*
X03255Y07315D01*
X0324Y07245D02*
Y073D01*
Y07245D02*
X0326Y07225D01*
X0332*
X03379Y0719D02*
Y07225D01*
Y0719D02*
X0338Y0719D01*
X0337Y0718D02*
X0338Y0719D01*
X03315Y0718D02*
X0337D01*
X033Y07165D02*
X03315Y0718D01*
X033Y07117D02*
Y07165D01*
X02987Y06937D02*
Y07032D01*
X02995Y069D02*
Y06929D01*
X02987Y06937D02*
X02995Y06929D01*
X03054Y069D02*
X03125D01*
X03329D02*
X034D01*
X03604D02*
X037D01*
X03537Y06952D02*
Y07032D01*
X03545Y069D02*
Y06944D01*
X03537Y06952D02*
X03545Y06944D01*
X03262Y06982D02*
Y07032D01*
X0327Y069D02*
Y06974D01*
X03262Y06982D02*
X0327Y06974D01*
X03062Y06962D02*
Y07032D01*
Y06962D02*
X03065Y0696D01*
X03337Y06957D02*
Y07032D01*
Y06957D02*
X0334Y06955D01*
X03612Y06957D02*
Y07032D01*
Y06957D02*
X03615Y06955D01*
X02562Y06862D02*
Y06932D01*
Y06862D02*
X02565Y0686D01*
X02812Y06867D02*
Y06932D01*
Y06867D02*
X02815Y06865D01*
X02487Y06782D02*
Y06932D01*
Y06782D02*
X02495Y06775D01*
X02737Y06752D02*
Y06932D01*
X02735Y0675D02*
X02737Y06752D01*
X0695Y0605D02*
Y0635D01*
X06892Y05992D02*
X0695Y0605D01*
X06536Y05992D02*
X06892D01*
X04147Y07067D02*
Y07161D01*
Y07067D02*
X04165Y0705D01*
X0425Y0704D02*
Y0705D01*
X04165D02*
X0424D01*
X0425*
X0424D02*
X0425Y0704D01*
Y06925D02*
Y0704D01*
X03815Y0684D02*
X0382Y06845D01*
X03815Y06548D02*
Y0684D01*
X03545Y0662D02*
X03545Y0662D01*
Y06795*
Y069*
X0327Y06595D02*
X0327Y06595D01*
X02995Y0665D02*
X02995Y0665D01*
Y069*
X0382Y06845D02*
Y06899D01*
X06325Y0682D02*
X06682Y06463D01*
Y06067D02*
Y06463D01*
X06536Y06024D02*
X0654Y0602D01*
X06639Y06024D02*
X06682Y06067D01*
X06536Y06024D02*
X06639D01*
X05815Y06765D02*
X05905D01*
X0596Y0682D02*
X06325D01*
X05905Y06765D02*
X0596Y0682D01*
X0525Y0607D02*
Y06575D01*
Y0607D02*
X05295Y06024D01*
X05905D02*
X06363D01*
X05295D02*
X05624D01*
X05625Y06025*
X05707Y05921D02*
Y0655D01*
X05735Y05921D02*
Y0655D01*
X05763Y05921D02*
Y0655D01*
X05791Y05921D02*
Y0655D01*
X05875Y0592D02*
Y0655D01*
Y0592D02*
X05896Y05898D01*
X06363*
X05847Y0592D02*
X059Y05866D01*
X06363*
X05819Y05921D02*
X05937Y05803D01*
X06363*
X05763Y05921D02*
X05975Y05709D01*
X06363*
X05735Y05921D02*
X05979Y05677D01*
X06363*
X05679Y05918D02*
Y0655D01*
X05707Y05921D02*
X06014Y05614D01*
X06363*
X05679Y05918D02*
X06014Y05583D01*
X06363*
X06957Y05898D02*
X0698Y0592D01*
X06536Y05866D02*
X06949D01*
X06996Y05913*
X06536Y05803D02*
X06908D01*
X07012Y05906*
X06536Y05709D02*
X06859D01*
X07044Y05893*
X06536Y05677D02*
X0685D01*
X0706Y05886*
X06536Y05614D02*
X0681D01*
X07076Y0588*
X06536Y05583D02*
X06801D01*
X07092Y05873*
X06534Y06961D02*
X07076Y06419D01*
X06068Y07043D02*
X06151Y06961D01*
X06534*
X06541Y06977D02*
X07092Y06426D01*
X06088Y07063D02*
X06175Y06977D01*
X06541*
X06455Y06845D02*
X0695Y0635D01*
X05915Y06845D02*
X06455D01*
X05125Y0705D02*
X0533Y06845D01*
X0425Y0704D02*
X0426Y0705D01*
X0425D02*
X0426D01*
X05125*
X07102Y05644D02*
X07449Y05992D01*
X07118Y05638D02*
X0744Y05961D01*
X07134Y05631D02*
X07402Y059D01*
X07649Y05855D02*
X07704Y058D01*
X08066*
X0759Y05795D02*
X07735Y0565D01*
X079*
X07609Y05815D02*
X07747Y05677D01*
X08113*
X0794Y05879D02*
X07953Y05866D01*
X08113*
X0715Y05625D02*
X07404Y05879D01*
X0794*
X0398Y05537D02*
X0399Y05547D01*
X04Y05537*
X0387Y05637D02*
X03977D01*
X03977D02*
X0399Y0565D01*
X03991Y05475D02*
X04001Y05485D01*
X0399Y055D02*
Y05527D01*
Y0558D02*
Y05625D01*
Y05635D02*
Y05645D01*
Y0565D02*
Y0567D01*
Y05537D02*
X04D01*
X04079*
X06262Y04732D02*
X06363D01*
X0626Y0473D02*
X06262Y04732D01*
X02728Y04698D02*
X02801D01*
X02825Y04675*
X05975Y04764D02*
X06363D01*
X04615Y055D02*
Y05527D01*
Y05537*
X04605D02*
X04615Y05527D01*
Y05475D02*
X04626Y05486D01*
X04605Y05537D02*
X04615Y05547D01*
X04605Y0557D02*
X04615Y0556D01*
X04605Y0557D02*
X04615Y0558D01*
Y05547D02*
X04625Y05537D01*
X046Y05637D02*
X04602D01*
X04615Y05625*
X04602Y05637D02*
X04607D01*
X0461*
X04615Y05632*
X046Y05637D02*
X04615Y05652D01*
X04607Y05637D02*
X04615Y05645D01*
Y05473D02*
Y05475D01*
Y05485*
Y05473D02*
X04628Y05486D01*
X04615Y05537D02*
Y05547D01*
Y05635D02*
Y05645D01*
Y05652*
Y0567*
Y05547D02*
Y0556D01*
X04616Y05486D02*
X04626D01*
X04615Y05527D02*
X04625Y05537D01*
X04615Y0557D02*
Y0558D01*
Y05625*
Y05632D02*
Y05635D01*
Y05537D02*
X04625D01*
X04704*
X09775Y0495D02*
Y0725D01*
X084Y0735D02*
X08475Y07275D01*
X04075Y07225D02*
X04375D01*
X03975Y07125D02*
X04075Y07225D01*
X03975Y06875D02*
Y07125D01*
X03875Y066D02*
Y06775D01*
Y066D02*
X03897Y06577D01*
X041*
X04375Y07225D02*
X04516Y07366D01*
X03875Y06775D02*
X03975Y06875D01*
X09225Y02488D02*
Y02674D01*
X092Y027D02*
X09225Y02674D01*
X0915Y027D02*
X092D01*
X09756Y07269D02*
X09775Y0725D01*
X091Y07275D02*
X09106Y07269D01*
X09756*
X06568Y07009D02*
X07125Y06452D01*
X06268Y07009D02*
X06568D01*
X07125Y05825D02*
Y06452D01*
X05957Y07366D02*
X05973Y0735D01*
X084*
X04516Y07366D02*
X05957D01*
X05675Y06885D02*
X0589Y071D01*
X06177D02*
X06268Y07009D01*
X0589Y071D02*
X06177D01*
X05022Y06677D02*
X0523Y06885D01*
X04187Y06677D02*
X05022D01*
X091Y07325D02*
X09133Y07291D01*
X09813*
X08425Y07175D02*
Y07275D01*
X0835Y071D02*
X08425Y07175D01*
X04936Y0728D02*
X0612D01*
X063Y071*
X04898Y07242D02*
X04936Y0728D01*
X04898Y07101D02*
Y07242D01*
X049Y0685D02*
Y07D01*
X04825Y06825D02*
X04875D01*
X049Y0685*
X063Y071D02*
X0835D01*
X09262Y05438D02*
Y05477D01*
X09209Y05385D02*
X09262Y05438D01*
X09175Y04225D02*
X09209Y04259D01*
Y05385*
X0669Y04858D02*
X06698Y0485D01*
Y04835D02*
Y0485D01*
Y04835D02*
X0672Y04813D01*
X0669Y0489D02*
X06714Y04866D01*
Y04841D02*
Y04866D01*
Y04841D02*
X06736Y04819D01*
X06752Y04827D02*
X06766Y04841D01*
Y04908*
X0669Y04984D02*
X06766Y04908D01*
X06782Y04835D02*
Y04915D01*
X06768Y04821D02*
X06782Y04835D01*
X0669Y05016D02*
X06714Y04992D01*
Y04983D02*
Y04992D01*
Y04983D02*
X06782Y04915D01*
X06536Y04984D02*
X0669D01*
X06536Y0489D02*
X0669D01*
X06536Y04858D02*
X0669D01*
X06536Y05016D02*
X0669D01*
X06768Y0324D02*
Y04821D01*
X06789Y04991D02*
Y05012D01*
Y04991D02*
X06804Y04976D01*
X06825*
X06866Y04935*
X067Y05079D02*
X06773Y05006D01*
Y04985D02*
Y05006D01*
Y04985D02*
X06797Y0496D01*
X06818*
X0685Y04929*
X06691Y0511D02*
X06789Y05012D01*
X06707Y05176D02*
X06728D01*
X06704Y05173D02*
X06707Y05176D01*
X06767Y05139D02*
Y0516D01*
Y05139D02*
X06782Y05124D01*
X06803*
X06898Y05029*
X06728Y05176D02*
X06751Y05153D01*
Y05132D02*
Y05153D01*
Y05132D02*
X06775Y05108D01*
X06796*
X06882Y05022*
X06722Y05205D02*
X06767Y0516D01*
X06257Y02684D02*
X06866Y03292D01*
X06263Y02668D02*
X06882Y03286D01*
X06536Y05079D02*
X067D01*
X0685Y03299D02*
Y04929D01*
X06536Y0511D02*
X06691D01*
X06866Y03292D02*
Y04935D01*
X06536Y05173D02*
X06704D01*
X06882Y03286D02*
Y05022D01*
X06536Y05205D02*
X06722D01*
X06898Y03279D02*
Y05029D01*
X07025Y02875D02*
Y05725D01*
X07125Y05825*
X06536Y05394D02*
X066D01*
X06536Y05331D02*
X066D01*
X06536Y05299D02*
X066D01*
X06536Y05425D02*
X066D01*
X06658Y05299D02*
X06659Y05299D01*
X06536Y05425D02*
X06682D01*
X06536Y05299D02*
X06658D01*
X06659Y05299D02*
X06826D01*
X0695Y033D02*
Y05175D01*
X06826Y05299D02*
X0695Y05175D01*
X06536Y05331D02*
X06639D01*
X06659Y05351*
X06915*
X06966Y03293D02*
Y053D01*
X06915Y05351D02*
X06966Y053D01*
X067Y05375D02*
X06925D01*
X066Y05394D02*
X0668D01*
X067Y05375*
X06682Y05425D02*
X06704Y05404D01*
X06982Y03286D02*
Y05318D01*
X06925Y05375D02*
X06982Y05318D01*
X06704Y05404D02*
X06925D01*
X06998Y0328D02*
Y05331D01*
X06925Y05404D02*
X06998Y05331D01*
X08134Y02833D02*
X08184Y02883D01*
X08142Y02817D02*
X08192Y02867D01*
X08148Y02801D02*
X08198Y02851D01*
X0627Y04984D02*
X06363D01*
X06271Y04858D02*
X06363D01*
X06271Y05016D02*
X06363D01*
X06227Y05047D02*
X06363D01*
X0627Y0489D02*
X0627Y0489D01*
X06227Y04827D02*
X06363D01*
X0627Y0486D02*
X06271Y04858D01*
X0627Y04985D02*
X0627Y04984D01*
X0627Y05015D02*
X06271Y05016D01*
X0613Y0457D02*
X0644D01*
X06465Y04595*
Y0474*
X06489Y04764D02*
X06536D01*
X06465Y0474D02*
X06489Y04764D01*
X06268Y04953D02*
X0627Y04955D01*
X06268Y04921D02*
X0627Y04923D01*
Y04925*
X06361Y04955D02*
X06363Y04953D01*
X0627Y04955D02*
X06361D01*
X06268Y04953D02*
X0627D01*
Y04925D02*
X06296D01*
X06268Y04921D02*
X0627D01*
X063D02*
X06363D01*
X06296Y04925D02*
X063Y04921D01*
X0627Y0489D02*
X06363D01*
X06227Y05142D02*
X06363D01*
X0632Y0511D02*
X06363D01*
X0631Y0512D02*
X0632Y0511D01*
X06265Y0512D02*
X0631D01*
X0632Y05079D02*
X06363D01*
X06309Y0509D02*
X0632Y05079D01*
X06265Y05201D02*
X06268Y05205D01*
X06265Y0509D02*
X06309D01*
X06265Y05173D02*
X06363D01*
X06268Y05205D02*
X06363D01*
X06265Y05425D02*
X06363D01*
X06265Y05425D02*
X06265Y05425D01*
X06265Y05395D02*
X06265Y05394D01*
X06266Y05331D02*
X06363D01*
X06265Y0533D02*
X06266Y05331D01*
X06265Y05299D02*
X06363D01*
X06265Y053D02*
X06265Y05299D01*
X06265Y0536D02*
X06302D01*
X06305Y05362*
X06363*
X06536Y04921D02*
X06673D01*
X06675Y0492*
X06616Y04955D02*
X06675D01*
X06615Y04953D02*
X06616Y04955D01*
X06536Y04953D02*
X06615D01*
X06265Y05239D02*
X06292D01*
X06263Y05236D02*
X06265D01*
X06295D02*
X06363D01*
X06292Y05239D02*
X06295Y05236D01*
X03Y05225D02*
X03105D01*
X0316Y0528D02*
Y0582D01*
X03285Y05945*
X0546*
X03105Y05225D02*
X0316Y0528D01*
X0546Y05945D02*
X05916Y05488D01*
X06363*
X0524Y055D02*
Y05527D01*
Y05537*
X0523Y0557D02*
X0524Y0558D01*
X0523Y05537D02*
X0524Y05527D01*
X0523Y05537D02*
X0524Y05547D01*
X0523Y0557D02*
X0524Y0556D01*
X05225Y05637D02*
X05227D01*
X05227*
X05227D02*
X0524Y05625D01*
X05227Y05637D02*
X05232D01*
X05235*
X05227D02*
X0524Y0565D01*
X05235Y05637D02*
X0524Y05632D01*
X05232Y05637D02*
X0524Y05645D01*
Y0547D02*
Y05473D01*
Y05475*
Y05485*
Y055*
Y05475D02*
X05251Y05486D01*
X0524Y05473D02*
X05253Y05486D01*
X0524Y05537D02*
Y05547D01*
Y05485D02*
X05241Y05486D01*
X0524Y0557D02*
Y0558D01*
Y05625*
Y05632*
Y05635*
Y05645*
Y0565*
Y0567*
Y0555D02*
Y0556D01*
Y0557*
X05241Y05486D02*
X05251D01*
X0524Y05527D02*
X0525Y05537D01*
X0524Y05547D02*
X0525Y05537D01*
X0524D02*
X0525D01*
X05329*
X06075Y03969D02*
X06125D01*
X06075Y03941D02*
X06125D01*
X06075Y039D02*
X06125D01*
X06075Y03872D02*
X06125D01*
X06075Y03844D02*
X06125D01*
X06075Y03816D02*
X06125D01*
X06075Y04025D02*
X06125D01*
X06075Y04066D02*
X06125D01*
X06075Y04094D02*
X06125D01*
X06075Y04122D02*
X06125D01*
X06075Y0415D02*
X06125D01*
X06063Y03981D02*
X06075Y03969D01*
X03206Y03981D02*
X06063D01*
X06051Y03965D02*
X06075Y03941D01*
X03212Y03965D02*
X06051D01*
X06026Y03949D02*
X06075Y039D01*
X06014Y03933D02*
X06075Y03872D01*
X06002Y03917D02*
X06075Y03844D01*
X0599Y03901D02*
X06075Y03816D01*
X06063Y04013D02*
X06075Y04025D01*
X03192Y04013D02*
X06063D01*
X06038Y04029D02*
X06075Y04066D01*
X02574Y04029D02*
X06038D01*
X06026Y04045D02*
X06075Y04094D01*
X02567Y04045D02*
X06026D01*
X06014Y04061D02*
X06075Y04122D01*
X02561Y04061D02*
X06014D01*
X06002Y04077D02*
X06075Y0415D01*
X02554Y04077D02*
X06002D01*
X03199Y03997D02*
X06125D01*
X03983Y03933D02*
X06014D01*
X03975Y03949D02*
X03976D01*
X03996Y03901D02*
X0599D01*
X06265Y05394D02*
X06363D01*
X03989Y03917D02*
X06002D01*
X0307Y03845D02*
X03206Y03981D01*
X03086Y03838D02*
X03212Y03965D01*
X0305Y03847D02*
X03199Y03997D01*
X03025Y03845D02*
X03192Y04013D01*
X0234Y0384D02*
X02561Y04061D01*
X02324Y03847D02*
X02554Y04077D01*
X02372Y03827D02*
X02574Y04029D01*
X02356Y03834D02*
X02567Y04045D01*
X0384Y0379D02*
X03983Y03933D01*
X03872Y03777D02*
X03996Y03901D01*
X03872Y02877D02*
Y03777D01*
Y02877D02*
X03875Y02875D01*
X0382Y0282D02*
X03875Y02875D01*
X0363Y0282D02*
X0382D01*
X0363Y0292D02*
X03635Y02925D01*
X038*
X03856Y02981*
Y03784*
X03923Y03851*
X03861Y03788D02*
X03923Y03851D01*
X03989Y03917*
X0384Y03165D02*
Y0379D01*
X0363Y0312D02*
X03795D01*
X0384Y03165*
X03824Y0345D02*
Y03797D01*
X03794Y0342D02*
X03824Y0345D01*
X0363Y0342D02*
X03794D01*
X03824Y03797D02*
X03976Y03949D01*
X06026*
X03086Y02886D02*
Y03838D01*
X0288Y0282D02*
X0302D01*
X03086Y02886*
X0307Y0297D02*
Y03845D01*
X0288Y0292D02*
X0302D01*
X0307Y0297*
X0288Y0312D02*
X0302D01*
X0305Y0315D02*
Y03847D01*
X0302Y0312D02*
X0305Y0315D01*
X03025Y0345D02*
Y03845D01*
X02995Y0342D02*
X03025Y0345D01*
X0288Y0342D02*
X02995D01*
X0213Y0282D02*
X02317D01*
X02372Y02875D02*
Y03827D01*
X02317Y0282D02*
X02372Y02875D01*
X02356Y02956D02*
Y03834D01*
X0213Y0292D02*
X0232D01*
X02356Y02956*
X0234Y0314D02*
Y0384D01*
X0213Y0312D02*
X0232D01*
X0234Y0314*
X0213Y0342D02*
X0227D01*
X02324Y03474D02*
Y03847D01*
X0227Y0342D02*
X02324Y03474D01*
X0588Y0342D02*
X0588Y03419D01*
X06664*
X0672Y03475D02*
Y04813D01*
X06664Y03419D02*
X0672Y03475D01*
X06736Y03361D02*
Y04819D01*
X0588Y0312D02*
X06495D01*
X06736Y03361*
X06752Y03246D02*
Y04827D01*
X06347Y0282D02*
X06768Y0324D01*
X06425Y0292D02*
X06752Y03246D01*
X0588Y0292D02*
X06425D01*
X0588Y0282D02*
X06347D01*
X06326Y02776D02*
X06425Y02874D01*
X0685Y03299*
X0625Y027D02*
X06425Y02874D01*
X05375Y0275D02*
X05425Y027D01*
X05375Y0275D02*
Y03325D01*
X0513Y0342D02*
X0528D01*
X05425Y027D02*
X0625D01*
X0528Y0342D02*
X05375Y03325D01*
X05418Y02684D02*
X06257D01*
X05359Y02743D02*
X05418Y02684D01*
X05359Y02743D02*
Y03041D01*
X0513Y0312D02*
X0528D01*
X05359Y03041*
X05411Y02668D02*
X06263D01*
X05343Y02736D02*
X05411Y02668D01*
X05343Y02736D02*
Y02882D01*
X053Y02925D02*
X05343Y02882D01*
X05135Y02925D02*
X053D01*
X0513Y0292D02*
X05135Y02925D01*
X06346Y02728D02*
X06359Y0274D01*
X06898Y03279*
X0627Y02652D02*
X06359Y0274D01*
X05405Y02652D02*
X0627D01*
X05327Y0273D02*
X05405Y02652D01*
X05327Y0273D02*
Y02773D01*
X0528Y0282D02*
X05281Y02818D01*
X05327Y02773*
X0513Y0282D02*
X0528D01*
X04625Y02775D02*
X048Y026D01*
X0625D02*
X0695Y033D01*
X048Y026D02*
X0625D01*
X06256Y02584D02*
X06966Y03293D01*
X04609Y02768D02*
X04793Y02584D01*
X04609Y02768D02*
Y03066D01*
X0438Y0312D02*
X04555D01*
X04609Y03066*
X04793Y02584D02*
X06256D01*
X06263Y02568D02*
X06982Y03286D01*
X04786Y02568D02*
X06263D01*
X06269Y02552D02*
X06998Y0328D01*
X0438Y0282D02*
X04385Y02825D01*
X0478Y02552D02*
X06269D01*
X04625Y02775D02*
Y03325D01*
X0438Y0342D02*
X0453D01*
X04625Y03325*
X04385Y02825D02*
X04507D01*
X0478Y02552*
X0438Y0292D02*
X04434D01*
X04786Y02568*
X0399Y05527D02*
Y05537D01*
Y05625D02*
Y05632D01*
Y0557D02*
Y0558D01*
Y05547D02*
Y0556D01*
X0395Y0557D02*
X0398D01*
X03996Y05493D02*
X04003Y05486D01*
X03991D02*
X04003D01*
X04001Y05485D02*
X04003Y05486D01*
X0399Y05485D02*
X03991Y05486D01*
X0399Y05485D02*
X04001D01*
X0399Y05645D02*
Y0565D01*
Y05632D02*
Y05635D01*
Y05525D02*
Y05527D01*
Y05485D02*
Y055D01*
Y05475D02*
Y05485D01*
Y05475D02*
X03991D01*
X03982Y05637D02*
X0399Y05645D01*
X03987Y05637D02*
X0399Y05635D01*
X03985Y05637D02*
X0399Y05632D01*
X03985Y05637D02*
X03987D01*
X03977D02*
X0399Y05625D01*
X03977Y05637D02*
X03977D01*
X03982*
X03985*
X0398Y0557D02*
X0399Y0558D01*
X0398Y0557D02*
X0399Y0556D01*
Y05537D02*
Y05547D01*
Y05527D02*
X04Y05537D01*
X0398D02*
X0399Y05527D01*
X0398Y05537D02*
X0399D01*
Y05365D02*
Y05475D01*
X0459Y04762D02*
X046D01*
X04037D02*
X046D01*
X0399Y0481D02*
X04037Y04762D01*
X04615Y05053D02*
Y05075D01*
Y04838D02*
Y05075D01*
Y04838D02*
X04675Y04778D01*
X0524Y0495D02*
Y0547D01*
X05395Y04795D02*
X05525D01*
X06363*
X05304D02*
X05525D01*
X0524Y0486D02*
Y04975D01*
Y0486D02*
X05304Y04795D01*
X03725Y053D02*
X03775Y0525D01*
X03725Y053D02*
Y05537D01*
X0375Y05562D02*
X0387D01*
X03725Y05537D02*
X0375Y05562D01*
X03786Y05511D02*
X0387D01*
X03775Y055D02*
X03786Y05511D01*
X03775Y0535D02*
Y055D01*
Y0535D02*
X03825Y053D01*
Y05175D02*
Y053D01*
X04079Y05662D02*
X04237D01*
X0425Y0565*
X04079Y05612D02*
X04212D01*
X04225Y056*
Y05D02*
Y056D01*
X0425Y0535D02*
Y05475D01*
Y0565*
Y05125D02*
Y05475D01*
X04079Y05562D02*
X04187D01*
X042Y0555*
Y04875D02*
Y0555D01*
X04079Y05511D02*
X04163D01*
X04175Y055*
Y048D02*
Y055D01*
X04788Y05511D02*
X048Y055D01*
X04704Y05511D02*
X04788D01*
X04825Y04875D02*
Y0555D01*
X04812Y05562D02*
X04825Y0555D01*
X04704Y05562D02*
X04812D01*
X04875Y05125D02*
Y05475D01*
Y0565*
Y0535D02*
Y05475D01*
X0485Y05D02*
Y056D01*
X04837Y05612D02*
X0485Y056D01*
X04704Y05612D02*
X04837D01*
X04862Y05662D02*
X04875Y0565D01*
X04704Y05662D02*
X04862D01*
X0445Y05175D02*
Y053D01*
X044Y0535D02*
X0445Y053D01*
X044Y0535D02*
Y055D01*
X04411Y05511*
X04495*
X0435Y05537D02*
X04375Y05562D01*
X04495*
X0435Y053D02*
Y05537D01*
Y053D02*
X044Y0525D01*
X05413Y05511D02*
X05425Y055D01*
X05329Y05511D02*
X05413D01*
X0545Y04875D02*
Y0555D01*
X05437Y05562D02*
X0545Y0555D01*
X05329Y05562D02*
X05437D01*
X055Y05125D02*
Y05475D01*
Y0565*
Y0535D02*
Y05475D01*
X05475Y05D02*
Y056D01*
X05462Y05612D02*
X05475Y056D01*
X05329Y05612D02*
X05462D01*
X05487Y05662D02*
X055Y0565D01*
X05329Y05662D02*
X05487D01*
X05075Y05175D02*
Y053D01*
X05025Y0535D02*
X05075Y053D01*
X05025Y0535D02*
Y055D01*
X05036Y05511*
X0512*
X04975Y05537D02*
X05Y05562D01*
X0512*
X04975Y053D02*
Y05537D01*
Y053D02*
X05025Y0525D01*
X05425Y0485D02*
Y055D01*
X03225Y036D02*
X033D01*
X032Y0365D02*
X03325D01*
X024Y03375D02*
X02475D01*
X04Y0365D02*
X041D01*
X0465Y03225D02*
X04775D01*
X0465Y03325D02*
X04725D01*
X0545Y03225D02*
X0555D01*
X0545Y03325D02*
X05525D01*
X056Y03675D02*
X058D01*
X05825Y0365*
Y03375D02*
Y0365D01*
Y03375D02*
X0588Y0332D01*
X079Y0455D02*
X08175D01*
X082Y04575*
Y04825*
X08113Y04858D02*
X08166D01*
X082Y04825*
X08164Y0197D02*
X0826D01*
X0816Y01975D02*
X08164Y0197D01*
X08015Y01995D02*
X08035Y01975D01*
X08085*
X08115Y02005*
X08045Y0194D02*
X08125D01*
X0797Y02013D02*
X08043Y0194D01*
X07939Y02013D02*
X0797D01*
X08043Y0194D02*
X08045D01*
X08037Y05047D02*
X08113D01*
X08035Y05045D02*
X08037Y05047D01*
X08287D02*
X08412D01*
X08415Y0505*
X09247Y0569D02*
X09297D01*
G54D65*
X07919Y01995D02*
Y02013D01*
Y01995D02*
X07981Y01932D01*
Y01875D02*
Y01932D01*
G54D66*
X07789Y02672D02*
Y02731D01*
X0775Y02632D02*
X07789Y02672D01*
X0775Y02575D02*
Y02632D01*
X07789Y02731D02*
X07791Y02732D01*
G54D67*
X0775Y02515D02*
Y02575D01*
X07752Y0311D02*
X07752Y0311D01*
X07752Y03087D02*
Y0311D01*
X0777Y0311D02*
X07771Y0311D01*
Y03087D02*
Y0311D01*
X08043Y05103D02*
X0805Y0511D01*
X08043Y05085D02*
X0805Y05079D01*
X08113*
X08043Y05198D02*
X0805Y05205D01*
X08113*
X08043Y0518D02*
X0805Y05173D01*
X08113*
X0767Y03037D02*
X07679D01*
X0768Y03037*
X07702*
X07679Y03019D02*
X0768Y03018D01*
X07702*
X08043Y05324D02*
X0805Y05331D01*
X08113*
X08043Y05306D02*
X0805Y05299D01*
X08113*
X07679Y02997D02*
X0768Y02998D01*
X07702*
X07679Y02979D02*
X0768Y02978D01*
X07702*
X0755Y0299D02*
X07557Y02982D01*
X0755Y0299D02*
X07581Y02958D01*
X07674*
X07675Y02959*
X07702*
X07674Y0294D02*
X07675Y02939D01*
X07702*
X08043Y05418D02*
X0805Y05425D01*
X08113*
X08043Y054D02*
X0805Y05394D01*
X08113*
X07738Y02506D02*
Y02508D01*
X08287Y04953D02*
X08426D01*
X07738Y02506D02*
X07741D01*
X07771Y02686D02*
Y02732D01*
X07748Y02663D02*
X07771Y02686D01*
X07601Y02663D02*
X07748D01*
X07968Y0263D02*
X08093Y02506D01*
X07968Y0263D02*
Y02732D01*
X08214Y0268D02*
X0824Y02653D01*
X07988Y02691D02*
Y02732D01*
Y02691D02*
X08Y0268D01*
X08214*
X08287Y04827D02*
X08357D01*
X08389Y04795*
X08287Y04669D02*
X08384D01*
X08389Y04675*
X0802Y04669D02*
X08113D01*
X0802Y0467D02*
X0802Y04669D01*
X08017Y04827D02*
X08113D01*
X08015Y04825D02*
X08017Y04827D01*
X08031Y04921D02*
X08113D01*
X0803Y0492D02*
X08031Y04921D01*
X08007Y04953D02*
X08113D01*
X08005Y04955D02*
X08007Y04953D01*
X08287Y04921D02*
X08393D01*
X0842Y04895*
X08065Y05583D02*
X08113D01*
X08058Y05589D02*
X08065Y05583D01*
Y05614D02*
X08113D01*
X08058Y05607D02*
X08065Y05614D01*
X0768Y0286D02*
X07702D01*
X07678Y02862D02*
X0768Y0286D01*
Y029D02*
X07702D01*
X07679Y02901D02*
X0768Y029D01*
Y02919D02*
X07702D01*
X07679Y02919D02*
X0768Y02919D01*
X08065Y05488D02*
X08113D01*
X08058Y05495D02*
X08065Y05488D01*
Y0552D02*
X08113D01*
X08058Y05513D02*
X08065Y0552D01*
X07713Y05513D02*
X08058D01*
X0772Y05495D02*
X08058D01*
X07506Y02919D02*
X07679D01*
X07499Y02901D02*
X07679D01*
X07475Y02925D02*
X07499Y02901D01*
X07482Y02943D02*
X07506Y02919D01*
X07427Y02943D02*
X07482D01*
X07419Y02925D02*
X07475D01*
X07479Y02862D02*
X07678D01*
X07487Y0288D02*
X07702D01*
X07465Y02877D02*
X07479Y02862D01*
X07472Y02895D02*
X07487Y0288D01*
X07398Y02877D02*
X07465D01*
X07405Y02895D02*
X07472D01*
X07682Y05607D02*
X08058D01*
X0769Y05589D02*
X08058D01*
X07752Y0311D02*
Y0313D01*
X0777Y0311D02*
Y03137D01*
X07725Y03157D02*
X07752Y0313D01*
X07743Y03165D02*
X0777Y03137D01*
X07725Y04975D02*
X07853Y05103D01*
X07743Y04967D02*
X07861Y05085D01*
X07853Y05103D02*
X08043D01*
X07861Y05085D02*
X08043D01*
X07662Y03019D02*
X07679D01*
X0762Y03061D02*
X07662Y03019D01*
X07638Y03069D02*
X0767Y03037D01*
X0762Y03061D02*
Y0433D01*
Y05045D02*
X07773Y05198D01*
X07638Y05037D02*
X0778Y0518D01*
X07773Y05198D02*
X08043D01*
X0778Y0518D02*
X08043D01*
X07751Y054D02*
X08043D01*
X07743Y05418D02*
X08043D01*
X07574Y0294D02*
X07674D01*
X07475Y0515D02*
X07743Y05418D01*
X07475Y03039D02*
X07574Y0294D01*
X07475Y03039D02*
Y0515D01*
X07493Y05142D02*
X07751Y054D01*
X07493Y03047D02*
X0755Y0299D01*
X07493Y03047D02*
Y05142D01*
X074Y052D02*
X07713Y05513D01*
X0738Y02964D02*
X07419Y02925D01*
X07398Y02972D02*
X07427Y02943D01*
X07325Y0525D02*
X07682Y05607D01*
X07325Y0295D02*
X07398Y02877D01*
X07325Y0295D02*
Y0525D01*
X07343Y05242D02*
X0769Y05589D01*
X07343Y02957D02*
X07405Y02895D01*
X07343Y02957D02*
Y05242D01*
X07398Y02972D02*
Y03034D01*
X0738Y02964D02*
Y03041D01*
X074Y03061*
Y052*
X07418Y05192D02*
X0772Y05495D01*
X07398Y03034D02*
X07418Y03054D01*
Y05192*
X07774Y05324D02*
X08043D01*
X0755Y051D02*
X07774Y05324D01*
X0755Y03077D02*
Y051D01*
Y03077D02*
X07647Y02979D01*
X07679*
X07781Y05306D02*
X08043D01*
X07568Y05092D02*
X07781Y05306D01*
X07568Y03084D02*
Y05092D01*
Y03084D02*
X07655Y02997D01*
X07679*
X07743Y03165D02*
Y03482D01*
Y03605*
Y03701*
Y03866*
Y03962*
Y04085*
Y04175*
Y04967*
X07725Y04175D02*
Y04975D01*
Y03157D02*
Y0349D01*
Y03597*
Y03693*
Y03874*
Y04077*
Y04175*
X0762Y0433D02*
Y04549D01*
Y05045*
X07638Y04637D02*
Y05037D01*
Y03069D02*
Y04253D01*
Y0453*
Y04637*
X0805Y0511D02*
X08065D01*
X08113*
G54D68*
X0245Y05834D02*
Y05894D01*
X0245Y05895*
X09564Y0385D02*
X09565Y0385D01*
X09504Y0385D02*
X09564D01*
G54D69*
X0215Y06225D02*
X02205D01*
X02175D02*
X02205D01*
X02175D02*
Y06266D01*
X02259D02*
X02294D01*
X02175D02*
X02259D01*
X02071D02*
X02101D01*
X02175*
X0209Y06225D02*
X02115D01*
X02022D02*
X0209D01*
X02022Y06262D02*
Y06292D01*
Y06225D02*
Y06262D01*
Y06225D02*
X02065D01*
X0224Y06125D02*
X02265Y061D01*
X02195Y06125D02*
X0224D01*
X02022D02*
X02195D01*
Y0615*
X0217Y06175D02*
X02195Y0615D01*
X02141Y06175D02*
X0217D01*
X02022D02*
X02108D01*
X09915Y0404D02*
X09916Y04041D01*
Y04125*
X0987Y0413D02*
X09911D01*
X09916Y04125*
Y04204*
X0987Y0421D02*
Y04278D01*
X09913*
X0977Y041D02*
X09803D01*
X0982Y04117*
Y04143*
Y04176D02*
Y04225D01*
Y04278*
Y0421D02*
Y04225D01*
X09736Y04625D02*
X09749D01*
X0977Y04605*
Y04472D02*
Y04605D01*
X0972Y04472D02*
Y0452D01*
X09686Y04553D02*
X0972Y0452D01*
X09686Y04553D02*
Y04575D01*
X09778Y04143D02*
Y04206D01*
X0977Y04215D02*
X09778Y04206D01*
X0977Y04215D02*
Y04278D01*
X033Y05535D02*
D01*
Y05454D02*
Y05535D01*
X0754Y01775D02*
X07565D01*
X07585Y01727D02*
Y01755D01*
X07605Y01775D02*
X07625D01*
X07565D02*
X07585D01*
X07605*
X07565D02*
X07585Y01755D01*
X07595Y01765D02*
X07605Y01775D01*
X07632Y02612D02*
X07634D01*
X09225Y02245D02*
Y02311D01*
X09225Y02245D02*
X09225Y02245D01*
X09144Y02369D02*
X09145Y0237D01*
X0905Y02327D02*
Y02375D01*
Y02327D02*
D01*
X01973Y0665D02*
X0205D01*
X01973Y06576D02*
Y0665D01*
Y06576D02*
X01975Y06575D01*
X01973Y0665D02*
Y06723D01*
X01975Y06725*
X0175Y0665D02*
X01826D01*
Y06576D02*
Y0665D01*
X01825Y06575D02*
X01826Y06576D01*
Y0665D02*
Y06723D01*
X01825Y06725D02*
X01826Y06723D01*
G54D70*
X05975Y05525D02*
D01*
X06045*
X033Y0533D02*
D01*
Y05395D01*
X0743Y0162D02*
Y0167D01*
X0737D02*
X0743D01*
X07585Y0162D02*
Y01672D01*
X07595D02*
X07637D01*
X0743Y0167D02*
X07583D01*
X0905Y02225D02*
Y02272D01*
Y02225D02*
D01*
X08224Y02179D02*
X0826D01*
X0822Y02175D02*
X08224Y02179D01*
X0816Y02175D02*
X0822D01*
G54D71*
X0808Y029D02*
X08975D01*
X0808Y02919D02*
X08967D01*
X08125Y02941D02*
X08891D01*
X08123Y0294D02*
X08125Y02941D01*
X08057Y0294D02*
X08123D01*
X08117Y0296D02*
X08883D01*
X08115Y02959D02*
X08117Y0296D01*
X08057Y02959D02*
X08115D01*
X081Y02979D02*
X08804D01*
X081Y02978D02*
X081Y02979D01*
X08057Y02978D02*
X081D01*
X08057Y02998D02*
X08796D01*
X081Y03018D02*
X08718D01*
X081Y03018D02*
X081Y03018D01*
X08057Y03018D02*
X081D01*
X081Y03037D02*
X0871D01*
X081Y03037D02*
X081Y03037D01*
X08057Y03037D02*
X081D01*
X0808Y02919D02*
X0808Y02919D01*
X08057Y02919D02*
X0808D01*
Y029D02*
X0808Y029D01*
X08057Y029D02*
X0808D01*
X08057Y02939D02*
X08057Y0294D01*
X08356Y05324D02*
X0875D01*
X0835Y05425D02*
X08356Y05419D01*
X08287Y05425D02*
X0835D01*
Y05394D02*
X08356Y054D01*
X08287Y05394D02*
X0835D01*
Y0552D02*
X08356Y05513D01*
X08287Y0552D02*
X0835D01*
Y05488D02*
X08356Y05494D01*
X08287Y05488D02*
X0835D01*
Y05614D02*
X08356Y05608D01*
X08287Y05614D02*
X0835D01*
Y05583D02*
X08356Y05589D01*
X08287Y05583D02*
X0835D01*
Y05331D02*
X08356Y05324D01*
X08287Y05331D02*
X0835D01*
Y05299D02*
X08356Y05305D01*
X08287Y05299D02*
X0835D01*
Y05205D02*
X08356Y05198D01*
X08287Y05205D02*
X0835D01*
Y05173D02*
X08356Y05179D01*
X08287Y05173D02*
X0835D01*
X07988Y03125D02*
Y03132D01*
X07988Y03125D02*
X07988Y03125D01*
X07988Y03087D02*
Y03125D01*
X07892Y03219D02*
X07892D01*
X0787Y03197D02*
X07892Y03219D01*
X0787Y03125D02*
Y03197D01*
X0835Y0511D02*
X08356Y05104D01*
X08287Y0511D02*
X0835D01*
Y05079D02*
X08356Y05085D01*
X08287Y05079D02*
X0835D01*
X07948Y03125D02*
X07949Y03125D01*
X07948Y03087D02*
Y03125D01*
X085Y0499D02*
X08534D01*
X08563Y04988D02*
X08575Y04975D01*
X08541Y05009D02*
X08575Y04975D01*
X085Y05009D02*
X08541D01*
X08356D02*
X085D01*
X0835Y05016D02*
X08356Y05009D01*
X08287Y05016D02*
X0835D01*
X08356Y0499D02*
X085D01*
X0835Y04984D02*
X08356Y0499D01*
X08287Y04984D02*
X0835D01*
X0787Y03125D02*
X0787Y03125D01*
X0787Y03125D02*
X0787Y03125D01*
X0787Y03087D02*
Y03125D01*
X0787Y03125D02*
Y03132D01*
X07791Y0311D02*
X07791Y0311D01*
X07791Y03087D02*
Y0311D01*
X07928Y03087D02*
X07929Y03087D01*
X07909D02*
X07909Y03087D01*
X0835Y04889D02*
X08356Y04883D01*
X0835Y04889D02*
Y0489D01*
X08287D02*
X0835D01*
Y04858D02*
X08356Y04864D01*
X08287Y04858D02*
X0835D01*
X08043Y05009D02*
X0805Y05016D01*
X08113*
X08043Y0499D02*
X0805Y04984D01*
X08113*
X0781Y0311D02*
X07811Y0311D01*
Y03087D02*
Y0311D01*
X07914Y01925D02*
Y0196D01*
X079Y01974D02*
X07914Y0196D01*
X079Y01974D02*
Y02013D01*
X0788Y0198D02*
Y02013D01*
X07855Y01955D02*
X0788Y0198D01*
X07855Y01925D02*
Y01955D01*
X08356Y05305D02*
X08742D01*
X0871Y03037D02*
X08875Y03201D01*
Y05173*
X08742Y05305D02*
X08875Y05173D01*
X08894Y03194D02*
Y05181D01*
X08718Y03018D02*
X08894Y03194D01*
X0875Y05324D02*
X08894Y05181D01*
X08356Y05419D02*
X0878D01*
X08356Y054D02*
X08772D01*
X07889Y03087D02*
Y03189D01*
X07892Y03219D02*
X08056Y03382D01*
X07889Y03189D02*
X08075Y03375D01*
Y0405*
X08056Y04057D02*
X08098Y041D01*
X08075Y0405D02*
X08106Y04081D01*
X08098Y041D02*
X084D01*
X08106Y04081D02*
X08407D01*
X084Y041D02*
X0845Y0415D01*
X08407Y04081D02*
X08469Y04142D01*
X0845Y0415D02*
Y04789D01*
X08469Y04142D02*
Y04797D01*
X08375Y04864D02*
X0845Y04789D01*
X08382Y04883D02*
X08469Y04797D01*
X08356Y04864D02*
X08375D01*
X08356Y04883D02*
X08382D01*
X07791Y0311D02*
Y0316D01*
X0781Y0311D02*
Y03167D01*
X07775Y03176D02*
X07791Y0316D01*
X07794Y03184D02*
X0781Y03167D01*
X07775Y03176D02*
Y03351D01*
X07794Y03184D02*
Y03344D01*
X07775Y03351D02*
X07806Y03382D01*
X07794Y03344D02*
X07825Y03375D01*
X07806Y03382D02*
Y03536D01*
Y04336D02*
Y04957D01*
X07858Y05009*
X07825Y0495D02*
X07865Y0499D01*
X07858Y05009D02*
X08043D01*
X07865Y0499D02*
X08043D01*
X07909Y03087D02*
Y03183D01*
X07928Y03087D02*
Y03175D01*
X07909Y03183D02*
X08095Y03369D01*
X07928Y03175D02*
X08103Y0335D01*
X08095Y03369D02*
X08544D01*
X08103Y0335D02*
X08551D01*
X08544Y03369D02*
X086Y03425D01*
X08551Y0335D02*
X08619Y03417D01*
X08534Y0499D02*
X086Y04925D01*
X08575Y04975D02*
X08619Y04932D01*
X08007Y03087D02*
Y03125D01*
X07988Y03132D02*
X08075Y03219D01*
X08007Y03125D02*
X08082Y032D01*
X08075Y03219D02*
X08742D01*
X08082Y032D02*
X0875D01*
X08742Y03219D02*
X08806Y03282D01*
X0875Y032D02*
X08825Y03275D01*
X08806Y03282D02*
Y05092D01*
X08825Y03275D02*
Y051D01*
X08718Y05179D02*
X08806Y05092D01*
X08726Y05198D02*
X08825Y051D01*
X08356Y05179D02*
X08718D01*
X08356Y05198D02*
X08726D01*
X08356Y05104D02*
X0867D01*
X0875Y05025*
Y0345D02*
Y05025D01*
X086Y033D02*
X0875Y0345D01*
X08125Y033D02*
X086D01*
X07968Y03143D02*
X08125Y033D01*
X07968Y03087D02*
Y03143D01*
X08356Y05085D02*
X08662D01*
X08731Y05017*
Y03457D02*
Y05017D01*
X08592Y03319D02*
X08731Y03457D01*
X08117Y03319D02*
X08592D01*
X07949Y03151D02*
X08117Y03319D01*
X07949Y03125D02*
Y03151D01*
X08772Y054D02*
X08981Y05192D01*
Y03182D02*
Y05192D01*
X08796Y02998D02*
X08981Y03182D01*
X0878Y05419D02*
X09Y052D01*
X08804Y02979D02*
X09Y03175D01*
Y052*
X08883Y0296D02*
X09056Y03132D01*
X08891Y02941D02*
X09075Y03125D01*
X09056Y03132D02*
Y05292D01*
X08853Y05494D02*
X09056Y05292D01*
X08356Y05494D02*
X08853D01*
X09075Y03125D02*
Y053D01*
X08356Y05513D02*
X08861D01*
X09075Y053*
X08967Y02919D02*
X09131Y03082D01*
Y05317*
X08858Y05589D02*
X09131Y05317D01*
X08356Y05589D02*
X08858D01*
X08975Y029D02*
X0915Y03075D01*
Y05325*
X08866Y05608D02*
X0915Y05325D01*
X08356Y05608D02*
X08866D01*
X08056Y03382D02*
Y04057D01*
X07806Y03536D02*
Y03736D01*
Y03836*
Y03936*
Y04136*
Y04236*
Y04336*
X07825Y03375D02*
Y0345D01*
Y03456*
Y03743*
Y03943*
Y04143*
Y04243*
Y04343*
Y0495*
X086Y03425D02*
Y03631D01*
X08619Y03417D02*
Y03835D01*
X086Y03631D02*
Y04925D01*
X08619Y03835D02*
Y04932D01*
G54D72*
X06844Y01838D02*
X06919Y01913D01*
X06798Y01793D02*
X06799D01*
X0675Y01745D02*
X06798Y01793D01*
X0675Y012D02*
Y01745D01*
X07981Y01818D02*
Y01875D01*
Y01818D02*
X0805Y0175D01*
X08225*
X0826Y01715*
Y01575D02*
Y01715D01*
X02575Y044D02*
X026Y04375D01*
X02875*
X03625D02*
Y04525D01*
G54D73*
X06805Y01785D02*
Y018D01*
X0905Y012D02*
Y01621D01*
X08984Y01686D02*
X0905Y01621D01*
G54D74*
X07835Y01732D02*
Y01835D01*
X07855Y01855*
Y01925*
X07914Y0186D02*
Y01925D01*
Y0186D02*
X07935Y0184D01*
Y01732D02*
Y0184D01*
X06919Y01754D02*
X06994Y01829D01*
X07003*
X0685Y01685D02*
X0688Y01715D01*
G54D75*
X07657Y01732D02*
X07735D01*
X07655Y01735D02*
X07657Y01732D01*
G54D76*
X08796Y01869D02*
X08805D01*
X08944Y01725D02*
X08945D01*
X08805Y01864D02*
X08944Y01725D01*
X0888Y01953D02*
X0898Y01853D01*
X02499Y04801D02*
X025Y048D01*
X02176Y04801D02*
X02499D01*
X02125Y0475D02*
X02176Y04801D01*
X02125Y04375D02*
Y0475D01*
X025Y04723D02*
X02551D01*
X02728D02*
X02728Y04723D01*
X02835*
X02836Y04723*
X02951*
X02975Y047*
X0585*
X05875Y04675*
Y04375D02*
Y04675D01*
X02551Y04723D02*
X02575Y047D01*
Y044D02*
Y047D01*
X02675Y04775D02*
X02728D01*
X0265Y0475D02*
X02675Y04775D01*
X0265Y04675D02*
Y0475D01*
X05125Y04375D02*
Y04625D01*
X0265Y04675D02*
X02676Y04648D01*
X05101*
X05125Y04625*
X02676Y04826D02*
X02728D01*
X02625Y04625D02*
Y04775D01*
Y04625D02*
X0265Y046D01*
X0435*
X04375Y04575*
Y04375D02*
Y04575D01*
X02625Y04775D02*
X02676Y04826D01*
X02727Y0485D02*
X02728Y04851D01*
X02665Y0485D02*
X02727D01*
X026Y04785D02*
X02665Y0485D01*
X026Y04575D02*
Y04785D01*
Y04575D02*
X02625Y0455D01*
X036*
X03625Y04525*
X032Y05028D02*
X03346D01*
X03375Y05*
X0355*
X03137Y05025D02*
X03196D01*
X03124Y05037D02*
X03137Y05025D01*
X03038Y05037D02*
X03124D01*
X03037Y05037D02*
X03038Y05037D01*
X02645Y05025D02*
X02657Y05037D01*
X02536Y05025D02*
X02645D01*
X02657Y05037D02*
X02762D01*
G54D77*
X09017Y01814D02*
X09055Y01777D01*
Y01775D02*
Y01777D01*
X08239Y02507D02*
X08297Y0245D01*
X083*
X0776Y02047D02*
D01*
Y02005D02*
Y02047D01*
X07988Y02136D02*
X0799Y02135D01*
X0755Y02465D02*
X07592Y02507D01*
G54D78*
X07232Y02D02*
X07738Y02506D01*
X07131Y01956D02*
X07175Y02D01*
X0713Y01956D02*
X07131D01*
X07175Y02D02*
X07232D01*
X071Y02162D02*
X07591Y02653D01*
X07046Y0204D02*
X071Y02093D01*
Y02162*
X0824Y02653D02*
X0868Y02214D01*
Y02153D02*
X08753Y0208D01*
X0868Y02153D02*
Y02214D01*
X08093Y02506D02*
X08524Y02075D01*
X08591D02*
X08669Y01996D01*
X08524Y02075D02*
X08591D01*
G54D79*
X09145Y0237D02*
X09225D01*
X09145Y0237D02*
X09145Y0237D01*
Y02429D02*
X09225D01*
X09145Y0243D02*
X09145Y02429D01*
X09066Y02429D02*
X09144D01*
X09145Y0243*
X0899Y02429D02*
X09066D01*
X0899Y0243D02*
X0899Y02429D01*
X09145Y02315D02*
Y0237D01*
G54D80*
X02536Y05025D02*
X02541Y0502D01*
X02686Y04986D02*
X02762D01*
X025Y04851D02*
X02551D01*
X02686Y04986*
X03196Y05025D02*
X032Y05028D01*
G54D81*
X01702Y05952D03*
G54D82*
X09597Y0459D03*
G54D83*
X0675Y012D03*
X0826Y01575D03*
X0905Y012D03*
X0355Y05D03*
X02125Y04375D03*
X02875D03*
X03625D03*
X04375D03*
X05125D03*
X05875D03*
G54D84*
X0665Y011D03*
X0685Y013D03*
Y011D03*
X0665Y013D03*
X0836Y01475D03*
X0816Y01675D03*
Y01475D03*
X0836Y01675D03*
X0895Y013D03*
X0915Y011D03*
Y013D03*
X0895Y011D03*
X0365Y049D03*
X0345Y051D03*
Y049D03*
X0365Y051D03*
X02225Y04275D03*
X02025Y04475D03*
Y04275D03*
X02225Y04475D03*
X02975Y04275D03*
X02775Y04475D03*
Y04275D03*
X02975Y04475D03*
X03725Y04275D03*
X03525Y04475D03*
Y04275D03*
X03725Y04475D03*
X04475Y04275D03*
X04275Y04475D03*
Y04275D03*
X04475Y04475D03*
X05225Y04275D03*
X05025Y04475D03*
Y04275D03*
X05225Y04475D03*
X05975Y04275D03*
X05775Y04475D03*
Y04275D03*
X05975Y04475D03*
G54D85*
X0588Y0282D03*
X0513D03*
X0438D03*
X0363D03*
X0288D03*
X0213D03*
X0816Y02175D03*
X09725Y0625D03*
X04825Y06925D03*
X09175Y06175D03*
Y06375D03*
Y06275D03*
X05815Y06765D03*
X0575Y055D03*
G54D86*
X0578Y0282D03*
X0588Y0292D03*
X0578D03*
X0588Y0302D03*
X0578D03*
X0588Y0312D03*
X0578D03*
X0588Y0322D03*
X0578D03*
X0588Y0332D03*
X0578D03*
X0588Y0342D03*
X0578D03*
X0588Y0352D03*
X0578D03*
X0588Y0362D03*
X0578D03*
X0588Y0372D03*
X0578D03*
X0503Y0282D03*
X0513Y0292D03*
X0503D03*
X0513Y0302D03*
X0503D03*
X0513Y0312D03*
X0503D03*
X0513Y0322D03*
X0503D03*
X0513Y0332D03*
X0503D03*
X0513Y0342D03*
X0503D03*
X0513Y0352D03*
X0503D03*
X0513Y0362D03*
X0503D03*
X0513Y0372D03*
X0503D03*
X0428Y0282D03*
X0438Y0292D03*
X0428D03*
X0438Y0302D03*
X0428D03*
X0438Y0312D03*
X0428D03*
X0438Y0322D03*
X0428D03*
X0438Y0332D03*
X0428D03*
X0438Y0342D03*
X0428D03*
X0438Y0352D03*
X0428D03*
X0438Y0362D03*
X0428D03*
X0438Y0372D03*
X0428D03*
X0353Y0282D03*
X0363Y0292D03*
X0353D03*
X0363Y0302D03*
X0353D03*
X0363Y0312D03*
X0353D03*
X0363Y0322D03*
X0353D03*
X0363Y0332D03*
X0353D03*
X0363Y0342D03*
X0353D03*
X0363Y0352D03*
X0353D03*
X0363Y0362D03*
X0353D03*
X0363Y0372D03*
X0353D03*
X0278Y0282D03*
X0288Y0292D03*
X0278D03*
X0288Y0302D03*
X0278D03*
X0288Y0312D03*
X0278D03*
X0288Y0322D03*
X0278D03*
X0288Y0332D03*
X0278D03*
X0288Y0342D03*
X0278D03*
X0288Y0352D03*
X0278D03*
X0288Y0362D03*
X0278D03*
X0288Y0372D03*
X0278D03*
X0203Y0282D03*
X0213Y0292D03*
X0203D03*
X0213Y0302D03*
X0203D03*
X0213Y0312D03*
X0203D03*
X0213Y0322D03*
X0203D03*
X0213Y0332D03*
X0203D03*
X0213Y0342D03*
X0203D03*
X0213Y0352D03*
X0203D03*
X0213Y0362D03*
X0203D03*
X0213Y0372D03*
X0203D03*
X0816Y02075D03*
Y01975D03*
X07735Y014D03*
X07835D03*
X029Y0545D03*
X03D03*
X029Y05225D03*
X03D03*
X0435Y06925D03*
X04825Y06825D03*
Y06725D03*
X0474Y07325D03*
X0484Y07225D03*
Y07325D03*
X0494Y07225D03*
Y07325D03*
X0504Y07225D03*
Y07325D03*
X0514Y07225D03*
Y07325D03*
X0524Y07225D03*
Y07325D03*
X0534Y07225D03*
Y07325D03*
X0544Y07225D03*
Y07325D03*
X0554Y07225D03*
Y07325D03*
X0564Y07225D03*
Y07325D03*
X0574Y07225D03*
Y07325D03*
X0584Y07225D03*
Y07325D03*
X0594Y07225D03*
Y07325D03*
X08725Y06625D03*
X08825D03*
X08925D03*
X09025D03*
X09125D03*
G54D87*
X09247Y07338D03*
X09502D03*
Y07161D03*
X09247D03*
X04147Y07338D03*
X04402D03*
Y07161D03*
X04147D03*
G54D88*
X083Y03531D03*
X0635D03*
X083Y07231D03*
X0635D03*
G54D89*
X0645Y06248D03*
X082D03*
G54D90*
X0645Y04508D03*
X082D03*
G54D91*
X015Y0675D03*
Y0655D03*
X0275Y06475D03*
X0255D03*
X09775Y0495D03*
X09575D03*
X09525Y01675D03*
X09725D03*
G54D92*
X07635Y014D03*
X0355Y0545D03*
X04625Y06125D03*
X01625Y05375D03*
X048Y011D03*
X098Y033D03*
X017Y011D03*
X065Y02D03*
X028Y0545D03*
Y05225D03*
X0425Y06925D03*
X0474Y07225D03*
X0925Y02D03*
X08625Y06625D03*
G54D93*
X1025Y072D03*
Y012D03*
X012D03*
Y072D03*
G54D94*
X01764Y07D03*
X0195Y07118D03*
Y06881D03*
G54D95*
X0815Y02775D03*
X04875Y02375D03*
X05625D03*
Y02725D03*
X04875Y0265D03*
X06175Y05525D03*
X061Y02375D03*
X0864Y06375D03*
X0849Y0634D03*
X0899Y0627D03*
X0898Y06375D03*
X098Y04714D03*
X015Y06325D03*
X0215Y06225D03*
X02205D03*
X02175D03*
X02294Y06266D03*
X02259D03*
X02071D03*
X02101D03*
X02115Y06225D03*
X0209D03*
X02022Y06292D03*
Y06262D03*
X0165Y0603D03*
X01575Y0634D03*
X09916Y04041D03*
X0987Y0413D03*
X09916Y04204D03*
X0987Y0421D03*
X09913Y04278D03*
X09931Y04633D03*
X0967Y04625D03*
X0972Y04205D03*
X06088Y07063D03*
X06068Y07043D03*
X06049Y07023D03*
X06029Y07004D03*
X06009Y06984D03*
X05989Y06964D03*
X05969Y06944D03*
X0595Y06925D03*
X038Y05713D03*
Y05486D03*
X0415Y05735D03*
X04149Y05688D03*
Y05637D03*
Y05587D03*
X04425Y05713D03*
Y05486D03*
X04775Y05735D03*
X04774Y05688D03*
Y05637D03*
Y05587D03*
X04572Y05772D03*
X04627D03*
X0459Y05595D03*
X0396D03*
X03938Y05773D03*
X03993Y05773D03*
X06672Y05142D03*
X06227D03*
X06227Y05047D03*
X06672D03*
X06675Y04955D03*
X06672Y04827D03*
X06672Y04732D03*
X05263Y05765D03*
X05208Y056D03*
Y05765D03*
X05399Y05587D03*
Y05637D03*
Y05688D03*
X054Y05735D03*
X0505Y05486D03*
Y05713D03*
X05975Y05525D03*
X033Y05535D03*
Y0533D03*
X0593Y05195D03*
Y05345D03*
X0905Y05775D03*
X095Y06D03*
X09375Y0705D03*
X094Y05375D03*
X0925D03*
X08512Y05866D03*
X08465Y059D03*
X08125Y02855D03*
X08145Y02875D03*
X07675Y03175D03*
X0765Y02725D03*
X07225Y02975D03*
X093Y05435D03*
Y05615D03*
X0934D03*
X07475Y0264D03*
X07645Y02695D03*
X07475Y0275D03*
X07625Y02735D03*
X07685Y02715D03*
X07735Y0269D03*
X07825Y02625D03*
X07665Y0258D03*
X0755Y02465D03*
X0788Y0265D03*
X0794Y02685D03*
X0812Y02765D03*
X08145Y02725D03*
X0811Y02705D03*
X0781Y0266D03*
X0812Y02735D03*
X0808Y02725D03*
X0585Y0527D03*
X06636Y05551D03*
Y05646D03*
Y0574D03*
Y05835D03*
Y05929D03*
Y05457D03*
Y05362D03*
X06265Y05455D03*
X06263Y05646D03*
Y05551D03*
Y0574D03*
Y05835D03*
Y05929D03*
Y05992D03*
X06265Y05269D03*
Y05239D03*
X06611Y05268D03*
Y05236D03*
X08387D03*
Y05268D03*
X08013Y05236D03*
Y05268D03*
X026Y072D03*
X02175Y07325D03*
X02875Y072D03*
X032Y07225D03*
X03475D03*
X0375Y072D03*
X04075Y073D03*
X04575Y06925D03*
Y06775D03*
X04475Y06525D03*
X09025Y07175D03*
Y0725D03*
Y07325D03*
X08634Y06895D03*
X08809D03*
X08975Y069D03*
X08525Y0675D03*
X087D03*
X08875D03*
X084Y058D03*
X08Y05775D03*
X082Y05875D03*
X0839Y05695D03*
X079Y0565D03*
X07607Y05817D03*
X07587Y05797D03*
X07647Y05857D03*
X07627Y05837D03*
X06668Y0525D03*
X09105Y05865D03*
X09055Y059D03*
X09402Y0569D03*
X04725Y06825D03*
X04575D03*
X0475Y06525D03*
X0465Y0657D03*
X0415Y06835D03*
X04025Y06685D03*
X0395Y06675D03*
X03925Y069D03*
X03887Y06957D03*
X04255Y06522D03*
X04045D03*
X02375Y0484D03*
X023D03*
X02225Y04844D03*
X02375Y04665D03*
X023D03*
X02225D03*
X02275Y05025D03*
X03125Y05075D03*
Y0495D03*
Y05D03*
X03275Y04925D03*
X03125Y04875D03*
X0325Y0485D03*
Y048D03*
X03125Y04775D03*
X02975D03*
Y04875D03*
X029Y04925D03*
X0275Y05325D03*
X02625Y05225D03*
X0265Y05375D03*
Y05475D03*
X0245D03*
X02475Y05375D03*
X02425Y05425D03*
X02325Y05375D03*
X02825Y0475D03*
Y048D03*
X02425Y04775D03*
Y047D03*
Y0474D03*
X0312Y0555D03*
X02675D03*
X02295Y072D03*
X03125Y069D03*
X034D03*
X037D03*
X03065Y0696D03*
X0334Y06955D03*
X03615D03*
X02565Y0686D03*
X02815Y06865D03*
X02495Y06775D03*
X02735Y0675D03*
X09175Y04225D03*
X03545Y0662D03*
X0327Y06595D03*
X02995Y0665D03*
X03815Y06548D03*
X01825Y06575D03*
Y06725D03*
X05905Y06024D03*
X05625Y06025D03*
X05915Y06845D03*
X0533D03*
X0626Y0473D03*
X02825Y04675D03*
X091Y07275D03*
X08475D03*
X0915Y027D03*
X05675Y06885D03*
X0523D03*
X09375Y0325D03*
X091Y07325D03*
X08425Y07275D03*
X049Y071D03*
Y07D03*
X07025Y02875D03*
X06227Y04827D03*
X0627Y0489D03*
Y0486D03*
Y04985D03*
Y05015D03*
Y04955D03*
Y04925D03*
X06265Y05173D03*
Y0512D03*
Y0509D03*
Y05201D03*
Y05425D03*
Y05395D03*
Y0533D03*
Y053D03*
Y0536D03*
X06675Y0492D03*
X06125Y0415D03*
Y04122D03*
Y04094D03*
Y04066D03*
Y04025D03*
Y03997D03*
Y03969D03*
Y03941D03*
Y039D03*
Y03872D03*
Y03844D03*
Y03816D03*
X03775Y0525D03*
X03825Y05175D03*
X04225Y05D03*
X0425Y05125D03*
X042Y04875D03*
X04175Y048D03*
X04775Y04825D03*
X04825Y04875D03*
X04875Y05125D03*
X0485Y05D03*
X0445Y05175D03*
X044Y0525D03*
X0545Y04875D03*
X055Y05125D03*
X05475Y05D03*
X05075Y05175D03*
X05025Y0525D03*
X05425Y0485D03*
X056Y03675D03*
X041Y0365D03*
X033Y036D03*
X03325Y0365D03*
X03225Y036D03*
X032Y0365D03*
X02475Y03375D03*
X024D03*
X04Y0365D03*
X04725Y03325D03*
X04775Y03225D03*
X0465D03*
Y03325D03*
X05525D03*
X0555Y03225D03*
X0545D03*
Y03325D03*
X079Y0455D03*
X076Y02981D03*
X07597Y03125D03*
X08035Y05045D03*
X08415Y0505D03*
X09247Y0569D03*
G54D96*
X0189Y0634D03*
X01925D03*
X0196D03*
X0189Y06375D03*
X01925D03*
X0196D03*
X0189Y0641D03*
X01925D03*
X0196D03*
X0245Y0593D03*
X0242Y06255D03*
Y0622D03*
X0245Y06255D03*
Y0622D03*
X025Y06165D03*
Y0613D03*
Y0602D03*
X02535Y06165D03*
Y0613D03*
X0253Y0602D03*
X025Y05985D03*
X0253D03*
X02415Y0593D03*
X0245Y05895D03*
X02415D03*
X09565Y03885D03*
Y0385D03*
X096Y03885D03*
X09655Y0377D03*
Y038D03*
X0969Y0377D03*
X098Y03765D03*
X09835D03*
X0969Y038D03*
X098D03*
X09835D03*
X0989Y0385D03*
X09925D03*
X0989Y0388D03*
X09925D03*
X0197Y0598D03*
X019D03*
X01935D03*
X01925Y0615D03*
X0243Y05675D03*
X02465D03*
X025D03*
X02395D03*
X0197Y05945D03*
X01935D03*
X019D03*
X0197Y0591D03*
X01935D03*
X019D03*
X02095Y0598D03*
X0206D03*
X02025D03*
X02095Y05945D03*
X0206D03*
X02025D03*
X02095Y0591D03*
X0206D03*
X02025D03*
X0213Y06435D03*
X0216D03*
X02195D03*
X0223D03*
X1008Y0407D03*
Y04105D03*
Y0414D03*
Y0417D03*
X09555Y04275D03*
Y0424D03*
Y04205D03*
X0959Y04275D03*
Y0424D03*
Y04205D03*
X09625Y04275D03*
Y0424D03*
Y04205D03*
X09555Y044D03*
Y04365D03*
Y0433D03*
X0959Y044D03*
Y04365D03*
Y0433D03*
X09345Y03905D03*
Y038D03*
Y03835D03*
Y0387D03*
X096Y0385D03*
X09795Y04375D03*
X09995Y04405D03*
Y0437D03*
X0996D03*
Y04405D03*
X1003D03*
Y0437D03*
Y04335D03*
X09995D03*
X0996D03*
X09625Y04365D03*
Y044D03*
Y0433D03*
G54D97*
X058Y0504D03*
Y0497D03*
X06003Y0504D03*
X08125Y0307D03*
X07838Y0315D03*
X07875Y03275D03*
X07825Y0326D03*
X06065Y04997D03*
Y04852D03*
X05899Y04855D03*
X06142Y05D03*
X06815Y05002D03*
X0674D03*
Y04852D03*
X06815D03*
X06923Y05252D03*
X06868Y0515D03*
X06793D03*
X06718D03*
X0667Y05325D03*
X06845Y0532D03*
X06715Y0543D03*
X0679D03*
X0806Y02005D03*
X0685Y01685D03*
X07625Y01825D03*
Y019D03*
X0743Y0162D03*
X0737Y0167D03*
X07585Y0162D03*
X0764Y0167D03*
X07625Y01775D03*
X0754D03*
X07585D03*
X07785Y01825D03*
X07655Y01735D03*
X0785Y013D03*
X07785Y019D03*
X09055Y01775D03*
X083Y0245D03*
X08165Y0258D03*
X0776Y02145D03*
Y02005D03*
X07805Y0205D03*
Y021D03*
X0799Y02135D03*
X0786Y0218D03*
X07825Y02155D03*
X07935Y0149D03*
X0814Y01875D03*
X0826Y018D03*
X0841Y01805D03*
X08335Y018D03*
X08325Y0203D03*
X0826Y02085D03*
X09225Y02245D03*
X09145Y0237D03*
Y0243D03*
X0899D03*
X09145Y02315D03*
X0905Y02375D03*
Y02225D03*
X0811Y03115D03*
X083Y02725D03*
X0829Y0277D03*
X0845Y0273D03*
X0862Y028D03*
X08625Y02725D03*
X0744Y02972D03*
X0743Y01775D03*
X08015Y02095D03*
X0806Y0216D03*
X09065Y02605D03*
X07665Y0309D03*
X07985Y05145D03*
X08025D03*
X0802Y05365D03*
X0794Y0537D03*
X07985Y05455D03*
X0797Y05555D03*
X08415Y0555D03*
Y05645D03*
X0797D03*
Y0574D03*
Y05835D03*
X08415D03*
X08414Y0574D03*
X08415Y0593D03*
X0797D03*
X08415Y05455D03*
Y05365D03*
Y05145D03*
X08426Y04953D03*
X08389Y04795D03*
Y04675D03*
X0802Y0467D03*
X08015Y04825D03*
X0794Y0478D03*
X07865D03*
Y04915D03*
X0794D03*
X0803Y0492D03*
X08005Y04955D03*
X0842Y04895D03*
X08515D03*
X0866Y04945D03*
X08665Y05005D03*
X08515Y05055D03*
X0865Y048D03*
X08515Y0474D03*
X0865Y0485D03*
X07865Y0537D03*
X07425Y03022D03*
X08295Y0307D03*
X08185Y03095D03*
X08295Y0315D03*
X08135D03*
X08465Y028D03*
X08425D03*
X0205Y0665D03*
X01975Y06575D03*
Y06725D03*
X0175Y0665D03*
X09375Y05475D03*
X0614Y04852D03*
G54D98*
X0791Y02075D03*
X07809Y0298D03*
X0795D03*
X0788Y0291D03*
X07809Y02839D03*
X0795D03*
G54D99*
X09475Y02625D03*
X094D03*
X09625D03*
X09775D03*
X0985Y0255D03*
X09475D03*
X0955Y02475D03*
X097D03*
X0985D03*
Y024D03*
Y02325D03*
Y0225D03*
Y02175D03*
X09775D03*
Y0225D03*
Y024D03*
X097Y02175D03*
X09625D03*
Y0225D03*
Y024D03*
X0955D03*
Y02325D03*
Y0225D03*
Y02175D03*
X09475D03*
Y0225D03*
X094D03*
Y02175D03*
X097Y024D03*
Y0225D03*
X09625Y02325D03*
X097D03*
X09775D03*
X09625Y02475D03*
X09775D03*
Y0255D03*
X09625D03*
X09925D03*
Y02625D03*
Y02475D03*
Y024D03*
Y02325D03*
Y0225D03*
Y02175D03*
X09325Y02625D03*
X07125Y0275D03*
M02*