%FSTAX23Y23*%
%MOIN*%
%SFA1B1*%

%IPPOS*%
%ADD79C,0.040000*%
%ADD100C,0.025000*%
%ADD101C,0.066000*%
%ADD102C,0.059430*%
%ADD103C,0.063370*%
%ADD104C,0.154000*%
%ADD105C,0.055500*%
%ADD106C,0.071240*%
%ADD107C,0.086000*%
%ADD108C,0.161790*%
%ADD109C,0.036000*%
%ADD110C,0.040000*%
%ADD111C,0.052000*%
%LNdsau-motherboard-reva-1*%
%LPD*%
G54D79*
X01Y012D02*
D01*
X01Y01186*
X01001Y01172*
X01004Y01158*
X01007Y01144*
X01012Y01131*
X01017Y01118*
X01023Y01106*
X0103Y01094*
X01038Y01082*
X01046Y01071*
X01056Y01061*
X01066Y01051*
X01076Y01042*
X01088Y01034*
X011Y01026*
X01112Y0102*
X01125Y01014*
X01138Y01009*
X01151Y01005*
X01165Y01003*
X01179Y01001*
X01193Y01*
X012Y01*
X10275D02*
D01*
X10288Y01*
X10302Y01001*
X10316Y01004*
X1033Y01007*
X10343Y01012*
X10356Y01017*
X10368Y01023*
X1038Y0103*
X10392Y01038*
X10403Y01046*
X10413Y01056*
X10423Y01066*
X10432Y01076*
X1044Y01088*
X10448Y011*
X10454Y01112*
X1046Y01125*
X10465Y01138*
X10469Y01151*
X10471Y01165*
X10473Y01179*
X10474Y01193*
X10475Y012*
Y072D02*
D01*
X10474Y07213*
X10473Y07227*
X1047Y07241*
X10467Y07255*
X10462Y07268*
X10457Y07281*
X10451Y07293*
X10444Y07305*
X10436Y07317*
X10428Y07328*
X10418Y07338*
X10408Y07348*
X10398Y07357*
X10386Y07365*
X10375Y07373*
X10362Y07379*
X10349Y07385*
X10336Y0739*
X10323Y07394*
X10309Y07396*
X10295Y07398*
X10281Y07399*
X10275Y074*
X012D02*
D01*
X01186Y07399*
X01172Y07398*
X01158Y07395*
X01144Y07392*
X01131Y07387*
X01118Y07382*
X01106Y07376*
X01094Y07369*
X01082Y07361*
X01071Y07353*
X01061Y07343*
X01051Y07333*
X01042Y07323*
X01034Y07311*
X01026Y073*
X0102Y07287*
X01014Y07274*
X01009Y07261*
X01005Y07248*
X01003Y07234*
X01001Y0722*
X01Y07206*
X01Y072*
X012Y01D02*
X10275D01*
X10475Y012D02*
Y072D01*
X012Y074D02*
X10275D01*
X01Y012D02*
Y072D01*
G54D100*
X091Y02825D02*
X09375D01*
X066Y028D02*
X06675D01*
X0625Y0245D02*
X066Y028D01*
X0625Y01D02*
Y0245D01*
X066Y028*
X07195*
X09375Y02825D02*
X10475D01*
X082D02*
X091D01*
G54D101*
X0675Y012D03*
X0826Y01575D03*
X0905Y012D03*
X0355Y05D03*
X02125Y04375D03*
X02875D03*
X03625D03*
X04375D03*
X05125D03*
X05875D03*
G54D102*
X0588Y0282D03*
X0578D03*
X0588Y0292D03*
X0578D03*
X0588Y0302D03*
X0578D03*
X0588Y0312D03*
X0578D03*
X0588Y0322D03*
Y0332D03*
Y0342D03*
Y0352D03*
Y0362D03*
Y0372D03*
X0513Y0282D03*
X0503D03*
X0513Y0292D03*
X0503D03*
X0513Y0302D03*
X0503D03*
X0513Y0312D03*
X0503D03*
X0513Y0322D03*
Y0332D03*
Y0342D03*
Y0352D03*
Y0362D03*
Y0372D03*
X0438Y0282D03*
X0428D03*
X0438Y0292D03*
X0428D03*
X0438Y0302D03*
X0428D03*
X0438Y0312D03*
X0428D03*
X0438Y0322D03*
Y0332D03*
Y0342D03*
Y0352D03*
Y0362D03*
Y0372D03*
X0363Y0282D03*
X0353D03*
X0363Y0292D03*
X0353D03*
X0363Y0302D03*
X0353D03*
X0363Y0312D03*
X0353D03*
X0363Y0322D03*
Y0332D03*
Y0342D03*
Y0352D03*
Y0362D03*
Y0372D03*
X0288Y0282D03*
X0278D03*
X0288Y0292D03*
X0278D03*
X0288Y0302D03*
X0278D03*
X0288Y0312D03*
X0278D03*
X0288Y0322D03*
Y0332D03*
Y0342D03*
Y0352D03*
Y0362D03*
Y0372D03*
X0213Y0282D03*
X0203D03*
X0213Y0292D03*
X0203D03*
X0213Y0302D03*
X0203D03*
X0213Y0312D03*
X0203D03*
X0213Y0322D03*
Y0332D03*
Y0342D03*
Y0352D03*
Y0362D03*
Y0372D03*
X0816Y02175D03*
Y02075D03*
Y01975D03*
X07635Y014D03*
X07735D03*
X07835D03*
X028Y0545D03*
X029D03*
X03D03*
X028Y05225D03*
X029D03*
X03D03*
X0425Y06925D03*
X0435D03*
X04825D03*
Y06825D03*
Y06725D03*
X0474Y07225D03*
Y07325D03*
X0484Y07225D03*
Y07325D03*
X0494Y07225D03*
Y07325D03*
X0504Y07225D03*
Y07325D03*
X0514Y07225D03*
Y07325D03*
X0524Y07225D03*
Y07325D03*
X0534Y07225D03*
Y07325D03*
X0544Y07225D03*
Y07325D03*
X0554Y07225D03*
Y07325D03*
X0564Y07225D03*
Y07325D03*
X0574Y07225D03*
Y07325D03*
X0584D03*
X0594D03*
X09175Y06175D03*
Y06375D03*
Y06275D03*
X05815Y06765D03*
X08625Y06625D03*
X08725D03*
X08825D03*
X08925D03*
X09125D03*
G54D103*
X09502Y07161D03*
X09247D03*
X04402D03*
X04147D03*
G54D104*
X083Y03531D03*
X0635D03*
X083Y07231D03*
X0635D03*
G54D105*
X0645Y06248D03*
X082D03*
G54D106*
X0645Y04508D03*
X082D03*
G54D107*
X015Y0675D03*
X0275Y06475D03*
X09775Y0495D03*
X09525Y01675D03*
G54D108*
X0195Y06881D03*
G54D109*
X0815Y02775D03*
X04875Y02375D03*
X05625D03*
Y02725D03*
X04875Y0265D03*
X06175Y05525D03*
X061Y02375D03*
X0864Y06375D03*
X0849Y0634D03*
X0899Y0627D03*
X0898Y06375D03*
X098Y04714D03*
X015Y06325D03*
X0245Y0593D03*
X0242Y06255D03*
Y0622D03*
X0245Y06255D03*
Y0622D03*
X025Y06165D03*
Y0613D03*
Y0602D03*
X02535Y06165D03*
Y0613D03*
X0253Y0602D03*
X025Y05985D03*
X0253D03*
X02415Y0593D03*
X0245Y05895D03*
X02415D03*
X09565Y03885D03*
Y0385D03*
X096Y03885D03*
X09655Y0377D03*
Y038D03*
X0969Y0377D03*
X098Y03765D03*
X09835D03*
X0969Y038D03*
X098D03*
X09835D03*
X0989Y0385D03*
X09925D03*
X0989Y0388D03*
X09925D03*
X0215Y06225D03*
X02205D03*
X02175D03*
X02294Y06266D03*
X02259D03*
X02071D03*
X02101D03*
X02115Y06225D03*
X0209D03*
X02022Y06292D03*
Y06262D03*
X01575Y0634D03*
X09916Y04041D03*
X0987Y0413D03*
X09916Y04204D03*
X0987Y0421D03*
X09913Y04278D03*
X09931Y04633D03*
X096Y0385D03*
X06088Y07063D03*
X06068Y07043D03*
X06049Y07023D03*
X06029Y07004D03*
X06009Y06984D03*
X05989Y06964D03*
X05969Y06944D03*
X0595Y06925D03*
X0415Y05735D03*
X04775D03*
X04627Y05772D03*
X03993Y05773D03*
X05263Y05765D03*
X054Y05735D03*
X05975Y05525D03*
X033Y0533D03*
X0905Y05775D03*
X095Y06D03*
X09375Y0705D03*
X094Y05375D03*
X08512Y05866D03*
X08465Y059D03*
X08125Y02855D03*
X07675Y03175D03*
X0765Y02725D03*
X0934Y05615D03*
X07645Y02695D03*
X07625Y02735D03*
X07825Y02625D03*
X07665Y0258D03*
X0812Y02765D03*
X08145Y02725D03*
X0812Y02735D03*
X06263Y05992D03*
X06265Y05269D03*
Y05239D03*
X06611Y05268D03*
Y05236D03*
X08387D03*
Y05268D03*
X08013Y05236D03*
Y05268D03*
X026Y072D03*
X02175Y07325D03*
X02875Y072D03*
X032Y07225D03*
X03475D03*
X0375Y072D03*
X04075Y073D03*
X04575Y06925D03*
Y06775D03*
X04475Y06525D03*
X09025Y07175D03*
Y0725D03*
Y07325D03*
X08525Y0675D03*
X087D03*
X08875D03*
X084Y058D03*
X08Y05775D03*
X082Y05875D03*
X0839Y05695D03*
X079Y0565D03*
X07607Y05817D03*
X07587Y05797D03*
X07647Y05857D03*
X07627Y05837D03*
X09105Y05865D03*
X09055Y059D03*
X09402Y0569D03*
X04575Y06825D03*
X04025Y06685D03*
X02375Y04665D03*
X023D03*
X02225D03*
X03125Y05075D03*
Y0495D03*
Y04875D03*
X0325Y0485D03*
X03125Y04775D03*
X029Y04925D03*
X02625Y05225D03*
X0265Y05375D03*
Y05475D03*
X02325Y05375D03*
X02825Y048D03*
X02425Y0474D03*
X02675Y0555D03*
X02495Y06775D03*
X02735Y0675D03*
X09175Y04225D03*
X03545Y0662D03*
X0327Y06595D03*
X02995Y0665D03*
X03815Y06548D03*
X05905Y06024D03*
X05625Y06025D03*
X05915Y06845D03*
X0533D03*
X02825Y04675D03*
X091Y07275D03*
X08475D03*
X0915Y027D03*
X05675Y06885D03*
X0523D03*
X09375Y0325D03*
X091Y07325D03*
X08425Y07275D03*
X049Y071D03*
Y07D03*
X07025Y02875D03*
X0627Y0489D03*
Y0486D03*
Y04985D03*
Y05015D03*
Y04955D03*
Y04925D03*
X06265Y05173D03*
Y0512D03*
Y0509D03*
Y05201D03*
Y05425D03*
Y05395D03*
Y0533D03*
Y053D03*
X06675Y0492D03*
X06125Y0415D03*
Y04122D03*
Y04094D03*
Y04066D03*
Y04025D03*
Y03997D03*
Y03969D03*
Y03941D03*
Y039D03*
Y03872D03*
Y03844D03*
Y03816D03*
X03775Y0525D03*
X03825Y05175D03*
X04225Y05D03*
X0425Y05125D03*
X042Y04875D03*
X04175Y048D03*
X04775Y04825D03*
X04825Y04875D03*
X04875Y05125D03*
X0485Y05D03*
X0445Y05175D03*
X044Y0525D03*
X0545Y04875D03*
X055Y05125D03*
X05475Y05D03*
X05075Y05175D03*
X05025Y0525D03*
X05425Y0485D03*
X056Y03675D03*
X041Y0365D03*
X033Y036D03*
X03325Y0365D03*
X03225Y036D03*
X032Y0365D03*
X02475Y03375D03*
X024D03*
X04Y0365D03*
X04725Y03325D03*
X04775Y03225D03*
X0465D03*
Y03325D03*
X05525D03*
X0555Y03225D03*
X0545D03*
Y03325D03*
X079Y0455D03*
X076Y02981D03*
X07597Y03125D03*
G54D110*
X058Y0504D03*
Y0497D03*
X06003Y0504D03*
X08125Y0307D03*
X07838Y0315D03*
X07875Y03275D03*
X06065Y04997D03*
X06142Y05D03*
X0674Y04852D03*
X06815D03*
X06868Y0515D03*
X06793D03*
X06718D03*
X0667Y05325D03*
X06845Y0532D03*
X0743Y0162D03*
X0737Y0167D03*
X07585Y0162D03*
X0764Y0167D03*
X07625Y01775D03*
X0754D03*
X07585D03*
X07785Y01825D03*
X07655Y01735D03*
X07785Y019D03*
X08165Y0258D03*
X0776Y02145D03*
X07825Y02155D03*
X0826Y018D03*
Y02085D03*
X09145Y0237D03*
Y0243D03*
X0899D03*
X09145Y02315D03*
X0905Y02375D03*
X0862Y028D03*
X08625Y02725D03*
X0744Y02972D03*
X08015Y02095D03*
X0806Y0216D03*
X07665Y0309D03*
X07865Y04915D03*
X0794D03*
X0803Y0492D03*
X08005Y04955D03*
X0842Y04895D03*
X08515D03*
X08665Y05005D03*
X08515Y05055D03*
X0865Y0485D03*
X08185Y03095D03*
X08135Y0315D03*
X08465Y028D03*
X08425D03*
X0205Y0665D03*
X01975Y06575D03*
Y06725D03*
X09375Y05475D03*
G54D111*
X07125Y0275D03*
M02*