%FSTAX23Y23*%
%MOIN*%
%SFA1B1*%

%IPPOS*%
%AMD122*
4,1,8,0.009900,-0.012800,0.009900,0.012800,0.004900,0.017700,-0.004900,0.017700,-0.009900,0.012800,-0.009900,-0.012800,-0.004900,-0.017700,0.004900,-0.017700,0.009900,-0.012800,0.0*
1,1,0.009880,0.004900,-0.012800*
1,1,0.009880,0.004900,0.012800*
1,1,0.009880,-0.004900,0.012800*
1,1,0.009880,-0.004900,-0.012800*
%
%AMD123*
4,1,8,-0.012800,-0.009900,0.012800,-0.009900,0.017700,-0.004900,0.017700,0.004900,0.012800,0.009900,-0.012800,0.009900,-0.017700,0.004900,-0.017700,-0.004900,-0.012800,-0.009900,0.0*
1,1,0.009880,-0.012800,-0.004900*
1,1,0.009880,0.012800,-0.004900*
1,1,0.009880,0.012800,0.004900*
1,1,0.009880,-0.012800,0.004900*
%
%AMD125*
4,1,8,0.036400,-0.016700,0.036400,0.016700,0.019700,0.033500,-0.019700,0.033500,-0.036400,0.016700,-0.036400,-0.016700,-0.019700,-0.033500,0.019700,-0.033500,0.036400,-0.016700,0.0*
1,1,0.033500,0.019700,-0.016700*
1,1,0.033500,0.019700,0.016700*
1,1,0.033500,-0.019700,0.016700*
1,1,0.033500,-0.019700,-0.016700*
%
%AMD132*
4,1,4,-0.002800,-0.025000,0.025000,0.002800,0.002800,0.025000,-0.025000,-0.002800,-0.002800,-0.025000,0.0*
%
%AMD138*
4,1,8,-0.018700,-0.041400,0.018700,-0.041400,0.037400,-0.022600,0.037400,0.022600,0.018700,0.041400,-0.018700,0.041400,-0.037400,0.022600,-0.037400,-0.022600,-0.018700,-0.041400,0.0*
1,1,0.037440,-0.018700,-0.022600*
1,1,0.037440,0.018700,-0.022600*
1,1,0.037440,0.018700,0.022600*
1,1,0.037440,-0.018700,0.022600*
%
%AMD139*
4,1,4,0.001400,0.026400,-0.026400,-0.001400,-0.001400,-0.026400,0.026400,0.001400,0.001400,0.026400,0.0*
%
%AMD140*
4,1,4,0.025000,-0.002800,-0.002800,0.025000,-0.025000,0.002800,0.002800,-0.025000,0.025000,-0.002800,0.0*
%
%AMD141*
4,1,8,0.015300,-0.030600,0.030600,-0.015300,0.030700,0.000000,0.000000,0.030700,-0.015300,0.030600,-0.030600,0.015300,-0.030700,0.000000,0.000000,-0.030700,0.015300,-0.030600,0.0*
1,1,0.021680,0.007700,-0.023000*
1,1,0.021680,0.023000,-0.007700*
1,1,0.021680,-0.007700,0.023000*
1,1,0.021680,-0.023000,0.007700*
%
%AMD142*
4,1,4,0.007700,-0.038300,0.038300,-0.007700,-0.007700,0.038300,-0.038300,0.007700,0.007700,-0.038300,0.0*
%
%AMD143*
4,1,4,0.026400,-0.001400,-0.001400,0.026400,-0.026400,0.001400,0.001400,-0.026400,0.026400,-0.001400,0.0*
%
%AMD144*
4,1,8,-0.030600,-0.015300,-0.015300,-0.030600,0.000000,-0.030700,0.030700,0.000000,0.030600,0.015300,0.015300,0.030600,0.000000,0.030700,-0.030700,0.000000,-0.030600,-0.015300,0.0*
1,1,0.021680,-0.023000,-0.007700*
1,1,0.021680,-0.007700,-0.023000*
1,1,0.021680,0.023000,0.007700*
1,1,0.021680,0.007700,0.023000*
%
%AMD145*
4,1,4,-0.038300,-0.007700,-0.007700,-0.038300,0.038300,0.007700,0.007700,0.038300,-0.038300,-0.007700,0.0*
%
%AMD147*
4,1,8,-0.041400,0.018700,-0.041400,-0.018700,-0.022600,-0.037400,0.022600,-0.037400,0.041400,-0.018700,0.041400,0.018700,0.022600,0.037400,-0.022600,0.037400,-0.041400,0.018700,0.0*
1,1,0.037440,-0.022600,0.018700*
1,1,0.037440,-0.022600,-0.018700*
1,1,0.037440,0.022600,-0.018700*
1,1,0.037440,0.022600,0.018700*
%
%AMD160*
4,1,8,0.007900,0.027600,-0.007900,0.027600,-0.015800,0.019700,-0.015800,-0.019700,-0.007900,-0.027600,0.007900,-0.027600,0.015800,-0.019700,0.015800,0.019700,0.007900,0.027600,0.0*
1,1,0.015780,0.007900,0.019700*
1,1,0.015780,-0.007900,0.019700*
1,1,0.015780,-0.007900,-0.019700*
1,1,0.015780,0.007900,-0.019700*
%
%AMD163*
4,1,8,-0.007900,-0.037400,0.007900,-0.037400,0.015800,-0.029500,0.015800,0.029500,0.007900,0.037400,-0.007900,0.037400,-0.015800,0.029500,-0.015800,-0.029500,-0.007900,-0.037400,0.0*
1,1,0.015780,-0.007900,-0.029500*
1,1,0.015780,0.007900,-0.029500*
1,1,0.015780,0.007900,0.029500*
1,1,0.015780,-0.007900,0.029500*
%
%AMD168*
4,1,8,0.007900,0.026600,-0.007900,0.026600,-0.015800,0.018700,-0.015800,-0.018700,-0.007900,-0.026600,0.007900,-0.026600,0.015800,-0.018700,0.015800,0.018700,0.007900,0.026600,0.0*
1,1,0.015780,0.007900,0.018700*
1,1,0.015780,-0.007900,0.018700*
1,1,0.015780,-0.007900,-0.018700*
1,1,0.015780,0.007900,-0.018700*
%
%AMD170*
4,1,8,-0.038400,0.010800,-0.038400,-0.010800,-0.027600,-0.021700,0.027600,-0.021700,0.038400,-0.010800,0.038400,0.010800,0.027600,0.021700,-0.027600,0.021700,-0.038400,0.010800,0.0*
1,1,0.021680,-0.027600,0.010800*
1,1,0.021680,-0.027600,-0.010800*
1,1,0.021680,0.027600,-0.010800*
1,1,0.021680,0.027600,0.010800*
%
%ADD115C,0.023620*%
%ADD120R,0.110000X0.048000*%
%ADD121R,0.048000X0.110000*%
G04~CAMADD=122~8~0.0~0.0~355.0~197.5~49.4~0.0~15~0.0~0.0~0.0~0.0~0~0.0~0.0~0.0~0.0~0~0.0~0.0~0.0~270.0~198.0~355.0*
%ADD122D122*%
G04~CAMADD=123~8~0.0~0.0~355.0~197.5~49.4~0.0~15~0.0~0.0~0.0~0.0~0~0.0~0.0~0.0~0.0~0~0.0~0.0~0.0~180.0~355.0~197.0*
%ADD123D123*%
%ADD124O,0.082740X0.023690*%
G04~CAMADD=125~8~0.0~0.0~669.9~729.0~167.5~0.0~15~0.0~0.0~0.0~0.0~0~0.0~0.0~0.0~0.0~0~0.0~0.0~0.0~270.0~729.0~669.0*
%ADD125D125*%
%ADD126R,0.072900X0.066990*%
%ADD127R,0.039430X0.031560*%
%ADD128R,0.035500X0.039430*%
%ADD129R,0.039430X0.035500*%
%ADD130R,0.059120X0.047310*%
%ADD131R,0.031560X0.039430*%
G04~CAMADD=132~9~0.0~0.0~394.3~315.6~0.0~0.0~0~0.0~0.0~0.0~0.0~0~0.0~0.0~0.0~0.0~0~0.0~0.0~0.0~225.0~500.0~499.0*
%ADD132D132*%
%ADD133O,0.013840X0.035500*%
%ADD134O,0.035500X0.013840*%
%ADD135R,0.074870X0.074870*%
%ADD136R,0.047310X0.070930*%
%ADD137R,0.074870X0.082740*%
G04~CAMADD=138~8~0.0~0.0~748.7~827.4~187.2~0.0~15~0.0~0.0~0.0~0.0~0~0.0~0.0~0.0~0.0~0~0.0~0.0~0.0~180.0~750.0~828.0*
%ADD138D138*%
G04~CAMADD=139~9~0.0~0.0~394.3~355.0~0.0~0.0~0~0.0~0.0~0.0~0.0~0~0.0~0.0~0.0~0.0~0~0.0~0.0~0.0~45.0~528.0~527.0*
%ADD139D139*%
G04~CAMADD=140~9~0.0~0.0~394.3~315.6~0.0~0.0~0~0.0~0.0~0.0~0.0~0~0.0~0.0~0.0~0.0~0~0.0~0.0~0.0~315.0~500.0~499.0*
%ADD140D140*%
G04~CAMADD=141~8~0.0~0.0~433.7~650.2~108.4~0.0~15~0.0~0.0~0.0~0.0~0~0.0~0.0~0.0~0.0~0~0.0~0.0~0.0~225.0~676.0~675.0*
%ADD141D141*%
G04~CAMADD=142~9~0.0~0.0~433.7~650.2~0.0~0.0~0~0.0~0.0~0.0~0.0~0~0.0~0.0~0.0~0.0~0~0.0~0.0~0.0~225.0~766.0~765.0*
%ADD142D142*%
G04~CAMADD=143~9~0.0~0.0~394.3~355.0~0.0~0.0~0~0.0~0.0~0.0~0.0~0~0.0~0.0~0.0~0.0~0~0.0~0.0~0.0~315.0~528.0~527.0*
%ADD143D143*%
G04~CAMADD=144~8~0.0~0.0~433.7~650.2~108.4~0.0~15~0.0~0.0~0.0~0.0~0~0.0~0.0~0.0~0.0~0~0.0~0.0~0.0~135.0~676.0~675.0*
%ADD144D144*%
G04~CAMADD=145~9~0.0~0.0~433.7~650.2~0.0~0.0~0~0.0~0.0~0.0~0.0~0~0.0~0.0~0.0~0.0~0~0.0~0.0~0.0~135.0~766.0~765.0*
%ADD145D145*%
%ADD146O,0.074870X0.013840*%
G04~CAMADD=147~8~0.0~0.0~748.7~827.4~187.2~0.0~15~0.0~0.0~0.0~0.0~0~0.0~0.0~0.0~0.0~0~0.0~0.0~0.0~90.0~828.0~749.0*
%ADD147D147*%
%ADD148R,0.082740X0.074870*%
%ADD149R,0.047310X0.059120*%
%ADD150O,0.098490X0.021720*%
%ADD151O,0.082740X0.017780*%
%ADD152R,0.070930X0.047310*%
%ADD153R,0.082740X0.240220*%
%ADD154R,0.026000X0.028000*%
%ADD155R,0.098000X0.126000*%
%ADD156R,0.082000X0.022140*%
%ADD157R,0.028000X0.026000*%
%ADD158R,0.075000X0.048000*%
%ADD159R,0.240220X0.082740*%
G04~CAMADD=160~8~0.0~0.0~315.6~551.8~78.9~0.0~15~0.0~0.0~0.0~0.0~0~0.0~0.0~0.0~0.0~0~0.0~0.0~0.0~0.0~315.6~551.8*
%ADD160D160*%
%ADD161R,0.031560X0.055180*%
%ADD162R,0.031560X0.074870*%
G04~CAMADD=163~8~0.0~0.0~315.6~748.7~78.9~0.0~15~0.0~0.0~0.0~0.0~0~0.0~0.0~0.0~0.0~0~0.0~0.0~0.0~180.0~316.0~749.0*
%ADD163D163*%
%ADD164R,0.048000X0.075000*%
%ADD165R,0.126000X0.098000*%
%ADD166R,0.022140X0.082000*%
%ADD167R,0.299280X0.299280*%
G04~CAMADD=168~8~0.0~0.0~315.6~532.1~78.9~0.0~15~0.0~0.0~0.0~0.0~0~0.0~0.0~0.0~0.0~0~0.0~0.0~0.0~0.0~315.6~532.1*
%ADD168D168*%
%ADD169R,0.031560X0.053210*%
G04~CAMADD=170~8~0.0~0.0~433.7~768.4~108.4~0.0~15~0.0~0.0~0.0~0.0~0~0.0~0.0~0.0~0.0~0~0.0~0.0~0.0~90.0~768.0~434.0*
%ADD170D170*%
%ADD171R,0.076840X0.043370*%
%ADD172R,0.076840X0.141790*%
%ADD173C,0.072000*%
%ADD174C,0.098490*%
%ADD175R,0.063060X0.063060*%
%ADD176C,0.063060*%
%ADD177C,0.074870*%
%ADD178C,0.204000*%
%ADD179C,0.051240*%
%ADD180C,0.064000*%
%ADD181C,0.098000*%
%ADD182R,0.063060X0.063060*%
%ADD183C,0.240220*%
%ADD184C,0.200850*%
%ADD185C,0.024000*%
%ADD186C,0.026000*%
%ADD187C,0.032000*%
%ADD188C,0.054000*%
%LNdsau-motherboard-reva-1*%
%LPD*%
G54D115*
X0876Y07335D02*
D01*
X0876Y07334*
X0876Y07334*
X0876Y07333*
X0876Y07333*
X0876Y07332*
X08761Y07332*
X08761Y07331*
X08761Y07331*
X08761Y0733*
X08762Y0733*
X08762Y07329*
X08763Y07329*
X08763Y07329*
X08763Y07328*
X08764Y07328*
X08764Y07328*
X08765Y07328*
X08765Y07327*
X08766Y07327*
X08766Y07327*
X08767Y07327*
X08768Y07327*
X08768*
X08769Y07327*
X08769Y07327*
X0877Y07327*
X0877Y07327*
X08771Y07328*
X08771Y07328*
X08772Y07328*
X08772Y07328*
X08773Y07329*
X08773Y07329*
X08773Y07329*
X08774Y0733*
X08774Y0733*
X08774Y07331*
X08775Y07331*
X08775Y07332*
X08775Y07332*
X08775Y07333*
X08775Y07333*
X08776Y07334*
X08776Y07334*
X08776Y07335*
X08791Y07307D02*
D01*
X08791Y07307*
X0879Y07307*
X0879Y07307*
X08789Y07307*
X08789Y07307*
X08788Y07307*
X08788Y07306*
X08787Y07306*
X08787Y07306*
X08786Y07306*
X08786Y07305*
X08786Y07305*
X08785Y07304*
X08785Y07304*
X08785Y07303*
X08784Y07303*
X08784Y07302*
X08784Y07302*
X08784Y07301*
X08784Y07301*
X08784Y073*
X08784Y073*
Y07299*
X08784Y07299*
X08784Y07298*
X08784Y07298*
X08784Y07297*
X08784Y07297*
X08784Y07296*
X08785Y07296*
X08785Y07295*
X08785Y07295*
X08786Y07294*
X08786Y07294*
X08786Y07293*
X08787Y07293*
X08787Y07293*
X08788Y07293*
X08788Y07292*
X08789Y07292*
X08789Y07292*
X0879Y07292*
X0879Y07292*
X08791Y07292*
X08791Y07292*
X08776Y07264D02*
D01*
X08776Y07265*
X08776Y07265*
X08776Y07266*
X08775Y07266*
X08775Y07267*
X08775Y07267*
X08775Y07268*
X08774Y07268*
X08774Y07269*
X08774Y07269*
X08773Y0727*
X08773Y0727*
X08773Y0727*
X08772Y07271*
X08772Y07271*
X08771Y07271*
X08771Y07271*
X0877Y07272*
X0877Y07272*
X08769Y07272*
X08769Y07272*
X08768Y07272*
X08768*
X08767Y07272*
X08766Y07272*
X08766Y07272*
X08765Y07272*
X08765Y07271*
X08764Y07271*
X08764Y07271*
X08763Y07271*
X08763Y0727*
X08763Y0727*
X08762Y0727*
X08762Y07269*
X08761Y07269*
X08761Y07268*
X08761Y07268*
X08761Y07267*
X0876Y07267*
X0876Y07266*
X0876Y07266*
X0876Y07265*
X0876Y07265*
X0876Y07264*
X08673Y07335D02*
D01*
X08673Y07334*
X08673Y07334*
X08673Y07333*
X08674Y07333*
X08674Y07332*
X08674Y07332*
X08674Y07331*
X08675Y07331*
X08675Y0733*
X08675Y0733*
X08676Y07329*
X08676Y07329*
X08676Y07329*
X08677Y07328*
X08677Y07328*
X08678Y07328*
X08678Y07328*
X08679Y07327*
X08679Y07327*
X0868Y07327*
X0868Y07327*
X08681Y07327*
X08681*
X08682Y07327*
X08683Y07327*
X08683Y07327*
X08684Y07327*
X08684Y07328*
X08685Y07328*
X08685Y07328*
X08686Y07328*
X08686Y07329*
X08686Y07329*
X08687Y07329*
X08687Y0733*
X08688Y0733*
X08688Y07331*
X08688Y07331*
X08688Y07332*
X08689Y07332*
X08689Y07333*
X08689Y07333*
X08689Y07334*
X08689Y07334*
X08689Y07335*
X08658Y07292D02*
D01*
X08658Y07292*
X08659Y07292*
X08659Y07292*
X0866Y07292*
X0866Y07292*
X08661Y07292*
X08661Y07293*
X08662Y07293*
X08662Y07293*
X08663Y07293*
X08663Y07294*
X08663Y07294*
X08664Y07295*
X08664Y07295*
X08664Y07296*
X08665Y07296*
X08665Y07297*
X08665Y07297*
X08665Y07298*
X08665Y07298*
X08665Y07299*
X08665Y07299*
Y073*
X08665Y073*
X08665Y07301*
X08665Y07301*
X08665Y07302*
X08665Y07302*
X08665Y07303*
X08664Y07303*
X08664Y07304*
X08664Y07304*
X08663Y07305*
X08663Y07305*
X08663Y07306*
X08662Y07306*
X08662Y07306*
X08661Y07306*
X08661Y07307*
X0866Y07307*
X0866Y07307*
X08659Y07307*
X08659Y07307*
X08658Y07307*
X08658Y07307*
X08689Y07264D02*
D01*
X08689Y07265*
X08689Y07265*
X08689Y07266*
X08689Y07266*
X08689Y07267*
X08688Y07267*
X08688Y07268*
X08688Y07268*
X08688Y07269*
X08687Y07269*
X08687Y0727*
X08686Y0727*
X08686Y0727*
X08686Y07271*
X08685Y07271*
X08685Y07271*
X08684Y07271*
X08684Y07272*
X08683Y07272*
X08683Y07272*
X08682Y07272*
X08681Y07272*
X08681*
X0868Y07272*
X0868Y07272*
X08679Y07272*
X08679Y07272*
X08678Y07271*
X08678Y07271*
X08677Y07271*
X08677Y07271*
X08676Y0727*
X08676Y0727*
X08676Y0727*
X08675Y07269*
X08675Y07269*
X08675Y07268*
X08674Y07268*
X08674Y07267*
X08674Y07267*
X08674Y07266*
X08674Y07266*
X08673Y07265*
X08673Y07265*
X08673Y07264*
G54D120*
X02175Y06266D03*
Y06384D03*
G54D121*
X09916Y04125D03*
X10034D03*
G54D122*
X08795Y073D03*
X08654D03*
G54D123*
X08768Y07258D03*
X08681D03*
X08768Y07341D03*
X08681D03*
G54D124*
X08287Y0615D03*
Y06118D03*
Y06087D03*
Y06055D03*
Y06024D03*
Y05992D03*
Y05961D03*
Y05929D03*
Y05898D03*
Y05866D03*
Y05835D03*
Y05803D03*
Y05772D03*
Y0574D03*
Y05709D03*
Y05677D03*
Y05646D03*
Y05614D03*
Y05583D03*
Y05551D03*
Y0552D03*
Y05488D03*
Y05457D03*
Y05425D03*
Y05394D03*
Y05362D03*
Y05331D03*
Y05299D03*
Y05268D03*
Y05236D03*
Y05205D03*
Y05173D03*
Y05142D03*
Y0511D03*
Y05079D03*
Y05047D03*
Y05016D03*
Y04984D03*
Y04953D03*
Y04921D03*
Y0489D03*
Y04858D03*
Y04827D03*
Y04795D03*
Y04764D03*
Y04732D03*
Y04701D03*
Y04669D03*
Y04638D03*
Y04606D03*
X08113Y0615D03*
Y06118D03*
Y06087D03*
Y06055D03*
Y06024D03*
Y05992D03*
Y05961D03*
Y05929D03*
Y05898D03*
Y05866D03*
Y05835D03*
Y05803D03*
Y05772D03*
Y0574D03*
Y05709D03*
Y05677D03*
Y05646D03*
Y05614D03*
Y05583D03*
Y05551D03*
Y0552D03*
Y05488D03*
Y05457D03*
Y05425D03*
Y05394D03*
Y05362D03*
Y05331D03*
Y05299D03*
Y05268D03*
Y05236D03*
Y05205D03*
Y05173D03*
Y05142D03*
Y0511D03*
Y05079D03*
Y05047D03*
Y05016D03*
Y04984D03*
Y04953D03*
Y04921D03*
Y0489D03*
Y04858D03*
Y04827D03*
Y04795D03*
Y04764D03*
Y04732D03*
Y04701D03*
Y04669D03*
Y04638D03*
Y04606D03*
X06536Y0615D03*
Y06118D03*
Y06087D03*
Y06055D03*
Y06024D03*
Y05992D03*
Y05961D03*
Y05929D03*
Y05898D03*
Y05866D03*
Y05835D03*
Y05803D03*
Y05772D03*
Y0574D03*
Y05709D03*
Y05677D03*
Y05646D03*
Y05614D03*
Y05583D03*
Y05551D03*
Y0552D03*
Y05488D03*
Y05457D03*
Y05425D03*
Y05394D03*
Y05362D03*
Y05331D03*
Y05299D03*
Y05268D03*
Y05236D03*
Y05205D03*
Y05173D03*
Y05142D03*
Y0511D03*
Y05079D03*
Y05047D03*
Y05016D03*
Y04984D03*
Y04953D03*
Y04921D03*
Y0489D03*
Y04858D03*
Y04827D03*
Y04795D03*
Y04764D03*
Y04732D03*
Y04701D03*
Y04669D03*
Y04638D03*
Y04606D03*
X06363Y0615D03*
Y06118D03*
Y06087D03*
Y06055D03*
Y06024D03*
Y05992D03*
Y05961D03*
Y05929D03*
Y05898D03*
Y05866D03*
Y05835D03*
Y05803D03*
Y05772D03*
Y0574D03*
Y05709D03*
Y05677D03*
Y05646D03*
Y05614D03*
Y05583D03*
Y05551D03*
Y0552D03*
Y05488D03*
Y05457D03*
Y05425D03*
Y05394D03*
Y05362D03*
Y05331D03*
Y05299D03*
Y05268D03*
Y05236D03*
Y05205D03*
Y05173D03*
Y05142D03*
Y0511D03*
Y05079D03*
Y05047D03*
Y05016D03*
Y04984D03*
Y04953D03*
Y04921D03*
Y0489D03*
Y04858D03*
Y04827D03*
Y04795D03*
Y04764D03*
Y04732D03*
Y04701D03*
Y04669D03*
Y04638D03*
Y04606D03*
G54D125*
X01973Y0665D03*
G54D126*
X01826Y0665D03*
X03178Y07315D03*
X03031D03*
X03453D03*
X03306D03*
X03728D03*
X03581D03*
X04003D03*
X03856D03*
X02251Y07325D03*
X02398D03*
X02751D03*
X02898D03*
X02501D03*
X02648D03*
G54D127*
X0826Y0197D03*
Y02029D03*
X08335Y01904D03*
Y01845D03*
X04025Y06779D03*
Y0672D03*
X0395D03*
Y06779D03*
X0826Y01845D03*
Y01904D03*
Y0212D03*
Y02179D03*
G54D128*
X07737Y019D03*
X07682D03*
X07737Y01825D03*
X07682D03*
X02372Y05375D03*
X02427D03*
X02577Y05475D03*
X02522D03*
X03077Y04775D03*
X03022D03*
X04622Y06825D03*
X04677D03*
X09297Y0569D03*
X09352D03*
Y05375D03*
X09297D03*
G54D129*
X07585Y01672D03*
Y01727D03*
X0794Y02522D03*
Y02577D03*
X0788Y02522D03*
Y02577D03*
X0841Y01902D03*
Y01847D03*
X032Y04852D03*
Y04797D03*
X041Y06522D03*
Y06577D03*
X042D03*
Y06522D03*
X0776Y02102D03*
Y02047D03*
X0806Y02102D03*
Y02047D03*
X0905Y02272D03*
Y02327D03*
G54D130*
X0743Y01729D03*
Y0167D03*
X033Y05454D03*
Y05395D03*
G54D131*
X07939Y0245D03*
X0788D03*
X07914Y01925D03*
X07855D03*
X06104Y05525D03*
X06045D03*
X0272Y0555D03*
X02779D03*
X0302D03*
X03079D03*
X02854Y05325D03*
X02795D03*
X04704Y06525D03*
X04645D03*
X04579D03*
X0452D03*
X0462Y06925D03*
X04679D03*
X08895Y07175D03*
X08954D03*
X08895Y0725D03*
X08954D03*
X08895Y07325D03*
X08954D03*
X087Y06895D03*
X08759D03*
X08525D03*
X08584D03*
X08929Y069D03*
X0887D03*
X02345Y072D03*
X02404D03*
X02495D03*
X02554D03*
X02745D03*
X02804D03*
X02995Y069D03*
X03054D03*
X0327D03*
X03329D03*
X03545D03*
X03604D03*
X0382D03*
X03879D03*
X03929Y07225D03*
X0387D03*
X03654D03*
X03595D03*
X03379D03*
X0332D03*
X03104D03*
X03045D03*
X04529Y06925D03*
X0447D03*
X07745Y013D03*
X07804D03*
X09445Y0705D03*
X09504D03*
G54D132*
X07632Y02612D03*
X07591Y02653D03*
X07738Y02506D03*
X07697Y02547D03*
G54D133*
X0788Y02013D03*
X079D03*
X07919D03*
X07939D03*
Y02136D03*
X07919D03*
X079D03*
X0788D03*
X07732Y02732D03*
X07752D03*
X07771D03*
X07791D03*
X07811D03*
X0783D03*
X0785D03*
X0787D03*
X07889D03*
X07909D03*
X07929D03*
X07948D03*
X07968D03*
X07988D03*
X08007D03*
X08027D03*
Y03087D03*
X08007D03*
X07988D03*
X07968D03*
X07948D03*
X07929D03*
X07909D03*
X07889D03*
X0787D03*
X0785D03*
X0783D03*
X07811D03*
X07791D03*
X07771D03*
X07752D03*
X07732D03*
G54D134*
X07971Y02045D03*
Y02065D03*
Y02084D03*
Y02104D03*
X07848D03*
Y02084D03*
Y02065D03*
Y02045D03*
X07702Y03057D03*
Y03037D03*
Y03018D03*
Y02998D03*
Y02978D03*
Y02959D03*
Y02939D03*
Y02919D03*
Y029D03*
Y0288D03*
Y0286D03*
Y02841D03*
Y02821D03*
Y02801D03*
Y02782D03*
Y02762D03*
X08057D03*
Y02782D03*
Y02801D03*
Y02821D03*
Y02841D03*
Y0286D03*
Y0288D03*
Y029D03*
Y02919D03*
Y02939D03*
Y02959D03*
Y02978D03*
Y02998D03*
Y03018D03*
Y03037D03*
Y03057D03*
G54D135*
X0791Y02075D03*
G54D136*
X07981Y01875D03*
X08088D03*
G54D137*
X07735Y01732D03*
X07835D03*
X07935D03*
Y01567D03*
X07835D03*
G54D138*
X07735Y01567D03*
G54D139*
X082Y02546D03*
X08239Y02507D03*
X09017Y01814D03*
X08978Y01853D03*
X08984Y01686D03*
X08945Y01725D03*
G54D140*
X08134Y02547D03*
X08093Y02506D03*
X0824Y02653D03*
X08199Y02612D03*
G54D141*
X08796Y01869D03*
G54D142*
X08838Y01911D03*
X0888Y01953D03*
X08753Y0208D03*
X08669Y01996D03*
G54D143*
X07631Y02546D03*
X07592Y02507D03*
X0688Y01715D03*
X06919Y01754D03*
X06799Y01793D03*
X06838Y01832D03*
G54D144*
X06919Y01913D03*
G54D145*
X06961Y01871D03*
X07003Y01829D03*
X0713Y01956D03*
X07046Y0204D03*
G54D146*
X0512Y05713D03*
Y05688D03*
Y05662D03*
Y05637D03*
Y05612D03*
Y05587D03*
Y05562D03*
Y05537D03*
Y05511D03*
Y05486D03*
X05329Y05713D03*
Y05688D03*
Y05662D03*
Y05637D03*
Y05612D03*
Y05587D03*
Y05562D03*
Y05537D03*
Y05511D03*
Y05486D03*
X04495Y05713D03*
Y05688D03*
Y05662D03*
Y05637D03*
Y05612D03*
Y05587D03*
Y05562D03*
Y05537D03*
Y05511D03*
Y05486D03*
X04704Y05713D03*
Y05688D03*
Y05662D03*
Y05637D03*
Y05612D03*
Y05587D03*
Y05562D03*
Y05537D03*
Y05511D03*
Y05486D03*
X0387Y05713D03*
Y05688D03*
Y05662D03*
Y05637D03*
Y05612D03*
Y05587D03*
Y05562D03*
Y05537D03*
Y05511D03*
Y05486D03*
X04079Y05713D03*
Y05688D03*
Y05662D03*
Y05637D03*
Y05612D03*
Y05587D03*
Y05562D03*
Y05537D03*
Y05511D03*
Y05486D03*
G54D147*
X02363Y05225D03*
G54D148*
X02536Y05025D03*
Y05225D03*
X02363Y05025D03*
G54D149*
X0252Y05375D03*
X02579D03*
X0302Y04875D03*
X03079D03*
G54D150*
X02762Y05063D03*
Y05037D03*
Y05012D03*
Y04986D03*
X03037Y05063D03*
Y05037D03*
Y05012D03*
Y04986D03*
G54D151*
X02728Y04698D03*
Y04723D03*
Y04749D03*
Y04775D03*
Y048D03*
Y04826D03*
Y04851D03*
X025Y04698D03*
Y04723D03*
Y04749D03*
Y04775D03*
Y048D03*
Y04826D03*
Y04851D03*
G54D152*
X032Y05028D03*
Y04921D03*
X09066Y02429D03*
Y02536D03*
G54D153*
X02265Y06075D03*
X02434D03*
G54D154*
X02108Y06175D03*
X02141D03*
X09736Y04625D03*
X09703D03*
X09686Y04575D03*
X09653D03*
X09831Y04665D03*
X09798D03*
X09931D03*
X09898D03*
X09838Y04714D03*
X09871D03*
G54D155*
X01925Y0615D03*
G54D156*
X02022Y06225D03*
Y06175D03*
Y06125D03*
Y06075D03*
X01828D03*
Y06125D03*
Y06175D03*
Y06225D03*
G54D157*
X01575Y06281D03*
Y06248D03*
Y06181D03*
Y06148D03*
X0165Y06116D03*
Y06083D03*
X017Y06066D03*
Y06033D03*
X015Y06266D03*
Y06233D03*
X0982Y04176D03*
Y04143D03*
G54D158*
X0245Y05716D03*
Y05834D03*
G54D159*
X09745Y04035D03*
Y03865D03*
G54D160*
X04187Y06772D03*
X04612Y06627D03*
G54D161*
X0415Y06772D03*
X04112D03*
Y06677D03*
X04187D03*
X0465Y06627D03*
X04687D03*
Y06722D03*
X04612D03*
G54D162*
X02525Y07017D03*
X02562Y06932D03*
X02775Y07017D03*
X02812Y06932D03*
X08925Y07092D03*
X08962Y07007D03*
X08575Y07092D03*
X08612Y07007D03*
X0875Y07092D03*
X08787Y07007D03*
X0385Y07117D03*
X03887Y07032D03*
X03575Y07117D03*
X03612Y07032D03*
X033Y07117D03*
X03337Y07032D03*
X03025Y07117D03*
X03062Y07032D03*
G54D163*
X02487Y06932D03*
X02737D03*
X08887Y07007D03*
X08537D03*
X08712D03*
X03812Y07032D03*
X03537D03*
X03262D03*
X02987D03*
G54D164*
X09386Y0385D03*
X09504D03*
G54D165*
X09795Y04375D03*
G54D166*
X0987Y04278D03*
X0982D03*
X0977D03*
X0972D03*
Y04472D03*
X0977D03*
X0982D03*
X0987D03*
G54D167*
X0788Y0291D03*
G54D168*
X09337Y05572D03*
G54D169*
X093Y05572D03*
X09262D03*
Y05477D03*
X093D03*
X09337D03*
G54D170*
X09225Y02488D03*
G54D171*
X09225Y02429D03*
Y0237D03*
Y02311D03*
G54D172*
X09474Y024D03*
G54D173*
X0675Y012D03*
X0826Y01575D03*
X0905Y012D03*
X0355Y05D03*
X02125Y04375D03*
X02875D03*
X03625D03*
X04375D03*
X05125D03*
X05875D03*
G54D174*
X0665Y011D03*
X0685Y013D03*
Y011D03*
X0665Y013D03*
X0836Y01475D03*
X0816Y01675D03*
Y01475D03*
X0836Y01675D03*
X0895Y013D03*
X0915Y011D03*
Y013D03*
X0895Y011D03*
X0365Y049D03*
X0345Y051D03*
Y049D03*
X0365Y051D03*
X02225Y04275D03*
X02025Y04475D03*
Y04275D03*
X02225Y04475D03*
X02975Y04275D03*
X02775Y04475D03*
Y04275D03*
X02975Y04475D03*
X03725Y04275D03*
X03525Y04475D03*
Y04275D03*
X03725Y04475D03*
X04475Y04275D03*
X04275Y04475D03*
Y04275D03*
X04475Y04475D03*
X05225Y04275D03*
X05025Y04475D03*
Y04275D03*
X05225Y04475D03*
X05975Y04275D03*
X05775Y04475D03*
Y04275D03*
X05975Y04475D03*
G54D175*
X0588Y0282D03*
X0513D03*
X0438D03*
X0363D03*
X0288D03*
X0213D03*
X0816Y02175D03*
X09725Y0625D03*
X04825Y06925D03*
X09175Y06175D03*
Y06375D03*
Y06275D03*
X05815Y06765D03*
X0575Y055D03*
G54D176*
X0578Y0282D03*
X0588Y0292D03*
X0578D03*
X0588Y0302D03*
X0578D03*
X0588Y0312D03*
X0578D03*
X0588Y0322D03*
X0578D03*
X0588Y0332D03*
X0578D03*
X0588Y0342D03*
X0578D03*
X0588Y0352D03*
X0578D03*
X0588Y0362D03*
X0578D03*
X0588Y0372D03*
X0578D03*
X0503Y0282D03*
X0513Y0292D03*
X0503D03*
X0513Y0302D03*
X0503D03*
X0513Y0312D03*
X0503D03*
X0513Y0322D03*
X0503D03*
X0513Y0332D03*
X0503D03*
X0513Y0342D03*
X0503D03*
X0513Y0352D03*
X0503D03*
X0513Y0362D03*
X0503D03*
X0513Y0372D03*
X0503D03*
X0428Y0282D03*
X0438Y0292D03*
X0428D03*
X0438Y0302D03*
X0428D03*
X0438Y0312D03*
X0428D03*
X0438Y0322D03*
X0428D03*
X0438Y0332D03*
X0428D03*
X0438Y0342D03*
X0428D03*
X0438Y0352D03*
X0428D03*
X0438Y0362D03*
X0428D03*
X0438Y0372D03*
X0428D03*
X0353Y0282D03*
X0363Y0292D03*
X0353D03*
X0363Y0302D03*
X0353D03*
X0363Y0312D03*
X0353D03*
X0363Y0322D03*
X0353D03*
X0363Y0332D03*
X0353D03*
X0363Y0342D03*
X0353D03*
X0363Y0352D03*
X0353D03*
X0363Y0362D03*
X0353D03*
X0363Y0372D03*
X0353D03*
X0278Y0282D03*
X0288Y0292D03*
X0278D03*
X0288Y0302D03*
X0278D03*
X0288Y0312D03*
X0278D03*
X0288Y0322D03*
X0278D03*
X0288Y0332D03*
X0278D03*
X0288Y0342D03*
X0278D03*
X0288Y0352D03*
X0278D03*
X0288Y0362D03*
X0278D03*
X0288Y0372D03*
X0278D03*
X0203Y0282D03*
X0213Y0292D03*
X0203D03*
X0213Y0302D03*
X0203D03*
X0213Y0312D03*
X0203D03*
X0213Y0322D03*
X0203D03*
X0213Y0332D03*
X0203D03*
X0213Y0342D03*
X0203D03*
X0213Y0352D03*
X0203D03*
X0213Y0362D03*
X0203D03*
X0213Y0372D03*
X0203D03*
X0816Y02075D03*
Y01975D03*
X07735Y014D03*
X07835D03*
X029Y0545D03*
X03D03*
X029Y05225D03*
X03D03*
X0435Y06925D03*
X04825Y06825D03*
Y06725D03*
X0474Y07325D03*
X0484Y07225D03*
Y07325D03*
X0494Y07225D03*
Y07325D03*
X0504Y07225D03*
Y07325D03*
X0514Y07225D03*
Y07325D03*
X0524Y07225D03*
Y07325D03*
X0534Y07225D03*
Y07325D03*
X0544Y07225D03*
Y07325D03*
X0554Y07225D03*
Y07325D03*
X0564Y07225D03*
Y07325D03*
X0574Y07225D03*
Y07325D03*
X0584Y07225D03*
Y07325D03*
X0594Y07225D03*
Y07325D03*
X08725Y06625D03*
X08825D03*
X08925D03*
X09025D03*
X09125D03*
G54D177*
X09247Y07338D03*
X09502D03*
Y07161D03*
X09247D03*
X04147Y07338D03*
X04402D03*
Y07161D03*
X04147D03*
G54D178*
X083Y03531D03*
X0635D03*
X083Y07231D03*
X0635D03*
G54D179*
X0645Y06248D03*
X082D03*
G54D180*
X0645Y04508D03*
X082D03*
G54D181*
X015Y0675D03*
Y0655D03*
X0275Y06475D03*
X0255D03*
X09775Y0495D03*
X09575D03*
X09525Y01675D03*
X09725D03*
G54D182*
X07635Y014D03*
X0355Y0545D03*
X04625Y06125D03*
X01625Y05375D03*
X048Y011D03*
X098Y033D03*
X017Y011D03*
X065Y02D03*
X028Y0545D03*
Y05225D03*
X0425Y06925D03*
X0474Y07225D03*
X0925Y02D03*
X08625Y06625D03*
G54D183*
X1025Y072D03*
Y012D03*
X012D03*
Y072D03*
G54D184*
X01764Y07D03*
X0195Y07118D03*
Y06881D03*
G54D185*
X0815Y02775D03*
X04875Y02375D03*
X05625D03*
Y02725D03*
X04875Y0265D03*
X06175Y05525D03*
X061Y02375D03*
X0864Y06375D03*
X0849Y0634D03*
X0899Y0627D03*
X0898Y06375D03*
X098Y04714D03*
X015Y06325D03*
X0215Y06225D03*
X02205D03*
X02175D03*
X02294Y06266D03*
X02259D03*
X02071D03*
X02101D03*
X02115Y06225D03*
X0209D03*
X02022Y06292D03*
Y06262D03*
X0165Y0603D03*
X01575Y0634D03*
X09916Y04041D03*
X0987Y0413D03*
X09916Y04204D03*
X0987Y0421D03*
X09913Y04278D03*
X09931Y04633D03*
X0967Y04625D03*
X0972Y04205D03*
X06088Y07063D03*
X06068Y07043D03*
X06049Y07023D03*
X06029Y07004D03*
X06009Y06984D03*
X05989Y06964D03*
X05969Y06944D03*
X0595Y06925D03*
X038Y05713D03*
Y05486D03*
X0415Y05735D03*
X04149Y05688D03*
Y05637D03*
Y05587D03*
X04425Y05713D03*
Y05486D03*
X04775Y05735D03*
X04774Y05688D03*
Y05637D03*
Y05587D03*
X04572Y05772D03*
X04627D03*
X0459Y05595D03*
X0396D03*
X03938Y05773D03*
X03993Y05773D03*
X06672Y05142D03*
X06227D03*
X06227Y05047D03*
X06672D03*
X06675Y04955D03*
X06672Y04827D03*
X06672Y04732D03*
X05263Y05765D03*
X05208Y056D03*
Y05765D03*
X05399Y05587D03*
Y05637D03*
Y05688D03*
X054Y05735D03*
X0505Y05486D03*
Y05713D03*
X05975Y05525D03*
X033Y05535D03*
Y0533D03*
X0593Y05195D03*
Y05345D03*
X0905Y05775D03*
X095Y06D03*
X09375Y0705D03*
X094Y05375D03*
X0925D03*
X08512Y05866D03*
X08465Y059D03*
X08125Y02855D03*
X08145Y02875D03*
X07675Y03175D03*
X0765Y02725D03*
X07225Y02975D03*
X093Y05435D03*
Y05615D03*
X0934D03*
X07475Y0264D03*
X07645Y02695D03*
X07475Y0275D03*
X07625Y02735D03*
X07685Y02715D03*
X07735Y0269D03*
X07825Y02625D03*
X07665Y0258D03*
X0755Y02465D03*
X0788Y0265D03*
X0794Y02685D03*
X0812Y02765D03*
X08145Y02725D03*
X0811Y02705D03*
X0781Y0266D03*
X0812Y02735D03*
X0808Y02725D03*
X0585Y0527D03*
X06636Y05551D03*
Y05646D03*
Y0574D03*
Y05835D03*
Y05929D03*
Y05457D03*
Y05362D03*
X06265Y05455D03*
X06263Y05646D03*
Y05551D03*
Y0574D03*
Y05835D03*
Y05929D03*
Y05992D03*
X06265Y05269D03*
Y05239D03*
X06611Y05268D03*
Y05236D03*
X08387D03*
Y05268D03*
X08013Y05236D03*
Y05268D03*
X026Y072D03*
X02175Y07325D03*
X02875Y072D03*
X032Y07225D03*
X03475D03*
X0375Y072D03*
X04075Y073D03*
X04575Y06925D03*
Y06775D03*
X04475Y06525D03*
X09025Y07175D03*
Y0725D03*
Y07325D03*
X08634Y06895D03*
X08809D03*
X08975Y069D03*
X08525Y0675D03*
X087D03*
X08875D03*
X084Y058D03*
X08Y05775D03*
X082Y05875D03*
X0839Y05695D03*
X079Y0565D03*
X07607Y05817D03*
X07587Y05797D03*
X07647Y05857D03*
X07627Y05837D03*
X06668Y0525D03*
X09105Y05865D03*
X09055Y059D03*
X09402Y0569D03*
X04725Y06825D03*
X04575D03*
X0475Y06525D03*
X0465Y0657D03*
X0415Y06835D03*
X04025Y06685D03*
X0395Y06675D03*
X03925Y069D03*
X03887Y06957D03*
X04255Y06522D03*
X04045D03*
X02375Y0484D03*
X023D03*
X02225Y04844D03*
X02375Y04665D03*
X023D03*
X02225D03*
X02275Y05025D03*
X03125Y05075D03*
Y0495D03*
Y05D03*
X03275Y04925D03*
X03125Y04875D03*
X0325Y0485D03*
Y048D03*
X03125Y04775D03*
X02975D03*
Y04875D03*
X029Y04925D03*
X0275Y05325D03*
X02625Y05225D03*
X0265Y05375D03*
Y05475D03*
X0245D03*
X02475Y05375D03*
X02425Y05425D03*
X02325Y05375D03*
X02825Y0475D03*
Y048D03*
X02425Y04775D03*
Y047D03*
Y0474D03*
X0312Y0555D03*
X02675D03*
X02295Y072D03*
X03125Y069D03*
X034D03*
X037D03*
X03065Y0696D03*
X0334Y06955D03*
X03615D03*
X02565Y0686D03*
X02815Y06865D03*
X02495Y06775D03*
X02735Y0675D03*
X09175Y04225D03*
X03545Y0662D03*
X0327Y06595D03*
X02995Y0665D03*
X03815Y06548D03*
X01825Y06575D03*
Y06725D03*
X05905Y06024D03*
X05625Y06025D03*
X05915Y06845D03*
X0533D03*
X0626Y0473D03*
X02825Y04675D03*
X091Y07275D03*
X08475D03*
X0915Y027D03*
X05675Y06885D03*
X0523D03*
X09375Y0325D03*
X091Y07325D03*
X08425Y07275D03*
X049Y071D03*
Y07D03*
X07025Y02875D03*
X06227Y04827D03*
X0627Y0489D03*
Y0486D03*
Y04985D03*
Y05015D03*
Y04955D03*
Y04925D03*
X06265Y05173D03*
Y0512D03*
Y0509D03*
Y05201D03*
Y05425D03*
Y05395D03*
Y0533D03*
Y053D03*
Y0536D03*
X06675Y0492D03*
X06125Y0415D03*
Y04122D03*
Y04094D03*
Y04066D03*
Y04025D03*
Y03997D03*
Y03969D03*
Y03941D03*
Y039D03*
Y03872D03*
Y03844D03*
Y03816D03*
X03775Y0525D03*
X03825Y05175D03*
X04225Y05D03*
X0425Y05125D03*
X042Y04875D03*
X04175Y048D03*
X04775Y04825D03*
X04825Y04875D03*
X04875Y05125D03*
X0485Y05D03*
X0445Y05175D03*
X044Y0525D03*
X0545Y04875D03*
X055Y05125D03*
X05475Y05D03*
X05075Y05175D03*
X05025Y0525D03*
X05425Y0485D03*
X056Y03675D03*
X041Y0365D03*
X033Y036D03*
X03325Y0365D03*
X03225Y036D03*
X032Y0365D03*
X02475Y03375D03*
X024D03*
X04Y0365D03*
X04725Y03325D03*
X04775Y03225D03*
X0465D03*
Y03325D03*
X05525D03*
X0555Y03225D03*
X0545D03*
Y03325D03*
X079Y0455D03*
X076Y02981D03*
X07597Y03125D03*
X08035Y05045D03*
X08415Y0505D03*
X09247Y0569D03*
G54D186*
X0189Y0634D03*
X01925D03*
X0196D03*
X0189Y06375D03*
X01925D03*
X0196D03*
X0189Y0641D03*
X01925D03*
X0196D03*
X0245Y0593D03*
X0242Y06255D03*
Y0622D03*
X0245Y06255D03*
Y0622D03*
X025Y06165D03*
Y0613D03*
Y0602D03*
X02535Y06165D03*
Y0613D03*
X0253Y0602D03*
X025Y05985D03*
X0253D03*
X02415Y0593D03*
X0245Y05895D03*
X02415D03*
X09565Y03885D03*
Y0385D03*
X096Y03885D03*
X09655Y0377D03*
Y038D03*
X0969Y0377D03*
X098Y03765D03*
X09835D03*
X0969Y038D03*
X098D03*
X09835D03*
X0989Y0385D03*
X09925D03*
X0989Y0388D03*
X09925D03*
X0197Y0598D03*
X019D03*
X01935D03*
X01925Y0615D03*
X0243Y05675D03*
X02465D03*
X025D03*
X02395D03*
X0197Y05945D03*
X01935D03*
X019D03*
X0197Y0591D03*
X01935D03*
X019D03*
X02095Y0598D03*
X0206D03*
X02025D03*
X02095Y05945D03*
X0206D03*
X02025D03*
X02095Y0591D03*
X0206D03*
X02025D03*
X0213Y06435D03*
X0216D03*
X02195D03*
X0223D03*
X1008Y0407D03*
Y04105D03*
Y0414D03*
Y0417D03*
X09555Y04275D03*
Y0424D03*
Y04205D03*
X0959Y04275D03*
Y0424D03*
Y04205D03*
X09625Y04275D03*
Y0424D03*
Y04205D03*
X09555Y044D03*
Y04365D03*
Y0433D03*
X0959Y044D03*
Y04365D03*
Y0433D03*
X09345Y03905D03*
Y038D03*
Y03835D03*
Y0387D03*
X096Y0385D03*
X09795Y04375D03*
X09995Y04405D03*
Y0437D03*
X0996D03*
Y04405D03*
X1003D03*
Y0437D03*
Y04335D03*
X09995D03*
X0996D03*
X09625Y04365D03*
Y044D03*
Y0433D03*
G54D187*
X058Y0504D03*
Y0497D03*
X06003Y0504D03*
X08125Y0307D03*
X07838Y0315D03*
X07875Y03275D03*
X07825Y0326D03*
X06065Y04997D03*
Y04852D03*
X05899Y04855D03*
X06142Y05D03*
X06815Y05002D03*
X0674D03*
Y04852D03*
X06815D03*
X06923Y05252D03*
X06868Y0515D03*
X06793D03*
X06718D03*
X0667Y05325D03*
X06845Y0532D03*
X06715Y0543D03*
X0679D03*
X0806Y02005D03*
X0685Y01685D03*
X07625Y01825D03*
Y019D03*
X0743Y0162D03*
X0737Y0167D03*
X07585Y0162D03*
X0764Y0167D03*
X07625Y01775D03*
X0754D03*
X07585D03*
X07785Y01825D03*
X07655Y01735D03*
X0785Y013D03*
X07785Y019D03*
X09055Y01775D03*
X083Y0245D03*
X08165Y0258D03*
X0776Y02145D03*
Y02005D03*
X07805Y0205D03*
Y021D03*
X0799Y02135D03*
X0786Y0218D03*
X07825Y02155D03*
X07935Y0149D03*
X0814Y01875D03*
X0826Y018D03*
X0841Y01805D03*
X08335Y018D03*
X08325Y0203D03*
X0826Y02085D03*
X09225Y02245D03*
X09145Y0237D03*
Y0243D03*
X0899D03*
X09145Y02315D03*
X0905Y02375D03*
Y02225D03*
X0811Y03115D03*
X083Y02725D03*
X0829Y0277D03*
X0845Y0273D03*
X0862Y028D03*
X08625Y02725D03*
X0744Y02972D03*
X0743Y01775D03*
X08015Y02095D03*
X0806Y0216D03*
X09065Y02605D03*
X07665Y0309D03*
X07985Y05145D03*
X08025D03*
X0802Y05365D03*
X0794Y0537D03*
X07985Y05455D03*
X0797Y05555D03*
X08415Y0555D03*
Y05645D03*
X0797D03*
Y0574D03*
Y05835D03*
X08415D03*
X08414Y0574D03*
X08415Y0593D03*
X0797D03*
X08415Y05455D03*
Y05365D03*
Y05145D03*
X08426Y04953D03*
X08389Y04795D03*
Y04675D03*
X0802Y0467D03*
X08015Y04825D03*
X0794Y0478D03*
X07865D03*
Y04915D03*
X0794D03*
X0803Y0492D03*
X08005Y04955D03*
X0842Y04895D03*
X08515D03*
X0866Y04945D03*
X08665Y05005D03*
X08515Y05055D03*
X0865Y048D03*
X08515Y0474D03*
X0865Y0485D03*
X07865Y0537D03*
X07425Y03022D03*
X08295Y0307D03*
X08185Y03095D03*
X08295Y0315D03*
X08135D03*
X08465Y028D03*
X08425D03*
X0205Y0665D03*
X01975Y06575D03*
Y06725D03*
X0175Y0665D03*
X09375Y05475D03*
X0614Y04852D03*
G54D188*
X09475Y02625D03*
X094D03*
X09625D03*
X09775D03*
X0985Y0255D03*
X09475D03*
X0955Y02475D03*
X097D03*
X0985D03*
Y024D03*
Y02325D03*
Y0225D03*
Y02175D03*
X09775D03*
Y0225D03*
Y024D03*
X097Y02175D03*
X09625D03*
Y0225D03*
Y024D03*
X0955D03*
Y02325D03*
Y0225D03*
Y02175D03*
X09475D03*
Y0225D03*
X094D03*
Y02175D03*
X097Y024D03*
Y0225D03*
X09625Y02325D03*
X097D03*
X09775D03*
X09625Y02475D03*
X09775D03*
Y0255D03*
X09625D03*
X09925D03*
Y02625D03*
Y02475D03*
Y024D03*
Y02325D03*
Y0225D03*
Y02175D03*
X09325Y02625D03*
X07125Y0275D03*
M02*