%FSTAX23Y23*%
%MOIN*%
%SFA1B1*%

%IPPOS*%
%ADD79C,0.040000*%
%ADD100C,0.025000*%
%ADD101C,0.066000*%
%ADD102C,0.059430*%
%ADD103C,0.063370*%
%ADD104C,0.154000*%
%ADD105C,0.055500*%
%ADD106C,0.071240*%
%ADD107C,0.086000*%
%ADD108C,0.161790*%
%ADD109C,0.036000*%
%ADD110C,0.040000*%
%ADD111C,0.052000*%
%ADD112C,0.094870*%
%ADD113C,0.036990*%
%LNdsau-motherboard-reva-1*%
%LPD*%
G54D79*
X01Y012D02*
D01*
X01Y01186*
X01001Y01172*
X01004Y01158*
X01007Y01144*
X01012Y01131*
X01017Y01118*
X01023Y01106*
X0103Y01094*
X01038Y01082*
X01046Y01071*
X01056Y01061*
X01066Y01051*
X01076Y01042*
X01088Y01034*
X011Y01026*
X01112Y0102*
X01125Y01014*
X01138Y01009*
X01151Y01005*
X01165Y01003*
X01179Y01001*
X01193Y01*
X012Y01*
X10275D02*
D01*
X10288Y01*
X10302Y01001*
X10316Y01004*
X1033Y01007*
X10343Y01012*
X10356Y01017*
X10368Y01023*
X1038Y0103*
X10392Y01038*
X10403Y01046*
X10413Y01056*
X10423Y01066*
X10432Y01076*
X1044Y01088*
X10448Y011*
X10454Y01112*
X1046Y01125*
X10465Y01138*
X10469Y01151*
X10471Y01165*
X10473Y01179*
X10474Y01193*
X10475Y012*
Y072D02*
D01*
X10474Y07213*
X10473Y07227*
X1047Y07241*
X10467Y07255*
X10462Y07268*
X10457Y07281*
X10451Y07293*
X10444Y07305*
X10436Y07317*
X10428Y07328*
X10418Y07338*
X10408Y07348*
X10398Y07357*
X10386Y07365*
X10375Y07373*
X10362Y07379*
X10349Y07385*
X10336Y0739*
X10323Y07394*
X10309Y07396*
X10295Y07398*
X10281Y07399*
X10275Y074*
X012D02*
D01*
X01186Y07399*
X01172Y07398*
X01158Y07395*
X01144Y07392*
X01131Y07387*
X01118Y07382*
X01106Y07376*
X01094Y07369*
X01082Y07361*
X01071Y07353*
X01061Y07343*
X01051Y07333*
X01042Y07323*
X01034Y07311*
X01026Y073*
X0102Y07287*
X01014Y07274*
X01009Y07261*
X01005Y07248*
X01003Y07234*
X01001Y0722*
X01Y07206*
X01Y072*
X012Y01D02*
X10275D01*
X10475Y012D02*
Y072D01*
X012Y074D02*
X10275D01*
X01Y012D02*
Y072D01*
G54D100*
X08025Y01925D02*
X08175Y01775D01*
X0795Y01925D02*
X08025D01*
X08175Y01775D02*
X085D01*
X084Y02825D02*
Y0335D01*
X07525D02*
X084D01*
X07525Y028D02*
Y0335D01*
X0755Y012D02*
Y01425D01*
X07675Y0155*
Y017*
X076D02*
X07675D01*
X0755Y012D02*
X08D01*
Y0175*
X0795Y018D02*
X08Y0175D01*
X0795Y018D02*
Y01925D01*
X085Y01775D02*
Y023D01*
X07475D02*
X085D01*
X07475Y02175D02*
Y023D01*
Y0175D02*
Y02175D01*
Y0175D02*
X07525Y017D01*
X076*
X07175Y02575D02*
Y028D01*
Y02575D02*
X08425D01*
X0855Y027*
Y02825*
X0875Y0455D02*
X088D01*
Y049*
X07175Y0455D02*
X0875D01*
X08625Y049D02*
X088D01*
X08625D02*
Y04975D01*
X08475D02*
X08625D01*
X08475D02*
Y05075D01*
X07175D02*
X08475D01*
X05925D02*
X07175D01*
X05925Y05025D02*
Y05075D01*
Y05025D02*
X05975Y04975D01*
Y04925D02*
Y04975D01*
Y04925D02*
X06Y049D01*
Y0455D02*
Y049D01*
Y0455D02*
X07175D01*
Y05075*
X082Y02825D02*
X093D01*
X08175Y028D02*
X082Y02825D01*
X07675Y028D02*
X08175D01*
X07175D02*
X07575D01*
X07175D02*
Y05075D01*
Y028D02*
X07675D01*
X088Y0455D02*
X092D01*
Y05525*
X1049*
X0625Y01D02*
Y0245D01*
X066Y028*
X07175*
X093Y02825D02*
X0935D01*
X096*
X10475*
G54D101*
X0675Y012D03*
X0826Y01575D03*
X0905Y012D03*
X0355Y05D03*
X02125Y04375D03*
X02875D03*
X03625D03*
X04375D03*
X05125D03*
X05875D03*
G54D102*
X0588Y0282D03*
X0578D03*
X0588Y0292D03*
X0578D03*
X0588Y0302D03*
X0578D03*
X0588Y0312D03*
X0578D03*
X0588Y0322D03*
X0578D03*
X0588Y0332D03*
X0578D03*
X0588Y0342D03*
X0578D03*
X0588Y0352D03*
X0578D03*
X0588Y0362D03*
X0578D03*
X0588Y0372D03*
X0578D03*
X0513Y0282D03*
X0503D03*
X0513Y0292D03*
X0503D03*
X0513Y0302D03*
X0503D03*
X0513Y0312D03*
X0503D03*
X0513Y0322D03*
X0503D03*
X0513Y0332D03*
X0503D03*
X0513Y0342D03*
X0503D03*
X0513Y0352D03*
X0503D03*
X0513Y0362D03*
X0503D03*
X0513Y0372D03*
X0503D03*
X0438Y0282D03*
X0428D03*
X0438Y0292D03*
X0428D03*
X0438Y0302D03*
X0428D03*
X0438Y0312D03*
X0428D03*
X0438Y0322D03*
X0428D03*
X0438Y0332D03*
X0428D03*
X0438Y0342D03*
X0428D03*
X0438Y0352D03*
X0428D03*
X0438Y0362D03*
X0428D03*
X0438Y0372D03*
X0428D03*
X0363Y0282D03*
X0353D03*
X0363Y0292D03*
X0353D03*
X0363Y0302D03*
X0353D03*
X0363Y0312D03*
X0353D03*
X0363Y0322D03*
X0353D03*
X0363Y0332D03*
X0353D03*
X0363Y0342D03*
X0353D03*
X0363Y0352D03*
X0353D03*
X0363Y0362D03*
X0353D03*
X0363Y0372D03*
X0353D03*
X0288Y0282D03*
X0278D03*
X0288Y0292D03*
X0278D03*
X0288Y0302D03*
X0278D03*
X0288Y0312D03*
X0278D03*
X0288Y0322D03*
X0278D03*
X0288Y0332D03*
X0278D03*
X0288Y0342D03*
X0278D03*
X0288Y0352D03*
X0278D03*
X0288Y0362D03*
X0278D03*
X0288Y0372D03*
X0278D03*
X0213Y0282D03*
X0203D03*
X0213Y0292D03*
X0203D03*
X0213Y0302D03*
X0203D03*
X0213Y0312D03*
X0203D03*
X0213Y0322D03*
X0203D03*
X0213Y0332D03*
X0203D03*
X0213Y0342D03*
X0203D03*
X0213Y0352D03*
X0203D03*
X0213Y0362D03*
X0203D03*
X0213Y0372D03*
X0203D03*
X0816Y02175D03*
Y02075D03*
Y01975D03*
X07735Y014D03*
X07835D03*
X0355Y0545D03*
X04625Y06125D03*
X09725Y0625D03*
X01625Y05375D03*
X048Y011D03*
X098Y033D03*
X017Y011D03*
X065Y02D03*
X028Y0545D03*
X029D03*
X03D03*
X029Y05225D03*
X03D03*
X0425Y06925D03*
X0435D03*
X04825D03*
Y06825D03*
Y06725D03*
X0474Y07225D03*
Y07325D03*
X0484D03*
X0494Y07225D03*
Y07325D03*
X0504Y07225D03*
Y07325D03*
X0514Y07225D03*
Y07325D03*
X0524Y07225D03*
Y07325D03*
X0534Y07225D03*
Y07325D03*
X0544Y07225D03*
Y07325D03*
X0554Y07225D03*
Y07325D03*
X0564Y07225D03*
Y07325D03*
X0574Y07225D03*
Y07325D03*
X0584Y07225D03*
Y07325D03*
X0594Y07225D03*
Y07325D03*
X09175Y06175D03*
Y06375D03*
Y06275D03*
X05815Y06765D03*
X0575Y055D03*
X0925Y02D03*
X08625Y06625D03*
X08725D03*
X08825D03*
X08925D03*
X09025D03*
G54D103*
X09247Y07338D03*
X09502D03*
Y07161D03*
X09247D03*
X04147Y07338D03*
X04402D03*
Y07161D03*
X04147D03*
G54D104*
X083Y03531D03*
X0635D03*
X083Y07231D03*
X0635D03*
X1025Y072D03*
Y012D03*
X012D03*
Y072D03*
G54D105*
X0645Y06248D03*
X082D03*
G54D106*
X0645Y04508D03*
X082D03*
G54D107*
X015Y0675D03*
Y0655D03*
X0255Y06475D03*
X09575Y0495D03*
X09725Y01675D03*
G54D108*
X01764Y07D03*
X0195Y07118D03*
Y06881D03*
G54D109*
X04875Y02375D03*
X05625D03*
Y02725D03*
X04875Y0265D03*
X06175Y05525D03*
X061Y02375D03*
X0864Y06375D03*
X0849Y0634D03*
X0899Y0627D03*
X0898Y06375D03*
X0189Y0634D03*
X01925D03*
X0196D03*
X0189Y06375D03*
X01925D03*
X0196D03*
X0189Y0641D03*
X01925D03*
X0196D03*
X0215Y06225D03*
X02205D03*
X02175D03*
X02294Y06266D03*
X02259D03*
X02071D03*
X02101D03*
X02115Y06225D03*
X0209D03*
X02022Y06292D03*
Y06262D03*
X0165Y0603D03*
X0197Y0598D03*
X019D03*
X01935D03*
X01925Y0615D03*
X0243Y05675D03*
X02465D03*
X025D03*
X02395D03*
X0197Y05945D03*
X01935D03*
X019D03*
X0197Y0591D03*
X01935D03*
X019D03*
X02095Y0598D03*
X0206D03*
X02025D03*
X02095Y05945D03*
X0206D03*
X02025D03*
X02095Y0591D03*
X0206D03*
X02025D03*
X0213Y06435D03*
X0216D03*
X02195D03*
X0223D03*
X1008Y0407D03*
Y04105D03*
Y0414D03*
Y0417D03*
X09916Y04041D03*
X0987Y0413D03*
X09916Y04204D03*
X0987Y0421D03*
X09913Y04278D03*
X09555Y04275D03*
Y0424D03*
Y04205D03*
X0959Y04275D03*
Y0424D03*
Y04205D03*
X09625Y04275D03*
Y0424D03*
Y04205D03*
X09555Y044D03*
Y04365D03*
Y0433D03*
X0959Y044D03*
Y04365D03*
Y0433D03*
X09345Y03905D03*
Y038D03*
Y03835D03*
Y0387D03*
X0967Y04625D03*
X09795Y04375D03*
X09995Y04405D03*
Y0437D03*
X0996D03*
Y04405D03*
X1003D03*
Y0437D03*
Y04335D03*
X09995D03*
X0996D03*
X09625Y04365D03*
Y044D03*
Y0433D03*
X0972Y04205D03*
X06088Y07063D03*
X06068Y07043D03*
X06049Y07023D03*
X06029Y07004D03*
X06009Y06984D03*
X05989Y06964D03*
X05969Y06944D03*
X0595Y06925D03*
X038Y05713D03*
Y05486D03*
X04149Y05688D03*
Y05637D03*
Y05587D03*
X04425Y05713D03*
Y05486D03*
X04774Y05688D03*
Y05637D03*
Y05587D03*
X04572Y05772D03*
X0459Y05595D03*
X0396D03*
X03938Y05773D03*
X06672Y05142D03*
X06227D03*
X06227Y05047D03*
X06672D03*
X06675Y04955D03*
X06672Y04827D03*
X06672Y04732D03*
X05208Y056D03*
Y05765D03*
X05399Y05587D03*
Y05637D03*
Y05688D03*
X0505Y05486D03*
Y05713D03*
X033Y05535D03*
X0593Y05195D03*
Y05345D03*
X0905Y05775D03*
X095Y06D03*
X0925Y05375D03*
X08512Y05866D03*
X08465Y059D03*
X08145Y02875D03*
X07675Y03175D03*
X07225Y02975D03*
X093Y05435D03*
Y05615D03*
X07475Y0264D03*
Y0275D03*
X07685Y02715D03*
X07735Y0269D03*
X07825Y02625D03*
X07665Y0258D03*
X0755Y02465D03*
X0788Y0265D03*
X0794Y02685D03*
X0811Y02705D03*
X0781Y0266D03*
X0808Y02725D03*
X0585Y0527D03*
X06636Y05551D03*
Y05646D03*
Y0574D03*
Y05835D03*
Y05929D03*
Y05457D03*
Y05362D03*
X06265Y05455D03*
X06263Y05646D03*
Y05551D03*
Y0574D03*
Y05835D03*
Y05929D03*
Y05992D03*
X06265Y05269D03*
Y05239D03*
X06611Y05268D03*
Y05236D03*
X08387D03*
Y05268D03*
X08013Y05236D03*
Y05268D03*
X026Y072D03*
X02175Y07325D03*
X02875Y072D03*
X032Y07225D03*
X03475D03*
X0375Y072D03*
X04075Y073D03*
X04575Y06925D03*
Y06775D03*
X04475Y06525D03*
X09025Y07175D03*
Y0725D03*
Y07325D03*
X08634Y06895D03*
X08809D03*
X08975Y069D03*
X08525Y0675D03*
X087D03*
X08875D03*
X084Y058D03*
X08Y05775D03*
X082Y05875D03*
X0839Y05695D03*
X079Y0565D03*
X07607Y05817D03*
X07587Y05797D03*
X07647Y05857D03*
X07627Y05837D03*
X06668Y0525D03*
X09105Y05865D03*
X09055Y059D03*
X04725Y06825D03*
X04575D03*
X0475Y06525D03*
X0465Y0657D03*
X0415Y06835D03*
X0395Y06675D03*
X03925Y069D03*
X03887Y06957D03*
X04255Y06522D03*
X04045D03*
X02375Y0484D03*
X023D03*
X02225Y04844D03*
X02275Y05025D03*
X03125Y05D03*
X03275Y04925D03*
X0325Y048D03*
X02975Y04775D03*
Y04875D03*
X029Y04925D03*
X0275Y05325D03*
X0245Y05475D03*
X02475Y05375D03*
X02425Y05425D03*
X02825Y0475D03*
X02425Y04775D03*
Y047D03*
X0312Y0555D03*
X02295Y072D03*
X03125Y069D03*
X034D03*
X037D03*
X03065Y0696D03*
X0334Y06955D03*
X03615D03*
X02565Y0686D03*
X02815Y06865D03*
X02495Y06775D03*
X02735Y0675D03*
X09175Y04225D03*
X03545Y0662D03*
X0327Y06595D03*
X02995Y0665D03*
X03815Y06548D03*
X01825Y06575D03*
Y06725D03*
X05905Y06024D03*
X05625Y06025D03*
X05915Y06845D03*
X0533D03*
X0626Y0473D03*
X091Y07275D03*
X08475D03*
X0915Y027D03*
X05675Y06885D03*
X0523D03*
X09375Y0325D03*
X091Y07325D03*
X08425Y07275D03*
X049Y071D03*
Y07D03*
X07025Y02875D03*
X06227Y04827D03*
X0627Y0489D03*
Y0486D03*
Y04985D03*
Y05015D03*
X06265Y05173D03*
Y0512D03*
Y0509D03*
Y05201D03*
Y05425D03*
Y05395D03*
Y0533D03*
Y053D03*
Y0536D03*
X06125Y0415D03*
Y04122D03*
Y04094D03*
Y04066D03*
Y04025D03*
Y03997D03*
Y03969D03*
Y03941D03*
Y039D03*
Y03872D03*
Y03844D03*
Y03816D03*
X03775Y0525D03*
X03825Y05175D03*
X04225Y05D03*
X0425Y05125D03*
X042Y04875D03*
X04175Y048D03*
X04775Y04825D03*
X04825Y04875D03*
X04875Y05125D03*
X0485Y05D03*
X0445Y05175D03*
X044Y0525D03*
X0545Y04875D03*
X055Y05125D03*
X05475Y05D03*
X05075Y05175D03*
X05025Y0525D03*
X05425Y0485D03*
X056Y03675D03*
X041Y0365D03*
X033Y036D03*
X03325Y0365D03*
X03225Y036D03*
X032Y0365D03*
X02475Y03375D03*
X024D03*
X04Y0365D03*
X04725Y03325D03*
X04775Y03225D03*
X0465D03*
Y03325D03*
X05525D03*
X0555Y03225D03*
X0545D03*
Y03325D03*
X079Y0455D03*
X08035Y05045D03*
X08415Y0505D03*
X09247Y0569D03*
G54D110*
X07825Y0326D03*
X06065Y04852D03*
X05899Y04855D03*
X06815Y05002D03*
X0674D03*
X06923Y05252D03*
X06868Y0515D03*
X06793D03*
X06718D03*
X0667Y05325D03*
X06845Y0532D03*
X06715Y0543D03*
X0679D03*
X0806Y02005D03*
X0685Y01685D03*
X07625Y01825D03*
Y019D03*
X0785Y013D03*
X09055Y01775D03*
X083Y0245D03*
X08165Y0258D03*
X0776Y02005D03*
X07805Y0205D03*
Y021D03*
X0799Y02135D03*
X0786Y0218D03*
X07935Y0149D03*
X0814Y01875D03*
X0841Y01805D03*
X08335Y018D03*
X08325Y0203D03*
X09225Y02245D03*
X09145Y0243D03*
X0899D03*
X0905Y02225D03*
X0811Y03115D03*
X083Y02725D03*
X0829Y0277D03*
X0845Y0273D03*
X0743Y01775D03*
X09065Y02605D03*
X07985Y05145D03*
X08025D03*
X0802Y05365D03*
X0794Y0537D03*
X07985Y05455D03*
X0797Y05555D03*
X08415Y0555D03*
Y05645D03*
X0797D03*
Y0574D03*
Y05835D03*
X08415D03*
X08414Y0574D03*
X08415Y0593D03*
X0797D03*
X08415Y05455D03*
Y05365D03*
Y05145D03*
X08426Y04953D03*
X08389Y04795D03*
Y04675D03*
X0802Y0467D03*
X08015Y04825D03*
X0794Y0478D03*
X07865D03*
X0866Y04945D03*
X0865Y048D03*
X08515Y0474D03*
X07865Y0537D03*
X07425Y03022D03*
X08295Y0307D03*
Y0315D03*
X0205Y0665D03*
X01975Y06575D03*
Y06725D03*
X0175Y0665D03*
X0614Y04852D03*
G54D111*
X09475Y02625D03*
X094D03*
X09625D03*
X09775D03*
X0985Y0255D03*
X09475D03*
X0955Y02475D03*
X097D03*
X0985D03*
Y024D03*
Y02325D03*
Y0225D03*
Y02175D03*
X09775D03*
Y0225D03*
Y024D03*
X097Y02175D03*
X09625D03*
Y0225D03*
Y024D03*
X0955D03*
Y02325D03*
Y0225D03*
Y02175D03*
X09475D03*
Y0225D03*
X094D03*
Y02175D03*
X097Y024D03*
Y0225D03*
X09625Y02325D03*
X097D03*
X09775D03*
X09625Y02475D03*
X09775D03*
Y0255D03*
X09625D03*
X09925D03*
Y02625D03*
Y02475D03*
Y024D03*
Y02325D03*
Y0225D03*
Y02175D03*
X09325Y02625D03*
G54D112*
X0665Y011D03*
X0685Y013D03*
Y011D03*
X0665Y013D03*
X0836Y01475D03*
X0816Y01675D03*
Y01475D03*
X0836Y01675D03*
X0895Y013D03*
X0915Y011D03*
Y013D03*
X0895Y011D03*
X0365Y049D03*
X0345Y051D03*
Y049D03*
X0365Y051D03*
X02225Y04275D03*
X02025Y04475D03*
Y04275D03*
X02225Y04475D03*
X02975Y04275D03*
X02775Y04475D03*
Y04275D03*
X02975Y04475D03*
X03725Y04275D03*
X03525Y04475D03*
Y04275D03*
X03725Y04475D03*
X04475Y04275D03*
X04275Y04475D03*
Y04275D03*
X04475Y04475D03*
X05225Y04275D03*
X05025Y04475D03*
Y04275D03*
X05225Y04475D03*
X05975Y04275D03*
X05775Y04475D03*
Y04275D03*
X05975Y04475D03*
G54D113*
X0791Y02075D03*
X07809Y0298D03*
X0795D03*
X0788Y0291D03*
X07809Y02839D03*
X0795D03*
M02*