%FSTAX23Y23*%
%MOIN*%
%SFA1B1*%

%IPPOS*%
%ADD64C,0.008000*%
%ADD67C,0.010000*%
%ADD69C,0.020000*%
%ADD100C,0.025000*%
%ADD114C,0.009840*%
%ADD115C,0.023620*%
%ADD116C,0.006000*%
%ADD117C,0.007870*%
%ADD118C,0.003000*%
%ADD119R,0.021650X0.055120*%
%LNdsau-motherboard-reva-1*%
%LPD*%
G36*
X02832Y02591D02*
X02835D01*
X02838Y0259*
X02842Y02589*
X02845Y02589*
X02849Y02588*
X02849*
X02851Y02587*
X02852Y02586*
X02855Y02585*
X02857Y02584*
X0286Y02583*
X02863Y02581*
X02866Y02579*
X02866Y02578*
X02867Y02577*
X02868Y02576*
X0287Y02574*
X02871Y02572*
X02873Y0257*
X02875Y02567*
X02876Y02564*
X02877Y02563*
X02877Y02562*
X02878Y0256*
X02878Y02558*
X02879Y02555*
X0288Y02551*
X0288Y02547*
X02881Y02543*
Y02543*
Y02541*
Y02539*
X0288Y02537*
X0288Y02534*
X02879Y02531*
X02878Y02524*
Y02524*
X02877Y02523*
X02877Y02521*
X02876Y02519*
X02875Y02517*
X02874Y02514*
X0287Y02508*
X0287Y02508*
X02869Y02507*
X02868Y02505*
X02866Y02503*
X02865Y02501*
X02863Y02498*
X02858Y02492*
X02857Y02492*
X02857Y0249*
X02855Y02489*
X02853Y02487*
X02851Y02484*
X02848Y02482*
X02845Y02478*
X02841Y02475*
X02818Y02453*
X02886*
Y02425*
X02775*
Y02447*
X02814Y02486*
X02814Y02486*
X02816Y02487*
X02818Y0249*
X0282Y02492*
X02823Y02495*
X02826Y02498*
X02829Y02502*
X02831Y02504*
X02832Y02505*
X02832Y02506*
X02834Y02507*
X02835Y02509*
X02838Y02514*
X02841Y02519*
X02842Y02519*
X02842Y0252*
X02842Y02521*
X02843Y02522*
X02845Y02526*
X02846Y0253*
Y0253*
X02847Y02531*
Y02532*
X02847Y02533*
X02847Y02537*
X02847Y02541*
Y02541*
Y02542*
Y02543*
X02847Y02544*
X02847Y02546*
X02846Y0255*
Y0255*
X02845Y0255*
X02845Y02552*
X02843Y02554*
X02841Y02557*
Y02557*
X02841Y02557*
X0284Y02558*
X02837Y0256*
X02834Y02562*
X02834*
X02833Y02562*
X02832Y02562*
X02831Y02563*
X02828Y02563*
X02824Y02564*
X02822*
X0282Y02563*
X02818Y02563*
X02816Y02562*
X02812Y02562*
X02809Y02561*
X02806Y02559*
X02806Y02559*
X02805Y02558*
X02803Y02557*
X02801Y02556*
X02799Y02555*
X02796Y02553*
X02793Y02551*
X02791Y02548*
X02775Y02569*
X02775Y02569*
X02776Y02571*
X02779Y02572*
X02782Y02575*
X02785Y02577*
X02789Y0258*
X02794Y02582*
X02798Y02585*
X02799*
X02799Y02585*
X02801Y02586*
X02803Y02587*
X02807Y02588*
X02811Y02589*
X02816Y0259*
X02822Y02591*
X02827Y02591*
X02829*
X02832Y02591*
G37*
G36*
X04355Y02485D02*
X0438D01*
Y02458*
X04355*
Y02425*
X04325*
Y02458*
X0425*
Y02484*
X04313Y02588*
X04355*
Y02485*
G37*
G36*
X03579Y02591D02*
X03583Y0259D01*
X03587Y0259*
X03591Y02589*
X03595Y02588*
X03595*
X03596Y02587*
X03598Y02587*
X03601Y02586*
X03603Y02585*
X03606Y02583*
X03609Y02581*
X03612Y02579*
X03612Y02579*
X03613Y02579*
X03614Y02577*
X03616Y02576*
X03617Y02574*
X03619Y02572*
X03621Y02569*
X03622Y02567*
X03623Y02566*
X03623Y02565*
X03624Y02564*
X03624Y02562*
X03625Y02559*
X03625Y02556*
X03626Y02553*
Y0255*
Y02549*
Y02549*
Y02547*
X03626Y02544*
X03625Y02541*
X03624Y02537*
X03623Y02533*
X03621Y02529*
X03619Y02525*
X03619Y02525*
X03618Y02524*
X03616Y02522*
X03614Y0252*
X03611Y02518*
X03608Y02516*
X03604Y02513*
X036Y02511*
X036*
X03601Y02511*
X03603Y02511*
X03604Y0251*
X03607Y0251*
X03609Y02509*
X03614Y02507*
X03614*
X03615Y02506*
X03616Y02506*
X03618Y02505*
X03621Y02502*
X03625Y02499*
X03625Y02499*
X03626Y02498*
X03627Y02497*
X03628Y02496*
X03629Y02494*
X0363Y02492*
X03632Y02488*
Y02487*
X03632Y02487*
X03633Y02485*
X03633Y02484*
X03634Y02482*
X03634Y02479*
X03635Y02474*
Y02473*
Y02472*
X03634Y0247*
X03634Y02467*
X03633Y02463*
X03633Y0246*
X03631Y02456*
X0363Y02452*
X0363Y02452*
X03629Y02451*
X03628Y02449*
X03627Y02447*
X03625Y02444*
X03622Y02441*
X03619Y02438*
X03616Y02436*
X03616Y02435*
X03614Y02434*
X03612Y02433*
X0361Y02432*
X03606Y0243*
X03602Y02429*
X03598Y02427*
X03593Y02425*
X03592*
X03591Y02425*
X0359Y02425*
X03587Y02424*
X03583Y02424*
X03578Y02423*
X03573Y02422*
X03566Y02422*
X03559Y02422*
X03554*
X03551Y02422*
X03549*
X03548Y02422*
X03545*
X03541Y02423*
X03539*
X03538Y02423*
X03535Y02423*
X03532Y02424*
X03532*
X03529Y02424*
X03527Y02424*
X03525Y02425*
Y02451*
X03525*
X03526Y02451*
X03527Y02451*
X03529Y0245*
X03532Y0245*
X03535Y02449*
X03538Y02449*
X03542Y02449*
X03544*
X03546Y02448*
X03548*
X03551Y02448*
X03555*
X03558Y02448*
X03566*
X03569Y02448*
X03571*
X03574Y02448*
X0358Y02449*
X0358*
X03581Y02449*
X03583Y0245*
X03585Y0245*
X03589Y02452*
X03593Y02454*
X03593Y02454*
X03594Y02455*
X03596Y02456*
X03598Y02459*
X036Y02462*
Y02463*
X036Y02463*
X03601Y02464*
X03601Y02466*
X03602Y02469*
X03602Y02473*
Y02474*
Y02474*
Y02475*
X03602Y02477*
X03601Y0248*
X036Y02483*
Y02483*
X03599Y02484*
X03598Y02486*
X03596Y02488*
X03592Y0249*
X03592Y02491*
X03592Y02491*
X03591Y02492*
X03589Y02492*
X03587Y02493*
X03585Y02494*
X03583Y02495*
X0358Y02495*
X0358*
X03579Y02496*
X03577Y02496*
X03575Y02496*
X03573Y02497*
X03569Y02497*
X03566Y02497*
X03544*
Y0252*
X03564*
X03566Y02521*
X03569*
X03571Y02521*
X03574Y02521*
X03577Y02522*
X03577*
X03578Y02522*
X03579Y02523*
X0358Y02524*
X03584Y02525*
X03587Y02527*
X03587Y02528*
X03587Y02528*
X03589Y02529*
X03591Y02532*
X03592Y02535*
Y02535*
X03593Y02536*
X03593Y02537*
X03593Y02538*
X03594Y02541*
X03594Y02544*
Y02545*
Y02546*
X03594Y02548*
X03593Y0255*
X03592Y02553*
X03591Y02555*
X0359Y02558*
X03587Y0256*
X03587Y0256*
X03586Y02561*
X03585Y02562*
X03582Y02562*
X0358Y02563*
X03576Y02564*
X03572Y02565*
X03568Y02565*
X03564*
X03561Y02565*
X03558Y02565*
X03555Y02564*
X03548Y02563*
X03548*
X03547Y02563*
X03545Y02562*
X03542Y02562*
X03539Y02561*
X03536Y0256*
X03529Y02558*
Y02584*
X03529*
X0353Y02584*
X03531Y02584*
X03532Y02585*
X03536Y02586*
X03539Y02587*
X0354*
X0354Y02587*
X03541Y02587*
X03543Y02588*
X03546Y02589*
X0355Y02589*
X0355*
X03551Y02589*
X03552*
X03553Y0259*
X03556Y0259*
X0356Y0259*
X03561*
X03562Y02591*
X03563*
X03567Y02591*
X03576*
X03579Y02591*
G37*
G36*
X02102Y02452D02*
X02138D01*
Y02425*
X02029*
Y02452*
X02071*
Y02557*
X02034Y02537*
X02025Y02562*
X02076Y02589*
X02102*
Y02452*
G37*
G36*
X05855Y02562D02*
X05828D01*
X05825Y02562*
X05822Y02562*
X05818Y02561*
X05814Y0256*
X0581Y02559*
X0581*
X05809Y02559*
X05807Y02558*
X05805Y02557*
X058Y02555*
X05798Y02553*
X05795Y02551*
X05795Y02551*
X05794Y0255*
X05793Y02549*
X05792Y02548*
X05791Y02546*
X05789Y02544*
X05788Y02541*
X05787Y02539*
Y02538*
X05786Y02538*
X05786Y02536*
X05785Y02534*
X05784Y02531*
X05784Y02529*
X05783Y02526*
X05783Y02522*
X05783Y02519*
X05783*
X05784Y0252*
X05785Y02521*
X05787Y02521*
X05789Y02522*
X05792Y02523*
X05798Y02524*
X05798*
X05799Y02525*
X05801Y02525*
X05803Y02526*
X05805Y02526*
X05809Y02526*
X05815Y02526*
X05817*
X0582Y02526*
X05823*
X05827Y02526*
X0583Y02525*
X05834Y02524*
X05838Y02523*
X05839Y02523*
X0584Y02522*
X05842Y02521*
X05844Y0252*
X05847Y02519*
X0585Y02517*
X05853Y02515*
X05855Y02513*
X05856Y02513*
X05856Y02512*
X05858Y0251*
X05859Y02509*
X05861Y02506*
X05862Y02504*
X05864Y02501*
X05865Y02497*
X05865Y02497*
X05866Y02495*
X05866Y02494*
X05867Y02491*
X05868Y02488*
X05868Y02484*
X05869Y0248*
Y02476*
Y02475*
Y02474*
X05868Y02472*
X05868Y02469*
X05868Y02465*
X05867Y02461*
X05865Y02457*
X05864Y02454*
X05864Y02453*
X05863Y02452*
X05862Y0245*
X05861Y02448*
X05859Y02445*
X05857Y02442*
X05854Y02439*
X05851Y02436*
X05851Y02436*
X0585Y02435*
X05848Y02434*
X05846Y02432*
X05843Y0243*
X0584Y02429*
X05836Y02427*
X05832Y02425*
X05832Y02425*
X05831Y02425*
X05828Y02424*
X05825Y02424*
X05822Y02423*
X05818Y02422*
X05813Y02422*
X05808Y02422*
X05806*
X05804Y02422*
X05801Y02422*
X05798Y02422*
X05795Y02423*
X05792Y02424*
X05785Y02426*
X05781Y02427*
X05778Y02429*
X05774Y02431*
X05771Y02434*
X05767Y02436*
X05764Y02439*
X05764Y0244*
X05764Y0244*
X05763Y02441*
X05762Y02443*
X05761Y02445*
X0576Y02447*
X05758Y0245*
X05757Y02453*
X05756Y02457*
X05754Y02461*
X05753Y02466*
X05752Y0247*
X05751Y02476*
X0575Y02482*
X0575Y02488*
X0575Y02495*
Y02495*
Y02495*
Y02497*
Y02499*
X0575Y02503*
Y02507*
X0575Y02511*
X05751Y0252*
Y02521*
X05751Y02522*
X05752Y02524*
X05752Y02527*
X05753Y02531*
X05754Y02535*
X05757Y02543*
X05757Y02543*
X05757Y02544*
X05758Y02546*
X05759Y02549*
X05761Y02552*
X05762Y02555*
X05767Y02561*
X05767Y02562*
X05768Y02563*
X05769Y02564*
X05771Y02566*
X05774Y02569*
X05776Y02571*
X05779Y02573*
X05783Y02576*
X05783Y02576*
X05785Y02577*
X05787Y02578*
X05789Y02579*
X05793Y0258*
X05796Y02582*
X05801Y02584*
X05805Y02585*
X05806*
X05806Y02585*
X05808Y02585*
X0581Y02586*
X05814Y02586*
X05819Y02587*
X05824Y02587*
X0583Y02588*
X05855*
Y02562*
G37*
G36*
X05097Y02559D02*
X05031D01*
Y02526*
X05047*
X0505Y02526*
X05054Y02525*
X05058Y02525*
X05067Y02524*
X05067*
X05069Y02523*
X05071Y02522*
X05073Y02522*
X05077Y02521*
X0508Y02519*
X05083Y02518*
X05087Y02516*
X05087Y02515*
X05088Y02515*
X0509Y02513*
X05092Y02511*
X05094Y02509*
X05096Y02507*
X05099Y02504*
X05101Y025*
X05101Y025*
X05102Y02499*
X05103Y02497*
X05103Y02494*
X05104Y0249*
X05105Y02486*
X05106Y02482*
X05106Y02477*
Y02476*
Y02474*
X05106Y02472*
X05106Y02469*
X05105Y02465*
X05104Y02461*
X05102Y02457*
X05101Y02453*
X051Y02453*
X051Y02451*
X05098Y0245*
X05096Y02447*
X05094Y02444*
X05092Y02441*
X05089Y02439*
X05085Y02436*
X05085Y02436*
X05083Y02435*
X05081Y02434*
X05079Y02432*
X05075Y0243*
X05071Y02429*
X05067Y02427*
X05062Y02425*
X05061*
X0506Y02425*
X05057Y02424*
X05053Y02424*
X05049Y02423*
X05044Y02422*
X05039Y02422*
X05033Y02422*
X05028*
X05025Y02422*
X05023*
X05022Y02422*
X05019Y02423*
X05016Y02423*
X05014*
X05013Y02423*
X0501Y02424*
X05007Y02424*
X05007*
X05005Y02424*
X05002Y02425*
X05Y02425*
Y02451*
X05*
X05001Y02451*
X05002Y02451*
X05004Y02451*
X05007Y0245*
X05009Y02449*
X05012Y02449*
X05016Y02449*
X05017*
X05019Y02448*
X05021*
X05024Y02448*
X05028*
X05035Y02448*
X05038*
X05041Y02448*
X05045Y02449*
X0505Y02449*
X05055Y02451*
X05059Y02452*
X05063Y02455*
X05064Y02455*
X05065Y02456*
X05067Y02458*
X05068Y0246*
X0507Y02463*
X05072Y02466*
X05073Y0247*
X05073Y02475*
Y02475*
Y02475*
Y02477*
X05073Y02479*
X05072Y02482*
X05071Y02485*
X0507Y02489*
X05067Y02492*
X05064Y02495*
X05064Y02495*
X05062Y02495*
X0506Y02497*
X05057Y02498*
X05053Y02499*
X05048Y025*
X05041Y02501*
X05034Y02501*
X05002*
Y02588*
X05097*
Y02559*
G37*
%LNdsau-motherboard-reva-2*%
%LPC*%
G36*
X0581Y02501D02*
X05808D01*
X05805Y02501*
X05802Y025*
X05802*
X058Y025*
X05798Y02499*
X05795Y02498*
X05794*
X05794Y02498*
X05793Y02498*
X0579Y02497*
X05788Y02496*
X05787Y02496*
X05786Y02495*
X05784Y02494*
X05782Y02493*
Y02493*
Y02491*
Y02489*
X05782Y02486*
Y02482*
X05783Y02479*
X05783Y02475*
X05783Y02472*
Y02471*
X05784Y0247*
X05784Y02469*
X05785Y02467*
X05786Y02462*
X05789Y02458*
X05789Y02457*
X05789Y02457*
X0579Y02456*
X05791Y02455*
X05794Y02452*
X05796Y02451*
X05798Y0245*
X05798*
X05799Y02449*
X058Y02449*
X05801Y02449*
X05803Y02448*
X05805Y02448*
X0581Y02447*
X05812*
X05814Y02448*
X05817Y02448*
X05821Y02449*
X05821*
X05822Y02449*
X05823Y0245*
X05824Y02451*
X05827Y02452*
X05829Y02455*
X0583Y02455*
X0583Y02455*
X05831Y02456*
X05832Y02457*
X05833Y0246*
X05835Y02463*
Y02464*
X05835Y02464*
X05835Y02466*
X05836Y02467*
X05836Y0247*
X05837Y02475*
Y02475*
Y02476*
Y02477*
X05836Y02478*
X05836Y02482*
X05835Y02485*
Y02485*
X05835Y02486*
X05834Y02487*
X05834Y02488*
X05832Y02491*
X0583Y02493*
Y02494*
X0583Y02494*
X05828Y02495*
X05826Y02497*
X05822Y02499*
X05822*
X05821Y02499*
X0582Y02499*
X05819Y025*
X05817Y025*
X05815Y02501*
X0581Y02501*
G37*
G36*
X04326Y02558D02*
X04279Y02485D01*
X04326*
Y02558*
G37*
%LNdsau-motherboard-reva-3*%
%LPD*%
G54D64*
X058Y03813D02*
Y0378D01*
X05766Y03813*
X05758*
X0575Y03804*
Y03788*
X05758Y0378*
Y03829D02*
X0575Y03838D01*
Y03854*
X05758Y03863*
X05791*
X058Y03854*
Y03838*
X05791Y03829*
X05758*
X059Y0378D02*
Y03796D01*
Y03788*
X0585*
X05858Y0378*
X05891Y03821D02*
X059Y03829D01*
Y03846*
X05891Y03854*
X05858*
X0585Y03846*
Y03829*
X05858Y03821*
X05866*
X05875Y03829*
Y03854*
X059Y0272D02*
Y02736D01*
Y02728*
X0585*
X05858Y0272*
X058Y02753D02*
Y0272D01*
X05766Y02753*
X05758*
X0575Y02744*
Y02728*
X05758Y0272*
X0505Y03813D02*
Y0378D01*
X05016Y03813*
X05008*
X05Y03804*
Y03788*
X05008Y0378*
Y03829D02*
X05Y03838D01*
Y03854*
X05008Y03863*
X05041*
X0505Y03854*
Y03838*
X05041Y03829*
X05008*
X0515Y0378D02*
Y03796D01*
Y03788*
X051*
X05108Y0378*
X05141Y03821D02*
X0515Y03829D01*
Y03846*
X05141Y03854*
X05108*
X051Y03846*
Y03829*
X05108Y03821*
X05116*
X05125Y03829*
Y03854*
X0515Y0272D02*
Y02736D01*
Y02728*
X051*
X05108Y0272*
X0505Y02753D02*
Y0272D01*
X05016Y02753*
X05008*
X05Y02744*
Y02728*
X05008Y0272*
X043Y03813D02*
Y0378D01*
X04266Y03813*
X04258*
X0425Y03804*
Y03788*
X04258Y0378*
Y03829D02*
X0425Y03838D01*
Y03854*
X04258Y03863*
X04291*
X043Y03854*
Y03838*
X04291Y03829*
X04258*
X044Y0378D02*
Y03796D01*
Y03788*
X0435*
X04358Y0378*
X04391Y03821D02*
X044Y03829D01*
Y03846*
X04391Y03854*
X04358*
X0435Y03846*
Y03829*
X04358Y03821*
X04366*
X04375Y03829*
Y03854*
X044Y0272D02*
Y02736D01*
Y02728*
X0435*
X04358Y0272*
X043Y02753D02*
Y0272D01*
X04266Y02753*
X04258*
X0425Y02744*
Y02728*
X04258Y0272*
X0355Y03813D02*
Y0378D01*
X03516Y03813*
X03508*
X035Y03804*
Y03788*
X03508Y0378*
Y03829D02*
X035Y03838D01*
Y03854*
X03508Y03863*
X03541*
X0355Y03854*
Y03838*
X03541Y03829*
X03508*
X0365Y0378D02*
Y03796D01*
Y03788*
X036*
X03608Y0378*
X03641Y03821D02*
X0365Y03829D01*
Y03846*
X03641Y03854*
X03608*
X036Y03846*
Y03829*
X03608Y03821*
X03616*
X03625Y03829*
Y03854*
X0365Y0272D02*
Y02736D01*
Y02728*
X036*
X03608Y0272*
X0355Y02753D02*
Y0272D01*
X03516Y02753*
X03508*
X035Y02744*
Y02728*
X03508Y0272*
X028Y03813D02*
Y0378D01*
X02766Y03813*
X02758*
X0275Y03804*
Y03788*
X02758Y0378*
Y03829D02*
X0275Y03838D01*
Y03854*
X02758Y03863*
X02791*
X028Y03854*
Y03838*
X02791Y03829*
X02758*
X029Y0378D02*
Y03796D01*
Y03788*
X0285*
X02858Y0378*
X02891Y03821D02*
X029Y03829D01*
Y03846*
X02891Y03854*
X02858*
X0285Y03846*
Y03829*
X02858Y03821*
X02866*
X02875Y03829*
Y03854*
X029Y0272D02*
Y02736D01*
Y02728*
X0285*
X02858Y0272*
X028Y02753D02*
Y0272D01*
X02766Y02753*
X02758*
X0275Y02744*
Y02728*
X02758Y0272*
X0205Y03813D02*
Y0378D01*
X02016Y03813*
X02008*
X02Y03804*
Y03788*
X02008Y0378*
Y03829D02*
X02Y03838D01*
Y03854*
X02008Y03863*
X02041*
X0205Y03854*
Y03838*
X02041Y03829*
X02008*
X0215Y0378D02*
Y03796D01*
Y03788*
X021*
X02108Y0378*
X02141Y03821D02*
X0215Y03829D01*
Y03846*
X02141Y03854*
X02108*
X021Y03846*
Y03829*
X02108Y03821*
X02116*
X02125Y03829*
Y03854*
X0215Y0272D02*
Y02736D01*
Y02728*
X021*
X02108Y0272*
X0205Y02753D02*
Y0272D01*
X02016Y02753*
X02008*
X02Y02744*
Y02728*
X02008Y0272*
X04673Y07305D02*
X0464D01*
X04673Y07338*
Y07346*
X04664Y07354*
X04648*
X0464Y07346*
Y07205D02*
X04656D01*
X04648*
Y07254*
X0464Y07246*
X06033Y07205D02*
X06D01*
X06033Y07238*
Y07246*
X06024Y07254*
X06008*
X06Y07246*
X06083Y07254D02*
X06049D01*
Y07229*
X06066Y07238*
X06074*
X06083Y07229*
Y07213*
X06074Y07205*
X06058*
X06049Y07213*
X06033Y07305D02*
X06D01*
X06033Y07338*
Y07346*
X06024Y07354*
X06008*
X06Y07346*
X06083Y07354D02*
X06066Y07346D01*
X06049Y07329*
Y07313*
X06058Y07305*
X06074*
X06083Y07313*
Y07321*
X06074Y07329*
X06049*
G54D67*
X08685Y0737D02*
D01*
X08685Y07371*
X08685Y07371*
X08685Y07371*
X08685Y07371*
X08685Y07372*
X08685Y07372*
X08685Y07372*
X08685Y07372*
X08684Y07373*
X08684Y07373*
X08684Y07373*
X08684Y07373*
X08684Y07373*
X08683Y07374*
X08683Y07374*
X08683Y07374*
X08683Y07374*
X08682Y07374*
X08682Y07374*
X08682Y07374*
X08682Y07374*
X08681Y07374*
X08681*
X08681Y07374*
X08681Y07374*
X0868Y07374*
X0868Y07374*
X0868Y07374*
X08679Y07374*
X08679Y07374*
X08679Y07374*
X08679Y07373*
X08679Y07373*
X08678Y07373*
X08678Y07373*
X08678Y07373*
X08678Y07372*
X08678Y07372*
X08678Y07372*
X08677Y07372*
X08677Y07371*
X08677Y07371*
X08677Y07371*
X08677Y07371*
X08677Y0737*
X08677Y0737*
X08677Y0737*
X08677Y0737*
X08677Y07369*
X08677Y07369*
X08678Y07369*
X08678Y07369*
X08678Y07368*
X08678Y07368*
X08678Y07368*
X08678Y07368*
X08679Y07367*
X08679Y07367*
X08679Y07367*
X08679Y07367*
X08679Y07367*
X0868Y07367*
X0868Y07367*
X0868Y07367*
X08681Y07366*
X08681Y07366*
X08681Y07366*
X08681*
X08682Y07366*
X08682Y07366*
X08682Y07367*
X08682Y07367*
X08683Y07367*
X08683Y07367*
X08683Y07367*
X08683Y07367*
X08684Y07367*
X08684Y07367*
X08684Y07368*
X08684Y07368*
X08684Y07368*
X08685Y07368*
X08685Y07369*
X08685Y07369*
X08685Y07369*
X08685Y07369*
X08685Y0737*
X08685Y0737*
X08685Y0737*
X08685Y0737*
X09414Y0725D02*
D01*
X09414Y07252*
X09413Y07255*
X09413Y07258*
X09412Y0726*
X09411Y07263*
X0941Y07266*
X09409Y07268*
X09408Y0727*
X09406Y07273*
X09405Y07275*
X09403Y07277*
X09401Y07279*
X09399Y07281*
X09397Y07282*
X09394Y07284*
X09392Y07285*
X09389Y07286*
X09387Y07287*
X09384Y07288*
X09381Y07288*
X09379Y07289*
X09376Y07289*
X09373*
X0937Y07289*
X09368Y07288*
X09365Y07288*
X09362Y07287*
X0936Y07286*
X09357Y07285*
X09355Y07284*
X09352Y07282*
X0935Y07281*
X09348Y07279*
X09346Y07277*
X09344Y07275*
X09343Y07273*
X09341Y0727*
X0934Y07268*
X09339Y07266*
X09338Y07263*
X09337Y0726*
X09336Y07258*
X09336Y07255*
X09335Y07252*
X09335Y0725*
X09335Y07247*
X09336Y07244*
X09336Y07241*
X09337Y07239*
X09338Y07236*
X09339Y07233*
X0934Y07231*
X09341Y07229*
X09343Y07226*
X09344Y07224*
X09346Y07222*
X09348Y0722*
X0935Y07218*
X09352Y07217*
X09355Y07215*
X09357Y07214*
X0936Y07213*
X09362Y07212*
X09365Y07211*
X09368Y07211*
X0937Y0721*
X09373Y0721*
X09376*
X09379Y0721*
X09381Y07211*
X09384Y07211*
X09387Y07212*
X09389Y07213*
X09392Y07214*
X09394Y07215*
X09397Y07217*
X09399Y07218*
X09401Y0722*
X09403Y07222*
X09405Y07224*
X09406Y07226*
X09408Y07229*
X09409Y07231*
X0941Y07233*
X09411Y07236*
X09412Y07239*
X09413Y07241*
X09413Y07244*
X09414Y07247*
X09414Y0725*
X04314D02*
D01*
X04314Y07252*
X04313Y07255*
X04313Y07258*
X04312Y0726*
X04311Y07263*
X0431Y07266*
X04309Y07268*
X04308Y0727*
X04306Y07273*
X04305Y07275*
X04303Y07277*
X04301Y07279*
X04299Y07281*
X04297Y07282*
X04294Y07284*
X04292Y07285*
X04289Y07286*
X04287Y07287*
X04284Y07288*
X04281Y07288*
X04279Y07289*
X04276Y07289*
X04273*
X0427Y07289*
X04268Y07288*
X04265Y07288*
X04262Y07287*
X0426Y07286*
X04257Y07285*
X04255Y07284*
X04252Y07282*
X0425Y07281*
X04248Y07279*
X04246Y07277*
X04244Y07275*
X04243Y07273*
X04241Y0727*
X0424Y07268*
X04239Y07266*
X04238Y07263*
X04237Y0726*
X04236Y07258*
X04236Y07255*
X04235Y07252*
X04235Y0725*
X04235Y07247*
X04236Y07244*
X04236Y07241*
X04237Y07239*
X04238Y07236*
X04239Y07233*
X0424Y07231*
X04241Y07229*
X04243Y07226*
X04244Y07224*
X04246Y07222*
X04248Y0722*
X0425Y07218*
X04252Y07217*
X04255Y07215*
X04257Y07214*
X0426Y07213*
X04262Y07212*
X04265Y07211*
X04268Y07211*
X0427Y0721*
X04273Y0721*
X04276*
X04279Y0721*
X04281Y07211*
X04284Y07211*
X04287Y07212*
X04289Y07213*
X04292Y07214*
X04294Y07215*
X04297Y07217*
X04299Y07218*
X04301Y0722*
X04303Y07222*
X04305Y07224*
X04306Y07226*
X04308Y07229*
X04309Y07231*
X0431Y07233*
X04311Y07236*
X04312Y07239*
X04313Y07241*
X04313Y07244*
X04314Y07247*
X04314Y0725*
X0682Y01D02*
Y01042D01*
X06679Y01D02*
X0682D01*
X06679Y01042D02*
X0682D01*
X0671Y011D02*
X0679D01*
X0665Y0116D02*
Y0123D01*
X0672Y013D02*
X0679D01*
X0685Y0116D02*
Y0124D01*
X0665Y0104D02*
X0685D01*
X0665D02*
X0685D01*
X06679Y01D02*
Y01042D01*
X08695Y073D02*
X08755D01*
X08735D02*
X08755D01*
X08725Y0729D02*
X08735Y073D01*
X08725Y0729D02*
X08735D01*
Y0731*
X08725Y073D02*
X08735Y0731D01*
X08715Y073D02*
X08725D01*
X08715D02*
X08735Y0732D01*
Y0728D02*
Y0732D01*
X08715Y073D02*
X08735Y0728D01*
X08715Y073D02*
Y0732D01*
Y0728D02*
Y0732D01*
Y0728D02*
Y073D01*
X08795Y0726D02*
X08815D01*
Y0734*
X08795D02*
X08815D01*
X08635D02*
X08655D01*
X08635Y0726D02*
Y0734D01*
Y0726D02*
X08655D01*
X08705D02*
X08745D01*
X08705Y0734D02*
X08745D01*
X09453Y07151D02*
Y07348D01*
X09296D02*
X09453D01*
X09296Y07151D02*
Y07348D01*
Y07151D02*
X09453D01*
X062Y03374D02*
Y07374D01*
Y03374D02*
X0845D01*
Y07374*
X062D02*
X0845D01*
X06347Y04468D02*
Y06193D01*
Y04468D02*
X06363D01*
X06552D01*
Y04606*
Y06287*
X06347D02*
X06552D01*
X06347D02*
D01*
Y06189D02*
Y06287D01*
X06607Y0615D02*
D01*
X06627Y06169*
Y0613D02*
Y06169D01*
X06607Y0615D02*
X06627Y0613D01*
X06607Y0615D02*
D01*
X08357D02*
D01*
X08377Y0613*
Y06169*
X08357Y0615D02*
X08377Y06169D01*
X08357Y0615D02*
D01*
X08098Y06189D02*
Y06287D01*
X08302*
Y04606D02*
Y06287D01*
Y04468D02*
Y04606D01*
X08113Y04468D02*
X08302D01*
X08098D02*
X08113D01*
X08098D02*
Y06193D01*
X0143Y0647D02*
X0156D01*
X0157*
X0143Y0683D02*
X0157D01*
X0136Y0647D02*
X0143D01*
X0136D02*
Y0653D01*
Y0654*
X0134Y0656D02*
X0136Y0654D01*
X0134Y0656D02*
Y0673D01*
X0136Y0675*
Y0683*
X0143*
X0136Y0654D02*
Y0675D01*
X0157Y0647D02*
X0164D01*
Y0655*
Y0675D02*
Y0683D01*
X0157D02*
X0164D01*
X0816Y01535D02*
Y01615D01*
X0822Y01475D02*
X0829D01*
X0836Y01545D02*
Y01615D01*
X0822Y01675D02*
X083D01*
X0822Y01634D02*
X08299D01*
X08319Y01614*
Y01535D02*
Y01614D01*
X08299Y01515D02*
X08319Y01535D01*
X0822Y01515D02*
X08299D01*
X082Y01535D02*
X0822Y01515D01*
X082Y01535D02*
Y01614D01*
X0822Y01634*
X08979Y01D02*
Y01042D01*
X0895Y0104D02*
X0915D01*
X0895D02*
X0915D01*
Y0116D02*
Y0124D01*
X0902Y013D02*
X0909D01*
X0895Y0116D02*
Y0123D01*
X0901Y011D02*
X0909D01*
X08979Y01042D02*
X0912D01*
X08979Y01D02*
X0912D01*
Y01042*
X0345Y0496D02*
Y0504D01*
X0351Y049D02*
X0358D01*
X0365Y0497D02*
Y0504D01*
X0351Y051D02*
X0359D01*
X0351Y05059D02*
X03589D01*
X03609Y05039*
Y0496D02*
Y05039D01*
X03589Y0494D02*
X03609Y0496D01*
X0351Y0494D02*
X03589D01*
X0349Y0496D02*
X0351Y0494D01*
X0349Y0496D02*
Y05039D01*
X0351Y05059*
X0247Y06415D02*
Y06545D01*
Y06405D02*
Y06415D01*
X0283Y06405D02*
Y06545D01*
X0247D02*
Y06615D01*
X0253*
X0254*
X0256Y06635*
X0273*
X0275Y06615*
X0283*
Y06545D02*
Y06615D01*
X0254D02*
X0275D01*
X0247Y06335D02*
Y06405D01*
Y06335D02*
X0255D01*
X0275D02*
X0283D01*
Y06405*
X04353Y07151D02*
Y07348D01*
X04196D02*
X04353D01*
X04196Y07151D02*
Y07348D01*
Y07151D02*
X04353D01*
X09495Y0489D02*
Y0502D01*
Y0488D02*
Y0489D01*
X09855Y0488D02*
Y0502D01*
X09495D02*
Y0509D01*
X09555*
X09565*
X09585Y0511*
X09755*
X09775Y0509*
X09855*
Y0502D02*
Y0509D01*
X09565D02*
X09775D01*
X09495Y0481D02*
Y0488D01*
Y0481D02*
X09575D01*
X09775D02*
X09855D01*
Y0488*
X0177Y06873D02*
X02127D01*
X01772Y07417D02*
X02127D01*
Y06873D02*
Y07417D01*
X0177Y06873D02*
Y07417D01*
X01772Y07386D02*
X02127D01*
X09805Y01605D02*
Y01735D01*
Y01745*
X09445Y01605D02*
Y01745D01*
X09805Y01535D02*
Y01605D01*
X09745Y01535D02*
X09805D01*
X09735D02*
X09745D01*
X09715Y01515D02*
X09735Y01535D01*
X09545Y01515D02*
X09715D01*
X09525Y01535D02*
X09545Y01515D01*
X09445Y01535D02*
X09525D01*
X09445D02*
Y01605D01*
X09525Y01535D02*
X09735D01*
X09805Y01745D02*
Y01815D01*
X09725D02*
X09805D01*
X09445D02*
X09525D01*
X09445Y01745D02*
Y01815D01*
X02025Y04335D02*
Y04415D01*
X02085Y04275D02*
X02155D01*
X02225Y04345D02*
Y04415D01*
X02085Y04475D02*
X02165D01*
X02085Y04434D02*
X02164D01*
X02184Y04414*
Y04335D02*
Y04414D01*
X02164Y04315D02*
X02184Y04335D01*
X02085Y04315D02*
X02164D01*
X02065Y04335D02*
X02085Y04315D01*
X02065Y04335D02*
Y04414D01*
X02085Y04434*
X02775Y04335D02*
Y04415D01*
X02835Y04275D02*
X02905D01*
X02975Y04345D02*
Y04415D01*
X02835Y04475D02*
X02915D01*
X02835Y04434D02*
X02914D01*
X02934Y04414*
Y04335D02*
Y04414D01*
X02914Y04315D02*
X02934Y04335D01*
X02835Y04315D02*
X02914D01*
X02815Y04335D02*
X02835Y04315D01*
X02815Y04335D02*
Y04414D01*
X02835Y04434*
X03525Y04335D02*
Y04415D01*
X03585Y04275D02*
X03655D01*
X03725Y04345D02*
Y04415D01*
X03585Y04475D02*
X03665D01*
X03585Y04434D02*
X03664D01*
X03684Y04414*
Y04335D02*
Y04414D01*
X03664Y04315D02*
X03684Y04335D01*
X03585Y04315D02*
X03664D01*
X03565Y04335D02*
X03585Y04315D01*
X03565Y04335D02*
Y04414D01*
X03585Y04434*
X04275Y04335D02*
Y04415D01*
X04335Y04275D02*
X04405D01*
X04475Y04345D02*
Y04415D01*
X04335Y04475D02*
X04415D01*
X04335Y04434D02*
X04414D01*
X04434Y04414*
Y04335D02*
Y04414D01*
X04414Y04315D02*
X04434Y04335D01*
X04335Y04315D02*
X04414D01*
X04315Y04335D02*
X04335Y04315D01*
X04315Y04335D02*
Y04414D01*
X04335Y04434*
X05025Y04335D02*
Y04415D01*
X05085Y04275D02*
X05155D01*
X05225Y04345D02*
Y04415D01*
X05085Y04475D02*
X05165D01*
X05085Y04434D02*
X05164D01*
X05184Y04414*
Y04335D02*
Y04414D01*
X05164Y04315D02*
X05184Y04335D01*
X05085Y04315D02*
X05164D01*
X05065Y04335D02*
X05085Y04315D01*
X05065Y04335D02*
Y04414D01*
X05085Y04434*
X05775Y04335D02*
Y04415D01*
X05835Y04275D02*
X05905D01*
X05975Y04345D02*
Y04415D01*
X05835Y04475D02*
X05915D01*
X05835Y04434D02*
X05914D01*
X05934Y04414*
Y04335D02*
Y04414D01*
X05914Y04315D02*
X05934Y04335D01*
X05835Y04315D02*
X05914D01*
X05815Y04335D02*
X05835Y04315D01*
X05815Y04335D02*
Y04414D01*
X05835Y04434*
X01515Y07231D02*
X01528Y07244D01*
X01554*
X01568Y07231*
Y07218*
X01554Y07204*
X01541*
X01554*
X01568Y07191*
Y07178*
X01554Y07165*
X01528*
X01515Y07178*
X01648Y07244D02*
X01594D01*
Y07204*
X01621Y07218*
X01634*
X01648Y07204*
Y07178*
X01634Y07165*
X01608*
X01594Y07178*
X01674Y07244D02*
Y07165D01*
X01701Y07191*
X01728Y07165*
Y07244*
X01643Y07349D02*
X0159D01*
Y07309*
X01616Y07323*
X01629*
X01643Y07309*
Y07283*
X01629Y0727*
X01603*
X0159Y07283*
X01669Y07349D02*
Y07296D01*
X01696Y0727*
X01723Y07296*
Y07349*
X0945Y0185D02*
Y01903D01*
X09476Y01929*
X09503Y01903*
Y0185*
Y01889*
X0945*
X09529Y01916D02*
X09543Y01929D01*
X09569*
X09583Y01916*
Y01903*
X09569Y01889*
X09556*
X09569*
X09583Y01876*
Y01863*
X09569Y0185*
X09543*
X09529Y01863*
X09609Y0185D02*
Y01863D01*
X09623*
Y0185*
X09609*
X09676Y01916D02*
X09689Y01929D01*
X09716*
X09729Y01916*
Y01903*
X09716Y01889*
X09703*
X09716*
X09729Y01876*
Y01863*
X09716Y0185*
X09689*
X09676Y01863*
X09756Y01929D02*
Y01876D01*
X09783Y0185*
X09809Y01876*
Y01929*
X095Y05229D02*
Y0515D01*
X09539*
X09553Y05163*
Y05216*
X09539Y05229*
X095*
X09579Y0515D02*
X09606D01*
X09593*
Y05229*
X09579Y05216*
X09646Y0515D02*
Y05163D01*
X09659*
Y0515*
X09646*
X09713Y05216D02*
X09726Y05229D01*
X09753*
X09766Y05216*
Y05203*
X09753Y05189*
X09766Y05176*
Y05163*
X09753Y0515*
X09726*
X09713Y05163*
Y05176*
X09726Y05189*
X09713Y05203*
Y05216*
X09726Y05189D02*
X09753D01*
X09793Y05229D02*
Y05176D01*
X09819Y0515*
X09846Y05176*
Y05229*
X025Y06304D02*
Y06225D01*
X02539*
X02553Y06238*
Y06291*
X02539Y06304*
X025*
X02579Y06291D02*
X02593Y06304D01*
X02619*
X02633Y06291*
Y06278*
X02619Y06264*
X02606*
X02619*
X02633Y06251*
Y06238*
X02619Y06225*
X02593*
X02579Y06238*
X02659Y06225D02*
Y06238D01*
X02673*
Y06225*
X02659*
X02726Y06291D02*
X02739Y06304D01*
X02766*
X02779Y06291*
Y06278*
X02766Y06264*
X02753*
X02766*
X02779Y06251*
Y06238*
X02766Y06225*
X02739*
X02726Y06238*
X02806Y06304D02*
Y06251D01*
X02833Y06225*
X02859Y06251*
Y06304*
X01503Y06454D02*
X0145D01*
Y06414*
X01476Y06428*
X01489*
X01503Y06414*
Y06388*
X01489Y06375*
X01463*
X0145Y06388*
X01529Y06454D02*
Y06401D01*
X01556Y06375*
X01583Y06401*
Y06454*
X06989Y01159D02*
X06969D01*
X06979*
Y0111*
X06969Y011*
X0696*
X0695Y0111*
X07009Y01159D02*
X07049D01*
Y01149*
X07009Y0111*
Y011*
X09064Y01899D02*
X09054Y01909D01*
X09035*
X09025Y01899*
Y0186*
X09035Y0185*
X09054*
X09064Y0186*
X09084Y01899D02*
X09094Y01909D01*
X09114*
X09124Y01899*
Y01889*
X09114Y01879*
X09104*
X09114*
X09124Y01869*
Y0186*
X09114Y0185*
X09094*
X09084Y0186*
X09144Y0184D02*
X09184D01*
X09204Y0185D02*
X09224D01*
X09214*
Y01909*
X09204Y01899*
X08789Y01674D02*
X08779Y01684D01*
X0876*
X0875Y01674*
Y01635*
X0876Y01625*
X08779*
X08789Y01635*
X08809Y01625D02*
X08829D01*
X08819*
Y01684*
X08809Y01674*
X08859Y01615D02*
X08899D01*
X08919Y01625D02*
X08939D01*
X08929*
Y01684*
X08919Y01674*
X09775Y04575D02*
Y04634D01*
X09804*
X09814Y04624*
Y04604*
X09804Y04594*
X09775*
X09794D02*
X09814Y04575D01*
X09834D02*
X09854D01*
X09844*
Y04634*
X09834Y04624*
X09884D02*
X09894Y04634D01*
X09914*
X09924Y04624*
Y04585*
X09914Y04575*
X09894*
X09884Y04585*
Y04624*
X01625Y0615D02*
Y06209D01*
X01654*
X01664Y06199*
Y06179*
X01654Y06169*
X01625*
X01644D02*
X01664Y0615D01*
X01684Y06209D02*
X01724D01*
Y06199*
X01684Y0616*
Y0615*
X0255Y04959D02*
Y0491D01*
X0256Y049*
X02579*
X02589Y0491*
Y04959*
X02609Y049D02*
X02629D01*
X02619*
Y04959*
X02609Y04949*
X02699Y04959D02*
X02659D01*
Y04929*
X02679Y04939*
X02689*
X02699Y04929*
Y0491*
X02689Y049*
X02669*
X02659Y0491*
X03005Y05154D02*
Y05105D01*
X03015Y05095*
X03034*
X03044Y05105*
Y05154*
X03064Y05095D02*
X03084D01*
X03074*
Y05154*
X03064Y05144*
X03144Y05095D02*
Y05154D01*
X03114Y05124*
X03154*
X02275Y04959D02*
Y0491D01*
X02285Y049*
X02304*
X02314Y0491*
Y04959*
X02334Y049D02*
X02354D01*
X02344*
Y04959*
X02334Y04949*
X02384D02*
X02394Y04959D01*
X02414*
X02424Y04949*
Y04939*
X02414Y04929*
X02404*
X02414*
X02424Y04919*
Y0491*
X02414Y049*
X02394*
X02384Y0491*
X03827Y05839D02*
Y05789D01*
X03837Y05779*
X03857*
X03867Y05789*
Y05839*
X03887Y05779D02*
X03907D01*
X03897*
Y05839*
X03887Y05829*
X03977Y05779D02*
X03937D01*
X03977Y05819*
Y05829*
X03967Y05839*
X03947*
X03937Y05829*
X04452Y05839D02*
Y05789D01*
X04462Y05779*
X04482*
X04492Y05789*
Y05839*
X04512Y05779D02*
X04532D01*
X04522*
Y05839*
X04512Y05829*
X04562Y05779D02*
X04582D01*
X04572*
Y05839*
X04562Y05829*
X05077Y05839D02*
Y05789D01*
X05087Y05779*
X05107*
X05117Y05789*
Y05839*
X05137Y05779D02*
X05157D01*
X05147*
Y05839*
X05137Y05829*
X05187D02*
X05197Y05839D01*
X05217*
X05227Y05829*
Y05789*
X05217Y05779*
X05197*
X05187Y05789*
Y05829*
X06196Y07468D02*
Y07419D01*
X06206Y07409*
X06225*
X06235Y07419*
Y07468*
X06255Y07419D02*
X06265Y07409D01*
X06285*
X06295Y07419*
Y07458*
X06285Y07468*
X06265*
X06255Y07458*
Y07448*
X06265Y07438*
X06295*
X0445Y06709D02*
Y0666D01*
X0446Y0665*
X04479*
X04489Y0666*
Y06709*
X04509Y06699D02*
X04519Y06709D01*
X04539*
X04549Y06699*
Y06689*
X04539Y06679*
X04549Y06669*
Y0666*
X04539Y0665*
X04519*
X04509Y0666*
Y06669*
X04519Y06679*
X04509Y06689*
Y06699*
X04519Y06679D02*
X04539D01*
X04275Y06734D02*
Y06685D01*
X04285Y06675*
X04304*
X04314Y06685*
Y06734*
X04334D02*
X04374D01*
Y06724*
X04334Y06685*
Y06675*
X1Y04509D02*
Y0446D01*
X1001Y0445*
X10029*
X10039Y0446*
Y04509*
X10099D02*
X10079Y04499D01*
X10059Y04479*
Y0446*
X10069Y0445*
X10089*
X10099Y0446*
Y04469*
X10089Y04479*
X10059*
X09175Y02634D02*
Y02585D01*
X09185Y02575*
X09204*
X09214Y02585*
Y02634*
X09274D02*
X09234D01*
Y02604*
X09254Y02614*
X09264*
X09274Y02604*
Y02585*
X09264Y02575*
X09244*
X09234Y02585*
X01875Y06334D02*
Y06285D01*
X01885Y06275*
X01904*
X01914Y06285*
Y06334*
X01964Y06275D02*
Y06334D01*
X01934Y06304*
X01974*
X0776Y02234D02*
Y02185D01*
X0777Y02175*
X07789*
X07799Y02185*
Y02234*
X07819Y02224D02*
X07829Y02234D01*
X07849*
X07859Y02224*
Y02214*
X07849Y02204*
X07839*
X07849*
X07859Y02194*
Y02185*
X07849Y02175*
X07829*
X07819Y02185*
X0806Y03184D02*
Y03135D01*
X0807Y03125*
X08089*
X08099Y03135*
Y03184*
X08159Y03125D02*
X08119D01*
X08159Y03164*
Y03174*
X08149Y03184*
X08129*
X08119Y03174*
X08Y01509D02*
Y0146D01*
X0801Y0145*
X08029*
X08039Y0146*
Y01509*
X08059Y0145D02*
X08079D01*
X08069*
Y01509*
X08059Y01499*
X09275Y06409D02*
X09314D01*
X09294*
Y0635*
X09334D02*
Y06409D01*
X09364*
X09374Y06399*
Y06379*
X09364Y06369*
X09334*
X09394Y0635D02*
X09414D01*
X09404*
Y06409*
X09394Y06399*
X09474Y0635D02*
Y06409D01*
X09444Y06379*
X09484*
X0568Y06909D02*
X05719D01*
X05699*
Y0685*
X05739D02*
Y06909D01*
X05769*
X05779Y06899*
Y06879*
X05769Y06869*
X05739*
X05799Y0685D02*
X05819D01*
X05809*
Y06909*
X05799Y06899*
X05849D02*
X05859Y06909D01*
X05879*
X05889Y06899*
Y06889*
X05879Y06879*
X05869*
X05879*
X05889Y06869*
Y0686*
X05879Y0685*
X05859*
X05849Y0686*
X09275Y06309D02*
X09314D01*
X09294*
Y0625*
X09334D02*
Y06309D01*
X09364*
X09374Y06299*
Y06279*
X09364Y06269*
X09334*
X09394Y0625D02*
X09414D01*
X09404*
Y06309*
X09394Y06299*
X09484Y0625D02*
X09444D01*
X09484Y06289*
Y06299*
X09474Y06309*
X09454*
X09444Y06299*
X09275Y06184D02*
X09314D01*
X09294*
Y06125*
X09334D02*
Y06184D01*
X09364*
X09374Y06174*
Y06154*
X09364Y06144*
X09334*
X09394Y06125D02*
X09414D01*
X09404*
Y06184*
X09394Y06174*
X09444Y06125D02*
X09464D01*
X09454*
Y06184*
X09444Y06174*
X035Y0563D02*
X0354D01*
X0352*
Y0557*
X0356D02*
Y0563D01*
X0359*
X036Y0562*
Y056*
X0359Y0559*
X0356*
X0362Y0557D02*
X0364D01*
X0363*
Y0563*
X0362Y0562*
X0367D02*
X0368Y0563D01*
X037*
X0371Y0562*
Y0558*
X037Y0557*
X0368*
X0367Y0558*
Y0562*
X04575Y06305D02*
X04615D01*
X04595*
Y06245*
X04635D02*
Y06305D01*
X04665*
X04675Y06295*
Y06275*
X04665Y06265*
X04635*
X04695Y06255D02*
X04705Y06245D01*
X04725*
X04735Y06255*
Y06295*
X04725Y06305*
X04705*
X04695Y06295*
Y06285*
X04705Y06275*
X04735*
X09644Y06398D02*
X09683D01*
X09663*
Y06339*
X09703D02*
Y06398D01*
X09733*
X09743Y06388*
Y06368*
X09733Y06358*
X09703*
X09763Y06388D02*
X09773Y06398D01*
X09793*
X09803Y06388*
Y06378*
X09793Y06368*
X09803Y06358*
Y06349*
X09793Y06339*
X09773*
X09763Y06349*
Y06358*
X09773Y06368*
X09763Y06378*
Y06388*
X09773Y06368D02*
X09793D01*
X05475Y05559D02*
X05514D01*
X05494*
Y055*
X05534D02*
Y05559D01*
X05564*
X05574Y05549*
Y05529*
X05564Y05519*
X05534*
X05594Y05559D02*
X05634D01*
Y05549*
X05594Y0551*
Y055*
X01575Y05555D02*
X01615D01*
X01595*
Y05495*
X01635D02*
Y05555D01*
X01665*
X01675Y05545*
Y05525*
X01665Y05515*
X01635*
X01735Y05555D02*
X01715Y05545D01*
X01695Y05525*
Y05505*
X01705Y05495*
X01725*
X01735Y05505*
Y05515*
X01725Y05525*
X01695*
X0475Y0128D02*
X0479D01*
X0477*
Y0122*
X0481D02*
Y0128D01*
X0484*
X0485Y0127*
Y0125*
X0484Y0124*
X0481*
X0491Y0128D02*
X0487D01*
Y0125*
X0489Y0126*
X049*
X0491Y0125*
Y0123*
X049Y0122*
X0488*
X0487Y0123*
X0975Y0348D02*
X0979D01*
X0977*
Y0342*
X0981D02*
Y0348D01*
X0984*
X0985Y0347*
Y0345*
X0984Y0344*
X0981*
X099Y0342D02*
Y0348D01*
X0987Y0345*
X0991*
X0165Y0128D02*
X0169D01*
X0167*
Y0122*
X0171D02*
Y0128D01*
X0174*
X0175Y0127*
Y0125*
X0174Y0124*
X0171*
X0177Y0127D02*
X0178Y0128D01*
X018*
X0181Y0127*
Y0126*
X018Y0125*
X0179*
X018*
X0181Y0124*
Y0123*
X018Y0122*
X0178*
X0177Y0123*
X09325Y02009D02*
X09364D01*
X09344*
Y0195*
X09384D02*
Y02009D01*
X09414*
X09424Y01999*
Y01979*
X09414Y01969*
X09384*
X09484Y0195D02*
X09444D01*
X09484Y01989*
Y01999*
X09474Y02009*
X09454*
X09444Y01999*
X0645Y0218D02*
X0649D01*
X0647*
Y0212*
X0651D02*
Y0218D01*
X0654*
X0655Y0217*
Y0215*
X0654Y0214*
X0651*
X0657Y0212D02*
X0659D01*
X0658*
Y0218*
X0657Y0217*
X06805Y01977D02*
X06834Y02005D01*
X06819Y01991*
X06862Y01949*
X0689Y01977D02*
X06904Y01991D01*
X06897Y01984*
X06855Y02026*
Y02012*
X06933Y02005D02*
X06961Y02033D01*
X06996Y02083D02*
X06968Y02055D01*
Y02111*
X06961Y02118*
X06947*
X06933Y02104*
Y0209*
X08842Y02192D02*
X0887Y02164D01*
X08856Y02178*
X08814Y02135*
X08842Y02107D02*
X08856Y02093D01*
X08849Y021*
X08891Y02142*
X08877*
X0887Y02065D02*
X08898Y02036D01*
X0892Y02029D02*
X08934Y02015D01*
X08927Y02022*
X08969Y02065*
X08955*
X09214Y07099D02*
X09204Y07109D01*
X09185*
X09175Y07099*
Y07089*
X09185Y07079*
X09204*
X09214Y07069*
Y0706*
X09204Y0705*
X09185*
X09175Y0706*
X09234Y07109D02*
Y0705D01*
X09254Y07069*
X09274Y0705*
Y07109*
X09334Y0705D02*
X09294D01*
X09334Y07089*
Y07099*
X09324Y07109*
X09304*
X09294Y07099*
X04244Y07109D02*
X04234Y07119D01*
X04215*
X04205Y07109*
Y07099*
X04215Y07089*
X04234*
X04244Y07079*
Y0707*
X04234Y0706*
X04215*
X04205Y0707*
X04264Y07119D02*
Y0706D01*
X04284Y07079*
X04304Y0706*
Y07119*
X04324Y0706D02*
X04344D01*
X04334*
Y07119*
X04324Y07109*
X03325Y049D02*
X03265D01*
Y04929*
X03275Y04939*
X03295*
X03305Y04929*
Y049*
Y04919D02*
X03325Y04939D01*
Y04989D02*
X03265D01*
X03295Y04959*
Y04999*
X03275Y05019D02*
X03265Y05029D01*
Y05049*
X03275Y05059*
X03285*
X03295Y05049*
Y05039*
Y05049*
X03305Y05059*
X03315*
X03325Y05049*
Y05029*
X03315Y05019*
X03011Y05604D02*
Y05663D01*
X0304*
X0305Y05653*
Y05633*
X0304Y05623*
X03011*
X0303D02*
X0305Y05604D01*
X031D02*
Y05663D01*
X0307Y05633*
X0311*
X0317Y05604D02*
X0313D01*
X0317Y05643*
Y05653*
X0316Y05663*
X0314*
X0313Y05653*
X02711Y05604D02*
Y05663D01*
X0274*
X0275Y05653*
Y05633*
X0274Y05623*
X02711*
X0273D02*
X0275Y05604D01*
X028D02*
Y05663D01*
X0277Y05633*
X0281*
X0283Y05604D02*
X0285D01*
X0284*
Y05663*
X0283Y05653*
X08325Y0195D02*
Y02009D01*
X08354*
X08364Y01999*
Y01979*
X08354Y01969*
X08325*
X08344D02*
X08364Y0195D01*
X08414D02*
Y02009D01*
X08384Y01979*
X08424*
X08444Y01999D02*
X08454Y02009D01*
X08474*
X08484Y01999*
Y0196*
X08474Y0195*
X08454*
X08444Y0196*
Y01999*
X08325Y0205D02*
Y02109D01*
X08354*
X08364Y02099*
Y02079*
X08354Y02069*
X08325*
X08344D02*
X08364Y0205D01*
X08384Y02099D02*
X08394Y02109D01*
X08414*
X08424Y02099*
Y02089*
X08414Y02079*
X08404*
X08414*
X08424Y02069*
Y0206*
X08414Y0205*
X08394*
X08384Y0206*
X08444D02*
X08454Y0205D01*
X08474*
X08484Y0206*
Y02099*
X08474Y02109*
X08454*
X08444Y02099*
Y02089*
X08454Y02079*
X08484*
X08225Y0175D02*
X08165D01*
Y01779*
X08175Y01789*
X08195*
X08205Y01779*
Y0175*
Y01769D02*
X08225Y01789D01*
X08175Y01809D02*
X08165Y01819D01*
Y01839*
X08175Y01849*
X08185*
X08195Y01839*
Y01829*
Y01839*
X08205Y01849*
X08215*
X08225Y01839*
Y01819*
X08215Y01809*
X08175Y01869D02*
X08165Y01879D01*
Y01899*
X08175Y01909*
X08185*
X08195Y01899*
X08205Y01909*
X08215*
X08225Y01899*
Y01879*
X08215Y01869*
X08205*
X08195Y01879*
X08185Y01869*
X08175*
X08195Y01879D02*
Y01899D01*
X08325Y0215D02*
Y02209D01*
X08354*
X08364Y02199*
Y02179*
X08354Y02169*
X08325*
X08344D02*
X08364Y0215D01*
X08384Y02199D02*
X08394Y02209D01*
X08414*
X08424Y02199*
Y02189*
X08414Y02179*
X08404*
X08414*
X08424Y02169*
Y0216*
X08414Y0215*
X08394*
X08384Y0216*
X08444Y02209D02*
X08484D01*
Y02199*
X08444Y0216*
Y0215*
X07785Y01825D02*
Y01884D01*
X07814*
X07824Y01874*
Y01854*
X07814Y01844*
X07785*
X07804D02*
X07824Y01825D01*
X07844Y01874D02*
X07854Y01884D01*
X07874*
X07884Y01874*
Y01864*
X07874Y01854*
X07864*
X07874*
X07884Y01844*
Y01835*
X07874Y01825*
X07854*
X07844Y01835*
X07944Y01884D02*
X07924Y01874D01*
X07904Y01854*
Y01835*
X07914Y01825*
X07934*
X07944Y01835*
Y01844*
X07934Y01854*
X07904*
X029Y053D02*
Y05359D01*
X02929*
X02939Y05349*
Y05329*
X02929Y05319*
X029*
X02919D02*
X02939Y053D01*
X02959Y05349D02*
X02969Y05359D01*
X02989*
X02999Y05349*
Y05339*
X02989Y05329*
X02979*
X02989*
X02999Y05319*
Y0531*
X02989Y053*
X02969*
X02959Y0531*
X03059Y05359D02*
X03019D01*
Y05329*
X03039Y05339*
X03049*
X03059Y05329*
Y0531*
X03049Y053*
X03029*
X03019Y0531*
X038Y06805D02*
Y06864D01*
X03829*
X03839Y06854*
Y06834*
X03829Y06824*
X038*
X03819D02*
X03839Y06805D01*
X03859Y06854D02*
X03869Y06864D01*
X03889*
X03899Y06854*
Y06844*
X03889Y06834*
X03879*
X03889*
X03899Y06824*
Y06815*
X03889Y06805*
X03869*
X03859Y06815*
X03949Y06805D02*
Y06864D01*
X03919Y06834*
X03959*
X02985Y068D02*
Y06859D01*
X03014*
X03024Y06849*
Y06829*
X03014Y06819*
X02985*
X03004D02*
X03024Y068D01*
X03044Y06849D02*
X03054Y06859D01*
X03074*
X03084Y06849*
Y06839*
X03074Y06829*
X03064*
X03074*
X03084Y06819*
Y0681*
X03074Y068*
X03054*
X03044Y0681*
X03104Y06849D02*
X03114Y06859D01*
X03134*
X03144Y06849*
Y06839*
X03134Y06829*
X03124*
X03134*
X03144Y06819*
Y0681*
X03134Y068*
X03114*
X03104Y0681*
X03255Y068D02*
Y06859D01*
X03284*
X03294Y06849*
Y06829*
X03284Y06819*
X03255*
X03274D02*
X03294Y068D01*
X03314Y06849D02*
X03324Y06859D01*
X03344*
X03354Y06849*
Y06839*
X03344Y06829*
X03334*
X03344*
X03354Y06819*
Y0681*
X03344Y068*
X03324*
X03314Y0681*
X03414Y068D02*
X03374D01*
X03414Y06839*
Y06849*
X03404Y06859*
X03384*
X03374Y06849*
X03525Y06805D02*
Y06864D01*
X03554*
X03564Y06854*
Y06834*
X03554Y06824*
X03525*
X03544D02*
X03564Y06805D01*
X03584Y06854D02*
X03594Y06864D01*
X03614*
X03624Y06854*
Y06844*
X03614Y06834*
X03604*
X03614*
X03624Y06824*
Y06815*
X03614Y06805*
X03594*
X03584Y06815*
X03644Y06805D02*
X03664D01*
X03654*
Y06864*
X03644Y06854*
X08075Y0165D02*
X08015D01*
Y01679*
X08025Y01689*
X08045*
X08055Y01679*
Y0165*
Y01669D02*
X08075Y01689D01*
X08025Y01709D02*
X08015Y01719D01*
Y01739*
X08025Y01749*
X08035*
X08045Y01739*
Y01729*
Y01739*
X08055Y01749*
X08065*
X08075Y01739*
Y01719*
X08065Y01709*
X08025Y01769D02*
X08015Y01779D01*
Y01799*
X08025Y01809*
X08065*
X08075Y01799*
Y01779*
X08065Y01769*
X08025*
X03945Y07125D02*
Y07184D01*
X03974*
X03984Y07174*
Y07154*
X03974Y07144*
X03945*
X03964D02*
X03984Y07125D01*
X04044D02*
X04004D01*
X04044Y07164*
Y07174*
X04034Y07184*
X04014*
X04004Y07174*
X04064Y07135D02*
X04074Y07125D01*
X04094*
X04104Y07135*
Y07174*
X04094Y07184*
X04074*
X04064Y07174*
Y07164*
X04074Y07154*
X04104*
X031Y07125D02*
Y07184D01*
X03129*
X03139Y07174*
Y07154*
X03129Y07144*
X031*
X03119D02*
X03139Y07125D01*
X03199D02*
X03159D01*
X03199Y07164*
Y07174*
X03189Y07184*
X03169*
X03159Y07174*
X03219D02*
X03229Y07184D01*
X03249*
X03259Y07174*
Y07164*
X03249Y07154*
X03259Y07144*
Y07135*
X03249Y07125*
X03229*
X03219Y07135*
Y07144*
X03229Y07154*
X03219Y07164*
Y07174*
X03229Y07154D02*
X03249D01*
X03375Y0712D02*
Y07179D01*
X03404*
X03414Y07169*
Y07149*
X03404Y07139*
X03375*
X03394D02*
X03414Y0712D01*
X03474D02*
X03434D01*
X03474Y07159*
Y07169*
X03464Y07179*
X03444*
X03434Y07169*
X03494Y07179D02*
X03534D01*
Y07169*
X03494Y0713*
Y0712*
X0365Y07125D02*
Y07184D01*
X03679*
X03689Y07174*
Y07154*
X03679Y07144*
X0365*
X03669D02*
X03689Y07125D01*
X03749D02*
X03709D01*
X03749Y07164*
Y07174*
X03739Y07184*
X03719*
X03709Y07174*
X03809Y07184D02*
X03789Y07174D01*
X03769Y07154*
Y07135*
X03779Y07125*
X03799*
X03809Y07135*
Y07144*
X03799Y07154*
X03769*
X08475Y068D02*
Y06859D01*
X08504*
X08514Y06849*
Y06829*
X08504Y06819*
X08475*
X08494D02*
X08514Y068D01*
X08574D02*
X08534D01*
X08574Y06839*
Y06849*
X08564Y06859*
X08544*
X08534Y06849*
X08634Y06859D02*
X08594D01*
Y06829*
X08614Y06839*
X08624*
X08634Y06829*
Y0681*
X08624Y068*
X08604*
X08594Y0681*
X08675Y068D02*
Y06859D01*
X08704*
X08714Y06849*
Y06829*
X08704Y06819*
X08675*
X08694D02*
X08714Y068D01*
X08774D02*
X08734D01*
X08774Y06839*
Y06849*
X08764Y06859*
X08744*
X08734Y06849*
X08824Y068D02*
Y06859D01*
X08794Y06829*
X08834*
X08875Y068D02*
Y06859D01*
X08904*
X08914Y06849*
Y06829*
X08904Y06819*
X08875*
X08894D02*
X08914Y068D01*
X08974D02*
X08934D01*
X08974Y06839*
Y06849*
X08964Y06859*
X08944*
X08934Y06849*
X08994D02*
X09004Y06859D01*
X09024*
X09034Y06849*
Y06839*
X09024Y06829*
X09014*
X09024*
X09034Y06819*
Y0681*
X09024Y068*
X09004*
X08994Y0681*
X0226Y07095D02*
Y07154D01*
X02289*
X02299Y07144*
Y07124*
X02289Y07114*
X0226*
X02279D02*
X02299Y07095D01*
X02359D02*
X02319D01*
X02359Y07134*
Y07144*
X02349Y07154*
X02329*
X02319Y07144*
X02419Y07095D02*
X02379D01*
X02419Y07134*
Y07144*
X02409Y07154*
X02389*
X02379Y07144*
X09Y073D02*
Y07359D01*
X09029*
X09039Y07349*
Y07329*
X09029Y07319*
X09*
X09019D02*
X09039Y073D01*
X09099D02*
X09059D01*
X09099Y07339*
Y07349*
X09089Y07359*
X09069*
X09059Y07349*
X09119Y073D02*
X09139D01*
X09129*
Y07359*
X09119Y07349*
X09Y07225D02*
Y07284D01*
X09029*
X09039Y07274*
Y07254*
X09029Y07244*
X09*
X09019D02*
X09039Y07225D01*
X09099D02*
X09059D01*
X09099Y07264*
Y07274*
X09089Y07284*
X09069*
X09059Y07274*
X09119D02*
X09129Y07284D01*
X09149*
X09159Y07274*
Y07235*
X09149Y07225*
X09129*
X09119Y07235*
Y07274*
X09Y0715D02*
Y07209D01*
X09029*
X09039Y07199*
Y07179*
X09029Y07169*
X09*
X09019D02*
X09039Y0715D01*
X09059D02*
X09079D01*
X09069*
Y07209*
X09059Y07199*
X09109Y0716D02*
X09119Y0715D01*
X09139*
X09149Y0716*
Y07199*
X09139Y07209*
X09119*
X09109Y07199*
Y07189*
X09119Y07179*
X09149*
X094Y0695D02*
Y07009D01*
X09429*
X09439Y06999*
Y06979*
X09429Y06969*
X094*
X09419D02*
X09439Y0695D01*
X09459D02*
X09479D01*
X09469*
Y07009*
X09459Y06999*
X09509D02*
X09519Y07009D01*
X09539*
X09549Y06999*
Y06989*
X09539Y06979*
X09549Y06969*
Y0696*
X09539Y0695*
X09519*
X09509Y0696*
Y06969*
X09519Y06979*
X09509Y06989*
Y06999*
X09519Y06979D02*
X09539D01*
X0275Y07095D02*
Y07154D01*
X02779*
X02789Y07144*
Y07124*
X02779Y07114*
X0275*
X02769D02*
X02789Y07095D01*
X02809D02*
X02829D01*
X02819*
Y07154*
X02809Y07144*
X02859Y07154D02*
X02899D01*
Y07144*
X02859Y07105*
Y07095*
X0249D02*
Y07154D01*
X02519*
X02529Y07144*
Y07124*
X02519Y07114*
X0249*
X02509D02*
X02529Y07095D01*
X02549D02*
X02569D01*
X02559*
Y07154*
X02549Y07144*
X02639Y07154D02*
X02619Y07144D01*
X02599Y07124*
Y07105*
X02609Y07095*
X02629*
X02639Y07105*
Y07114*
X02629Y07124*
X02599*
X0475Y065D02*
Y06559D01*
X04779*
X04789Y06549*
Y06529*
X04779Y06519*
X0475*
X04769D02*
X04789Y065D01*
X04809D02*
X04829D01*
X04819*
Y06559*
X04809Y06549*
X04899Y06559D02*
X04859D01*
Y06529*
X04879Y06539*
X04889*
X04899Y06529*
Y0651*
X04889Y065*
X04869*
X04859Y0651*
X04325Y065D02*
Y06559D01*
X04354*
X04364Y06549*
Y06529*
X04354Y06519*
X04325*
X04344D02*
X04364Y065D01*
X04384D02*
X04404D01*
X04394*
Y06559*
X04384Y06549*
X04464Y065D02*
Y06559D01*
X04434Y06529*
X04474*
X04575Y06975D02*
Y07034D01*
X04604*
X04614Y07024*
Y07004*
X04604Y06994*
X04575*
X04594D02*
X04614Y06975D01*
X04634D02*
X04654D01*
X04644*
Y07034*
X04634Y07024*
X04684D02*
X04694Y07034D01*
X04714*
X04724Y07024*
Y07014*
X04714Y07004*
X04704*
X04714*
X04724Y06994*
Y06985*
X04714Y06975*
X04694*
X04684Y06985*
X03925Y06675D02*
X03984D01*
Y06645*
X03974Y06635*
X03954*
X03944Y06645*
Y06675*
Y06655D02*
X03925Y06635D01*
Y06615D02*
Y06595D01*
Y06605*
X03984*
X03974Y06615*
X03925Y06525D02*
Y06565D01*
X03964Y06525*
X03974*
X03984Y06535*
Y06555*
X03974Y06565*
X04Y06675D02*
X04059D01*
Y06645*
X04049Y06635*
X04029*
X04019Y06645*
Y06675*
Y06655D02*
X04Y06635D01*
Y06615D02*
Y06595D01*
Y06605*
X04059*
X04049Y06615*
X04Y06565D02*
Y06545D01*
Y06555*
X04059*
X04049Y06565*
X04425Y06975D02*
Y07034D01*
X04454*
X04464Y07024*
Y07004*
X04454Y06994*
X04425*
X04444D02*
X04464Y06975D01*
X04484Y06985D02*
X04494Y06975D01*
X04514*
X04524Y06985*
Y07024*
X04514Y07034*
X04494*
X04484Y07024*
Y07014*
X04494Y07004*
X04524*
X0997Y04635D02*
Y04694D01*
X09999*
X10009Y04684*
Y04664*
X09999Y04654*
X0997*
X09989D02*
X10009Y04635D01*
X10029Y04684D02*
X10039Y04694D01*
X10059*
X10069Y04684*
Y04674*
X10059Y04664*
X10069Y04654*
Y04645*
X10059Y04635*
X10039*
X10029Y04645*
Y04654*
X10039Y04664*
X10029Y04674*
Y04684*
X10039Y04664D02*
X10059D01*
X01625Y0625D02*
Y06309D01*
X01654*
X01664Y06299*
Y06279*
X01654Y06269*
X01625*
X01644D02*
X01664Y0625D01*
X01724Y06309D02*
X01704Y06299D01*
X01684Y06279*
Y0626*
X01694Y0625*
X01714*
X01724Y0626*
Y06269*
X01714Y06279*
X01684*
X06036Y05579D02*
Y05638D01*
X06065*
X06075Y05628*
Y05608*
X06065Y05598*
X06036*
X06055D02*
X06075Y05579D01*
X06135Y05638D02*
X06095D01*
Y05608*
X06115Y05618*
X06125*
X06135Y05608*
Y05589*
X06125Y05579*
X06105*
X06095Y05589*
X07725Y01175D02*
Y01234D01*
X07754*
X07764Y01224*
Y01204*
X07754Y01194*
X07725*
X07744D02*
X07764Y01175D01*
X07814D02*
Y01234D01*
X07784Y01204*
X07824*
X07875Y02325D02*
Y02384D01*
X07904*
X07914Y02374*
Y02354*
X07904Y02344*
X07875*
X07894D02*
X07914Y02325D01*
X07934Y02374D02*
X07944Y02384D01*
X07964*
X07974Y02374*
Y02364*
X07964Y02354*
X07954*
X07964*
X07974Y02344*
Y02335*
X07964Y02325*
X07944*
X07934Y02335*
X0764Y02456D02*
X07682Y02499D01*
X07703Y02478*
Y02463*
X07689Y02449*
X07675*
X07654Y0247*
X07668Y02456D02*
Y02428D01*
X07711Y02386D02*
X07682Y02414D01*
X07739*
X07746Y02421*
Y02435*
X07732Y02449*
X07718*
Y02364D02*
X07746Y02336D01*
X07795Y02301D02*
X07767Y02329D01*
X07824*
X07831Y02336*
Y0235*
X07817Y02364*
X07802*
X08269Y0253D02*
X08227Y02572D01*
X08248Y02593*
X08262*
X08276Y02579*
Y02565*
X08255Y02544*
X08269Y02558D02*
X08297D01*
X0834Y026D02*
X08311Y02572D01*
Y02629*
X08304Y02636*
X0829*
X08276Y02622*
Y02608*
X08361D02*
X08389Y02636D01*
X08396Y02657D02*
X0841Y02671D01*
X08403Y02664*
X08361Y02706*
Y02692*
X07399Y02703D02*
X07442Y02746D01*
X07463Y02724*
Y0271*
X07449Y02696*
X07435*
X07413Y02717*
X07428Y02703D02*
Y02675D01*
X07442Y02661D02*
X07456Y02647D01*
X07449Y02654*
X07491Y02696*
X07477*
X0747Y02618D02*
X07498Y0259D01*
X07548Y02555D02*
X0752Y02583D01*
X07576*
X07583Y0259*
Y02604*
X07569Y02618*
X07555*
X08071Y02357D02*
X08029Y02399D01*
X0805Y0242*
X08064*
X08078Y02406*
Y02392*
X08057Y02371*
X08071Y02385D02*
X08099D01*
X08113Y02399D02*
X08128Y02413D01*
X08121Y02406*
X08078Y02449*
Y02435*
X08156Y02427D02*
X08184Y02456D01*
X08191Y02477D02*
X08205Y02491D01*
X08198Y02484*
X08156Y02526*
Y02512*
X03724Y06955D02*
Y06994D01*
X03714Y07004*
X03695*
X03685Y06994*
Y06955*
X03695Y06945*
X03714*
X03704Y06964D02*
X03724Y06945D01*
X03714D02*
X03724Y06955D01*
X03744D02*
X03754Y06945D01*
X03774*
X03784Y06955*
Y06994*
X03774Y07004*
X03754*
X03744Y06994*
Y06984*
X03754Y06974*
X03784*
X02899Y06955D02*
Y06994D01*
X02889Y07004*
X0287*
X0286Y06994*
Y06955*
X0287Y06945*
X02889*
X02879Y06964D02*
X02899Y06945D01*
X02889D02*
X02899Y06955D01*
X02919Y06994D02*
X02929Y07004D01*
X02949*
X02959Y06994*
Y06984*
X02949Y06974*
X02959Y06964*
Y06955*
X02949Y06945*
X02929*
X02919Y06955*
Y06964*
X02929Y06974*
X02919Y06984*
Y06994*
X02929Y06974D02*
X02949D01*
X03169Y06955D02*
Y06994D01*
X03159Y07004*
X0314*
X0313Y06994*
Y06955*
X0314Y06945*
X03159*
X03149Y06964D02*
X03169Y06945D01*
X03159D02*
X03169Y06955D01*
X03189Y07004D02*
X03229D01*
Y06994*
X03189Y06955*
Y06945*
X03444Y06955D02*
Y06994D01*
X03434Y07004*
X03415*
X03405Y06994*
Y06955*
X03415Y06945*
X03434*
X03424Y06964D02*
X03444Y06945D01*
X03434D02*
X03444Y06955D01*
X03504Y07004D02*
X03484Y06994D01*
X03464Y06974*
Y06955*
X03474Y06945*
X03494*
X03504Y06955*
Y06964*
X03494Y06974*
X03464*
X08549Y0716D02*
Y07199D01*
X08539Y07209*
X0852*
X0851Y07199*
Y0716*
X0852Y0715*
X08539*
X08529Y07169D02*
X08549Y0715D01*
X08539D02*
X08549Y0716D01*
X08609Y07209D02*
X08569D01*
Y07179*
X08589Y07189*
X08599*
X08609Y07179*
Y0716*
X08599Y0715*
X08579*
X08569Y0716*
X08739D02*
Y07199D01*
X08729Y07209*
X0871*
X087Y07199*
Y0716*
X0871Y0715*
X08729*
X08719Y07169D02*
X08739Y0715D01*
X08729D02*
X08739Y0716D01*
X08789Y0715D02*
Y07209D01*
X08759Y07179*
X08799*
X09049Y0704D02*
Y07079D01*
X09039Y07089*
X0902*
X0901Y07079*
Y0704*
X0902Y0703*
X09039*
X09029Y07049D02*
X09049Y0703D01*
X09039D02*
X09049Y0704D01*
X09069Y07079D02*
X09079Y07089D01*
X09099*
X09109Y07079*
Y07069*
X09099Y07059*
X09089*
X09099*
X09109Y07049*
Y0704*
X09099Y0703*
X09079*
X09069Y0704*
X02649Y06855D02*
Y06894D01*
X02639Y06904*
X0262*
X0261Y06894*
Y06855*
X0262Y06845*
X02639*
X02629Y06864D02*
X02649Y06845D01*
X02639D02*
X02649Y06855D01*
X02709Y06845D02*
X02669D01*
X02709Y06884*
Y06894*
X02699Y06904*
X02679*
X02669Y06894*
X02424Y06855D02*
Y06894D01*
X02414Y06904*
X02395*
X02385Y06894*
Y06855*
X02395Y06845*
X02414*
X02404Y06864D02*
X02424Y06845D01*
X02414D02*
X02424Y06855D01*
X02444Y06845D02*
X02464D01*
X02454*
Y06904*
X02444Y06894*
X09895Y03985D02*
Y03925D01*
X09934*
X09994Y03985D02*
X09954D01*
Y03955*
X09974Y03965*
X09984*
X09994Y03955*
Y03935*
X09984Y03925*
X09964*
X09954Y03935*
X0225Y05934D02*
Y05875D01*
X02289*
X02339D02*
Y05934D01*
X02309Y05904*
X02349*
X0754Y01475D02*
X076D01*
Y01514*
X0755Y01534D02*
X0754Y01544D01*
Y01564*
X0755Y01574*
X0756*
X0757Y01564*
Y01554*
Y01564*
X0758Y01574*
X0759*
X076Y01564*
Y01544*
X0759Y01534*
X03114Y05459D02*
X03094D01*
X03104*
Y0541*
X03094Y054*
X03085*
X03075Y0541*
X03134Y054D02*
Y05459D01*
X03164*
X03174Y05449*
Y05429*
X03164Y05419*
X03134*
X03234Y05459D02*
X03214Y05449D01*
X03194Y05429*
Y0541*
X03204Y054*
X03224*
X03234Y0541*
Y05419*
X03224Y05429*
X03194*
X03114Y05234D02*
X03094D01*
X03104*
Y05185*
X03094Y05175*
X03085*
X03075Y05185*
X03134Y05175D02*
Y05234D01*
X03164*
X03174Y05224*
Y05204*
X03164Y05194*
X03134*
X03234Y05234D02*
X03194D01*
Y05204*
X03214Y05214*
X03224*
X03234Y05204*
Y05185*
X03224Y05175*
X03204*
X03194Y05185*
X04814Y06659D02*
X04794D01*
X04804*
Y0661*
X04794Y066*
X04785*
X04775Y0661*
X04834Y066D02*
Y06659D01*
X04864*
X04874Y06649*
Y06629*
X04864Y06619*
X04834*
X04924Y066D02*
Y06659D01*
X04894Y06629*
X04934*
X04264Y06859D02*
X04244D01*
X04254*
Y0681*
X04244Y068*
X04235*
X04225Y0681*
X04284Y068D02*
Y06859D01*
X04314*
X04324Y06849*
Y06829*
X04314Y06819*
X04284*
X04344Y06849D02*
X04354Y06859D01*
X04374*
X04384Y06849*
Y06839*
X04374Y06829*
X04364*
X04374*
X04384Y06819*
Y0681*
X04374Y068*
X04354*
X04344Y0681*
X0815Y02289D02*
Y02269D01*
Y02279*
X082*
X0821Y02269*
Y0226*
X082Y0225*
X0821Y02309D02*
X0815D01*
Y02339*
X0816Y02349*
X0818*
X0819Y02339*
Y02309*
X0821Y02409D02*
Y02369D01*
X0817Y02409*
X0816*
X0815Y02399*
Y02379*
X0816Y02369*
X07949Y01409D02*
X07929D01*
X07939*
Y0136*
X07929Y0135*
X0792*
X0791Y0136*
X07969Y0135D02*
Y01409D01*
X07999*
X08009Y01399*
Y01379*
X07999Y01369*
X07969*
X08029Y0135D02*
X08049D01*
X08039*
Y01409*
X08029Y01399*
X09339Y04859D02*
X09319D01*
X09329*
Y0481*
X09319Y048*
X0931*
X093Y0481*
X09359Y048D02*
X09379D01*
X09369*
Y04859*
X09359Y04849*
X09409D02*
X09419Y04859D01*
X09439*
X09449Y04849*
Y04839*
X09439Y04829*
X09429*
X09439*
X09449Y04819*
Y0481*
X09439Y048*
X09419*
X09409Y0481*
X09589Y01484D02*
X09569D01*
X09579*
Y01435*
X09569Y01425*
X0956*
X0955Y01435*
X09609Y01425D02*
X09629D01*
X09619*
Y01484*
X09609Y01474*
X09699Y01425D02*
X09659D01*
X09699Y01464*
Y01474*
X09689Y01484*
X09669*
X09659Y01474*
X02899Y06374D02*
X02879D01*
X02889*
Y06325*
X02879Y06315*
X0287*
X0286Y06325*
X02919Y06315D02*
X02939D01*
X02929*
Y06374*
X02919Y06364*
X02969Y06315D02*
X02989D01*
X02979*
Y06374*
X02969Y06364*
X09239Y06634D02*
X09219D01*
X09229*
Y06585*
X09219Y06575*
X0921*
X092Y06585*
X09259Y06575D02*
X09279D01*
X09269*
Y06634*
X09259Y06624*
X09309D02*
X09319Y06634D01*
X09339*
X09349Y06624*
Y06585*
X09339Y06575*
X09319*
X09309Y06585*
Y06624*
X05929Y07134D02*
X05909D01*
X05919*
Y07085*
X05909Y07075*
X059*
X0589Y07085*
X05949D02*
X05959Y07075D01*
X05979*
X05989Y07085*
Y07124*
X05979Y07134*
X05959*
X05949Y07124*
Y07114*
X05959Y07104*
X05989*
X08474Y01709D02*
X08454D01*
X08464*
Y0166*
X08454Y0165*
X08445*
X08435Y0166*
X08494Y01699D02*
X08504Y01709D01*
X08524*
X08534Y01699*
Y01689*
X08524Y01679*
X08534Y01669*
Y0166*
X08524Y0165*
X08504*
X08494Y0166*
Y01669*
X08504Y01679*
X08494Y01689*
Y01699*
X08504Y01679D02*
X08524D01*
X09264Y01134D02*
X09244D01*
X09254*
Y01085*
X09244Y01075*
X09235*
X09225Y01085*
X09324Y01134D02*
X09304Y01124D01*
X09284Y01104*
Y01085*
X09294Y01075*
X09314*
X09324Y01085*
Y01094*
X09314Y01104*
X09284*
X01665Y06764D02*
Y06744D01*
Y06754*
X01715*
X01725Y06744*
Y06735*
X01715Y06725*
X01665Y06824D02*
Y06784D01*
X01695*
X01685Y06804*
Y06814*
X01695Y06824*
X01715*
X01725Y06814*
Y06794*
X01715Y06784*
X02189Y06934D02*
X02169D01*
X02179*
Y06885*
X02169Y06875*
X0216*
X0215Y06885*
X02239Y06875D02*
Y06934D01*
X02209Y06904*
X02249*
X03444Y05244D02*
X03424D01*
X03434*
Y05195*
X03424Y05185*
X03415*
X03405Y05195*
X03464Y05234D02*
X03474Y05244D01*
X03494*
X03504Y05234*
Y05224*
X03494Y05214*
X03484*
X03494*
X03504Y05204*
Y05195*
X03494Y05185*
X03474*
X03464Y05195*
X0564Y04314D02*
Y04294D01*
Y04304*
X0569*
X057Y04294*
Y04285*
X0569Y04275*
X057Y04374D02*
Y04334D01*
X0566Y04374*
X0565*
X0564Y04364*
Y04344*
X0565Y04334*
X0571Y04394D02*
Y04434D01*
X0564Y04494D02*
X0565Y04474D01*
X0567Y04454*
X0569*
X057Y04464*
Y04484*
X0569Y04494*
X0568*
X0567Y04484*
Y04454*
X0489Y04314D02*
Y04294D01*
Y04304*
X0494*
X0495Y04294*
Y04285*
X0494Y04275*
X0495Y04374D02*
Y04334D01*
X0491Y04374*
X049*
X0489Y04364*
Y04344*
X049Y04334*
X0496Y04394D02*
Y04434D01*
X0489Y04494D02*
Y04454D01*
X0492*
X0491Y04474*
Y04484*
X0492Y04494*
X0494*
X0495Y04484*
Y04464*
X0494Y04454*
X0414Y04314D02*
Y04294D01*
Y04304*
X0419*
X042Y04294*
Y04285*
X0419Y04275*
X042Y04374D02*
Y04334D01*
X0416Y04374*
X0415*
X0414Y04364*
Y04344*
X0415Y04334*
X0421Y04394D02*
Y04434D01*
X042Y04484D02*
X0414D01*
X0417Y04454*
Y04494*
X03365Y04314D02*
Y04294D01*
Y04304*
X03415*
X03425Y04294*
Y04285*
X03415Y04275*
X03425Y04374D02*
Y04334D01*
X03385Y04374*
X03375*
X03365Y04364*
Y04344*
X03375Y04334*
X03435Y04394D02*
Y04434D01*
X03375Y04454D02*
X03365Y04464D01*
Y04484*
X03375Y04494*
X03385*
X03395Y04484*
Y04474*
Y04484*
X03405Y04494*
X03415*
X03425Y04484*
Y04464*
X03415Y04454*
X02615Y04314D02*
Y04294D01*
Y04304*
X02665*
X02675Y04294*
Y04285*
X02665Y04275*
X02675Y04374D02*
Y04334D01*
X02635Y04374*
X02625*
X02615Y04364*
Y04344*
X02625Y04334*
X02685Y04394D02*
Y04434D01*
X02675Y04494D02*
Y04454D01*
X02635Y04494*
X02625*
X02615Y04484*
Y04464*
X02625Y04454*
X0189Y04314D02*
Y04294D01*
Y04304*
X0194*
X0195Y04294*
Y04285*
X0194Y04275*
X0195Y04374D02*
Y04334D01*
X0191Y04374*
X019*
X0189Y04364*
Y04344*
X019Y04334*
X0196Y04394D02*
Y04434D01*
X0195Y04454D02*
Y04474D01*
Y04464*
X0189*
X019Y04454*
X0564Y02814D02*
Y02794D01*
Y02804*
X0569*
X057Y02794*
Y02785*
X0569Y02775*
X057Y02834D02*
Y02854D01*
Y02844*
X0564*
X0565Y02834*
X0571Y02884D02*
Y02924D01*
X0564Y02984D02*
X0565Y02964D01*
X0567Y02944*
X0569*
X057Y02954*
Y02974*
X0569Y02984*
X0568*
X0567Y02974*
Y02944*
X0489Y02814D02*
Y02794D01*
Y02804*
X0494*
X0495Y02794*
Y02785*
X0494Y02775*
X0495Y02834D02*
Y02854D01*
Y02844*
X0489*
X049Y02834*
X0496Y02884D02*
Y02924D01*
X0489Y02984D02*
Y02944D01*
X0492*
X0491Y02964*
Y02974*
X0492Y02984*
X0494*
X0495Y02974*
Y02954*
X0494Y02944*
X0414Y02814D02*
Y02794D01*
Y02804*
X0419*
X042Y02794*
Y02785*
X0419Y02775*
X042Y02834D02*
Y02854D01*
Y02844*
X0414*
X0415Y02834*
X0421Y02884D02*
Y02924D01*
X042Y02974D02*
X0414D01*
X0417Y02944*
Y02984*
X0339Y02814D02*
Y02794D01*
Y02804*
X0344*
X0345Y02794*
Y02785*
X0344Y02775*
X0345Y02834D02*
Y02854D01*
Y02844*
X0339*
X034Y02834*
X0346Y02884D02*
Y02924D01*
X034Y02944D02*
X0339Y02954D01*
Y02974*
X034Y02984*
X0341*
X0342Y02974*
Y02964*
Y02974*
X0343Y02984*
X0344*
X0345Y02974*
Y02954*
X0344Y02944*
X0264Y02814D02*
Y02794D01*
Y02804*
X0269*
X027Y02794*
Y02785*
X0269Y02775*
X027Y02834D02*
Y02854D01*
Y02844*
X0264*
X0265Y02834*
X0271Y02884D02*
Y02924D01*
X027Y02984D02*
Y02944D01*
X0266Y02984*
X0265*
X0264Y02974*
Y02954*
X0265Y02944*
X0189Y02814D02*
Y02794D01*
Y02804*
X0194*
X0195Y02794*
Y02785*
X0194Y02775*
X0195Y02834D02*
Y02854D01*
Y02844*
X0189*
X019Y02834*
X0196Y02884D02*
Y02924D01*
X0195Y02944D02*
Y02964D01*
Y02954*
X0189*
X019Y02944*
X0398Y07259D02*
Y072D01*
X04009*
X04019Y0721*
Y07249*
X04009Y07259*
X0398*
X04039Y07249D02*
X04049Y07259D01*
X04069*
X04079Y07249*
Y07239*
X04069Y07229*
X04079Y07219*
Y0721*
X04069Y072*
X04049*
X04039Y0721*
Y07219*
X04049Y07229*
X04039Y07239*
Y07249*
X04049Y07229D02*
X04069D01*
X03145Y07259D02*
Y072D01*
X03174*
X03184Y0721*
Y07249*
X03174Y07259*
X03145*
X03204D02*
X03244D01*
Y07249*
X03204Y0721*
Y072*
X03415Y07259D02*
Y072D01*
X03444*
X03454Y0721*
Y07249*
X03444Y07259*
X03415*
X03514D02*
X03494Y07249D01*
X03474Y07229*
Y0721*
X03484Y072*
X03504*
X03514Y0721*
Y07219*
X03504Y07229*
X03474*
X03695Y07259D02*
Y072D01*
X03724*
X03734Y0721*
Y07249*
X03724Y07259*
X03695*
X03794D02*
X03754D01*
Y07229*
X03774Y07239*
X03784*
X03794Y07229*
Y0721*
X03784Y072*
X03764*
X03754Y0721*
X085Y07319D02*
Y0726D01*
X08529*
X08539Y0727*
Y07309*
X08529Y07319*
X085*
X08589Y0726D02*
Y07319D01*
X08559Y07289*
X08599*
X0285Y07259D02*
Y072D01*
X02879*
X02889Y0721*
Y07249*
X02879Y07259*
X0285*
X02909Y07249D02*
X02919Y07259D01*
X02939*
X02949Y07249*
Y07239*
X02939Y07229*
X02929*
X02939*
X02949Y07219*
Y0721*
X02939Y072*
X02919*
X02909Y0721*
X026Y07259D02*
Y072D01*
X02629*
X02639Y0721*
Y07249*
X02629Y07259*
X026*
X02699Y072D02*
X02659D01*
X02699Y07239*
Y07249*
X02689Y07259*
X02669*
X02659Y07249*
X0218Y07239D02*
Y0718D01*
X02209*
X02219Y0719*
Y07229*
X02209Y07239*
X0218*
X02239Y0718D02*
X02259D01*
X02249*
Y07239*
X02239Y07229*
X03219Y04724D02*
X03209Y04734D01*
X0319*
X0318Y04724*
Y04685*
X0319Y04675*
X03209*
X03219Y04685*
X03239Y04734D02*
X03279D01*
Y04724*
X03239Y04685*
Y04675*
X03339D02*
X03299D01*
X03339Y04714*
Y04724*
X03329Y04734*
X03309*
X03299Y04724*
X03039D02*
X03029Y04734D01*
X0301*
X03Y04724*
Y04685*
X0301Y04675*
X03029*
X03039Y04685*
X03059Y04734D02*
X03099D01*
Y04724*
X03059Y04685*
Y04675*
X03119D02*
X03139D01*
X03129*
Y04734*
X03119Y04724*
X02839Y04899D02*
X02829Y04909D01*
X0281*
X028Y04899*
Y0486*
X0281Y0485*
X02829*
X02839Y0486*
X02859Y04909D02*
X02899D01*
Y04899*
X02859Y0486*
Y0485*
X02919Y04899D02*
X02929Y04909D01*
X02949*
X02959Y04899*
Y0486*
X02949Y0485*
X02929*
X02919Y0486*
Y04899*
X03275Y05539D02*
X03265Y05529D01*
Y0551*
X03275Y055*
X03315*
X03325Y0551*
Y05529*
X03315Y05539*
X03265Y05599D02*
X03275Y05579D01*
X03295Y05559*
X03315*
X03325Y05569*
Y05589*
X03315Y05599*
X03305*
X03295Y05589*
Y05559*
X03315Y05619D02*
X03325Y05629D01*
Y05649*
X03315Y05659*
X03275*
X03265Y05649*
Y05629*
X03275Y05619*
X03285*
X03295Y05629*
Y05659*
X02339Y05474D02*
X02329Y05484D01*
X0231*
X023Y05474*
Y05435*
X0231Y05425*
X02329*
X02339Y05435*
X02399Y05484D02*
X02379Y05474D01*
X02359Y05454*
Y05435*
X02369Y05425*
X02389*
X02399Y05435*
Y05444*
X02389Y05454*
X02359*
X02419Y05474D02*
X02429Y05484D01*
X02449*
X02459Y05474*
Y05464*
X02449Y05454*
X02459Y05444*
Y05435*
X02449Y05425*
X02429*
X02419Y05435*
Y05444*
X02429Y05454*
X02419Y05464*
Y05474*
X02429Y05454D02*
X02449D01*
X02539Y05574D02*
X02529Y05584D01*
X0251*
X025Y05574*
Y05535*
X0251Y05525*
X02529*
X02539Y05535*
X02599Y05584D02*
X02579Y05574D01*
X02559Y05554*
Y05535*
X02569Y05525*
X02589*
X02599Y05535*
Y05544*
X02589Y05554*
X02559*
X02619Y05584D02*
X02659D01*
Y05574*
X02619Y05535*
Y05525*
X02619Y05319D02*
X02609Y05329D01*
X0259*
X0258Y05319*
Y0528*
X0259Y0527*
X02609*
X02619Y0528*
X02679Y05329D02*
X02659Y05319D01*
X02639Y05299*
Y0528*
X02649Y0527*
X02669*
X02679Y0528*
Y05289*
X02669Y05299*
X02639*
X02739Y05329D02*
X02719Y05319D01*
X02699Y05299*
Y0528*
X02709Y0527*
X02729*
X02739Y0528*
Y05289*
X02729Y05299*
X02699*
X04124Y06435D02*
X04134Y06445D01*
Y06465*
X04124Y06475*
X04085*
X04075Y06465*
Y06445*
X04085Y06435*
X04124Y06415D02*
X04134Y06405D01*
Y06385*
X04124Y06375*
X04114*
X04104Y06385*
Y06395*
Y06385*
X04094Y06375*
X04085*
X04075Y06385*
Y06405*
X04085Y06415*
Y06355D02*
X04075Y06345D01*
Y06325*
X04085Y06315*
X04124*
X04134Y06325*
Y06345*
X04124Y06355*
X04114*
X04104Y06345*
Y06315*
X04464Y06849D02*
X04454Y06859D01*
X04435*
X04425Y06849*
Y0681*
X04435Y068*
X04454*
X04464Y0681*
X04484Y06849D02*
X04494Y06859D01*
X04514*
X04524Y06849*
Y06839*
X04514Y06829*
X04504*
X04514*
X04524Y06819*
Y0681*
X04514Y068*
X04494*
X04484Y0681*
X04544Y06849D02*
X04554Y06859D01*
X04574*
X04584Y06849*
Y06839*
X04574Y06829*
X04584Y06819*
Y0681*
X04574Y068*
X04554*
X04544Y0681*
Y06819*
X04554Y06829*
X04544Y06839*
Y06849*
X04554Y06829D02*
X04574D01*
X04224Y06435D02*
X04234Y06445D01*
Y06465*
X04224Y06475*
X04185*
X04175Y06465*
Y06445*
X04185Y06435*
X04224Y06415D02*
X04234Y06405D01*
Y06385*
X04224Y06375*
X04214*
X04204Y06385*
Y06395*
Y06385*
X04194Y06375*
X04185*
X04175Y06385*
Y06405*
X04185Y06415*
X04234Y06355D02*
Y06315D01*
X04224*
X04185Y06355*
X04175*
X09514Y04549D02*
X09504Y04559D01*
X09485*
X09475Y04549*
Y0451*
X09485Y045*
X09504*
X09514Y0451*
X09534Y04549D02*
X09544Y04559D01*
X09564*
X09574Y04549*
Y04539*
X09564Y04529*
X09554*
X09564*
X09574Y04519*
Y0451*
X09564Y045*
X09544*
X09534Y0451*
X09634Y04559D02*
X09614Y04549D01*
X09594Y04529*
Y0451*
X09604Y045*
X09624*
X09634Y0451*
Y04519*
X09624Y04529*
X09594*
X09514Y04649D02*
X09504Y04659D01*
X09485*
X09475Y04649*
Y0461*
X09485Y046*
X09504*
X09514Y0461*
X09534Y04649D02*
X09544Y04659D01*
X09564*
X09574Y04649*
Y04639*
X09564Y04629*
X09554*
X09564*
X09574Y04619*
Y0461*
X09564Y046*
X09544*
X09534Y0461*
X09634Y04659D02*
X09594D01*
Y04629*
X09614Y04639*
X09624*
X09634Y04629*
Y0461*
X09624Y046*
X09604*
X09594Y0461*
X1002Y04209D02*
X1003Y04199D01*
X1005*
X1006Y04209*
Y04249*
X1005Y04259*
X1003*
X1002Y04249*
X1Y04209D02*
X0999Y04199D01*
X0997*
X0996Y04209*
Y04219*
X0997Y04229*
X0998*
X0997*
X0996Y04239*
Y04249*
X0997Y04259*
X0999*
X1Y04249*
X0991Y04259D02*
Y04199D01*
X0994Y04229*
X099*
X09414Y03774D02*
X09404Y03784D01*
X09385*
X09375Y03774*
Y03735*
X09385Y03725*
X09404*
X09414Y03735*
X09434Y03774D02*
X09444Y03784D01*
X09464*
X09474Y03774*
Y03764*
X09464Y03754*
X09454*
X09464*
X09474Y03744*
Y03735*
X09464Y03725*
X09444*
X09434Y03735*
X09494Y03774D02*
X09504Y03784D01*
X09524*
X09534Y03774*
Y03764*
X09524Y03754*
X09514*
X09524*
X09534Y03744*
Y03735*
X09524Y03725*
X09504*
X09494Y03735*
X09664Y04749D02*
X09654Y04759D01*
X09635*
X09625Y04749*
Y0471*
X09635Y047*
X09654*
X09664Y0471*
X09684Y04749D02*
X09694Y04759D01*
X09714*
X09724Y04749*
Y04739*
X09714Y04729*
X09704*
X09714*
X09724Y04719*
Y0471*
X09714Y047*
X09694*
X09684Y0471*
X09784Y047D02*
X09744D01*
X09784Y04739*
Y04749*
X09774Y04759*
X09754*
X09744Y04749*
X0895Y02514D02*
X0894Y02504D01*
Y02485*
X0895Y02475*
X0899*
X09Y02485*
Y02504*
X0899Y02514*
X0895Y02534D02*
X0894Y02544D01*
Y02564*
X0895Y02574*
X0896*
X0897Y02564*
Y02554*
Y02564*
X0898Y02574*
X0899*
X09Y02564*
Y02544*
X0899Y02534*
X09Y02594D02*
Y02614D01*
Y02604*
X0894*
X0895Y02594*
X09664Y04149D02*
X09654Y04159D01*
X09635*
X09625Y04149*
Y0411*
X09635Y041*
X09654*
X09664Y0411*
X09684Y04149D02*
X09694Y04159D01*
X09714*
X09724Y04149*
Y04139*
X09714Y04129*
X09704*
X09714*
X09724Y04119*
Y0411*
X09714Y041*
X09694*
X09684Y0411*
X09744Y04149D02*
X09754Y04159D01*
X09774*
X09784Y04149*
Y0411*
X09774Y041*
X09754*
X09744Y0411*
Y04149*
X0895Y02239D02*
X0894Y02229D01*
Y0221*
X0895Y022*
X0899*
X09Y0221*
Y02229*
X0899Y02239*
X09Y02299D02*
Y02259D01*
X0896Y02299*
X0895*
X0894Y02289*
Y02269*
X0895Y02259*
X0899Y02319D02*
X09Y02329D01*
Y02349*
X0899Y02359*
X0895*
X0894Y02349*
Y02329*
X0895Y02319*
X0896*
X0897Y02329*
Y02359*
X01614Y05974D02*
X01604Y05984D01*
X01585*
X01575Y05974*
Y05935*
X01585Y05925*
X01604*
X01614Y05935*
X01674Y05925D02*
X01634D01*
X01674Y05964*
Y05974*
X01664Y05984*
X01644*
X01634Y05974*
X01694D02*
X01704Y05984D01*
X01724*
X01734Y05974*
Y05964*
X01724Y05954*
X01734Y05944*
Y05935*
X01724Y05925*
X01704*
X01694Y05935*
Y05944*
X01704Y05954*
X01694Y05964*
Y05974*
X01704Y05954D02*
X01724D01*
X01489Y06099D02*
X01479Y06109D01*
X0146*
X0145Y06099*
Y0606*
X0146Y0605*
X01479*
X01489Y0606*
X01549Y0605D02*
X01509D01*
X01549Y06089*
Y06099*
X01539Y06109*
X01519*
X01509Y06099*
X01569Y06109D02*
X01609D01*
Y06099*
X01569Y0606*
Y0605*
X02289Y06374D02*
X02279Y06384D01*
X0226*
X0225Y06374*
Y06335*
X0226Y06325*
X02279*
X02289Y06335*
X02349Y06325D02*
X02309D01*
X02349Y06364*
Y06374*
X02339Y06384*
X02319*
X02309Y06374*
X02409Y06384D02*
X02389Y06374D01*
X02369Y06354*
Y06335*
X02379Y06325*
X02399*
X02409Y06335*
Y06344*
X02399Y06354*
X02369*
X02539Y05824D02*
X02529Y05834D01*
X0251*
X025Y05824*
Y05785*
X0251Y05775*
X02529*
X02539Y05785*
X02599Y05775D02*
X02559D01*
X02599Y05814*
Y05824*
X02589Y05834*
X02569*
X02559Y05824*
X02659Y05834D02*
X02619D01*
Y05804*
X02639Y05814*
X02649*
X02659Y05804*
Y05785*
X02649Y05775*
X02629*
X02619Y05785*
X01339Y06274D02*
X01329Y06284D01*
X0131*
X013Y06274*
Y06235*
X0131Y06225*
X01329*
X01339Y06235*
X01399Y06225D02*
X01359D01*
X01399Y06264*
Y06274*
X01389Y06284*
X01369*
X01359Y06274*
X01449Y06225D02*
Y06284D01*
X01419Y06254*
X01459*
X0215Y06014D02*
X0214Y06004D01*
Y05985*
X0215Y05975*
X0219*
X022Y05985*
Y06004*
X0219Y06014*
X022Y06074D02*
Y06034D01*
X0216Y06074*
X0215*
X0214Y06064*
Y06044*
X0215Y06034*
Y06094D02*
X0214Y06104D01*
Y06124*
X0215Y06134*
X0216*
X0217Y06124*
Y06114*
Y06124*
X0218Y06134*
X0219*
X022Y06124*
Y06104*
X0219Y06094*
X02114Y06674D02*
X02104Y06684D01*
X02085*
X02075Y06674*
Y06635*
X02085Y06625*
X02104*
X02114Y06635*
X02174Y06625D02*
X02134D01*
X02174Y06664*
Y06674*
X02164Y06684*
X02144*
X02134Y06674*
X02234Y06625D02*
X02194D01*
X02234Y06664*
Y06674*
X02224Y06684*
X02204*
X02194Y06674*
X08475Y01839D02*
X08465Y01829D01*
Y0181*
X08475Y018*
X08515*
X08525Y0181*
Y01829*
X08515Y01839*
X08525Y01899D02*
Y01859D01*
X08485Y01899*
X08475*
X08465Y01889*
Y01869*
X08475Y01859*
X08525Y01919D02*
Y01939D01*
Y01929*
X08465*
X08475Y01919*
X07775Y02514D02*
X07765Y02504D01*
Y02485*
X07775Y02475*
X07815*
X07825Y02485*
Y02504*
X07815Y02514*
X07825Y02574D02*
Y02534D01*
X07785Y02574*
X07775*
X07765Y02564*
Y02544*
X07775Y02534*
Y02594D02*
X07765Y02604D01*
Y02624*
X07775Y02634*
X07815*
X07825Y02624*
Y02604*
X07815Y02594*
X07775*
X0766Y02089D02*
X0765Y02079D01*
Y0206*
X0766Y0205*
X077*
X0771Y0206*
Y02079*
X077Y02089*
X0771Y02109D02*
Y02129D01*
Y02119*
X0765*
X0766Y02109*
X077Y02159D02*
X0771Y02169D01*
Y02189*
X077Y02199*
X0766*
X0765Y02189*
Y02169*
X0766Y02159*
X0767*
X0768Y02169*
Y02199*
X08035Y02189D02*
X08025Y02179D01*
Y0216*
X08035Y0215*
X08075*
X08085Y0216*
Y02179*
X08075Y02189*
X08085Y02209D02*
Y02229D01*
Y02219*
X08025*
X08035Y02209*
Y02259D02*
X08025Y02269D01*
Y02289*
X08035Y02299*
X08045*
X08055Y02289*
X08065Y02299*
X08075*
X08085Y02289*
Y02269*
X08075Y02259*
X08065*
X08055Y02269*
X08045Y02259*
X08035*
X08055Y02269D02*
Y02289D01*
X07489Y01849D02*
X07479Y01859D01*
X0746*
X0745Y01849*
Y0181*
X0746Y018*
X07479*
X07489Y0181*
X07509Y018D02*
X07529D01*
X07519*
Y01859*
X07509Y01849*
X07559Y01859D02*
X07599D01*
Y01849*
X07559Y0181*
Y018*
X07489Y01949D02*
X07479Y01959D01*
X0746*
X0745Y01949*
Y0191*
X0746Y019*
X07479*
X07489Y0191*
X07509Y019D02*
X07529D01*
X07519*
Y01959*
X07509Y01949*
X07599Y01959D02*
X07579Y01949D01*
X07559Y01929*
Y0191*
X07569Y019*
X07589*
X07599Y0191*
Y01919*
X07589Y01929*
X07559*
X07239Y01749D02*
X07229Y01759D01*
X0721*
X072Y01749*
Y0171*
X0721Y017*
X07229*
X07239Y0171*
X07259Y017D02*
X07279D01*
X07269*
Y01759*
X07259Y01749*
X07349Y01759D02*
X07309D01*
Y01729*
X07329Y01739*
X07339*
X07349Y01729*
Y0171*
X07339Y017*
X07319*
X07309Y0171*
X08Y02539D02*
X0799Y02529D01*
Y0251*
X08Y025*
X0804*
X0805Y0251*
Y02529*
X0804Y02539*
X0799Y02599D02*
Y02559D01*
X0802*
X0801Y02579*
Y02589*
X0802Y02599*
X0804*
X0805Y02589*
Y02569*
X0804Y02559*
X06692Y01538D02*
X06678D01*
X06664Y01524*
Y0151*
X06692Y01482*
X06707*
X06721Y01496*
Y0151*
X06707Y01552D02*
Y01566D01*
X06721Y01581*
X06735*
X06742Y01573*
Y01559*
X06735Y01552*
X06742Y01559*
X06756*
X06763Y01552*
Y01538*
X06749Y01524*
X06735*
X06791Y01552D02*
X0682Y01581D01*
X06855Y0163D02*
X06827Y01602D01*
Y01658*
X0682Y01665*
X06806*
X06791Y01651*
Y01637*
X07392Y02338D02*
X07378D01*
X07364Y02324*
Y0231*
X07392Y02282*
X07407*
X07421Y02296*
Y0231*
X0747Y02345D02*
X07442Y02317D01*
Y02373*
X07435Y02381*
X07421*
X07407Y02366*
Y02352*
X07491D02*
X0752Y02381D01*
X07555Y0243D02*
X07527Y02402D01*
Y02458*
X0752Y02465*
X07506*
X07491Y02451*
Y02437*
X08338Y02457D02*
Y02471D01*
X08324Y02485*
X0831*
X08282Y02457*
Y02442*
X08296Y02428*
X0831*
X08345Y02379D02*
X08317Y02407D01*
X08373*
X08381Y02414*
Y02428*
X08366Y02442*
X08352*
Y02358D02*
X08381Y02329D01*
X08402Y02322D02*
X08416Y02308D01*
X08409Y02315*
X08451Y02358*
X08437*
X06617Y01638D02*
X06603D01*
X06589Y01624*
Y0161*
X06617Y01582*
X06632*
X06646Y01596*
Y0161*
X06667Y01617D02*
X06681Y01631D01*
X06674Y01624*
X06632Y01666*
Y01652*
X06709Y01645D02*
X06738Y01673D01*
X06773Y01723D02*
X06745Y01695D01*
Y01751*
X06738Y01758*
X06723*
X06709Y01744*
Y0173*
X09439Y05399D02*
X09429Y05409D01*
X0941*
X094Y05399*
Y0536*
X0941Y0535*
X09429*
X09439Y0536*
X09459Y05409D02*
X09499D01*
Y05399*
X09459Y0536*
Y0535*
X09559Y05409D02*
X09539Y05399D01*
X09519Y05379*
Y0536*
X09529Y0535*
X09549*
X09559Y0536*
Y05369*
X09549Y05379*
X09519*
X09439Y05714D02*
X09429Y05724D01*
X0941*
X094Y05714*
Y05675*
X0941Y05665*
X09429*
X09439Y05675*
X09459Y05724D02*
X09499D01*
Y05714*
X09459Y05675*
Y05665*
X09519Y05724D02*
X09559D01*
Y05714*
X09519Y05675*
Y05665*
X094Y05559D02*
Y0551D01*
X0941Y055*
X09429*
X09439Y0551*
Y05559*
X09459Y055D02*
X09479D01*
X09469*
Y05559*
X09459Y05549*
X09549Y05559D02*
X09529Y05549D01*
X09509Y05529*
Y0551*
X09519Y055*
X09539*
X09549Y0551*
Y05519*
X09539Y05529*
X09509*
X0643Y06406D02*
X0641D01*
X0642*
Y06356*
X0641Y06346*
X064*
X0639Y06356*
X0645Y06406D02*
X0649Y06346D01*
Y06406D02*
X0645Y06346D01*
X0655D02*
X0651D01*
X0655Y06386*
Y06396*
X0654Y06406*
X0652*
X0651Y06396*
X08182Y06406D02*
X08162D01*
X08172*
Y06356*
X08162Y06346*
X08152*
X08142Y06356*
X08202Y06406D02*
X08242Y06346D01*
Y06406D02*
X08202Y06346D01*
X08262D02*
X08282D01*
X08272*
Y06406*
X08262Y06396*
X06646Y06209D02*
Y06229D01*
Y06219*
X06586*
X06596Y06209*
X06646Y06339D02*
X06626Y06319D01*
X06606*
X06586Y06339*
X06646Y06369D02*
Y06389D01*
Y06379*
X06586*
X06596Y06369*
Y06418D02*
X06586Y06428D01*
Y06448*
X06596Y06458*
X06636*
X06646Y06448*
Y06428*
X06636Y06418*
X06596*
X06646Y06478D02*
Y06498D01*
Y06488*
X06586*
X06596Y06478*
X06646Y06528D02*
X06626Y06548D01*
X06606*
X06586Y06528*
X06312Y06229D02*
Y06189D01*
X06272Y06229*
X06262*
X06252Y06219*
Y06199*
X06262Y06189*
X06312Y06329D02*
X06292Y06309D01*
X06272*
X06252Y06329*
X06312Y06359D02*
Y06379D01*
Y06369*
X06252*
X06262Y06359*
Y06409D02*
X06252Y06419D01*
Y06439*
X06262Y06449*
X06302*
X06312Y06439*
Y06419*
X06302Y06409*
X06262*
X06312Y06509D02*
Y06469D01*
X06272Y06509*
X06262*
X06252Y06499*
Y06479*
X06262Y06469*
X06312Y06529D02*
X06292Y06549D01*
X06272*
X06252Y06529*
X0629Y0435D02*
Y04369D01*
Y0436*
X0623*
X0624Y0435*
Y04399D02*
X0623Y04409D01*
Y04429*
X0624Y04439*
X0628*
X0629Y04429*
Y04409*
X0628Y04399*
X0624*
Y04459D02*
X0623Y04469D01*
Y04489*
X0624Y04499*
X0628*
X0629Y04489*
Y04469*
X0628Y04459*
X0624*
X0629Y04599D02*
X0627Y04579D01*
X0625*
X0623Y04599*
X0629Y04669D02*
Y04629D01*
X0625Y04669*
X0624*
X0623Y04659*
Y04639*
X0624Y04629*
Y04689D02*
X0623Y04699D01*
Y04719*
X0624Y04729*
X0628*
X0629Y04719*
Y04699*
X0628Y04689*
X0624*
Y04749D02*
X0623Y04759D01*
Y04779*
X0624Y04789*
X0628*
X0629Y04779*
Y04759*
X0628Y04749*
X0624*
X0629Y04809D02*
X0627Y04829D01*
X0625*
X0623Y04809*
X06675Y0435D02*
X06685Y0436D01*
Y04379*
X06675Y04389*
X06635*
X06625Y04379*
Y0436*
X06635Y0435*
X06645*
X06655Y0436*
Y04389*
X06675Y04409D02*
X06685Y04419D01*
Y04439*
X06675Y04449*
X06635*
X06625Y04439*
Y04419*
X06635Y04409*
X06645*
X06655Y04419*
Y04449*
X06685Y04549D02*
X06665Y04529D01*
X06645*
X06625Y04549*
X06685Y04579D02*
Y04599D01*
Y04589*
X06625*
X06635Y04579*
X06675Y04629D02*
X06685Y04639D01*
Y04659*
X06675Y04669*
X06635*
X06625Y04659*
Y04639*
X06635Y04629*
X06645*
X06655Y04639*
Y04669*
X06675Y04689D02*
X06685Y04699D01*
Y04719*
X06675Y04729*
X06635*
X06625Y04719*
Y04699*
X06635Y04689*
X06645*
X06655Y04699*
Y04729*
X06685Y04749D02*
X06665Y04769D01*
X06645*
X06625Y04749*
X08387Y04457D02*
X08397Y04467D01*
Y04487*
X08387Y04497*
X08347*
X08337Y04487*
Y04467*
X08347Y04457*
X08357*
X08367Y04467*
Y04497*
X08387Y04517D02*
X08397Y04527D01*
Y04547*
X08387Y04557*
X08347*
X08337Y04547*
Y04527*
X08347Y04517*
X08357*
X08367Y04527*
Y04557*
X08062Y04437D02*
Y04457D01*
Y04447*
X08002*
X08012Y04437*
Y04487D02*
X08002Y04497D01*
Y04517*
X08012Y04527*
X08052*
X08062Y04517*
Y04497*
X08052Y04487*
X08012*
Y04547D02*
X08002Y04557D01*
Y04577*
X08012Y04587*
X08052*
X08062Y04577*
Y04557*
X08052Y04547*
X08012*
X08062Y06229D02*
Y06189D01*
X08022Y06229*
X08012*
X08002Y06219*
Y06199*
X08012Y06189*
X08397Y06209D02*
Y06229D01*
Y06219*
X08337*
X08347Y06209*
X10029Y06925D02*
X0995D01*
Y06885*
X09963Y06871*
X09976*
X09989Y06885*
Y06925*
Y06885*
X10003Y06871*
X10016*
X10029Y06885*
Y06925*
Y06845D02*
X09963D01*
X0995Y06831*
Y06805*
X09963Y06791*
X10029*
Y06631D02*
Y06685D01*
X0995*
Y06631*
X09989Y06685D02*
Y06658D01*
X10029Y06605D02*
X0995D01*
Y06565*
X09963Y06551*
X10016*
X10029Y06565*
Y06605*
Y06471D02*
Y06525D01*
X09989*
Y06498*
Y06525*
X0995*
Y06338D02*
X09976Y06365D01*
X10003*
X10029Y06338*
X0995Y06258D02*
Y06285D01*
X09963Y06298*
X09989*
X10003Y06285*
Y06258*
X09989Y06245*
X09976*
Y06298*
X10029Y06165D02*
X0995D01*
Y06205*
X09963Y06218*
X09989*
X10003Y06205*
Y06165*
X0995Y06125D02*
X10016D01*
X09989*
Y06138*
Y06111*
Y06125*
X10016*
X10029Y06111*
X0995Y06071D02*
X09963D01*
Y06058*
X0995*
Y06071*
X10029Y06005D02*
X0995D01*
Y05965*
X09963Y05951*
X09976*
X09989*
X10003Y05965*
Y06005*
Y05925D02*
X09963D01*
X0995Y05911*
Y05872*
X10003*
X0995Y05845D02*
X09963D01*
Y05832*
X0995*
Y05845*
Y05738D02*
Y05765D01*
X09963Y05778*
X09989*
X10003Y05765*
Y05738*
X09989Y05725*
X09976*
Y05778*
X10029Y05645D02*
X0995D01*
Y05685*
X09963Y05698*
X09989*
X10003Y05685*
Y05645*
Y05618D02*
X09963D01*
X0995Y05605*
Y05565*
X10003*
X0995Y05538D02*
X09976Y05512D01*
X10003*
X10029Y05538*
X10266Y06871D02*
X10279Y06885D01*
Y06911*
X10266Y06925*
X10213*
X102Y06911*
Y06885*
X10213Y06871*
X10279Y06845D02*
X102D01*
X10239*
X10253Y06831*
Y06805*
X10239Y06791*
X102*
X10253Y06765D02*
X102D01*
X10226*
X10239Y06751*
X10253Y06738*
Y06725*
X102Y06685D02*
Y06658D01*
Y06671*
X10253*
Y06685*
X102Y06618D02*
Y06578D01*
X10213Y06565*
X10226Y06578*
Y06605*
X10239Y06618*
X10253Y06605*
Y06565*
X10266Y06525D02*
X10253D01*
Y06538*
Y06511*
Y06525*
X10213*
X102Y06511*
Y06458D02*
Y06431D01*
X10213Y06418*
X10239*
X10253Y06431*
Y06458*
X10239Y06471*
X10213*
X102Y06458*
X10173Y06391D02*
X10253D01*
Y06351*
X10239Y06338*
X10213*
X102Y06351*
Y06391*
X10279Y06311D02*
X102D01*
X10239*
X10253Y06298*
Y06271*
X10239Y06258*
X102*
Y06191D02*
Y06218D01*
X10213Y06231*
X10239*
X10253Y06218*
Y06191*
X10239Y06178*
X10226*
Y06231*
X10253Y06151D02*
X102D01*
X10226*
X10239Y06138*
X10253Y06125*
Y06111*
X10279Y05991D02*
X102D01*
X10226Y05965*
X102Y05938*
X10279*
X102Y05898D02*
Y05872D01*
X10213Y05858*
X10239*
X10253Y05872*
Y05898*
X10239Y05911*
X10213*
X102Y05898*
Y05818D02*
Y05792D01*
X10213Y05778*
X10239*
X10253Y05792*
Y05818*
X10239Y05832*
X10213*
X102Y05818*
X10279Y05698D02*
X102D01*
Y05738*
X10213Y05752*
X10239*
X10253Y05738*
Y05698*
Y05658D02*
Y05632D01*
X10239Y05618*
X102*
Y05658*
X10213Y05672*
X10226Y05658*
Y05618*
X102Y05592D02*
Y05565D01*
Y05578*
X10279*
Y05592*
X102Y05525D02*
Y05498D01*
Y05512*
X10279*
Y05525*
X10239Y05378D02*
Y05325D01*
X10279Y05165D02*
Y05218D01*
X10239*
Y05192*
Y05218*
X102*
Y05098D02*
Y05125D01*
X10213Y05138*
X10239*
X10253Y05125*
Y05098*
X10239Y05085*
X10226*
Y05138*
X10279Y05058D02*
X102D01*
Y05018*
X10213Y05005*
X10226*
X10239*
X10253Y05018*
Y05058*
X102Y04978D02*
X10213D01*
Y04965*
X102*
Y04978*
Y04779D02*
Y04832D01*
X10253Y04779*
X10266*
X10279Y04792*
Y04819*
X10266Y04832*
Y04752D02*
X10279Y04739D01*
Y04712*
X10266Y04699*
X10213*
X102Y04712*
Y04739*
X10213Y04752*
X10266*
X102Y04672D02*
Y04645D01*
Y04659*
X10279*
X10266Y04672*
X102Y04565D02*
X10279D01*
X10239Y04605*
Y04552*
X10325Y06925D02*
X10404D01*
Y06885*
X10391Y06871*
X10364*
X10351Y06885*
Y06925*
Y06898D02*
X10325Y06871D01*
Y06831D02*
Y06805D01*
X10338Y06791*
X10364*
X10378Y06805*
Y06831*
X10364Y06845*
X10338*
X10325Y06831*
X10404Y06765D02*
X10325D01*
Y06725*
X10338Y06711*
X10351*
X10364*
X10378Y06725*
Y06765*
X10325Y06685D02*
Y06658D01*
Y06671*
X10404*
Y06685*
X10378Y06618D02*
X10338D01*
X10325Y06605*
Y06565*
X10311*
X10298Y06578*
Y06591*
X10325Y06565D02*
X10378D01*
X10325Y06498D02*
Y06525D01*
X10338Y06538*
X10364*
X10378Y06525*
Y06498*
X10364Y06485*
X10351*
Y06538*
X10378Y06458D02*
X10325D01*
X10351*
X10364Y06445*
X10378Y06431*
Y06418*
X10404Y06245D02*
X10325D01*
Y06285*
X10338Y06298*
X10364*
X10378Y06285*
Y06245*
X10404Y06218D02*
X10325D01*
Y06178*
X10338Y06165*
X10391*
X10404Y06178*
Y06218*
Y06098D02*
Y06125D01*
X10391Y06138*
X10338*
X10325Y06125*
Y06098*
X10338Y06085*
X10391*
X10404Y06098*
X10391Y06005D02*
X10404Y06018D01*
Y06045*
X10391Y06058*
X10378*
X10364Y06045*
Y06018*
X10351Y06005*
X10338*
X10325Y06018*
Y06045*
X10338Y06058*
X10404Y05978D02*
Y05951D01*
Y05965*
X10325*
Y05978*
Y05951*
X10404Y05832D02*
X10338D01*
X10325Y05818*
Y05792*
X10338Y05778*
X10404*
X10325Y05752D02*
X10378D01*
Y05712*
X10364Y05698*
X10325*
X10404Y05618D02*
X10325D01*
Y05658*
X10338Y05672*
X10364*
X10378Y05658*
Y05618*
X10325Y05552D02*
Y05578D01*
X10338Y05592*
X10364*
X10378Y05578*
Y05552*
X10364Y05538*
X10351*
Y05592*
X10378Y05512D02*
X10325D01*
X10351*
X10364Y05498*
X10378Y05485*
Y05472*
X10325Y05432D02*
Y05392D01*
X10338Y05378*
X10351Y05392*
Y05418*
X10364Y05432*
X10378Y05418*
Y05378*
Y05338D02*
Y05312D01*
X10364Y05298*
X10325*
Y05338*
X10338Y05352*
X10351Y05338*
Y05298*
X10325Y05272D02*
X10378D01*
Y05258*
X10364Y05245*
X10325*
X10364*
X10378Y05232*
X10364Y05218*
X10325*
X10298Y05192D02*
X10378D01*
Y05152*
X10364Y05138*
X10338*
X10325Y05152*
Y05192*
Y05112D02*
Y05085D01*
Y05098*
X10404*
Y05112*
X10325Y05045D02*
Y05018D01*
Y05032*
X10378*
Y05045*
X10325Y04978D02*
X10378D01*
Y04938*
X10364Y04925*
X10325*
X10298Y04872D02*
Y04859D01*
X10311Y04845*
X10378*
Y04885*
X10364Y04898*
X10338*
X10325Y04885*
Y04845*
Y04712D02*
Y04739D01*
X10404*
Y04712*
X10325Y04672D02*
X10404D01*
Y04632*
X10391Y04619*
X10364*
X10351Y04632*
Y04672*
Y04645D02*
X10325Y04619D01*
Y04552D02*
Y04579D01*
X10338Y04592*
X10364*
X10378Y04579*
Y04552*
X10364Y04539*
X10351*
Y04592*
X10378Y04512D02*
X10325Y04485D01*
X10378Y04459*
X10325Y04432D02*
X10338D01*
Y04419*
X10325*
Y04432*
Y04285D02*
X10378D01*
X10404Y04259*
X10378Y04232*
X10325*
X10364*
Y04285*
X10325Y04205D02*
Y04179D01*
X10404*
Y04205*
X10154Y06925D02*
X10075D01*
Y06885*
X10088Y06871*
X10101*
X10114Y06885*
Y06925*
Y06885*
X10128Y06871*
X10141*
X10154Y06885*
Y06925*
Y06845D02*
X10088D01*
X10075Y06831*
Y06805*
X10088Y06791*
X10154*
Y06631D02*
Y06685D01*
X10075*
Y06631*
X10114Y06685D02*
Y06658D01*
X10141Y06551D02*
X10154Y06565D01*
Y06591*
X10141Y06605*
X10088*
X10075Y06591*
Y06565*
X10088Y06551*
X10154Y06471D02*
Y06525D01*
X10075*
Y06471*
X10114Y06525D02*
Y06498D01*
X10141Y06311D02*
X10154Y06325D01*
Y06351*
X10141Y06365*
X10128*
X10114Y06351*
Y06325*
X10101Y06311*
X10088*
X10075Y06325*
Y06351*
X10088Y06365*
X10075Y06245D02*
Y06271D01*
X10088Y06285*
X10114*
X10128Y06271*
Y06245*
X10114Y06231*
X10101*
Y06285*
X10075Y06205D02*
X10128D01*
Y06165*
X10114Y06151*
X10075*
Y06125D02*
Y06098D01*
Y06111*
X10128*
Y06125*
X10075Y06045D02*
Y06018D01*
X10088Y06005*
X10114*
X10128Y06018*
Y06045*
X10114Y06058*
X10088*
X10075Y06045*
X10128Y05978D02*
X10075D01*
X10101*
X10114Y05965*
X10128Y05951*
Y05938*
X10154Y05818D02*
X10075D01*
Y05778*
X10088Y05765*
X10141*
X10154Y05778*
Y05818*
X10075Y05698D02*
Y05725D01*
X10088Y05738*
X10114*
X10128Y05725*
Y05698*
X10114Y05685*
X10101*
Y05738*
X10075Y05658D02*
Y05618D01*
X10088Y05605*
X10101Y05618*
Y05645*
X10114Y05658*
X10128Y05645*
Y05605*
X10075Y05578D02*
Y05552D01*
Y05565*
X10128*
Y05578*
X10048Y05485D02*
Y05472D01*
X10061Y05458*
X10128*
Y05498*
X10114Y05512*
X10088*
X10075Y05498*
Y05458*
Y05432D02*
X10128D01*
Y05392*
X10114Y05378*
X10075*
X10154Y05272D02*
Y05218D01*
Y05245*
X10075*
Y05152D02*
Y05178D01*
X10088Y05192*
X10114*
X10128Y05178*
Y05152*
X10114Y05138*
X10101*
Y05192*
X10128Y05098D02*
Y05072D01*
X10114Y05058*
X10075*
Y05098*
X10088Y05112*
X10101Y05098*
Y05058*
X10075Y05032D02*
X10128D01*
Y05018*
X10114Y05005*
X10075*
X10114*
X10128Y04992*
X10114Y04978*
X10075*
Y04872D02*
Y04845D01*
Y04859*
X10154*
X10141Y04872*
X10088Y04805D02*
X10075Y04792D01*
Y04765*
X10088Y04752*
X10141*
X10154Y04765*
Y04792*
X10141Y04805*
X10128*
X10114Y04792*
Y04752*
G54D69*
X0135Y0656D02*
Y0673D01*
X0256Y06625D02*
X0273D01*
X09585Y051D02*
X09755D01*
X09545Y01525D02*
X09715D01*
G54D100*
X01404Y07125D02*
D01*
X01404Y0712*
X01404Y07115*
X01405Y0711*
X01407Y07105*
X01408Y071*
X0141Y07096*
X01412Y07091*
X01415Y07087*
X01417Y07083*
X0142Y07079*
X01424Y07075*
X01427Y07072*
X01431Y07069*
X01435Y07066*
X01439Y07063*
X01444Y07061*
X01448Y07059*
X01453Y07057*
X01457Y07056*
X01462Y07055*
X01467Y07054*
X01472Y07054*
X01477*
X01482Y07054*
X01487Y07055*
X01492Y07056*
X01496Y07057*
X01501Y07059*
X01505Y07061*
X0151Y07063*
X01514Y07066*
X01518Y07069*
X01522Y07072*
X01525Y07075*
X01529Y07079*
X01532Y07083*
X01534Y07087*
X01537Y07091*
X01539Y07096*
X01541Y071*
X01542Y07105*
X01544Y0711*
X01545Y07115*
X01545Y0712*
X01545Y07125*
X0149D02*
D01*
X01489Y07126*
X01489Y07127*
X01489Y07128*
X01489Y07129*
X01489Y0713*
X01488Y07131*
X01488Y07132*
X01487Y07132*
X01487Y07133*
X01486Y07134*
X01485Y07135*
X01485Y07136*
X01484Y07136*
X01483Y07137*
X01482Y07137*
X01481Y07138*
X0148Y07138*
X01479Y07139*
X01478Y07139*
X01477Y07139*
X01476Y07139*
X01475Y07139*
X01474*
X01473Y07139*
X01472Y07139*
X01471Y07139*
X0147Y07139*
X01469Y07138*
X01468Y07138*
X01467Y07137*
X01466Y07137*
X01465Y07136*
X01464Y07136*
X01464Y07135*
X01463Y07134*
X01462Y07133*
X01462Y07132*
X01461Y07132*
X01461Y07131*
X0146Y0713*
X0146Y07129*
X0146Y07128*
X0146Y07127*
X0146Y07126*
X0146Y07125*
X0146Y07123*
X0146Y07122*
X0146Y07121*
X0146Y0712*
X0146Y07119*
X01461Y07118*
X01461Y07117*
X01462Y07117*
X01462Y07116*
X01463Y07115*
X01464Y07114*
X01464Y07113*
X01465Y07113*
X01466Y07112*
X01467Y07112*
X01468Y07111*
X01469Y07111*
X0147Y0711*
X01471Y0711*
X01472Y0711*
X01473Y0711*
X01474Y0711*
X01475*
X01476Y0711*
X01477Y0711*
X01478Y0711*
X01479Y0711*
X0148Y07111*
X01481Y07111*
X01482Y07112*
X01483Y07112*
X01484Y07113*
X01485Y07113*
X01485Y07114*
X01486Y07115*
X01487Y07116*
X01487Y07117*
X01488Y07117*
X01488Y07118*
X01489Y07119*
X01489Y0712*
X01489Y07121*
X01489Y07122*
X01489Y07123*
X0149Y07125*
X01475Y07255D02*
Y07325D01*
Y0728D02*
Y07325D01*
X01435Y0729D02*
X01515D01*
X01475Y06995D02*
Y0705D01*
Y07125D02*
Y0721D01*
X015Y0687D02*
Y0694D01*
Y069D02*
Y0694D01*
X0146Y069D02*
X015D01*
X0146D02*
X0154D01*
X015D02*
X0154D01*
X015Y0686D02*
Y069D01*
X0287Y06475D02*
X0294D01*
X029D02*
X0294D01*
X029D02*
Y06515D01*
Y06435D02*
Y06515D01*
Y06435D02*
Y06475D01*
X0286D02*
X029D01*
X09895Y0495D02*
X09965D01*
X09925D02*
X09965D01*
X09925D02*
Y0499D01*
Y0491D02*
Y0499D01*
Y0491D02*
Y0495D01*
X09885D02*
X09925D01*
X09335Y01675D02*
X09405D01*
X09335D02*
X09375D01*
Y01635D02*
Y01675D01*
Y01635D02*
Y01715D01*
Y01675D02*
Y01715D01*
Y01675D02*
X09415D01*
G54D114*
X07885Y01976D02*
D01*
X07885Y01976*
X07885Y01977*
X07885Y01977*
X07885Y01977*
X07885Y01978*
X07884Y01978*
X07884Y01978*
X07884Y01979*
X07884Y01979*
X07884Y01979*
X07884Y01979*
X07883Y0198*
X07883Y0198*
X07883Y0198*
X07882Y0198*
X07882Y01981*
X07882Y01981*
X07881Y01981*
X07881Y01981*
X07881Y01981*
X0788Y01981*
X0788Y01981*
X0788*
X07879Y01981*
X07879Y01981*
X07879Y01981*
X07878Y01981*
X07878Y01981*
X07878Y01981*
X07878Y0198*
X07877Y0198*
X07877Y0198*
X07877Y0198*
X07876Y01979*
X07876Y01979*
X07876Y01979*
X07876Y01979*
X07876Y01978*
X07875Y01978*
X07875Y01978*
X07875Y01977*
X07875Y01977*
X07875Y01977*
X07875Y01976*
X07875Y01976*
X07875Y01976*
X07875Y01975*
X07875Y01975*
X07875Y01975*
X07875Y01974*
X07875Y01974*
X07876Y01974*
X07876Y01973*
X07876Y01973*
X07876Y01973*
X07876Y01973*
X07877Y01972*
X07877Y01972*
X07877Y01972*
X07878Y01972*
X07878Y01972*
X07878Y01972*
X07878Y01971*
X07879Y01971*
X07879Y01971*
X07879Y01971*
X0788Y01971*
X0788*
X0788Y01971*
X07881Y01971*
X07881Y01971*
X07881Y01971*
X07882Y01972*
X07882Y01972*
X07882Y01972*
X07883Y01972*
X07883Y01972*
X07883Y01972*
X07884Y01973*
X07884Y01973*
X07884Y01973*
X07884Y01973*
X07884Y01974*
X07884Y01974*
X07885Y01974*
X07885Y01975*
X07885Y01975*
X07885Y01975*
X07885Y01976*
X07885Y01976*
X07739Y01506D02*
D01*
X07739Y01506*
X07739Y01506*
X07739Y01507*
X07739Y01507*
X07739Y01507*
X07739Y01508*
X07739Y01508*
X07739Y01508*
X07738Y01509*
X07738Y01509*
X07738Y01509*
X07738Y01509*
X07738Y0151*
X07737Y0151*
X07737Y0151*
X07737Y0151*
X07736Y0151*
X07736Y0151*
X07736Y01511*
X07735Y01511*
X07735Y01511*
X07735Y01511*
X07734*
X07734Y01511*
X07734Y01511*
X07733Y01511*
X07733Y0151*
X07733Y0151*
X07732Y0151*
X07732Y0151*
X07732Y0151*
X07731Y0151*
X07731Y01509*
X07731Y01509*
X07731Y01509*
X07731Y01509*
X0773Y01508*
X0773Y01508*
X0773Y01508*
X0773Y01507*
X0773Y01507*
X0773Y01507*
X0773Y01506*
X0773Y01506*
X0773Y01506*
X0773Y01505*
X0773Y01505*
X0773Y01505*
X0773Y01504*
X0773Y01504*
X0773Y01504*
X0773Y01503*
X0773Y01503*
X07731Y01503*
X07731Y01503*
X07731Y01502*
X07731Y01502*
X07731Y01502*
X07732Y01502*
X07732Y01502*
X07732Y01501*
X07733Y01501*
X07733Y01501*
X07733Y01501*
X07734Y01501*
X07734Y01501*
X07734Y01501*
X07735*
X07735Y01501*
X07735Y01501*
X07736Y01501*
X07736Y01501*
X07736Y01501*
X07737Y01501*
X07737Y01502*
X07737Y01502*
X07738Y01502*
X07738Y01502*
X07738Y01502*
X07738Y01503*
X07738Y01503*
X07739Y01503*
X07739Y01503*
X07739Y01504*
X07739Y01504*
X07739Y01504*
X07739Y01505*
X07739Y01505*
X07739Y01505*
X07739Y01506*
X08772Y01841D02*
D01*
X08772Y01841*
X08772Y01842*
X08772Y01842*
X08772Y01842*
X08772Y01843*
X08772Y01843*
X08772Y01843*
X08772Y01843*
X08772Y01844*
X08771Y01844*
X08771Y01844*
X08771Y01845*
X08771Y01845*
X0877Y01845*
X0877Y01845*
X0877Y01845*
X08769Y01845*
X08769Y01846*
X08769Y01846*
X08768Y01846*
X08768Y01846*
X08768Y01846*
X08767*
X08767Y01846*
X08767Y01846*
X08766Y01846*
X08766Y01846*
X08766Y01845*
X08765Y01845*
X08765Y01845*
X08765Y01845*
X08765Y01845*
X08764Y01845*
X08764Y01844*
X08764Y01844*
X08764Y01844*
X08763Y01843*
X08763Y01843*
X08763Y01843*
X08763Y01843*
X08763Y01842*
X08763Y01842*
X08763Y01842*
X08763Y01841*
X08763Y01841*
X08763Y01841*
X08763Y0184*
X08763Y0184*
X08763Y0184*
X08763Y01839*
X08763Y01839*
X08763Y01839*
X08763Y01838*
X08764Y01838*
X08764Y01838*
X08764Y01837*
X08764Y01837*
X08765Y01837*
X08765Y01837*
X08765Y01837*
X08765Y01836*
X08766Y01836*
X08766Y01836*
X08766Y01836*
X08767Y01836*
X08767Y01836*
X08767Y01836*
X08768*
X08768Y01836*
X08768Y01836*
X08769Y01836*
X08769Y01836*
X08769Y01836*
X0877Y01836*
X0877Y01837*
X0877Y01837*
X08771Y01837*
X08771Y01837*
X08771Y01837*
X08771Y01838*
X08772Y01838*
X08772Y01838*
X08772Y01839*
X08772Y01839*
X08772Y01839*
X08772Y0184*
X08772Y0184*
X08772Y0184*
X08772Y01841*
X08772Y01841*
X06896Y01941D02*
D01*
X06896Y01942*
X06896Y01942*
X06896Y01942*
X06896Y01943*
X06896Y01943*
X06895Y01943*
X06895Y01944*
X06895Y01944*
X06895Y01944*
X06895Y01945*
X06894Y01945*
X06894Y01945*
X06894Y01945*
X06894Y01946*
X06893Y01946*
X06893Y01946*
X06893Y01946*
X06892Y01946*
X06892Y01946*
X06892Y01946*
X06891Y01946*
X06891Y01946*
X06891*
X0689Y01946*
X0689Y01946*
X0689Y01946*
X06889Y01946*
X06889Y01946*
X06889Y01946*
X06888Y01946*
X06888Y01946*
X06888Y01945*
X06888Y01945*
X06887Y01945*
X06887Y01945*
X06887Y01944*
X06887Y01944*
X06887Y01944*
X06886Y01943*
X06886Y01943*
X06886Y01943*
X06886Y01942*
X06886Y01942*
X06886Y01942*
X06886Y01941*
X06886Y01941*
X06886Y01941*
X06886Y0194*
X06886Y0194*
X06886Y0194*
X06886Y01939*
X06887Y01939*
X06887Y01939*
X06887Y01939*
X06887Y01938*
X06887Y01938*
X06888Y01938*
X06888Y01938*
X06888Y01937*
X06888Y01937*
X06889Y01937*
X06889Y01937*
X06889Y01937*
X0689Y01937*
X0689Y01937*
X0689Y01937*
X06891Y01937*
X06891*
X06891Y01937*
X06892Y01937*
X06892Y01937*
X06892Y01937*
X06893Y01937*
X06893Y01937*
X06893Y01937*
X06894Y01937*
X06894Y01938*
X06894Y01938*
X06894Y01938*
X06895Y01938*
X06895Y01939*
X06895Y01939*
X06895Y01939*
X06895Y01939*
X06896Y0194*
X06896Y0194*
X06896Y0194*
X06896Y01941*
X06896Y01941*
X06896Y01941*
X05125Y05739D02*
D01*
X05125Y0574*
X05125Y0574*
X05125Y0574*
X05125Y05741*
X05125Y05741*
X05125Y05741*
X05125Y05742*
X05124Y05742*
X05124Y05742*
X05124Y05743*
X05124Y05743*
X05123Y05743*
X05123Y05743*
X05123Y05744*
X05123Y05744*
X05122Y05744*
X05122Y05744*
X05122Y05744*
X05121Y05744*
X05121Y05744*
X05121Y05744*
X0512Y05744*
X0512*
X0512Y05744*
X05119Y05744*
X05119Y05744*
X05119Y05744*
X05118Y05744*
X05118Y05744*
X05118Y05744*
X05117Y05744*
X05117Y05743*
X05117Y05743*
X05117Y05743*
X05116Y05743*
X05116Y05742*
X05116Y05742*
X05116Y05742*
X05116Y05741*
X05116Y05741*
X05115Y05741*
X05115Y0574*
X05115Y0574*
X05115Y0574*
X05115Y05739*
X05115Y05739*
X05115Y05739*
X05115Y05738*
X05115Y05738*
X05116Y05738*
X05116Y05737*
X05116Y05737*
X05116Y05737*
X05116Y05737*
X05116Y05736*
X05117Y05736*
X05117Y05736*
X05117Y05736*
X05117Y05735*
X05118Y05735*
X05118Y05735*
X05118Y05735*
X05119Y05735*
X05119Y05735*
X05119Y05735*
X0512Y05735*
X0512Y05735*
X0512*
X05121Y05735*
X05121Y05735*
X05121Y05735*
X05122Y05735*
X05122Y05735*
X05122Y05735*
X05123Y05735*
X05123Y05735*
X05123Y05736*
X05123Y05736*
X05124Y05736*
X05124Y05736*
X05124Y05737*
X05124Y05737*
X05125Y05737*
X05125Y05737*
X05125Y05738*
X05125Y05738*
X05125Y05738*
X05125Y05739*
X05125Y05739*
X05125Y05739*
X045D02*
D01*
X045Y0574*
X045Y0574*
X045Y0574*
X045Y05741*
X045Y05741*
X045Y05741*
X045Y05742*
X04499Y05742*
X04499Y05742*
X04499Y05743*
X04499Y05743*
X04498Y05743*
X04498Y05743*
X04498Y05744*
X04498Y05744*
X04497Y05744*
X04497Y05744*
X04497Y05744*
X04496Y05744*
X04496Y05744*
X04496Y05744*
X04495Y05744*
X04495*
X04495Y05744*
X04494Y05744*
X04494Y05744*
X04494Y05744*
X04493Y05744*
X04493Y05744*
X04493Y05744*
X04492Y05744*
X04492Y05743*
X04492Y05743*
X04492Y05743*
X04491Y05743*
X04491Y05742*
X04491Y05742*
X04491Y05742*
X04491Y05741*
X04491Y05741*
X0449Y05741*
X0449Y0574*
X0449Y0574*
X0449Y0574*
X0449Y05739*
X0449Y05739*
X0449Y05739*
X0449Y05738*
X0449Y05738*
X04491Y05738*
X04491Y05737*
X04491Y05737*
X04491Y05737*
X04491Y05737*
X04491Y05736*
X04492Y05736*
X04492Y05736*
X04492Y05736*
X04492Y05735*
X04493Y05735*
X04493Y05735*
X04493Y05735*
X04494Y05735*
X04494Y05735*
X04494Y05735*
X04495Y05735*
X04495Y05735*
X04495*
X04496Y05735*
X04496Y05735*
X04496Y05735*
X04497Y05735*
X04497Y05735*
X04497Y05735*
X04498Y05735*
X04498Y05735*
X04498Y05736*
X04498Y05736*
X04499Y05736*
X04499Y05736*
X04499Y05737*
X04499Y05737*
X045Y05737*
X045Y05737*
X045Y05738*
X045Y05738*
X045Y05738*
X045Y05739*
X045Y05739*
X045Y05739*
X03875D02*
D01*
X03875Y0574*
X03875Y0574*
X03875Y0574*
X03875Y05741*
X03875Y05741*
X03875Y05741*
X03875Y05742*
X03874Y05742*
X03874Y05742*
X03874Y05743*
X03874Y05743*
X03873Y05743*
X03873Y05743*
X03873Y05744*
X03873Y05744*
X03872Y05744*
X03872Y05744*
X03872Y05744*
X03871Y05744*
X03871Y05744*
X03871Y05744*
X0387Y05744*
X0387*
X0387Y05744*
X03869Y05744*
X03869Y05744*
X03869Y05744*
X03868Y05744*
X03868Y05744*
X03868Y05744*
X03867Y05744*
X03867Y05743*
X03867Y05743*
X03867Y05743*
X03866Y05743*
X03866Y05742*
X03866Y05742*
X03866Y05742*
X03866Y05741*
X03866Y05741*
X03865Y05741*
X03865Y0574*
X03865Y0574*
X03865Y0574*
X03865Y05739*
X03865Y05739*
X03865Y05739*
X03865Y05738*
X03865Y05738*
X03866Y05738*
X03866Y05737*
X03866Y05737*
X03866Y05737*
X03866Y05737*
X03866Y05736*
X03867Y05736*
X03867Y05736*
X03867Y05736*
X03867Y05735*
X03868Y05735*
X03868Y05735*
X03868Y05735*
X03869Y05735*
X03869Y05735*
X03869Y05735*
X0387Y05735*
X0387Y05735*
X0387*
X03871Y05735*
X03871Y05735*
X03871Y05735*
X03872Y05735*
X03872Y05735*
X03872Y05735*
X03873Y05735*
X03873Y05735*
X03873Y05736*
X03873Y05736*
X03874Y05736*
X03874Y05736*
X03874Y05737*
X03874Y05737*
X03875Y05737*
X03875Y05737*
X03875Y05738*
X03875Y05738*
X03875Y05738*
X03875Y05739*
X03875Y05739*
X03875Y05739*
X03554Y0553D02*
D01*
X03554Y05531*
X03554Y05531*
X03554Y05531*
X03554Y05532*
X03554Y05532*
X03554Y05532*
X03554Y05533*
X03554Y05533*
X03553Y05533*
X03553Y05533*
X03553Y05534*
X03553Y05534*
X03553Y05534*
X03552Y05534*
X03552Y05534*
X03552Y05535*
X03551Y05535*
X03551Y05535*
X03551Y05535*
X0355Y05535*
X0355Y05535*
X0355Y05535*
X03549*
X03549Y05535*
X03549Y05535*
X03548Y05535*
X03548Y05535*
X03548Y05535*
X03547Y05535*
X03547Y05534*
X03547Y05534*
X03546Y05534*
X03546Y05534*
X03546Y05534*
X03546Y05533*
X03546Y05533*
X03545Y05533*
X03545Y05533*
X03545Y05532*
X03545Y05532*
X03545Y05532*
X03545Y05531*
X03545Y05531*
X03545Y05531*
X03545Y0553*
X03545Y0553*
X03545Y0553*
X03545Y05529*
X03545Y05529*
X03545Y05529*
X03545Y05528*
X03545Y05528*
X03545Y05528*
X03546Y05527*
X03546Y05527*
X03546Y05527*
X03546Y05527*
X03546Y05526*
X03547Y05526*
X03547Y05526*
X03547Y05526*
X03548Y05526*
X03548Y05526*
X03548Y05525*
X03549Y05525*
X03549Y05525*
X03549Y05525*
X0355*
X0355Y05525*
X0355Y05525*
X03551Y05525*
X03551Y05526*
X03551Y05526*
X03552Y05526*
X03552Y05526*
X03552Y05526*
X03553Y05526*
X03553Y05527*
X03553Y05527*
X03553Y05527*
X03553Y05527*
X03554Y05528*
X03554Y05528*
X03554Y05528*
X03554Y05529*
X03554Y05529*
X03554Y05529*
X03554Y0553*
X03554Y0553*
X03554Y0553*
X04629Y06205D02*
D01*
X04629Y06206*
X04629Y06206*
X04629Y06206*
X04629Y06207*
X04629Y06207*
X04629Y06207*
X04629Y06208*
X04629Y06208*
X04628Y06208*
X04628Y06208*
X04628Y06209*
X04628Y06209*
X04628Y06209*
X04627Y06209*
X04627Y06209*
X04627Y0621*
X04626Y0621*
X04626Y0621*
X04626Y0621*
X04625Y0621*
X04625Y0621*
X04625Y0621*
X04624*
X04624Y0621*
X04624Y0621*
X04623Y0621*
X04623Y0621*
X04623Y0621*
X04622Y0621*
X04622Y06209*
X04622Y06209*
X04621Y06209*
X04621Y06209*
X04621Y06209*
X04621Y06208*
X04621Y06208*
X0462Y06208*
X0462Y06208*
X0462Y06207*
X0462Y06207*
X0462Y06207*
X0462Y06206*
X0462Y06206*
X0462Y06206*
X0462Y06205*
X0462Y06205*
X0462Y06205*
X0462Y06204*
X0462Y06204*
X0462Y06204*
X0462Y06203*
X0462Y06203*
X0462Y06203*
X04621Y06202*
X04621Y06202*
X04621Y06202*
X04621Y06202*
X04621Y06201*
X04622Y06201*
X04622Y06201*
X04622Y06201*
X04623Y06201*
X04623Y06201*
X04623Y062*
X04624Y062*
X04624Y062*
X04624Y062*
X04625*
X04625Y062*
X04625Y062*
X04626Y062*
X04626Y06201*
X04626Y06201*
X04627Y06201*
X04627Y06201*
X04627Y06201*
X04628Y06201*
X04628Y06202*
X04628Y06202*
X04628Y06202*
X04628Y06202*
X04629Y06203*
X04629Y06203*
X04629Y06203*
X04629Y06204*
X04629Y06204*
X04629Y06204*
X04629Y06205*
X04629Y06205*
X04629Y06205*
X09649Y0625D02*
D01*
X09649Y0625*
X09649Y0625*
X09649Y06251*
X09649Y06251*
X09648Y06251*
X09648Y06252*
X09648Y06252*
X09648Y06252*
X09648Y06252*
X09648Y06253*
X09647Y06253*
X09647Y06253*
X09647Y06253*
X09647Y06254*
X09646Y06254*
X09646Y06254*
X09646Y06254*
X09645Y06254*
X09645Y06254*
X09645Y06254*
X09644Y06254*
X09644Y06254*
X09644*
X09643Y06254*
X09643Y06254*
X09643Y06254*
X09642Y06254*
X09642Y06254*
X09642Y06254*
X09641Y06254*
X09641Y06254*
X09641Y06253*
X0964Y06253*
X0964Y06253*
X0964Y06253*
X0964Y06252*
X0964Y06252*
X09639Y06252*
X09639Y06252*
X09639Y06251*
X09639Y06251*
X09639Y06251*
X09639Y0625*
X09639Y0625*
X09639Y0625*
X09639Y06249*
X09639Y06249*
X09639Y06248*
X09639Y06248*
X09639Y06248*
X09639Y06247*
X09639Y06247*
X0964Y06247*
X0964Y06247*
X0964Y06246*
X0964Y06246*
X0964Y06246*
X09641Y06246*
X09641Y06245*
X09641Y06245*
X09642Y06245*
X09642Y06245*
X09642Y06245*
X09643Y06245*
X09643Y06245*
X09643Y06245*
X09644Y06245*
X09644*
X09644Y06245*
X09645Y06245*
X09645Y06245*
X09645Y06245*
X09646Y06245*
X09646Y06245*
X09646Y06245*
X09647Y06245*
X09647Y06246*
X09647Y06246*
X09647Y06246*
X09648Y06246*
X09648Y06247*
X09648Y06247*
X09648Y06247*
X09648Y06247*
X09648Y06248*
X09649Y06248*
X09649Y06248*
X09649Y06249*
X09649Y06249*
X09649Y0625*
X01629Y05455D02*
D01*
X01629Y05456*
X01629Y05456*
X01629Y05456*
X01629Y05457*
X01629Y05457*
X01629Y05457*
X01629Y05458*
X01629Y05458*
X01628Y05458*
X01628Y05458*
X01628Y05459*
X01628Y05459*
X01628Y05459*
X01627Y05459*
X01627Y05459*
X01627Y0546*
X01626Y0546*
X01626Y0546*
X01626Y0546*
X01625Y0546*
X01625Y0546*
X01625Y0546*
X01624*
X01624Y0546*
X01624Y0546*
X01623Y0546*
X01623Y0546*
X01623Y0546*
X01622Y0546*
X01622Y05459*
X01622Y05459*
X01621Y05459*
X01621Y05459*
X01621Y05459*
X01621Y05458*
X01621Y05458*
X0162Y05458*
X0162Y05458*
X0162Y05457*
X0162Y05457*
X0162Y05457*
X0162Y05456*
X0162Y05456*
X0162Y05456*
X0162Y05455*
X0162Y05455*
X0162Y05455*
X0162Y05454*
X0162Y05454*
X0162Y05454*
X0162Y05453*
X0162Y05453*
X0162Y05453*
X01621Y05452*
X01621Y05452*
X01621Y05452*
X01621Y05452*
X01621Y05451*
X01622Y05451*
X01622Y05451*
X01622Y05451*
X01623Y05451*
X01623Y05451*
X01623Y0545*
X01624Y0545*
X01624Y0545*
X01624Y0545*
X01625*
X01625Y0545*
X01625Y0545*
X01626Y0545*
X01626Y05451*
X01626Y05451*
X01627Y05451*
X01627Y05451*
X01627Y05451*
X01628Y05451*
X01628Y05452*
X01628Y05452*
X01628Y05452*
X01628Y05452*
X01629Y05453*
X01629Y05453*
X01629Y05453*
X01629Y05454*
X01629Y05454*
X01629Y05454*
X01629Y05455*
X01629Y05455*
X01629Y05455*
X04804Y0118D02*
D01*
X04804Y01181*
X04804Y01181*
X04804Y01181*
X04804Y01182*
X04804Y01182*
X04804Y01182*
X04804Y01183*
X04804Y01183*
X04803Y01183*
X04803Y01183*
X04803Y01184*
X04803Y01184*
X04803Y01184*
X04802Y01184*
X04802Y01184*
X04802Y01185*
X04801Y01185*
X04801Y01185*
X04801Y01185*
X048Y01185*
X048Y01185*
X048Y01185*
X04799*
X04799Y01185*
X04799Y01185*
X04798Y01185*
X04798Y01185*
X04798Y01185*
X04797Y01185*
X04797Y01184*
X04797Y01184*
X04796Y01184*
X04796Y01184*
X04796Y01184*
X04796Y01183*
X04796Y01183*
X04795Y01183*
X04795Y01183*
X04795Y01182*
X04795Y01182*
X04795Y01182*
X04795Y01181*
X04795Y01181*
X04795Y01181*
X04795Y0118*
X04795Y0118*
X04795Y0118*
X04795Y01179*
X04795Y01179*
X04795Y01179*
X04795Y01178*
X04795Y01178*
X04795Y01178*
X04796Y01177*
X04796Y01177*
X04796Y01177*
X04796Y01177*
X04796Y01176*
X04797Y01176*
X04797Y01176*
X04797Y01176*
X04798Y01176*
X04798Y01176*
X04798Y01175*
X04799Y01175*
X04799Y01175*
X04799Y01175*
X048*
X048Y01175*
X048Y01175*
X04801Y01175*
X04801Y01176*
X04801Y01176*
X04802Y01176*
X04802Y01176*
X04802Y01176*
X04803Y01176*
X04803Y01177*
X04803Y01177*
X04803Y01177*
X04803Y01177*
X04804Y01178*
X04804Y01178*
X04804Y01178*
X04804Y01179*
X04804Y01179*
X04804Y01179*
X04804Y0118*
X04804Y0118*
X04804Y0118*
X09804Y0338D02*
D01*
X09804Y03381*
X09804Y03381*
X09804Y03381*
X09804Y03382*
X09804Y03382*
X09804Y03382*
X09804Y03383*
X09804Y03383*
X09803Y03383*
X09803Y03383*
X09803Y03384*
X09803Y03384*
X09803Y03384*
X09802Y03384*
X09802Y03384*
X09802Y03385*
X09801Y03385*
X09801Y03385*
X09801Y03385*
X098Y03385*
X098Y03385*
X098Y03385*
X09799*
X09799Y03385*
X09799Y03385*
X09798Y03385*
X09798Y03385*
X09798Y03385*
X09797Y03385*
X09797Y03384*
X09797Y03384*
X09796Y03384*
X09796Y03384*
X09796Y03384*
X09796Y03383*
X09796Y03383*
X09795Y03383*
X09795Y03383*
X09795Y03382*
X09795Y03382*
X09795Y03382*
X09795Y03381*
X09795Y03381*
X09795Y03381*
X09795Y0338*
X09795Y0338*
X09795Y0338*
X09795Y03379*
X09795Y03379*
X09795Y03379*
X09795Y03378*
X09795Y03378*
X09795Y03378*
X09796Y03377*
X09796Y03377*
X09796Y03377*
X09796Y03377*
X09796Y03376*
X09797Y03376*
X09797Y03376*
X09797Y03376*
X09798Y03376*
X09798Y03376*
X09798Y03375*
X09799Y03375*
X09799Y03375*
X09799Y03375*
X098*
X098Y03375*
X098Y03375*
X09801Y03375*
X09801Y03376*
X09801Y03376*
X09802Y03376*
X09802Y03376*
X09802Y03376*
X09803Y03376*
X09803Y03377*
X09803Y03377*
X09803Y03377*
X09803Y03377*
X09804Y03378*
X09804Y03378*
X09804Y03378*
X09804Y03379*
X09804Y03379*
X09804Y03379*
X09804Y0338*
X09804Y0338*
X09804Y0338*
X01704Y0118D02*
D01*
X01704Y01181*
X01704Y01181*
X01704Y01181*
X01704Y01182*
X01704Y01182*
X01704Y01182*
X01704Y01183*
X01704Y01183*
X01703Y01183*
X01703Y01183*
X01703Y01184*
X01703Y01184*
X01703Y01184*
X01702Y01184*
X01702Y01184*
X01702Y01185*
X01701Y01185*
X01701Y01185*
X01701Y01185*
X017Y01185*
X017Y01185*
X017Y01185*
X01699*
X01699Y01185*
X01699Y01185*
X01698Y01185*
X01698Y01185*
X01698Y01185*
X01697Y01185*
X01697Y01184*
X01697Y01184*
X01696Y01184*
X01696Y01184*
X01696Y01184*
X01696Y01183*
X01696Y01183*
X01695Y01183*
X01695Y01183*
X01695Y01182*
X01695Y01182*
X01695Y01182*
X01695Y01181*
X01695Y01181*
X01695Y01181*
X01695Y0118*
X01695Y0118*
X01695Y0118*
X01695Y01179*
X01695Y01179*
X01695Y01179*
X01695Y01178*
X01695Y01178*
X01695Y01178*
X01696Y01177*
X01696Y01177*
X01696Y01177*
X01696Y01177*
X01696Y01176*
X01697Y01176*
X01697Y01176*
X01697Y01176*
X01698Y01176*
X01698Y01176*
X01698Y01175*
X01699Y01175*
X01699Y01175*
X01699Y01175*
X017*
X017Y01175*
X017Y01175*
X01701Y01175*
X01701Y01176*
X01701Y01176*
X01702Y01176*
X01702Y01176*
X01702Y01176*
X01703Y01176*
X01703Y01177*
X01703Y01177*
X01703Y01177*
X01703Y01177*
X01704Y01178*
X01704Y01178*
X01704Y01178*
X01704Y01179*
X01704Y01179*
X01704Y01179*
X01704Y0118*
X01704Y0118*
X01704Y0118*
X06504Y0208D02*
D01*
X06504Y02081*
X06504Y02081*
X06504Y02081*
X06504Y02082*
X06504Y02082*
X06504Y02082*
X06504Y02083*
X06504Y02083*
X06503Y02083*
X06503Y02083*
X06503Y02084*
X06503Y02084*
X06503Y02084*
X06502Y02084*
X06502Y02084*
X06502Y02085*
X06501Y02085*
X06501Y02085*
X06501Y02085*
X065Y02085*
X065Y02085*
X065Y02085*
X06499*
X06499Y02085*
X06499Y02085*
X06498Y02085*
X06498Y02085*
X06498Y02085*
X06497Y02085*
X06497Y02084*
X06497Y02084*
X06496Y02084*
X06496Y02084*
X06496Y02084*
X06496Y02083*
X06496Y02083*
X06495Y02083*
X06495Y02083*
X06495Y02082*
X06495Y02082*
X06495Y02082*
X06495Y02081*
X06495Y02081*
X06495Y02081*
X06495Y0208*
X06495Y0208*
X06495Y0208*
X06495Y02079*
X06495Y02079*
X06495Y02079*
X06495Y02078*
X06495Y02078*
X06495Y02078*
X06496Y02077*
X06496Y02077*
X06496Y02077*
X06496Y02077*
X06496Y02076*
X06497Y02076*
X06497Y02076*
X06497Y02076*
X06498Y02076*
X06498Y02076*
X06498Y02075*
X06499Y02075*
X06499Y02075*
X06499Y02075*
X065*
X065Y02075*
X065Y02075*
X06501Y02075*
X06501Y02076*
X06501Y02076*
X06502Y02076*
X06502Y02076*
X06502Y02076*
X06503Y02076*
X06503Y02077*
X06503Y02077*
X06503Y02077*
X06503Y02077*
X06504Y02078*
X06504Y02078*
X06504Y02078*
X06504Y02079*
X06504Y02079*
X06504Y02079*
X06504Y0208*
X06504Y0208*
X06504Y0208*
X02311Y05225D02*
D01*
X02311Y05225*
X02311Y05225*
X02311Y05226*
X02311Y05226*
X0231Y05226*
X0231Y05227*
X0231Y05227*
X0231Y05227*
X0231Y05227*
X0231Y05228*
X02309Y05228*
X02309Y05228*
X02309Y05228*
X02309Y05229*
X02308Y05229*
X02308Y05229*
X02308Y05229*
X02307Y05229*
X02307Y05229*
X02307Y05229*
X02306Y05229*
X02306Y05229*
X02306*
X02305Y05229*
X02305Y05229*
X02305Y05229*
X02304Y05229*
X02304Y05229*
X02304Y05229*
X02303Y05229*
X02303Y05229*
X02303Y05228*
X02303Y05228*
X02302Y05228*
X02302Y05228*
X02302Y05227*
X02302Y05227*
X02301Y05227*
X02301Y05227*
X02301Y05226*
X02301Y05226*
X02301Y05226*
X02301Y05225*
X02301Y05225*
X02301Y05225*
X02301Y05224*
X02301Y05224*
X02301Y05223*
X02301Y05223*
X02301Y05223*
X02301Y05222*
X02301Y05222*
X02302Y05222*
X02302Y05222*
X02302Y05221*
X02302Y05221*
X02303Y05221*
X02303Y05221*
X02303Y0522*
X02303Y0522*
X02304Y0522*
X02304Y0522*
X02304Y0522*
X02305Y0522*
X02305Y0522*
X02305Y0522*
X02306Y0522*
X02306*
X02306Y0522*
X02307Y0522*
X02307Y0522*
X02307Y0522*
X02308Y0522*
X02308Y0522*
X02308Y0522*
X02309Y0522*
X02309Y05221*
X02309Y05221*
X02309Y05221*
X0231Y05221*
X0231Y05222*
X0231Y05222*
X0231Y05222*
X0231Y05222*
X0231Y05223*
X02311Y05223*
X02311Y05223*
X02311Y05224*
X02311Y05224*
X02311Y05225*
X03042Y04956D02*
D01*
X03042Y04956*
X03042Y04956*
X03042Y04957*
X03042Y04957*
X03042Y04957*
X03042Y04958*
X03042Y04958*
X03041Y04958*
X03041Y04958*
X03041Y04959*
X03041Y04959*
X03041Y04959*
X0304Y04959*
X0304Y0496*
X0304Y0496*
X03039Y0496*
X03039Y0496*
X03039Y0496*
X03038Y0496*
X03038Y0496*
X03038Y0496*
X03037Y04961*
X03037*
X03037Y0496*
X03036Y0496*
X03036Y0496*
X03036Y0496*
X03035Y0496*
X03035Y0496*
X03035Y0496*
X03035Y0496*
X03034Y04959*
X03034Y04959*
X03034Y04959*
X03034Y04959*
X03033Y04958*
X03033Y04958*
X03033Y04958*
X03033Y04958*
X03033Y04957*
X03033Y04957*
X03032Y04957*
X03032Y04956*
X03032Y04956*
X03032Y04956*
X03032Y04955*
X03032Y04955*
X03032Y04955*
X03033Y04954*
X03033Y04954*
X03033Y04954*
X03033Y04953*
X03033Y04953*
X03033Y04953*
X03034Y04952*
X03034Y04952*
X03034Y04952*
X03034Y04952*
X03035Y04952*
X03035Y04951*
X03035Y04951*
X03035Y04951*
X03036Y04951*
X03036Y04951*
X03036Y04951*
X03037Y04951*
X03037Y04951*
X03037*
X03038Y04951*
X03038Y04951*
X03038Y04951*
X03039Y04951*
X03039Y04951*
X03039Y04951*
X0304Y04951*
X0304Y04952*
X0304Y04952*
X03041Y04952*
X03041Y04952*
X03041Y04952*
X03041Y04953*
X03041Y04953*
X03042Y04953*
X03042Y04954*
X03042Y04954*
X03042Y04954*
X03042Y04955*
X03042Y04955*
X03042Y04955*
X03042Y04956*
X02504Y0488D02*
D01*
X02504Y0488*
X02504Y0488*
X02504Y04881*
X02504Y04881*
X02504Y04881*
X02504Y04882*
X02504Y04882*
X02504Y04882*
X02503Y04883*
X02503Y04883*
X02503Y04883*
X02503Y04883*
X02503Y04884*
X02502Y04884*
X02502Y04884*
X02502Y04884*
X02501Y04884*
X02501Y04884*
X02501Y04885*
X025Y04885*
X025Y04885*
X025Y04885*
X02499*
X02499Y04885*
X02499Y04885*
X02498Y04885*
X02498Y04884*
X02498Y04884*
X02497Y04884*
X02497Y04884*
X02497Y04884*
X02496Y04884*
X02496Y04883*
X02496Y04883*
X02496Y04883*
X02496Y04883*
X02495Y04882*
X02495Y04882*
X02495Y04882*
X02495Y04881*
X02495Y04881*
X02495Y04881*
X02495Y0488*
X02495Y0488*
X02495Y0488*
X02495Y04879*
X02495Y04879*
X02495Y04879*
X02495Y04878*
X02495Y04878*
X02495Y04878*
X02495Y04878*
X02495Y04877*
X02496Y04877*
X02496Y04877*
X02496Y04876*
X02496Y04876*
X02496Y04876*
X02497Y04876*
X02497Y04876*
X02497Y04875*
X02498Y04875*
X02498Y04875*
X02498Y04875*
X02499Y04875*
X02499Y04875*
X02499Y04875*
X025*
X025Y04875*
X025Y04875*
X02501Y04875*
X02501Y04875*
X02501Y04875*
X02502Y04875*
X02502Y04876*
X02502Y04876*
X02503Y04876*
X02503Y04876*
X02503Y04876*
X02503Y04877*
X02503Y04877*
X02504Y04877*
X02504Y04878*
X02504Y04878*
X02504Y04878*
X02504Y04878*
X02504Y04879*
X02504Y04879*
X02504Y04879*
X02504Y0488*
X04227Y06772D02*
D01*
X04227Y06772*
X04227Y06772*
X04227Y06773*
X04227Y06773*
X04227Y06773*
X04227Y06774*
X04227Y06774*
X04227Y06774*
X04226Y06775*
X04226Y06775*
X04226Y06775*
X04226Y06775*
X04225Y06776*
X04225Y06776*
X04225Y06776*
X04224Y06776*
X04224Y06776*
X04224Y06776*
X04224Y06777*
X04223Y06777*
X04223Y06777*
X04223Y06777*
X04222*
X04222Y06777*
X04221Y06777*
X04221Y06777*
X04221Y06776*
X0422Y06776*
X0422Y06776*
X0422Y06776*
X0422Y06776*
X04219Y06776*
X04219Y06775*
X04219Y06775*
X04219Y06775*
X04218Y06775*
X04218Y06774*
X04218Y06774*
X04218Y06774*
X04218Y06773*
X04218Y06773*
X04218Y06773*
X04217Y06772*
X04217Y06772*
X04217Y06772*
X04217Y06771*
X04217Y06771*
X04218Y06771*
X04218Y0677*
X04218Y0677*
X04218Y0677*
X04218Y06769*
X04218Y06769*
X04218Y06769*
X04219Y06769*
X04219Y06768*
X04219Y06768*
X04219Y06768*
X0422Y06768*
X0422Y06767*
X0422Y06767*
X0422Y06767*
X04221Y06767*
X04221Y06767*
X04221Y06767*
X04222Y06767*
X04222Y06767*
X04223*
X04223Y06767*
X04223Y06767*
X04224Y06767*
X04224Y06767*
X04224Y06767*
X04224Y06767*
X04225Y06767*
X04225Y06768*
X04225Y06768*
X04226Y06768*
X04226Y06768*
X04226Y06769*
X04226Y06769*
X04227Y06769*
X04227Y06769*
X04227Y0677*
X04227Y0677*
X04227Y0677*
X04227Y06771*
X04227Y06771*
X04227Y06771*
X04227Y06772*
X04582Y06627D02*
D01*
X04582Y06628*
X04582Y06628*
X04581Y06628*
X04581Y06629*
X04581Y06629*
X04581Y06629*
X04581Y0663*
X04581Y0663*
X04581Y0663*
X0458Y0663*
X0458Y06631*
X0458Y06631*
X0458Y06631*
X04579Y06631*
X04579Y06632*
X04579Y06632*
X04579Y06632*
X04578Y06632*
X04578Y06632*
X04578Y06632*
X04577Y06632*
X04577Y06632*
X04576*
X04576Y06632*
X04576Y06632*
X04575Y06632*
X04575Y06632*
X04575Y06632*
X04575Y06632*
X04574Y06632*
X04574Y06631*
X04574Y06631*
X04573Y06631*
X04573Y06631*
X04573Y0663*
X04573Y0663*
X04572Y0663*
X04572Y0663*
X04572Y06629*
X04572Y06629*
X04572Y06629*
X04572Y06628*
X04572Y06628*
X04572Y06628*
X04572Y06627*
X04572Y06627*
X04572Y06627*
X04572Y06626*
X04572Y06626*
X04572Y06626*
X04572Y06625*
X04572Y06625*
X04572Y06625*
X04573Y06624*
X04573Y06624*
X04573Y06624*
X04573Y06624*
X04574Y06623*
X04574Y06623*
X04574Y06623*
X04575Y06623*
X04575Y06623*
X04575Y06623*
X04575Y06622*
X04576Y06622*
X04576Y06622*
X04576Y06622*
X04577*
X04577Y06622*
X04578Y06622*
X04578Y06622*
X04578Y06623*
X04579Y06623*
X04579Y06623*
X04579Y06623*
X04579Y06623*
X0458Y06623*
X0458Y06624*
X0458Y06624*
X0458Y06624*
X04581Y06624*
X04581Y06625*
X04581Y06625*
X04581Y06625*
X04581Y06626*
X04581Y06626*
X04581Y06626*
X04582Y06627*
X04582Y06627*
X04582Y06627*
X02457Y06932D02*
D01*
X02457Y06933*
X02457Y06933*
X02456Y06933*
X02456Y06934*
X02456Y06934*
X02456Y06934*
X02456Y06934*
X02456Y06935*
X02456Y06935*
X02455Y06935*
X02455Y06936*
X02455Y06936*
X02455Y06936*
X02454Y06936*
X02454Y06936*
X02454Y06937*
X02454Y06937*
X02453Y06937*
X02453Y06937*
X02453Y06937*
X02452Y06937*
X02452Y06937*
X02451*
X02451Y06937*
X02451Y06937*
X0245Y06937*
X0245Y06937*
X0245Y06937*
X0245Y06937*
X02449Y06936*
X02449Y06936*
X02449Y06936*
X02448Y06936*
X02448Y06936*
X02448Y06935*
X02448Y06935*
X02447Y06935*
X02447Y06934*
X02447Y06934*
X02447Y06934*
X02447Y06934*
X02447Y06933*
X02447Y06933*
X02447Y06933*
X02447Y06932*
X02447Y06932*
X02447Y06931*
X02447Y06931*
X02447Y06931*
X02447Y0693*
X02447Y0693*
X02447Y0693*
X02447Y0693*
X02448Y06929*
X02448Y06929*
X02448Y06929*
X02448Y06929*
X02449Y06928*
X02449Y06928*
X02449Y06928*
X0245Y06928*
X0245Y06928*
X0245Y06928*
X0245Y06927*
X02451Y06927*
X02451Y06927*
X02451Y06927*
X02452*
X02452Y06927*
X02453Y06927*
X02453Y06927*
X02453Y06928*
X02454Y06928*
X02454Y06928*
X02454Y06928*
X02454Y06928*
X02455Y06928*
X02455Y06929*
X02455Y06929*
X02455Y06929*
X02456Y06929*
X02456Y0693*
X02456Y0693*
X02456Y0693*
X02456Y0693*
X02456Y06931*
X02456Y06931*
X02457Y06931*
X02457Y06932*
X02457Y06932*
X02707D02*
D01*
X02707Y06933*
X02707Y06933*
X02706Y06933*
X02706Y06934*
X02706Y06934*
X02706Y06934*
X02706Y06934*
X02706Y06935*
X02706Y06935*
X02705Y06935*
X02705Y06936*
X02705Y06936*
X02705Y06936*
X02704Y06936*
X02704Y06936*
X02704Y06937*
X02704Y06937*
X02703Y06937*
X02703Y06937*
X02703Y06937*
X02702Y06937*
X02702Y06937*
X02701*
X02701Y06937*
X02701Y06937*
X027Y06937*
X027Y06937*
X027Y06937*
X027Y06937*
X02699Y06936*
X02699Y06936*
X02699Y06936*
X02698Y06936*
X02698Y06936*
X02698Y06935*
X02698Y06935*
X02697Y06935*
X02697Y06934*
X02697Y06934*
X02697Y06934*
X02697Y06934*
X02697Y06933*
X02697Y06933*
X02697Y06933*
X02697Y06932*
X02697Y06932*
X02697Y06931*
X02697Y06931*
X02697Y06931*
X02697Y0693*
X02697Y0693*
X02697Y0693*
X02697Y0693*
X02698Y06929*
X02698Y06929*
X02698Y06929*
X02698Y06929*
X02699Y06928*
X02699Y06928*
X02699Y06928*
X027Y06928*
X027Y06928*
X027Y06928*
X027Y06927*
X02701Y06927*
X02701Y06927*
X02701Y06927*
X02702*
X02702Y06927*
X02703Y06927*
X02703Y06927*
X02703Y06928*
X02704Y06928*
X02704Y06928*
X02704Y06928*
X02704Y06928*
X02705Y06928*
X02705Y06929*
X02705Y06929*
X02705Y06929*
X02706Y06929*
X02706Y0693*
X02706Y0693*
X02706Y0693*
X02706Y0693*
X02706Y06931*
X02706Y06931*
X02707Y06931*
X02707Y06932*
X02707Y06932*
X08857Y07007D02*
D01*
X08857Y07008*
X08857Y07008*
X08856Y07008*
X08856Y07009*
X08856Y07009*
X08856Y07009*
X08856Y07009*
X08856Y0701*
X08856Y0701*
X08855Y0701*
X08855Y07011*
X08855Y07011*
X08855Y07011*
X08854Y07011*
X08854Y07011*
X08854Y07012*
X08854Y07012*
X08853Y07012*
X08853Y07012*
X08853Y07012*
X08852Y07012*
X08852Y07012*
X08851*
X08851Y07012*
X08851Y07012*
X0885Y07012*
X0885Y07012*
X0885Y07012*
X0885Y07012*
X08849Y07011*
X08849Y07011*
X08849Y07011*
X08848Y07011*
X08848Y07011*
X08848Y0701*
X08848Y0701*
X08847Y0701*
X08847Y07009*
X08847Y07009*
X08847Y07009*
X08847Y07009*
X08847Y07008*
X08847Y07008*
X08847Y07008*
X08847Y07007*
X08847Y07007*
X08847Y07006*
X08847Y07006*
X08847Y07006*
X08847Y07005*
X08847Y07005*
X08847Y07005*
X08847Y07005*
X08848Y07004*
X08848Y07004*
X08848Y07004*
X08848Y07004*
X08849Y07003*
X08849Y07003*
X08849Y07003*
X0885Y07003*
X0885Y07003*
X0885Y07003*
X0885Y07002*
X08851Y07002*
X08851Y07002*
X08851Y07002*
X08852*
X08852Y07002*
X08853Y07002*
X08853Y07002*
X08853Y07003*
X08854Y07003*
X08854Y07003*
X08854Y07003*
X08854Y07003*
X08855Y07003*
X08855Y07004*
X08855Y07004*
X08855Y07004*
X08856Y07004*
X08856Y07005*
X08856Y07005*
X08856Y07005*
X08856Y07005*
X08856Y07006*
X08856Y07006*
X08857Y07006*
X08857Y07007*
X08857Y07007*
X08507D02*
D01*
X08507Y07008*
X08507Y07008*
X08506Y07008*
X08506Y07009*
X08506Y07009*
X08506Y07009*
X08506Y07009*
X08506Y0701*
X08506Y0701*
X08505Y0701*
X08505Y07011*
X08505Y07011*
X08505Y07011*
X08504Y07011*
X08504Y07011*
X08504Y07012*
X08504Y07012*
X08503Y07012*
X08503Y07012*
X08503Y07012*
X08502Y07012*
X08502Y07012*
X08501*
X08501Y07012*
X08501Y07012*
X085Y07012*
X085Y07012*
X085Y07012*
X085Y07012*
X08499Y07011*
X08499Y07011*
X08499Y07011*
X08498Y07011*
X08498Y07011*
X08498Y0701*
X08498Y0701*
X08497Y0701*
X08497Y07009*
X08497Y07009*
X08497Y07009*
X08497Y07009*
X08497Y07008*
X08497Y07008*
X08497Y07008*
X08497Y07007*
X08497Y07007*
X08497Y07006*
X08497Y07006*
X08497Y07006*
X08497Y07005*
X08497Y07005*
X08497Y07005*
X08497Y07005*
X08498Y07004*
X08498Y07004*
X08498Y07004*
X08498Y07004*
X08499Y07003*
X08499Y07003*
X08499Y07003*
X085Y07003*
X085Y07003*
X085Y07003*
X085Y07002*
X08501Y07002*
X08501Y07002*
X08501Y07002*
X08502*
X08502Y07002*
X08503Y07002*
X08503Y07002*
X08503Y07003*
X08504Y07003*
X08504Y07003*
X08504Y07003*
X08504Y07003*
X08505Y07003*
X08505Y07004*
X08505Y07004*
X08505Y07004*
X08506Y07004*
X08506Y07005*
X08506Y07005*
X08506Y07005*
X08506Y07005*
X08506Y07006*
X08506Y07006*
X08507Y07006*
X08507Y07007*
X08507Y07007*
X08682D02*
D01*
X08682Y07008*
X08682Y07008*
X08681Y07008*
X08681Y07009*
X08681Y07009*
X08681Y07009*
X08681Y07009*
X08681Y0701*
X08681Y0701*
X0868Y0701*
X0868Y07011*
X0868Y07011*
X0868Y07011*
X08679Y07011*
X08679Y07011*
X08679Y07012*
X08679Y07012*
X08678Y07012*
X08678Y07012*
X08678Y07012*
X08677Y07012*
X08677Y07012*
X08676*
X08676Y07012*
X08676Y07012*
X08675Y07012*
X08675Y07012*
X08675Y07012*
X08675Y07012*
X08674Y07011*
X08674Y07011*
X08674Y07011*
X08673Y07011*
X08673Y07011*
X08673Y0701*
X08673Y0701*
X08672Y0701*
X08672Y07009*
X08672Y07009*
X08672Y07009*
X08672Y07009*
X08672Y07008*
X08672Y07008*
X08672Y07008*
X08672Y07007*
X08672Y07007*
X08672Y07006*
X08672Y07006*
X08672Y07006*
X08672Y07005*
X08672Y07005*
X08672Y07005*
X08672Y07005*
X08673Y07004*
X08673Y07004*
X08673Y07004*
X08673Y07004*
X08674Y07003*
X08674Y07003*
X08674Y07003*
X08675Y07003*
X08675Y07003*
X08675Y07003*
X08675Y07002*
X08676Y07002*
X08676Y07002*
X08676Y07002*
X08677*
X08677Y07002*
X08678Y07002*
X08678Y07002*
X08678Y07003*
X08679Y07003*
X08679Y07003*
X08679Y07003*
X08679Y07003*
X0868Y07003*
X0868Y07004*
X0868Y07004*
X0868Y07004*
X08681Y07004*
X08681Y07005*
X08681Y07005*
X08681Y07005*
X08681Y07005*
X08681Y07006*
X08681Y07006*
X08682Y07006*
X08682Y07007*
X08682Y07007*
X03782Y07032D02*
D01*
X03782Y07033*
X03782Y07033*
X03781Y07033*
X03781Y07034*
X03781Y07034*
X03781Y07034*
X03781Y07034*
X03781Y07035*
X03781Y07035*
X0378Y07035*
X0378Y07036*
X0378Y07036*
X0378Y07036*
X03779Y07036*
X03779Y07036*
X03779Y07037*
X03779Y07037*
X03778Y07037*
X03778Y07037*
X03778Y07037*
X03777Y07037*
X03777Y07037*
X03776*
X03776Y07037*
X03776Y07037*
X03775Y07037*
X03775Y07037*
X03775Y07037*
X03775Y07037*
X03774Y07036*
X03774Y07036*
X03774Y07036*
X03773Y07036*
X03773Y07036*
X03773Y07035*
X03773Y07035*
X03772Y07035*
X03772Y07034*
X03772Y07034*
X03772Y07034*
X03772Y07034*
X03772Y07033*
X03772Y07033*
X03772Y07033*
X03772Y07032*
X03772Y07032*
X03772Y07031*
X03772Y07031*
X03772Y07031*
X03772Y0703*
X03772Y0703*
X03772Y0703*
X03772Y0703*
X03773Y07029*
X03773Y07029*
X03773Y07029*
X03773Y07029*
X03774Y07028*
X03774Y07028*
X03774Y07028*
X03775Y07028*
X03775Y07028*
X03775Y07028*
X03775Y07027*
X03776Y07027*
X03776Y07027*
X03776Y07027*
X03777*
X03777Y07027*
X03778Y07027*
X03778Y07027*
X03778Y07028*
X03779Y07028*
X03779Y07028*
X03779Y07028*
X03779Y07028*
X0378Y07028*
X0378Y07029*
X0378Y07029*
X0378Y07029*
X03781Y07029*
X03781Y0703*
X03781Y0703*
X03781Y0703*
X03781Y0703*
X03781Y07031*
X03781Y07031*
X03782Y07031*
X03782Y07032*
X03782Y07032*
X03507D02*
D01*
X03507Y07033*
X03507Y07033*
X03506Y07033*
X03506Y07034*
X03506Y07034*
X03506Y07034*
X03506Y07034*
X03506Y07035*
X03506Y07035*
X03505Y07035*
X03505Y07036*
X03505Y07036*
X03505Y07036*
X03504Y07036*
X03504Y07036*
X03504Y07037*
X03504Y07037*
X03503Y07037*
X03503Y07037*
X03503Y07037*
X03502Y07037*
X03502Y07037*
X03501*
X03501Y07037*
X03501Y07037*
X035Y07037*
X035Y07037*
X035Y07037*
X035Y07037*
X03499Y07036*
X03499Y07036*
X03499Y07036*
X03498Y07036*
X03498Y07036*
X03498Y07035*
X03498Y07035*
X03497Y07035*
X03497Y07034*
X03497Y07034*
X03497Y07034*
X03497Y07034*
X03497Y07033*
X03497Y07033*
X03497Y07033*
X03497Y07032*
X03497Y07032*
X03497Y07031*
X03497Y07031*
X03497Y07031*
X03497Y0703*
X03497Y0703*
X03497Y0703*
X03497Y0703*
X03498Y07029*
X03498Y07029*
X03498Y07029*
X03498Y07029*
X03499Y07028*
X03499Y07028*
X03499Y07028*
X035Y07028*
X035Y07028*
X035Y07028*
X035Y07027*
X03501Y07027*
X03501Y07027*
X03501Y07027*
X03502*
X03502Y07027*
X03503Y07027*
X03503Y07027*
X03503Y07028*
X03504Y07028*
X03504Y07028*
X03504Y07028*
X03504Y07028*
X03505Y07028*
X03505Y07029*
X03505Y07029*
X03505Y07029*
X03506Y07029*
X03506Y0703*
X03506Y0703*
X03506Y0703*
X03506Y0703*
X03506Y07031*
X03506Y07031*
X03507Y07031*
X03507Y07032*
X03507Y07032*
X03232D02*
D01*
X03232Y07033*
X03232Y07033*
X03231Y07033*
X03231Y07034*
X03231Y07034*
X03231Y07034*
X03231Y07034*
X03231Y07035*
X03231Y07035*
X0323Y07035*
X0323Y07036*
X0323Y07036*
X0323Y07036*
X03229Y07036*
X03229Y07036*
X03229Y07037*
X03229Y07037*
X03228Y07037*
X03228Y07037*
X03228Y07037*
X03227Y07037*
X03227Y07037*
X03226*
X03226Y07037*
X03226Y07037*
X03225Y07037*
X03225Y07037*
X03225Y07037*
X03225Y07037*
X03224Y07036*
X03224Y07036*
X03224Y07036*
X03223Y07036*
X03223Y07036*
X03223Y07035*
X03223Y07035*
X03222Y07035*
X03222Y07034*
X03222Y07034*
X03222Y07034*
X03222Y07034*
X03222Y07033*
X03222Y07033*
X03222Y07033*
X03222Y07032*
X03222Y07032*
X03222Y07031*
X03222Y07031*
X03222Y07031*
X03222Y0703*
X03222Y0703*
X03222Y0703*
X03222Y0703*
X03223Y07029*
X03223Y07029*
X03223Y07029*
X03223Y07029*
X03224Y07028*
X03224Y07028*
X03224Y07028*
X03225Y07028*
X03225Y07028*
X03225Y07028*
X03225Y07027*
X03226Y07027*
X03226Y07027*
X03226Y07027*
X03227*
X03227Y07027*
X03228Y07027*
X03228Y07027*
X03228Y07028*
X03229Y07028*
X03229Y07028*
X03229Y07028*
X03229Y07028*
X0323Y07028*
X0323Y07029*
X0323Y07029*
X0323Y07029*
X03231Y07029*
X03231Y0703*
X03231Y0703*
X03231Y0703*
X03231Y0703*
X03231Y07031*
X03231Y07031*
X03232Y07031*
X03232Y07032*
X03232Y07032*
X02957D02*
D01*
X02957Y07033*
X02957Y07033*
X02956Y07033*
X02956Y07034*
X02956Y07034*
X02956Y07034*
X02956Y07034*
X02956Y07035*
X02956Y07035*
X02955Y07035*
X02955Y07036*
X02955Y07036*
X02955Y07036*
X02954Y07036*
X02954Y07036*
X02954Y07037*
X02954Y07037*
X02953Y07037*
X02953Y07037*
X02953Y07037*
X02952Y07037*
X02952Y07037*
X02951*
X02951Y07037*
X02951Y07037*
X0295Y07037*
X0295Y07037*
X0295Y07037*
X0295Y07037*
X02949Y07036*
X02949Y07036*
X02949Y07036*
X02948Y07036*
X02948Y07036*
X02948Y07035*
X02948Y07035*
X02947Y07035*
X02947Y07034*
X02947Y07034*
X02947Y07034*
X02947Y07034*
X02947Y07033*
X02947Y07033*
X02947Y07033*
X02947Y07032*
X02947Y07032*
X02947Y07031*
X02947Y07031*
X02947Y07031*
X02947Y0703*
X02947Y0703*
X02947Y0703*
X02947Y0703*
X02948Y07029*
X02948Y07029*
X02948Y07029*
X02948Y07029*
X02949Y07028*
X02949Y07028*
X02949Y07028*
X0295Y07028*
X0295Y07028*
X0295Y07028*
X0295Y07027*
X02951Y07027*
X02951Y07027*
X02951Y07027*
X02952*
X02952Y07027*
X02953Y07027*
X02953Y07027*
X02953Y07028*
X02954Y07028*
X02954Y07028*
X02954Y07028*
X02954Y07028*
X02955Y07028*
X02955Y07029*
X02955Y07029*
X02955Y07029*
X02956Y07029*
X02956Y0703*
X02956Y0703*
X02956Y0703*
X02956Y0703*
X02956Y07031*
X02956Y07031*
X02957Y07031*
X02957Y07032*
X02957Y07032*
X09099Y06175D02*
D01*
X09099Y06175*
X09099Y06175*
X09099Y06176*
X09099Y06176*
X09098Y06176*
X09098Y06177*
X09098Y06177*
X09098Y06177*
X09098Y06177*
X09098Y06178*
X09097Y06178*
X09097Y06178*
X09097Y06178*
X09097Y06179*
X09096Y06179*
X09096Y06179*
X09096Y06179*
X09095Y06179*
X09095Y06179*
X09095Y06179*
X09094Y06179*
X09094Y06179*
X09094*
X09093Y06179*
X09093Y06179*
X09093Y06179*
X09092Y06179*
X09092Y06179*
X09092Y06179*
X09091Y06179*
X09091Y06179*
X09091Y06178*
X0909Y06178*
X0909Y06178*
X0909Y06178*
X0909Y06177*
X0909Y06177*
X09089Y06177*
X09089Y06177*
X09089Y06176*
X09089Y06176*
X09089Y06176*
X09089Y06175*
X09089Y06175*
X09089Y06175*
X09089Y06174*
X09089Y06174*
X09089Y06173*
X09089Y06173*
X09089Y06173*
X09089Y06172*
X09089Y06172*
X0909Y06172*
X0909Y06172*
X0909Y06171*
X0909Y06171*
X0909Y06171*
X09091Y06171*
X09091Y0617*
X09091Y0617*
X09092Y0617*
X09092Y0617*
X09092Y0617*
X09093Y0617*
X09093Y0617*
X09093Y0617*
X09094Y0617*
X09094*
X09094Y0617*
X09095Y0617*
X09095Y0617*
X09095Y0617*
X09096Y0617*
X09096Y0617*
X09096Y0617*
X09097Y0617*
X09097Y06171*
X09097Y06171*
X09097Y06171*
X09098Y06171*
X09098Y06172*
X09098Y06172*
X09098Y06172*
X09098Y06172*
X09098Y06173*
X09099Y06173*
X09099Y06173*
X09099Y06174*
X09099Y06174*
X09099Y06175*
Y06375D02*
D01*
X09099Y06375*
X09099Y06375*
X09099Y06376*
X09099Y06376*
X09098Y06376*
X09098Y06377*
X09098Y06377*
X09098Y06377*
X09098Y06377*
X09098Y06378*
X09097Y06378*
X09097Y06378*
X09097Y06378*
X09097Y06379*
X09096Y06379*
X09096Y06379*
X09096Y06379*
X09095Y06379*
X09095Y06379*
X09095Y06379*
X09094Y06379*
X09094Y06379*
X09094*
X09093Y06379*
X09093Y06379*
X09093Y06379*
X09092Y06379*
X09092Y06379*
X09092Y06379*
X09091Y06379*
X09091Y06379*
X09091Y06378*
X0909Y06378*
X0909Y06378*
X0909Y06378*
X0909Y06377*
X0909Y06377*
X09089Y06377*
X09089Y06377*
X09089Y06376*
X09089Y06376*
X09089Y06376*
X09089Y06375*
X09089Y06375*
X09089Y06375*
X09089Y06374*
X09089Y06374*
X09089Y06373*
X09089Y06373*
X09089Y06373*
X09089Y06372*
X09089Y06372*
X0909Y06372*
X0909Y06372*
X0909Y06371*
X0909Y06371*
X0909Y06371*
X09091Y06371*
X09091Y0637*
X09091Y0637*
X09092Y0637*
X09092Y0637*
X09092Y0637*
X09093Y0637*
X09093Y0637*
X09093Y0637*
X09094Y0637*
X09094*
X09094Y0637*
X09095Y0637*
X09095Y0637*
X09095Y0637*
X09096Y0637*
X09096Y0637*
X09096Y0637*
X09097Y0637*
X09097Y06371*
X09097Y06371*
X09097Y06371*
X09098Y06371*
X09098Y06372*
X09098Y06372*
X09098Y06372*
X09098Y06372*
X09098Y06373*
X09099Y06373*
X09099Y06373*
X09099Y06374*
X09099Y06374*
X09099Y06375*
Y06275D02*
D01*
X09099Y06275*
X09099Y06275*
X09099Y06276*
X09099Y06276*
X09098Y06276*
X09098Y06277*
X09098Y06277*
X09098Y06277*
X09098Y06277*
X09098Y06278*
X09097Y06278*
X09097Y06278*
X09097Y06278*
X09097Y06279*
X09096Y06279*
X09096Y06279*
X09096Y06279*
X09095Y06279*
X09095Y06279*
X09095Y06279*
X09094Y06279*
X09094Y06279*
X09094*
X09093Y06279*
X09093Y06279*
X09093Y06279*
X09092Y06279*
X09092Y06279*
X09092Y06279*
X09091Y06279*
X09091Y06279*
X09091Y06278*
X0909Y06278*
X0909Y06278*
X0909Y06278*
X0909Y06277*
X0909Y06277*
X09089Y06277*
X09089Y06277*
X09089Y06276*
X09089Y06276*
X09089Y06276*
X09089Y06275*
X09089Y06275*
X09089Y06275*
X09089Y06274*
X09089Y06274*
X09089Y06273*
X09089Y06273*
X09089Y06273*
X09089Y06272*
X09089Y06272*
X0909Y06272*
X0909Y06272*
X0909Y06271*
X0909Y06271*
X0909Y06271*
X09091Y06271*
X09091Y0627*
X09091Y0627*
X09092Y0627*
X09092Y0627*
X09092Y0627*
X09093Y0627*
X09093Y0627*
X09093Y0627*
X09094Y0627*
X09094*
X09094Y0627*
X09095Y0627*
X09095Y0627*
X09095Y0627*
X09096Y0627*
X09096Y0627*
X09096Y0627*
X09097Y0627*
X09097Y06271*
X09097Y06271*
X09097Y06271*
X09098Y06271*
X09098Y06272*
X09098Y06272*
X09098Y06272*
X09098Y06272*
X09098Y06273*
X09099Y06273*
X09099Y06273*
X09099Y06274*
X09099Y06274*
X09099Y06275*
X05739Y06765D02*
D01*
X05739Y06765*
X05739Y06765*
X05739Y06766*
X05739Y06766*
X05738Y06766*
X05738Y06767*
X05738Y06767*
X05738Y06767*
X05738Y06767*
X05738Y06768*
X05737Y06768*
X05737Y06768*
X05737Y06768*
X05737Y06769*
X05736Y06769*
X05736Y06769*
X05736Y06769*
X05735Y06769*
X05735Y06769*
X05735Y06769*
X05734Y06769*
X05734Y06769*
X05734*
X05733Y06769*
X05733Y06769*
X05733Y06769*
X05732Y06769*
X05732Y06769*
X05732Y06769*
X05731Y06769*
X05731Y06769*
X05731Y06768*
X0573Y06768*
X0573Y06768*
X0573Y06768*
X0573Y06767*
X0573Y06767*
X05729Y06767*
X05729Y06767*
X05729Y06766*
X05729Y06766*
X05729Y06766*
X05729Y06765*
X05729Y06765*
X05729Y06765*
X05729Y06764*
X05729Y06764*
X05729Y06763*
X05729Y06763*
X05729Y06763*
X05729Y06762*
X05729Y06762*
X0573Y06762*
X0573Y06762*
X0573Y06761*
X0573Y06761*
X0573Y06761*
X05731Y06761*
X05731Y0676*
X05731Y0676*
X05732Y0676*
X05732Y0676*
X05732Y0676*
X05733Y0676*
X05733Y0676*
X05733Y0676*
X05734Y0676*
X05734*
X05734Y0676*
X05735Y0676*
X05735Y0676*
X05735Y0676*
X05736Y0676*
X05736Y0676*
X05736Y0676*
X05737Y0676*
X05737Y06761*
X05737Y06761*
X05737Y06761*
X05738Y06761*
X05738Y06762*
X05738Y06762*
X05738Y06762*
X05738Y06762*
X05738Y06763*
X05739Y06763*
X05739Y06763*
X05739Y06764*
X05739Y06764*
X05739Y06765*
X05674Y055D02*
D01*
X05674Y055*
X05674Y055*
X05674Y05501*
X05674Y05501*
X05673Y05501*
X05673Y05502*
X05673Y05502*
X05673Y05502*
X05673Y05502*
X05673Y05503*
X05672Y05503*
X05672Y05503*
X05672Y05503*
X05672Y05504*
X05671Y05504*
X05671Y05504*
X05671Y05504*
X0567Y05504*
X0567Y05504*
X0567Y05504*
X05669Y05504*
X05669Y05504*
X05669*
X05668Y05504*
X05668Y05504*
X05668Y05504*
X05667Y05504*
X05667Y05504*
X05667Y05504*
X05666Y05504*
X05666Y05504*
X05666Y05503*
X05665Y05503*
X05665Y05503*
X05665Y05503*
X05665Y05502*
X05665Y05502*
X05664Y05502*
X05664Y05502*
X05664Y05501*
X05664Y05501*
X05664Y05501*
X05664Y055*
X05664Y055*
X05664Y055*
X05664Y05499*
X05664Y05499*
X05664Y05498*
X05664Y05498*
X05664Y05498*
X05664Y05497*
X05664Y05497*
X05665Y05497*
X05665Y05497*
X05665Y05496*
X05665Y05496*
X05665Y05496*
X05666Y05496*
X05666Y05495*
X05666Y05495*
X05667Y05495*
X05667Y05495*
X05667Y05495*
X05668Y05495*
X05668Y05495*
X05668Y05495*
X05669Y05495*
X05669*
X05669Y05495*
X0567Y05495*
X0567Y05495*
X0567Y05495*
X05671Y05495*
X05671Y05495*
X05671Y05495*
X05672Y05495*
X05672Y05496*
X05672Y05496*
X05672Y05496*
X05673Y05496*
X05673Y05497*
X05673Y05497*
X05673Y05497*
X05673Y05497*
X05673Y05498*
X05674Y05498*
X05674Y05498*
X05674Y05499*
X05674Y05499*
X05674Y055*
X0767Y03057D02*
D01*
X0767Y03057*
X0767Y03058*
X0767Y03058*
X0767Y03058*
X0767Y03059*
X07669Y03059*
X07669Y03059*
X07669Y0306*
X07669Y0306*
X07669Y0306*
X07668Y03061*
X07668Y03061*
X07668Y03061*
X07668Y03061*
X07667Y03061*
X07667Y03062*
X07667Y03062*
X07666Y03062*
X07666Y03062*
X07666Y03062*
X07665Y03062*
X07665Y03062*
X07665*
X07664Y03062*
X07664Y03062*
X07664Y03062*
X07663Y03062*
X07663Y03062*
X07663Y03062*
X07662Y03061*
X07662Y03061*
X07662Y03061*
X07662Y03061*
X07661Y03061*
X07661Y0306*
X07661Y0306*
X07661Y0306*
X07661Y03059*
X0766Y03059*
X0766Y03059*
X0766Y03058*
X0766Y03058*
X0766Y03058*
X0766Y03057*
X0766Y03057*
X0766Y03057*
X0766Y03056*
X0766Y03056*
X0766Y03056*
X0766Y03055*
X0766Y03055*
X07661Y03055*
X07661Y03055*
X07661Y03054*
X07661Y03054*
X07661Y03054*
X07662Y03053*
X07662Y03053*
X07662Y03053*
X07662Y03053*
X07663Y03053*
X07663Y03053*
X07663Y03052*
X07664Y03052*
X07664Y03052*
X07664Y03052*
X07665Y03052*
X07665*
X07665Y03052*
X07666Y03052*
X07666Y03052*
X07666Y03052*
X07667Y03053*
X07667Y03053*
X07667Y03053*
X07668Y03053*
X07668Y03053*
X07668Y03053*
X07668Y03054*
X07669Y03054*
X07669Y03054*
X07669Y03055*
X07669Y03055*
X07669Y03055*
X0767Y03055*
X0767Y03056*
X0767Y03056*
X0767Y03056*
X0767Y03057*
X0767Y03057*
X09377Y05572D02*
D01*
X09377Y05572*
X09377Y05572*
X09377Y05573*
X09377Y05573*
X09377Y05573*
X09377Y05574*
X09377Y05574*
X09377Y05574*
X09376Y05575*
X09376Y05575*
X09376Y05575*
X09376Y05575*
X09375Y05576*
X09375Y05576*
X09375Y05576*
X09374Y05576*
X09374Y05576*
X09374Y05576*
X09374Y05577*
X09373Y05577*
X09373Y05577*
X09373Y05577*
X09372*
X09372Y05577*
X09371Y05577*
X09371Y05577*
X09371Y05576*
X0937Y05576*
X0937Y05576*
X0937Y05576*
X0937Y05576*
X09369Y05576*
X09369Y05575*
X09369Y05575*
X09369Y05575*
X09368Y05575*
X09368Y05574*
X09368Y05574*
X09368Y05574*
X09368Y05573*
X09368Y05573*
X09368Y05573*
X09367Y05572*
X09367Y05572*
X09367Y05572*
X09367Y05571*
X09367Y05571*
X09368Y05571*
X09368Y0557*
X09368Y0557*
X09368Y0557*
X09368Y05569*
X09368Y05569*
X09368Y05569*
X09369Y05569*
X09369Y05568*
X09369Y05568*
X09369Y05568*
X0937Y05568*
X0937Y05567*
X0937Y05567*
X0937Y05567*
X09371Y05567*
X09371Y05567*
X09371Y05567*
X09372Y05567*
X09372Y05567*
X09373*
X09373Y05567*
X09373Y05567*
X09374Y05567*
X09374Y05567*
X09374Y05567*
X09374Y05567*
X09375Y05567*
X09375Y05568*
X09375Y05568*
X09376Y05568*
X09376Y05568*
X09376Y05569*
X09376Y05569*
X09377Y05569*
X09377Y05569*
X09377Y0557*
X09377Y0557*
X09377Y0557*
X09377Y05571*
X09377Y05571*
X09377Y05571*
X09377Y05572*
X0923Y02529D02*
D01*
X0923Y0253*
X0923Y0253*
X0923Y0253*
X0923Y02531*
X0923Y02531*
X0923Y02531*
X0923Y02532*
X0923Y02532*
X09229Y02532*
X09229Y02533*
X09229Y02533*
X09229Y02533*
X09229Y02533*
X09228Y02533*
X09228Y02534*
X09228Y02534*
X09227Y02534*
X09227Y02534*
X09227Y02534*
X09226Y02534*
X09226Y02534*
X09226Y02534*
X09225*
X09225Y02534*
X09225Y02534*
X09224Y02534*
X09224Y02534*
X09224Y02534*
X09223Y02534*
X09223Y02534*
X09223Y02533*
X09222Y02533*
X09222Y02533*
X09222Y02533*
X09222Y02533*
X09222Y02532*
X09221Y02532*
X09221Y02532*
X09221Y02531*
X09221Y02531*
X09221Y02531*
X09221Y0253*
X09221Y0253*
X09221Y0253*
X09221Y02529*
X09221Y02529*
X09221Y02529*
X09221Y02528*
X09221Y02528*
X09221Y02528*
X09221Y02527*
X09221Y02527*
X09221Y02527*
X09222Y02527*
X09222Y02526*
X09222Y02526*
X09222Y02526*
X09222Y02526*
X09223Y02525*
X09223Y02525*
X09223Y02525*
X09224Y02525*
X09224Y02525*
X09224Y02525*
X09225Y02525*
X09225Y02525*
X09225Y02525*
X09226*
X09226Y02525*
X09226Y02525*
X09227Y02525*
X09227Y02525*
X09227Y02525*
X09228Y02525*
X09228Y02525*
X09228Y02525*
X09229Y02526*
X09229Y02526*
X09229Y02526*
X09229Y02526*
X09229Y02527*
X0923Y02527*
X0923Y02527*
X0923Y02527*
X0923Y02528*
X0923Y02528*
X0923Y02528*
X0923Y02529*
X0923Y02529*
X0923Y02529*
X09254Y0208D02*
D01*
X09254Y02081*
X09254Y02081*
X09254Y02081*
X09254Y02082*
X09254Y02082*
X09254Y02082*
X09254Y02083*
X09254Y02083*
X09253Y02083*
X09253Y02083*
X09253Y02084*
X09253Y02084*
X09253Y02084*
X09252Y02084*
X09252Y02084*
X09252Y02085*
X09251Y02085*
X09251Y02085*
X09251Y02085*
X0925Y02085*
X0925Y02085*
X0925Y02085*
X09249*
X09249Y02085*
X09249Y02085*
X09248Y02085*
X09248Y02085*
X09248Y02085*
X09247Y02085*
X09247Y02084*
X09247Y02084*
X09246Y02084*
X09246Y02084*
X09246Y02084*
X09246Y02083*
X09246Y02083*
X09245Y02083*
X09245Y02083*
X09245Y02082*
X09245Y02082*
X09245Y02082*
X09245Y02081*
X09245Y02081*
X09245Y02081*
X09245Y0208*
X09245Y0208*
X09245Y0208*
X09245Y02079*
X09245Y02079*
X09245Y02079*
X09245Y02078*
X09245Y02078*
X09245Y02078*
X09246Y02077*
X09246Y02077*
X09246Y02077*
X09246Y02077*
X09246Y02076*
X09247Y02076*
X09247Y02076*
X09247Y02076*
X09248Y02076*
X09248Y02076*
X09248Y02075*
X09249Y02075*
X09249Y02075*
X09249Y02075*
X0925*
X0925Y02075*
X0925Y02075*
X09251Y02075*
X09251Y02076*
X09251Y02076*
X09252Y02076*
X09252Y02076*
X09252Y02076*
X09253Y02076*
X09253Y02077*
X09253Y02077*
X09253Y02077*
X09253Y02077*
X09254Y02078*
X09254Y02078*
X09254Y02078*
X09254Y02079*
X09254Y02079*
X09254Y02079*
X09254Y0208*
X09254Y0208*
X09254Y0208*
G54D115*
X05232Y0569D02*
D01*
X05232Y05691*
X05232Y05692*
X05232Y05693*
X05232Y05693*
X05232Y05694*
X05231Y05695*
X05231Y05696*
X05231Y05696*
X0523Y05697*
X0523Y05698*
X05229Y05698*
X05228Y05699*
X05228Y05699*
X05227Y057*
X05226Y057*
X05226Y05701*
X05225Y05701*
X05224Y05701*
X05223Y05702*
X05223Y05702*
X05222Y05702*
X05221Y05702*
X0522*
X05219Y05702*
X05219Y05702*
X05218Y05702*
X05217Y05701*
X05216Y05701*
X05215Y05701*
X05215Y057*
X05214Y057*
X05213Y05699*
X05213Y05699*
X05212Y05698*
X05212Y05698*
X05211Y05697*
X05211Y05696*
X0521Y05696*
X0521Y05695*
X05209Y05694*
X05209Y05693*
X05209Y05693*
X05209Y05692*
X05209Y05691*
X05209Y0569*
X05209Y05689*
X05209Y05688*
X05209Y05688*
X05209Y05687*
X05209Y05686*
X0521Y05685*
X0521Y05685*
X05211Y05684*
X05211Y05683*
X05212Y05682*
X05212Y05682*
X05213Y05681*
X05213Y05681*
X05214Y0568*
X05215Y0568*
X05215Y05679*
X05216Y05679*
X05217Y05679*
X05218Y05679*
X05219Y05678*
X05219Y05678*
X0522Y05678*
X05221*
X05222Y05678*
X05223Y05678*
X05223Y05679*
X05224Y05679*
X05225Y05679*
X05226Y05679*
X05226Y0568*
X05227Y0568*
X05228Y05681*
X05228Y05681*
X05229Y05682*
X0523Y05682*
X0523Y05683*
X05231Y05684*
X05231Y05685*
X05231Y05685*
X05232Y05686*
X05232Y05687*
X05232Y05688*
X05232Y05688*
X05232Y05689*
X05232Y0569*
X04607D02*
D01*
X04607Y05691*
X04607Y05692*
X04607Y05693*
X04607Y05693*
X04607Y05694*
X04606Y05695*
X04606Y05696*
X04606Y05696*
X04605Y05697*
X04605Y05698*
X04604Y05698*
X04603Y05699*
X04603Y05699*
X04602Y057*
X04601Y057*
X04601Y05701*
X046Y05701*
X04599Y05701*
X04598Y05702*
X04598Y05702*
X04597Y05702*
X04596Y05702*
X04595*
X04594Y05702*
X04594Y05702*
X04593Y05702*
X04592Y05701*
X04591Y05701*
X0459Y05701*
X0459Y057*
X04589Y057*
X04588Y05699*
X04588Y05699*
X04587Y05698*
X04587Y05698*
X04586Y05697*
X04586Y05696*
X04585Y05696*
X04585Y05695*
X04584Y05694*
X04584Y05693*
X04584Y05693*
X04584Y05692*
X04584Y05691*
X04584Y0569*
X04584Y05689*
X04584Y05688*
X04584Y05688*
X04584Y05687*
X04584Y05686*
X04585Y05685*
X04585Y05685*
X04586Y05684*
X04586Y05683*
X04587Y05682*
X04587Y05682*
X04588Y05681*
X04588Y05681*
X04589Y0568*
X0459Y0568*
X0459Y05679*
X04591Y05679*
X04592Y05679*
X04593Y05679*
X04594Y05678*
X04594Y05678*
X04595Y05678*
X04596*
X04597Y05678*
X04598Y05678*
X04598Y05679*
X04599Y05679*
X046Y05679*
X04601Y05679*
X04601Y0568*
X04602Y0568*
X04603Y05681*
X04603Y05681*
X04604Y05682*
X04605Y05682*
X04605Y05683*
X04606Y05684*
X04606Y05685*
X04606Y05685*
X04607Y05686*
X04607Y05687*
X04607Y05688*
X04607Y05688*
X04607Y05689*
X04607Y0569*
X03982D02*
D01*
X03982Y05691*
X03982Y05692*
X03982Y05693*
X03982Y05693*
X03982Y05694*
X03981Y05695*
X03981Y05696*
X03981Y05696*
X0398Y05697*
X0398Y05698*
X03979Y05698*
X03978Y05699*
X03978Y05699*
X03977Y057*
X03976Y057*
X03976Y05701*
X03975Y05701*
X03974Y05701*
X03973Y05702*
X03973Y05702*
X03972Y05702*
X03971Y05702*
X0397*
X03969Y05702*
X03969Y05702*
X03968Y05702*
X03967Y05701*
X03966Y05701*
X03965Y05701*
X03965Y057*
X03964Y057*
X03963Y05699*
X03963Y05699*
X03962Y05698*
X03962Y05698*
X03961Y05697*
X03961Y05696*
X0396Y05696*
X0396Y05695*
X03959Y05694*
X03959Y05693*
X03959Y05693*
X03959Y05692*
X03959Y05691*
X03959Y0569*
X03959Y05689*
X03959Y05688*
X03959Y05688*
X03959Y05687*
X03959Y05686*
X0396Y05685*
X0396Y05685*
X03961Y05684*
X03961Y05683*
X03962Y05682*
X03962Y05682*
X03963Y05681*
X03963Y05681*
X03964Y0568*
X03965Y0568*
X03965Y05679*
X03966Y05679*
X03967Y05679*
X03968Y05679*
X03969Y05678*
X03969Y05678*
X0397Y05678*
X03971*
X03972Y05678*
X03973Y05678*
X03973Y05679*
X03974Y05679*
X03975Y05679*
X03976Y05679*
X03976Y0568*
X03977Y0568*
X03978Y05681*
X03978Y05681*
X03979Y05682*
X0398Y05682*
X0398Y05683*
X03981Y05684*
X03981Y05685*
X03981Y05685*
X03982Y05686*
X03982Y05687*
X03982Y05688*
X03982Y05688*
X03982Y05689*
X03982Y0569*
X02947Y04999D02*
D01*
X02947Y05*
X02947Y05001*
X02946Y05001*
X02946Y05002*
X02946Y05003*
X02946Y05004*
X02945Y05004*
X02945Y05005*
X02944Y05006*
X02944Y05007*
X02943Y05007*
X02943Y05008*
X02942Y05008*
X02942Y05009*
X02941Y05009*
X0294Y0501*
X02939Y0501*
X02939Y0501*
X02938Y0501*
X02937Y05011*
X02936Y05011*
X02935Y05011*
X02935*
X02934Y05011*
X02933Y05011*
X02932Y0501*
X02931Y0501*
X02931Y0501*
X0293Y0501*
X02929Y05009*
X02928Y05009*
X02928Y05008*
X02927Y05008*
X02926Y05007*
X02926Y05007*
X02925Y05006*
X02925Y05005*
X02925Y05004*
X02924Y05004*
X02924Y05003*
X02924Y05002*
X02923Y05001*
X02923Y05001*
X02923Y05*
X02923Y04999*
X02923Y04998*
X02923Y04997*
X02923Y04996*
X02924Y04996*
X02924Y04995*
X02924Y04994*
X02925Y04993*
X02925Y04993*
X02925Y04992*
X02926Y04991*
X02926Y04991*
X02927Y0499*
X02928Y0499*
X02928Y04989*
X02929Y04989*
X0293Y04988*
X02931Y04988*
X02931Y04988*
X02932Y04987*
X02933Y04987*
X02934Y04987*
X02935Y04987*
X02935*
X02936Y04987*
X02937Y04987*
X02938Y04987*
X02939Y04988*
X02939Y04988*
X0294Y04988*
X02941Y04989*
X02942Y04989*
X02942Y0499*
X02943Y0499*
X02943Y04991*
X02944Y04991*
X02944Y04992*
X02945Y04993*
X02945Y04993*
X02946Y04994*
X02946Y04995*
X02946Y04996*
X02946Y04996*
X02947Y04997*
X02947Y04998*
X02947Y04999*
X02606Y04836D02*
D01*
X02606Y04836*
X02606Y04837*
X02606Y04838*
X02605Y04839*
X02605Y0484*
X02605Y0484*
X02604Y04841*
X02604Y04842*
X02604Y04842*
X02603Y04843*
X02602Y04844*
X02602Y04844*
X02601Y04845*
X02601Y04845*
X026Y04846*
X02599Y04846*
X02598Y04846*
X02598Y04847*
X02597Y04847*
X02596Y04847*
X02595Y04847*
X02594Y04847*
X02594*
X02593Y04847*
X02592Y04847*
X02591Y04847*
X0259Y04847*
X0259Y04846*
X02589Y04846*
X02588Y04846*
X02587Y04845*
X02587Y04845*
X02586Y04844*
X02585Y04844*
X02585Y04843*
X02584Y04842*
X02584Y04842*
X02584Y04841*
X02583Y0484*
X02583Y0484*
X02583Y04839*
X02582Y04838*
X02582Y04837*
X02582Y04836*
X02582Y04836*
X02582Y04835*
X02582Y04834*
X02582Y04833*
X02583Y04832*
X02583Y04831*
X02583Y04831*
X02584Y0483*
X02584Y04829*
X02584Y04829*
X02585Y04828*
X02585Y04827*
X02586Y04827*
X02587Y04826*
X02587Y04826*
X02588Y04825*
X02589Y04825*
X0259Y04825*
X0259Y04824*
X02591Y04824*
X02592Y04824*
X02593Y04824*
X02594Y04824*
X02594*
X02595Y04824*
X02596Y04824*
X02597Y04824*
X02598Y04824*
X02598Y04825*
X02599Y04825*
X026Y04825*
X02601Y04826*
X02601Y04826*
X02602Y04827*
X02602Y04827*
X02603Y04828*
X02604Y04829*
X02604Y04829*
X02604Y0483*
X02605Y04831*
X02605Y04831*
X02605Y04832*
X02606Y04833*
X02606Y04834*
X02606Y04835*
X02606Y04836*
G54D116*
X01913Y06248D02*
D01*
X01913Y06247*
X01913Y06246*
X01913Y06246*
X01913Y06245*
X01913Y06244*
X01914Y06243*
X01914Y06242*
X01914Y06242*
X01915Y06241*
X01915Y0624*
X01916Y0624*
X01916Y06239*
X01917Y06239*
X01918Y06238*
X01919Y06238*
X01919Y06237*
X0192Y06237*
X01921Y06237*
X01922Y06236*
X01922Y06236*
X01923Y06236*
X01924Y06236*
X01925*
X01926Y06236*
X01927Y06236*
X01927Y06236*
X01928Y06237*
X01929Y06237*
X0193Y06237*
X01931Y06238*
X01931Y06238*
X01932Y06239*
X01933Y06239*
X01933Y0624*
X01934Y0624*
X01934Y06241*
X01935Y06242*
X01935Y06242*
X01935Y06243*
X01936Y06244*
X01936Y06245*
X01936Y06246*
X01936Y06246*
X01936Y06247*
X01937Y06248*
X09893Y04387D02*
D01*
X09892Y04387*
X09891Y04387*
X09891Y04387*
X0989Y04386*
X09889Y04386*
X09888Y04386*
X09887Y04385*
X09887Y04385*
X09886Y04385*
X09885Y04384*
X09885Y04383*
X09884Y04383*
X09884Y04382*
X09883Y04382*
X09883Y04381*
X09882Y0438*
X09882Y04379*
X09882Y04379*
X09881Y04378*
X09881Y04377*
X09881Y04376*
X09881Y04375*
Y04374*
X09881Y04374*
X09881Y04373*
X09881Y04372*
X09882Y04371*
X09882Y0437*
X09882Y0437*
X09883Y04369*
X09883Y04368*
X09884Y04367*
X09884Y04367*
X09885Y04366*
X09885Y04366*
X09886Y04365*
X09887Y04365*
X09887Y04364*
X09888Y04364*
X09889Y04364*
X0989Y04363*
X09891Y04363*
X09891Y04363*
X09892Y04363*
X09893Y04363*
X02228Y06301D02*
Y06348D01*
X02122Y06301D02*
Y06348D01*
X09951Y04072D02*
X09998D01*
X09951Y04178D02*
X09998D01*
X02317Y05956D02*
X02382D01*
X02317Y06193D02*
X02382D01*
X01846Y06248D02*
X02003D01*
X01846Y06051D02*
X02003D01*
X02485Y05751D02*
Y05798D01*
X02414Y05751D02*
Y05798D01*
X09626Y03918D02*
Y03982D01*
X09863Y03918D02*
Y03982D01*
X09421Y03814D02*
X09468D01*
X09421Y03885D02*
X09468D01*
X09893Y04296D02*
Y04453D01*
X09696Y04296D02*
Y04453D01*
G54D117*
X0573Y0377D02*
X0593D01*
Y0277D02*
Y02845D01*
X0573Y0277D02*
X0593D01*
X0573D02*
Y02845D01*
Y0377*
X0593Y02845D02*
Y0377D01*
X0498D02*
X0518D01*
Y0277D02*
Y02845D01*
X0498Y0277D02*
X0518D01*
X0498D02*
Y02845D01*
Y0377*
X0518Y02845D02*
Y0377D01*
X0423D02*
X0443D01*
Y0277D02*
Y02845D01*
X0423Y0277D02*
X0443D01*
X0423D02*
Y02845D01*
Y0377*
X0443Y02845D02*
Y0377D01*
X0348D02*
X0368D01*
Y0277D02*
Y02845D01*
X0348Y0277D02*
X0368D01*
X0348D02*
Y02845D01*
Y0377*
X0368Y02845D02*
Y0377D01*
X0273D02*
X0293D01*
Y0277D02*
Y02845D01*
X0273Y0277D02*
X0293D01*
X0273D02*
Y02845D01*
Y0377*
X0293Y02845D02*
Y0377D01*
X0198D02*
X0218D01*
Y0277D02*
Y02845D01*
X0198Y0277D02*
X0218D01*
X0198D02*
Y02845D01*
Y0377*
X0218Y02845D02*
Y0377D01*
X01876Y06622D02*
X01923D01*
X01876Y06677D02*
X01923D01*
Y06622D02*
Y06677D01*
X01975Y06695D02*
Y06715D01*
Y06705D02*
Y06715D01*
Y06705D02*
X01985D01*
X01965D02*
X01985D01*
X01975Y06715D02*
Y0672D01*
Y0669D02*
Y0672D01*
Y0669D02*
Y06705D01*
X0199*
X0196D02*
X0199D01*
X08246Y01992D02*
Y02007D01*
X08273Y01992D02*
Y02007D01*
X07571Y01755D02*
X07598D01*
X07902Y02436D02*
X07917D01*
X07902Y02463D02*
X07917D01*
X07596Y02628D02*
X07607Y02617D01*
X07616Y02648D02*
X07627Y02637D01*
X07848Y02013D02*
X07849D01*
X07848D02*
Y02014D01*
X0797Y02136D02*
X07971D01*
Y02135D02*
Y02136D01*
Y02013D02*
Y02014D01*
X0797Y02013D02*
X07971D01*
X07848Y02136D02*
X07849D01*
X07848Y02135D02*
Y02136D01*
X08348Y01867D02*
Y01882D01*
X08321Y01867D02*
Y01882D01*
X0811Y01925D02*
Y02225D01*
Y01925D02*
X0821D01*
Y02225*
X0811D02*
X0821D01*
X08019Y01904D02*
X0805D01*
X08019Y01845D02*
X0805D01*
X07585Y0135D02*
X07885D01*
Y0145*
X07585D02*
X07885D01*
X07585Y0135D02*
Y0145D01*
X07982Y01547D02*
Y01657D01*
Y01642D02*
Y01752D01*
X07687Y01642D02*
Y01752D01*
Y01547D02*
Y01657D01*
X07877Y01911D02*
X07892D01*
X07877Y01938D02*
X07892D01*
X08118Y02511D02*
X08129Y02522D01*
X08098Y02531D02*
X08109Y02542D01*
X08224Y02617D02*
X08235Y02628D01*
X08204Y02637D02*
X08215Y02648D01*
X08678Y01945D02*
X08745Y01878D01*
X08804Y02071D02*
X08871Y02004D01*
X08745Y01878D02*
X08871Y02004D01*
X08678Y01945D02*
X08804Y02071D01*
X07702Y02522D02*
X07713Y02511D01*
X07722Y02542D02*
X07733Y02531D01*
X06928Y01964D02*
X06995Y02031D01*
X07054Y01838D02*
X07121Y01905D01*
X06928Y01964D02*
X07054Y01838D01*
X06995Y02031D02*
X07121Y01905D01*
X05181Y0547D02*
Y05729D01*
X05268Y0547D02*
Y05729D01*
X05181D02*
X05268D01*
X05181Y0547D02*
X05268D01*
X04556D02*
Y05729D01*
X04643Y0547D02*
Y05729D01*
X04556D02*
X04643D01*
X04556Y0547D02*
X04643D01*
X03931D02*
Y05729D01*
X04018Y0547D02*
Y05729D01*
X03931D02*
X04018D01*
X03931Y0547D02*
X04018D01*
X03494Y05394D02*
Y05505D01*
Y05394D02*
X03605D01*
Y05505*
X03494D02*
X03605D01*
X04569Y06069D02*
Y0618D01*
Y06069D02*
X0468D01*
Y0618*
X04569D02*
X0468D01*
X09669Y06194D02*
X0978D01*
Y06305D01*
X09669D02*
X0978D01*
X09669Y06194D02*
Y06305D01*
X01569Y05319D02*
Y0543D01*
Y05319D02*
X0168D01*
Y0543*
X01569D02*
X0168D01*
X04744Y01044D02*
Y01155D01*
Y01044D02*
X04855D01*
Y01155*
X04744D02*
X04855D01*
X09744Y03244D02*
Y03355D01*
Y03244D02*
X09855D01*
Y03355*
X09744D02*
X09855D01*
X01644Y01044D02*
Y01155D01*
Y01044D02*
X01755D01*
Y01155*
X01644D02*
X01755D01*
X06444Y01944D02*
Y02055D01*
Y01944D02*
X06555D01*
Y02055*
X06444D02*
X06555D01*
X06067Y05511D02*
X06082D01*
X06067Y05538D02*
X06082D01*
X02742Y05563D02*
X02757D01*
X02742Y05536D02*
X02757D01*
X03042Y05563D02*
X03057D01*
X03042Y05536D02*
X03057D01*
X02347Y05272D02*
X02457D01*
X02442D02*
X02552D01*
X02442Y04977D02*
X02552D01*
X02347D02*
X02457D01*
X0275Y054D02*
X0305D01*
Y055*
X0275D02*
X0305D01*
X0275Y054D02*
Y055D01*
Y05175D02*
X0305D01*
Y05275*
X0275D02*
X0305D01*
X0275Y05175D02*
Y05275D01*
X02817Y05311D02*
X02832D01*
X02817Y05338D02*
X02832D01*
X02825Y05089D02*
X02974D01*
X02825Y0496D02*
X02974D01*
X02825D02*
Y05089D01*
X02974Y0496D02*
Y05089D01*
X02555Y04674D02*
X02673D01*
X02555Y04875D02*
X02673D01*
Y04674D02*
Y04875D01*
X02555Y04674D02*
Y04875D01*
X03229Y04959D02*
Y0499D01*
X0317Y04959D02*
Y0499D01*
X04038Y06742D02*
Y06757D01*
X04011Y06742D02*
Y06757D01*
X03936Y06742D02*
Y06757D01*
X03963Y06742D02*
Y06757D01*
X04211Y06719D02*
Y0673D01*
X04088Y06719D02*
Y0673D01*
X04211*
X04088Y06719D02*
X04211D01*
X044Y06875D02*
Y06975D01*
X042Y06875D02*
X044D01*
X042D02*
Y06975D01*
X044*
X04667Y06511D02*
X04682D01*
X04667Y06538D02*
X04682D01*
X04542Y06511D02*
X04557D01*
X04542Y06538D02*
X04557D01*
X04588Y06669D02*
Y0668D01*
X04711Y06669D02*
Y0668D01*
X04588Y06669D02*
X04711D01*
X04588Y0668D02*
X04711D01*
X04642Y06938D02*
X04657D01*
X04642Y06911D02*
X04657D01*
X04775Y06675D02*
Y06975D01*
Y06675D02*
X04875D01*
Y06975*
X04775D02*
X04875D01*
X02554Y07012D02*
X02587D01*
Y06992D02*
Y07012D01*
X02462D02*
X02495D01*
X02462Y06992D02*
Y07012D01*
X02804D02*
X02837D01*
Y06992D02*
Y07012D01*
X02712D02*
X02745D01*
X02712Y06992D02*
Y07012D01*
X08917Y07188D02*
X08932D01*
X08917Y07161D02*
X08932D01*
X08917Y07263D02*
X08932D01*
X08917Y07236D02*
X08932D01*
X08917Y07338D02*
X08932D01*
X08917Y07311D02*
X08932D01*
X08954Y07087D02*
X08987D01*
Y07067D02*
Y07087D01*
X08862D02*
X08895D01*
X08862Y07067D02*
Y07087D01*
X08604D02*
X08637D01*
Y07067D02*
Y07087D01*
X08512D02*
X08545D01*
X08512Y07067D02*
Y07087D01*
X08779D02*
X08812D01*
Y07067D02*
Y07087D01*
X08687D02*
X0872D01*
X08687Y07067D02*
Y07087D01*
X08722Y06908D02*
X08737D01*
X08722Y06881D02*
X08737D01*
X08547Y06908D02*
X08562D01*
X08547Y06881D02*
X08562D01*
X08892Y06886D02*
X08907D01*
X08892Y06913D02*
X08907D01*
X02367Y07213D02*
X02382D01*
X02367Y07186D02*
X02382D01*
X02517Y07213D02*
X02532D01*
X02517Y07186D02*
X02532D01*
X02767Y07213D02*
X02782D01*
X02767Y07186D02*
X02782D01*
X03017Y06913D02*
X03032D01*
X03017Y06886D02*
X03032D01*
X03292Y06913D02*
X03307D01*
X03292Y06886D02*
X03307D01*
X03567Y06913D02*
X03582D01*
X03567Y06886D02*
X03582D01*
X03842Y06913D02*
X03857D01*
X03842Y06886D02*
X03857D01*
X03892Y07211D02*
X03907D01*
X03892Y07238D02*
X03907D01*
X03617Y07211D02*
X03632D01*
X03617Y07238D02*
X03632D01*
X03879Y07112D02*
X03912D01*
Y07092D02*
Y07112D01*
X03787D02*
X0382D01*
X03787Y07092D02*
Y07112D01*
X03604D02*
X03637D01*
Y07092D02*
Y07112D01*
X03512D02*
X03545D01*
X03512Y07092D02*
Y07112D01*
X03342Y07211D02*
X03357D01*
X03342Y07238D02*
X03357D01*
X03329Y07112D02*
X03362D01*
Y07092D02*
Y07112D01*
X03237D02*
X0327D01*
X03237Y07092D02*
Y07112D01*
X03067Y07211D02*
X03082D01*
X03067Y07238D02*
X03082D01*
X03054Y07112D02*
X03087D01*
Y07092D02*
Y07112D01*
X02962D02*
X02995D01*
X02962Y07092D02*
Y07112D01*
X03081Y07287D02*
X03128D01*
X03081Y07342D02*
X03128D01*
Y07287D02*
Y07342D01*
X0318Y0736D02*
Y0738D01*
Y0737D02*
Y0738D01*
Y0737D02*
X0319D01*
X0317D02*
X0319D01*
X0318Y0738D02*
Y07385D01*
Y07355D02*
Y07385D01*
Y07355D02*
Y0737D01*
X03195*
X03165D02*
X03195D01*
X03356Y07287D02*
X03403D01*
X03356Y07342D02*
X03403D01*
Y07287D02*
Y07342D01*
X03455Y0736D02*
Y0738D01*
Y0737D02*
Y0738D01*
Y0737D02*
X03465D01*
X03445D02*
X03465D01*
X03455Y0738D02*
Y07385D01*
Y07355D02*
Y07385D01*
Y07355D02*
Y0737D01*
X0347*
X0344D02*
X0347D01*
X03631Y07287D02*
X03678D01*
X03631Y07342D02*
X03678D01*
Y07287D02*
Y07342D01*
X0373Y0736D02*
Y0738D01*
Y0737D02*
Y0738D01*
Y0737D02*
X0374D01*
X0372D02*
X0374D01*
X0373Y0738D02*
Y07385D01*
Y07355D02*
Y07385D01*
Y07355D02*
Y0737D01*
X03745*
X03715D02*
X03745D01*
X03906Y07287D02*
X03953D01*
X03906Y07342D02*
X03953D01*
Y07287D02*
Y07342D01*
X04005Y0736D02*
Y0738D01*
Y0737D02*
Y0738D01*
Y0737D02*
X04015D01*
X03995D02*
X04015D01*
X04005Y0738D02*
Y07385D01*
Y07355D02*
Y07385D01*
Y07355D02*
Y0737D01*
X0402*
X0399D02*
X0402D01*
X0599Y07175D02*
Y07375D01*
X0469Y07175D02*
Y07375D01*
X0599*
X0469Y07175D02*
X0599D01*
X02301Y07352D02*
X02348D01*
X02301Y07297D02*
X02348D01*
X02301D02*
Y07352D01*
X0225Y0726D02*
Y0728D01*
Y0726D02*
Y0727D01*
X0224D02*
X0225D01*
X0224D02*
X0226D01*
X0225Y07255D02*
Y0726D01*
Y07255D02*
Y07285D01*
Y0727D02*
Y07285D01*
X02235Y0727D02*
X0225D01*
X02235D02*
X02265D01*
X02801Y07352D02*
X02848D01*
X02801Y07297D02*
X02848D01*
X02801D02*
Y07352D01*
X0275Y0726D02*
Y0728D01*
Y0726D02*
Y0727D01*
X0274D02*
X0275D01*
X0274D02*
X0276D01*
X0275Y07255D02*
Y0726D01*
Y07255D02*
Y07285D01*
Y0727D02*
Y07285D01*
X02735Y0727D02*
X0275D01*
X02735D02*
X02765D01*
X02551Y07352D02*
X02598D01*
X02551Y07297D02*
X02598D01*
X02551D02*
Y07352D01*
X025Y0726D02*
Y0728D01*
Y0726D02*
Y0727D01*
X0249D02*
X025D01*
X0249D02*
X0251D01*
X025Y07255D02*
Y0726D01*
Y07255D02*
Y07285D01*
Y0727D02*
Y07285D01*
X02485Y0727D02*
X025D01*
X02485D02*
X02515D01*
X04492Y06911D02*
X04507D01*
X04492Y06938D02*
X04507D01*
X09119Y06119D02*
X0923D01*
Y0623D01*
X09119D02*
X0923D01*
X09119Y06119D02*
Y0623D01*
Y06319D02*
X0923D01*
Y0643D01*
X09119D02*
X0923D01*
X09119Y06319D02*
Y0643D01*
Y06219D02*
X0923D01*
Y0633D01*
X09119D02*
X0923D01*
X09119Y06219D02*
Y0633D01*
X05759Y06709D02*
X0587D01*
Y0682D01*
X05759D02*
X0587D01*
X05759Y06709D02*
Y0682D01*
X05694Y05444D02*
X05805D01*
Y05555D01*
X05694D02*
X05805D01*
X05694Y05444D02*
Y05555D01*
X07767Y01313D02*
X07782D01*
X07767Y01286D02*
X07782D01*
X08246Y01867D02*
Y01882D01*
X08273Y01867D02*
Y01882D01*
X08246Y02142D02*
Y02157D01*
X08273Y02142D02*
Y02157D01*
X07698Y03088D02*
Y03091D01*
X07701*
X08058D02*
X08061D01*
Y03088D02*
Y03091D01*
Y02728D02*
Y02731D01*
X08058Y02728D02*
X08061D01*
X07698D02*
X07701D01*
X07698D02*
Y02731D01*
X09467Y07063D02*
X09482D01*
X09467Y07036D02*
X09482D01*
X09361Y05517D02*
Y05532D01*
X09238Y05517D02*
Y05532D01*
X09361*
X09238Y05517D02*
X09361D01*
X09036Y02467D02*
Y02498D01*
X09095Y02467D02*
Y02498D01*
X09281Y02268D02*
Y02531D01*
X09418Y02268D02*
Y02531D01*
X09281D02*
X09418D01*
X09281Y02268D02*
X09418D01*
X09194Y01944D02*
Y02055D01*
Y01944D02*
X09305D01*
Y02055*
X09194D02*
X09305D01*
X09175Y06575D02*
Y06675D01*
X08575Y06575D02*
Y06675D01*
X09175*
X08575Y06575D02*
X09175D01*
G54D118*
X01818Y06329D02*
X01851Y06296D01*
X01818D02*
X01851Y06329D01*
X01818Y06313D02*
X01851D01*
X01834Y06296D02*
Y06329D01*
X09974Y04482D02*
X09941Y04449D01*
Y04482D02*
X09974Y04449D01*
X09958Y04482D02*
Y04449D01*
X09941Y04465D02*
X09974D01*
G54D119*
X01912Y0665D03*
X03117Y07315D03*
X03392D03*
X03667D03*
X03942D03*
X02312Y07325D03*
X02812D03*
X02562D03*
M02*