%FSTAX23Y23*%
%MOIN*%
%SFA1B1*%

%IPPOS*%
%AMD125*
4,1,8,0.036400,-0.016700,0.036400,0.016700,0.019700,0.033500,-0.019700,0.033500,-0.036400,0.016700,-0.036400,-0.016700,-0.019700,-0.033500,0.019700,-0.033500,0.036400,-0.016700,0.0*
1,1,0.033500,0.019700,-0.016700*
1,1,0.033500,0.019700,0.016700*
1,1,0.033500,-0.019700,0.016700*
1,1,0.033500,-0.019700,-0.016700*
%
G04~CAMADD=125~8~0.0~0.0~669.9~729.0~167.5~0.0~15~0.0~0.0~0.0~0.0~0~0.0~0.0~0.0~0.0~0~0.0~0.0~0.0~270.0~729.0~669.0*
%ADD125D125*%
%ADD126R,0.072900X0.066990*%
%ADD128R,0.035500X0.039430*%
%ADD129R,0.039430X0.035500*%
%ADD130R,0.059120X0.047310*%
%ADD149R,0.047310X0.059120*%
%ADD173C,0.072000*%
%ADD174C,0.098490*%
%ADD175R,0.063060X0.063060*%
%ADD176C,0.063060*%
%ADD177C,0.074870*%
%ADD178C,0.204000*%
%ADD179C,0.051240*%
%ADD180C,0.064000*%
%ADD181C,0.098000*%
%ADD182R,0.063060X0.063060*%
%ADD183C,0.240220*%
%ADD184C,0.200850*%
%ADD185C,0.024000*%
%ADD186C,0.026000*%
%ADD187C,0.032000*%
%ADD188C,0.054000*%
%ADD189C,0.029980*%
%LNdsau-motherboard-reva-1*%
%LPD*%
G54D125*
X06078Y0527D03*
G54D126*
X05931Y0527D03*
G54D128*
X03938Y05715D03*
X03993D03*
Y0564D03*
X03938D03*
X04627Y05639D03*
X04572D03*
Y05699D03*
X04627D03*
X05263Y0565D03*
X05208D03*
Y05715D03*
X05263D03*
X05953Y0504D03*
X05898D03*
X07567Y02972D03*
X07512D03*
X07577Y0275D03*
X07522D03*
X08187Y02775D03*
X08242D03*
X08187Y02725D03*
X08242D03*
X08187Y0315D03*
X08242D03*
X08567Y028D03*
X08512D03*
X07877Y032D03*
X07822D03*
X08187Y0305D03*
X08242D03*
G54D129*
X06065Y04952D03*
Y04897D03*
X0614Y04952D03*
Y04897D03*
X0674D03*
Y04952D03*
X06815Y04897D03*
Y04952D03*
X06793Y05197D03*
Y05252D03*
X06718Y05197D03*
Y05252D03*
X06868Y05197D03*
Y05252D03*
X06715Y05322D03*
Y05377D03*
X0679Y05322D03*
Y05377D03*
X08515Y04947D03*
Y05002D03*
Y04852D03*
Y04797D03*
X0859Y04852D03*
Y04797D03*
X07865Y04877D03*
Y04822D03*
X0794Y04877D03*
Y04822D03*
Y05202D03*
Y05147D03*
Y05272D03*
Y05327D03*
X07865Y05272D03*
Y05327D03*
Y05202D03*
Y05147D03*
X023Y04722D03*
Y04777D03*
X02225Y04722D03*
Y04777D03*
G54D130*
X05899Y0491D03*
Y04969D03*
X0859Y04945D03*
Y05004D03*
X02375Y04779D03*
Y0472D03*
G54D149*
X07295Y02975D03*
X07354D03*
X0751Y03047D03*
X07569D03*
X0753Y0264D03*
X07589D03*
X0851Y02725D03*
X08569D03*
G54D173*
X0675Y012D03*
X0826Y01575D03*
X0905Y012D03*
X0355Y05D03*
X02125Y04375D03*
X02875D03*
X03625D03*
X04375D03*
X05125D03*
X05875D03*
G54D174*
X0665Y011D03*
X0685Y013D03*
Y011D03*
X0665Y013D03*
X0836Y01475D03*
X0816Y01675D03*
Y01475D03*
X0836Y01675D03*
X0895Y013D03*
X0915Y011D03*
Y013D03*
X0895Y011D03*
X0365Y049D03*
X0345Y051D03*
Y049D03*
X0365Y051D03*
X02225Y04275D03*
X02025Y04475D03*
Y04275D03*
X02225Y04475D03*
X02975Y04275D03*
X02775Y04475D03*
Y04275D03*
X02975Y04475D03*
X03725Y04275D03*
X03525Y04475D03*
Y04275D03*
X03725Y04475D03*
X04475Y04275D03*
X04275Y04475D03*
Y04275D03*
X04475Y04475D03*
X05225Y04275D03*
X05025Y04475D03*
Y04275D03*
X05225Y04475D03*
X05975Y04275D03*
X05775Y04475D03*
Y04275D03*
X05975Y04475D03*
G54D175*
X0588Y0282D03*
X0513D03*
X0438D03*
X0363D03*
X0288D03*
X0213D03*
X0816Y02175D03*
X09725Y0625D03*
X04825Y06925D03*
X09175Y06175D03*
Y06375D03*
Y06275D03*
X05815Y06765D03*
X0575Y055D03*
G54D176*
X0578Y0282D03*
X0588Y0292D03*
X0578D03*
X0588Y0302D03*
X0578D03*
X0588Y0312D03*
X0578D03*
X0588Y0322D03*
X0578D03*
X0588Y0332D03*
X0578D03*
X0588Y0342D03*
X0578D03*
X0588Y0352D03*
X0578D03*
X0588Y0362D03*
X0578D03*
X0588Y0372D03*
X0578D03*
X0503Y0282D03*
X0513Y0292D03*
X0503D03*
X0513Y0302D03*
X0503D03*
X0513Y0312D03*
X0503D03*
X0513Y0322D03*
X0503D03*
X0513Y0332D03*
X0503D03*
X0513Y0342D03*
X0503D03*
X0513Y0352D03*
X0503D03*
X0513Y0362D03*
X0503D03*
X0513Y0372D03*
X0503D03*
X0428Y0282D03*
X0438Y0292D03*
X0428D03*
X0438Y0302D03*
X0428D03*
X0438Y0312D03*
X0428D03*
X0438Y0322D03*
X0428D03*
X0438Y0332D03*
X0428D03*
X0438Y0342D03*
X0428D03*
X0438Y0352D03*
X0428D03*
X0438Y0362D03*
X0428D03*
X0438Y0372D03*
X0428D03*
X0353Y0282D03*
X0363Y0292D03*
X0353D03*
X0363Y0302D03*
X0353D03*
X0363Y0312D03*
X0353D03*
X0363Y0322D03*
X0353D03*
X0363Y0332D03*
X0353D03*
X0363Y0342D03*
X0353D03*
X0363Y0352D03*
X0353D03*
X0363Y0362D03*
X0353D03*
X0363Y0372D03*
X0353D03*
X0278Y0282D03*
X0288Y0292D03*
X0278D03*
X0288Y0302D03*
X0278D03*
X0288Y0312D03*
X0278D03*
X0288Y0322D03*
X0278D03*
X0288Y0332D03*
X0278D03*
X0288Y0342D03*
X0278D03*
X0288Y0352D03*
X0278D03*
X0288Y0362D03*
X0278D03*
X0288Y0372D03*
X0278D03*
X0203Y0282D03*
X0213Y0292D03*
X0203D03*
X0213Y0302D03*
X0203D03*
X0213Y0312D03*
X0203D03*
X0213Y0322D03*
X0203D03*
X0213Y0332D03*
X0203D03*
X0213Y0342D03*
X0203D03*
X0213Y0352D03*
X0203D03*
X0213Y0362D03*
X0203D03*
X0213Y0372D03*
X0203D03*
X0816Y02075D03*
Y01975D03*
X07735Y014D03*
X07835D03*
X029Y0545D03*
X03D03*
X029Y05225D03*
X03D03*
X0435Y06925D03*
X04825Y06825D03*
Y06725D03*
X0474Y07325D03*
X0484Y07225D03*
Y07325D03*
X0494Y07225D03*
Y07325D03*
X0504Y07225D03*
Y07325D03*
X0514Y07225D03*
Y07325D03*
X0524Y07225D03*
Y07325D03*
X0534Y07225D03*
Y07325D03*
X0544Y07225D03*
Y07325D03*
X0554Y07225D03*
Y07325D03*
X0564Y07225D03*
Y07325D03*
X0574Y07225D03*
Y07325D03*
X0584Y07225D03*
Y07325D03*
X0594Y07225D03*
Y07325D03*
X08725Y06625D03*
X08825D03*
X08925D03*
X09025D03*
X09125D03*
G54D177*
X09247Y07338D03*
X09502D03*
Y07161D03*
X09247D03*
X04147Y07338D03*
X04402D03*
Y07161D03*
X04147D03*
G54D178*
X083Y03531D03*
X0635D03*
X083Y07231D03*
X0635D03*
G54D179*
X0645Y06248D03*
X082D03*
G54D180*
X0645Y04508D03*
X082D03*
G54D181*
X015Y0675D03*
Y0655D03*
X0275Y06475D03*
X0255D03*
X09775Y0495D03*
X09575D03*
X09525Y01675D03*
X09725D03*
G54D182*
X07635Y014D03*
X0355Y0545D03*
X04625Y06125D03*
X01625Y05375D03*
X048Y011D03*
X098Y033D03*
X017Y011D03*
X065Y02D03*
X028Y0545D03*
Y05225D03*
X0425Y06925D03*
X0474Y07225D03*
X0925Y02D03*
X08625Y06625D03*
G54D183*
X1025Y072D03*
Y012D03*
X012D03*
Y072D03*
G54D184*
X01764Y07D03*
X0195Y07118D03*
Y06881D03*
G54D185*
X0815Y02775D03*
X04875Y02375D03*
X05625D03*
Y02725D03*
X04875Y0265D03*
X06175Y05525D03*
X061Y02375D03*
X0864Y06375D03*
X0849Y0634D03*
X0899Y0627D03*
X0898Y06375D03*
X098Y04714D03*
X015Y06325D03*
X0215Y06225D03*
X02205D03*
X02175D03*
X02294Y06266D03*
X02259D03*
X02071D03*
X02101D03*
X02115Y06225D03*
X0209D03*
X02022Y06292D03*
Y06262D03*
X0165Y0603D03*
X01575Y0634D03*
X09916Y04041D03*
X0987Y0413D03*
X09916Y04204D03*
X0987Y0421D03*
X09913Y04278D03*
X09931Y04633D03*
X0967Y04625D03*
X0972Y04205D03*
X06088Y07063D03*
X06068Y07043D03*
X06049Y07023D03*
X06029Y07004D03*
X06009Y06984D03*
X05989Y06964D03*
X05969Y06944D03*
X0595Y06925D03*
X038Y05713D03*
Y05486D03*
X0415Y05735D03*
X04149Y05688D03*
Y05637D03*
Y05587D03*
X04425Y05713D03*
Y05486D03*
X04775Y05735D03*
X04774Y05688D03*
Y05637D03*
Y05587D03*
X04572Y05772D03*
X04627D03*
X0459Y05595D03*
X0396D03*
X03938Y05773D03*
X03993Y05773D03*
X06672Y05142D03*
X06227D03*
X06227Y05047D03*
X06672D03*
X06675Y04955D03*
X06672Y04827D03*
X06672Y04732D03*
X05263Y05765D03*
X05208Y056D03*
Y05765D03*
X05399Y05587D03*
Y05637D03*
Y05688D03*
X054Y05735D03*
X0505Y05486D03*
Y05713D03*
X05975Y05525D03*
X033Y05535D03*
Y0533D03*
X0593Y05195D03*
Y05345D03*
X0905Y05775D03*
X095Y06D03*
X09375Y0705D03*
X094Y05375D03*
X0925D03*
X08512Y05866D03*
X08465Y059D03*
X08125Y02855D03*
X08145Y02875D03*
X07675Y03175D03*
X0765Y02725D03*
X07225Y02975D03*
X093Y05435D03*
Y05615D03*
X0934D03*
X07475Y0264D03*
X07645Y02695D03*
X07475Y0275D03*
X07625Y02735D03*
X07685Y02715D03*
X07735Y0269D03*
X07825Y02625D03*
X07665Y0258D03*
X0755Y02465D03*
X0788Y0265D03*
X0794Y02685D03*
X0812Y02765D03*
X08145Y02725D03*
X0811Y02705D03*
X0781Y0266D03*
X0812Y02735D03*
X0808Y02725D03*
X0585Y0527D03*
X06636Y05551D03*
Y05646D03*
Y0574D03*
Y05835D03*
Y05929D03*
Y05457D03*
Y05362D03*
X06265Y05455D03*
X06263Y05646D03*
Y05551D03*
Y0574D03*
Y05835D03*
Y05929D03*
Y05992D03*
X06265Y05269D03*
Y05239D03*
X06611Y05268D03*
Y05236D03*
X08387D03*
Y05268D03*
X08013Y05236D03*
Y05268D03*
X026Y072D03*
X02175Y07325D03*
X02875Y072D03*
X032Y07225D03*
X03475D03*
X0375Y072D03*
X04075Y073D03*
X04575Y06925D03*
Y06775D03*
X04475Y06525D03*
X09025Y07175D03*
Y0725D03*
Y07325D03*
X08634Y06895D03*
X08809D03*
X08975Y069D03*
X08525Y0675D03*
X087D03*
X08875D03*
X084Y058D03*
X08Y05775D03*
X082Y05875D03*
X0839Y05695D03*
X079Y0565D03*
X07607Y05817D03*
X07587Y05797D03*
X07647Y05857D03*
X07627Y05837D03*
X06668Y0525D03*
X09105Y05865D03*
X09055Y059D03*
X09402Y0569D03*
X04725Y06825D03*
X04575D03*
X0475Y06525D03*
X0465Y0657D03*
X0415Y06835D03*
X04025Y06685D03*
X0395Y06675D03*
X03925Y069D03*
X03887Y06957D03*
X04255Y06522D03*
X04045D03*
X02375Y0484D03*
X023D03*
X02225Y04844D03*
X02375Y04665D03*
X023D03*
X02225D03*
X02275Y05025D03*
X03125Y05075D03*
Y0495D03*
Y05D03*
X03275Y04925D03*
X03125Y04875D03*
X0325Y0485D03*
Y048D03*
X03125Y04775D03*
X02975D03*
Y04875D03*
X029Y04925D03*
X0275Y05325D03*
X02625Y05225D03*
X0265Y05375D03*
Y05475D03*
X0245D03*
X02475Y05375D03*
X02425Y05425D03*
X02325Y05375D03*
X02825Y0475D03*
Y048D03*
X02425Y04775D03*
Y047D03*
Y0474D03*
X0312Y0555D03*
X02675D03*
X02295Y072D03*
X03125Y069D03*
X034D03*
X037D03*
X03065Y0696D03*
X0334Y06955D03*
X03615D03*
X02565Y0686D03*
X02815Y06865D03*
X02495Y06775D03*
X02735Y0675D03*
X09175Y04225D03*
X03545Y0662D03*
X0327Y06595D03*
X02995Y0665D03*
X03815Y06548D03*
X01825Y06575D03*
Y06725D03*
X05905Y06024D03*
X05625Y06025D03*
X05915Y06845D03*
X0533D03*
X0626Y0473D03*
X02825Y04675D03*
X091Y07275D03*
X08475D03*
X0915Y027D03*
X05675Y06885D03*
X0523D03*
X09375Y0325D03*
X091Y07325D03*
X08425Y07275D03*
X049Y071D03*
Y07D03*
X07025Y02875D03*
X06227Y04827D03*
X0627Y0489D03*
Y0486D03*
Y04985D03*
Y05015D03*
Y04955D03*
Y04925D03*
X06265Y05173D03*
Y0512D03*
Y0509D03*
Y05201D03*
Y05425D03*
Y05395D03*
Y0533D03*
Y053D03*
Y0536D03*
X06675Y0492D03*
X06125Y0415D03*
Y04122D03*
Y04094D03*
Y04066D03*
Y04025D03*
Y03997D03*
Y03969D03*
Y03941D03*
Y039D03*
Y03872D03*
Y03844D03*
Y03816D03*
X03775Y0525D03*
X03825Y05175D03*
X04225Y05D03*
X0425Y05125D03*
X042Y04875D03*
X04175Y048D03*
X04775Y04825D03*
X04825Y04875D03*
X04875Y05125D03*
X0485Y05D03*
X0445Y05175D03*
X044Y0525D03*
X0545Y04875D03*
X055Y05125D03*
X05475Y05D03*
X05075Y05175D03*
X05025Y0525D03*
X05425Y0485D03*
X056Y03675D03*
X041Y0365D03*
X033Y036D03*
X03325Y0365D03*
X03225Y036D03*
X032Y0365D03*
X02475Y03375D03*
X024D03*
X04Y0365D03*
X04725Y03325D03*
X04775Y03225D03*
X0465D03*
Y03325D03*
X05525D03*
X0555Y03225D03*
X0545D03*
Y03325D03*
X079Y0455D03*
X076Y02981D03*
X07597Y03125D03*
X08035Y05045D03*
X08415Y0505D03*
X09247Y0569D03*
G54D186*
X0189Y0634D03*
X01925D03*
X0196D03*
X0189Y06375D03*
X01925D03*
X0196D03*
X0189Y0641D03*
X01925D03*
X0196D03*
X0245Y0593D03*
X0242Y06255D03*
Y0622D03*
X0245Y06255D03*
Y0622D03*
X025Y06165D03*
Y0613D03*
Y0602D03*
X02535Y06165D03*
Y0613D03*
X0253Y0602D03*
X025Y05985D03*
X0253D03*
X02415Y0593D03*
X0245Y05895D03*
X02415D03*
X09565Y03885D03*
Y0385D03*
X096Y03885D03*
X09655Y0377D03*
Y038D03*
X0969Y0377D03*
X098Y03765D03*
X09835D03*
X0969Y038D03*
X098D03*
X09835D03*
X0989Y0385D03*
X09925D03*
X0989Y0388D03*
X09925D03*
X0197Y0598D03*
X019D03*
X01935D03*
X01925Y0615D03*
X0243Y05675D03*
X02465D03*
X025D03*
X02395D03*
X0197Y05945D03*
X01935D03*
X019D03*
X0197Y0591D03*
X01935D03*
X019D03*
X02095Y0598D03*
X0206D03*
X02025D03*
X02095Y05945D03*
X0206D03*
X02025D03*
X02095Y0591D03*
X0206D03*
X02025D03*
X0213Y06435D03*
X0216D03*
X02195D03*
X0223D03*
X1008Y0407D03*
Y04105D03*
Y0414D03*
Y0417D03*
X09555Y04275D03*
Y0424D03*
Y04205D03*
X0959Y04275D03*
Y0424D03*
Y04205D03*
X09625Y04275D03*
Y0424D03*
Y04205D03*
X09555Y044D03*
Y04365D03*
Y0433D03*
X0959Y044D03*
Y04365D03*
Y0433D03*
X09345Y03905D03*
Y038D03*
Y03835D03*
Y0387D03*
X096Y0385D03*
X09795Y04375D03*
X09995Y04405D03*
Y0437D03*
X0996D03*
Y04405D03*
X1003D03*
Y0437D03*
Y04335D03*
X09995D03*
X0996D03*
X09625Y04365D03*
Y044D03*
Y0433D03*
G54D187*
X058Y0504D03*
Y0497D03*
X06003Y0504D03*
X08125Y0307D03*
X07838Y0315D03*
X07875Y03275D03*
X07825Y0326D03*
X06065Y04997D03*
Y04852D03*
X05899Y04855D03*
X06142Y05D03*
X06815Y05002D03*
X0674D03*
Y04852D03*
X06815D03*
X06923Y05252D03*
X06868Y0515D03*
X06793D03*
X06718D03*
X0667Y05325D03*
X06845Y0532D03*
X06715Y0543D03*
X0679D03*
X0806Y02005D03*
X0685Y01685D03*
X07625Y01825D03*
Y019D03*
X0743Y0162D03*
X0737Y0167D03*
X07585Y0162D03*
X0764Y0167D03*
X07625Y01775D03*
X0754D03*
X07585D03*
X07785Y01825D03*
X07655Y01735D03*
X0785Y013D03*
X07785Y019D03*
X09055Y01775D03*
X083Y0245D03*
X08165Y0258D03*
X0776Y02145D03*
Y02005D03*
X07805Y0205D03*
Y021D03*
X0799Y02135D03*
X0786Y0218D03*
X07825Y02155D03*
X07935Y0149D03*
X0814Y01875D03*
X0826Y018D03*
X0841Y01805D03*
X08335Y018D03*
X08325Y0203D03*
X0826Y02085D03*
X09225Y02245D03*
X09145Y0237D03*
Y0243D03*
X0899D03*
X09145Y02315D03*
X0905Y02375D03*
Y02225D03*
X0811Y03115D03*
X083Y02725D03*
X0829Y0277D03*
X0845Y0273D03*
X0862Y028D03*
X08625Y02725D03*
X0744Y02972D03*
X0743Y01775D03*
X08015Y02095D03*
X0806Y0216D03*
X09065Y02605D03*
X07665Y0309D03*
X07985Y05145D03*
X08025D03*
X0802Y05365D03*
X0794Y0537D03*
X07985Y05455D03*
X0797Y05555D03*
X08415Y0555D03*
Y05645D03*
X0797D03*
Y0574D03*
Y05835D03*
X08415D03*
X08414Y0574D03*
X08415Y0593D03*
X0797D03*
X08415Y05455D03*
Y05365D03*
Y05145D03*
X08426Y04953D03*
X08389Y04795D03*
Y04675D03*
X0802Y0467D03*
X08015Y04825D03*
X0794Y0478D03*
X07865D03*
Y04915D03*
X0794D03*
X0803Y0492D03*
X08005Y04955D03*
X0842Y04895D03*
X08515D03*
X0866Y04945D03*
X08665Y05005D03*
X08515Y05055D03*
X0865Y048D03*
X08515Y0474D03*
X0865Y0485D03*
X07865Y0537D03*
X07425Y03022D03*
X08295Y0307D03*
X08185Y03095D03*
X08295Y0315D03*
X08135D03*
X08465Y028D03*
X08425D03*
X0205Y0665D03*
X01975Y06575D03*
Y06725D03*
X0175Y0665D03*
X09375Y05475D03*
X0614Y04852D03*
G54D188*
X09475Y02625D03*
X094D03*
X09625D03*
X09775D03*
X0985Y0255D03*
X09475D03*
X0955Y02475D03*
X097D03*
X0985D03*
Y024D03*
Y02325D03*
Y0225D03*
Y02175D03*
X09775D03*
Y0225D03*
Y024D03*
X097Y02175D03*
X09625D03*
Y0225D03*
Y024D03*
X0955D03*
Y02325D03*
Y0225D03*
Y02175D03*
X09475D03*
Y0225D03*
X094D03*
Y02175D03*
X097Y024D03*
Y0225D03*
X09625Y02325D03*
X097D03*
X09775D03*
X09625Y02475D03*
X09775D03*
Y0255D03*
X09625D03*
X09925D03*
Y02625D03*
Y02475D03*
Y024D03*
Y02325D03*
Y0225D03*
Y02175D03*
X09325Y02625D03*
X07125Y0275D03*
G54D189*
X0791Y02075D03*
X07809Y0298D03*
X0795D03*
X0788Y0291D03*
X07809Y02839D03*
X0795D03*
M02*