%FSTAX24Y24*%
%MOIN*%
%SFA1B1*%

%IPPOS*%
%ADD69C,0.010000*%
%ADD86C,0.025000*%
%ADD124C,0.007900*%
%ADD126R,0.021700X0.055100*%
%LNdsau-motherboard-reva-1*%
%LPD*%
G54D69*
X07335Y03075D02*
X07345Y03085D01*
X07365*
X07375Y03075*
Y03035*
X07365Y03025*
X07345*
X07335Y03035*
X07285Y03025D02*
Y03085D01*
X07315Y03055*
X07275*
X08535Y051D02*
X08475D01*
Y0514*
X08535Y0516D02*
Y052D01*
X08525*
X08485Y0516*
X08475*
X05975Y05135D02*
Y05075D01*
X05935*
X05875Y05135D02*
X05895Y05125D01*
X05915Y05105*
Y05085*
X05905Y05075*
X05885*
X05875Y05085*
Y05095*
X05885Y05105*
X05915*
X07575Y02935D02*
Y02875D01*
X07535*
X07475D02*
X07515D01*
X07475Y02915*
Y02925*
X07485Y02935*
X07505*
X07515Y02925*
X08575Y0291D02*
Y0285D01*
X08535*
X08515D02*
X08495D01*
X08505*
Y0291*
X08515Y029*
X02165Y04705D02*
X02175Y04695D01*
Y04675*
X02165Y04665*
X02125*
X02115Y04675*
Y04695*
X02125Y04705*
X02175Y04725D02*
Y04765D01*
X02165*
X02125Y04725*
X02115*
X02175Y048249D02*
Y04785D01*
X02145*
X02155Y04805*
Y04815*
X02145Y048249*
X02125*
X02115Y04815*
Y04795*
X02125Y04785*
X02315Y0454D02*
X02325Y0453D01*
Y0451*
X02315Y045*
X02275*
X02265Y0451*
Y0453*
X02275Y0454*
X02325Y0456D02*
Y046D01*
X02315*
X02275Y0456*
X02265*
Y0465D02*
X02325D01*
X02295Y0462*
Y046599*
X024Y04535D02*
X0241Y04525D01*
Y04505*
X024Y04495*
X0236*
X0235Y04505*
Y04525*
X0236Y04535*
X0241Y04555D02*
Y04595D01*
X024*
X0236Y04555*
X0235*
X024Y04615D02*
X0241Y04625D01*
Y04645*
X024Y046549*
X0239*
X0238Y04645*
Y04635*
Y04645*
X0237Y046549*
X0236*
X0235Y04645*
Y04625*
X0236Y04615*
X0386Y0565D02*
X0387Y0566D01*
X0389*
X039Y0565*
Y0561*
X0389Y056*
X0387*
X0386Y0561*
X038Y0566D02*
X0382Y0565D01*
X0384Y0563*
Y0561*
X0383Y056*
X0381*
X038Y0561*
Y0562*
X0381Y0563*
X0384*
X037401Y0566D02*
X0378D01*
Y0563*
X0376Y0564*
X0375*
X037401Y0563*
Y0561*
X0375Y056*
X0377*
X0378Y0561*
X0386Y0575D02*
X0387Y0576D01*
X0389*
X039Y0575*
Y0571*
X0389Y057*
X0387*
X0386Y0571*
X038Y0576D02*
X0382Y0575D01*
X0384Y0573*
Y0571*
X0383Y057*
X0381*
X038Y0571*
Y0572*
X0381Y0573*
X0384*
X0375Y057D02*
Y0576D01*
X0378Y0573*
X037401*
X04485Y05625D02*
X04495Y05635D01*
X04515*
X04525Y05625*
Y05585*
X04515Y05575*
X04495*
X04485Y05585*
X04425Y05635D02*
X04445Y05625D01*
X04465Y05605*
Y05585*
X04455Y05575*
X04435*
X04425Y05585*
Y05595*
X04435Y05605*
X04465*
X04405Y05625D02*
X04395Y05635D01*
X04375*
X043651Y05625*
Y05615*
X04375Y05605*
X04385*
X04375*
X043651Y05595*
Y05585*
X04375Y05575*
X04395*
X04405Y05585*
X04485Y05725D02*
X04495Y05735D01*
X04515*
X04525Y05725*
Y05685*
X04515Y05675*
X04495*
X04485Y05685*
X04425Y05735D02*
X04445Y05725D01*
X04465Y05705*
Y05685*
X04455Y05675*
X04435*
X04425Y05685*
Y05695*
X04435Y05705*
X04465*
X043651Y05675D02*
X04405D01*
X043651Y05715*
Y05725*
X04375Y05735*
X04395*
X04405Y05725*
X05135Y0565D02*
X05145Y0566D01*
X05165*
X05175Y0565*
Y0561*
X05165Y056*
X05145*
X05135Y0561*
X05075Y0566D02*
X05095Y0565D01*
X05115Y0563*
Y0561*
X05105Y056*
X05085*
X05075Y0561*
Y0562*
X05085Y0563*
X05115*
X05055Y056D02*
X05035D01*
X05045*
Y0566*
X05055Y0565*
X05135Y0575D02*
X05145Y0576D01*
X05165*
X05175Y0575*
Y0571*
X05165Y057*
X05145*
X05135Y0571*
X05075Y0576D02*
X05095Y0575D01*
X05115Y0573*
Y0571*
X05105Y057*
X05085*
X05075Y0571*
Y0572*
X05085Y0573*
X05115*
X05055Y0575D02*
X05045Y0576D01*
X05025*
X050151Y0575*
Y0571*
X05025Y057*
X05045*
X05055Y0571*
Y0575*
X08525Y0459D02*
X08535Y0458D01*
Y0456*
X08525Y0455*
X08485*
X08475Y0456*
Y0458*
X08485Y0459*
X08535Y0465D02*
Y0461D01*
X08505*
X08515Y0463*
Y0464*
X08505Y0465*
X08485*
X08475Y0464*
Y0462*
X08485Y0461*
Y0467D02*
X08475Y0468D01*
Y047*
X08485Y047099*
X08525*
X08535Y047*
Y0468*
X08525Y0467*
X08515*
X08505Y0468*
Y047099*
X08625Y0459D02*
X08635Y0458D01*
Y0456*
X08625Y0455*
X08585*
X08575Y0456*
Y0458*
X08585Y0459*
X08635Y0465D02*
Y0461D01*
X08605*
X08615Y0463*
Y0464*
X08605Y0465*
X08585*
X08575Y0464*
Y0462*
X08585Y0461*
X08625Y0467D02*
X08635Y0468D01*
Y047*
X08625Y047099*
X08615*
X08605Y047*
X08595Y047099*
X08585*
X08575Y047*
Y0468*
X08585Y0467*
X08595*
X08605Y0468*
X08615Y0467*
X08625*
X08605Y0468D02*
Y047D01*
X07875Y0464D02*
X07885Y0463D01*
Y0461*
X07875Y046*
X07835*
X07825Y0461*
Y0463*
X07835Y0464*
X07885Y047D02*
Y0466D01*
X07855*
X07865Y0468*
Y0469*
X07855Y047*
X07835*
X07825Y0469*
Y0467*
X07835Y0466*
X07885Y0472D02*
Y047599D01*
X07875*
X07835Y0472*
X07825*
X07975Y0464D02*
X07985Y0463D01*
Y0461*
X07975Y046*
X07935*
X07925Y0461*
Y0463*
X07935Y0464*
X07985Y047D02*
Y0466D01*
X07955*
X07965Y0468*
Y0469*
X07955Y047*
X07935*
X07925Y0469*
Y0467*
X07935Y0466*
X07985Y047599D02*
X07975Y0474D01*
X07955Y0472*
X07935*
X07925Y0473*
Y0475*
X07935Y047599*
X07945*
X07955Y0475*
Y0472*
X08625Y05115D02*
X08635Y05105D01*
Y05085*
X08625Y05075*
X08585*
X08575Y05085*
Y05105*
X08585Y05115*
X08635Y05175D02*
Y05135D01*
X08605*
X08615Y05155*
Y05165*
X08605Y05175*
X08585*
X08575Y05165*
Y05145*
X08585Y05135*
X08635Y052349D02*
Y05195D01*
X08605*
X08615Y05215*
Y05225*
X08605Y052349*
X08585*
X08575Y05225*
Y05205*
X08585Y05195*
X07035Y052D02*
X07045Y0521D01*
X07065*
X07075Y052*
Y0516*
X07065Y0515*
X07045*
X07035Y0516*
X06975Y0521D02*
X07015D01*
Y0518*
X06995Y0519*
X06985*
X06975Y0518*
Y0516*
X06985Y0515*
X07005*
X07015Y0516*
X06925Y0515D02*
Y0521D01*
X06955Y0518*
X069151*
X0776Y052D02*
X0777Y0521D01*
X0779*
X078Y052*
Y0516*
X0779Y0515*
X0777*
X0776Y0516*
X077Y0521D02*
X0774D01*
Y0518*
X0772Y0519*
X0771*
X077Y0518*
Y0516*
X0771Y0515*
X0773*
X0774Y0516*
X0768Y052D02*
X0767Y0521D01*
X0765*
X076401Y052*
Y0519*
X0765Y0518*
X0766*
X0765*
X076401Y0517*
Y0516*
X0765Y0515*
X0767*
X0768Y0516*
X06715Y05515D02*
X06725Y05505D01*
Y05485*
X06715Y05475*
X06675*
X06665Y05485*
Y05505*
X06675Y05515*
X06725Y05575D02*
Y05535D01*
X06695*
X06705Y05555*
Y05565*
X06695Y05575*
X06675*
X06665Y05565*
Y05545*
X06675Y05535*
X06665Y056349D02*
Y05595D01*
X06705Y056349*
X06715*
X06725Y05625*
Y05605*
X06715Y05595*
X0816Y05175D02*
X0817Y05185D01*
X0819*
X082Y05175*
Y05135*
X0819Y05125*
X0817*
X0816Y05135*
X081Y05185D02*
X0814D01*
Y05155*
X0812Y05165*
X0811*
X081Y05155*
Y05135*
X0811Y05125*
X0813*
X0814Y05135*
X0808Y05125D02*
X0806D01*
X0807*
Y05185*
X0808Y05175*
X06815Y05515D02*
X06825Y05505D01*
Y05485*
X06815Y05475*
X06775*
X06765Y05485*
Y05505*
X06775Y05515*
X06825Y05575D02*
Y05535D01*
X06795*
X06805Y05555*
Y05565*
X06795Y05575*
X06775*
X06765Y05565*
Y05545*
X06775Y05535*
X06815Y05595D02*
X06825Y05605D01*
Y05625*
X06815Y056349*
X06775*
X06765Y05625*
Y05605*
X06775Y05595*
X06815*
X0615Y0469D02*
X0616Y0468D01*
Y0466*
X0615Y0465*
X0611*
X061Y0466*
Y0468*
X0611Y0469*
X061Y0474D02*
X0616D01*
X0613Y0471*
Y0475*
X0611Y0477D02*
X061Y0478D01*
Y048*
X0611Y048099*
X0615*
X0616Y048*
Y0478*
X0615Y0477*
X0614*
X0613Y0478*
Y048099*
X0605Y0469D02*
X0606Y0468D01*
Y0466*
X0605Y0465*
X0601*
X06Y0466*
Y0468*
X0601Y0469*
X06Y0474D02*
X0606D01*
X0603Y0471*
Y0475*
X0605Y0477D02*
X0606Y0478D01*
Y048*
X0605Y048099*
X0604*
X0603Y048*
X0602Y048099*
X0601*
X06Y048*
Y0478*
X0601Y0477*
X0602*
X0603Y0478*
X0604Y0477*
X0605*
X0603Y0478D02*
Y048D01*
X0685Y0469D02*
X0686Y0468D01*
Y0466*
X0685Y0465*
X0681*
X068Y0466*
Y0468*
X0681Y0469*
X068Y0474D02*
X0686D01*
X0683Y0471*
Y0475*
X0686Y0477D02*
Y048099D01*
X0685*
X0681Y0477*
X068*
X0675Y0469D02*
X0676Y0468D01*
Y0466*
X0675Y0465*
X0671*
X067Y0466*
Y0468*
X0671Y0469*
X067Y0474D02*
X0676D01*
X0673Y0471*
Y0475*
X0676Y048099D02*
X0675Y0479D01*
X0673Y0477*
X0671*
X067Y0478*
Y048*
X0671Y048099*
X0672*
X0673Y048*
Y0477*
X0816Y05325D02*
X0817Y05335D01*
X0819*
X082Y05325*
Y05285*
X0819Y05275*
X0817*
X0816Y05285*
X0811Y05275D02*
Y05335D01*
X0814Y05305*
X081*
X080401Y05335D02*
X0808D01*
Y05305*
X0806Y05315*
X0805*
X080401Y05305*
Y05285*
X0805Y05275*
X0807*
X0808Y05285*
X06818Y0504D02*
X06828Y0503D01*
Y0501*
X06818Y05*
X06778*
X06768Y0501*
Y0503*
X06778Y0504*
X06768Y0509D02*
X06828D01*
X06798Y0506*
Y051*
X06768Y0515D02*
X06828D01*
X06798Y0512*
Y051599*
X0776Y05325D02*
X0777Y05335D01*
X0779*
X078Y05325*
Y05285*
X0779Y05275*
X0777*
X0776Y05285*
X0771Y05275D02*
Y05335D01*
X0774Y05305*
X077*
X0768Y05325D02*
X0767Y05335D01*
X0765*
X076401Y05325*
Y05315*
X0765Y05305*
X0766*
X0765*
X076401Y05295*
Y05285*
X0765Y05275*
X0767*
X0768Y05285*
X06725Y0504D02*
X06735Y0503D01*
Y0501*
X06725Y05*
X06685*
X06675Y0501*
Y0503*
X06685Y0504*
X06675Y0509D02*
X06735D01*
X06705Y0506*
Y051*
X06675Y051599D02*
Y0512D01*
X06715Y051599*
X06725*
X06735Y0515*
Y0513*
X06725Y0512*
X06065Y05403D02*
X06075Y05413D01*
X06095*
X06105Y05403*
Y05363*
X06095Y05353*
X06075*
X06065Y05363*
X06015Y05353D02*
Y05413D01*
X06045Y05383*
X06005*
X05985Y05353D02*
X05965D01*
X05975*
Y05413*
X05985Y05403*
X0581Y04925D02*
X0582Y04935D01*
X0584*
X0585Y04925*
Y04885*
X0584Y04875*
X0582*
X0581Y04885*
X0576Y04875D02*
Y04935D01*
X0579Y04905*
X0575*
X0573Y04925D02*
X0572Y04935D01*
X057*
X056901Y04925*
Y04885*
X057Y04875*
X0572*
X0573Y04885*
Y04925*
X08235Y02675D02*
X08245Y02685D01*
X08265*
X08275Y02675*
Y02635*
X08265Y02625*
X08245*
X08235Y02635*
X08215Y02625D02*
X08195D01*
X08205*
Y02685*
X08215Y02675*
X08135Y02625D02*
Y02685D01*
X08165Y02655*
X08125*
X0756Y0285D02*
X0757Y0286D01*
X0759*
X076Y0285*
Y0281*
X0759Y028*
X0757*
X0756Y0281*
X0754Y028D02*
X0752D01*
X0753*
Y0286*
X0754Y0285*
X0749D02*
X0748Y0286D01*
X0746*
X0745Y0285*
Y0284*
X0746Y0283*
X0747*
X0746*
X0745Y0282*
Y0281*
X0746Y028*
X0748*
X0749Y0281*
X08235Y02875D02*
X08245Y02885D01*
X08265*
X08275Y02875*
Y02835*
X08265Y02825*
X08245*
X08235Y02835*
X08215Y02825D02*
X08195D01*
X08205*
Y02885*
X08215Y02875*
X08125Y02825D02*
X08165D01*
X08125Y02865*
Y02875*
X08135Y02885*
X08155*
X08165Y02875*
X0756Y02575D02*
X0757Y02585D01*
X0759*
X076Y02575*
Y02535*
X0759Y02525*
X0757*
X0756Y02535*
X0754Y02525D02*
X0752D01*
X0753*
Y02585*
X0754Y02575*
X0749Y02525D02*
X0747D01*
X0748*
Y02585*
X0749Y02575*
X0771Y03225D02*
X0772Y03235D01*
X0774*
X0775Y03225*
Y03185*
X0774Y03175*
X0772*
X0771Y03185*
X0769Y03175D02*
X0767D01*
X0768*
Y03235*
X0769Y03225*
X0764D02*
X0763Y03235D01*
X0761*
X076Y03225*
Y03185*
X0761Y03175*
X0763*
X0764Y03185*
Y03225*
X08235Y03D02*
X08245Y0301D01*
X08265*
X08275Y03*
Y0296*
X08265Y0295*
X08245*
X08235Y0296*
X08215D02*
X08205Y0295D01*
X08185*
X08175Y0296*
Y03*
X08185Y0301*
X08205*
X08215Y03*
Y0299*
X08205Y0298*
X08175*
X0751Y0315D02*
X0752Y0316D01*
X0754*
X0755Y0315*
Y0311*
X0754Y031*
X0752*
X0751Y0311*
X0749Y0315D02*
X0748Y0316D01*
X0746*
X0745Y0315*
Y0314*
X0746Y0313*
X0745Y0312*
Y0311*
X0746Y031*
X0748*
X0749Y0311*
Y0312*
X0748Y0313*
X0749Y0314*
Y0315*
X0748Y0313D02*
X0746D01*
X08235Y0325D02*
X08245Y0326D01*
X08265*
X08275Y0325*
Y0321*
X08265Y032*
X08245*
X08235Y0321*
X08215Y0326D02*
X08175D01*
Y0325*
X08215Y0321*
Y032*
X08535Y0265D02*
X08545Y0266D01*
X08565*
X08575Y0265*
Y0261*
X08565Y026*
X08545*
X08535Y0261*
X08475Y0266D02*
X08495Y0265D01*
X08515Y0263*
Y0261*
X08505Y026*
X08485*
X08475Y0261*
Y0262*
X08485Y0263*
X08515*
G54D86*
X10275Y01D02*
D01*
X102889Y010004*
X103028Y010019*
X103165Y010043*
X103301Y010077*
X103434Y01012*
X103563Y010172*
X103688Y010234*
X103809Y010303*
X103925Y010381*
X104035Y010467*
X104139Y010561*
X104236Y010661*
X104326Y010768*
X104408Y010881*
X104482Y011*
X104547Y011123*
X104604Y01125*
X104652Y011381*
X10469Y011516*
X104719Y011652*
X104739Y01179*
X104748Y01193*
X10475Y012*
Y072D02*
D01*
X104745Y072139*
X10473Y072278*
X104706Y072415*
X104672Y072551*
X104629Y072684*
X104577Y072813*
X104515Y072938*
X104446Y073059*
X104368Y073175*
X104282Y073285*
X104188Y073389*
X104088Y073486*
X103981Y073576*
X103868Y073658*
X10375Y073732*
X103626Y073797*
X103499Y073854*
X103368Y073902*
X103233Y07394*
X103097Y073969*
X102959Y073989*
X102819Y073998*
X10275Y074*
X012D02*
D01*
X01186Y073995*
X011721Y07398*
X011584Y073956*
X011448Y073922*
X011315Y073879*
X011186Y073827*
X011061Y073765*
X01094Y073696*
X010824Y073618*
X010714Y073532*
X01061Y073438*
X010513Y073338*
X010423Y073231*
X010341Y073118*
X010267Y073*
X010202Y072876*
X010145Y072749*
X010097Y072618*
X010059Y072483*
X01003Y072347*
X01001Y072209*
X010001Y072069*
X01Y072*
Y012D02*
D01*
X010004Y01186*
X010019Y011721*
X010043Y011584*
X010077Y011448*
X01012Y011315*
X010172Y011186*
X010234Y011061*
X010303Y01094*
X010381Y010824*
X010467Y010714*
X010561Y01061*
X010661Y010513*
X010768Y010423*
X010881Y010341*
X011Y010267*
X011123Y010202*
X01125Y010145*
X011381Y010097*
X011516Y010059*
X011652Y01003*
X01179Y01001*
X01193Y010001*
X012Y01*
Y074D02*
D01*
X01186Y073995*
X011721Y07398*
X011584Y073956*
X011448Y073922*
X011315Y073879*
X011186Y073827*
X011061Y073765*
X01094Y073696*
X010824Y073618*
X010714Y073532*
X01061Y073438*
X010513Y073338*
X010423Y073231*
X010341Y073118*
X010267Y073*
X010202Y072876*
X010145Y072749*
X010097Y072618*
X010059Y072483*
X01003Y072347*
X01001Y072209*
X010001Y072069*
X01Y072*
X10475Y057D02*
Y072D01*
Y012D02*
Y027D01*
X01Y071D02*
Y072D01*
X10475Y027D02*
Y057D01*
X068Y01D02*
X10275D01*
X012D02*
X068D01*
X012Y074D02*
X10275D01*
X01Y012D02*
Y071D01*
Y072*
G54D124*
X059814Y052976D02*
X060286D01*
X059814Y052424D02*
X060286D01*
Y052976*
X0608Y05205D02*
Y05225D01*
Y05205D02*
Y05215D01*
X0609*
X0607D02*
X0609D01*
X0608Y052D02*
Y05205D01*
Y052D02*
Y0523D01*
Y05215D02*
Y0523D01*
Y05215D02*
X06095D01*
X06065D02*
X06095D01*
X058707Y050262D02*
Y050538D01*
X074849Y029591D02*
Y029867D01*
X084849Y027862D02*
Y028138D01*
X085012Y050301D02*
X085288D01*
G54D126*
X060178Y0527D03*
M02*