%FSTAX25Y25*%
%MOIN*%
G70*
G01*
G75*
%ADD10C,0.01575*%
G04:AMPARAMS|DCode=11|XSize=62.99mil|YSize=68.9mil|CornerRadius=15.75mil|HoleSize=0mil|Usage=FLASHONLY|Rotation=270.000|XOffset=0mil|YOffset=0mil|HoleType=Round|Shape=RoundedRectangle|*
%AMROUNDEDRECTD11*
21,1,0.06299,0.03740,0,0,270.0*
21,1,0.03150,0.06890,0,0,270.0*
1,1,0.03150,-0.01870,-0.01575*
1,1,0.03150,-0.01870,0.01575*
1,1,0.03150,0.01870,0.01575*
1,1,0.03150,0.01870,-0.01575*
%
%ADD11ROUNDEDRECTD11*%
%ADD12R,0.06890X0.06299*%
G04:AMPARAMS|DCode=13|XSize=35.43mil|YSize=31.5mil|CornerRadius=0mil|HoleSize=0mil|Usage=FLASHONLY|Rotation=225.000|XOffset=0mil|YOffset=0mil|HoleType=Round|Shape=Rectangle|*
%AMROTATEDRECTD13*
4,1,4,0.00139,0.02366,0.02366,0.00139,-0.00139,-0.02366,-0.02366,-0.00139,0.00139,0.02366,0.0*
%
%ADD13ROTATEDRECTD13*%

%ADD14R,0.03543X0.02756*%
%ADD15R,0.03543X0.03150*%
%ADD16R,0.03150X0.03543*%
%ADD17R,0.02756X0.03543*%
%ADD18R,0.05512X0.04331*%
G04:AMPARAMS|DCode=19|XSize=35.43mil|YSize=27.56mil|CornerRadius=0mil|HoleSize=0mil|Usage=FLASHONLY|Rotation=225.000|XOffset=0mil|YOffset=0mil|HoleType=Round|Shape=Rectangle|*
%AMROTATEDRECTD19*
4,1,4,0.00278,0.02227,0.02227,0.00278,-0.00278,-0.02227,-0.02227,-0.00278,0.00278,0.02227,0.0*
%
%ADD19ROTATEDRECTD19*%

%ADD20O,0.07874X0.01969*%
%ADD21O,0.00984X0.03150*%
%ADD22O,0.03150X0.00984*%
%ADD23R,0.07087X0.07087*%
%ADD24R,0.04331X0.06693*%
%ADD25R,0.07087X0.07874*%
G04:AMPARAMS|DCode=26|XSize=70.87mil|YSize=78.74mil|CornerRadius=17.72mil|HoleSize=0mil|Usage=FLASHONLY|Rotation=180.000|XOffset=0mil|YOffset=0mil|HoleType=Round|Shape=RoundedRectangle|*
%AMROUNDEDRECTD26*
21,1,0.07087,0.04331,0,0,180.0*
21,1,0.03543,0.07874,0,0,180.0*
1,1,0.03543,-0.01772,0.02165*
1,1,0.03543,0.01772,0.02165*
1,1,0.03543,0.01772,-0.02165*
1,1,0.03543,-0.01772,-0.02165*
%
%ADD26ROUNDEDRECTD26*%
%ADD27R,0.04331X0.05512*%
%ADD28R,0.29528X0.29528*%
G04:AMPARAMS|DCode=29|XSize=35.43mil|YSize=27.56mil|CornerRadius=0mil|HoleSize=0mil|Usage=FLASHONLY|Rotation=315.000|XOffset=0mil|YOffset=0mil|HoleType=Round|Shape=Rectangle|*
%AMROTATEDRECTD29*
4,1,4,-0.02227,0.00278,-0.00278,0.02227,0.02227,-0.00278,0.00278,-0.02227,-0.02227,0.00278,0.0*
%
%ADD29ROTATEDRECTD29*%

G04:AMPARAMS|DCode=30|XSize=39.37mil|YSize=61.02mil|CornerRadius=9.84mil|HoleSize=0mil|Usage=FLASHONLY|Rotation=225.000|XOffset=0mil|YOffset=0mil|HoleType=Round|Shape=RoundedRectangle|*
%AMROUNDEDRECTD30*
21,1,0.03937,0.04134,0,0,225.0*
21,1,0.01969,0.06102,0,0,225.0*
1,1,0.01969,-0.02158,0.00766*
1,1,0.01969,-0.00766,0.02158*
1,1,0.01969,0.02158,-0.00766*
1,1,0.01969,0.00766,-0.02158*
%
%ADD30ROUNDEDRECTD30*%
G04:AMPARAMS|DCode=31|XSize=39.37mil|YSize=61.02mil|CornerRadius=0mil|HoleSize=0mil|Usage=FLASHONLY|Rotation=225.000|XOffset=0mil|YOffset=0mil|HoleType=Round|Shape=Rectangle|*
%AMROTATEDRECTD31*
4,1,4,-0.00766,0.03550,0.03550,-0.00766,0.00766,-0.03550,-0.03550,0.00766,-0.00766,0.03550,0.0*
%
%ADD31ROTATEDRECTD31*%

G04:AMPARAMS|DCode=32|XSize=35.43mil|YSize=31.5mil|CornerRadius=0mil|HoleSize=0mil|Usage=FLASHONLY|Rotation=315.000|XOffset=0mil|YOffset=0mil|HoleType=Round|Shape=Rectangle|*
%AMROTATEDRECTD32*
4,1,4,-0.02366,0.00139,-0.00139,0.02366,0.02366,-0.00139,0.00139,-0.02366,-0.02366,0.00139,0.0*
%
%ADD32ROTATEDRECTD32*%

G04:AMPARAMS|DCode=33|XSize=39.37mil|YSize=61.02mil|CornerRadius=9.84mil|HoleSize=0mil|Usage=FLASHONLY|Rotation=135.000|XOffset=0mil|YOffset=0mil|HoleType=Round|Shape=RoundedRectangle|*
%AMROUNDEDRECTD33*
21,1,0.03937,0.04134,0,0,135.0*
21,1,0.01969,0.06102,0,0,135.0*
1,1,0.01969,0.00766,0.02158*
1,1,0.01969,0.02158,0.00766*
1,1,0.01969,-0.00766,-0.02158*
1,1,0.01969,-0.02158,-0.00766*
%
%ADD33ROUNDEDRECTD33*%
G04:AMPARAMS|DCode=34|XSize=39.37mil|YSize=61.02mil|CornerRadius=0mil|HoleSize=0mil|Usage=FLASHONLY|Rotation=135.000|XOffset=0mil|YOffset=0mil|HoleType=Round|Shape=Rectangle|*
%AMROTATEDRECTD34*
4,1,4,0.03550,0.00766,-0.00766,-0.03550,-0.03550,-0.00766,0.00766,0.03550,0.03550,0.00766,0.0*
%
%ADD34ROTATEDRECTD34*%

%ADD35O,0.07087X0.00984*%
%ADD36R,0.04400X0.10600*%
G04:AMPARAMS|DCode=37|XSize=39.37mil|YSize=72.84mil|CornerRadius=9.84mil|HoleSize=0mil|Usage=FLASHONLY|Rotation=90.000|XOffset=0mil|YOffset=0mil|HoleType=Round|Shape=RoundedRectangle|*
%AMROUNDEDRECTD37*
21,1,0.03937,0.05315,0,0,90.0*
21,1,0.01969,0.07284,0,0,90.0*
1,1,0.01969,0.02658,0.00984*
1,1,0.01969,0.02658,-0.00984*
1,1,0.01969,-0.02658,-0.00984*
1,1,0.01969,-0.02658,0.00984*
%
%ADD37ROUNDEDRECTD37*%
%ADD38R,0.07284X0.03937*%
%ADD39R,0.07284X0.13780*%
%ADD40R,0.06693X0.04331*%
%ADD41R,0.10600X0.04400*%
G04:AMPARAMS|DCode=42|XSize=70.87mil|YSize=78.74mil|CornerRadius=17.72mil|HoleSize=0mil|Usage=FLASHONLY|Rotation=90.000|XOffset=0mil|YOffset=0mil|HoleType=Round|Shape=RoundedRectangle|*
%AMROUNDEDRECTD42*
21,1,0.07087,0.04331,0,0,90.0*
21,1,0.03543,0.07874,0,0,90.0*
1,1,0.03543,0.02165,0.01772*
1,1,0.03543,0.02165,-0.01772*
1,1,0.03543,-0.02165,-0.01772*
1,1,0.03543,-0.02165,0.01772*
%
%ADD42ROUNDEDRECTD42*%
%ADD43R,0.07874X0.07087*%
%ADD44O,0.09449X0.01772*%
%ADD45O,0.07874X0.01378*%
%ADD46R,0.07874X0.23622*%
%ADD47R,0.02400X0.02200*%
%ADD48R,0.09400X0.12200*%
%ADD49R,0.07800X0.01814*%
%ADD50R,0.07100X0.04400*%
%ADD51R,0.02200X0.02400*%
%ADD52R,0.23622X0.07874*%
G04:AMPARAMS|DCode=53|XSize=27.56mil|YSize=51.18mil|CornerRadius=6.89mil|HoleSize=0mil|Usage=FLASHONLY|Rotation=0.000|XOffset=0mil|YOffset=0mil|HoleType=Round|Shape=RoundedRectangle|*
%AMROUNDEDRECTD53*
21,1,0.02756,0.03740,0,0,0.0*
21,1,0.01378,0.05118,0,0,0.0*
1,1,0.01378,0.00689,-0.01870*
1,1,0.01378,-0.00689,-0.01870*
1,1,0.01378,-0.00689,0.01870*
1,1,0.01378,0.00689,0.01870*
%
%ADD53ROUNDEDRECTD53*%
%ADD54R,0.02756X0.05118*%
%ADD55R,0.02756X0.07087*%
G04:AMPARAMS|DCode=56|XSize=27.56mil|YSize=70.87mil|CornerRadius=6.89mil|HoleSize=0mil|Usage=FLASHONLY|Rotation=180.000|XOffset=0mil|YOffset=0mil|HoleType=Round|Shape=RoundedRectangle|*
%AMROUNDEDRECTD56*
21,1,0.02756,0.05709,0,0,180.0*
21,1,0.01378,0.07087,0,0,180.0*
1,1,0.01378,-0.00689,0.02854*
1,1,0.01378,0.00689,0.02854*
1,1,0.01378,0.00689,-0.02854*
1,1,0.01378,-0.00689,-0.02854*
%
%ADD56ROUNDEDRECTD56*%
G04:AMPARAMS|DCode=57|XSize=31.5mil|YSize=15.75mil|CornerRadius=3.94mil|HoleSize=0mil|Usage=FLASHONLY|Rotation=180.000|XOffset=0mil|YOffset=0mil|HoleType=Round|Shape=RoundedRectangle|*
%AMROUNDEDRECTD57*
21,1,0.03150,0.00787,0,0,180.0*
21,1,0.02362,0.01575,0,0,180.0*
1,1,0.00787,-0.01181,0.00394*
1,1,0.00787,0.01181,0.00394*
1,1,0.00787,0.01181,-0.00394*
1,1,0.00787,-0.01181,-0.00394*
%
%ADD57ROUNDEDRECTD57*%
G04:AMPARAMS|DCode=58|XSize=31.5mil|YSize=15.75mil|CornerRadius=3.94mil|HoleSize=0mil|Usage=FLASHONLY|Rotation=90.000|XOffset=0mil|YOffset=0mil|HoleType=Round|Shape=RoundedRectangle|*
%AMROUNDEDRECTD58*
21,1,0.03150,0.00787,0,0,90.0*
21,1,0.02362,0.01575,0,0,90.0*
1,1,0.00787,0.00394,0.01181*
1,1,0.00787,0.00394,-0.01181*
1,1,0.00787,-0.00394,-0.01181*
1,1,0.00787,-0.00394,0.01181*
%
%ADD58ROUNDEDRECTD58*%
%ADD59R,0.04400X0.07100*%
%ADD60R,0.12200X0.09400*%
%ADD61R,0.01814X0.07800*%
%ADD62R,0.07087X0.02756*%
G04:AMPARAMS|DCode=63|XSize=27.56mil|YSize=70.87mil|CornerRadius=6.89mil|HoleSize=0mil|Usage=FLASHONLY|Rotation=90.000|XOffset=0mil|YOffset=0mil|HoleType=Round|Shape=RoundedRectangle|*
%AMROUNDEDRECTD63*
21,1,0.02756,0.05709,0,0,90.0*
21,1,0.01378,0.07087,0,0,90.0*
1,1,0.01378,0.02854,0.00689*
1,1,0.01378,0.02854,-0.00689*
1,1,0.01378,-0.02854,-0.00689*
1,1,0.01378,-0.02854,0.00689*
%
%ADD63ROUNDEDRECTD63*%
%ADD64R,0.06299X0.06890*%
%ADD65C,0.02500*%
%ADD66C,0.01000*%
%ADD67C,0.09400*%
%ADD68C,0.19685*%
%ADD69C,0.09449*%
%ADD70C,0.06800*%
%ADD71C,0.20000*%
%ADD72C,0.04724*%
%ADD73C,0.06000*%
%ADD74R,0.05906X0.05906*%
%ADD75C,0.05906*%
%ADD76R,0.05906X0.05906*%
%ADD77C,0.07087*%
%ADD78C,0.23622*%
%ADD79C,0.02598*%
%ADD80C,0.04000*%
%ADD81C,0.10200*%
%ADD82C,0.17779*%
%ADD83C,0.11087*%
%ADD84C,0.08200*%
%ADD85C,0.17000*%
%ADD86C,0.07150*%
%ADD87C,0.08724*%
%ADD88C,0.07543*%
%ADD89C,0.07937*%
%ADD90C,0.05299*%
D11*
X0197382Y0665D02*
D03*
X0612382Y05275D02*
D03*
D12*
X0182618Y0665D02*
D03*
X0597618Y05275D02*
D03*
X0342618Y07325D02*
D03*
X0357382D02*
D03*
X0392618D02*
D03*
X0407382D02*
D03*
X0367618D02*
D03*
X0382382D02*
D03*
D13*
X0904449Y0163051D02*
D03*
X0900551Y0166949D02*
D03*
X0911949Y0170551D02*
D03*
X0908051Y0174449D02*
D03*
X0811855Y0254645D02*
D03*
X0815752Y0250748D02*
D03*
D14*
X0826Y0197047D02*
D03*
Y0202953D02*
D03*
Y0212047D02*
D03*
Y0217953D02*
D03*
Y0184547D02*
D03*
Y0190453D02*
D03*
X08335Y0190453D02*
D03*
Y0184547D02*
D03*
X04025Y0677953D02*
D03*
Y0672047D02*
D03*
X0395Y0672047D02*
D03*
Y0677953D02*
D03*
X088Y0555453D02*
D03*
Y0549547D02*
D03*
Y0527953D02*
D03*
Y0522047D02*
D03*
Y0500453D02*
D03*
Y0494547D02*
D03*
Y0472953D02*
D03*
Y0467047D02*
D03*
X09125Y0462047D02*
D03*
Y0467953D02*
D03*
Y0489547D02*
D03*
Y0495453D02*
D03*
Y0517047D02*
D03*
Y0522953D02*
D03*
Y0544547D02*
D03*
Y0550453D02*
D03*
D15*
X0806Y0210256D02*
D03*
Y0204744D02*
D03*
X07585Y0167244D02*
D03*
Y0172756D02*
D03*
X0776Y0210256D02*
D03*
Y0204744D02*
D03*
X07925Y0252244D02*
D03*
Y0257756D02*
D03*
X07875Y0252244D02*
D03*
Y0257756D02*
D03*
X0841Y0190256D02*
D03*
Y0184744D02*
D03*
X07835Y0319744D02*
D03*
Y0325256D02*
D03*
X09075Y0229744D02*
D03*
Y0235256D02*
D03*
X0231417Y0474744D02*
D03*
Y0480256D02*
D03*
X0236417Y0474744D02*
D03*
Y0480256D02*
D03*
X032Y0485256D02*
D03*
Y0479744D02*
D03*
X041Y0652244D02*
D03*
Y0657756D02*
D03*
X04175Y0657756D02*
D03*
Y0652244D02*
D03*
Y0572756D02*
D03*
Y0567244D02*
D03*
X04225Y0567244D02*
D03*
Y0572756D02*
D03*
X048Y0572756D02*
D03*
Y0567244D02*
D03*
X0485Y0567244D02*
D03*
Y0572756D02*
D03*
X0545Y0572756D02*
D03*
Y0567244D02*
D03*
X055Y0567244D02*
D03*
Y0572756D02*
D03*
X06725Y0532244D02*
D03*
Y0537756D02*
D03*
X068Y0532244D02*
D03*
Y0537756D02*
D03*
X06725Y0519744D02*
D03*
Y0525256D02*
D03*
X068Y0519744D02*
D03*
Y0525256D02*
D03*
X06875Y0519744D02*
D03*
Y0525256D02*
D03*
X07875Y0520256D02*
D03*
Y0514744D02*
D03*
X0795Y0520256D02*
D03*
Y0514744D02*
D03*
X07875Y0527244D02*
D03*
Y0532756D02*
D03*
X0795Y0527244D02*
D03*
Y0532756D02*
D03*
X06075Y0495256D02*
D03*
Y0489744D02*
D03*
X0615Y0495256D02*
D03*
Y0489744D02*
D03*
X06825Y0489744D02*
D03*
Y0495256D02*
D03*
X0675Y0489744D02*
D03*
Y0495256D02*
D03*
X0855Y0490256D02*
D03*
Y0484744D02*
D03*
X08625Y0490256D02*
D03*
Y0484744D02*
D03*
Y0499744D02*
D03*
Y0505256D02*
D03*
X07875Y0487756D02*
D03*
Y0482244D02*
D03*
X0795Y0487756D02*
D03*
Y0482244D02*
D03*
D16*
X0773756Y019D02*
D03*
X0768244D02*
D03*
X0773756Y01825D02*
D03*
X0768244D02*
D03*
X0818244Y0305D02*
D03*
X0823756D02*
D03*
X0818244Y029D02*
D03*
X0823756D02*
D03*
X0758756Y0315D02*
D03*
X0753244D02*
D03*
X0758756Y0275D02*
D03*
X0753244D02*
D03*
X0818244Y028D02*
D03*
X0823756D02*
D03*
X0856256Y02725D02*
D03*
X0850744D02*
D03*
X0818244D02*
D03*
X0823756D02*
D03*
X0237244Y05375D02*
D03*
X0242756D02*
D03*
X0257756Y05475D02*
D03*
X0252244D02*
D03*
X0307756Y04775D02*
D03*
X0302244D02*
D03*
X0462244Y06825D02*
D03*
X0467756D02*
D03*
X0600256Y0495D02*
D03*
X0594744D02*
D03*
D17*
X0775547Y013D02*
D03*
X0781453D02*
D03*
X0792953Y0245D02*
D03*
X0787047D02*
D03*
X0791453Y01925D02*
D03*
X0785547D02*
D03*
X0919547Y04125D02*
D03*
X0925453D02*
D03*
X0610453Y05525D02*
D03*
X0604547D02*
D03*
X0272047Y0555D02*
D03*
X0277953D02*
D03*
X0302047D02*
D03*
X0307953D02*
D03*
X0312047Y05225D02*
D03*
X0317953D02*
D03*
X0470453Y06525D02*
D03*
X0464547D02*
D03*
X0457953D02*
D03*
X0452047D02*
D03*
X0462047Y06925D02*
D03*
X0467953D02*
D03*
X0889547Y07175D02*
D03*
X0895453D02*
D03*
X0889547Y0725D02*
D03*
X0895453D02*
D03*
X0889547Y07325D02*
D03*
X0895453D02*
D03*
X0872047Y06725D02*
D03*
X0877953D02*
D03*
X0854547D02*
D03*
X0860453D02*
D03*
X0895453Y06725D02*
D03*
X0889547D02*
D03*
X0339547Y072D02*
D03*
X0345453D02*
D03*
X0367047D02*
D03*
X0372953D02*
D03*
X0392047D02*
D03*
X0397953D02*
D03*
X0452953Y06925D02*
D03*
X0447047D02*
D03*
D18*
X0751Y0172953D02*
D03*
Y0167047D02*
D03*
X033Y0545453D02*
D03*
Y0539547D02*
D03*
X0221417Y0480453D02*
D03*
Y0474547D02*
D03*
X0595Y0482047D02*
D03*
Y0487953D02*
D03*
X0855Y0499547D02*
D03*
Y0505453D02*
D03*
D19*
X0763285Y0261215D02*
D03*
X0759109Y0265391D02*
D03*
X0773891Y0250609D02*
D03*
X0769715Y0254785D02*
D03*
D20*
X0828711Y0615D02*
D03*
Y061185D02*
D03*
Y0608701D02*
D03*
Y0605551D02*
D03*
Y0602402D02*
D03*
Y0599252D02*
D03*
Y0596102D02*
D03*
Y0592953D02*
D03*
Y0589803D02*
D03*
Y0586654D02*
D03*
Y0583504D02*
D03*
Y0580354D02*
D03*
Y0577205D02*
D03*
Y0574055D02*
D03*
Y0570905D02*
D03*
Y0567756D02*
D03*
Y0564606D02*
D03*
Y0561457D02*
D03*
Y0558307D02*
D03*
Y0555157D02*
D03*
Y0552008D02*
D03*
Y0548858D02*
D03*
Y0545709D02*
D03*
Y0542559D02*
D03*
Y0539409D02*
D03*
Y053626D02*
D03*
Y053311D02*
D03*
Y052996D02*
D03*
Y0526811D02*
D03*
Y0523661D02*
D03*
Y0520512D02*
D03*
Y0517362D02*
D03*
Y0514213D02*
D03*
Y0511063D02*
D03*
Y0507913D02*
D03*
Y0504764D02*
D03*
Y0501614D02*
D03*
Y0498464D02*
D03*
Y0495315D02*
D03*
Y0492165D02*
D03*
Y0489016D02*
D03*
Y0485866D02*
D03*
Y0482716D02*
D03*
Y0479567D02*
D03*
Y0476417D02*
D03*
Y0473268D02*
D03*
Y0470118D02*
D03*
Y0466968D02*
D03*
Y0463819D02*
D03*
Y0460669D02*
D03*
X0811389Y0615D02*
D03*
Y061185D02*
D03*
Y0608701D02*
D03*
Y0605551D02*
D03*
Y0602402D02*
D03*
Y0599252D02*
D03*
Y0596102D02*
D03*
Y0592953D02*
D03*
Y0589803D02*
D03*
Y0586654D02*
D03*
Y0583504D02*
D03*
Y0580354D02*
D03*
Y0577205D02*
D03*
Y0574055D02*
D03*
Y0570905D02*
D03*
Y0567756D02*
D03*
Y0564606D02*
D03*
Y0561457D02*
D03*
Y0558307D02*
D03*
Y0555157D02*
D03*
Y0552008D02*
D03*
Y0548858D02*
D03*
Y0545709D02*
D03*
Y0542559D02*
D03*
Y0539409D02*
D03*
Y053626D02*
D03*
Y053311D02*
D03*
Y052996D02*
D03*
Y0526811D02*
D03*
Y0523661D02*
D03*
Y0520512D02*
D03*
Y0517362D02*
D03*
Y0514213D02*
D03*
Y0511063D02*
D03*
Y0507913D02*
D03*
Y0504764D02*
D03*
Y0501614D02*
D03*
Y0498464D02*
D03*
Y0495315D02*
D03*
Y0492165D02*
D03*
Y0489016D02*
D03*
Y0485866D02*
D03*
Y0482716D02*
D03*
Y0479567D02*
D03*
Y0476417D02*
D03*
Y0473268D02*
D03*
Y0470118D02*
D03*
Y0466968D02*
D03*
Y0463819D02*
D03*
Y0460669D02*
D03*
X0653661Y0615D02*
D03*
Y061185D02*
D03*
Y0608701D02*
D03*
Y0605551D02*
D03*
Y0602402D02*
D03*
Y0599252D02*
D03*
Y0596102D02*
D03*
Y0592953D02*
D03*
Y0589803D02*
D03*
Y0586654D02*
D03*
Y0583504D02*
D03*
Y0580354D02*
D03*
Y0577205D02*
D03*
Y0574055D02*
D03*
Y0570905D02*
D03*
Y0567756D02*
D03*
Y0564606D02*
D03*
Y0561457D02*
D03*
Y0558307D02*
D03*
Y0555157D02*
D03*
Y0552008D02*
D03*
Y0548858D02*
D03*
Y0545709D02*
D03*
Y0542559D02*
D03*
Y0539409D02*
D03*
Y053626D02*
D03*
Y053311D02*
D03*
Y052996D02*
D03*
Y0526811D02*
D03*
Y0523661D02*
D03*
Y0520512D02*
D03*
Y0517362D02*
D03*
Y0514213D02*
D03*
Y0511063D02*
D03*
Y0507913D02*
D03*
Y0504764D02*
D03*
Y0501614D02*
D03*
Y0498464D02*
D03*
Y0495315D02*
D03*
Y0492165D02*
D03*
Y0489016D02*
D03*
Y0485866D02*
D03*
Y0482716D02*
D03*
Y0479567D02*
D03*
Y0476417D02*
D03*
Y0473268D02*
D03*
Y0470118D02*
D03*
Y0466968D02*
D03*
Y0463819D02*
D03*
Y0460669D02*
D03*
X0636339Y0615D02*
D03*
Y061185D02*
D03*
Y0608701D02*
D03*
Y0605551D02*
D03*
Y0602402D02*
D03*
Y0599252D02*
D03*
Y0596102D02*
D03*
Y0592953D02*
D03*
Y0589803D02*
D03*
Y0586654D02*
D03*
Y0583504D02*
D03*
Y0580354D02*
D03*
Y0577205D02*
D03*
Y0574055D02*
D03*
Y0570905D02*
D03*
Y0567756D02*
D03*
Y0564606D02*
D03*
Y0561457D02*
D03*
Y0558307D02*
D03*
Y0555157D02*
D03*
Y0552008D02*
D03*
Y0548858D02*
D03*
Y0545709D02*
D03*
Y0542559D02*
D03*
Y0539409D02*
D03*
Y053626D02*
D03*
Y053311D02*
D03*
Y052996D02*
D03*
Y0526811D02*
D03*
Y0523661D02*
D03*
Y0520512D02*
D03*
Y0517362D02*
D03*
Y0514213D02*
D03*
Y0511063D02*
D03*
Y0507913D02*
D03*
Y0504764D02*
D03*
Y0501614D02*
D03*
Y0498464D02*
D03*
Y0495315D02*
D03*
Y0492165D02*
D03*
Y0489016D02*
D03*
Y0485866D02*
D03*
Y0482716D02*
D03*
Y0479567D02*
D03*
Y0476417D02*
D03*
Y0473268D02*
D03*
Y0470118D02*
D03*
Y0466968D02*
D03*
Y0463819D02*
D03*
Y0460669D02*
D03*
D21*
X0788047Y0201398D02*
D03*
X0790016D02*
D03*
X0791984D02*
D03*
X0793953D02*
D03*
Y0213602D02*
D03*
X0791984D02*
D03*
X0790016D02*
D03*
X0788047D02*
D03*
X0773236Y0273284D02*
D03*
X0775205D02*
D03*
X0777173D02*
D03*
X0779142D02*
D03*
X078111D02*
D03*
X0783079D02*
D03*
X0785047D02*
D03*
X0787016D02*
D03*
X0788984D02*
D03*
X0790953D02*
D03*
X0792921D02*
D03*
X079489D02*
D03*
X0796858D02*
D03*
X0798827D02*
D03*
X0800795D02*
D03*
X0802764D02*
D03*
Y0308717D02*
D03*
X0800795D02*
D03*
X0798827D02*
D03*
X0796858D02*
D03*
X079489D02*
D03*
X0792921D02*
D03*
X0790953D02*
D03*
X0788984D02*
D03*
X0787016D02*
D03*
X0785047D02*
D03*
X0783079D02*
D03*
X078111D02*
D03*
X0779142D02*
D03*
X0777173D02*
D03*
X0775205D02*
D03*
X0773236D02*
D03*
D22*
X0797102Y0204547D02*
D03*
Y0206516D02*
D03*
Y0208484D02*
D03*
Y0210453D02*
D03*
X0784898D02*
D03*
Y0208484D02*
D03*
Y0206516D02*
D03*
Y0204547D02*
D03*
X0770284Y0305764D02*
D03*
Y0303795D02*
D03*
Y0301827D02*
D03*
Y0299858D02*
D03*
Y029789D02*
D03*
Y0295921D02*
D03*
Y0293953D02*
D03*
Y0291984D02*
D03*
Y0290016D02*
D03*
Y0288047D02*
D03*
Y0286079D02*
D03*
Y028411D02*
D03*
Y0282142D02*
D03*
Y0280173D02*
D03*
Y0278205D02*
D03*
Y0276236D02*
D03*
X0805717D02*
D03*
Y0278205D02*
D03*
Y0280173D02*
D03*
Y0282142D02*
D03*
Y028411D02*
D03*
Y0286079D02*
D03*
Y0288047D02*
D03*
Y0290016D02*
D03*
Y0291984D02*
D03*
Y0293953D02*
D03*
Y0295921D02*
D03*
Y029789D02*
D03*
Y0299858D02*
D03*
Y0301827D02*
D03*
Y0303795D02*
D03*
Y0305764D02*
D03*
D23*
X0791Y02075D02*
D03*
D24*
X0798185Y01875D02*
D03*
X0808815D02*
D03*
D25*
X07735Y0173268D02*
D03*
X07835D02*
D03*
X07935D02*
D03*
Y0156732D02*
D03*
X07835D02*
D03*
D26*
X07735D02*
D03*
D27*
X0758953Y03225D02*
D03*
X0753047D02*
D03*
X0753047Y03075D02*
D03*
X0758953D02*
D03*
X0753047Y02825D02*
D03*
X0758953D02*
D03*
X0850547Y028D02*
D03*
X0856453D02*
D03*
X0252047Y05375D02*
D03*
X0257953D02*
D03*
X0302047Y04875D02*
D03*
X0307953D02*
D03*
D28*
X0788Y0291D02*
D03*
D29*
X0805285Y0254785D02*
D03*
X0801109Y0250609D02*
D03*
X0815891Y0265391D02*
D03*
X0811715Y0261215D02*
D03*
D30*
X0889657Y0176991D02*
D03*
D31*
X0893833Y0181167D02*
D03*
X0898009Y0185343D02*
D03*
X0885343Y0198009D02*
D03*
X0876991Y0189657D02*
D03*
D32*
X0763145Y0254645D02*
D03*
X0759248Y0250748D02*
D03*
X0683051Y0165551D02*
D03*
X0686949Y0169449D02*
D03*
X0675551Y0173051D02*
D03*
X0679449Y0176949D02*
D03*
D33*
X0686991Y0185343D02*
D03*
D34*
X0691167Y0181167D02*
D03*
X0695342Y0176991D02*
D03*
X0708009Y0189657D02*
D03*
X0699657Y0198009D02*
D03*
D35*
X0512067Y0571339D02*
D03*
Y0568819D02*
D03*
Y0566299D02*
D03*
Y0563779D02*
D03*
Y056126D02*
D03*
Y055874D02*
D03*
Y055622D02*
D03*
Y0553701D02*
D03*
Y0551181D02*
D03*
Y0548661D02*
D03*
X0532933Y0571339D02*
D03*
Y0568819D02*
D03*
Y0566299D02*
D03*
Y0563779D02*
D03*
Y056126D02*
D03*
Y055874D02*
D03*
Y055622D02*
D03*
Y0553701D02*
D03*
Y0551181D02*
D03*
Y0548661D02*
D03*
X0449567Y0571339D02*
D03*
Y0568819D02*
D03*
Y0566299D02*
D03*
Y0563779D02*
D03*
Y056126D02*
D03*
Y055874D02*
D03*
Y055622D02*
D03*
Y0553701D02*
D03*
Y0551181D02*
D03*
Y0548661D02*
D03*
X0470433Y0571339D02*
D03*
Y0568819D02*
D03*
Y0566299D02*
D03*
Y0563779D02*
D03*
Y056126D02*
D03*
Y055874D02*
D03*
Y055622D02*
D03*
Y0553701D02*
D03*
Y0551181D02*
D03*
Y0548661D02*
D03*
X0387067Y0571339D02*
D03*
Y0568819D02*
D03*
Y0566299D02*
D03*
Y0563779D02*
D03*
Y056126D02*
D03*
Y055874D02*
D03*
Y055622D02*
D03*
Y0553701D02*
D03*
Y0551181D02*
D03*
Y0548661D02*
D03*
X0407933Y0571339D02*
D03*
Y0568819D02*
D03*
Y0566299D02*
D03*
Y0563779D02*
D03*
Y056126D02*
D03*
Y055874D02*
D03*
Y055622D02*
D03*
Y0553701D02*
D03*
Y0551181D02*
D03*
Y0548661D02*
D03*
D36*
X02041Y06325D02*
D03*
X02159D02*
D03*
D37*
X0922598Y0248858D02*
D03*
D38*
Y0242953D02*
D03*
Y0237047D02*
D03*
Y0231142D02*
D03*
D39*
X0947402Y024D02*
D03*
D40*
X09075Y0244685D02*
D03*
Y0255315D02*
D03*
X032Y0502815D02*
D03*
Y0492185D02*
D03*
D41*
X09475Y06459D02*
D03*
Y06341D02*
D03*
D42*
X0236339Y05225D02*
D03*
D43*
X0253661Y05025D02*
D03*
Y05225D02*
D03*
X0236339Y05025D02*
D03*
D44*
X027622Y0506339D02*
D03*
Y050378D02*
D03*
Y0501221D02*
D03*
Y0498661D02*
D03*
X030378Y0506339D02*
D03*
Y050378D02*
D03*
Y0501221D02*
D03*
Y0498661D02*
D03*
D45*
X0272835Y0469823D02*
D03*
Y0472382D02*
D03*
Y0474941D02*
D03*
Y04775D02*
D03*
Y0480059D02*
D03*
Y0482618D02*
D03*
Y0485177D02*
D03*
X025Y0469823D02*
D03*
Y0472382D02*
D03*
Y0474941D02*
D03*
Y04775D02*
D03*
Y0480059D02*
D03*
Y0482618D02*
D03*
Y0485177D02*
D03*
D46*
X0229035Y061D02*
D03*
X0245965D02*
D03*
D47*
X02125Y061665D02*
D03*
Y061335D02*
D03*
X017Y062665D02*
D03*
Y062335D02*
D03*
Y061665D02*
D03*
Y061335D02*
D03*
X0165Y060665D02*
D03*
Y060335D02*
D03*
X017Y060665D02*
D03*
Y060335D02*
D03*
X026Y060915D02*
D03*
Y060585D02*
D03*
D48*
X01925Y0615D02*
D03*
D49*
X02022Y06225D02*
D03*
Y06175D02*
D03*
Y06125D02*
D03*
Y06075D02*
D03*
X01828D02*
D03*
Y06125D02*
D03*
Y06175D02*
D03*
Y06225D02*
D03*
D50*
X02675Y05991D02*
D03*
Y06109D02*
D03*
D51*
X093165Y06375D02*
D03*
X092835D02*
D03*
X091915Y0685D02*
D03*
X091585D02*
D03*
X091915Y06775D02*
D03*
X091585D02*
D03*
X092915D02*
D03*
X092585D02*
D03*
X093915D02*
D03*
X093585D02*
D03*
X092165Y059D02*
D03*
X091835D02*
D03*
D52*
X0925Y0623465D02*
D03*
Y0606535D02*
D03*
D53*
X041874Y0677224D02*
D03*
X046126Y0662776D02*
D03*
D54*
X0415Y0677224D02*
D03*
X041126D02*
D03*
Y0667776D02*
D03*
X041874D02*
D03*
X0465Y0662776D02*
D03*
X046874D02*
D03*
Y0672224D02*
D03*
X046126D02*
D03*
D55*
X03825Y0701732D02*
D03*
X038624Y0693268D02*
D03*
X04075Y0701732D02*
D03*
X041124Y0693268D02*
D03*
X08925Y0709232D02*
D03*
X089624Y0700768D02*
D03*
X08575Y0709232D02*
D03*
X086124Y0700768D02*
D03*
X0875Y0709232D02*
D03*
X087874Y0700768D02*
D03*
D56*
X037876Y0693268D02*
D03*
X040376D02*
D03*
X088876Y0700768D02*
D03*
X085376D02*
D03*
X087126D02*
D03*
D57*
X0868169Y0734134D02*
D03*
X0876831D02*
D03*
X0868169Y0725866D02*
D03*
X0876831D02*
D03*
D58*
X0865413Y073D02*
D03*
X0879587D02*
D03*
D59*
X09116Y05825D02*
D03*
X09234D02*
D03*
D60*
X093Y06575D02*
D03*
D61*
X09375Y06478D02*
D03*
X09325D02*
D03*
X09275D02*
D03*
X09225D02*
D03*
Y06672D02*
D03*
X09275D02*
D03*
X09325D02*
D03*
X09375D02*
D03*
D62*
X0901732Y047D02*
D03*
X0893268Y046626D02*
D03*
X0901732Y04975D02*
D03*
X0893268Y049376D02*
D03*
X0901732Y0525D02*
D03*
X0893268Y052126D02*
D03*
X0901732Y05525D02*
D03*
X0893268Y054876D02*
D03*
D63*
Y047374D02*
D03*
Y050124D02*
D03*
Y052874D02*
D03*
Y055624D02*
D03*
D64*
X09215Y0537118D02*
D03*
Y0551882D02*
D03*
Y0509618D02*
D03*
Y0524382D02*
D03*
Y0482118D02*
D03*
Y0496882D02*
D03*
Y0454618D02*
D03*
Y0469382D02*
D03*
D67*
X02575Y07225D02*
D03*
X02375D02*
D03*
X093Y028D02*
D03*
X091D02*
D03*
X03075Y07225D02*
D03*
X02875D02*
D03*
X09475D02*
D03*
X09275D02*
D03*
D68*
X0176496Y07D02*
D03*
X0195Y0711811D02*
D03*
Y0688189D02*
D03*
D69*
X0836Y01475D02*
D03*
X0816Y01675D02*
D03*
Y01475D02*
D03*
X0836Y01675D02*
D03*
X0665Y013D02*
D03*
X0685Y011D02*
D03*
Y013D02*
D03*
X0665Y011D02*
D03*
X0895Y013D02*
D03*
X0915Y011D02*
D03*
Y013D02*
D03*
X0895Y011D02*
D03*
X04675Y02495D02*
D03*
X04475Y02695D02*
D03*
Y02495D02*
D03*
X04675Y02695D02*
D03*
X0434Y02495D02*
D03*
X0414Y02695D02*
D03*
Y02495D02*
D03*
X0434Y02695D02*
D03*
X04005Y02495D02*
D03*
X03805Y02695D02*
D03*
Y02495D02*
D03*
X04005Y02695D02*
D03*
X0367Y02495D02*
D03*
X0347Y02695D02*
D03*
Y02495D02*
D03*
X0367Y02695D02*
D03*
X03335Y02495D02*
D03*
X03135Y02695D02*
D03*
Y02495D02*
D03*
X03335Y02695D02*
D03*
X03Y02495D02*
D03*
X028Y02695D02*
D03*
Y02495D02*
D03*
X03Y02695D02*
D03*
X0365Y049D02*
D03*
X0345Y051D02*
D03*
Y049D02*
D03*
X0365Y051D02*
D03*
D70*
X0826Y01575D02*
D03*
X0675Y012D02*
D03*
X0905D02*
D03*
X04575Y02595D02*
D03*
X0424D02*
D03*
X03905D02*
D03*
X0357D02*
D03*
X03235D02*
D03*
X029D02*
D03*
X0355Y05D02*
D03*
D71*
X0830025Y0353142D02*
D03*
X0635025D02*
D03*
X0830025Y0723142D02*
D03*
X0635025D02*
D03*
D72*
X0645Y0624843D02*
D03*
X082005D02*
D03*
D73*
X0645Y0450827D02*
D03*
X082005D02*
D03*
D74*
X0816Y02175D02*
D03*
X0464Y0119D02*
D03*
X04305D02*
D03*
X0397D02*
D03*
X03635D02*
D03*
X033D02*
D03*
X02965D02*
D03*
X07325Y04225D02*
D03*
X06Y066D02*
D03*
X04825Y06925D02*
D03*
X0865Y058D02*
D03*
Y059D02*
D03*
Y06D02*
D03*
Y061D02*
D03*
Y062D02*
D03*
X0595Y0625D02*
D03*
Y0645D02*
D03*
Y0635D02*
D03*
Y0615D02*
D03*
Y0605D02*
D03*
Y0595D02*
D03*
Y0585D02*
D03*
Y0575D02*
D03*
Y0565D02*
D03*
D75*
X0816Y02075D02*
D03*
Y01975D02*
D03*
X07735Y014D02*
D03*
X07835D02*
D03*
X0454Y0119D02*
D03*
X0464Y0129D02*
D03*
X0454D02*
D03*
X0464Y0139D02*
D03*
X0454D02*
D03*
X0464Y0149D02*
D03*
X0454D02*
D03*
X0464Y0159D02*
D03*
X0454D02*
D03*
X0464Y0169D02*
D03*
X0454D02*
D03*
X0464Y0179D02*
D03*
X0454D02*
D03*
X0464Y0189D02*
D03*
X0454D02*
D03*
X0464Y0199D02*
D03*
X0454D02*
D03*
X0464Y0209D02*
D03*
X0454D02*
D03*
X04205Y0119D02*
D03*
X04305Y0129D02*
D03*
X04205D02*
D03*
X04305Y0139D02*
D03*
X04205D02*
D03*
X04305Y0149D02*
D03*
X04205D02*
D03*
X04305Y0159D02*
D03*
X04205D02*
D03*
X04305Y0169D02*
D03*
X04205D02*
D03*
X04305Y0179D02*
D03*
X04205D02*
D03*
X04305Y0189D02*
D03*
X04205D02*
D03*
X04305Y0199D02*
D03*
X04205D02*
D03*
X04305Y0209D02*
D03*
X04205D02*
D03*
X0387Y0119D02*
D03*
X0397Y0129D02*
D03*
X0387D02*
D03*
X0397Y0139D02*
D03*
X0387D02*
D03*
X0397Y0149D02*
D03*
X0387D02*
D03*
X0397Y0159D02*
D03*
X0387D02*
D03*
X0397Y0169D02*
D03*
X0387D02*
D03*
X0397Y0179D02*
D03*
X0387D02*
D03*
X0397Y0189D02*
D03*
X0387D02*
D03*
X0397Y0199D02*
D03*
X0387D02*
D03*
X0397Y0209D02*
D03*
X0387D02*
D03*
X03535Y0119D02*
D03*
X03635Y0129D02*
D03*
X03535D02*
D03*
X03635Y0139D02*
D03*
X03535D02*
D03*
X03635Y0149D02*
D03*
X03535D02*
D03*
X03635Y0159D02*
D03*
X03535D02*
D03*
X03635Y0169D02*
D03*
X03535D02*
D03*
X03635Y0179D02*
D03*
X03535D02*
D03*
X03635Y0189D02*
D03*
X03535D02*
D03*
X03635Y0199D02*
D03*
X03535D02*
D03*
X03635Y0209D02*
D03*
X03535D02*
D03*
X032Y0119D02*
D03*
X033Y0129D02*
D03*
X032D02*
D03*
X033Y0139D02*
D03*
X032D02*
D03*
X033Y0149D02*
D03*
X032D02*
D03*
X033Y0159D02*
D03*
X032D02*
D03*
X033Y0169D02*
D03*
X032D02*
D03*
X033Y0179D02*
D03*
X032D02*
D03*
X033Y0189D02*
D03*
X032D02*
D03*
X033Y0199D02*
D03*
X032D02*
D03*
X033Y0209D02*
D03*
X032D02*
D03*
X02865Y0119D02*
D03*
X02965Y0129D02*
D03*
X02865D02*
D03*
X02965Y0139D02*
D03*
X02865D02*
D03*
X02965Y0149D02*
D03*
X02865D02*
D03*
X02965Y0159D02*
D03*
X02865D02*
D03*
X02965Y0169D02*
D03*
X02865D02*
D03*
X02965Y0179D02*
D03*
X02865D02*
D03*
X02965Y0189D02*
D03*
X02865D02*
D03*
X02965Y0199D02*
D03*
X02865D02*
D03*
X02965Y0209D02*
D03*
X02865D02*
D03*
X06Y067D02*
D03*
Y068D02*
D03*
Y069D02*
D03*
Y07D02*
D03*
Y071D02*
D03*
X029Y0545D02*
D03*
X03D02*
D03*
X029Y05225D02*
D03*
X028D02*
D03*
X0435Y06925D02*
D03*
X04825Y06825D02*
D03*
Y06725D02*
D03*
X0455Y07325D02*
D03*
X0465Y07225D02*
D03*
Y07325D02*
D03*
X0475Y07225D02*
D03*
Y07325D02*
D03*
X0485Y07225D02*
D03*
Y07325D02*
D03*
X0495Y07225D02*
D03*
Y07325D02*
D03*
X0505Y07225D02*
D03*
Y07325D02*
D03*
X0515Y07225D02*
D03*
Y07325D02*
D03*
X0525Y07225D02*
D03*
Y07325D02*
D03*
X0535Y07225D02*
D03*
Y07325D02*
D03*
X0545Y07225D02*
D03*
Y07325D02*
D03*
X0555Y07225D02*
D03*
Y07325D02*
D03*
X0565Y07225D02*
D03*
Y07325D02*
D03*
X0575Y07225D02*
D03*
Y07325D02*
D03*
D76*
X07635Y014D02*
D03*
X0355Y0545D02*
D03*
X061Y0325D02*
D03*
X09Y0425D02*
D03*
X01375Y0565D02*
D03*
X053Y03D02*
D03*
X0315Y05775D02*
D03*
X0175Y0125D02*
D03*
X065Y02D02*
D03*
X028Y0545D02*
D03*
X03Y05225D02*
D03*
X0425Y06925D02*
D03*
X0455Y07225D02*
D03*
X0855Y045D02*
D03*
X0925Y02D02*
D03*
D77*
X0925295Y0378642D02*
D03*
X0899705D02*
D03*
Y0396358D02*
D03*
X0925295D02*
D03*
X0436358Y0732795D02*
D03*
Y0707205D02*
D03*
X0418642D02*
D03*
Y0732795D02*
D03*
D78*
X098Y072D02*
D03*
Y012D02*
D03*
X012D02*
D03*
Y072D02*
D03*
M02*
