%FSTAX25Y25*%
%MOIN*%
G70*
G01*
G75*
G04 Layer_Color=16711935*
%ADD10C,0.01575*%
G04:AMPARAMS|DCode=11|XSize=62.99mil|YSize=68.9mil|CornerRadius=15.75mil|HoleSize=0mil|Usage=FLASHONLY|Rotation=270.000|XOffset=0mil|YOffset=0mil|HoleType=Round|Shape=RoundedRectangle|*
%AMROUNDEDRECTD11*
21,1,0.06299,0.03740,0,0,270.0*
21,1,0.03150,0.06890,0,0,270.0*
1,1,0.03150,-0.01870,-0.01575*
1,1,0.03150,-0.01870,0.01575*
1,1,0.03150,0.01870,0.01575*
1,1,0.03150,0.01870,-0.01575*
%
%ADD11ROUNDEDRECTD11*%
%ADD12R,0.06890X0.06299*%
G04:AMPARAMS|DCode=13|XSize=35.43mil|YSize=31.5mil|CornerRadius=0mil|HoleSize=0mil|Usage=FLASHONLY|Rotation=225.000|XOffset=0mil|YOffset=0mil|HoleType=Round|Shape=Rectangle|*
%AMROTATEDRECTD13*
4,1,4,0.00139,0.02366,0.02366,0.00139,-0.00139,-0.02366,-0.02366,-0.00139,0.00139,0.02366,0.0*
%
%ADD13ROTATEDRECTD13*%

%ADD14R,0.03543X0.02756*%
%ADD15R,0.03543X0.03150*%
%ADD16R,0.03150X0.03543*%
%ADD17R,0.02756X0.03543*%
%ADD18R,0.05512X0.04331*%
G04:AMPARAMS|DCode=19|XSize=35.43mil|YSize=27.56mil|CornerRadius=0mil|HoleSize=0mil|Usage=FLASHONLY|Rotation=225.000|XOffset=0mil|YOffset=0mil|HoleType=Round|Shape=Rectangle|*
%AMROTATEDRECTD19*
4,1,4,0.00278,0.02227,0.02227,0.00278,-0.00278,-0.02227,-0.02227,-0.00278,0.00278,0.02227,0.0*
%
%ADD19ROTATEDRECTD19*%

%ADD20O,0.07874X0.01969*%
%ADD21O,0.00984X0.03150*%
%ADD22O,0.03150X0.00984*%
%ADD23R,0.07087X0.07087*%
%ADD24R,0.04331X0.06693*%
%ADD25R,0.07087X0.07874*%
G04:AMPARAMS|DCode=26|XSize=70.87mil|YSize=78.74mil|CornerRadius=17.72mil|HoleSize=0mil|Usage=FLASHONLY|Rotation=180.000|XOffset=0mil|YOffset=0mil|HoleType=Round|Shape=RoundedRectangle|*
%AMROUNDEDRECTD26*
21,1,0.07087,0.04331,0,0,180.0*
21,1,0.03543,0.07874,0,0,180.0*
1,1,0.03543,-0.01772,0.02165*
1,1,0.03543,0.01772,0.02165*
1,1,0.03543,0.01772,-0.02165*
1,1,0.03543,-0.01772,-0.02165*
%
%ADD26ROUNDEDRECTD26*%
%ADD27R,0.04331X0.05512*%
%ADD28R,0.29528X0.29528*%
G04:AMPARAMS|DCode=29|XSize=35.43mil|YSize=27.56mil|CornerRadius=0mil|HoleSize=0mil|Usage=FLASHONLY|Rotation=315.000|XOffset=0mil|YOffset=0mil|HoleType=Round|Shape=Rectangle|*
%AMROTATEDRECTD29*
4,1,4,-0.02227,0.00278,-0.00278,0.02227,0.02227,-0.00278,0.00278,-0.02227,-0.02227,0.00278,0.0*
%
%ADD29ROTATEDRECTD29*%

G04:AMPARAMS|DCode=30|XSize=39.37mil|YSize=61.02mil|CornerRadius=9.84mil|HoleSize=0mil|Usage=FLASHONLY|Rotation=225.000|XOffset=0mil|YOffset=0mil|HoleType=Round|Shape=RoundedRectangle|*
%AMROUNDEDRECTD30*
21,1,0.03937,0.04134,0,0,225.0*
21,1,0.01969,0.06102,0,0,225.0*
1,1,0.01969,-0.02158,0.00766*
1,1,0.01969,-0.00766,0.02158*
1,1,0.01969,0.02158,-0.00766*
1,1,0.01969,0.00766,-0.02158*
%
%ADD30ROUNDEDRECTD30*%
G04:AMPARAMS|DCode=31|XSize=39.37mil|YSize=61.02mil|CornerRadius=0mil|HoleSize=0mil|Usage=FLASHONLY|Rotation=225.000|XOffset=0mil|YOffset=0mil|HoleType=Round|Shape=Rectangle|*
%AMROTATEDRECTD31*
4,1,4,-0.00766,0.03550,0.03550,-0.00766,0.00766,-0.03550,-0.03550,0.00766,-0.00766,0.03550,0.0*
%
%ADD31ROTATEDRECTD31*%

G04:AMPARAMS|DCode=32|XSize=35.43mil|YSize=31.5mil|CornerRadius=0mil|HoleSize=0mil|Usage=FLASHONLY|Rotation=315.000|XOffset=0mil|YOffset=0mil|HoleType=Round|Shape=Rectangle|*
%AMROTATEDRECTD32*
4,1,4,-0.02366,0.00139,-0.00139,0.02366,0.02366,-0.00139,0.00139,-0.02366,-0.02366,0.00139,0.0*
%
%ADD32ROTATEDRECTD32*%

G04:AMPARAMS|DCode=33|XSize=39.37mil|YSize=61.02mil|CornerRadius=9.84mil|HoleSize=0mil|Usage=FLASHONLY|Rotation=135.000|XOffset=0mil|YOffset=0mil|HoleType=Round|Shape=RoundedRectangle|*
%AMROUNDEDRECTD33*
21,1,0.03937,0.04134,0,0,135.0*
21,1,0.01969,0.06102,0,0,135.0*
1,1,0.01969,0.00766,0.02158*
1,1,0.01969,0.02158,0.00766*
1,1,0.01969,-0.00766,-0.02158*
1,1,0.01969,-0.02158,-0.00766*
%
%ADD33ROUNDEDRECTD33*%
G04:AMPARAMS|DCode=34|XSize=39.37mil|YSize=61.02mil|CornerRadius=0mil|HoleSize=0mil|Usage=FLASHONLY|Rotation=135.000|XOffset=0mil|YOffset=0mil|HoleType=Round|Shape=Rectangle|*
%AMROTATEDRECTD34*
4,1,4,0.03550,0.00766,-0.00766,-0.03550,-0.03550,-0.00766,0.00766,0.03550,0.03550,0.00766,0.0*
%
%ADD34ROTATEDRECTD34*%

%ADD35O,0.07087X0.00984*%
%ADD36R,0.04400X0.10600*%
G04:AMPARAMS|DCode=37|XSize=39.37mil|YSize=72.84mil|CornerRadius=9.84mil|HoleSize=0mil|Usage=FLASHONLY|Rotation=90.000|XOffset=0mil|YOffset=0mil|HoleType=Round|Shape=RoundedRectangle|*
%AMROUNDEDRECTD37*
21,1,0.03937,0.05315,0,0,90.0*
21,1,0.01969,0.07284,0,0,90.0*
1,1,0.01969,0.02658,0.00984*
1,1,0.01969,0.02658,-0.00984*
1,1,0.01969,-0.02658,-0.00984*
1,1,0.01969,-0.02658,0.00984*
%
%ADD37ROUNDEDRECTD37*%
%ADD38R,0.07284X0.03937*%
%ADD39R,0.07284X0.13780*%
%ADD40R,0.06693X0.04331*%
%ADD41R,0.10600X0.04400*%
G04:AMPARAMS|DCode=42|XSize=70.87mil|YSize=78.74mil|CornerRadius=17.72mil|HoleSize=0mil|Usage=FLASHONLY|Rotation=90.000|XOffset=0mil|YOffset=0mil|HoleType=Round|Shape=RoundedRectangle|*
%AMROUNDEDRECTD42*
21,1,0.07087,0.04331,0,0,90.0*
21,1,0.03543,0.07874,0,0,90.0*
1,1,0.03543,0.02165,0.01772*
1,1,0.03543,0.02165,-0.01772*
1,1,0.03543,-0.02165,-0.01772*
1,1,0.03543,-0.02165,0.01772*
%
%ADD42ROUNDEDRECTD42*%
%ADD43R,0.07874X0.07087*%
%ADD44O,0.09449X0.01772*%
%ADD45O,0.07874X0.01378*%
%ADD46R,0.07874X0.23622*%
%ADD47R,0.02400X0.02200*%
%ADD48R,0.09400X0.12200*%
%ADD49R,0.07800X0.01814*%
%ADD50R,0.07100X0.04400*%
%ADD51R,0.02200X0.02400*%
%ADD52R,0.23622X0.07874*%
G04:AMPARAMS|DCode=53|XSize=27.56mil|YSize=51.18mil|CornerRadius=6.89mil|HoleSize=0mil|Usage=FLASHONLY|Rotation=0.000|XOffset=0mil|YOffset=0mil|HoleType=Round|Shape=RoundedRectangle|*
%AMROUNDEDRECTD53*
21,1,0.02756,0.03740,0,0,0.0*
21,1,0.01378,0.05118,0,0,0.0*
1,1,0.01378,0.00689,-0.01870*
1,1,0.01378,-0.00689,-0.01870*
1,1,0.01378,-0.00689,0.01870*
1,1,0.01378,0.00689,0.01870*
%
%ADD53ROUNDEDRECTD53*%
%ADD54R,0.02756X0.05118*%
%ADD55R,0.02756X0.07087*%
G04:AMPARAMS|DCode=56|XSize=27.56mil|YSize=70.87mil|CornerRadius=6.89mil|HoleSize=0mil|Usage=FLASHONLY|Rotation=180.000|XOffset=0mil|YOffset=0mil|HoleType=Round|Shape=RoundedRectangle|*
%AMROUNDEDRECTD56*
21,1,0.02756,0.05709,0,0,180.0*
21,1,0.01378,0.07087,0,0,180.0*
1,1,0.01378,-0.00689,0.02854*
1,1,0.01378,0.00689,0.02854*
1,1,0.01378,0.00689,-0.02854*
1,1,0.01378,-0.00689,-0.02854*
%
%ADD56ROUNDEDRECTD56*%
G04:AMPARAMS|DCode=57|XSize=31.5mil|YSize=15.75mil|CornerRadius=3.94mil|HoleSize=0mil|Usage=FLASHONLY|Rotation=180.000|XOffset=0mil|YOffset=0mil|HoleType=Round|Shape=RoundedRectangle|*
%AMROUNDEDRECTD57*
21,1,0.03150,0.00787,0,0,180.0*
21,1,0.02362,0.01575,0,0,180.0*
1,1,0.00787,-0.01181,0.00394*
1,1,0.00787,0.01181,0.00394*
1,1,0.00787,0.01181,-0.00394*
1,1,0.00787,-0.01181,-0.00394*
%
%ADD57ROUNDEDRECTD57*%
G04:AMPARAMS|DCode=58|XSize=31.5mil|YSize=15.75mil|CornerRadius=3.94mil|HoleSize=0mil|Usage=FLASHONLY|Rotation=90.000|XOffset=0mil|YOffset=0mil|HoleType=Round|Shape=RoundedRectangle|*
%AMROUNDEDRECTD58*
21,1,0.03150,0.00787,0,0,90.0*
21,1,0.02362,0.01575,0,0,90.0*
1,1,0.00787,0.00394,0.01181*
1,1,0.00787,0.00394,-0.01181*
1,1,0.00787,-0.00394,-0.01181*
1,1,0.00787,-0.00394,0.01181*
%
%ADD58ROUNDEDRECTD58*%
%ADD59R,0.04400X0.07100*%
%ADD60R,0.12200X0.09400*%
%ADD61R,0.01814X0.07800*%
%ADD62R,0.07087X0.02756*%
G04:AMPARAMS|DCode=63|XSize=27.56mil|YSize=70.87mil|CornerRadius=6.89mil|HoleSize=0mil|Usage=FLASHONLY|Rotation=90.000|XOffset=0mil|YOffset=0mil|HoleType=Round|Shape=RoundedRectangle|*
%AMROUNDEDRECTD63*
21,1,0.02756,0.05709,0,0,90.0*
21,1,0.01378,0.07087,0,0,90.0*
1,1,0.01378,0.02854,0.00689*
1,1,0.01378,0.02854,-0.00689*
1,1,0.01378,-0.02854,-0.00689*
1,1,0.01378,-0.02854,0.00689*
%
%ADD63ROUNDEDRECTD63*%
%ADD64R,0.06299X0.06890*%
%ADD65C,0.02500*%
%ADD66C,0.01000*%
%ADD67C,0.09400*%
%ADD68C,0.19685*%
%ADD69C,0.09449*%
%ADD70C,0.06800*%
%ADD71C,0.20000*%
%ADD72C,0.04724*%
%ADD73C,0.06000*%
%ADD74R,0.05906X0.05906*%
%ADD75C,0.05906*%
%ADD76R,0.05906X0.05906*%
%ADD77C,0.07087*%
%ADD78C,0.23622*%
%ADD79C,0.02598*%
%ADD80C,0.04000*%
%ADD81C,0.10200*%
%ADD82C,0.17779*%
%ADD83C,0.11087*%
%ADD84C,0.08200*%
%ADD85C,0.17000*%
%ADD86C,0.07150*%
%ADD87C,0.08724*%
%ADD88C,0.07543*%
%ADD89C,0.07937*%
%ADD90C,0.05299*%
%ADD91C,0.00984*%
%ADD92C,0.02362*%
%ADD93C,0.00600*%
%ADD94C,0.02000*%
%ADD95C,0.00787*%
%ADD96C,0.00800*%
%ADD97C,0.00300*%
%ADD98R,0.02165X0.05512*%
%ADD99R,0.05512X0.02165*%
G04:AMPARAMS|DCode=100|XSize=70.99mil|YSize=76.9mil|CornerRadius=17.75mil|HoleSize=0mil|Usage=FLASHONLY|Rotation=270.000|XOffset=0mil|YOffset=0mil|HoleType=Round|Shape=RoundedRectangle|*
%AMROUNDEDRECTD100*
21,1,0.07099,0.04140,0,0,270.0*
21,1,0.03550,0.07690,0,0,270.0*
1,1,0.03550,-0.02070,-0.01775*
1,1,0.03550,-0.02070,0.01775*
1,1,0.03550,0.02070,0.01775*
1,1,0.03550,0.02070,-0.01775*
%
%ADD100ROUNDEDRECTD100*%
%ADD101R,0.07690X0.07099*%
G04:AMPARAMS|DCode=102|XSize=43.43mil|YSize=39.5mil|CornerRadius=0mil|HoleSize=0mil|Usage=FLASHONLY|Rotation=225.000|XOffset=0mil|YOffset=0mil|HoleType=Round|Shape=Rectangle|*
%AMROTATEDRECTD102*
4,1,4,0.00139,0.02932,0.02932,0.00139,-0.00139,-0.02932,-0.02932,-0.00139,0.00139,0.02932,0.0*
%
%ADD102ROTATEDRECTD102*%

%ADD103R,0.04343X0.03556*%
%ADD104R,0.04343X0.03950*%
%ADD105R,0.03950X0.04343*%
%ADD106R,0.03556X0.04343*%
%ADD107R,0.06312X0.05131*%
G04:AMPARAMS|DCode=108|XSize=43.43mil|YSize=35.56mil|CornerRadius=0mil|HoleSize=0mil|Usage=FLASHONLY|Rotation=225.000|XOffset=0mil|YOffset=0mil|HoleType=Round|Shape=Rectangle|*
%AMROTATEDRECTD108*
4,1,4,0.00278,0.02793,0.02793,0.00278,-0.00278,-0.02793,-0.02793,-0.00278,0.00278,0.02793,0.0*
%
%ADD108ROTATEDRECTD108*%

%ADD109O,0.08674X0.02769*%
%ADD110O,0.01784X0.03950*%
%ADD111O,0.03950X0.01784*%
%ADD112R,0.07887X0.07887*%
%ADD113R,0.05131X0.07493*%
%ADD114R,0.07887X0.08674*%
G04:AMPARAMS|DCode=115|XSize=78.87mil|YSize=86.74mil|CornerRadius=19.72mil|HoleSize=0mil|Usage=FLASHONLY|Rotation=180.000|XOffset=0mil|YOffset=0mil|HoleType=Round|Shape=RoundedRectangle|*
%AMROUNDEDRECTD115*
21,1,0.07887,0.04731,0,0,180.0*
21,1,0.03943,0.08674,0,0,180.0*
1,1,0.03943,-0.01972,0.02365*
1,1,0.03943,0.01972,0.02365*
1,1,0.03943,0.01972,-0.02365*
1,1,0.03943,-0.01972,-0.02365*
%
%ADD115ROUNDEDRECTD115*%
%ADD116R,0.05131X0.06312*%
%ADD117R,0.30328X0.30328*%
G04:AMPARAMS|DCode=118|XSize=43.43mil|YSize=35.56mil|CornerRadius=0mil|HoleSize=0mil|Usage=FLASHONLY|Rotation=315.000|XOffset=0mil|YOffset=0mil|HoleType=Round|Shape=Rectangle|*
%AMROTATEDRECTD118*
4,1,4,-0.02793,0.00278,-0.00278,0.02793,0.02793,-0.00278,0.00278,-0.02793,-0.02793,0.00278,0.0*
%
%ADD118ROTATEDRECTD118*%

G04:AMPARAMS|DCode=119|XSize=47.37mil|YSize=69.02mil|CornerRadius=11.84mil|HoleSize=0mil|Usage=FLASHONLY|Rotation=225.000|XOffset=0mil|YOffset=0mil|HoleType=Round|Shape=RoundedRectangle|*
%AMROUNDEDRECTD119*
21,1,0.04737,0.04534,0,0,225.0*
21,1,0.02369,0.06902,0,0,225.0*
1,1,0.02369,-0.02440,0.00766*
1,1,0.02369,-0.00766,0.02440*
1,1,0.02369,0.02440,-0.00766*
1,1,0.02369,0.00766,-0.02440*
%
%ADD119ROUNDEDRECTD119*%
G04:AMPARAMS|DCode=120|XSize=47.37mil|YSize=69.02mil|CornerRadius=0mil|HoleSize=0mil|Usage=FLASHONLY|Rotation=225.000|XOffset=0mil|YOffset=0mil|HoleType=Round|Shape=Rectangle|*
%AMROTATEDRECTD120*
4,1,4,-0.00766,0.04115,0.04115,-0.00766,0.00766,-0.04115,-0.04115,0.00766,-0.00766,0.04115,0.0*
%
%ADD120ROTATEDRECTD120*%

G04:AMPARAMS|DCode=121|XSize=43.43mil|YSize=39.5mil|CornerRadius=0mil|HoleSize=0mil|Usage=FLASHONLY|Rotation=315.000|XOffset=0mil|YOffset=0mil|HoleType=Round|Shape=Rectangle|*
%AMROTATEDRECTD121*
4,1,4,-0.02932,0.00139,-0.00139,0.02932,0.02932,-0.00139,0.00139,-0.02932,-0.02932,0.00139,0.0*
%
%ADD121ROTATEDRECTD121*%

G04:AMPARAMS|DCode=122|XSize=47.37mil|YSize=69.02mil|CornerRadius=11.84mil|HoleSize=0mil|Usage=FLASHONLY|Rotation=135.000|XOffset=0mil|YOffset=0mil|HoleType=Round|Shape=RoundedRectangle|*
%AMROUNDEDRECTD122*
21,1,0.04737,0.04534,0,0,135.0*
21,1,0.02369,0.06902,0,0,135.0*
1,1,0.02369,0.00766,0.02440*
1,1,0.02369,0.02440,0.00766*
1,1,0.02369,-0.00766,-0.02440*
1,1,0.02369,-0.02440,-0.00766*
%
%ADD122ROUNDEDRECTD122*%
G04:AMPARAMS|DCode=123|XSize=47.37mil|YSize=69.02mil|CornerRadius=0mil|HoleSize=0mil|Usage=FLASHONLY|Rotation=135.000|XOffset=0mil|YOffset=0mil|HoleType=Round|Shape=Rectangle|*
%AMROTATEDRECTD123*
4,1,4,0.04115,0.00766,-0.00766,-0.04115,-0.04115,-0.00766,0.00766,0.04115,0.04115,0.00766,0.0*
%
%ADD123ROTATEDRECTD123*%

%ADD124O,0.07887X0.01784*%
%ADD125R,0.05200X0.11400*%
G04:AMPARAMS|DCode=126|XSize=47.37mil|YSize=80.83mil|CornerRadius=11.84mil|HoleSize=0mil|Usage=FLASHONLY|Rotation=90.000|XOffset=0mil|YOffset=0mil|HoleType=Round|Shape=RoundedRectangle|*
%AMROUNDEDRECTD126*
21,1,0.04737,0.05715,0,0,90.0*
21,1,0.02369,0.08083,0,0,90.0*
1,1,0.02369,0.02858,0.01184*
1,1,0.02369,0.02858,-0.01184*
1,1,0.02369,-0.02858,-0.01184*
1,1,0.02369,-0.02858,0.01184*
%
%ADD126ROUNDEDRECTD126*%
%ADD127R,0.08083X0.04737*%
%ADD128R,0.08083X0.14579*%
%ADD129R,0.07493X0.05131*%
%ADD130R,0.11400X0.05200*%
G04:AMPARAMS|DCode=131|XSize=78.87mil|YSize=86.74mil|CornerRadius=19.72mil|HoleSize=0mil|Usage=FLASHONLY|Rotation=90.000|XOffset=0mil|YOffset=0mil|HoleType=Round|Shape=RoundedRectangle|*
%AMROUNDEDRECTD131*
21,1,0.07887,0.04731,0,0,90.0*
21,1,0.03943,0.08674,0,0,90.0*
1,1,0.03943,0.02365,0.01972*
1,1,0.03943,0.02365,-0.01972*
1,1,0.03943,-0.02365,-0.01972*
1,1,0.03943,-0.02365,0.01972*
%
%ADD131ROUNDEDRECTD131*%
%ADD132R,0.08674X0.07887*%
%ADD133O,0.10249X0.02572*%
%ADD134O,0.08674X0.02178*%
%ADD135R,0.08674X0.24422*%
%ADD136R,0.03200X0.03000*%
%ADD137R,0.10200X0.13000*%
%ADD138R,0.08600X0.02614*%
%ADD139R,0.07900X0.05200*%
%ADD140R,0.03000X0.03200*%
%ADD141R,0.24422X0.08674*%
G04:AMPARAMS|DCode=142|XSize=35.56mil|YSize=59.18mil|CornerRadius=8.89mil|HoleSize=0mil|Usage=FLASHONLY|Rotation=0.000|XOffset=0mil|YOffset=0mil|HoleType=Round|Shape=RoundedRectangle|*
%AMROUNDEDRECTD142*
21,1,0.03556,0.04140,0,0,0.0*
21,1,0.01778,0.05918,0,0,0.0*
1,1,0.01778,0.00889,-0.02070*
1,1,0.01778,-0.00889,-0.02070*
1,1,0.01778,-0.00889,0.02070*
1,1,0.01778,0.00889,0.02070*
%
%ADD142ROUNDEDRECTD142*%
%ADD143R,0.03556X0.05918*%
%ADD144R,0.03556X0.07887*%
G04:AMPARAMS|DCode=145|XSize=35.56mil|YSize=78.87mil|CornerRadius=8.89mil|HoleSize=0mil|Usage=FLASHONLY|Rotation=180.000|XOffset=0mil|YOffset=0mil|HoleType=Round|Shape=RoundedRectangle|*
%AMROUNDEDRECTD145*
21,1,0.03556,0.06109,0,0,180.0*
21,1,0.01778,0.07887,0,0,180.0*
1,1,0.01778,-0.00889,0.03054*
1,1,0.01778,0.00889,0.03054*
1,1,0.01778,0.00889,-0.03054*
1,1,0.01778,-0.00889,-0.03054*
%
%ADD145ROUNDEDRECTD145*%
G04:AMPARAMS|DCode=146|XSize=39.5mil|YSize=23.75mil|CornerRadius=5.94mil|HoleSize=0mil|Usage=FLASHONLY|Rotation=180.000|XOffset=0mil|YOffset=0mil|HoleType=Round|Shape=RoundedRectangle|*
%AMROUNDEDRECTD146*
21,1,0.03950,0.01187,0,0,180.0*
21,1,0.02762,0.02375,0,0,180.0*
1,1,0.01187,-0.01381,0.00594*
1,1,0.01187,0.01381,0.00594*
1,1,0.01187,0.01381,-0.00594*
1,1,0.01187,-0.01381,-0.00594*
%
%ADD146ROUNDEDRECTD146*%
G04:AMPARAMS|DCode=147|XSize=39.5mil|YSize=23.75mil|CornerRadius=5.94mil|HoleSize=0mil|Usage=FLASHONLY|Rotation=90.000|XOffset=0mil|YOffset=0mil|HoleType=Round|Shape=RoundedRectangle|*
%AMROUNDEDRECTD147*
21,1,0.03950,0.01187,0,0,90.0*
21,1,0.02762,0.02375,0,0,90.0*
1,1,0.01187,0.00594,0.01381*
1,1,0.01187,0.00594,-0.01381*
1,1,0.01187,-0.00594,-0.01381*
1,1,0.01187,-0.00594,0.01381*
%
%ADD147ROUNDEDRECTD147*%
%ADD148R,0.05200X0.07900*%
%ADD149R,0.13000X0.10200*%
%ADD150R,0.02614X0.08600*%
%ADD151R,0.07887X0.03556*%
G04:AMPARAMS|DCode=152|XSize=35.56mil|YSize=78.87mil|CornerRadius=8.89mil|HoleSize=0mil|Usage=FLASHONLY|Rotation=90.000|XOffset=0mil|YOffset=0mil|HoleType=Round|Shape=RoundedRectangle|*
%AMROUNDEDRECTD152*
21,1,0.03556,0.06109,0,0,90.0*
21,1,0.01778,0.07887,0,0,90.0*
1,1,0.01778,0.03054,0.00889*
1,1,0.01778,0.03054,-0.00889*
1,1,0.01778,-0.03054,-0.00889*
1,1,0.01778,-0.03054,0.00889*
%
%ADD152ROUNDEDRECTD152*%
%ADD153R,0.07099X0.07690*%
%ADD154C,0.20485*%
%ADD155C,0.10249*%
%ADD156C,0.07600*%
%ADD157C,0.20800*%
%ADD158C,0.05524*%
%ADD159R,0.06706X0.06706*%
%ADD160C,0.06706*%
%ADD161R,0.06706X0.06706*%
%ADD162C,0.07887*%
%ADD163C,0.24422*%
%ADD164C,0.03398*%
D65*
X098Y01D02*
G03*
X1Y012I0J002D01*
G01*
Y072D02*
G03*
X098Y074I-002J0D01*
G01*
X012D02*
G03*
X01Y072I0J-002D01*
G01*
Y012D02*
G03*
X012Y01I002J0D01*
G01*
X1Y057D02*
Y072D01*
Y012D02*
Y027D01*
X01Y071D02*
Y072D01*
X1Y027D02*
Y057D01*
X0657598Y0736654D02*
X0657992Y073626D01*
X0619803Y0736654D02*
X0657598D01*
X015Y01D02*
Y045D01*
Y01D02*
X06D01*
Y045D01*
X015D02*
X06D01*
X068Y01D02*
X098D01*
X1Y012D02*
Y057D01*
X012Y01D02*
X068D01*
X012Y074D02*
X098D01*
X01Y012D02*
Y071D01*
D66*
X0139Y045D02*
X0145D01*
X0121Y01D02*
X0141D01*
X014Y0294494D02*
Y045D01*
Y01D02*
Y0252306D01*
X0138Y0444D02*
X014Y045D01*
X0142Y0444D01*
X014Y01D02*
X0142Y0106D01*
X0138D02*
X014Y01D01*
X06Y0074D02*
Y0095D01*
X015Y0074D02*
Y0095D01*
X0394494Y0075D02*
X06D01*
X015D02*
X0352306D01*
X0594Y0077D02*
X06Y0075D01*
X0594Y0073D02*
X06Y0075D01*
X015D02*
X0156Y0073D01*
X015Y0075D02*
X0156Y0077D01*
X0069Y074D02*
X0115D01*
X0069Y0135D02*
X01D01*
X007Y0456994D02*
Y074D01*
Y0135D02*
Y0414806D01*
X0068Y0734D02*
X007Y074D01*
X0072Y0734D01*
X007Y0135D02*
X0072Y0141D01*
X0068D02*
X007Y0135D01*
X1Y0054D02*
Y01D01*
X01Y0054D02*
Y01D01*
X0569494Y0055D02*
X1D01*
X01D02*
X0527306D01*
X0994Y0057D02*
X1Y0055D01*
X0994Y0053D02*
X1Y0055D01*
X01D02*
X0106Y0053D01*
X01Y0055D02*
X0106Y0057D01*
X0900689Y0375689D02*
Y0399311D01*
Y0375689D02*
X0924311D01*
Y0399311D01*
X0900689D02*
X0924311D01*
X0415689Y0708189D02*
X0439311D01*
Y0731811D01*
X0415689D02*
X0439311D01*
X0415689Y0708189D02*
Y0731811D01*
X0863445Y0726063D02*
Y0733937D01*
X0881555D01*
Y0726063D02*
Y0733937D01*
X0863445Y0726063D02*
X0881555D01*
D93*
X0191192Y062485D02*
G03*
X0193808Y062485I0001308J0D01*
G01*
X093985Y0658808D02*
G03*
X093985Y0656192I0J-0001308D01*
G01*
X02033Y06272D02*
Y06378D01*
Y06272D02*
X02167D01*
Y06378D01*
X02033D02*
X02167D01*
X09422Y06467D02*
X09528D01*
X09422Y06333D02*
Y06467D01*
Y06333D02*
X09528D01*
Y06467D01*
X0225689Y0598189D02*
X0249311D01*
X0225689D02*
Y0621811D01*
X0249311D01*
Y0598189D02*
Y0621811D01*
X02113Y061715D02*
X02137D01*
X02113Y061285D02*
Y061715D01*
Y061285D02*
X02137D01*
Y061715D01*
X018465Y062485D02*
X020035D01*
Y060515D02*
Y062485D01*
X018465Y060515D02*
X020035D01*
X018465D02*
Y062485D01*
X01688Y062715D02*
X01712D01*
X01688Y062285D02*
Y062715D01*
Y062285D02*
X01712D01*
Y062715D01*
X01688Y061715D02*
X01712D01*
X01688Y061285D02*
Y061715D01*
Y061285D02*
X01712D01*
Y061715D01*
X01638Y060715D02*
X01662D01*
X01638Y060285D02*
Y060715D01*
Y060285D02*
X01662D01*
Y060715D01*
X01688D02*
X01712D01*
X01688Y060285D02*
Y060715D01*
Y060285D02*
X01712D01*
Y060715D01*
X02588Y060965D02*
X02612D01*
X02588Y060535D02*
Y060965D01*
Y060535D02*
X02612D01*
Y060965D01*
X027105Y05983D02*
Y06117D01*
X026395Y05983D02*
X027105D01*
X026395D02*
Y06117D01*
X027105D01*
X093215Y06363D02*
Y06387D01*
X092785D02*
X093215D01*
X092785Y06363D02*
Y06387D01*
Y06363D02*
X093215D01*
X0913189Y0603189D02*
Y0626811D01*
X0936811D01*
Y0603189D02*
Y0626811D01*
X0913189Y0603189D02*
X0936811D01*
X091965Y06838D02*
Y06862D01*
X091535D02*
X091965D01*
X091535Y06838D02*
Y06862D01*
Y06838D02*
X091965D01*
Y06763D02*
Y06787D01*
X091535D02*
X091965D01*
X091535Y06763D02*
Y06787D01*
Y06763D02*
X091965D01*
X092965D02*
Y06787D01*
X092535D02*
X092965D01*
X092535Y06763D02*
Y06787D01*
Y06763D02*
X092965D01*
X093965D02*
Y06787D01*
X093535D02*
X093965D01*
X093535Y06763D02*
Y06787D01*
Y06763D02*
X093965D01*
X09108Y057895D02*
X09242D01*
X09108D02*
Y058605D01*
X09242D01*
Y057895D02*
Y058605D01*
X092215Y05888D02*
Y05912D01*
X091785D02*
X092215D01*
X091785Y05888D02*
Y05912D01*
Y05888D02*
X092215D01*
X093985Y064965D02*
Y066535D01*
X092015Y064965D02*
X093985D01*
X092015D02*
Y066535D01*
X093985D01*
X0138601Y0253906D02*
X0137601Y0254906D01*
Y0256905D01*
X0138601Y0257905D01*
X01396D01*
X01406Y0256905D01*
Y0255906D01*
Y0256905D01*
X01416Y0257905D01*
X0142599D01*
X0143599Y0256905D01*
Y0254906D01*
X0142599Y0253906D01*
X0137601Y0263903D02*
Y0259904D01*
X01406D01*
X01396Y0261904D01*
Y0262903D01*
X01406Y0263903D01*
X0142599D01*
X0143599Y0262903D01*
Y0260904D01*
X0142599Y0259904D01*
X0138601Y0265902D02*
X0137601Y0266902D01*
Y0268901D01*
X0138601Y0269901D01*
X0142599D01*
X0143599Y0268901D01*
Y0266902D01*
X0142599Y0265902D01*
X0138601D01*
Y0271901D02*
X0137601Y02729D01*
Y02749D01*
X0138601Y0275899D01*
X0142599D01*
X0143599Y02749D01*
Y02729D01*
X0142599Y0271901D01*
X0138601D01*
X0143599Y0277899D02*
X0142599D01*
Y0278898D01*
X0143599D01*
Y0277899D01*
X0138601Y0282897D02*
X0137601Y0283897D01*
Y0285896D01*
X0138601Y0286896D01*
X0142599D01*
X0143599Y0285896D01*
Y0283897D01*
X0142599Y0282897D01*
X0138601D01*
Y0288895D02*
X0137601Y0289895D01*
Y0291894D01*
X0138601Y0292894D01*
X0142599D01*
X0143599Y0291894D01*
Y0289895D01*
X0142599Y0288895D01*
X0138601D01*
X0356905Y0071401D02*
Y0077399D01*
X0353906Y00744D01*
X0357905D01*
X0363903Y0077399D02*
X0359904D01*
Y00744D01*
X0361904Y00754D01*
X0362903D01*
X0363903Y00744D01*
Y0072401D01*
X0362903Y0071401D01*
X0360904D01*
X0359904Y0072401D01*
X0365902Y0076399D02*
X0366902Y0077399D01*
X0368901D01*
X0369901Y0076399D01*
Y0072401D01*
X0368901Y0071401D01*
X0366902D01*
X0365902Y0072401D01*
Y0076399D01*
X0371901D02*
X03729Y0077399D01*
X03749D01*
X0375899Y0076399D01*
Y0072401D01*
X03749Y0071401D01*
X03729D01*
X0371901Y0072401D01*
Y0076399D01*
X0377899Y0071401D02*
Y0072401D01*
X0378898D01*
Y0071401D01*
X0377899D01*
X0382897Y0076399D02*
X0383897Y0077399D01*
X0385896D01*
X0386896Y0076399D01*
Y0072401D01*
X0385896Y0071401D01*
X0383897D01*
X0382897Y0072401D01*
Y0076399D01*
X0388895D02*
X0389895Y0077399D01*
X0391894D01*
X0392894Y0076399D01*
Y0072401D01*
X0391894Y0071401D01*
X0389895D01*
X0388895Y0072401D01*
Y0076399D01*
X0067601Y0420405D02*
X0068601Y0418406D01*
X00706Y0416406D01*
X0072599D01*
X0073599Y0417406D01*
Y0419405D01*
X0072599Y0420405D01*
X00716D01*
X00706Y0419405D01*
Y0416406D01*
X0068601Y0422404D02*
X0067601Y0423404D01*
Y0425403D01*
X0068601Y0426403D01*
X0072599D01*
X0073599Y0425403D01*
Y0423404D01*
X0072599Y0422404D01*
X0068601D01*
X0067601Y0432401D02*
Y0428402D01*
X00706D01*
X00696Y0430402D01*
Y0431401D01*
X00706Y0432401D01*
X0072599D01*
X0073599Y0431401D01*
Y0429402D01*
X0072599Y0428402D01*
X0068601Y0434401D02*
X0067601Y04354D01*
Y0437399D01*
X0068601Y0438399D01*
X0072599D01*
X0073599Y0437399D01*
Y04354D01*
X0072599Y0434401D01*
X0068601D01*
X0073599Y0440399D02*
X0072599D01*
Y0441398D01*
X0073599D01*
Y0440399D01*
X0068601Y0445397D02*
X0067601Y0446397D01*
Y0448396D01*
X0068601Y0449396D01*
X0072599D01*
X0073599Y0448396D01*
Y0446397D01*
X0072599Y0445397D01*
X0068601D01*
Y0451395D02*
X0067601Y0452395D01*
Y0454394D01*
X0068601Y0455394D01*
X0072599D01*
X0073599Y0454394D01*
Y0452395D01*
X0072599Y0451395D01*
X0068601D01*
X0528906Y0052401D02*
X0529906Y0051401D01*
X0531905D01*
X0532905Y0052401D01*
Y0056399D01*
X0531905Y0057399D01*
X0529906D01*
X0528906Y0056399D01*
Y00554D01*
X0529906Y00544D01*
X0532905D01*
X0534904Y0056399D02*
X0535904Y0057399D01*
X0537903D01*
X0538903Y0056399D01*
Y0052401D01*
X0537903Y0051401D01*
X0535904D01*
X0534904Y0052401D01*
Y0056399D01*
X0540902D02*
X0541902Y0057399D01*
X0543901D01*
X0544901Y0056399D01*
Y0052401D01*
X0543901Y0051401D01*
X0541902D01*
X0540902Y0052401D01*
Y0056399D01*
X0546901D02*
X05479Y0057399D01*
X0549899D01*
X0550899Y0056399D01*
Y0052401D01*
X0549899Y0051401D01*
X05479D01*
X0546901Y0052401D01*
Y0056399D01*
X0552899Y0051401D02*
Y0052401D01*
X0553898D01*
Y0051401D01*
X0552899D01*
X0557897Y0056399D02*
X0558897Y0057399D01*
X0560896D01*
X0561896Y0056399D01*
Y0052401D01*
X0560896Y0051401D01*
X0558897D01*
X0557897Y0052401D01*
Y0056399D01*
X0563895D02*
X0564895Y0057399D01*
X0566894D01*
X0567894Y0056399D01*
Y0052401D01*
X0566894Y0051401D01*
X0564895D01*
X0563895Y0052401D01*
Y0056399D01*
D97*
X0213332Y0637498D02*
X021D01*
Y0634999D01*
X0211666Y0635832D01*
X0212499D01*
X0213332Y0634999D01*
Y0633333D01*
X0212499Y06325D01*
X0210833D01*
X021Y0633333D01*
X0214998D02*
X0215831Y06325D01*
X0217498D01*
X0218331Y0633333D01*
Y0636665D01*
X0217498Y0637498D01*
X0215831D01*
X0214998Y0636665D01*
Y0635832D01*
X0215831Y0634999D01*
X0218331D01*
X0952498Y0636668D02*
Y064D01*
X0949999D01*
X0950832Y0638334D01*
Y0637501D01*
X0949999Y0636668D01*
X0948333D01*
X09475Y0637501D01*
Y0639167D01*
X0948333Y064D01*
Y0635002D02*
X09475Y0634169D01*
Y0632502D01*
X0948333Y0631669D01*
X0951665D01*
X0952498Y0632502D01*
Y0634169D01*
X0951665Y0635002D01*
X0950832D01*
X0949999Y0634169D01*
Y0631669D01*
X02375Y061D02*
X0235834D01*
X0236667D01*
Y0605002D01*
X02375Y0605835D01*
X0233335Y0605002D02*
X0230002D01*
Y0605835D01*
X0233335Y0609167D01*
Y061D01*
X0228336Y0605002D02*
X0225004D01*
Y0605835D01*
X0228336Y0609167D01*
Y061D01*
X0223338D02*
Y0609167D01*
X0222505D01*
Y061D01*
X0223338D01*
X0219173D02*
X0217507D01*
X0218339D01*
Y0605002D01*
X0219173Y0605835D01*
X0211675Y0605002D02*
X0213341Y0605835D01*
X0215007Y0607501D01*
Y0609167D01*
X0214174Y061D01*
X0212508D01*
X0211675Y0609167D01*
Y0608334D01*
X0212508Y0607501D01*
X0215007D01*
X0206677Y0605002D02*
X0210009D01*
Y0607501D01*
X0208343Y0606668D01*
X020751D01*
X0206677Y0607501D01*
Y0609167D01*
X020751Y061D01*
X0209176D01*
X0210009Y0609167D01*
X0202511Y061D02*
Y0605002D01*
X0205011Y0607501D01*
X0201678D01*
X02125Y0611668D02*
Y0615D01*
X0215832Y0611668D01*
X0216665D01*
X0217498Y0612501D01*
Y0614167D01*
X0216665Y0615D01*
X02125Y0606669D02*
Y0610002D01*
X0215832Y0606669D01*
X0216665D01*
X0217498Y0607502D01*
Y0609169D01*
X0216665Y0610002D01*
X01925Y0615D02*
X0194166D01*
X0193333D01*
Y0619998D01*
X01925Y0619165D01*
X0196665D02*
X0197498Y0619998D01*
X0199164D01*
X0199998Y0619165D01*
Y0615833D01*
X0199164Y0615D01*
X0197498D01*
X0196665Y0615833D01*
Y0619165D01*
X0201664D02*
X0202497Y0619998D01*
X0204163D01*
X0204996Y0619165D01*
Y0615833D01*
X0204163Y0615D01*
X0202497D01*
X0201664Y0615833D01*
Y0619165D01*
X017Y0621668D02*
Y0625D01*
X0173332Y0621668D01*
X0174165D01*
X0174998Y0622501D01*
Y0624167D01*
X0174165Y0625D01*
X017Y0616669D02*
Y0620002D01*
X0173332Y0616669D01*
X0174165D01*
X0174998Y0617502D01*
Y0619169D01*
X0174165Y0620002D01*
X017Y0611668D02*
Y0615D01*
X0173332Y0611668D01*
X0174165D01*
X0174998Y0612501D01*
Y0614167D01*
X0174165Y0615D01*
X017Y0606669D02*
Y0610002D01*
X0173332Y0606669D01*
X0174165D01*
X0174998Y0607502D01*
Y0609169D01*
X0174165Y0610002D01*
X0165Y0601668D02*
Y0605D01*
X0168332Y0601668D01*
X0169165D01*
X0169998Y0602501D01*
Y0604167D01*
X0169165Y0605D01*
X0165Y0596669D02*
Y0600002D01*
X0168332Y0596669D01*
X0169165D01*
X0169998Y0597502D01*
Y0599169D01*
X0169165Y0600002D01*
X017Y0601668D02*
Y0605D01*
X0173332Y0601668D01*
X0174165D01*
X0174998Y0602501D01*
Y0604167D01*
X0174165Y0605D01*
X017Y0596669D02*
Y0600002D01*
X0173332Y0596669D01*
X0174165D01*
X0174998Y0597502D01*
Y0599169D01*
X0174165Y0600002D01*
X026Y0604168D02*
Y06075D01*
X0263332Y0604168D01*
X0264165D01*
X0264998Y0605001D01*
Y0606667D01*
X0264165Y06075D01*
X026Y0599169D02*
Y0602502D01*
X0263332Y0599169D01*
X0264165D01*
X0264998Y0600002D01*
Y0601669D01*
X0264165Y0602502D01*
X0271665Y0605D02*
X0272498Y0604167D01*
Y0602501D01*
X0271665Y0601668D01*
X0270832D01*
X0269999Y0602501D01*
Y0603334D01*
Y0602501D01*
X0269166Y0601668D01*
X0268333D01*
X02675Y0602501D01*
Y0604167D01*
X0268333Y0605D01*
X0271665Y0600002D02*
X0272498Y0599169D01*
Y0597502D01*
X0271665Y0596669D01*
X0268333D01*
X02675Y0597502D01*
Y0599169D01*
X0268333Y0600002D01*
X0271665D01*
X0926668Y06375D02*
X093D01*
X0926668Y0634168D01*
Y0633335D01*
X0927501Y0632502D01*
X0929167D01*
X093Y0633335D01*
X0921669Y06375D02*
X0925002D01*
X0921669Y0634168D01*
Y0633335D01*
X0922502Y0632502D01*
X0924169D01*
X0925002Y0633335D01*
X0925Y0615D02*
Y0616666D01*
Y0615833D01*
X0920002D01*
X0920835Y0615D01*
X0920002Y0619165D02*
Y0622498D01*
X0920835D01*
X0924167Y0619165D01*
X0925D01*
X0920002Y0624164D02*
Y0627496D01*
X0920835D01*
X0924167Y0624164D01*
X0925D01*
Y0629162D02*
X0924167D01*
Y0629995D01*
X0925D01*
Y0629162D01*
Y0633327D02*
Y0634994D01*
Y0634161D01*
X0920002D01*
X0920835Y0633327D01*
X0920002Y0640825D02*
X0920835Y0639159D01*
X0922501Y0637493D01*
X0924167D01*
X0925Y0638326D01*
Y0639992D01*
X0924167Y0640825D01*
X0923334D01*
X0922501Y0639992D01*
Y0637493D01*
X0920002Y0645823D02*
Y0642491D01*
X0922501D01*
X0921668Y0644157D01*
Y064499D01*
X0922501Y0645823D01*
X0924167D01*
X0925Y064499D01*
Y0643324D01*
X0924167Y0642491D01*
X0925Y0649989D02*
X0920002D01*
X0922501Y064749D01*
Y0650822D01*
X0914168Y0685D02*
X09175D01*
X0914168Y0681668D01*
Y0680835D01*
X0915001Y0680002D01*
X0916667D01*
X09175Y0680835D01*
X0909169Y0685D02*
X0912502D01*
X0909169Y0681668D01*
Y0680835D01*
X0910002Y0680002D01*
X0911669D01*
X0912502Y0680835D01*
X0914168Y06775D02*
X09175D01*
X0914168Y0674168D01*
Y0673335D01*
X0915001Y0672502D01*
X0916667D01*
X09175Y0673335D01*
X0909169Y06775D02*
X0912502D01*
X0909169Y0674168D01*
Y0673335D01*
X0910002Y0672502D01*
X0911669D01*
X0912502Y0673335D01*
X0924168Y06775D02*
X09275D01*
X0924168Y0674168D01*
Y0673335D01*
X0925001Y0672502D01*
X0926667D01*
X09275Y0673335D01*
X0919169Y06775D02*
X0922502D01*
X0919169Y0674168D01*
Y0673335D01*
X0920002Y0672502D01*
X0921669D01*
X0922502Y0673335D01*
X0934168Y06775D02*
X09375D01*
X0934168Y0674168D01*
Y0673335D01*
X0935001Y0672502D01*
X0936667D01*
X09375Y0673335D01*
X0929169Y06775D02*
X0932502D01*
X0929169Y0674168D01*
Y0673335D01*
X0930002Y0672502D01*
X0931669D01*
X0932502Y0673335D01*
X09175Y0578335D02*
X0916667Y0577502D01*
X0915001D01*
X0914168Y0578335D01*
Y0579168D01*
X0915001Y0580001D01*
X0915834D01*
X0915001D01*
X0914168Y0580834D01*
Y0581667D01*
X0915001Y05825D01*
X0916667D01*
X09175Y0581667D01*
X0912502Y0578335D02*
X0911669Y0577502D01*
X0910002D01*
X0909169Y0578335D01*
Y0581667D01*
X0910002Y05825D01*
X0911669D01*
X0912502Y0581667D01*
Y0578335D01*
X0916668Y059D02*
X092D01*
X0916668Y0586668D01*
Y0585835D01*
X0917501Y0585002D01*
X0919167D01*
X092Y0585835D01*
X0911669Y059D02*
X0915002D01*
X0911669Y0586668D01*
Y0585835D01*
X0912502Y0585002D01*
X0914169D01*
X0915002Y0585835D01*
X093Y06575D02*
Y0655834D01*
Y0656667D01*
X0934998D01*
X0934165Y06575D01*
Y0653335D02*
X0934998Y0652502D01*
Y0650836D01*
X0934165Y0650002D01*
X0930833D01*
X093Y0650836D01*
Y0652502D01*
X0930833Y0653335D01*
X0934165D01*
Y0648336D02*
X0934998Y0647503D01*
Y0645837D01*
X0934165Y0645004D01*
X0930833D01*
X093Y0645837D01*
Y0647503D01*
X0930833Y0648336D01*
X0934165D01*
M02*
