%FSTAX25Y25*%
%MOIN*%
G70*
G01*
G75*
G04 Layer_Physical_Order=4*
G04 Layer_Color=16711680*
%ADD10C,0.01575*%
G04:AMPARAMS|DCode=11|XSize=62.99mil|YSize=68.9mil|CornerRadius=15.75mil|HoleSize=0mil|Usage=FLASHONLY|Rotation=270.000|XOffset=0mil|YOffset=0mil|HoleType=Round|Shape=RoundedRectangle|*
%AMROUNDEDRECTD11*
21,1,0.06299,0.03740,0,0,270.0*
21,1,0.03150,0.06890,0,0,270.0*
1,1,0.03150,-0.01870,-0.01575*
1,1,0.03150,-0.01870,0.01575*
1,1,0.03150,0.01870,0.01575*
1,1,0.03150,0.01870,-0.01575*
%
%ADD11ROUNDEDRECTD11*%
%ADD12R,0.06890X0.06299*%
G04:AMPARAMS|DCode=13|XSize=35.43mil|YSize=31.5mil|CornerRadius=0mil|HoleSize=0mil|Usage=FLASHONLY|Rotation=225.000|XOffset=0mil|YOffset=0mil|HoleType=Round|Shape=Rectangle|*
%AMROTATEDRECTD13*
4,1,4,0.00139,0.02366,0.02366,0.00139,-0.00139,-0.02366,-0.02366,-0.00139,0.00139,0.02366,0.0*
%
%ADD13ROTATEDRECTD13*%

%ADD14R,0.03543X0.02756*%
%ADD15R,0.03543X0.03150*%
%ADD16R,0.03150X0.03543*%
%ADD17R,0.02756X0.03543*%
%ADD18R,0.05512X0.04331*%
G04:AMPARAMS|DCode=19|XSize=35.43mil|YSize=27.56mil|CornerRadius=0mil|HoleSize=0mil|Usage=FLASHONLY|Rotation=225.000|XOffset=0mil|YOffset=0mil|HoleType=Round|Shape=Rectangle|*
%AMROTATEDRECTD19*
4,1,4,0.00278,0.02227,0.02227,0.00278,-0.00278,-0.02227,-0.02227,-0.00278,0.00278,0.02227,0.0*
%
%ADD19ROTATEDRECTD19*%

%ADD20O,0.07874X0.01969*%
%ADD21O,0.00984X0.03150*%
%ADD22O,0.03150X0.00984*%
%ADD23R,0.07087X0.07087*%
%ADD24R,0.04331X0.06693*%
%ADD25R,0.07087X0.07874*%
G04:AMPARAMS|DCode=26|XSize=70.87mil|YSize=78.74mil|CornerRadius=17.72mil|HoleSize=0mil|Usage=FLASHONLY|Rotation=180.000|XOffset=0mil|YOffset=0mil|HoleType=Round|Shape=RoundedRectangle|*
%AMROUNDEDRECTD26*
21,1,0.07087,0.04331,0,0,180.0*
21,1,0.03543,0.07874,0,0,180.0*
1,1,0.03543,-0.01772,0.02165*
1,1,0.03543,0.01772,0.02165*
1,1,0.03543,0.01772,-0.02165*
1,1,0.03543,-0.01772,-0.02165*
%
%ADD26ROUNDEDRECTD26*%
%ADD27R,0.04331X0.05512*%
%ADD28R,0.29528X0.29528*%
G04:AMPARAMS|DCode=29|XSize=35.43mil|YSize=27.56mil|CornerRadius=0mil|HoleSize=0mil|Usage=FLASHONLY|Rotation=315.000|XOffset=0mil|YOffset=0mil|HoleType=Round|Shape=Rectangle|*
%AMROTATEDRECTD29*
4,1,4,-0.02227,0.00278,-0.00278,0.02227,0.02227,-0.00278,0.00278,-0.02227,-0.02227,0.00278,0.0*
%
%ADD29ROTATEDRECTD29*%

G04:AMPARAMS|DCode=30|XSize=39.37mil|YSize=61.02mil|CornerRadius=9.84mil|HoleSize=0mil|Usage=FLASHONLY|Rotation=225.000|XOffset=0mil|YOffset=0mil|HoleType=Round|Shape=RoundedRectangle|*
%AMROUNDEDRECTD30*
21,1,0.03937,0.04134,0,0,225.0*
21,1,0.01969,0.06102,0,0,225.0*
1,1,0.01969,-0.02158,0.00766*
1,1,0.01969,-0.00766,0.02158*
1,1,0.01969,0.02158,-0.00766*
1,1,0.01969,0.00766,-0.02158*
%
%ADD30ROUNDEDRECTD30*%
G04:AMPARAMS|DCode=31|XSize=39.37mil|YSize=61.02mil|CornerRadius=0mil|HoleSize=0mil|Usage=FLASHONLY|Rotation=225.000|XOffset=0mil|YOffset=0mil|HoleType=Round|Shape=Rectangle|*
%AMROTATEDRECTD31*
4,1,4,-0.00766,0.03550,0.03550,-0.00766,0.00766,-0.03550,-0.03550,0.00766,-0.00766,0.03550,0.0*
%
%ADD31ROTATEDRECTD31*%

G04:AMPARAMS|DCode=32|XSize=35.43mil|YSize=31.5mil|CornerRadius=0mil|HoleSize=0mil|Usage=FLASHONLY|Rotation=315.000|XOffset=0mil|YOffset=0mil|HoleType=Round|Shape=Rectangle|*
%AMROTATEDRECTD32*
4,1,4,-0.02366,0.00139,-0.00139,0.02366,0.02366,-0.00139,0.00139,-0.02366,-0.02366,0.00139,0.0*
%
%ADD32ROTATEDRECTD32*%

G04:AMPARAMS|DCode=33|XSize=39.37mil|YSize=61.02mil|CornerRadius=9.84mil|HoleSize=0mil|Usage=FLASHONLY|Rotation=135.000|XOffset=0mil|YOffset=0mil|HoleType=Round|Shape=RoundedRectangle|*
%AMROUNDEDRECTD33*
21,1,0.03937,0.04134,0,0,135.0*
21,1,0.01969,0.06102,0,0,135.0*
1,1,0.01969,0.00766,0.02158*
1,1,0.01969,0.02158,0.00766*
1,1,0.01969,-0.00766,-0.02158*
1,1,0.01969,-0.02158,-0.00766*
%
%ADD33ROUNDEDRECTD33*%
G04:AMPARAMS|DCode=34|XSize=39.37mil|YSize=61.02mil|CornerRadius=0mil|HoleSize=0mil|Usage=FLASHONLY|Rotation=135.000|XOffset=0mil|YOffset=0mil|HoleType=Round|Shape=Rectangle|*
%AMROTATEDRECTD34*
4,1,4,0.03550,0.00766,-0.00766,-0.03550,-0.03550,-0.00766,0.00766,0.03550,0.03550,0.00766,0.0*
%
%ADD34ROTATEDRECTD34*%

%ADD35O,0.07087X0.00984*%
%ADD36R,0.04400X0.10600*%
G04:AMPARAMS|DCode=37|XSize=39.37mil|YSize=72.84mil|CornerRadius=9.84mil|HoleSize=0mil|Usage=FLASHONLY|Rotation=90.000|XOffset=0mil|YOffset=0mil|HoleType=Round|Shape=RoundedRectangle|*
%AMROUNDEDRECTD37*
21,1,0.03937,0.05315,0,0,90.0*
21,1,0.01969,0.07284,0,0,90.0*
1,1,0.01969,0.02658,0.00984*
1,1,0.01969,0.02658,-0.00984*
1,1,0.01969,-0.02658,-0.00984*
1,1,0.01969,-0.02658,0.00984*
%
%ADD37ROUNDEDRECTD37*%
%ADD38R,0.07284X0.03937*%
%ADD39R,0.07284X0.13780*%
%ADD40R,0.06693X0.04331*%
%ADD41R,0.10600X0.04400*%
G04:AMPARAMS|DCode=42|XSize=70.87mil|YSize=78.74mil|CornerRadius=17.72mil|HoleSize=0mil|Usage=FLASHONLY|Rotation=90.000|XOffset=0mil|YOffset=0mil|HoleType=Round|Shape=RoundedRectangle|*
%AMROUNDEDRECTD42*
21,1,0.07087,0.04331,0,0,90.0*
21,1,0.03543,0.07874,0,0,90.0*
1,1,0.03543,0.02165,0.01772*
1,1,0.03543,0.02165,-0.01772*
1,1,0.03543,-0.02165,-0.01772*
1,1,0.03543,-0.02165,0.01772*
%
%ADD42ROUNDEDRECTD42*%
%ADD43R,0.07874X0.07087*%
%ADD44O,0.09449X0.01772*%
%ADD45O,0.07874X0.01378*%
%ADD46R,0.07874X0.23622*%
%ADD47R,0.02400X0.02200*%
%ADD48R,0.09400X0.12200*%
%ADD49R,0.07800X0.01814*%
%ADD50R,0.07100X0.04400*%
%ADD51R,0.02200X0.02400*%
%ADD52R,0.23622X0.07874*%
G04:AMPARAMS|DCode=53|XSize=27.56mil|YSize=51.18mil|CornerRadius=6.89mil|HoleSize=0mil|Usage=FLASHONLY|Rotation=0.000|XOffset=0mil|YOffset=0mil|HoleType=Round|Shape=RoundedRectangle|*
%AMROUNDEDRECTD53*
21,1,0.02756,0.03740,0,0,0.0*
21,1,0.01378,0.05118,0,0,0.0*
1,1,0.01378,0.00689,-0.01870*
1,1,0.01378,-0.00689,-0.01870*
1,1,0.01378,-0.00689,0.01870*
1,1,0.01378,0.00689,0.01870*
%
%ADD53ROUNDEDRECTD53*%
%ADD54R,0.02756X0.05118*%
%ADD55R,0.02756X0.07087*%
G04:AMPARAMS|DCode=56|XSize=27.56mil|YSize=70.87mil|CornerRadius=6.89mil|HoleSize=0mil|Usage=FLASHONLY|Rotation=180.000|XOffset=0mil|YOffset=0mil|HoleType=Round|Shape=RoundedRectangle|*
%AMROUNDEDRECTD56*
21,1,0.02756,0.05709,0,0,180.0*
21,1,0.01378,0.07087,0,0,180.0*
1,1,0.01378,-0.00689,0.02854*
1,1,0.01378,0.00689,0.02854*
1,1,0.01378,0.00689,-0.02854*
1,1,0.01378,-0.00689,-0.02854*
%
%ADD56ROUNDEDRECTD56*%
G04:AMPARAMS|DCode=57|XSize=31.5mil|YSize=15.75mil|CornerRadius=3.94mil|HoleSize=0mil|Usage=FLASHONLY|Rotation=180.000|XOffset=0mil|YOffset=0mil|HoleType=Round|Shape=RoundedRectangle|*
%AMROUNDEDRECTD57*
21,1,0.03150,0.00787,0,0,180.0*
21,1,0.02362,0.01575,0,0,180.0*
1,1,0.00787,-0.01181,0.00394*
1,1,0.00787,0.01181,0.00394*
1,1,0.00787,0.01181,-0.00394*
1,1,0.00787,-0.01181,-0.00394*
%
%ADD57ROUNDEDRECTD57*%
G04:AMPARAMS|DCode=58|XSize=31.5mil|YSize=15.75mil|CornerRadius=3.94mil|HoleSize=0mil|Usage=FLASHONLY|Rotation=90.000|XOffset=0mil|YOffset=0mil|HoleType=Round|Shape=RoundedRectangle|*
%AMROUNDEDRECTD58*
21,1,0.03150,0.00787,0,0,90.0*
21,1,0.02362,0.01575,0,0,90.0*
1,1,0.00787,0.00394,0.01181*
1,1,0.00787,0.00394,-0.01181*
1,1,0.00787,-0.00394,-0.01181*
1,1,0.00787,-0.00394,0.01181*
%
%ADD58ROUNDEDRECTD58*%
%ADD59R,0.04400X0.07100*%
%ADD60R,0.12200X0.09400*%
%ADD61R,0.01814X0.07800*%
%ADD62R,0.07087X0.02756*%
G04:AMPARAMS|DCode=63|XSize=27.56mil|YSize=70.87mil|CornerRadius=6.89mil|HoleSize=0mil|Usage=FLASHONLY|Rotation=90.000|XOffset=0mil|YOffset=0mil|HoleType=Round|Shape=RoundedRectangle|*
%AMROUNDEDRECTD63*
21,1,0.02756,0.05709,0,0,90.0*
21,1,0.01378,0.07087,0,0,90.0*
1,1,0.01378,0.02854,0.00689*
1,1,0.01378,0.02854,-0.00689*
1,1,0.01378,-0.02854,-0.00689*
1,1,0.01378,-0.02854,0.00689*
%
%ADD63ROUNDEDRECTD63*%
%ADD64R,0.06299X0.06890*%
%ADD65C,0.02500*%
%ADD66C,0.01000*%
%ADD67C,0.09400*%
%ADD68C,0.19685*%
%ADD69C,0.09449*%
%ADD70C,0.06800*%
%ADD71C,0.20000*%
%ADD72C,0.04724*%
%ADD73C,0.06000*%
%ADD74R,0.05906X0.05906*%
%ADD75C,0.05906*%
%ADD76R,0.05906X0.05906*%
%ADD77C,0.07087*%
%ADD78C,0.23622*%
%ADD79C,0.02598*%
%ADD80C,0.04000*%
%ADD81C,0.10200*%
%ADD82C,0.17779*%
%ADD83C,0.11087*%
%ADD84C,0.08200*%
%ADD85C,0.17000*%
%ADD86C,0.07150*%
%ADD87C,0.08724*%
%ADD88C,0.07543*%
%ADD89C,0.07937*%
%ADD90C,0.05299*%
D67*
X02575Y07225D02*
D03*
X02375D02*
D03*
X093Y028D02*
D03*
X091D02*
D03*
X03075Y07225D02*
D03*
X02875D02*
D03*
X09475D02*
D03*
X09275D02*
D03*
D68*
X0176496Y07D02*
D03*
X0195Y0711811D02*
D03*
Y0688189D02*
D03*
D69*
X0836Y01475D02*
D03*
X0816Y01675D02*
D03*
Y01475D02*
D03*
X0836Y01675D02*
D03*
X0665Y013D02*
D03*
X0685Y011D02*
D03*
Y013D02*
D03*
X0665Y011D02*
D03*
X0895Y013D02*
D03*
X0915Y011D02*
D03*
Y013D02*
D03*
X0895Y011D02*
D03*
X04675Y02495D02*
D03*
X04475Y02695D02*
D03*
Y02495D02*
D03*
X04675Y02695D02*
D03*
X0434Y02495D02*
D03*
X0414Y02695D02*
D03*
Y02495D02*
D03*
X0434Y02695D02*
D03*
X04005Y02495D02*
D03*
X03805Y02695D02*
D03*
Y02495D02*
D03*
X04005Y02695D02*
D03*
X0367Y02495D02*
D03*
X0347Y02695D02*
D03*
Y02495D02*
D03*
X0367Y02695D02*
D03*
X03335Y02495D02*
D03*
X03135Y02695D02*
D03*
Y02495D02*
D03*
X03335Y02695D02*
D03*
X03Y02495D02*
D03*
X028Y02695D02*
D03*
Y02495D02*
D03*
X03Y02695D02*
D03*
X0365Y049D02*
D03*
X0345Y051D02*
D03*
Y049D02*
D03*
X0365Y051D02*
D03*
D70*
X0826Y01575D02*
D03*
X0675Y012D02*
D03*
X0905D02*
D03*
X04575Y02595D02*
D03*
X0424D02*
D03*
X03905D02*
D03*
X0357D02*
D03*
X03235D02*
D03*
X029D02*
D03*
X0355Y05D02*
D03*
D71*
X0830025Y0353142D02*
D03*
X0635025D02*
D03*
X0830025Y0723142D02*
D03*
X0635025D02*
D03*
D72*
X0645Y0624843D02*
D03*
X082005D02*
D03*
D73*
X0645Y0450827D02*
D03*
X082005D02*
D03*
D74*
X0816Y02175D02*
D03*
X0464Y0119D02*
D03*
X04305D02*
D03*
X0397D02*
D03*
X03635D02*
D03*
X033D02*
D03*
X02965D02*
D03*
X07325Y04225D02*
D03*
X06Y066D02*
D03*
X04825Y06925D02*
D03*
X0865Y058D02*
D03*
Y059D02*
D03*
Y06D02*
D03*
Y061D02*
D03*
Y062D02*
D03*
X0595Y0625D02*
D03*
Y0645D02*
D03*
Y0635D02*
D03*
Y0615D02*
D03*
Y0605D02*
D03*
Y0595D02*
D03*
Y0585D02*
D03*
Y0575D02*
D03*
Y0565D02*
D03*
D75*
X0816Y02075D02*
D03*
Y01975D02*
D03*
X07735Y014D02*
D03*
X07835D02*
D03*
X0454Y0119D02*
D03*
X0464Y0129D02*
D03*
X0454D02*
D03*
X0464Y0139D02*
D03*
X0454D02*
D03*
X0464Y0149D02*
D03*
X0454D02*
D03*
X0464Y0159D02*
D03*
X0454D02*
D03*
X0464Y0169D02*
D03*
X0454D02*
D03*
X0464Y0179D02*
D03*
X0454D02*
D03*
X0464Y0189D02*
D03*
X0454D02*
D03*
X0464Y0199D02*
D03*
X0454D02*
D03*
X0464Y0209D02*
D03*
X0454D02*
D03*
X04205Y0119D02*
D03*
X04305Y0129D02*
D03*
X04205D02*
D03*
X04305Y0139D02*
D03*
X04205D02*
D03*
X04305Y0149D02*
D03*
X04205D02*
D03*
X04305Y0159D02*
D03*
X04205D02*
D03*
X04305Y0169D02*
D03*
X04205D02*
D03*
X04305Y0179D02*
D03*
X04205D02*
D03*
X04305Y0189D02*
D03*
X04205D02*
D03*
X04305Y0199D02*
D03*
X04205D02*
D03*
X04305Y0209D02*
D03*
X04205D02*
D03*
X0387Y0119D02*
D03*
X0397Y0129D02*
D03*
X0387D02*
D03*
X0397Y0139D02*
D03*
X0387D02*
D03*
X0397Y0149D02*
D03*
X0387D02*
D03*
X0397Y0159D02*
D03*
X0387D02*
D03*
X0397Y0169D02*
D03*
X0387D02*
D03*
X0397Y0179D02*
D03*
X0387D02*
D03*
X0397Y0189D02*
D03*
X0387D02*
D03*
X0397Y0199D02*
D03*
X0387D02*
D03*
X0397Y0209D02*
D03*
X0387D02*
D03*
X03535Y0119D02*
D03*
X03635Y0129D02*
D03*
X03535D02*
D03*
X03635Y0139D02*
D03*
X03535D02*
D03*
X03635Y0149D02*
D03*
X03535D02*
D03*
X03635Y0159D02*
D03*
X03535D02*
D03*
X03635Y0169D02*
D03*
X03535D02*
D03*
X03635Y0179D02*
D03*
X03535D02*
D03*
X03635Y0189D02*
D03*
X03535D02*
D03*
X03635Y0199D02*
D03*
X03535D02*
D03*
X03635Y0209D02*
D03*
X03535D02*
D03*
X032Y0119D02*
D03*
X033Y0129D02*
D03*
X032D02*
D03*
X033Y0139D02*
D03*
X032D02*
D03*
X033Y0149D02*
D03*
X032D02*
D03*
X033Y0159D02*
D03*
X032D02*
D03*
X033Y0169D02*
D03*
X032D02*
D03*
X033Y0179D02*
D03*
X032D02*
D03*
X033Y0189D02*
D03*
X032D02*
D03*
X033Y0199D02*
D03*
X032D02*
D03*
X033Y0209D02*
D03*
X032D02*
D03*
X02865Y0119D02*
D03*
X02965Y0129D02*
D03*
X02865D02*
D03*
X02965Y0139D02*
D03*
X02865D02*
D03*
X02965Y0149D02*
D03*
X02865D02*
D03*
X02965Y0159D02*
D03*
X02865D02*
D03*
X02965Y0169D02*
D03*
X02865D02*
D03*
X02965Y0179D02*
D03*
X02865D02*
D03*
X02965Y0189D02*
D03*
X02865D02*
D03*
X02965Y0199D02*
D03*
X02865D02*
D03*
X02965Y0209D02*
D03*
X02865D02*
D03*
X06Y067D02*
D03*
Y068D02*
D03*
Y069D02*
D03*
Y07D02*
D03*
Y071D02*
D03*
X029Y0545D02*
D03*
X03D02*
D03*
X029Y05225D02*
D03*
X028D02*
D03*
X0435Y06925D02*
D03*
X04825Y06825D02*
D03*
Y06725D02*
D03*
X0455Y07325D02*
D03*
X0465Y07225D02*
D03*
Y07325D02*
D03*
X0475Y07225D02*
D03*
Y07325D02*
D03*
X0485Y07225D02*
D03*
Y07325D02*
D03*
X0495Y07225D02*
D03*
Y07325D02*
D03*
X0505Y07225D02*
D03*
Y07325D02*
D03*
X0515Y07225D02*
D03*
Y07325D02*
D03*
X0525Y07225D02*
D03*
Y07325D02*
D03*
X0535Y07225D02*
D03*
Y07325D02*
D03*
X0545Y07225D02*
D03*
Y07325D02*
D03*
X0555Y07225D02*
D03*
Y07325D02*
D03*
X0565Y07225D02*
D03*
Y07325D02*
D03*
X0575Y07225D02*
D03*
Y07325D02*
D03*
D76*
X07635Y014D02*
D03*
X0355Y0545D02*
D03*
X061Y0325D02*
D03*
X09Y0425D02*
D03*
X01375Y0565D02*
D03*
X053Y03D02*
D03*
X0315Y05775D02*
D03*
X0175Y0125D02*
D03*
X065Y02D02*
D03*
X028Y0545D02*
D03*
X03Y05225D02*
D03*
X0425Y06925D02*
D03*
X0455Y07225D02*
D03*
X0855Y045D02*
D03*
X0925Y02D02*
D03*
D77*
X0925295Y0378642D02*
D03*
X0899705D02*
D03*
Y0396358D02*
D03*
X0925295D02*
D03*
X0436358Y0732795D02*
D03*
Y0707205D02*
D03*
X0418642D02*
D03*
Y0732795D02*
D03*
D78*
X098Y072D02*
D03*
Y012D02*
D03*
X012D02*
D03*
Y072D02*
D03*
D79*
X0791Y02075D02*
D03*
X0776189Y0302811D02*
D03*
X0780913D02*
D03*
X0785638D02*
D03*
X0790362D02*
D03*
X0795087D02*
D03*
X0799811D02*
D03*
X0776189Y0298087D02*
D03*
X0780913D02*
D03*
X0785638D02*
D03*
X0790362D02*
D03*
X0795087D02*
D03*
X0799811D02*
D03*
X0776189Y0293362D02*
D03*
X0780913D02*
D03*
X0785638D02*
D03*
X0790362D02*
D03*
X0795087D02*
D03*
X0799811D02*
D03*
X0776189Y0288638D02*
D03*
X0780913D02*
D03*
X0785638D02*
D03*
X0790362D02*
D03*
X0795087D02*
D03*
X0799811D02*
D03*
X0776189Y0283913D02*
D03*
X0780913D02*
D03*
X0785638D02*
D03*
X0790362D02*
D03*
X0795087D02*
D03*
X0799811D02*
D03*
X0776189Y0279189D02*
D03*
X0780913D02*
D03*
X0785638D02*
D03*
X0790362D02*
D03*
X0795087D02*
D03*
X0799811D02*
D03*
M02*
